<svg version="1.1" id="Layer_1" xmlns="http://www.w3.org/2000/svg" x="0" y="0" viewBox="0 0 80 80" xml:space="preserve">
    <style>
        .st2{fill-rule:evenodd;clip-rule:evenodd;fill:#770a00}
    </style>
    <path d="M50 31.7c.1 0 .1 0 0 0 .1-.1 0-.4 0-.6v.6zm-.1 2.2c-.4 2-1.9 3.7-3.7 4.6l-.4.2c-.2.7-.5 1.4-.9 2.1-1.6 3.2-4 4.7-6.6 6.8h-.1l-1.1.6c-2.3 1.3-4.5 1.8-7.1 2.1l-6.4.1 1.1-.6c-1.1-.3-2.2-.7-3-1.1l-.7-.3c-.3 0-.6-.1-1-.2-2.7-.7-5.5-2.7-7.2-5l-1.7-2.4.3.1c-.1-.1-.2-.3-.3-.4-1.3-2-2.1-4.3-3.5-6.2l-.8-1 1.2-.6c2.2-1 4.4-1.7 6.4-1.5l.2-.1c2-1.3 6.6-.5 8.7.2 1.7-1.7 5.4-2.9 8.4-3l.4-.3c1.7-1.5 3.7-3.3 6.2-3.1.6 0 1 .1 1.5.2.8-.6 1.7-.9 2.5-1l1.9-1c.6-.3 1.4-.3 2.2-.1l.7-.2c1.2-.4 2.2.5 2.7 1.4 0 .1.1.1.1.2.7-.7 1.4-1.3 2.3-1.9l.8-.5h.1c.1-.1.2-.1.3-.1l3.9-1.4-5.9 6.4c.3.1.5.3.7.5.9.8 1.7 2.1.9 3.2l-.6.8c0 .2-.1.5-.1.8-.2.5-.4 1-.8 1.2-.3.2-.6.3-1 .3l-.6.2z" fill-rule="evenodd" clip-rule="evenodd" fill="#fff"/>
    <ellipse transform="rotate(-81.993 31.898 33.744)" cx="31.9" cy="33.7" rx="29.4" ry="29.4" fill-rule="evenodd" clip-rule="evenodd" fill="none" stroke="#770a00" stroke-width="1.801" stroke-linecap="round" stroke-linejoin="round"/>
    <path class="st2" d="M46.8 26.5c-2-1.1-4.5-2.1-6.5-.5 1.1.5 2 1 3 2.3-.5-.2-1.1-.9-2.5-1.7-.9-.5-1.6-.7-2.6-.7-2-.1-3.7 1.3-5.4 2.8.3.2 1 .2 1.5.3 1.7.3 3.5 1.1 4.7 2.6-.5-.2-1.2-.8-1.8-1.1-1.2-.7-2.3-.9-3.6-1.1-2.4-.4-7.5.5-9.6 2.7.8.4 5 2.7 6.4 7-1.9-3.4-3.4-5-5-5.6-.6-.5-1.8-.9-2.5-1.1-1.8-.7-6.2-1.4-7.8-.4 1.1.4 2 .8 3 1.9.9 1 1.4 2.2 1.4 3.2-.5-1.2-.6-1.9-1.8-3.1-3-2.8-6-1.9-9.4-.4 1.4 1.8 2.3 4.3 3.5 6.2.7 1.1 1.7 2.1 2.8 2.5 1 .3 1.7.1 2.6-.4l.5-.2c-.9.9-1.9 1.3-3.1 1.2-.5 0-.6-.2-1-.3 1.6 2.3 4.4 4 6.6 4.6 3.8.9 5-2.4 7.2-5.7-1.1 2.9-3.4 5.8-5.3 6.4 1.1.7 3.2 1.2 4.2 1.2 2 0 5.9-3.7 6.6-9.5-.5 5.6-3.1 7.8-3.5 8.3-.6.8-1.1 1-1.9 1.4h2.2c2.4-.3 4.5-.7 6.7-2l1-.6c2.6-2.1 4.9-3.5 6.3-6.4 1.2-2.5 1.6-4.6 1.1-7.1.5.6.8 1.5.9 2.2.2 1.1-.1 1.1-.2 2.1 1.9-1 3.1-2.7 3.3-4.4.1-1.3.1-1 0-2.4l-.1-1.2c-.1-.4-.2-.9-.3-1.3-2.3 2.1-4.4 4.2-7 6.1-4.2 3.1-12.1 7.6-17.7 6.7-.8-.1-2.6-.7-3.4-1.4 1.7.4.7.7 4.5.9.7 0 3.8-.3 4.7-.8.4 0 2.1-.6 2.6-.8.5-.3 1.4-.6 2-.9 3.9-1.9 7.3-4.1 10.5-7.1 1-1 2.9-2.7 3.7-3.7-.6-.2-1-.5-1.5-.7zm2.8.7c-.5.6-.1 1 .4 1.6.5.6.9.9 1.2 1.6.3.7.4.9.2 1.6-.3 1-1 .7-1 .8 1.1-.3.8-1.7.5-2.4-.6-1.2-1.2-1.2-1.7-2.7l-.6.3c-.1-.3 0-.2 0-.6l.1-.5c-1.7-1.5-1.8-2.7-4-2.9.6-.3 1.6 0 2.3.5.7.5 1.2 1.7 1.8 2.5l.5-.5-.6-1.5c-.3-.6-.7-1-1.3-1.2.5-.2 1.1.3 1.5.9.3.6.2 1.1.5 1.7.9-.8 1.5-1.6 3.4-3l.7-.4c.2-.1.1-.1.2-.1l-3.9 4.3c.3.4.9.5 1.6 1.1.6.5 1.1 1.3.7 1.8 0-.5-.5-1.2-1-1.6l-1.5-1.3zm.4 4.5c.1 0 .1 0 0 0 .1-.1 0-.4 0-.6v.6zm-.1 2.2c-.4 2-1.9 3.7-3.7 4.6l-.4.2c-.2.7-.5 1.4-.9 2.1-1.6 3.2-4 4.7-6.6 6.8h-.1l-1.1.6c-2.3 1.3-4.5 1.8-7.1 2.1l-6.4.1 1.1-.6c-1.1-.3-2.2-.7-3-1.1l-.7-.3c-.3 0-.6-.1-1-.2-2.7-.7-5.5-2.7-7.2-5l-1.7-2.4.3.1c-.1-.1-.2-.3-.3-.4-1.3-2-2.1-4.3-3.5-6.2l-.8-1 1.2-.6c2.2-1 4.4-1.7 6.4-1.5l.2-.1c2-1.3 6.6-.5 8.7.2 1.7-1.7 5.4-2.9 8.4-3l.4-.3c1.7-1.5 3.7-3.3 6.2-3.1.6 0 1 .1 1.5.2.8-.6 1.7-.9 2.5-1l1.9-1c.6-.3 1.4-.3 2.2-.1l.7-.2c1.2-.4 2.2.5 2.7 1.4 0 .1.1.1.1.2.7-.7 1.4-1.3 2.3-1.9l.8-.5h.1c.1-.1.2-.1.3-.1l3.9-1.4-5.9 6.4c.3.1.5.3.7.5.9.8 1.7 2.1.9 3.2l-.6.8c0 .2-.1.5-.1.8-.2.5-.4 1-.8 1.2-.3.2-.6.3-1 .3l-.6.2zM18.8 69.6c-.5 1-1.2 1.6-2.2 2-1 .3-2 .3-3-.2s-1.6-1.2-2-2.2c-.3-1-.3-2 .2-3s1.2-1.6 2.2-1.9c1-.3 2-.3 3 .2s1.6 1.2 2 2.2c.3.9.3 1.9-.2 2.9zm-1.4-.7c.3-.6.4-1.2.2-1.9-.2-.6-.6-1.1-1.2-1.4-.6-.3-1.2-.3-1.8-.1-.6.2-1.1.7-1.4 1.3-.3.6-.4 1.2-.2 1.9s.6 1.1 1.2 1.4c.6.3 1.2.3 1.9.1.6-.2 1-.7 1.3-1.3zm7.1 3.2c.2-.8.1-1.5-.2-2.1-.3-.6-.9-1-1.6-1.2-.8-.2-1.5-.1-2 .3.1-.6.4-1.1.8-1.3.4-.3.9-.3 1.6-.2l2 .5.3-1-1.8-.5c-1.1-.3-2.1-.2-2.8.4-.7.5-1.2 1.3-1.4 2.5l-.2.9c-.2.9-.2 1.7.1 2.3.3.7.9 1.2 1.8 1.4.8.2 1.6.1 2.2-.2.5-.4 1-1 1.2-1.8zm-3.2.9c-.9-.2-1.3-.8-1-1.8.1-.4.3-.8.7-1 .3-.2.7-.3 1.1-.2.4.1.7.3.9.7.2.3.2.7.1 1.2s-.3.8-.7 1c-.3.1-.6.2-1.1.1zm7.9 2.4l-1.4-.2-.8-3.8-1.5 3.6-1.3-.1 2.5-5.1 1.3.1 1.2 5.5zm4.3-1.7l1.4-.1c-.4 1.3-1.3 1.9-2.5 2-.8 0-1.5-.2-2.1-.7-.5-.5-.8-1.2-.9-2 0-.8.2-1.5.7-2.1.5-.6 1.2-.9 2-.9.6 0 1.1.1 1.6.4.5.3.8.7 1.1 1.3.1.4.2.8.3 1.5l-4.3.2c.2.8.7 1.2 1.6 1.2.3 0 .6-.1.7-.1.2-.2.3-.4.4-.7zm.2-1.6c-.2-.7-.7-1.1-1.5-1.1s-1.3.4-1.4 1.2l2.9-.1zm5-1.5l-1.8.2.5 4.2-1.4.2-.6-5.3 3.2-.4.1 1.1zm5.3 3.1l-1.2-5.2-1.3.3.5 2c-.3.2-.6.4-1 .5-.4.1-.7-.1-.8-.6l-.4-1.6-1.3.3.4 1.7c.1.5.3.8.7 1.1.4.2.8.3 1.3.1.5-.1 1-.3 1.3-.6l.5 2.2 1.3-.2zm3.9-3.3l1.3-.5c0 1.3-.6 2.2-1.7 2.7-.8.3-1.5.3-2.2 0-.7-.3-1.2-.8-1.5-1.6-.3-.7-.3-1.5 0-2.2.3-.7.8-1.2 1.5-1.5.6-.2 1.1-.3 1.7-.2.5.1 1 .4 1.4.9.3.3.5.7.7 1.3l-4 1.6c.5.7 1.1.9 1.9.6.3-.1.5-.3.7-.4.2-.2.2-.4.2-.7zm-.3-1.5c-.4-.6-1-.8-1.8-.5-.7.3-1 .8-.9 1.6l2.7-1.1zm7.2-.3L52.1 64l-1.2.7 1.1 1.8-1.7 1-1.1-1.8-1.2.7 2.7 4.6 1.2-.7-1.1-1.9 1.7-1 1.1 1.9 1.2-.7zm4.7-3.5l-1.1.8-1.4-1.7-1.6 1.2 1.4 1.7-1 .9-3.3-4.2 1.1-.8 1.3 1.7 1.6-1.2-1.3-1.7 1.1-.8 3.2 4.1zm5.1-5.1l-.9 1-3.9-3.7.9-1 3.9 3.7zm-2.5.2c-.7-.7-1.4-.7-2.3 0-.2.2-.5.5-1 .9l-1.5-1.4-.9 1 3.9 3.7 1.5-1.5c.4-.4.7-.9.8-1.3 0-.6-.1-1-.5-1.4zm-2 1.1l-.5.5.9.9.5-.5c.4-.4.4-.7.1-1-.3-.3-.6-.3-1 .1zm1.5-10c.4.2.6.6.7 1 .1.4 0 .8-.2 1.2-.2.4-.6.6-1 .6-.4.1-.8 0-1.2-.3l.5-.7c.2.1.4.2.6.2.2 0 .4-.1.5-.3.1-.2.1-.4.1-.6-.1-.2-.2-.3-.4-.5l.4-.6zm6.6 3.2l-4.5-3-.7 1 1.5 3.8-2.8-1.8-.7 1.1 4.5 3 .7-1-1.6-3.8 2.9 1.9.7-1.2zm2.1-8.6c1 .4 1.2 1.2.6 2.6l-.8 2.1-5-2 .8-2.1c.5-1.2 1.2-1.6 2.1-1.2.4.2.7.5.8 1 .4-.5.9-.6 1.5-.4zm-2.7.6c-.3-.1-.6 0-.8.5l-.3.7 1.1.4.3-.7c.2-.4.1-.7-.3-.9zm2.1.7c-.4-.2-.7 0-.9.5l-.3.7 1.1.5.3-.8c.2-.4.2-.7-.2-.9zm1.5-5.7c.3.2.4.4.5.6 0 .2 0 .4-.1.8-.2.8-.7 1.2-1.6 1.2l1-4.2c-.6-.1-1.1-.2-1.5-.1-.6.1-1.1.3-1.5.7-.4.4-.7.9-.8 1.5-.2.8-.1 1.5.4 2.1.4.6 1 1.1 1.8 1.2.8.2 1.5.1 2.2-.3.6-.4 1.1-1 1.2-1.8.3-1.2-.1-2.2-1.2-3l-.4 1.3zm-1.5-.5l-.7 2.8c-.7-.4-1-.9-.8-1.7.2-.8.7-1.1 1.5-1.1zm2-6.8c.6.2 1.1.6 1.5 1.1.3.5.5 1.1.4 1.8-.1.8-.4 1.5-1 2s-1.3.7-2.1.6c-.8-.1-1.5-.4-2-.9-.5-.6-.7-1.3-.6-2.1.1-.7.3-1.3.7-1.7.4-.5.9-.7 1.6-.8l-.1 1.3c-.6.2-.9.7-1 1.3 0 .5.1.8.4 1.1.3.3.7.4 1.1.5.5 0 .9-.1 1.2-.3.3-.3.5-.6.6-1.1.1-.7-.2-1.2-.8-1.4l.1-1.4z"/>
</svg>
