<svg version="1.1" id="Layer_1" xmlns="http://www.w3.org/2000/svg" x="0" y="0" viewBox="0 0 80 80" xml:space="preserve">
    <style>
        .st0{fill:#692721}
    </style>
    <path class="st0" d="M55.2 15.7c-5-5-11.9-8.1-19.6-8.1C28 7.6 21 10.7 16 15.7c-5 5-8.1 11.9-8.1 19.6S11 49.9 16 54.9c5 5 11.9 8.1 19.6 8.1 7.6 0 14.6-3.1 19.6-8.1 5-5 8.1-11.9 8.1-19.6s-3.1-14.6-8.1-19.6zM35.6 5.8c8.1 0 15.5 3.3 20.8 8.6 5.3 5.3 8.6 12.7 8.6 20.8 0 8.1-3.3 15.5-8.6 20.8-5.3 5.3-12.7 8.6-20.8 8.6-8.1 0-15.5-3.3-20.8-8.6-5.3-5.3-8.6-12.7-8.6-20.8 0-8.1 3.3-15.5 8.6-20.8 5.3-5.3 12.7-8.6 20.8-8.6z"/>
    <path class="st0" d="M35.7 20c2.6 0 5.1.7 7.5 2 2.4 1.3 4.4 3.2 5.7 5.7 1.4 2.5 2 5 2 7.7 0 2.6-.7 5.2-2 7.6-1.3 2.4-3.2 4.3-5.7 5.7-2.4 1.3-5 2-7.6 2-2.7 0-5.2-.7-7.6-2-2.4-1.3-4.3-3.2-5.7-5.7-1.3-2.4-2-5-2-7.6 0-2.7.7-5.2 2.1-7.7 1.4-2.5 3.3-4.3 5.7-5.7 2.5-1.4 5-2 7.6-2zm0 2.5c-2.2 0-4.3.6-6.3 1.7s-3.6 2.7-4.8 4.7c-1.1 2-1.7 4.2-1.7 6.4s.6 4.3 1.7 6.3 2.7 3.6 4.7 4.7 4.1 1.7 6.4 1.7c2.2 0 4.3-.6 6.3-1.7s3.6-2.7 4.7-4.7 1.7-4.1 1.7-6.3-.6-4.3-1.7-6.4c-1.1-2-2.7-3.6-4.8-4.7-2-1.1-4.1-1.7-6.2-1.7zm-6.8 21.2V27.3h5.7c1.9 0 3.3.2 4.2.5.9.3 1.6.8 2.1 1.6s.8 1.6.8 2.4c0 1.2-.4 2.3-1.3 3.1-.9.9-2 1.4-3.4 1.5.6.2 1.1.5 1.4.9.7.6 1.5 1.7 2.4 3.3l2 3.2h-3.2l-1.5-2.6c-1.1-2-2.1-3.3-2.8-3.8-.5-.4-1.2-.6-2.1-.6h-1.6v7h-2.7v-.1zm2.7-9.2h3.2c1.5 0 2.6-.2 3.2-.7.6-.5.8-1.1.8-1.8 0-.5-.1-.9-.4-1.3-.3-.4-.6-.7-1.1-.9-.5-.2-1.4-.3-2.7-.3h-3v5zM15.4 68.5c-.4.5-.9.8-1.6.8-.7 0-1.3-.1-1.8-.5-.6-.4-.9-.9-1.1-1.6-.2-.7-.1-1.3.3-1.9l1.2.9c-.2.3-.2.5-.2.8.1.3.2.5.5.7.3.2.5.3.8.2.3 0 .5-.2.7-.4.2-.3.3-.6.2-.8-.1-.3-.2-.5-.5-.7l-.1-.1c-.1-.1-.3-.2-.5-.3l.7-.9.5.3c.3.2.5.3.8.3.3 0 .5-.1.7-.4.2-.2.2-.4.2-.7 0-.2-.2-.4-.4-.6-.5-.3-.9-.3-1.2.2l-1.2-.9c.4-.5.9-.8 1.5-.9.6-.1 1.2.1 1.7.5s.9.9 1 1.4c.2.6.1 1.1-.3 1.7-.5.6-1.1.8-1.8.7.4.8.4 1.5-.1 2.2zm5 4.9l-1.2-.6.3-.6c-.6.3-1.2.3-1.9-.1s-1.2-.9-1.4-1.6c-.2-.7-.1-1.4.2-2.1.4-.7.9-1.2 1.6-1.5.7-.3 1.4-.2 2.1.1.6.3 1 .8 1.2 1.4l.3-.5 1.2.6-2.4 4.9zm0-3c.2-.4.3-.8.1-1.2-.1-.4-.4-.7-.8-.9-.3-.3-.7-.3-1.1-.1-.4.2-.7.4-.9.8-.2.4-.2.8-.1 1.2.1.4.4.7.8.9.4.2.8.2 1.2.1.3-.1.6-.4.8-.8zm6.1 5l-1.3-.4 1.3-4.1-1.9-.6-1.3 4.1L22 74l1.7-5.1 4.4 1.4-1.6 5.1zm7.3.9l-1.3-.2.1-.6c-.5.5-1.1.7-1.8.6-.8-.2-1.4-.5-1.8-1.1-.4-.6-.6-1.3-.5-2.1.1-.8.4-1.4 1-1.9s1.2-.7 2-.6c.7.1 1.2.4 1.6.9l.1-.6 1.3.2-.7 5.4zm-1-2.9c.1-.5 0-.9-.3-1.2-.3-.4-.6-.6-1.1-.6-.4-.1-.8.1-1.1.3-.3.3-.5.6-.6 1.1-.1.4 0 .8.3 1.2.3.4.6.6 1 .6.4.1.8-.1 1.1-.3.5-.3.7-.6.7-1.1zm5.8-1.6l-1.2.1.3 4.2-1.3.1L36 72l-1.2.1-.1-1.1 3.8-.3.1 1.1zm5 1.8l1.3-.3c-.2 1.3-.9 2.1-2.2 2.4-.8.2-1.5.1-2.2-.4-.6-.4-1-1-1.2-1.8-.2-.8-.1-1.5.3-2.1.4-.7 1-1.1 1.8-1.2.6-.1 1.2-.1 1.7.1s.9.6 1.3 1.1c.2.3.4.8.5 1.4l-4.2.9c.3.8.9 1.1 1.8.9.3-.1.6-.2.7-.3.3-.2.4-.4.4-.7zm-.1-1.5c-.3-.7-.9-1-1.7-.8-.8.2-1.2.6-1.2 1.4l2.9-.6zm7.9.9l-1.3.5-.8-2.1-1.9.7.8 2.1-1.2.6-2-5 1.3-.5.8 2 1.9-.7-.8-2 1.3-.5 1.9 4.9zm2.7-6l-1.1.5 2 3.8-1.2.6-2-3.8-1.1.6-.5-1 3.4-1.8.5 1.1zm2.4.4c.3.4.6.6 1 .7.4.1.8 0 1.2-.3.4-.3.6-.6.6-1s-.1-.8-.4-1.2c-.3-.4-.6-.6-1-.7-.4-.1-.8 0-1.2.3-.4.3-.6.6-.6 1s.1.8.4 1.2zm3.5-2.7c.5.7.7 1.4.6 2.1-.1.8-.5 1.4-1.2 1.9s-1.4.7-2.1.6c-.8-.1-1.4-.5-1.9-1.2s-.7-1.4-.5-2.1c.1-.8.5-1.4 1.2-1.9s1.4-.7 2.1-.6c.7.2 1.3.5 1.8 1.2zm4.9-3c.7.7.6 1.6-.5 2.6l-1.6 1.6-3.7-3.9 1.6-1.6c.9-.9 1.7-1 2.4-.3.3.3.4.8.3 1.2.6-.2 1.1-.1 1.5.4zm-2.7-.5c-.3-.3-.6-.2-.9.1l-.5.5.8.8.5-.5c.3-.3.4-.6.1-.9zm1.7 1.4c-.3-.3-.7-.3-1.1.1l-.6.6.9.9.6-.6c.4-.4.4-.7.2-1zm6.3-5.5l-.7 1.1-.5-.3c.2.6.1 1.2-.3 1.8-.4.7-1 1-1.8 1.1-.7.1-1.4-.1-2.1-.5-.7-.5-1.1-1-1.2-1.8-.2-.7 0-1.4.4-2.1.4-.6.9-.9 1.6-1l-.6-.2.8-1.1 4.4 3zm-2.9-.4c-.4-.3-.8-.4-1.2-.3-.4.1-.8.3-1 .7-.3.4-.3.8-.2 1.2.1.4.3.7.7 1 .4.2.8.3 1.2.3.4-.1.8-.3 1-.6.2-.3.3-.7.2-1.2-.1-.5-.4-.9-.7-1.1zm6-5.3l-.6 1.2-2-1-.9 1.8 2 1-.6 1.2-4.8-2.4.6-1.2 1.9.9.9-1.8-1.9-.9.6-1.2 4.8 2.4zm-1.6-3.6c.4.1.8.1 1.2 0 .4-.2.6-.5.8-.9.1-.4.1-.8-.1-1.2-.2-.4-.5-.6-1-.7-.5-.1-.9-.1-1.2 0-.4.2-.6.5-.8.9-.1.4-.1.8.1 1.2.3.3.6.5 1 .7zm1.4-4.2c.8.3 1.4.7 1.7 1.4.3.7.4 1.4.1 2.2-.3.8-.7 1.4-1.4 1.7-.7.3-1.4.4-2.2.1-.8-.3-1.3-.7-1.7-1.4-.3-.7-.4-1.4-.1-2.2.3-.8.7-1.4 1.4-1.7.7-.3 1.4-.4 2.2-.1z"/>
</svg>
