<svg version="1.1" id="Layer_1" xmlns="http://www.w3.org/2000/svg" xmlns:xlink="http://www.w3.org/1999/xlink" x="0" y="0" viewBox="0 0 80 80" xml:space="preserve">
    <style>
        .st1,.st2{fill-rule:evenodd;clip-rule:evenodd;fill:#fff}.st2{fill:#770a00}
    </style>
    <ellipse transform="rotate(-22.079 33.207 34.335)" cx="33.2" cy="34.3" rx="29.4" ry="29.4" fill-rule="evenodd" clip-rule="evenodd" fill="none" stroke="#770a00" stroke-width="1.801" stroke-linecap="round" stroke-linejoin="round"/>
    <path class="st1" d="M16.1 23.6h34.1v7.3H16.1zM21 49.4h2.6c-1.8-.9-3.1-2.7-3.1-4.8 0-3 2.4-5.4 5.4-5.4 2.9 0 5.2 2.3 5.4 5.1h.5c-.2-.7-.4-1.5-.4-2.4 0-4.4 3.5-7.9 7.9-7.9s7.9 3.5 7.9 7.9c0 3.4-2.2 6.3-5.2 7.4h3.4l.5-2.7h1l-.7 3.6h-26l-.7-3.6h1l.5 2.8z"/>
    <path class="st2" d="M15.2 22.8h35.9v31.4H15.2V22.8zm31.2 2.6c-.9 0-1.7.7-1.7 1.7 0 .9.7 1.7 1.7 1.7.9 0 1.7-.7 1.7-1.7-.1-.9-.8-1.7-1.7-1.7zm-4 0c-.9 0-1.7.7-1.7 1.7 0 .9.7 1.7 1.7 1.7.9 0 1.7-.7 1.7-1.7 0-.9-.7-1.7-1.7-1.7zm-25.3 4.5h32.2v-5.1H17.1v5.1zm32.2 1.6H17.1v20.6h32.2V31.5z"/>
    <path class="st2" d="M25.4 47.5c-.1-.4-.1-.9-.2-1.3-.5-.6-1.9-1.1-1.9-.1 0 1.7 1.2.9 2.1 1.4zm-1.9-2.4c0-.2-.1-.3-.1-.5 0-1.4 1.1-2.5 2.5-2.5 1.3 0 2.4 1 2.5 2.3h-4.1c.3.3.5.7.6 1-.3-.2-.9-.4-1.4-.3zm7.2-.7h-1.8c-.1-1.5-1.4-2.8-2.9-2.8-1.6 0-3 1.3-3 3 0 .3 0 .5.1.8-.2.2-.3.5-.3 1 .1 2.3 1.8.9 2.8 2 .1.4.2.7.5 1H26c-2.6 0-4.8-2.1-4.8-4.8 0-2.6 2.1-4.8 4.8-4.8 2.5 0 4.6 2 4.7 4.6zm-3.6 5c-1.6-.7-.8-3.1-2-4.5h6.3c-1 1.5-.3 3.8-2 4.5h-2.3zm12.2-11.1c2 0 3.6 1.6 3.6 3.6s-1.6 3.6-3.6 3.6-3.6-1.6-3.6-3.6c-.1-1.9 1.6-3.6 3.6-3.6zm0-.7c-2.4 0-4.4 2-4.4 4.4 0 2.4 2 4.4 4.4 4.4 2.4 0 4.4-2 4.4-4.4-.1-2.4-2-4.4-4.4-4.4zm0-2.7c-3.9 0-7 3.2-7 7 0 3.9 3.2 7 7 7 3.9 0 7-3.2 7-7s-3.1-7-7-7zm-7.4 9.9c-.7 1.5-.4 3.5-1.4 4.6h6.1c-2.2-.8-3.9-2.4-4.7-4.6zM21 49.4h2.6c-1.8-.9-3.1-2.7-3.1-4.8 0-3 2.4-5.4 5.4-5.4 2.9 0 5.2 2.3 5.4 5.1h.5c-.2-.7-.4-1.5-.4-2.4 0-4.4 3.5-7.9 7.9-7.9s7.9 3.5 7.9 7.9c0 3.4-2.2 6.3-5.2 7.4h3.4l.5-2.7h1l-.7 3.6h-26l-.7-3.6h1l.5 2.8zM17.9 73.2l-1.4-.6L19 67l-2.4-1.1-2.5 5.6-1.4-.6 3.1-6.8 5.1 2.3-3 6.8zm2.8-1.8c-.1.5-.1.9.1 1.2.2.4.5.6 1 .7.5.1.8.1 1.2-.2.3-.2.6-.6.7-1 .1-.5.1-.9-.1-1.2-.2-.4-.5-.6-1-.7-.5-.1-.8 0-1.2.2-.4.2-.6.6-.7 1zm4.2 1c.2-.8.1-1.5-.3-2.2-.4-.6-1-1.1-1.8-1.3-.8-.2-1.5-.1-2.2.3-.7.4-1.1 1-1.3 1.8-.2.8-.1 1.5.3 2.2.4.6 1 1.1 1.8 1.3.8.2 1.6.1 2.2-.3.7-.3 1.1-.9 1.3-1.8zm5.7 1.7c-.2.6-.6 1.1-1.1 1.4-.5.3-1.1.4-1.8.4-.8-.1-1.5-.4-1.9-1-.5-.6-.7-1.3-.6-2.1.1-.8.4-1.5 1-2s1.3-.7 2.1-.6c.7.1 1.3.3 1.7.7.4.4.7 1 .8 1.7l-1.3-.2c-.2-.6-.6-.9-1.3-1-.5-.1-.8.1-1.1.3-.3.3-.5.6-.5 1.1-.1.5 0 .9.3 1.2.2.3.6.5 1 .6.7.1 1.2-.2 1.5-.7l1.2.2zm5.5-3.3l-1.4-.1-1.4 3.5-1.2-3.6-1.4-.1 1.9 5.2-1.1 2.5 1.4.1 3.2-7.5zm5.4 5.7l-1.1.1-.1-1.1-3.3.4.1 1.1-1.1.1-.2-2.2.6-.1 1-4.4 1.4-.2 1.9 4.1.6-.1.2 2.3zm-2.2-2L38.2 72l-.5 2.7 1.6-.2zm3-2.2c.1.4.4.8.7 1 .3.2.7.3 1.2.1.4-.1.8-.4.9-.7.2-.4.2-.8.1-1.2-.1-.5-.4-.8-.7-1-.3-.2-.7-.3-1.2-.1-.4.1-.8.4-.9.7-.2.4-.3.8-.1 1.2zm4.2-1.2c-.2-.8-.7-1.4-1.3-1.7-.7-.4-1.4-.4-2.2-.2-.8.2-1.4.7-1.8 1.3-.4.7-.5 1.4-.3 2.2.2.8.7 1.4 1.3 1.8.7.4 1.4.4 2.2.2.8-.2 1.4-.7 1.8-1.3.5-.7.5-1.5.3-2.3zm7.2-.3l-1.2.5-1.4-3.2.2 3.7-.9.4-2.7-2.6 1.5 3.1-1.2.7-2.2-4.9 1.6-.7 2.8 2.8-.3-4 1.6-.7 2.2 4.9zm.3-3.4c.3.4.6.6 1 .7.4.1.8 0 1.2-.3.4-.3.6-.6.6-1 .1-.4-.1-.8-.3-1.2-.3-.4-.6-.6-1-.7-.4-.1-.8 0-1.2.3-.4.3-.6.6-.6 1s.1.8.3 1.2zm3.6-2.6c-.5-.7-1.1-1.1-1.8-1.2-.8-.1-1.5.1-2.2.5-.7.5-1.1 1.1-1.2 1.8-.2.8 0 1.5.5 2.1.5.7 1.1 1.1 1.8 1.2.8.1 1.5 0 2.2-.5.7-.5 1.1-1.1 1.2-1.8.2-.7 0-1.4-.5-2.1zm3.8-2.1l1-1c.5 1.2.3 2.3-.6 3.1-.6.6-1.3.8-2 .8-.8 0-1.4-.3-2-.9-.6-.6-.8-1.2-.8-2s.3-1.4.9-2c.4-.4.9-.7 1.5-.8.6-.1 1.1 0 1.7.3.3.2.7.5 1.2.9l-3.1 3c.7.5 1.4.5 2-.1.2-.2.4-.4.5-.6-.1-.1-.1-.4-.3-.7zm-.9-1.2c-.7-.4-1.3-.4-1.8.2-.6.5-.6 1.2-.3 1.8l2.1-2zm6.4-2.6l-4.3-3.3-.8 1.1 1.7 1.3c-.1.3-.2.7-.5 1-.3.4-.6.4-1 .1l-1.3-1-.8 1 1.4 1.1c.4.3.8.4 1.2.4.4-.1.8-.3 1.1-.7.3-.4.5-.9.6-1.3L66 60l.9-1.1zm3.3-4.8l-.7 1.1-1.9-1.2-1.1 1.7 1.8 1.2-.7 1.1-4.5-3 .7-1.1 1.8 1.2 1.1-1.7-1.8-1.2.7-1.1 4.6 3zm2.5-6.1l-5-2-.5 1.3.5.2c-.6.2-1 .6-1.3 1.3-.3.7-.3 1.4 0 2.1.3.7.9 1.1 1.6 1.4.7.3 1.5.3 2.2.1.7-.3 1.2-.8 1.5-1.5.3-.7.2-1.3-.1-1.9l.6.2.5-1.2zm-3 .2c-.4-.2-.8-.2-1.3 0-.4.2-.7.4-.9.9-.2.4-.2.8 0 1.2.2.4.5.7.9.8.4.2.8.2 1.2 0 .4-.2.7-.4.9-.8.2-.4.1-.8 0-1.2-.1-.5-.4-.8-.8-.9zm4.4-5.2l-.4 1.3-2.2-.6 1.8 2.2-.4 1.5-1.6-2.2c-.4.8-1.1 1.1-1.9.9-.6-.2-.9-.5-1.1-1-.1-.4-.1-.9 0-1.5l.6-2.2 5.2 1.6zm-3.3.5l-1.3-.3-.2.8c-.1.5 0 .8.4.9.4.1.7-.1.9-.6l.2-.8zM75 32.4v1.3l-3.5-.2 3.4 1.5v.9l-3.5 1.3 3.5.1-.1 1.3-5.4-.2.1-1.7 3.8-1.2-3.7-1.5.1-1.7 5.3.1zm-.8-6.5l.1 1.3-.6.1c.6.3.9.9 1 1.6.1.8-.1 1.5-.6 2-.5.6-1.1.9-1.9 1-.8.1-1.5-.1-2.1-.5-.6-.4-.9-1-1-1.8-.1-.7.1-1.3.5-1.7l-.6-.1-.2-1.3 5.4-.6zm-2.5 1.6c-.5.1-.8.2-1.1.6-.3.3-.4.7-.4 1.2 0 .4.2.8.6 1 .3.2.7.3 1.2.3.4 0 .8-.2 1.1-.6.3-.3.4-.7.4-1.1 0-.4-.2-.8-.6-1-.4-.4-.8-.5-1.2-.4zm0-9.6l-5.1 1.8.4 1.2 4-1.4.6 1.6-4 1.4.4 1.1 4-1.4.6 1.6-4 1.4.4 1.2 5.1-1.8-2.4-6.7zM69 12.5l.6 1.2-3.1 1.5 4.1.6.5 1.1-4.8 2.3-.6-1.2 3-1.5-4-.7-.5-1.1 4.8-2.2zm-3.5-4.7l-4.4 3.1.8 1.1 1.7-1.2 1.2 1.6-1.7 1.2.8 1.1 4.4-3.1-.8-1.1-1.8 1.3-1.2-1.6 1.8-1.3-.8-1.1zM60.9 3l.9.9-.5.4c.7-.1 1.2.2 1.7.7.6.6.8 1.2.8 2 0 .7-.4 1.4-.9 2-.6.6-1.2.8-2 .9-.7 0-1.4-.3-1.9-.8s-.7-1.1-.6-1.7l-.4.3-.9-1L60.9 3zm-1 2.8c.3-.3.7-.4 1.1-.5.4 0 .8.1 1.1.4.3.3.4.7.4 1.1 0 .4-.2.8-.5 1.1-.3.3-.7.5-1.1.5-.4 0-.8-.1-1.1-.5-.3-.3-.5-.7-.4-1.1 0-.3.2-.7.5-1zM26.9 18c-.1 1.2 1.1 4.9-.3 6.3 3.2-1.1.2-5.4.3-6.3zm-1.1-6.6c-.1 4.7 2.9 7.7 3 10.3.1 1.9-1.3 4.1-3.8 3.7-2.7-.4-3.4-1.9-3.3-4.3.2-3.2 3.8-7.4 4.1-9.7zM32 30c-.1.9.9 3.9-.2 5.1 2.6-.9.2-4.4.2-5.1zm-.8-5.3c-.2 1.8-3.2 5.2-3.3 7.9-.1 2 .5 3.2 2.7 3.5 2 .3 3.1-1.5 3-3-.1-2.2-2.5-4.6-2.4-8.4zm5.3-11.6c-.2 1.2 1.1 5-.3 6.5 3.3-1.1.3-5.6.3-6.5zm-1-6.7c-.1 4.9 2.9 8 3.1 10.7.1 2-1.3 4.2-3.9 3.9-2.8-.4-3.5-1.9-3.4-4.4.1-3.6 3.9-7.9 4.2-10.2z"/>
    <defs>
        <path id="SVGID_1_" d="M54.6 14.1L15.1 57.5c-1.2-.9-2.2-1.9-3.2-2.9l39.5-43.5c1.1.9 2.2 1.9 3.2 3z"/>
    </defs>
    <clipPath id="SVGID_2_">
        <use xlink:href="#SVGID_1_" overflow="visible"/>
    </clipPath>
    <g clip-path="url(#SVGID_2_)">
        <image width="179" height="194" xlink:href="A6C412A3.jpg" transform="matrix(.2386 0 0 .2391 11.85 11.143)" overflow="visible"/>
    </g>
</svg>
