<svg xmlns="http://www.w3.org/2000/svg" viewBox="0 0 80 80">
    <path d="M29 60.4c-17.8-6.2-18.3-12.8-18.7-20-.2-3.4-.4-7-4.9-11.1l-2.4-2 1.8.2c2.3.3 5.5.9 8.6 2.5 3.1 1.6 6 4.5 8 9.4l.4 1v.4c0 6.1 3.2 11.4 5.2 14.6.9 1.5 1.6 2.6 2 4.2v.5c-.1.1 0 .3 0 .3zm18.7-27.6c-1-5.6-2.1-11.6 2.9-19.8l1.4-2.5-2.1.7C21.5 20 20.4 34.8 23.8 45.9c1.4 4.6 3.5 8.3 4.9 11 .7 1.2 1.1 1.9 1.1 2V61l.5-.3c20.2-11.9 18.9-19.2 17.4-27.9z" fill-rule="evenodd" clip-rule="evenodd" fill="#fff"/>
    <path d="M32.1 3.1c8.1 0 15.7 3.1 21.4 8.9 5.7 5.7 8.9 13.3 8.9 21.4 0 8.1-3.1 15.7-8.9 21.4-5.7 5.7-13.3 8.9-21.4 8.9-8.1 0-15.7-3.1-21.4-8.9C4.9 49 1.8 41.4 1.8 33.4c0-8.1 3.1-15.7 8.9-21.4C16.4 6.3 24 3.1 32.1 3.1m0-1.8c-8.2 0-16.4 3.1-22.7 9.4C-3.1 23.2-3.1 43.5 9.4 56c6.3 6.3 14.5 9.4 22.7 9.4s16.4-3.1 22.7-9.4c12.5-12.5 12.5-32.8 0-45.3-6.3-6.3-14.5-9.4-22.7-9.4z" fill="#770a00"/>
    <path d="M29 60.4c-17.8-6.2-18.3-12.8-18.7-20-.2-3.4-.4-7-4.9-11.1l-2.4-2 1.8.2c2.3.3 5.5.9 8.6 2.5 3.1 1.6 6 4.5 8 9.4l.4 1v.4c0 6.1 3.2 11.4 5.2 14.6.9 1.5 1.6 2.6 2 4.2v.5c-.1.1 0 .3 0 .3zM10.9 42.2c.3 5.4.8 10.4 17.4 16.3-.2-.2-.4-.5-.9-1.3-2.3-3.8-6.1-10.1-6.2-17.7-1.8-3.8-4.4-6.2-7.2-7.7-2.5-1.3-5-2-7.1-2.3 3.4 4.5 3.7 8.7 4 12.7zM30 58.6C49.8 47 48.5 39.7 47 31.3c-.9-5.2-1.9-10.6 1.5-17.8C22.1 22.4 20.8 35.9 24 46c1.1 3.4 2.9 6.8 4.2 9.2.8 1.3 1.5 2.4 1.8 3.4zm17.7-25.8c-1-5.6-2.1-11.6 2.9-19.8l1.4-2.5-2.1.7C21.5 20 20.4 34.8 23.8 45.9c1.4 4.6 3.5 8.3 4.9 11 .7 1.2 1.1 1.9 1.1 2V61l.5-.3c20.2-11.9 18.9-19.2 17.4-27.9zm-9-12.3c-.8 1.5.4 4.7 1.2 5.6-.1.2-.1.7 0 1-1.1-1.3-2.1-4.9-1.2-6.6zm-5.6 5.3c-.7 3.9 5.3 8.2 6.9 12.3 0 .7 0 1.8-.1 2.5 0-4.4-7.9-10.5-6.8-14.8zM27.6 36c-1.3 4.4 10 9.6 7.8 14.9.4-.5 1-1.3 1.2-1.9.4-4.6-10.2-9.6-9-13zm13.9-2.9c.5 5.4.1 15.6-10.6 22.4 9.2-7.8 10.1-15 9.3-22.1-.3-4.8-1.5-13.5 7.2-18.7-8.1 5.4-6.4 11.9-5.9 18.4zm-27.9 8.7c.4 3.5 4.6 10.7 12.4 14.5-7.5-4.3-10.5-10.2-11-14.8-.4-3.2-1.4-8.6-7.8-11.3 5.9 2.9 5.8 7.2 6.4 11.6zm.4 30.9c-.3.8-1 1.2-1.6 1.3-.7.1-1.3 0-2.2-.4l-2-.9 3.6-7.3 4.2 2.1-.7 1.3-2.7-1.4-.8 1.4.5.3c1.9.9 2.5 2.1 1.7 3.6zm-1.4-.6c.2-.4.2-.8 0-1-.1-.2-.4-.4-.9-.7l-.5-.3-.9 2 .5.3c.9.3 1.4.2 1.8-.3zm5.7 3c-.2.2-.4.4-.8.4-.2 0-.4 0-.8-.1-.9-.3-1.3-1-1.1-1.9L20 75c.2-.7.3-1.2.3-1.5 0-.7-.2-1.2-.5-1.8-.3-.5-.9-.9-1.5-1.1-.9-.3-1.6-.2-2.4.1-.8.3-1.3 1-1.5 1.8-.4 1-.4 1.7 0 2.5.3.8 1 1.3 1.8 1.5 1.3.4 2.4.1 3.4-1 0 .1-1.3-.4-1.3-.4zm.7-1.5c.1-.9-.2-1.4-1.1-1.8-.8-.3-1.4-.1-2 .7l3.1 1.1zm6.2 3.5c-.1.5-.5 1-1.2 1.2-.5.1-1.1.2-1.8 0-.7-.1-1.2-.4-1.5-.9-.4-.4-.5-1-.4-1.6l1.4.3c0 .2 0 .4.2.7.1.1.3.2.7.3.8.2 1.2 0 1.3-.4.1-.3-.1-.7-.4-.8-.2-.1-.4-.2-1-.3l.2-1c.4.1.8.1.9.1.3 0 .5-.2.7-.4.1-.4-.1-.8-.7-.9-.7-.1-1 0-1.1.4l-1.3-.3c.3-1.2 1.3-1.6 2.7-1.2.7.1 1.1.4 1.4.8.4.4.5.9.4 1.4-.1.5-.5.9-1.1 1 .5.3.8.8.6 1.6zm2-1.2c0 .5.1 1 .3 1.3.2.3.7.5 1.2.5s.9-.1 1.2-.4c.3-.3.5-.8.5-1.2 0-.5-.1-1-.3-1.3-.2-.3-.7-.5-1.2-.5s-.9.1-1.2.4c-.3.3-.4.8-.5 1.2zm4.8.4c.1-.9-.2-1.6-.8-2.3s-1.3-1-2.2-1.1c-.9-.1-1.6.2-2.3.7-.7.5-1 1.2-1.1 2.2-.1.9.2 1.6.8 2.3.5.7 1.3 1 2.2 1.1.9.1 1.8-.1 2.3-.7.6-.5 1.1-1.3 1.1-2.2zm5.8 2.6l-1.4.1-.4-4.8-2.2.1.3 4.7-1.4.1-.5-5.8 5-.4.6 6zm7.1-1.5l-1.4.3-.1-.7c-.3.7-.9 1.1-1.6 1.2-.9.2-1.6.1-2.3-.4-.7-.4-1.1-1.1-1.3-2-.2-.9-.1-1.6.3-2.3.4-.7 1-1.2 1.9-1.3.8-.2 1.4-.1 2 .3l-.2-.7 1.4-.3c-.1.1 1.3 5.9 1.3 5.9zm-2.1-2.5c-.1-.4-.3-.9-.8-1.1-.4-.2-.9-.3-1.3-.2-.4.1-.9.3-1.1.8-.2.4-.3.9-.2 1.3.1.4.3.9.8 1.1.4.3.9.3 1.3.2.4-.1.8-.3 1.1-.8.2-.4.3-.9.2-1.3zm7.8-2l-1.4.5c0 .7-.3 1.2-1 1.4-.4.2-.9.2-1.3 0s-.8-.5-.9-1c-.2-.4-.2-.9-.1-1.3s.4-.8.9-.9c.7-.3 1.3-.2 1.8.3l1.3-.5c-.4-.7-1-1-1.6-1.2-.7-.1-1.3-.1-2 .2-.9.3-1.4.9-1.8 1.6-.3.8-.3 1.5.1 2.4.3.9.9 1.4 1.6 1.8s1.5.3 2.4 0c.7-.3 1.2-.8 1.5-1.3.5-.5.6-1.2.5-2zm6.2-1l-1.3.8-1.2-2.1-1.9 1.1 1.2 2.1-1.3.8-3-5 1.3-.8 1.2 2 1.9-1.1-1.2-2 1.3-.8 3 5zm.2-3.6c.3.4.7.7 1.1.7.4.1.9-.1 1.2-.3.4-.3.7-.7.7-1.1s-.1-.9-.4-1.2c-.3-.4-.8-.7-1.2-.8-.4-.1-.9.1-1.2.4-.4.3-.5.7-.7 1.2-.1.4.1.7.5 1.1zm3.7-3c-.5-.7-1.3-1.1-2.1-1.1-.9-.1-1.6.2-2.3.8-.7.5-1.1 1.3-1.2 2.1-.1.9.1 1.6.7 2.3.5.7 1.3 1.1 2.1 1.2.9.1 1.6-.2 2.3-.8.8-.5 1.1-1.3 1.2-2.1.1-.9-.1-1.7-.7-2.4zm9.5-4.1l-.8 1-.9-.9-2.4 2.6.9.9-.9.9-1.9-1.6.4-.4-2.4-4.3 1.1-1.2 4.5 2 .4-.4c.2-.1 2 1.4 2 1.4zm-3.1-.1l-2.7-1.3 1.5 2.6 1.2-1.3zm5.1-5.6l-6.1-1.4-.8 1.2 3.8 4.9.8-1.2-2.7-3.3 4.1 1c-.1 0 .9-1.2.9-1.2zm2.2-4.7l-.5 1.3-2.3-1 1.5 2.7-.7 1.5-1.4-2.5c-.7.9-1.3 1.1-2.2.7-.5-.2-.9-.7-1-1.2-.1-.4 0-1 .3-1.6l1-2.2c0-.1 5.3 2.3 5.3 2.3zm-3.6 0l-1.3-.5-.4.7c-.2.5-.1.9.3 1.1.4.2.9 0 1.1-.5l.3-.8zm4.6-9.4c.5.1 1 .5 1.2 1.2.1.5.2 1.1 0 1.8-.1.7-.4 1.2-.9 1.5-.4.4-1 .5-1.6.4l.3-1.4c.2 0 .4 0 .7-.2.1-.1.2-.3.3-.7.2-.8 0-1.2-.4-1.3-.3-.1-.7.1-.8.4-.1.2-.2.4-.3 1l-1-.2c.1-.5.1-.8.1-.9 0-.3-.2-.5-.4-.7-.4-.1-.8.1-.9.7-.1.7 0 1 .4 1.1l-.3 1.3c-1.2-.3-1.6-1.3-1.2-2.7.1-.7.4-1.1.8-1.4.3-.3.9-.4 1.4-.3.5.1.9.5 1 1.1.4-.7.9-1 1.6-.7zm3.7-5.9l-2.4-.2-.1.7-4.8 1.1-.2 1.5 4.5 2.1-.1.7 2.4.3.1-1.2-1.2-.1.4-3.5 1.2.1.2-1.5zm-2.7 1.8l-.2 1.9-2.9-1.2 3.1-.7zm-1.6-3.7c.5 0 .9-.2 1.2-.5.3-.3.4-.8.4-1.2 0-.5-.2-.9-.5-1.2-.3-.3-.8-.4-1.3-.4s-1 .2-1.3.5c-.3.3-.4.8-.4 1.2 0 .5.2.9.5 1.2.6.3 1 .5 1.4.4zm-.2-4.9c.9 0 1.6.2 2.3.8.7.5.9 1.3 1 2.2 0 .9-.2 1.6-.8 2.3-.5.7-1.3 1-2.2 1-.9 0-1.6-.2-2.3-.9-.7-.5-1-1.3-1-2.2 0-.9.2-1.6.8-2.3.6-.4 1.4-.7 2.2-.9zm-1.2-7.1c.9-.1 1.6 0 2.3.4.7.4 1.1 1 1.3 1.9.1.8 0 1.4-.4 2l3.1-.5.3 1.4-8.3 1.5-.3-1.4.7-.1c-.7-.3-1.1-.9-1.2-1.6-.2-.9 0-1.6.5-2.3.4-.7 1.1-1.2 2-1.3zm.2 1.4c-.4.1-.9.3-1.2.8-.3.3-.3.8-.3 1.3.1.4.3.8.8 1.1.4.2.9.3 1.3.2.4-.1.9-.3 1.2-.7s.3-.8.3-1.3c-.1-.4-.3-.8-.8-1.1-.4-.3-.8-.4-1.3-.3zm-.7-2.9c.4-.2.8-.5 1-.9.2-.4.2-.9 0-1.3s-.5-.8-.9-.9c-.4-.1-.9-.1-1.3.1s-.8.5-1 .9c-.2.4-.2.9 0 1.3s.5.8 1 .9c.3.1.7.1 1.2-.1zM71 15.7c-.9.3-1.4.9-1.6 1.8-.3.8-.2 1.6.1 2.4.3.9.9 1.4 1.6 1.8s1.5.3 2.4 0c.9-.3 1.4-.9 1.8-1.8.3-.8.3-1.6-.1-2.4-.3-.9-.9-1.4-1.8-1.8-.7-.4-1.6-.4-2.4 0zM69.7 10c1-.4 1.9 0 2.5 1.4l1.1 2.2-5.3 2.5-1-2.2c-.7-1.2-.4-2.1.5-2.5.4-.2 1-.2 1.4.1-.1-.6.1-1.2.8-1.5zm-1.5 2.7c-.3.2-.4.5-.2 1l.3.8 1.1-.5-.4-.8c-.1-.6-.4-.7-.8-.5zm2-1.2c-.4.2-.5.5-.2 1.1l.3.8 1.2-.5-.4-.9c-.1-.5-.4-.7-.9-.5zm-3.9-5.8c-.7.4-.9 1.1-.7 1.9.1.4.4 1.1 1.1 1.9l-1.9 1.3.9 1.2 4.8-3.4-1.4-2c-.4-.5-.8-.9-1.2-1.1-.6-.2-1.1-.1-1.6.2zm1.3 3.1l-.4-.7c-.3-.5-.3-.9 0-1.2.3-.2.7-.1 1 .3l.5.7-1.1.9zm-3.5-8l1.1 1.1-1.8 1.8 3.1-.4 1.2 1.2-3 .3c.5.9.5 1.6-.1 2.3-.4.4-1 .7-1.5.5-.4-.1-.9-.3-1.4-.9L59.9 5 64.1.8zm-1.3 3.3l-1 1.1.7.7c.4.4.8.4 1.1.1.3-.3.3-.8-.1-1.2l-.7-.7z" fill-rule="evenodd" clip-rule="evenodd" fill="#770a00"/>
</svg>
