<svg version="1.1" id="Layer_1" xmlns="http://www.w3.org/2000/svg" x="0" y="0" viewBox="0 0 80 80" xml:space="preserve">
    <style>
        .st1{fill-rule:evenodd;clip-rule:evenodd;fill:#770a00}
    </style>
    <path d="M33.7 1.3v1.8C46 3.1 57 10.5 61.6 21.9c6.2 15.4-1.2 33-16.6 39.2-3.6 1.5-7.4 2.2-11.3 2.2-12.3 0-23.3-7.4-27.9-18.8C-.4 29.2 7 11.6 22.4 5.4c3.6-1.5 7.4-2.2 11.3-2.2V1.3m0 0c-4 0-8.1.8-12 2.3C5.4 10.3-2.4 28.9 4.2 45.3c5 12.4 17 19.9 29.6 19.9 4 0 8.1-.8 12-2.3C62.1 56.3 70 37.7 63.4 21.3c-5.1-12.4-17.1-20-29.7-20z" fill="#770a00"/>
    <path class="st1" d="M14.6 21h38.1v33.4H14.6V21zm33.2 2.8c-1 0-1.8.7-1.8 1.8 0 1 .7 1.8 1.8 1.8 1 0 1.8-.7 1.8-1.8-.1-1-.9-1.8-1.8-1.8zm-4.3 0c-1 0-1.8.7-1.8 1.8 0 1 .7 1.8 1.8 1.8 1 0 1.8-.7 1.8-1.8 0-1-.7-1.8-1.8-1.8zm-26.8 4.8h34.2v-5.4H16.7v5.4zm34.2 1.7H16.7v21.9h34.2V30.3z"/>
    <path class="st1" d="M25.5 47.3c-.1-.4-.1-1-.2-1.4-.5-.6-2-1.2-2-.1-.1 1.8 1.2.9 2.2 1.5zm-2-2.6c0-.2-.1-.3-.1-.5 0-1.5 1.2-2.7 2.7-2.7 1.4 0 2.5 1.1 2.7 2.4h-4.4c.3.3.5.7.6 1.1-.4-.2-1-.4-1.5-.3zm7.6-.7h-1.9c-.1-1.6-1.5-3-3.1-3-1.7 0-3.2 1.4-3.2 3.2 0 .3 0 .5.1.8-.2.2-.3.5-.3 1.1.1 2.4 1.9 1 3 2.1.1.4.2.7.5 1.1h-.1c-2.8 0-5.1-2.2-5.1-5.1 0-2.8 2.2-5.1 5.1-5.1 2.7 0 4.9 2.1 5 4.9zm-3.8 5.3c-1.7-.7-.8-3.3-2.1-4.8h6.7c-1.1 1.6-.3 4-2.1 4.8h-2.5zm12.9-11.8c2.1 0 3.8 1.7 3.8 3.8 0 2.1-1.7 3.8-3.8 3.8-2.1 0-3.8-1.7-3.8-3.8-.1-2 1.7-3.8 3.8-3.8zm0-.7c-2.5 0-4.7 2.1-4.7 4.7 0 2.5 2.1 4.7 4.7 4.7 2.5 0 4.7-2.1 4.7-4.7-.1-2.6-2.1-4.7-4.7-4.7zm0-2.9c-4.1 0-7.4 3.4-7.4 7.4 0 4.1 3.4 7.4 7.4 7.4 4.1 0 7.4-3.4 7.4-7.4s-3.2-7.4-7.4-7.4zm-7.8 10.5c-.7 1.6-.4 3.7-1.5 4.9h6.5c-2.4-.9-4.2-2.6-5-4.9zm-11.6 4.9h2.8c-1.9-1-3.3-2.9-3.3-5.1 0-3.2 2.5-5.7 5.7-5.7 3.1 0 5.5 2.4 5.7 5.4h.5c-.2-.7-.4-1.6-.4-2.5 0-4.7 3.7-8.4 8.4-8.4s8.4 3.7 8.4 8.4c0 3.6-2.3 6.7-5.5 7.9h3.6l.5-2.9h1.1l-.7 3.8H20l-.7-3.8h1.1c-.1-.1.4 2.9.4 2.9zm-3.3 25.3l-1.5-.7 2.7-5.9-2.5-1.2-2.7 5.9-1.5-.6 3.3-7.2 5.4 2.4c0 .1-3.2 7.3-3.2 7.3zm3-1.9c-.1.5-.1 1 .1 1.3.2.4.5.6 1.1.7s.8.1 1.3-.2c.3-.2.6-.6.7-1.1.1-.5.1-1-.1-1.3-.2-.4-.5-.6-1.1-.7-.5-.1-.8 0-1.3.2-.4.2-.6.6-.7 1.1zm4.4 1c.2-.8.1-1.6-.3-2.3-.4-.6-1.1-1.2-1.9-1.4-.8-.2-1.6-.1-2.3.3-.7.4-1.2 1.1-1.4 1.9-.2.8-.1 1.6.3 2.3.4.6 1.1 1.2 1.9 1.4.8.2 1.7.1 2.3-.3.8-.3 1.2-.9 1.4-1.9zm6.1 1.8c-.2.6-.6 1.2-1.2 1.5-.5.3-1.2.4-1.9.4-.8-.1-1.6-.4-2-1.1-.5-.6-.7-1.4-.6-2.2.1-.8.4-1.6 1.1-2.1.6-.5 1.4-.7 2.2-.6.7.1 1.4.3 1.8.7.4.4.7 1.1.8 1.8l-1.4-.2c-.2-.6-.6-1-1.4-1.1-.5-.1-.8.1-1.2.3-.3.3-.5.6-.5 1.2-.1.5 0 1 .3 1.3.2.3.6.5 1.1.6.7.1 1.3-.2 1.6-.7l1.3.2zm5.8-3.5l-1.5-.1-1.5 3.7-1.3-3.8-1.5-.1 2 5.5-1 2.7 1.5.1c-.1 0 3.3-8 3.3-8zm5.8 6.1l-1.2.1-.1-1.2-3.5.4.1 1.2-1.2.1-.2-2.3.6-.1 1.1-4.7 1.5-.2 2 4.4.6-.1c.1-.1.3 2.4.3 2.4zM40.2 76L39 73.3l-.5 2.9 1.7-.2zm3.2-2.4c.1.4.4.8.7 1.1s.7.3 1.3.1c.4-.1.8-.4 1-.7.2-.4.2-.8.1-1.3s-.4-.8-.7-1.1c-.3-.2-.7-.3-1.3-.1-.4.1-.8.4-1 .7-.2.5-.3.9-.1 1.3zm4.5-1.2c-.2-.8-.7-1.5-1.4-1.8-.7-.4-1.5-.4-2.3-.2-.8.2-1.5.7-1.9 1.4-.4.7-.5 1.5-.3 2.3.2.8.7 1.5 1.4 1.9.7.4 1.5.4 2.3.2.8-.2 1.5-.7 1.9-1.4.5-.7.5-1.6.3-2.4zm7.6-.4l-1.3.5-1.5-3.4.2 3.9-1 .4-2.9-2.8 1.6 3.3-1.3.7-2.3-5.2 1.7-.7 3 3-.3-4.2 1.7-.7c.1 0 2.4 5.2 2.4 5.2zm.4-3.6c.3.4.6.6 1.1.7.4.1.8 0 1.3-.3s.6-.6.6-1.1c.1-.4-.1-.8-.3-1.3-.3-.4-.6-.6-1.1-.7s-.8 0-1.3.3-.6.6-.6 1.1c-.1.5 0 .9.3 1.3zm3.8-2.7c-.5-.7-1.2-1.2-1.9-1.3-.8-.1-1.6.1-2.3.5-.7.5-1.2 1.2-1.3 1.9-.2.8 0 1.6.5 2.2.5.7 1.2 1.2 1.9 1.3.8.1 1.6 0 2.3-.5.7-.5 1.2-1.2 1.3-1.9.2-.8 0-1.5-.5-2.2zm4-2.3l1.1-1.1c.5 1.3.3 2.4-.6 3.3-.6.6-1.4.8-2.1.8-.8 0-1.5-.3-2.1-1-.6-.6-.8-1.3-.8-2.1s.3-1.5 1-2.1c.4-.4 1-.7 1.6-.8.6-.1 1.2 0 1.8.3.3.2.7.5 1.3 1l-3.3 3.2c.7.5 1.5.5 2.1-.1.2-.2.4-.4.5-.6-.3-.1-.3-.5-.5-.8zm-.9-1.2c-.7-.4-1.4-.4-1.9.2-.6.5-.6 1.3-.3 1.9l2.2-2.1zm6.8-2.8L65 55.9l-.8 1.2 1.8 1.4c-.1.3-.2.7-.5 1.1-.3.4-.6.4-1.1.1L63 58.5l-.8 1.1 1.5 1.2c.4.3.8.4 1.3.4.4-.1.8-.3 1.2-.7s.5-1 .6-1.4l1.9 1.5.9-1.2zm3.5-5.1l-.7 1.2-2-1.3-1.3 1.8 1.9 1.3-.7 1.2-4.8-3.2.7-1.2 1.9 1.3 1.2-1.8-1.9-1.3.7-1.2 5 3.2zm2.6-6.5l-5.3-2.1-.5 1.4.5.2c-.6.2-1.1.6-1.4 1.4-.3.7-.3 1.5 0 2.2.3.7 1 1.2 1.7 1.5.7.3 1.6.3 2.3.1.7-.3 1.3-.8 1.6-1.6.3-.7.2-1.4-.1-2l.6.2c.1 0 .6-1.3.6-1.3zm-3.2.2c-.4-.2-.8-.2-1.4 0-.4.2-.7.4-1 1-.2.4-.2.8 0 1.3.2.4.5.7 1 .8.4.2.8.2 1.3 0 .4-.2.7-.4 1-.8.2-.4.1-.8 0-1.3-.1-.6-.4-.9-.9-1zm4.7-5.5l-.4 1.4-2.3-.6 1.9 2.3-.4 1.6-1.7-2.3c-.4.8-1.2 1.2-2 1-.6-.2-1-.5-1.2-1.1-.1-.4-.1-1 0-1.6l.6-2.3 5.5 1.6zm-3.5.5l-1.4-.3-.2.8c-.1.5 0 .8.4 1 .4.1.7-.1 1-.6l.2-.9zm4.5-11.8v1.4l-3.7-.2 3.6 1.6v1l-3.7 1.4 3.7.1-.1 1.3-5.7-.2.1-1.8 4-1.3-3.9-1.6.1-1.8c-.1 0 5.6.1 5.6.1zm-.9-6.9l.1 1.4-.6.1c.6.3 1 1 1.1 1.7.1.8-.1 1.6-.6 2.1-.5.6-1.2 1-2 1.1s-1.6-.1-2.2-.5c-.6-.4-1-1.1-1.1-1.9-.1-.7.1-1.4.5-1.8l-.6-.1-.3-1.4 5.7-.7zM74.7 26c-.5.1-.8.2-1.2.6-.3.3-.4.7-.4 1.3 0 .4.2.8.6 1.1.3.2.7.3 1.3.3.4 0 .8-.2 1.2-.6.3-.3.4-.7.4-1.2 0-.4-.2-.8-.6-1.1-.5-.4-.9-.5-1.3-.4zm0-10.2l-5.4 1.9.4 1.3 4.2-1.5.6 1.7-4.2 1.5.4 1.2 4.2-1.5.6 1.7-4.2 1.5.4 1.3 5.4-1.9c.1-.1-2.4-7.2-2.4-7.2zm-2.9-5.7l.6 1.3-3.3 1.6 4.4.6.5 1.2-5.1 2.4-.6-1.3 3.2-1.6-4.2-.7-.5-1.2c-.1 0 5-2.3 5-2.3zm-3.7-5l-4.7 3.3.8 1.2L66 8.3l1.3 1.7-1.8 1.3.8 1.2L71 9.2 70.2 8l-1.9 1.4L67 7.6l1.9-1.4c0 .1-.8-1.1-.8-1.1zM63.2 0l1 1-.5.4c.7-.1 1.3.2 1.8.7.6.6.8 1.3.8 2.1 0 .7-.4 1.5-1 2.1-.6.6-1.3.8-2.1 1-.7 0-1.5-.3-2-.8s-.7-1.2-.6-1.8l-.5.3-1-1.1L63.2 0zm-1.1 3c.3-.3.7-.4 1.2-.5.4 0 .8.1 1.2.4s.4.7.4 1.2c0 .4-.2.8-.5 1.2-.3.3-.7.5-1.2.5-.4 0-.8-.1-1.2-.5-.3-.3-.5-.7-.4-1.2 0-.4.2-.8.5-1.1zm-35 12.9c-.1 1.3 1.2 5.2-.3 6.7 3.4-1.1.2-5.7.3-6.7zm-1.2-7c-.1 5 3.1 8.2 3.2 10.9.1 2-1.4 4.4-4 3.9-2.9-.4-3.6-2-3.5-4.6.2-3.3 4-7.7 4.3-10.2zm6.6 19.8c-.1 1 1 4.1-.2 5.4 2.7-1 .2-4.7.2-5.4zm-.9-5.6c-.2 1.9-3.4 5.5-3.5 8.4-.1 2.1.5 3.4 2.9 3.7 2.1.3 3.3-1.6 3.2-3.2-.1-2.4-2.7-4.9-2.6-8.9zm5.7-12.4c-.2 1.3 1.1 5.3-.3 6.9 3.5-1.1.3-5.9.3-6.9zm-1.1-7.1c-.1 5.2 3.1 8.5 3.3 11.4.1 2.1-1.4 4.5-4.1 4.1-3-.4-3.7-2-3.6-4.7.1-3.8 4.1-8.3 4.4-10.8z"/>
</svg>
