<svg version="1.1" id="Layer_1" xmlns="http://www.w3.org/2000/svg" x="0" y="0" viewBox="0 0 80 80" xml:space="preserve">
    <style>
        .st2{fill-rule:evenodd;clip-rule:evenodd;fill:#770a00}
    </style>
    <ellipse transform="rotate(-45.001 32.898 31.22)" cx="32.9" cy="31.2" rx="29.4" ry="29.4" fill-rule="evenodd" clip-rule="evenodd" fill="#fff"/>
    <ellipse transform="rotate(-45.001 32.898 31.22)" cx="32.9" cy="31.2" rx="29.4" ry="29.4" fill-rule="evenodd" clip-rule="evenodd" fill="none" stroke="#770a00" stroke-width="1.751" stroke-linecap="round" stroke-linejoin="round"/>
    <path class="st2" d="M16.4 69.6l-1.3-.6 2.7-5.5-2.4-1.2-2.7 5.5-1.3-.7 3.3-6.7 5 2.5-3.3 6.7zm3.1-1.7c-.2.4-.2.8 0 1.2.2.4.5.6.9.8.4.2.8.1 1.2-.1.4-.2.6-.5.8-.9.2-.5.2-.9 0-1.2-.2-.4-.5-.6-.9-.8-.4-.2-.8-.1-1.2.1-.4.1-.7.4-.8.9zm4.2 1.4c.3-.8.2-1.5-.1-2.2-.3-.7-.9-1.2-1.7-1.4-.8-.3-1.5-.2-2.2.1-.7.3-1.2.9-1.5 1.6-.3.8-.3 1.5.1 2.2.3.7.9 1.2 1.7 1.5.8.3 1.5.3 2.2-.1.7-.3 1.2-.9 1.5-1.7zm5.1 2c-.2 1-1 1.4-2.4 1.1l-2.3-.4 1-5.3 2.2.4c1.3.2 1.8.8 1.6 1.8-.1.5-.4.8-.9.9.7.5.9.9.8 1.5zm-1.2-2.5c.1-.4-.1-.6-.6-.7l-.7-.1-.2 1.1.7.1c.5.2.8 0 .8-.4zm-.2 2.2c.1-.4-.1-.7-.7-.8l-.8-.2-.2 1.2.8.2c.5.1.8 0 .9-.4zm8.1 2.1l-1.4-.1.2-5.4 1.3.1-.1 5.4zm-1.8-1.8c0 .6-.3 1-.7 1.3-.4.2-.9.3-1.5.3l-2.1-.1.2-5.4 1.3.1-.1 2c.6 0 1.1.1 1.3.1 1.1.2 1.6.8 1.6 1.7zm-2.2-.7h-.6v1.2h.7c.5 0 .8-.2.8-.6-.1-.3-.4-.6-.9-.6zm12.2 1l-1-5.3-1.3.2.8 4.2-1.7.3-.8-4.2-1.2.2.8 4.2-1.7.3-.8-4.2-1.3.2 1 5.3 7.2-1.2zm4.1-3.2l1.3-.4c-.1 1.3-.7 2.2-1.9 2.6-.8.3-1.5.2-2.2-.1-.7-.3-1.1-.9-1.4-1.7-.3-.8-.2-1.5.1-2.2.3-.7.9-1.2 1.6-1.4.6-.2 1.1-.2 1.7-.1.5.2 1 .5 1.4.9.2.3.5.7.7 1.3L45 68.8c.4.8 1 1 1.8.7.3-.1.5-.2.7-.4.2-.1.3-.4.3-.7zm-.3-1.5c-.4-.7-1-.9-1.7-.6-.7.3-1.1.8-1 1.6l2.7-1zm7.3.1l-2.4-4.8-1.2.6.9 1.9-1.8.9-.9-1.9-1.2.6 2.4 4.8 1.2-.6-1-2 1.8-.9 1 2 1.2-.6zm4.7-3.5l-1.1.8-1.3-1.8-1.6 1.2 1.3 1.8-1.1.8-3.2-4.3 1.1-.8 1.2 1.7 1.6-1.2-1.2-1.7 1.1-.8 3.2 4.3zm4.8-4.6L60.6 55l-1 .9.4.4c-.6-.1-1.2.1-1.7.6-.6.5-.8 1.2-.8 1.9s.3 1.4.9 2c.6.6 1.2.9 2 .9.7 0 1.4-.2 2-.8.5-.5.7-1.1.7-1.7l.4.5.8-.8zm-2.8-1c-.3-.3-.7-.5-1.1-.5-.4 0-.8.1-1.1.4-.3.3-.5.7-.5 1.1 0 .4.2.8.5 1.1.3.3.7.5 1.1.5.4 0 .8-.1 1.1-.4.3-.3.5-.7.4-1.1 0-.4-.1-.8-.4-1.1zm5.9-3.1l-.8 1.1-1.8-1.4.8 2.7-.9 1.2-.7-2.6c-.7.6-1.4.7-2.1.1-.5-.3-.7-.8-.6-1.3 0-.4.2-.9.6-1.4l1.4-1.8 4.1 3.4zm-3.2-.8l-.4.6c-.3.5-.7.5-1.1.3-.3-.3-.3-.6 0-1l.5-.6 1 .7zm5.4-9c.8.4 1.3.9 1.5 1.6.2.7.2 1.4-.2 2.2-.4.8-.9 1.3-1.7 1.5-.7.2-1.5.1-2.3-.3l-.9-.4c-1.1-.5-1.8-1.1-2.2-1.9-.4-.8-.4-1.8.1-2.8l.8-1.7 1 .4-.9 1.9c-.3.6-.3 1.1-.1 1.6.2.5.6.8 1.2 1.1-.3-.6-.3-1.2 0-2 .3-.7.8-1.2 1.5-1.4.7-.2 1.4-.1 2.2.2zm.2 3.3c.2-.4.2-.8.1-1.2-.1-.4-.4-.6-.9-.8-.4-.2-.8-.2-1.2-.1-.4.1-.7.4-.8.8-.2.4-.2.8 0 1.2.2.4.4.6.9.8.9.4 1.5.1 1.9-.7zm1.8-7c.2.2.4.4.5.6 0 .2 0 .4-.1.8-.2.8-.7 1.2-1.6 1.2l1-4.2c-.6-.1-1.1-.2-1.5-.2-.6.1-1.1.3-1.5.6-.4.4-.7.8-.9 1.4-.2.8-.1 1.5.3 2.1.4.7 1 1.1 1.8 1.3.8.2 1.5.1 2.2-.3.6-.4 1.1-1 1.3-1.8.3-1.2-.1-2.2-1.2-3l-.3 1.5zm-1.4-.6c-.8 0-1.3.4-1.5 1.1-.2.8.1 1.3.8 1.7l.7-2.8zm4.3-5.9l-.2 1.4-3.7.8 3.5 1.6-.1 1.3-5.1-2.5.1-1.3 5.5-1.3zm.2-5.5l-.1 1.3-3.4-.1 3.3 2.5v1.2l-5.3-.2.1-1.3 3.4.1-3.3-2.5v-1.2l5.3.2zm-2.2-5.2c.5-.1 1 .2 1.4.7.3.4.5.9.6 1.5.1.6 0 1.1-.3 1.6s-.7.8-1.3.9l-.1-1.3c.2 0 .4-.2.5-.4.1-.2.1-.4.1-.7-.1-.7-.3-1-.7-1-.3 0-.5.2-.5.6v.9l-1 .1c0-.4-.1-.7-.2-.8-.1-.3-.3-.4-.6-.4-.4 0-.6.3-.5.9.1.6.3.8.7.8l.1 1.3c-1.1 0-1.8-.6-1.9-1.9-.1-.6 0-1.1.2-1.5.2-.5.6-.7 1.1-.8.5-.1.9.2 1.2.7.2-.8.6-1.2 1.2-1.2zm.2-5.6l-5.2 1.4.4 1.3 2-.6.5 1.9-2 .6.4 1.3L74 23l-.4-1.3-2.1.6-.5-1.9 2.1-.6-.4-1.3zm-2.6-6.1l.5 1.2-.6.3c.6.2 1.1.6 1.4 1.2.3.7.3 1.4.1 2.1-.3.7-.8 1.2-1.5 1.5-.7.3-1.4.4-2.1.1-.7-.2-1.2-.7-1.5-1.4-.3-.7-.3-1.3 0-1.8l-.5.2-.6-1.2 4.8-2.2zm-1.9 2.3c-.4.2-.7.5-.9.9-.2.4-.2.8 0 1.2.2.4.5.7.9.8.4.1.8.1 1.2-.1.4-.2.7-.5.9-.9.2-.4.2-.8 0-1.2-.2-.4-.5-.6-.9-.8-.4-.1-.8-.1-1.2.1zM17.2 26.3h1.5c0 .6.3.9.8.9s.8-.2.8-.7c0-.3-.2-.5-.5-.7-.1-.1-.4-.2-.8-.4-.5-.2-.9-.4-1.2-.6-.3-.2-.4-.6-.4-1.1 0-.6.2-1 .6-1.4.4-.4.9-.6 1.5-.6 1.3 0 2 .6 2.1 1.9h-1.5c0-.4-.2-.6-.7-.6-.4 0-.6.2-.6.6v.2c0 .1.1.1.2.2.2.1.5.3.9.5s.7.3.9.4c.3.2.5.5.7.8.1.2.2.5.2.8 0 .7-.2 1.2-.7 1.5-.4.3-1 .4-1.6.4-.6 0-1.2-.2-1.6-.6-.4-.4-.6-.9-.6-1.5zm11.1 1.9h-1.5v-.7c-.4.6-.9.9-1.6.9-.8 0-1.4-.3-1.8-.8-.4-.5-.6-1.1-.6-1.9v-3.8h1.6v3.4c0 1.1.4 1.6 1.2 1.6.8 0 1.2-.6 1.2-1.8v-3.2h1.6v6.3h-.1zm8-3.1c0 .9-.3 1.7-.9 2.3-.6.6-1.3 1-2.2 1-.8 0-1.5-.3-2-.8V31h-1.6v-9h1.5v.8c.5-.6 1.2-.9 2-.9.9 0 1.7.3 2.3 1 .6.5.9 1.3.9 2.2zm-1.5 0c0-.5-.2-1-.5-1.4-.3-.4-.8-.6-1.3-.6s-.9.2-1.3.6c-.3.4-.5.8-.5 1.3s.2 1 .5 1.4c.3.4.7.6 1.3.6.5 0 .9-.2 1.3-.6.3-.4.5-.8.5-1.3zm6.9 1.1h1.6c-.6 1.4-1.6 2.2-3.1 2.2-1 0-1.7-.3-2.4-.9-.5-.7-.8-1.5-.8-2.4 0-.9.3-1.7.9-2.4.6-.6 1.4-1 2.3-1 .7 0 1.3.2 1.9.6.5.4.9.9 1.2 1.6.2.4.2 1 .2 1.7h-5c.2 1 .8 1.5 1.8 1.5.4 0 .7 0 .9-.1.2-.2.4-.4.5-.8zm.3-1.8c-.2-.9-.8-1.3-1.7-1.3-.9 0-1.5.4-1.7 1.3H42zm5.6-2.5v1.7c-.1-.1-.3-.1-.7-.1-.6 0-.9.4-.9 1.2v3.5h-1.6v-6.3H46v.7c.1-.2.3-.4.5-.6.2-.2.4-.2.6-.2.2.1.4.1.5.1zm-21 14l-2.1 6.3h-1.2L22.2 38 21 42.2h-1.2l-2-6.3h1.6l1.1 4 1.2-4h1.1l1.2 4 1.1-4h1.5zm6.3 6.3h-1.6v-3.5c0-1-.4-1.6-1.1-1.6-.8 0-1.3.6-1.3 1.8v3.2h-1.6v-9.3h1.6v3.7c.3-.5.9-.8 1.6-.8.8 0 1.3.2 1.7.7.4.4.6 1 .6 1.8v4h.1zm2.8-7.5h-1.5v-1.5h1.5v1.5zm.1 7.5h-1.6v-6.3h1.6v6.3zm3.9-5h-.9v5h-1.6v-5h-.7V36h.7v-2.1h1.6V36h.9v1.2zm5.2 3h1.6c-.6 1.4-1.6 2.2-3.1 2.2-1 0-1.7-.3-2.4-.9-.6-.6-.9-1.4-.9-2.4 0-.9.3-1.7.9-2.4.6-.6 1.4-1 2.3-1 .7 0 1.3.2 1.9.6.5.4.9.9 1.2 1.6.2.4.2 1 .2 1.7h-5c.2 1 .8 1.5 1.8 1.5.4 0 .7 0 .9-.1.3-.2.5-.4.6-.8zm.3-1.8c-.2-.9-.8-1.3-1.7-1.3-.9 0-1.5.4-1.7 1.3h3.4z"/>
</svg>
