<svg version="1.1" id="Layer_1" xmlns="http://www.w3.org/2000/svg" x="0" y="0" viewBox="0 0 80 80" xml:space="preserve">
    <style>
        .st2{fill-rule:evenodd;clip-rule:evenodd;fill:#770a00}
    </style>
    <path d="M31.1 58.8C14.9 53.1 14.4 47.1 14 40.6c-.2-3.1-.4-6.4-4.5-10.1l-2.1-1.9 1.6.2c2.1.3 5 .8 7.8 2.3 2.8 1.5 5.5 4.1 7.3 8.6l.4.9v.4c0 5.6 2.9 10.4 4.7 13.3.8 1.4 1.5 2.4 1.8 3.8v.5l.1.2zm17-25.2c-.9-5.1-1.9-10.6 2.6-18.1l1.3-2.3-1.9.6c-25.9 8.1-26.9 21.6-23.8 31.7 1.3 4.2 3.2 7.6 4.5 10 .6 1.1 1 1.7 1 1.8v1.9l.5-.3c18.4-10.7 17.2-17.4 15.8-25.3z" fill-rule="evenodd" clip-rule="evenodd" fill="#fff"/>
    <ellipse transform="rotate(-45.001 33.896 34.145)" cx="33.9" cy="34.1" rx="29.4" ry="29.4" fill-rule="evenodd" clip-rule="evenodd" fill="none" stroke="#770a00" stroke-width="1.801" stroke-linecap="round" stroke-linejoin="round"/>
    <path class="st2" d="M31.1 58.8C14.9 53.1 14.4 47.1 14 40.6c-.2-3.1-.4-6.4-4.5-10.1l-2.1-1.9 1.6.2c2.1.3 5 .8 7.8 2.3 2.8 1.5 5.5 4.1 7.3 8.6l.4.9v.4c0 5.6 2.9 10.4 4.7 13.3.8 1.4 1.5 2.4 1.8 3.8v.5l.1.2zM14.6 42.2c.3 4.9.7 9.5 15.9 14.9-.2-.2-.4-.5-.8-1.2-2.1-3.5-5.6-9.2-5.7-16.1-1.6-3.5-4-5.7-6.6-7-2.3-1.2-4.6-1.8-6.5-2.1 3.1 4 3.4 7.8 3.7 11.5zM32 57.1c18.1-10.6 16.9-17.2 15.5-24.9-.8-4.7-1.7-9.7 1.4-16.2-24.1 8.1-25.3 20.4-22.4 29.6 1 3.1 2.6 6.2 3.8 8.4.8 1.2 1.4 2.2 1.7 3.1zm16.1-23.5c-.9-5.1-1.9-10.6 2.6-18.1l1.3-2.3-1.9.6c-25.9 8.1-26.9 21.6-23.8 31.7 1.3 4.2 3.2 7.6 4.5 10 .6 1.1 1 1.7 1 1.8v1.9l.5-.3c18.4-10.7 17.2-17.4 15.8-25.3zm-8.2-11.2c-.7 1.4.4 4.3 1.1 5.1-.1.2-.1.6 0 .9-1-1.2-1.9-4.5-1.1-6zm-5.1 4.8c-.6 3.6 4.8 7.5 6.3 11.2 0 .6 0 1.6-.1 2.3 0-4-7.2-9.6-6.2-13.5zm-5 9.3c-1.2 4 9.1 8.8 7.1 13.6.4-.5.9-1.2 1.1-1.7.4-4.2-9.3-8.8-8.2-11.9zm12.7-2.6c.5 4.9.1 14.2-9.7 20.4 8.4-7.1 9.2-13.7 8.5-20.2-.3-4.4-1.4-12.3 6.6-17.1-7.4 5-5.9 10.9-5.4 16.9zM17 41.8c.4 3.2 4.2 9.8 11.3 13.2-6.8-3.9-9.5-9.3-10-13.5-.4-2.9-1.3-7.8-7.1-10.3 5.4 2.7 5.3 6.6 5.8 10.6zM17.4 70c-.3.7-.9 1.1-1.5 1.2-.6.1-1.2 0-2-.4l-1.8-.8 3.3-6.7 3.8 1.9-.6 1.2-2.5-1.3-.7 1.3.5.3c1.7.8 2.2 1.9 1.5 3.3zm-1.3-.6c.2-.4.2-.7 0-.9-.1-.2-.4-.4-.8-.6l-.5-.3-.8 1.8.5.3c.8.3 1.3.2 1.6-.3zm5.2 2.8c-.2.2-.4.4-.7.4-.2 0-.4 0-.7-.1-.8-.3-1.2-.9-1-1.7l4 1.4c.2-.6.3-1.1.3-1.4 0-.6-.2-1.1-.5-1.6s-.8-.8-1.4-1c-.8-.3-1.5-.2-2.2.1-.7.3-1.2.9-1.4 1.6-.3.8-.3 1.5.1 2.2.3.7.9 1.2 1.6 1.4 1.2.4 2.2.1 3.1-.9l-1.2-.4zm.7-1.4c.1-.8-.2-1.3-1-1.6-.7-.3-1.3-.1-1.8.6l2.8 1zm5.6 3.2c-.1.5-.5.9-1.1 1.1-.5.1-1 .2-1.6 0-.6-.1-1.1-.4-1.4-.8-.4-.4-.5-.9-.4-1.5l1.3.3c0 .2 0 .4.2.6.1.1.3.2.6.3.7.2 1.1 0 1.2-.4.1-.3-.1-.6-.4-.7-.2-.1-.4-.2-.9-.3l.2-.9c.4.1.7.1.8.1.3 0 .5-.2.6-.4.1-.4-.1-.7-.6-.8-.6-.1-.9 0-1 .4l-1.2-.3c.3-1.1 1.2-1.5 2.5-1.1.6.1 1 .4 1.3.7.4.4.5.8.4 1.3-.1.5-.5.8-1 .9.4.3.7.8.5 1.5zm1.8-1.1c0 .5.1.9.3 1.2.2.3.6.5 1.1.5.5 0 .8-.1 1.1-.4.3-.3.5-.7.5-1.1 0-.5-.1-.9-.3-1.2-.2-.3-.6-.5-1.1-.5-.5 0-.8.1-1.1.4-.3.3-.4.7-.5 1.1zm4.4.4c.1-.8-.2-1.5-.7-2.1-.5-.6-1.2-.9-2-1-.8-.1-1.5.2-2.1.6-.6.5-.9 1.1-1 2-.1.8.2 1.5.7 2.1.5.6 1.2.9 2 1 .8.1 1.6-.1 2.1-.6.6-.5 1-1.2 1-2zm5.3 2.3l-1.3.1-.3-4.3-2 .1.3 4.3-1.3.1-.5-5.3 4.6-.4.5 5.4zm6.5-1.3l-1.3.3-.1-.6c-.3.6-.8 1-1.5 1.1-.8.2-1.5.1-2.1-.4-.6-.4-1-1-1.2-1.8-.2-.8-.1-1.5.3-2.1.4-.6.9-1.1 1.7-1.2.7-.2 1.3-.1 1.8.3l-.2-.6 1.3-.3 1.3 5.3zM43.7 72c-.1-.4-.3-.8-.7-1-.4-.2-.8-.3-1.2-.2-.4.1-.8.3-1 .7-.2.4-.3.8-.2 1.2.1.4.3.8.7 1 .4.3.8.3 1.2.2.4-.1.7-.3 1-.7.2-.4.3-.8.2-1.2zm7.1-1.8l-1.3.5c0 .6-.3 1.1-.9 1.3-.4.2-.8.2-1.2 0-.4-.2-.7-.5-.8-.9-.2-.4-.2-.8-.1-1.2.1-.4.4-.7.8-.8.6-.3 1.2-.2 1.6.3l1.2-.5c-.4-.6-.9-.9-1.5-1.1-.6-.1-1.2-.1-1.8.2-.8.3-1.3.8-1.6 1.5-.3.7-.3 1.4.1 2.2.3.8.8 1.3 1.5 1.6.7.3 1.4.3 2.2 0 .6-.3 1.1-.7 1.4-1.2.4-.6.5-1.2.4-1.9zm5.6-.9l-1.2.7-1.1-1.9-1.7 1 1.1 1.9-1.2.7-2.7-4.6 1.2-.7 1.1 1.8 1.7-1-1.1-1.8 1.2-.7 2.7 4.6zm.2-3.3c.3.4.6.6 1 .6.4.1.8-.1 1.1-.3.4-.3.6-.6.6-1s-.1-.8-.4-1.1c-.3-.4-.7-.6-1.1-.7-.4-.1-.8.1-1.1.4-.4.3-.5.6-.6 1.1 0 .3.2.6.5 1zm3.4-2.8c-.5-.6-1.2-1-1.9-1-.8-.1-1.5.2-2.1.7-.6.5-1 1.2-1.1 1.9-.1.8.1 1.5.6 2.1.5.6 1.2 1 1.9 1.1.8.1 1.5-.2 2.1-.7.7-.5 1-1.2 1.1-1.9.1-.8-.1-1.5-.6-2.2zm8.7-3.7l-.7.9-.8-.8L65 62l.8.8-.8.8-1.7-1.5.4-.4-2.2-3.9 1-1.1 4.1 1.8.4-.4 1.7 1.4zm-2.9-.1l-2.5-1.2 1.4 2.4 1.1-1.2zm4.7-5.1L64.9 53l-.7 1.1 3.5 4.5.7-1.1-2.5-3 3.7.9.9-1.1zm2-4.3l-.5 1.2-2.1-.9 1.4 2.5-.6 1.4-1.3-2.4c-.6.8-1.2 1-2 .6-.5-.2-.8-.6-.9-1.1-.1-.4 0-.9.3-1.5l.9-2 4.8 2.2zm-3.3 0l-1.2-.5-.3.7c-.2.5-.1.8.3 1 .4.2.8 0 1-.5l.2-.7zm4.2-8.6c.5.1.9.5 1.1 1.1.1.5.2 1 0 1.6-.1.6-.4 1.1-.8 1.4-.4.4-.9.5-1.5.4l.3-1.3c.2 0 .4 0 .6-.2.1-.1.2-.3.3-.6.2-.7 0-1.1-.4-1.2-.3-.1-.6.1-.7.4-.1.2-.2.4-.3.9l-.9-.2c.1-.4.1-.7.1-.8 0-.3-.2-.5-.4-.6-.4-.1-.7.1-.8.6-.1.6 0 .9.4 1l-.3 1.2c-1.1-.3-1.5-1.2-1.1-2.5.1-.6.4-1 .7-1.3.3-.3.8-.4 1.3-.3.5.1.8.5.9 1 .4-.6.9-.8 1.5-.6zm3.4-5.3l-2.2-.2-.1.6-4.4 1-.2 1.4 4.1 1.9-.1.6 2.2.3.1-1.1-1.1-.1.4-3.2 1.1.1.2-1.3zm-2.5 1.6l-.2 1.7-2.6-1.1 2.8-.6zm-1.4-3.4c.5 0 .8-.2 1.1-.5.3-.3.4-.7.4-1.1 0-.5-.2-.8-.5-1.1-.3-.3-.7-.4-1.2-.4s-.9.2-1.2.5c-.3.3-.4.7-.4 1.1 0 .5.2.8.5 1.1.5.3.9.5 1.3.4zm-.2-4.4c.8 0 1.5.2 2.1.7.6.5.8 1.2.9 2 0 .8-.2 1.5-.7 2.1-.5.6-1.2.9-2 .9s-1.5-.2-2.1-.8c-.6-.5-.9-1.2-.9-2s.2-1.5.7-2.1c.5-.4 1.2-.7 2-.8zm-1.1-6.5c.8-.1 1.5 0 2.1.4.6.4 1 .9 1.2 1.7.1.7 0 1.3-.4 1.8l2.8-.5.3 1.3-7.6 1.4-.3-1.3.6-.1c-.6-.3-1-.8-1.1-1.5-.2-.8 0-1.5.5-2.1.4-.6 1.1-1 1.9-1.1zm.2 1.3c-.4.1-.8.3-1.1.7-.3.3-.3.7-.3 1.2.1.4.3.7.7 1 .4.2.8.3 1.2.2.4-.1.8-.3 1.1-.6.3-.3.3-.7.3-1.2-.1-.4-.3-.7-.7-1-.4-.3-.8-.4-1.2-.3zm-.7-2.7c.4-.2.7-.5.9-.8.2-.4.2-.8 0-1.2-.2-.4-.5-.7-.8-.8-.4-.1-.8-.1-1.2.1-.4.2-.7.5-.9.8-.2.4-.2.8 0 1.2.2.4.5.7.9.8.3.1.7.1 1.1-.1zm-1.7-4c-.8.3-1.3.8-1.5 1.6-.3.7-.2 1.5.1 2.2.3.8.8 1.3 1.5 1.6.7.3 1.4.3 2.2 0 .8-.3 1.3-.8 1.6-1.6.3-.7.3-1.5-.1-2.2-.3-.8-.8-1.3-1.6-1.6-.7-.4-1.5-.4-2.2 0zm-1.2-5.2c.9-.4 1.7 0 2.3 1.3l1 2-4.8 2.3-1-2c-.6-1.1-.4-1.9.5-2.3.4-.2.9-.2 1.3.1-.1-.6.1-1.1.7-1.4zm-1.4 2.5c-.3.2-.4.5-.2.9l.3.7 1-.5-.3-.7c-.1-.5-.4-.6-.8-.4zm1.9-1.1c-.4.2-.5.5-.2 1l.3.7 1.1-.5-.4-.8c-.1-.4-.4-.6-.8-.4zm-3.6-5.3c-.6.4-.8 1-.6 1.7.1.4.4 1 1 1.7l-1.7 1.2.8 1.1 4.4-3.1-1.3-1.8c-.4-.5-.7-.8-1.1-1-.6-.2-1-.1-1.5.2zm1.2 2.8l-.4-.6c-.3-.5-.3-.8 0-1.1.3-.2.6-.1.9.3l.5.6-1 .8zm-3.2-7.3l1 1L62.5 7l2.8-.4 1.1 1.1-2.7.3c.5.8.5 1.5-.1 2.1-.4.4-.9.6-1.4.5-.4-.1-.8-.3-1.3-.8l-1.6-1.6 3.8-3.8zm-1.2 3l-.9 1 .6.6c.4.4.7.4 1 .1.3-.3.3-.7-.1-1.1l-.6-.6z"/>
</svg>
