<svg version="1.1" id="Layer_1" xmlns="http://www.w3.org/2000/svg" x="0" y="0" viewBox="0 0 80 80" xml:space="preserve">
    <style>
        .st0{fill-rule:evenodd;clip-rule:evenodd;fill:#770a00}
    </style>
    <path class="st0" d="M63.1 17.6v31.7H17V17.6h46.1zm-9.2 3.1h-34v25.6h33.9V20.7h.1zm-29.1 9.6l1.3 1.2c3.6-4.1 6.5-2.7 9.6-1.2 3.8 1.8 7.8 3.7 13.2-1.6l-1.2-1.3c-4.5 4.4-7.9 2.8-11.2 1.2-3.7-1.8-7.3-3.5-11.7 1.7zm0 9l1.3 1.2c3.6-4.1 6.5-2.7 9.6-1.2 3.8 1.8 7.8 3.7 13.2-1.6l-1.2-1.3c-4.5 4.4-7.9 2.8-11.2 1.2-3.7-1.9-7.3-3.5-11.7 1.7zm0-4.5l1.3 1.2c3.6-4.1 6.5-2.7 9.6-1.2 3.8 1.8 7.8 3.7 13.2-1.6l-1.2-1.3c-4.5 4.4-7.9 2.8-11.2 1.2-3.7-1.9-7.3-3.5-11.7 1.7zM22 22.6v21.8h29.8V22.6H22zm37.3 19.8c0-.9-.8-1.7-1.7-1.7-.9 0-1.7.8-1.7 1.7s.8 1.7 1.7 1.7c.9 0 1.7-.8 1.7-1.7zm0-4c0-.9-.8-1.7-1.7-1.7-.9 0-1.7.8-1.7 1.7 0 .9.8 1.7 1.7 1.7.9 0 1.7-.8 1.7-1.7zM19.1 19.5v27.9H61V19.5H19.1z"/>
    <path d="M40 0v1.8c2.5 0 5 .3 7.4.9 16.9 4.1 27.4 21.1 23.4 38.1C67.3 55.1 54.7 65 40 65c-2.5 0-5-.3-7.4-.9-8.2-2-15.2-7-19.6-14.2C8.6 42.7 7.2 34.2 9.2 26 12.7 11.8 25.3 1.8 40 1.8V0m0 0C24.9 0 11.2 10.3 7.5 25.6c-4.3 17.9 6.8 36 24.7 40.3 2.6.6 5.2.9 7.8.9 15.1 0 28.8-10.3 32.5-25.6 4.3-17.9-6.8-36-24.7-40.3C45.2.3 42.5 0 40 0z" fill="#770a00"/>
    <path class="st0" d="M32.8 77.1c-.6.8-1.2 1.2-2 1.6-.8.3-1.7.3-2.6.1-1.2-.3-2.1-1-2.7-2s-.7-2.1-.4-3.4c.3-1.1 1-2 2-2.6 1-.6 2.1-.7 3.2-.4.9.2 1.7.7 2.2 1.3.6.7.9 1.5.9 2.3l-1.8-.4c-.2-1-.8-1.6-1.8-1.8-.7-.2-1.5-.1-2 .3-.7.3-1 .9-1.2 1.7-.2.8-.1 1.5.2 2.1.3.7.9 1.1 1.6 1.3.9.2 1.7 0 2.3-.7.1.1 2.1.6 2.1.6zm6.2.4c.1-1-.3-1.7-1.2-2 .7-.3 1-.8 1.1-1.6.1-.8-.1-1.3-.7-1.8-.4-.3-1-.6-1.9-.7l-2.5-.1-.7 8.4 2.5.2c2.2.1 3.2-.7 3.4-2.4zM37.1 74c0 .2-.1.4-.2.6-.2.2-.6.3-1.1.3h-.6l.1-1.9.8.1c.8 0 1.1.3 1 .9zm-2 2.2l1 .1c.9.1 1.2.4 1.2 1.2 0 .7-.6 1-1.5.9l-1-.1.3-2.1zm10.2 3.6l-1.7.1-.2-3.2c-.7.2-1.1.3-1.5.3-.8.1-1.5-.1-2-.6-.4-.4-.8-1.1-.8-1.9l-.1-2.6 1.6-.1.2 2.7c.1.8.4 1.2 1.2 1.1.4 0 .8-.1 1.2-.3l-.2-3.7 1.7-.1.6 8.3zm3.5-3l-2.9.6-.2-1.5 2.9-.6.2 1.5zm6.3.9l-1.6-5.8-5 1.3 1.6 5.8 1.5-.4-1.3-4.6 2.1-.6 1.2 4.6c.1 0 1.5-.3 1.5-.3zm4.3-4l1.3-.7c.1 1.5-.6 2.5-1.8 3.1-.9.3-1.7.4-2.5.1-.8-.3-1.3-.9-1.8-1.7-.3-.8-.4-1.7-.1-2.5.3-.8.8-1.5 1.7-1.8.7-.3 1.2-.3 1.9-.2.7.1 1.1.4 1.7.9.3.3.6.8.9 1.5l-4.4 2c.6.8 1.2 1 2.1.6.3-.1.6-.3.7-.4.3-.2.4-.5.3-.9zm-.5-1.6c-.6-.7-1.2-.9-2-.4-.8.3-1.1 1-1 1.8l3-1.4zm7.8-.3l-3.4-5-1.2.8 1.3 2c-.2.3-.4.7-.9.9-.4.2-.8.2-1.1-.2l-1-1.5-1.2.8 1.1 1.7c.3.4.7.8 1.1.8.4.1.9 0 1.3-.3.6-.3.9-.7 1.1-1.1l1.5 2.1c0-.1 1.4-1 1.4-1zm3.5-5.1c.4.6.6 1 .3 1.6-.1.4-.4.9-1 1.3l-1.9 1.6-3.8-4.8 1.2-.9 1.5 1.8c.8-.7 1.5-1 1.9-1.2.7-.3 1.4-.1 1.8.6zm-3 1.4l.9 1.1.7-.6c.4-.3.6-.7.2-1.1-.3-.3-.7-.3-1.2 0 0 .1-.6.6-.6.6z"/>
</svg>
