<svg version="1.1" id="Layer_1" xmlns="http://www.w3.org/2000/svg" x="0" y="0" viewBox="0 0 80 80" xml:space="preserve">
    <style>
        .st1{fill-rule:evenodd;clip-rule:evenodd;fill:#770a00}
    </style>
    <path d="M27.6 32.9c-1 .3-2 .5-3.3.5-2.7-.1-5.4-.6-7.4-1.5-1.6-.8-2.9-1.9-3.5-3.3-.9-2.1-1-4.8.1-8.2.9-2.8 3-6.2 6.6-10.4.5-.6 1.8-.9 3.5-.7 1.3.1 2.8.5 4.4 1.2 1.6.7 3.2 1.7 4.6 3 3 2.8 5.3 7.4 5.2 14.4 1.6-3.4 1.3-6.6 1-8.8-.3-2.6-.5-4.6.1-5.6.1-.2.2-.3.4-.5.9-1.1 2.4-1.9 3.9-2.3 1.6-.4 3.2-.3 4.4.5.2.1.3.2.4.3.8.7 1.2 1.7 1.6 2.6.3.7.6 1.4 1.1 1.9.6.6 1.5 1 2.4 1.4.9.4 1.8.8 2.6 1.5 3.2 3 3.4 5.3 1.8 7.2-.9 1.1-3.2 1.7-5.9 2.1 3.8.2 7.5.6 10.5 1.2.1.7.1 1.4.1 2.1 0 16.3-13.2 29.4-29.4 29.4h-1.2c-1.3-3.8-2.7-6.9-4.2-9.6-2.1-3.8-4.3-6.6-6.7-9.3l-1-1.1.9-1.5c2-2.7 4.3-4.9 7-6.5z" fill-rule="evenodd" clip-rule="evenodd" fill="#fff"/>
    <path class="st1" d="M62.3 31.9c-5.4-1-12.7-1.7-19.8-1l4.3 26.4c-.3.2-.6.3-.9.5L41.6 31l-3.9.6v.1h-.1c-.4.1-.7.2-1.1.3l6.1 27.3-.9.3-6.1-27.4c-5.4 1.5-10.2 4.1-13.6 8.3 2 2.4 3.9 4.9 5.7 8.2 1.8 3.2 3.4 7.1 5 12.1h-.9c-1.3-3.8-2.7-6.9-4.2-9.6-2.1-3.8-4.3-6.6-6.7-9.3l-1-1.1.9-1.5c1.8-2.7 4.1-4.9 6.8-6.5-1 .3-2 .5-3.3.5-2.7-.1-5.4-.6-7.4-1.5-1.6-.8-2.9-1.9-3.5-3.3-.9-2.1-1-4.8.1-8.2.9-2.8 3-6.2 6.6-10.4.5-.6 1.8-.9 3.5-.7 1.3.1 2.8.5 4.4 1.2 1.6.7 3.2 1.7 4.6 3 3 2.8 5.3 7.4 5.2 14.4 1.6-3.4 1.3-6.6 1-8.8-.3-2.6-.5-4.6.1-5.6.1-.2.2-.3.4-.5.9-1.1 2.4-1.9 3.9-2.3 1.6-.4 3.2-.3 4.4.5.2.1.3.2.4.3.8.7 1.2 1.7 1.6 2.6.3.7.6 1.4 1.1 1.9.6.6 1.5 1 2.4 1.4.9.4 1.8.8 2.6 1.5 3.2 3 3.4 5.3 1.8 7.2-.9 1.1-3.2 1.7-5.9 2.1 3.8.2 7.5.6 10.5 1.2.1.7.1 1.4.1 2.1.1.2.1.3.1.5zM39 17.1c.3 2.9.8 6.8-.2 10.5 4-2.4 4.7-4.7 5.2-6.7.1-.5.3-1 .5-1.5.4-.9.9-1.7 1.5-2.2.4-.3.9-.5 1.3-.6.5-.1 1 0 1.5.2.7.3 1.5 1 2.2 1.9 2.5 3.3 3 5.1 2 6.5 2.1-.4 3.7-1 4.5-1.9.1-.2-.3-.8-1.8-2.2-.8-.7-1.7-1.1-2.6-1.5-.9-.4-1.7-.8-2.4-1.4-.5-.5-.8-1.2-1.2-1.9-.4-.9-.8-1.8-1.6-2.5-.1-.1-.3-.2-.4-.3-1.2-.8-2.9-.9-4.4-.5-1.6.4-3 1.2-3.9 2.3-.1.2-.2.3-.3.5 0 .2 0 .7.1 1.3zm4 9.1c2.4-.9 4.5-1.4 6.1-1.8 1.6-.4 2.8-.6 3.4-1.1 0 0-.3-.5-1.4-2-.7-1-1.5-1.6-2.2-1.9-.5-.2-1-.3-1.5-.2-.5.1-.9.3-1.3.6-.6.5-1.1 1.2-1.4 2.1-.2.5-.3.9-.5 1.4-.3.9-.6 1.9-1.2 2.9zm-13 3.2c.6-.3 1.2-.5 1.7-.7-.9 0-1.8.1-2.6.1-1.4.1-2.7.2-3.4 0-2.3-.5-3.6-1.2-4-2-1.3-2.4-.3-4.5 2-5.7 1.7-.8 4.1-1.3 6.4-.9 3.2.5 6.4 2.7 7.4 7.8.2-5.3-2.1-9.2-5-12-1.4-1.3-3-2.3-4.6-3-1.6-.7-3.1-1.1-4.4-1.2-1.7-.2-3 .1-3.5.7-3.6 4.2-5.6 7.6-6.5 10.3-.4 1.4-.4 2.4-.1 3.2.6 1.5 1.9 2.5 3.5 3.3 2.1 1 4.7 1.4 7.4 1.5 2.3.1 4.1-.7 5.7-1.4zm6.4-2.2c-1.4-2.8-3.8-4.1-6.3-4.5-2.3-.4-4.7.1-6.4.9-1 .5-2.1.4-2 .6.4.8 1.6 1.5 4 2 .8.1 2 .1 3.4 0 1.2-.1 2.6-.1 3.8-.1 1.4.1 2.6.3 3.5 1.1z"/>
    <ellipse transform="rotate(-76.761 32.898 31.426)" cx="32.9" cy="31.4" rx="29.4" ry="29.4" fill-rule="evenodd" clip-rule="evenodd" fill="none" stroke="#770a00" stroke-width="1.751" stroke-linecap="round" stroke-linejoin="round"/>
    <path class="st1" d="M16.1 69.6l-1.4-.6 2.2-4.4-5.2 3-1.1-.6 3.3-6.7 1.3.7-2.2 4.4 5.2-3 1.1.6-3.2 6.6zm5.7.6c.2-.6.1-1.2-.5-1.6.6 0 .9-.3 1.1-.8.2-.5.1-1-.2-1.4-.3-.3-.7-.6-1.2-.8-1.3-.4-2.1-.2-2.6.9l1.2.4c.1-.4.5-.5 1-.3s.7.5.6.8c-.1.3-.3.4-.6.4-.2 0-.4-.1-.8-.2l-.3.9c.4.1.7.3.8.4.3.2.4.5.3.8-.1.4-.5.5-1.2.2-.2-.1-.4-.2-.6-.4-.1-.2-.2-.4-.1-.6l-1.2-.4c-.2.6-.1 1.1.3 1.5.3.4.7.7 1.3.9.6.2 1.1.3 1.6.2.5-.1.9-.4 1.1-.9zm6.3 2.8l-1.3-.3 1-5.3 1.3.3-1 5.3zm-1.5-2c-.1.6-.4 1-.9 1.2-.4.2-.9.2-1.5.1l-2.1-.4 1-5.3 1.3.3-.4 2c.6.1 1 .2 1.3.3 1.1.2 1.5.9 1.3 1.8zm-2.1-1l-.6-.1-.2 1.2.7.1c.5.1.8 0 .9-.4 0-.5-.2-.7-.8-.8zm10.1 1.3l-1.4-.1c-.2.6-.7.9-1.4.8-.4 0-.8-.2-1.1-.5-.3-.3-.4-.7-.4-1.2s.2-.9.4-1.2c.3-.3.6-.4 1.1-.4.7 0 1.1.3 1.4.9l1.3.1c-.1-.7-.4-1.2-.9-1.6-.5-.4-1-.6-1.7-.6-.8 0-1.5.2-2.1.7-.5.5-.8 1.2-.9 2 0 .8.2 1.5.7 2.1.5.6 1.2.9 2 .9.7 0 1.3-.1 1.8-.5.7-.2 1-.7 1.2-1.4zm5.5 1.3l-1.6.2-2.1-2.4.3 2.6-1.3.1-.6-5.3 1.3-.1.3 2.5 1.6-2.7 1.5-.2-1.7 2.8 2.3 2.5zm5.8-1.4L44.7 66l-1.3.3.1.6c-.5-.4-1.1-.5-1.8-.3-.8.2-1.3.6-1.7 1.2-.4.6-.5 1.4-.3 2.1.2.8.6 1.4 1.2 1.8.6.4 1.3.5 2.1.4.7-.2 1.2-.5 1.5-1.1l.1.6 1.3-.4zM44 68.9c.1.4 0 .8-.2 1.2-.2.4-.5.6-1 .7-.4.1-.8 0-1.2-.2-.4-.3-.6-.6-.7-1-.1-.4 0-.8.2-1.2.2-.4.5-.6 1-.7.4-.1.8 0 1.2.2.4.2.6.6.7 1zm7.3.1l-1.3.5-.8-2.1-1.9.7.8 2.1-1.3.5-2-5 1.3-.5.8 2 1.9-.7-.8-2 1.3-.5 2 5zm5-2.9l-2.7-4.6-1.2.7 1.1 1.8-1.7 1-1.1-1.8-1.2.7 2.7 4.6 1.2-.7-1.1-1.9 1.7-1 1.1 1.9 1.2-.7zm5.6-4.6l-1 .9-3.5-4.1 1-.9 3.5 4.1zm-2.4 0c.4.4.5.9.3 1.4-.1.4-.4.8-.9 1.2l-1.6 1.4-3.5-4.1 1-.9 1.3 1.6c.5-.4.8-.7 1-.8 1-.7 1.7-.6 2.4.2zm-2.1.9l-.5.4.8.9.5-.5c.4-.3.5-.7.2-1-.3-.2-.6-.2-1 .2zm2.5-9.5c.3.3.5.6.6 1.1 0 .4-.1.8-.4 1.1-.3.3-.6.5-1.1.5-.4 0-.8-.1-1.1-.4l.6-.6c.2.1.3.2.5.2s.4-.1.5-.2c.1-.2.2-.3.2-.5s-.1-.4-.3-.5l.5-.7zM66 57l-4.1-3.5-.8.9 1 4-2.5-2.2-.9 1 4.1 3.5.8-.9-1-4 2.6 2.3.8-1.1zm4.8-7.6l-.7 1.2-3.7-2.1-1 1.7 3.7 2.1-.7 1.2-4.6-2.7 2.3-4 4.7 2.6zM69 46.3c.4.2.8.2 1.2 0 .4-.1.7-.4.8-.9.2-.4.2-.8 0-1.2-.2-.4-.5-.6-.9-.8-.4-.2-.9-.2-1.2-.1-.4.1-.7.4-.8.9-.2.4-.2.8 0 1.2.2.4.5.7.9.9zm1.6-4.1c-.8-.3-1.5-.3-2.2 0-.7.3-1.2.9-1.5 1.6-.3.8-.3 1.5 0 2.2.3.7.8 1.2 1.6 1.5.8.3 1.5.3 2.2 0 .7-.3 1.2-.8 1.5-1.6.3-.8.3-1.5 0-2.2-.2-.7-.8-1.2-1.6-1.5zm4.8-4.5l-.3 1.1-1.1-.3-.7 3.1 1.1.3-.2 1.1-2.2-.5.1-.6-3.8-2.4.3-1.4 4.5-.4.1-.6 2.2.6zm-2.6 1.4l-2.8.2 2.4 1.4.4-1.6zm1.9-7.7l-.1 1.3H74c.5.4.7 1 .6 1.7-.1.8-.4 1.4-1 1.9s-1.3.7-2.1.6c-.8-.1-1.4-.4-2-.9-.5-.5-.7-1.2-.7-2 .1-.7.3-1.3.9-1.6h-.6l.1-1.3 5.5.3zM72 32.5c-.5 0-.9.1-1.2.4-.3.3-.5.6-.6 1.1 0 .4.1.8.4 1.1.3.3.7.5 1.1.5.4 0 .8-.1 1.2-.4.4-.3.5-.6.6-1.1 0-.4-.1-.8-.4-1.1-.3-.3-.7-.5-1.1-.5zm-.4-7.7c.8-.1 1.4.1 2 .6.6.5.9 1.1 1 1.8.1.7-.1 1.3-.6 1.8l2.9-.2.1 1.3-7.7.6-.1-1.3h.7c-.6-.4-.9-.9-.9-1.6-.1-.8.2-1.5.7-2 .4-.6 1-.9 1.9-1zm0 1.3c-.5 0-.8.2-1.1.5-.3.3-.4.7-.4 1.1 0 .4.2.8.6 1 .3.3.7.4 1.2.3.5 0 .8-.2 1.1-.5.3-.3.4-.7.4-1.1 0-.4-.2-.8-.6-1.1-.4-.1-.7-.2-1.2-.2zm-.5-2.8c.5-.1.8-.3 1-.7.2-.3.3-.7.2-1.2-.1-.5-.3-.8-.7-1-.4-.2-.8-.2-1.2-.1-.5.1-.8.3-1 .7-.2.3-.3.7-.2 1.2.1.5.3.8.7 1 .3.1.7.2 1.2.1zM70 19c-.8.2-1.4.6-1.8 1.3-.4.7-.5 1.4-.3 2.2.2.8.6 1.4 1.2 1.8.6.4 1.4.5 2.2.4.8-.2 1.4-.6 1.8-1.3.4-.6.5-1.4.3-2.2-.2-.8-.6-1.4-1.2-1.8-.6-.5-1.3-.6-2.2-.4zm.5-5.8l.6 1.5-1.8 2.7 2.4-1 .5 1.2-5 2-.5-1.2 2.3-.9-3-.8-.6-1.4 3.2.9 1.9-3z"/>
</svg>
