<svg version="1.1" id="Layer_1" xmlns="http://www.w3.org/2000/svg" xmlns:xlink="http://www.w3.org/1999/xlink" x="0" y="0" viewBox="0 0 80 80" xml:space="preserve">
    <style>
        .st1{fill-rule:evenodd;clip-rule:evenodd;fill:#770a00}
    </style>
    <path d="M59.1 19.4v28.3H17.9V19.4h41.2zm-36.7 4.5v19.5H49V23.9H22.4z" fill-rule="evenodd" clip-rule="evenodd" fill="#fff"/>
    <path class="st1" d="M59.1 19.4v28.3H17.9V19.4h41.2zm-8.2 2.8H20.5v22.9h30.3V22.2h.1zm-26 8.6l1.2 1.1c3.2-3.7 5.8-2.4 8.6-1.1 3.4 1.6 7 3.3 11.8-1.4l-1.1-1.2c-4 3.9-7.1 2.5-10 1.1-3.4-1.7-6.6-3.2-10.5 1.5zm0 8l1.2 1.1c3.2-3.7 5.8-2.4 8.6-1.1 3.4 1.6 7 3.3 11.8-1.4l-1.1-1.2c-4 3.9-7.1 2.5-10 1.1-3.4-1.7-6.6-3.1-10.5 1.5zm0-4l1.2 1.1c3.2-3.7 5.8-2.4 8.6-1.1 3.4 1.6 7 3.3 11.8-1.4l-1.1-1.2c-4 3.9-7.1 2.5-10 1.1-3.4-1.7-6.6-3.2-10.5 1.5zm-2.5-10.9v19.5H49V23.9H22.4zm33.3 17.7c0-.8-.7-1.5-1.5-1.5s-1.5.7-1.5 1.5.7 1.5 1.5 1.5 1.5-.7 1.5-1.5zm0-3.6c0-.8-.7-1.5-1.5-1.5s-1.5.7-1.5 1.5.7 1.5 1.5 1.5 1.5-.7 1.5-1.5zM19.8 21.1V46h37.4V21.1H19.8z"/>
    <defs>
        <path id="SVGID_1_" d="M59.9 13.3L20.4 56.7c-1.2-.9-2.2-1.9-3.2-2.9l39.5-43.5c1.1 1 2.2 1.9 3.2 3z"/>
    </defs>
    <clipPath id="SVGID_2_">
        <use xlink:href="#SVGID_1_" overflow="visible"/>
    </clipPath>
    <g clip-path="url(#SVGID_2_)">
        <image width="179" height="194" xlink:href="ECB5BE58.jpg" transform="matrix(.2386 0 0 .2391 17.159 10.357)" overflow="visible"/>
    </g>
    <ellipse transform="rotate(-76.545 38.514 33.548)" cx="38.5" cy="33.5" rx="29.4" ry="29.4" fill-rule="evenodd" clip-rule="evenodd" fill="none" stroke="#770a00" stroke-width="1.801" stroke-linecap="round" stroke-linejoin="round"/>
    <path class="st1" d="M32 72.6c-.5.7-1.1 1.1-1.8 1.4-.7.3-1.5.3-2.3.1-1.1-.3-1.9-.9-2.4-1.8s-.6-1.9-.4-3c.3-1 .9-1.8 1.8-2.3.9-.5 1.9-.6 2.9-.4.8.2 1.5.6 2 1.2s.8 1.3.8 2.1l-1.6-.4c-.2-.9-.7-1.4-1.6-1.6-.6-.2-1.3-.1-1.8.3-.6.3-.9.8-1.1 1.5-.2.7-.1 1.3.2 1.9.3.6.8 1 1.4 1.2.8.2 1.5 0 2.1-.6l1.8.4zm5.6.4c.1-.9-.3-1.5-1.1-1.8.6-.3.9-.7 1-1.4.1-.7-.1-1.2-.6-1.6-.4-.3-.9-.5-1.7-.6l-2.2-.1-.6 7.5 2.2.2c1.9 0 2.8-.7 3-2.2zm-1.7-3.2c0 .2-.1.4-.2.5-.2.2-.5.3-1 .3h-.5l.1-1.7.7.1c.7 0 1 .3.9.8zm-1.8 2l.9.1c.8.1 1.1.4 1.1 1.1 0 .6-.5.9-1.3.8l-.9-.1.2-1.9zm9.1 3.2l-1.5.1-.2-2.9c-.6.2-1 .3-1.3.3-.7.1-1.3-.1-1.8-.5-.4-.4-.7-1-.7-1.7l-.1-2.3 1.4-.1.2 2.4c.1.7.4 1.1 1.1 1 .4 0 .7-.1 1.1-.3l-.2-3.3 1.5-.1.5 7.4zm3.1-2.7l-2.6.5-.2-1.3 2.6-.5.2 1.3zm5.7.8l-1.4-5.2-4.5 1.2 1.4 5.2 1.3-.4-1.1-4.1 1.9-.5 1.1 4.1 1.3-.3zm3.8-3.5L57 69c.1 1.3-.5 2.2-1.6 2.8-.8.3-1.5.4-2.2.1-.7-.3-1.2-.8-1.6-1.5-.3-.7-.4-1.5-.1-2.2.3-.7.7-1.3 1.5-1.6.6-.3 1.1-.3 1.7-.2.6.1 1 .4 1.5.8.3.3.5.7.8 1.3l-3.9 1.8c.5.7 1.1.9 1.9.5.3-.1.5-.3.6-.4.2-.2.3-.5.2-.8zm-.4-1.5c-.5-.6-1.1-.8-1.8-.4-.7.3-1 .9-.9 1.6l2.7-1.2zm6.9-.2l-3-4.5-1.1.7 1.2 1.8c-.2.3-.4.6-.8.8-.4.2-.7.2-1-.2l-.9-1.3-1.1.7 1 1.5c.3.4.6.7 1 .7.4.1.8 0 1.2-.3.5-.3.8-.6 1-1l1.3 1.9 1.2-.8zm3.2-4.6c.4.5.5.9.3 1.4-.1.4-.4.8-.9 1.2l-1.7 1.4-3.4-4.3 1.1-.8 1.3 1.6c.7-.6 1.3-.9 1.7-1.1.6-.2 1.2 0 1.6.6zm-2.7 1.3l.8 1 .6-.5c.4-.3.5-.6.2-1-.3-.3-.6-.3-1.1 0l-.5.5z"/>
</svg>
