<svg fill="currentColor" xmlns="http://www.w3.org/2000/svg" viewBox="0 0 40 40">
    <path d="M35 13.9l4.7-5.5c.3-.2.3-.5.2-.8-.1-.3-.3-.5-.6-.6L25.5 2.4c-.3-.1-.7 0-1 .3L20 8l-4.5-5.3c-.3-.3-.6-.4-1-.3L.6 7c-.3.1-.5.3-.6.6s0 .6.2.8l4.7 5.5-4.7 5.5c-.2.2-.2.5-.2.8.1.3.3.5.6.6l4.6 1.5v9.8c0 .4.3.8.6.9l13.8 4.5h.6L34.1 33c.4-.1.6-.5.6-.9v-9.8l4.6-1.5c.3-.1.5-.3.6-.6.1-.3 0-.6-.2-.8.1 0-4.7-5.5-4.7-5.5zm-26 0l11-3.6 10.9 3.6L20 17.5 9 13.9zm16.5-9.5l12 3.9-4 4.6-12-3.9 4-4.6zm-11 0l4 4.6-12 3.9-4-4.6 12-3.9zM6.4 15l12 3.9-4 4.6-12-3.9 4-4.6zM7 31.4V23l7.4 2.4h.3c.3 0 .5-.1.7-.3L19 21v14.5c0-.1-12-4.1-12-4.1zm25.9 0l-12 4V20.9l3.6 4.2c.2.2.4.3.7.3h.3l7.4-2.4v8.4zm-7.4-7.9l-4-4.6 12-3.9 4 4.6-12 3.9z"/>
</svg>
