<svg fill="currentColor" xmlns="http://www.w3.org/2000/svg" viewBox="0 0 40 40">
    <path d="M2.2 8.5l3.7 1.7L23.2 2c.1-.1.2-.2.2-.3 0-.1-.1-.3-.2-.3l-3-1.3h-.3L2.2 7.8c-.1.1-.2.2-.2.4 0 .1.1.2.2.3zm16.7 9.6L12.3 15v9.3c0 .1 0 .2-.1.2H12l-7-3.3c-.1 0-.1-.1-.1-.2v-9.4L.7 9.7c-.1-.1-.2 0-.3 0-.1.1-.2.2-.2.3v21.3c0 .1.1.3.2.3L18.6 40h.1c.1 0 .1 0 .2-.1s.2-.2.2-.3V18.4c0-.2-.1-.3-.2-.3zm20.7-8.3c-.1-.1-.2-.1-.3 0l-18.2 8.3c-.1.1-.2.2-.2.3v21.3c0 .1.1.2.2.3.1 0 .1.1.2.1h.1l18.2-8.3c.1-.1.2-.2.2-.3V10.1c0-.2 0-.3-.2-.3zM38 8.2c0-.1-.1-.3-.2-.3l-6.1-2.7h-.3l-17.7 8.5 6.2 3h.2l17.6-8.1c.2-.2.3-.3.3-.4z"/>
</svg>
