<svg fill="currentColor" xmlns="http://www.w3.org/2000/svg" viewBox="0 0 40 40">
    <path d="M35.3 3.1h-1.9V0h-3.1v3.1H9.7V0H6.6v3.1H4.7C2.1 3.1 0 5.2 0 7.8v27.5C0 37.9 2.1 40 4.7 40h30.6c2.6 0 4.7-2.1 4.7-4.7V7.8c0-2.6-2.1-4.7-4.7-4.7zm1.6 32.2c0 .9-.7 1.6-1.6 1.6H4.7c-.9 0-1.6-.7-1.6-1.6V14.7h33.8v20.6zm0-23.7H3.1V7.8c0-.9.7-1.6 1.6-1.6h1.9v3.1h3.1V6.2h20.6v3.1h3.1V6.2h1.9c.9 0 1.6.7 1.6 1.6v3.8z"/>
    <path d="M4.5 17.2H8v3.5H4.5v-3.5zm6.9 0h3.5v3.5h-3.5v-3.5zm6.9 0h3.4v3.5h-3.4v-3.5zm6.9 0h3.5v3.5h-3.5v-3.5zm6.8 0h3.5v3.5H32v-3.5zM4.5 24.1H8v3.5H4.5v-3.5zm6.9 0h3.5v3.5h-3.5v-3.5zm6.9 0h3.4v3.5h-3.4v-3.5zm6.9 0h3.5v3.5h-3.5v-3.5zM4.5 30.9H8v3.5H4.5v-3.5zm6.9 0h3.5v3.5h-3.5v-3.5zm6.9 0h3.4v3.5h-3.4v-3.5zm6.9 0h3.5v3.5h-3.5v-3.5zm6.8-6.8h3.5v3.5H32v-3.5z"/>
</svg>
