<svg fill="currentColor" xmlns="http://www.w3.org/2000/svg" viewBox="0 0 40 40">
    <path d="M34.7 2.6h-8.6L24.5.3c-.1-.2-.3-.3-.6-.3h-7.3c-.3 0-.5.1-.7.3l-1.6 2.3H5.7c-.4 0-.8.4-.8.8v35.8c0 .4.4.8.8.8h29c.4 0 .8-.4.8-.8V3.4c0-.5-.3-.8-.8-.8zM17 1.6h6.5l2.6 3.6H14.4L17 1.6zm16.9 36.8H6.5V4.2h6.6l-.9 1.3c-.2.3-.2.6-.1.9.1.3.4.4.7.4h14.8c.3 0 .6-.2.7-.4.1-.3.1-.6-.1-.8l-.9-1.3h6.6v34.1z"/>
    <path d="M20.2 12c-5.1 0-9.3 4.2-9.3 9.3s4.2 9.3 9.3 9.3c5.1 0 9.3-4.2 9.3-9.3S25.3 12 20.2 12zm0 16.9c-4.2 0-7.6-3.4-7.6-7.6s3.4-7.6 7.6-7.6c4.2 0 7.6 3.4 7.6 7.6s-3.4 7.6-7.6 7.6z"/>
    <path d="M23.5 18.1l-4.6 4.6-1.9-1.8c-.3-.3-.8-.3-1.1 0-.3.3-.3.8 0 1.1l2.4 2.4c.2.2.4.2.6.2s.4-.1.6-.2l5.2-5.2c.3-.3.3-.8 0-1.1-.4-.3-.9-.3-1.2 0z"/>
</svg>
