<svg fill="currentColor" xmlns="http://www.w3.org/2000/svg" viewBox="0 0 40 40">
    <path d="M26.2 13c.7-.7.7-1.8 0-2.5s-1.8-.7-2.5 0L9.5 24.7c-2.2 2.2-2.2 5.7 0 7.8 1.1 1.1 2.5 1.6 3.9 1.6s2.8-.5 3.9-1.6l6.8-6.8 11.4-11.4c3.3-3.3 3.3-8.6 0-11.9a8.39 8.39 0 0 0-11.9 0L8 18.2l-.1.1-2.6 2.6c-2.1 2-3.3 4.9-3.3 7.9s1.2 5.8 3.3 7.9c2.1 2.1 4.9 3.3 7.9 3.3s5.8-1.2 7.9-3.3L34 23.8c.7-.7.7-1.8 0-2.5s-1.8-.7-2.5 0l-13 12.9c-1.5 1.5-3.4 2.3-5.5 2.3s-4-.8-5.5-2.3c-1.5-1.5-2.3-3.4-2.3-5.5s.8-4 2.3-5.5l12.9-12.9.1-.1 5.3-5.3C28 3 31.1 3 33 4.9c1.9 1.9 1.9 5 0 6.9l-4 4-14.2 14.3c-.8.8-2.1.8-2.8 0-.8-.8-.8-2.1 0-2.8L26.2 13z"/>
</svg>
