<svg fill="currentColor" xmlns="http://www.w3.org/2000/svg" viewBox="0 0 40 40">
    <path d="M37.5 19.5l-4.7-9.4c-.2-.4-.5-.6-1-.6H8.3c-.5 0-.8.2-1 .6l-4.7 9.4c-.2.5-.1.9.2 1.3l16.4 18.8c.2.3.5.4.9.4.3 0 .7-.1.9-.4l16.4-18.8c.2-.4.3-.9.1-1.3zm-7.7-7.7l-3 6-4.5-6h7.5zm-5.1 7h-9.4l4.7-6.2 4.7 6.2zm-7-7l-4.5 6-3-6h7.5zm-9.4 1.4l2.8 5.6H5.5l2.8-5.6zm-2.1 8h6L18 34.7 6.2 21.2zM20 33.5l-5.3-12.3h10.5L20 33.5zm2 1.2l5.8-13.5h6L22 34.7zm6.9-15.9l2.8-5.6 2.8 5.6h-5.6zM20 0c-.6 0-1.2.5-1.2 1.2v2.4c0 .6.5 1.2 1.2 1.2.6 0 1.2-.5 1.2-1.2V1.2C21.2.5 20.6 0 20 0zm-5 5.2l-1.7-1.7c-.5-.5-1.2-.5-1.7 0s-.5 1.2 0 1.7l1.7 1.7c.5.5 1.2.5 1.7 0s.5-1.3 0-1.7zm13.3-1.7c-.5-.5-1.2-.5-1.7 0L25 5.2c-.5.5-.5 1.2 0 1.7s1.2.5 1.7 0l1.7-1.7c.3-.5.3-1.2-.1-1.7z"/>
</svg>
