<svg fill="currentColor" xmlns="http://www.w3.org/2000/svg" viewBox="0 0 40 40">
    <path d="M2.5 21.2v15c0 1.4 1.1 2.5 2.5 2.5h12.5V21.2h-15zm35-10h-7.9c.6-.4 1.1-.8 1.4-1.1 2-2 2-5.3 0-7.4-2-2-5.4-2-7.3 0-1.1 1.1-4 5.5-3.6 8.5h-.2c.4-3-2.5-7.4-3.6-8.5-2-2-5.4-2-7.3 0-2 2-2 5.3 0 7.4.3.3.8.7 1.4 1.1H2.5c-1.4 0-2.5 1.1-2.5 2.5v3.8c0 .7.6 1.2 1.2 1.2h16.2v-5h5v5h16.2c.7 0 1.2-.6 1.2-1.2v-3.8c.2-1.4-.9-2.5-2.3-2.5zm-20.1-.1s-.1.1-.5.1c-1.7 0-5-1.8-6.1-2.9-1-1.1-1-2.8 0-3.8.5-.5 1.2-.8 1.9-.8s1.4.3 1.9.8c1.7 1.7 3.3 6 2.8 6.6zm5.7.1c-.4 0-.5-.1-.5-.1-.6-.6 1.1-4.9 2.8-6.6 1-1 2.8-1 3.8 0 1 1.1 1 2.8 0 3.8-1.1 1.1-4.4 2.9-6.1 2.9zm-.6 10v17.5H35c1.4 0 2.5-1.1 2.5-2.5v-15h-15z"/>
</svg>
