<svg fill="currentColor" xmlns="http://www.w3.org/2000/svg" viewBox="0 0 40 40">
    <path d="M39 5.3c-.7-.7-1.5-1-2.5-1H3.6c-1 0-1.8.3-2.5 1C.3 6 0 6.9 0 7.9v24.3c0 1 .3 1.8 1 2.5s1.5 1 2.5 1h32.9c1 0 1.8-.3 2.5-1s1-1.5 1-2.5V7.9c.1-1-.2-1.9-.9-2.6zm-1.9 26.8c0 .2-.1.4-.2.5-.1.1-.3.2-.5.2H3.6c-.2 0-.4-.1-.5-.2-.1-.1-.2-.3-.2-.5V15l1.5 1.5c4 3.1 7.2 5.6 9.5 7.5.8.6 1.4 1.1 1.9 1.5s1.1.7 1.9 1.1 1.6.5 2.3.5c.7 0 1.5-.2 2.3-.5.8-.4 1.5-.7 1.9-1.1.5-.4 1.1-.9 1.9-1.5 2.4-2 5.5-4.5 9.5-7.5.6-.4 1.1-.9 1.5-1.5v17.1zm0-23.7v.2c0 .9-.3 1.9-1 2.9-.7 1.1-1.4 1.9-2.2 2.6-3 2.4-6 4.7-9 7.1-.1.1-.3.3-.8.7-.4.4-.8.6-1 .8-.3.2-.6.4-1 .7-.4.3-.8.5-1.1.6-.3.1-.7.2-1 .2s-.6-.1-1-.2c-.3-.1-.7-.3-1.1-.6-.4-.3-.7-.5-1-.7s-.6-.5-1-.8c-.4-.4-.7-.6-.8-.7-3-2.4-6-4.7-9-7.1-2.1-1.6-3.2-3.7-3.2-6.2 0-.2.1-.4.2-.5.1-.1.3-.2.5-.2h32.9c.1.1.2.1.3.1s.2 0 .2.2c0 .1.1.2.1.2s.1.1.1.3l-.1.4c.1-.1 0 0 0 0z"/>
</svg>
