<svg fill="currentColor" xmlns="http://www.w3.org/2000/svg" viewBox="0 0 40 40">
    <path d="M29.3 26s-4.6.1-5.3-4.8c.8-.5 1.5-1.2 2.1-2.1 1.2-1.6 2-3.7 2.3-5.9.1-.1.2-.2.2-.3.5-1.2.8-2.5.8-3.8 0-5-3.8-9.2-8.5-9.2-1.2 0-2.4.3-3.5.8-.4 0-.8.1-1.2.2-1.9.6-3.5 2-4.4 4-.9 2-1.1 4.3-.5 6.5.1.5.3.9.5 1.4 0 .1.1.2.2.3.4 3.4 2.1 6.3 4.3 7.9-.7 4.9-5.3 4.8-5.3 4.8-3.3.1-6 2.8-6 6.2v6.9c0 .5.4.9.9.9h28.6c.5 0 .9-.4.9-.9V32c-.2-3.2-2.8-5.9-6.1-6zM16.5 2.8c.3-.1.7-.2 1-.2.1 0 .3 0 .4-.1.9-.5 1.9-.7 2.9-.7 3.7 0 6.7 3.3 6.7 7.4v.4c-.7-.7-1.7-1.2-2.8-1.2h-6.1c-.4 0-.7-.1-1-.3-.2-.2-.4-.4-.6-.7-.2-.4-.6-.7-1.1-.7-.5 0-.9.4-1 .8-.4 1.4-1.1 2.6-2 3.6-1-3.8.6-7.5 3.6-8.3zm-.8 15.6c-1.2-1.4-1.9-3.4-2.2-5.5 1.1-1 2-2.3 2.6-3.7.1.1.2.2.3.2.6.5 1.3.7 2.1.7h6.1c.9 0 1.6.5 2 1.3 0 5.1-3 9.2-6.6 9.2-1.6 0-3.1-.8-4.3-2.2zm2.1 3.6c.7.3 1.5.4 2.2.4.8 0 1.5-.1 2.2-.4.3 1.7 1.3 3.2 2.6 4.2L20.1 33l-.1.1c-.1 0-.1 0-.1-.1l-4.7-6.7c1.3-1 2.2-2.5 2.6-4.3zm15.6 16.2H6.6v-6c0-2.4 2-4.4 4.4-4.4 0 0 1.5 0 2.6-.6l4.8 6.9c.4.5 1 .8 1.6.8.6 0 1.2-.3 1.6-.8l4.8-6.9c1.3.6 2.6.6 2.6.6 2.4 0 4.4 2 4.4 4.4v6z"/>
</svg>
