<svg fill="currentColor" xmlns="http://www.w3.org/2000/svg" viewBox="0 0 24 24">
    <path d="M22.5 0h-21C.7 0 0 .7 0 1.5v21c0 .8.7 1.5 1.5 1.5h21c.8 0 1.5-.7 1.5-1.5v-21c0-.8-.7-1.5-1.5-1.5zm-7.4 7c.7 0 1.3.7 1.3 1.4s-.6 1.3-1.3 1.3c-.7 0-1.3-.7-1.3-1.4S14.4 7 15.1 7zM8.9 7c.7 0 1.3.7 1.3 1.4s-.6 1.3-1.3 1.3c-.7 0-1.3-.7-1.3-1.4S8.2 7 8.9 7zm10.7 10c-.4.2-1 .1-1.2-.3l-.7-1.2c-1.6 1.4-3.6 2.2-5.7 2.2s-4.1-.8-5.7-2.2l-.7 1.1c-.3.4-.8.5-1.2.3-.4-.3-.5-.8-.3-1.2l1.8-3c.3-.4.8-.5 1.2-.3.4.3.5.8.3 1.2l-.2.4c1.3 1.3 3 2 4.8 2s3.5-.7 4.8-2l-.2-.4c-.3-.4-.1-.9.3-1.1.4-.2 1-.1 1.2.3l1.8 3c.2.4.1.9-.3 1.2z"/>
</svg>
