<svg fill="currentColor" xmlns="http://www.w3.org/2000/svg" viewBox="0 0 40 40">
    <path d="M18 28.2c-3.1-.3-5.9-1.1-8.3-3-.3-.2-.6-.5-.9-.7-1-1-1.2-2.2-.3-3.3.7-1 1.9-1.3 3.1-.7.2.1.5.3.7.4 4.5 3 10.7 3.1 15.1.1.4-.3.9-.6 1.5-.8 1.1-.3 2.1.1 2.6 1.1.7 1.1.6 2.1-.2 2.9-1.2 1.3-2.7 2.2-4.4 2.8-1.6.6-3.3.9-5 1.1.3.3.4.4.5.6l6.9 6.9c.8.8.9 1.8.5 2.7-.5 1-1.5 1.7-2.6 1.6-.7 0-1.2-.4-1.6-.8l-5.2-5.2c-.5-.5-.7-.4-1.2 0-1.7 1.8-3.5 3.6-5.3 5.3-.8.8-1.8.9-2.7.5-1-.5-1.6-1.5-1.6-2.5 0-.7.4-1.2.8-1.7l6.8-6.8c.5-.1.6-.3.8-.5z"/>
    <path d="M19.9 20.2c-5.5 0-10.1-4.6-10-10.1C9.9 4.5 14.5 0 20 0c5.6 0 10.1 4.6 10.1 10.3 0 5.5-4.6 10-10.2 9.9zM25 10.1c0-2.8-2.2-4.9-4.9-4.9-2.8 0-5 2.2-5 5 0 2.7 2.2 4.9 5 4.9 2.7 0 4.9-2.2 4.9-5z"/>
</svg>
