<svg fill="currentColor" xmlns="http://www.w3.org/2000/svg" viewBox="0 0 512 512">
    <path d="M492.6 400.6L392.2 300.2c-12-12-31.5-12-43.4 0l-26.1 26.1c-8.2 8.2-10.8 19.8-7.8 30.2l-9.8 9.8c-7 7-50.5-3.7-103.1-56.4-52.6-52.6-63.4-96.1-56.4-103.1l9.9-9.9c2.8.8 5.6 1.2 8.5 1.2 7.9 0 15.7-3 21.7-9l26.1-26.1c12-12 12-31.5 0-43.4L111.4 19.4c-5.8-5.8-13.5-9-21.7-9s-15.9 3.2-21.7 9L41.9 45.5c-8.2 8.2-10.8 19.8-7.8 30.2 0 0-8.3 8.4-8.8 9-27.8 30.8-33 79.4-14.6 137.5 18 56.9 56.9 117.1 109.4 169.6 52.5 52.5 112.7 91.3 169.6 109.4 22.8 7.2 44.2 10.8 63.6 10.8 31.8 0 58.3-9.6 77.4-28.7l5.5-5.5c2.8.8 5.6 1.2 8.5 1.2 8.2 0 15.9-3.2 21.7-9l26.1-26.1c12-11.9 12-31.4.1-43.3zM89.7 41.2L190 141.5l-26 26.1-.4-.4-49.8-49.8-50.2-50.2 26.1-26zM409 461.6c-22.1 22.1-61.2 25.7-110 10.3-52.3-16.6-108.1-52.7-157.2-101.8-49-49.1-85.1-104.9-101.7-157.2-15.5-48.8-11.8-87.9 10.3-110l2.8-2.8 77.9 77.9-7.1 7.1c-29.6 29.6 6 96.1 56.4 146.6 37.7 37.7 84.5 67.1 118.1 67.1 11.3 0 21.1-3.3 28.5-10.8l7.1-7.1 77.9 77.9-3 2.8zm35.8-13.2L344.4 348l26.1-26.1 100.3 100.3c0 .1-26 26.2-26 26.2zm-56-325.2c-29.2-29.2-68-45.3-109.3-45.3-8.5 0-15.4 6.9-15.4 15.4s6.9 15.4 15.4 15.4c33.1 0 64.2 12.9 87.6 36.3 23.4 23.4 36.3 54.5 36.3 87.6 0 8.5 6.9 15.4 15.4 15.4s15.4-6.9 15.4-15.4c-.1-41.4-16.2-80.2-45.4-109.4z"/>
    <path d="M443.9 68.1C400 24.2 341.6 0 279.5 0c-8.5 0-15.4 6.9-15.4 15.4s6.9 15.4 15.4 15.4c53.9 0 104.6 21 142.7 59.1 38.1 38.1 59.1 88.8 59.1 142.7 0 8.5 6.9 15.4 15.4 15.4s15.4-6.9 15.4-15.4c-.1-62.2-24.3-120.6-68.2-164.5zM333.7 178.3c-14.7-14.7-33.5-22.5-54.3-22.5-8.5 0-15.4 6.9-15.4 15.4s6.9 15.4 15.4 15.4c12.6 0 23.6 4.5 32.5 13.5 8.8 8.8 13.5 20.1 13.5 32.5 0 8.5 6.9 15.4 15.4 15.4s15.4-6.9 15.4-15.4c0-20.9-7.8-39.6-22.5-54.3z"/>
</svg>
