<svg fill="currentColor" xmlns="http://www.w3.org/2000/svg" viewBox="0 0 40 40">
    <path d="M37 12.8h-2.1v-.1L23.5 1.5c-.5-.5-1.3-.5-1.8 0s-.5 1.3 0 1.8l9.5 9.5H8.8l9.5-9.5c.5-.5.5-1.3 0-1.8s-1.3-.5-1.8 0L5.2 12.8v.1H3c-1.7 0-3 1.4-3 3v1.7c0 1.6 1.2 2.9 2.8 3l2.5 15c.3 1.9 1.9 3.3 3.9 3.3h22c1.9 0 3.6-1.4 3.9-3.4l2.1-14.9c1.6-.1 2.8-1.4 2.8-3v-1.7c0-1.7-1.4-3.1-3-3.1zm.4 4.8c0 .2-.2.4-.4.4H24c-.7 0-1.3.6-1.3 1.3 0 .7.6 1.3 1.3 1.3h10.7l-2.1 14.5c-.1.6-.6 1.1-1.3 1.1h-22c-.6 0-1.2-.5-1.3-1.1L5.5 20.7h10.6c.7 0 1.3-.6 1.3-1.3 0-.7-.6-1.3-1.3-1.3H3c-.2 0-.4-.2-.4-.4V16c0-.2.2-.4.4-.4h34c.2 0 .4.2.4.4v1.6z"/>
    <path d="M12.2 23.3c-.7 0-1.3.6-1.3 1.3v7.8c0 .7.6 1.3 1.3 1.3.7 0 1.3-.6 1.3-1.3v-7.8c0-.8-.6-1.3-1.3-1.3zm7.8 0c-.7 0-1.3.6-1.3 1.3v7.8c0 .7.6 1.3 1.3 1.3.7 0 1.3-.6 1.3-1.3v-7.8c0-.8-.6-1.3-1.3-1.3zm7.8 0c-.7 0-1.3.6-1.3 1.3v7.8c0 .7.6 1.3 1.3 1.3.7 0 1.3-.6 1.3-1.3v-7.8c0-.8-.6-1.3-1.3-1.3z"/>
</svg>
