<svg fill="currentColor" xmlns="http://www.w3.org/2000/svg" viewBox="0 0 40 40">
    <path d="M19.6 15.4c-.5-.5-1.3-.5-1.8 0l-4.1 4.1-1.6-1.6c-.5-.5-1.3-.5-1.8 0s-.5 1.3 0 1.8l2.5 2.5c.2.2.6.4.9.4s.6-.1.9-.4l5-5c.5-.6.5-1.3 0-1.8zm0 10c-.5-.5-1.3-.5-1.8 0l-4.1 4.1-1.6-1.6c-.5-.5-1.3-.5-1.8 0s-.5 1.3 0 1.8l2.5 2.5c.2.2.6.4.9.4s.6-.1.9-.4l5-5c.5-.6.5-1.3 0-1.8zm9.1-7.9h-5c-.7 0-1.2.6-1.2 1.2s.6 1.2 1.2 1.2h5c.7 0 1.2-.6 1.2-1.2s-.5-1.2-1.2-1.2zm0 10h-5c-.7 0-1.2.6-1.2 1.2s.6 1.2 1.2 1.2h5c.7 0 1.2-.6 1.2-1.2s-.5-1.2-1.2-1.2z"/>
    <path d="M32.5 5h-5V3.8c0-.7-.6-1.2-1.2-1.2h-2.7C23 1 21.6 0 20 0s-3 1-3.5 2.5h-2.7c-.7 0-1.2.6-1.2 1.2V5h-5C6.1 5 5 6.1 5 7.5v30C5 38.9 6.1 40 7.5 40h25c1.4 0 2.5-1.1 2.5-2.5v-30C35 6.1 33.9 5 32.5 5zM15 5h2.5c.7 0 1.2-.6 1.2-1.2s.6-1.2 1.2-1.2 1.2.6 1.2 1.2.7 1.2 1.4 1.2H25v2.5H15V5zm17.5 32.5h-25v-30h5v1.2c0 .7.6 1.2 1.2 1.2h12.5c.7 0 1.2-.6 1.2-1.2V7.5h5v30z"/>
</svg>
