<svg fill="currentColor" xmlns="http://www.w3.org/2000/svg" viewBox="0 0 40 40">
    <path d="M19.7 19.3c2.6 0 4.9-.9 6.8-2.8 1.9-1.9 2.8-4.2 2.8-6.8 0-2.6-.9-4.9-2.8-6.8C24.7.9 22.4 0 19.7 0c-2.6 0-4.9.9-6.8 2.8S10.1 7 10.1 9.6c0 2.6.9 4.9 2.8 6.8 1.9 1.9 4.2 2.9 6.8 2.9zM14.6 4.5C16 3 17.7 2.3 19.7 2.3c2 0 3.7.7 5.2 2.1C26.3 5.9 27 7.6 27 9.6s-.7 3.7-2.1 5.2c-1.4 1.4-3.1 2.1-5.2 2.1-2 0-3.7-.7-5.2-2.1-1.4-1.4-2.1-3.1-2.1-5.2.1-2 .8-3.7 2.2-5.1zm22 26.3c-.1-.8-.2-1.6-.3-2.5-.2-.9-.4-1.8-.6-2.5-.3-.8-.6-1.6-1-2.4-.5-.8-1-1.5-1.6-2.1-.6-.6-1.4-1.1-2.3-1.4-.9-.3-1.8-.5-2.9-.5-.4 0-.8.2-1.6.7-.5.4-1.1.7-1.6 1.1-.5.3-1.2.6-2.1.9-.9.3-1.7.4-2.6.4-.9 0-1.7-.1-2.6-.4-.9-.3-1.6-.6-2.1-.9-.6-.4-1.2-.7-1.6-1.1-.8-.5-1.2-.7-1.6-.7-1 0-2 .2-2.9.5-.9.3-1.6.8-2.3 1.4-.6.6-1.1 1.3-1.6 2.1-.4.8-.8 1.6-1 2.4-.2.8-.5 1.6-.6 2.5-.2.9-.3 1.7-.3 2.5-.1.8-.1 1.6-.1 2.4 0 2.1.7 3.8 2 5 1.3 1.2 3 1.9 5.1 1.9h19.3c2.1 0 3.8-.6 5.1-1.9 1.3-1.2 2-2.9 2-5-.1-.9-.1-1.7-.2-2.4zm-3.5 5.6c-.9.8-2 1.2-3.5 1.2H10.4c-1.5 0-2.6-.4-3.5-1.2-.8-.8-1.2-1.9-1.2-3.3 0-.7 0-1.5.1-2.2 0-.7.1-1.5.3-2.3.1-.8.3-1.6.5-2.2.2-.7.5-1.3.9-1.9.3-.6.7-1.1 1.2-1.5.4-.4.9-.7 1.5-.9.6-.2 1.2-.3 1.8-.4.1 0 .2.1.5.3.5.3 1 .7 1.7 1.1.7.4 1.6.8 2.6 1.2 1.1.4 2.2.5 3.3.5 1.1 0 2.2-.2 3.3-.5 1.1-.3 2-.7 2.7-1.2.6-.4 1.2-.7 1.6-1.1.2-.2.4-.2.5-.3.7 0 1.3.1 1.8.4.6.2 1.1.6 1.5.9.4.4.8.9 1.2 1.5.4.6.6 1.3.9 1.9.2.7.4 1.4.5 2.2.1.8.2 1.6.3 2.3 0 .7.1 1.4.1 2.2-.2 1.5-.6 2.6-1.4 3.3z"/>
</svg>
