<svg fill="currentColor" xmlns="http://www.w3.org/2000/svg" viewBox="0 0 40 40">
    <path d="M39.1 9.7c.3-.9 0-1.6-1.4-1.6h-4.4c-1.1 0-1.6.6-1.9 1.3 0 0-2.3 5.4-5.4 9-1 1-1.5 1.4-2 1.4-.3 0-.8-.4-.8-1.3V9.7c0-1.1-.3-1.6-1.3-1.6H15c-.8 0-1.1.5-1.1 1 0 1 1.6 1.3 1.8 4.3v6.5c0 1.4-.3 1.6-.8 1.6-1.5 0-5.1-5.5-7.3-11.6-.1-1.3-.6-1.8-1.7-1.8H1.5C.3 8.1 0 8.7 0 9.4c0 1.1 1.5 6.9 6.9 14.5 3.6 5.3 8.8 8 13.4 8 2.8 0 3.1-.6 3.1-1.8v-3.9c0-1.3.3-1.5 1.1-1.5.6 0 1.8.4 4.4 2.9 3 3 3.5 4.3 5.1 4.3h4.4c1.3 0 1.9-.6 1.5-1.9-.4-1.3-1.8-3-3.8-5.1-1-1.3-2.5-2.5-3-3.1-.6-.9-.5-1.3 0-2 .2-.1 5.4-7.6 6-10.1z" fill-rule="evenodd" clip-rule="evenodd"/>
</svg>
