<svg fill="currentColor" xmlns="http://www.w3.org/2000/svg" viewBox="0 0 40 40">
    <path d="M40 19.5C40 30.2 31.2 39 20.4 39c-3.3 0-6.6-.8-9.5-2.4L0 40l3.5-10.5C1.7 26.5.7 23 .7 19.4.7 8.7 9.5 0 20.4 0 31.2 0 40 8.7 40 19.5zM20.4 3.1c-9.1 0-16.5 7.3-16.5 16.4 0 3.6 1.2 6.9 3.1 9.6l-2.1 6.1 6.3-2c2.7 1.8 5.9 2.7 9.1 2.7 9.1 0 16.5-7.3 16.5-16.4S29.5 3.1 20.4 3.1zM30.3 24c-.1-.2-.4-.3-.9-.6-.5-.2-2.8-1.4-3.3-1.6-.4-.2-.8-.2-1.1.2-.3.5-1.2 1.6-1.5 1.9-.3.3-.6.4-1 .1-.5-.2-2-.7-3.9-2.4-1.4-1.3-2.4-2.8-2.7-3.3-.3-.5 0-.7.2-1 .2-.2.5-.6.7-.8.2-.3.3-.5.5-.8.2-.3.1-.6 0-.8-.1-.2-1.1-2.6-1.5-3.5-.4-1-.8-.8-1.1-.8h-.9c-.3 0-.8.1-1.3.6-.4.5-1.7 1.6-1.7 4s1.7 4.6 2 4.9c.2.3 3.3 5.3 8.2 7.2 4.9 1.9 4.9 1.3 5.8 1.2.9-.1 2.8-1.2 3.2-2.3.4-1.1.4-2 .3-2.2z"/>
</svg>
