<svg fill="currentColor" xmlns="http://www.w3.org/2000/svg" viewBox="0 0 40 40">
    <path d="M27.5 17.2c0-.9-.7-1.6-1.6-1.6h-16c-.9 0-1.6.7-1.6 1.6s.7 1.6 1.6 1.6H26c.8 0 1.5-.7 1.5-1.6zM9.9 21.9c-.9 0-1.6.7-1.6 1.6S9 25 9.9 25h9.8c.9 0 1.6-.7 1.6-1.6s-.7-1.6-1.6-1.6H9.9z"/>
    <path d="M13.6 36.9H8.3c-1.7 0-3.1-1.4-3.1-3.1V6.2c0-1.7 1.4-3.1 3.1-3.1h19.2c1.7 0 3.1 1.4 3.1 3.1v9.6c0 .9.7 1.6 1.6 1.6.9 0 1.6-.7 1.6-1.6V6.2C33.8 2.8 31 0 27.5 0H8.3C4.9 0 2.1 2.8 2.1 6.2v27.5c0 3.4 2.8 6.2 6.2 6.2h5.2c.9 0 1.6-.7 1.6-1.6s-.7-1.4-1.5-1.4z"/>
    <path d="M36.6 22.6c-1.8-1.8-4.8-1.8-6.6 0l-8.6 8.6c-.2.2-.3.4-.4.7L19.1 38c-.3.8.2 1.7 1 1.9.3.1.6.1.9 0l6.3-1.7c.3-.1.5-.2.7-.4l8.6-8.5c1.8-1.9 1.8-4.8 0-6.7zM26.1 35.3l-3.2.9.9-3.1 5.8-5.8 2.2 2.2-5.7 5.8zm8.2-8.3l-.3.3-2.2-2.2.3-.3c.6-.6 1.6-.6 2.2 0s.7 1.6 0 2.2zM26 9.4H9.9c-.9 0-1.6.7-1.6 1.6s.7 1.6 1.6 1.6H26c.9 0 1.6-.7 1.6-1.6s-.8-1.6-1.6-1.6z"/>
</svg>
