<svg fill="currentColor" xmlns="http://www.w3.org/2000/svg" viewBox="0 0 40 40">
    <path d="M31.5 29.3h-2.2V28c0-.6.5-1 1-1h.1c.6 0 1 .5 1 1l.1 1.3zm-8.2-2.8c-.6 0-1 .4-1 .8v6.2c0 .5.5.8 1 .8.6 0 1-.4 1-.8v-6.2c0-.4-.4-.8-1-.8zm13.4-3.4v11.8c0 2.8-2.5 5.1-5.5 5.1H8.8c-3 0-5.5-2.3-5.5-5.1V23.1c0-2.8 2.5-5.1 5.5-5.1h22.4c3-.1 5.5 2.2 5.5 5.1zm-26.4 13V23.7h2.8v-1.8H5.7v1.8H8v12.5c0-.1 2.3-.1 2.3-.1zm8.3-10.5h-2.3v6.6c0 1 .1 1.4 0 1.6-.2.5-1 1.1-1.4.1-.1-.2 0-.7 0-1.6v-6.7h-2.3v8.7c.1.6 0 1.3.6 1.7 1 .8 3-.1 3.5-1.2v1.4h1.9V25.6zm7.4 7.6v-5.5c0-2.1-1.6-3.4-3.7-1.7v-4.1H20V36h1.9l.2-.9c2.4 2.3 3.9.7 3.9-1.9zm7.3-.8h-1.7v1.2c0 .5-.4.9-.9.9h-.3c-.5 0-1-.4-1-.9V31h4v-1.5c0-1.1 0-2.2-.1-2.8-.3-2-3.1-2.3-4.5-1.3-.5.3-.8.8-1 1.3-.2.6-.3 1.3-.3 2.3v3.3c-.1 5.6 6.6 4.8 5.8.1zm-8.9-17.9c.1.3.3.5.6.7.2.2.6.3.9.3s.6-.1.9-.3.5-.5.7-.8v.9H30v-11h-2v8.6c0 .5-.4.8-.9.8-.4 0-.8-.4-.8-.8V4.3h-2.1v9.3c0 .3.1.7.2.9zm-7.9-6.2c0-1.1.1-1.9.3-2.5.2-.6.5-1.1.9-1.4.5-.4 1-.5 1.8-.5.6 0 1.1.1 1.5.3.4.2.8.5 1 .9s.4.7.5 1.1.1 1 .1 1.8v2.8c0 1 0 1.8-.1 2.2-.1.5-.3.9-.5 1.3-.3.4-.6.7-1 .9s-.9.3-1.4.3c-.6 0-1.1-.1-1.5-.3s-.7-.4-1-.8c-.2-.3-.4-.8-.5-1.2-.1-.5-.1-1.2-.1-2.2V8.3zm2.1 4.4c0 .6.5 1.1 1 1.1.6 0 1-.5 1-1.1V6.9c0-.6-.5-1.1-1-1.1-.6 0-1 .5-1 1.1v5.8zm-7.2 3h2.4V7.3L16.7 0H14l-1.5 5.4L11 0H8.3l3.1 7.2v8.5z"/>
</svg>
