<svg xmlns="http://www.w3.org/2000/svg" viewBox="0 0 80 80">
    <ellipse cx="33.2" cy="33.1" rx="32.9" ry="32.9" fill-rule="evenodd" clip-rule="evenodd" fill="#fff"/>
    <path d="M33.2 1.8c8.4 0 16.3 3.3 22.2 9.2 12.2 12.2 12.2 32.1 0 44.4-5.9 5.9-13.8 9.2-22.2 9.2-8.4 0-16.3-3.3-22.2-9.2-5.9-5.9-9.2-13.8-9.2-22.2 0-8.4 3.3-16.3 9.2-22.2 5.9-6 13.8-9.2 22.2-9.2m0-1.8c-8.5 0-17 3.2-23.5 9.7-12.9 12.9-12.9 33.9 0 46.8 6.5 6.5 14.9 9.7 23.4 9.7S50 63 56.5 56.5c12.9-12.9 12.9-33.9 0-46.8C50.1 3.2 41.6 0 33.2 0z" fill="#770a00"/>
    <path d="M14.7 76.1l-1.5-.7 3-6.2-2.7-1.3-3 6.2-1.5-.8 3.7-7.5 5.6 2.8c.1 0-3.6 7.5-3.6 7.5zm3.5-1.9c-.2.4-.2.9 0 1.3s.6.7 1 .9c.4.2.9.1 1.3-.1s.7-.6.9-1c.2-.6.2-1 0-1.3-.2-.4-.6-.7-1-.9s-.9-.1-1.3.1c-.5.1-.8.4-.9 1zm4.7 1.5c.3-.9.2-1.7-.1-2.5-.3-.8-1-1.3-1.9-1.6-.9-.3-1.7-.2-2.5.1-.8.3-1.3 1-1.7 1.8-.3.9-.3 1.7.1 2.5.3.8 1 1.3 1.9 1.7.9.3 1.7.3 2.5-.1.8-.3 1.3-1 1.7-1.9zm5.7 2.3c-.2 1.1-1.1 1.6-2.7 1.2l-2.6-.4 1.1-5.9 2.5.4c1.5.2 2 .9 1.8 2-.1.6-.4.9-1 1 .8.6 1 1 .9 1.7zm-1.4-2.8c.1-.4-.1-.7-.7-.8l-.8-.1-.2 1.2.8.1c.6.3.9 0 .9-.4zm-.2 2.4c.1-.4-.1-.8-.8-.9l-.9-.2-.2 1.3.9.2c.6.2.9.1 1-.4zm9.1 2.4l-1.6-.1.2-6 1.5.1-.1 6zm-2-2c0 .7-.3 1.1-.8 1.5-.4.2-1 .3-1.7.3l-2.4-.1.2-6 1.5.1-.1 2.2c.7 0 1.2.1 1.5.1 1.2.2 1.8.9 1.8 1.9zm-2.5-.8h-.7v1.3h.8c.6 0 .9-.2.9-.7-.1-.3-.4-.6-1-.6zm13.7 1.1l-1.1-5.9-1.5.2.9 4.7-1.9.3-.9-4.7-1.3.2.9 4.7-1.9.3-.9-4.7-1.5.2 1.1 5.9 8.1-1.2zm4.6-3.6l1.5-.4c-.1 1.5-.8 2.5-2.1 2.9-.9.3-1.7.2-2.5-.1s-1.2-1-1.6-1.9c-.3-.9-.2-1.7.1-2.5.3-.8 1-1.3 1.8-1.6.7-.2 1.2-.2 1.9-.1.6.2 1.1.6 1.6 1 .2.3.6.8.8 1.5l-4.6 1.7c.4.9 1.1 1.1 2 .8.3-.1.6-.2.8-.4.1-.2.3-.5.3-.9zm-.4-1.6c-.4-.8-1.1-1-1.9-.7-.8.3-1.2.9-1.1 1.8l3-1.1zm8.2.1L55 67.8l-1.3.7 1 2.1-2 1-1-2.1-1.3.7 2.7 5.4 1.3-.7-1.1-2.2 2-1 1.1 2.2 1.3-.7zm5.2-3.9l-1.2.9-1.5-2-1.8 1.3 1.5 2-1.2.9-3.6-4.8 1.2-.9 1.3 1.9 1.8-1.3-1.3-1.9 1.2-.9 3.6 4.8zm5.4-5.2l-4.1-4.4-1.1 1 .4.4c-.7-.1-1.3.1-1.9.7-.7.6-.9 1.3-.9 2.1s.3 1.6 1 2.2c.7.7 1.3 1 2.2 1 .8 0 1.6-.2 2.2-.9.6-.6.8-1.2.8-1.9l.4.6c.1.1 1-.8 1-.8zM65.2 63c-.3-.3-.8-.6-1.2-.6s-.9.1-1.2.4c-.3.3-.6.8-.6 1.2 0 .4.2.9.6 1.2.3.3.8.6 1.2.6.4 0 .9-.1 1.2-.4s.6-.8.4-1.2c0-.4-.1-.9-.4-1.2zm6.6-3.5l-.9 1.2-2-1.6.9 3-1 1.3-.8-2.8c-.8.7-1.6.8-2.4.1-.6-.3-.8-.9-.7-1.5 0-.4.2-1 .7-1.6l1.6-2 4.6 3.9zm-3.6-.9l-.4.7c-.3.6-.8.6-1.2.3-.3-.3-.3-.7 0-1.1l.6-.7 1 .8zm6-10c.9.4 1.5 1 1.7 1.8.2.8.2 1.6-.2 2.5-.4.9-1 1.5-1.9 1.7-.8.2-1.7.1-2.6-.3l-1-.4c-1.2-.6-2-1.2-2.5-2.1-.4-.9-.4-2 .1-3.1l.9-1.9 1.1.4-1 2.1c-.3.7-.3 1.2-.1 1.8s.7.9 1.3 1.2c-.3-.7-.3-1.3 0-2.2.3-.8.9-1.3 1.7-1.6.9-.4 1.7-.3 2.5.1zm.3 3.6c.2-.4.2-.9.1-1.3s-.4-.7-1-.9c-.4-.2-.9-.2-1.3-.1s-.8.4-.9.9c-.2.4-.2.9 0 1.3s.4.7 1 .9c1 .5 1.6.1 2.1-.8zm2-7.8c.2.2.4.4.6.7 0 .2 0 .4-.1.9-.2.9-.8 1.3-1.8 1.3l1.1-4.7c-.7-.1-1.2-.2-1.7-.2-.7.1-1.2.3-1.7.7-.4.4-.8.9-1 1.6-.2.9-.1 1.7.3 2.4.4.8 1.1 1.2 2 1.5.9.2 1.7.1 2.5-.3.7-.4 1.2-1.1 1.5-2 .3-1.3-.1-2.5-1.3-3.4-.1-.2-.4 1.5-.4 1.5zm-1.6-.7c-.9 0-1.5.4-1.7 1.2-.2.9.1 1.5.9 1.9l.8-3.1zm4.8-6.6l-.2 1.6-4.1.9 3.9 1.8-.1 1.5-5.7-2.9.1-1.5c0 .1 6.1-1.4 6.1-1.4zM80 31l-.1 1.5-3.9-.2 3.7 2.8v1.3l-5.9-.2.1-1.5 3.8.1-3.7-2.7v-1.3l6 .2zm-2.5-5.8c.6-.1 1.1.2 1.6.8.3.4.6 1 .7 1.7s0 1.2-.3 1.8c-.3.6-.8.9-1.5 1l-.2-1.5c.2 0 .4-.2.6-.4.1-.2.1-.4.1-.8-.1-.8-.3-1.1-.8-1.1-.3 0-.6.2-.6.7v1H76c0-.4-.1-.8-.2-.9-.1-.3-.3-.4-.7-.4-.4 0-.7.3-.6 1s.3.9.8.9l.1 1.5c-1.2 0-2-.7-2.1-2.1-.1-.7 0-1.2.2-1.7.2-.6.7-.8 1.2-.9.6-.1 1 .2 1.3.8.4-1 .8-1.4 1.5-1.4zm.2-6.3l-5.8 1.6.4 1.5 2.2-.7.6 2.1-2.2.6.4 1.5 5.8-1.6-.4-1.5-2.4.7-.5-2.1 2.4-.7c0 .1-.5-1.4-.5-1.4zm-2.9-6.8l.6 1.3-.7.3c.7.2 1.2.7 1.6 1.3.3.8.3 1.6.1 2.4-.3.8-.9 1.3-1.7 1.7-.8.3-1.6.4-2.4.1-.8-.2-1.3-.8-1.7-1.6-.3-.8-.3-1.5 0-2l-.6.2-.7-1.3c.1 0 5.5-2.4 5.5-2.4zm-2.1 2.5c-.4.2-.8.6-1 1-.2.4-.2.9 0 1.3s.6.8 1 .9c.4.1.9.1 1.3-.1s.8-.6 1-1c.2-.4.2-.9 0-1.3s-.6-.7-1-.9c-.4-.1-.9-.1-1.3.1zm-57.1 13h1.7c0 .7.3 1 .9 1 .6 0 .9-.2.9-.8 0-.3-.2-.6-.6-.8-.1-.1-.4-.2-.9-.4-.6-.2-1-.4-1.3-.7s-.4-.7-.4-1.2c0-.7.2-1.1.7-1.6.4-.4 1-.7 1.7-.7 1.5 0 2.2.7 2.4 2.1H19c0-.4-.2-.7-.8-.7-.4 0-.7.2-.7.7v.2c0 .1.1.1.2.2.2.1.6.3 1 .6.4.2.8.3 1 .4.3.2.6.6.8.9.1.2.2.6.2.9 0 .8-.2 1.3-.8 1.7-.4.3-1.1.4-1.8.4s-1.3-.2-1.8-.7c-.5-.2-.7-.8-.7-1.5zM28 29.8h-1.7V29c-.4.7-1 1-1.8 1-.9 0-1.6-.3-2-.9-.4-.6-.7-1.2-.7-2.1v-4.3h1.8v3.8c0 1.2.4 1.8 1.3 1.8s1.3-.7 1.3-2v-3.6H28v7.1c.1 0 0 0 0 0zm9-3.5c0 1-.3 1.9-1 2.6-.7.7-1.5 1.1-2.5 1.1-.9 0-1.7-.3-2.2-.9v3.8h-1.8V22.8h1.7v.9c.6-.7 1.3-1 2.2-1 1 0 1.9.3 2.6 1.1.6.6 1 1.5 1 2.5zm-1.7 0c0-.6-.2-1.1-.6-1.6-.3-.4-.9-.7-1.5-.7s-1 .2-1.5.7c-.3.4-.6.9-.6 1.5s.2 1.1.6 1.6c.3.4.8.7 1.5.7.6 0 1-.2 1.5-.7.4-.5.6-1 .6-1.5zm7.7 1.2h1.8c-.7 1.6-1.8 2.5-3.5 2.5-1.1 0-1.9-.3-2.7-1-.6-.8-.9-1.7-.9-2.7 0-1 .3-1.9 1-2.7.7-.7 1.6-1.1 2.6-1.1.8 0 1.5.2 2.1.7.6.4 1 1 1.3 1.8.2.4.2 1.1.2 1.9h-5.6c.2 1.1.9 1.7 2 1.7.4 0 .8 0 1-.1.4-.3.6-.5.7-1zm.4-2c-.2-1-.9-1.5-1.9-1.5s-1.7.4-1.9 1.5h3.8zm6.2-2.8v1.9c-.1-.1-.3-.1-.8-.1-.7 0-1 .4-1 1.3v3.9H46v-7.1h1.8v.8c.1-.2.3-.4.6-.7s.4-.2.7-.2c.2.2.4.2.5.2zM26.1 38.4l-2.4 7.1h-1.3l-1.2-4.7-1.3 4.7h-1.3l-2.2-7.1h1.8l1.2 4.5 1.3-4.5h1.2l1.3 4.5 1.2-4.5h1.7zm7.1 7h-1.8v-3.9c0-1.1-.4-1.8-1.2-1.8-.9 0-1.5.7-1.5 2v3.6h-1.8V34.9h1.8V39c.3-.6 1-.9 1.8-.9.9 0 1.5.2 1.9.8.4.4.7 1.1.7 2v4.5h.1zm3.1-8.4h-1.7v-1.7h1.7V37zm.1 8.4h-1.8v-7.1h1.8v7.1zm4.4-5.6h-1v5.6H38v-5.6h-.8v-1.3h.8v-2.4h1.8v2.4h1v1.3zm5.8 3.4h1.8c-.7 1.6-1.8 2.5-3.5 2.5-1.1 0-1.9-.3-2.7-1-.7-.7-1-1.6-1-2.7 0-1 .3-1.9 1-2.7.7-.7 1.6-1.1 2.6-1.1.8 0 1.5.2 2.1.7.6.4 1 1 1.3 1.8.2.4.2 1.1.2 1.9h-5.6c.2 1.1.9 1.7 2 1.7.4 0 .8 0 1-.1.5-.3.7-.6.8-1zm.3-2c-.2-1-.9-1.5-1.9-1.5s-1.7.4-1.9 1.5h3.8z" fill-rule="evenodd" clip-rule="evenodd" fill="#770a00"/>
</svg>
