<?xml version="1.0" encoding="utf-8"?>
<!-- Generator: Adobe Illustrator 23.0.4, SVG Export Plug-In . SVG Version: 6.00 Build 0)  -->
<svg version="1.1" id="Layer_1" xmlns="http://www.w3.org/2000/svg" xmlns:xlink="http://www.w3.org/1999/xlink" x="0px" y="0px"
	 viewBox="0 0 457.3 642.9" enable-background="new 0 0 457.3 642.9" xml:space="preserve">
<g>
	<rect x="0" y="269.9" fill="#E3C08A" width="457.3" height="373"/>
	<polygon fill="#C8A679" points="427.9,210.5 427.5,210.5 427.2,209.8 228.7,210.2 30.1,209.8 29.9,210.5 29.5,210.5 0,269.8 
		457.4,269.8 	"/>
	<rect x="196.7" y="269.9" fill="#F3F5FA" width="63.9" height="154.6"/>
	<polygon fill="#C7C8CC" points="251.8,210.2 247.7,210.2 209.6,210.2 205.5,210.2 196.7,269.8 260.6,269.8 	"/>
	<rect x="324.2" y="603.5" fill="#C2A077" width="106.4" height="20.9"/>
	<g>
		<g>
			<polygon fill="#C2A077" points="371.2,531.7 354.2,514.3 336.8,531.7 342.1,531.7 342.1,597.5 365.9,597.5 365.9,531.7 			"/>
			<polygon fill="#C2A077" points="417.9,548 405.1,534.9 392.1,548 396.1,548 396.1,597.5 414,597.5 414,548 			"/>
		</g>
	</g>
	<rect x="16.2" y="299.3" fill="#C2A077" width="73.1" height="14"/>
	<rect x="102.2" y="299.3" fill="#C2A077" width="55.9" height="14"/>
	<rect x="16.2" y="328.4" fill="#C2A077" width="40.8" height="14"/>
	<rect x="117.2" y="328.4" fill="#C2A077" width="40.8" height="14"/>
	<rect x="66.7" y="328.4" fill="#C2A077" width="40.8" height="14"/>
</g>
<g>
	<rect x="90" y="36.4" fill="#E3C08A" width="277.3" height="226.2"/>
	<polygon fill="#C8A679" points="349.5,0.4 349.2,0.4 349.1,0 228.7,0.2 108.3,0 108.2,0.4 107.9,0.4 90,36.4 367.3,36.4 	"/>
	<rect x="209.3" y="36.4" fill="#F3F5FA" width="38.8" height="93.8"/>
	<polygon fill="#C7C8CC" points="242.7,0.2 240.2,0.2 217.1,0.2 214.6,0.2 209.3,36.4 248.1,36.4 	"/>
	<rect x="286.6" y="238.7" fill="#C2A077" width="64.5" height="12.7"/>
	<g>
		<g>
			<polygon fill="#C2A077" points="315.1,195.2 304.8,184.6 294.3,195.2 297.5,195.2 297.5,235.1 311.9,235.1 311.9,195.2 			"/>
			<polygon fill="#C2A077" points="343.4,205 335.7,197.1 327.8,205 330.2,205 330.2,235.1 341,235.1 341,205 			"/>
		</g>
	</g>
	<rect x="99.9" y="54.3" fill="#C2A077" width="44.3" height="8.5"/>
	<rect x="152" y="54.3" fill="#C2A077" width="33.9" height="8.5"/>
	<rect x="99.9" y="71.9" fill="#C2A077" width="24.8" height="8.5"/>
	<rect x="161.1" y="71.9" fill="#C2A077" width="24.8" height="8.5"/>
	<rect x="130.5" y="71.9" fill="#C2A077" width="24.8" height="8.5"/>
</g>
</svg>
