<svg width="1000pt" height="1000pt" viewBox="0 0 1000 1000" xmlns="http://www.w3.org/2000/svg">
    <path fill="#d0d0d0" d="M328.98 93.92c6.15-5.14 16.36-4.53 21.67 1.55 2.59 2.83 3.94 6.68 3.85 10.49-.01 18.18.02 36.36-.01 54.54-10.33.03-20.66.03-30.98.01-.02-18.2-.01-36.4-.01-54.6-.13-4.56 1.92-9.12 5.48-11.99zM291.58 177.62c4.07-4.27 11.28-4.82 15.95-1.21 3.33 2.41 5.17 6.54 4.98 10.62-.02 76.33 0 152.65-.01 228.97-8.17.01-16.33.01-24.5.01-.01-75.65.02-151.3-.02-226.95-.26-4.08.5-8.52 3.6-11.44zM323.51 233.5c10.33.03 20.65.04 30.98 0 .02 60.84.01 121.67.01 182.5h-30.99c-.01-60.83-.02-121.66 0-182.5zM288 473.99c8.17 0 16.33 0 24.5.01 0 95.66.01 191.33-.01 287 .21 5.64-3.98 11.01-9.5 12.18-5.14 1.3-10.69-1.32-13.41-5.76-1.23-2.98-1.66-6.21-1.63-9.4.01-7.01.1-14.01.06-21.02-.02-87.67-.01-175.34-.01-263.01zM323.5 473.99c10.33.01 20.66.01 30.99.01.04 60.55-.04 121.1.04 181.65-.09 20.27.02 40.55-.05 60.83-10.32.05-20.65.05-30.97.03-.02-80.84-.01-161.68-.01-242.52zM323.51 789.5c10.33.04 20.65.03 30.98 0-.01 14.49.08 28.97-.05 43.45-.25 7.88-7.64 14.48-15.47 14.06-7.82.39-15.16-6.21-15.42-14.06-.12-14.48-.03-28.97-.04-43.45z"/>
    <path fill="#bbb" d="M320.01 160.49c1.16 0 2.33.01 3.5.02 10.32.02 20.65.02 30.98-.01 1.33 0 2.66-.01 4.01-.01.01 24.34.01 48.68 0 73.01h-4.01c-10.33.04-20.65.03-30.98 0H320c0-24.34-.01-48.67.01-73.01zM481.09 296.03c8.58-11.86 23.32-18.89 37.91-18.52 63.65 1.12 127.3 2.2 190.95 3.32 10.54.16 21.3 5.13 27.12 14.13 2.51 3.86 3.92 8.43 3.96 13.04.74 64.67 1.45 129.34 2.17 194 .22 20 .44 40 .67 60H387.11c29.15-83.7 58.31-167.4 87.46-251.1 1.82-5.09 3.23-10.47 6.52-14.87m26.2 11.28c-3.3 1.89-6.59 4.45-7.74 8.25-16 45.02-32.05 90.03-48.06 135.04-4.56 13.28-9.73 26.36-13.9 39.77-1.76 3.45-2.73 7.27-4.43 10.76-3.03 6.64-3.18 15.18 1.71 20.99 5.08 6.13 13.5 8 21.13 7.88 24.54-.23 49.08-.3 73.62-.63 10.67.04 21.34-.08 32.02-.22 8.95-.01 17.91-.04 26.86-.23 32.49-.1 64.97-.47 97.46-.68 11.72.02 23.64-5.14 30.75-14.63 4.03-5.26 6.13-11.92 5.78-18.55-.72-35.25-1.09-70.5-1.94-105.74.04-9.58-.25-19.16-.45-28.74-.12-10.74-.26-21.49-.59-32.23.01-4.46.07-8.93-.26-13.38-.3-3.11-2.72-5.48-5.19-7.1-5.35-3.4-11.83-4.4-18.06-4.39-27.09-.17-54.18-.59-81.27-.64-27.91-.44-55.82-.5-83.74-.84-8.16-.22-16.52 1.27-23.7 5.31zM275 416c4.33 0 8.67-.01 13 .01 8.17 0 16.33 0 24.5-.01 3.66-.01 7.33-.01 11.01 0h30.99c5-.01 10-.01 15 .01 0 19.32 0 38.65.01 57.98-5.01.01-10.01.01-15.02.01-10.33 0-20.66 0-30.99-.01-3.67.01-7.34.01-11 .01-8.17-.01-16.33-.01-24.5-.01-4.33.02-8.67.01-13 .01v-58zM320 716.5c1.17-.01 2.33-.01 3.51.01 10.32.02 20.65.02 30.97-.03 1.33 0 2.66.01 4 .05.05 21.67 0 43.33.02 65v7.97c-1.35-.02-2.68 0-4.01 0-10.33.03-20.65.04-30.98 0-1.17 0-2.35-.02-3.51 0-.01-24.33 0-48.67 0-73zM66 737h222.01c.04 7.01-.05 14.01-.06 21.02-.03 3.19.4 6.42 1.63 9.4C215.05 761.73 140.53 755.79 66 750v-13z"/>
    <path fill="#b1efe0" d="M507.29 307.31c7.18-4.04 15.54-5.53 23.7-5.31 27.92.34 55.83.4 83.74.84-5.27 6.66-11.63 12.33-17.24 18.69-48.87 51.77-97.63 103.65-146.52 155.41-4.19 4.74-8.5 9.39-13.38 13.43 4.17-13.41 9.34-26.49 13.9-39.77 16.01-45.01 32.06-90.02 48.06-135.04 1.15-3.8 4.44-6.36 7.74-8.25zM703.58 344.57c5.09-5.61 10.18-11.25 15.93-16.22.33 10.74.47 21.49.59 32.23-48.17 50.99-96.22 102.1-144.35 153.13-4.91 4.95-9.6 10.13-14.11 15.44-10.68.14-21.35.26-32.02.22 9.75-10.83 19.94-21.25 29.84-31.95 48.09-50.9 96.03-101.94 144.12-152.85zM703.57 406.55c5.47-5.93 10.81-12.01 16.98-17.23.85 35.24 1.22 70.49 1.94 105.74.35 6.63-1.75 13.29-5.78 18.55-7.11 9.49-19.03 14.65-30.75 14.63-32.49.21-64.97.58-97.46.68 3.37-4.09 7-7.97 10.77-11.7 34.76-36.9 69.48-73.83 104.3-110.67z"/>
    <path fill="#c7f3e9" d="M614.73 302.84c27.09.05 54.18.47 81.27.64 6.23-.01 12.71.99 18.06 4.39 2.47 1.62 4.89 3.99 5.19 7.1.33 4.45.27 8.92.26 13.38-5.75 4.97-10.84 10.61-15.93 16.22-48.09 50.91-96.03 101.95-144.12 152.85-9.9 10.7-20.09 21.12-29.84 31.95-24.54.33-49.08.4-73.62.63-7.63.12-16.05-1.75-21.13-7.88-4.89-5.81-4.74-14.35-1.71-20.99 1.7-3.49 2.67-7.31 4.43-10.76 4.88-4.04 9.19-8.69 13.38-13.43 48.89-51.76 97.65-103.64 146.52-155.41 5.61-6.36 11.97-12.03 17.24-18.69zM575.75 513.71c48.13-51.03 96.18-102.14 144.35-153.13.2 9.58.49 19.16.45 28.74-6.17 5.22-11.51 11.3-16.98 17.23-34.82 36.84-69.54 73.77-104.3 110.67-3.77 3.73-7.4 7.61-10.77 11.7-8.95.19-17.91.22-26.86.23 4.51-5.31 9.2-10.49 14.11-15.44z"/>
    <path fill="#a57742" d="M123 338h58.99c.03 17.83-.02 35.66.03 53.48 9.15.03 18.3.04 27.46 0 .06-17.83 0-35.65.03-53.48H269c0 46.17.01 92.34-.01 138.5H123.01c-.02-46.16-.01-92.33-.01-138.5zM109.5 598c19.67 0 39.34-.01 59 .01 0 17.82-.03 35.64.02 53.47 9.16.04 18.31.03 27.46.01.04-17.83.01-35.66.02-53.49 19.83-.01 39.67 0 59.5 0v139h-146V598z"/>
    <path fill="#eec38e" d="M181.99 338h27.52c-.03 17.83.03 35.65-.03 53.48-9.16.04-18.31.03-27.46 0-.05-17.82 0-35.65-.03-53.48zM78 524.99c25.15.06 50.3-.07 75.44.06.14 8.3.13 16.6 0 24.9-25.14.13-50.29-.01-75.44.06v-25.02zM168.5 598.01c9.17-.02 18.33-.01 27.5-.01-.01 17.83.02 35.66-.02 53.49-9.15.02-18.3.03-27.46-.01-.05-17.83-.02-35.65-.02-53.47z"/>
    <path fill="#d5a065" d="M78 476.5c15 0 30.01-.01 45.01 0h145.98c4.17-.01 8.34 0 12.51 0 .01 40.5-.01 80.99.01 121.49-8.67.02-17.34.01-26.01.01-19.83 0-39.67-.01-59.5 0-9.17 0-18.33-.01-27.5.01-19.66-.02-39.33-.01-59-.01H78v-47.99c25.15-.07 50.3.07 75.44-.06.13-8.3.14-16.6 0-24.9-25.14-.13-50.29 0-75.44-.06V476.5z"/>
    <path fill="#e3b026" d="M743.2 502c38.27 0 76.55-.01 114.82.01 9.99-.14 19.6 6.41 23.19 15.72 2.09 4.81 1.82 10.14 1.79 15.27.01 76.68-.02 153.36.01 230.04.16 4.79-.69 9.69-3.06 13.92-4.22 7.91-12.98 13.13-21.96 13.03-15.96.02-31.92.01-47.87.01-1.85-18.34-11.62-35.66-26.26-46.84-11.55-8.97-26.05-13.97-40.67-14.17 1.53-6.9 2.39-13.95 2.31-21.03-.55-48.65-1.07-97.3-1.63-145.96-.23-20-.45-40-.67-60zM453.34 675.4c31.64-12.23 69.05-7.95 97.01 11.28 28.76 19.16 46.92 53.1 46.65 87.69-6 .27-12.01.13-18.01.05-.33-15.61-4.77-31.13-12.92-44.46-9.72-16.06-24.64-28.89-41.96-36.1-16.65-6.98-35.42-8.65-53.06-4.88-19.38 4.05-37.22 14.92-49.86 30.15-11.72 13.96-18.96 31.6-20.38 49.77-.18 1.82-.38 3.63-.57 5.46-5.08.25-10.16.25-15.24.01.01-11.73 1.97-23.46 5.82-34.54 9.98-29.31 33.53-53.57 62.52-64.43zM665.86 778.43c3.6-.05 7.19-.09 10.79-.1-.8 2.81-1.4 5.67-1.87 8.56-3.56-2.14-6.62-5.02-8.92-8.46z"/>
    <path fill="#ffcc41" d="M387.11 562h356.76c.56 48.66 1.08 97.31 1.63 145.96.08 7.08-.78 14.13-2.31 21.03-13.93-.18-27.89 3.96-39.37 11.87-13.04 8.83-22.81 22.33-27.17 37.47-3.6.01-7.19.05-10.79.1-28.97.31-57.94.7-86.92 1.01.04-1.68.07-3.35.05-5.02 6 .08 12.01.22 18.01-.05.27-34.59-17.89-68.53-46.65-87.69-27.96-19.23-65.37-23.51-97.01-11.28-28.99 10.86-52.54 35.12-62.52 64.43-3.85 11.08-5.81 22.81-5.82 34.54 5.08.24 10.16.24 15.24-.01.19-1.83.39-3.64.57-5.46-.36 4.21-.38 8.44-.14 12.66-11.57.17-23.14.27-34.7.43-2.51.04-5-.14-7.47-.46-.02-21.67.03-43.33-.02-65-1.34-.04-2.67-.05-4-.05.07-20.28-.04-40.56.05-60.83 10.79-31.24 21.73-62.43 32.58-93.65z"/>
    <path fill="#42495d" d="M471.05 688.98c17.64-3.77 36.41-2.1 53.06 4.88 17.32 7.21 32.24 20.04 41.96 36.1 8.15 13.33 12.59 28.85 12.92 44.46.02 1.67-.01 3.34-.05 5.02-.53 15.51-5.18 30.85-13.43 44-9.95 16.01-25.1 28.72-42.61 35.7-20.24 8.15-43.49 8.46-63.96.9-27.28-9.86-48.89-33.83-55.76-62.02-1.34-5.4-2.2-10.91-2.51-16.46-.24-4.22-.22-8.45.14-12.66 1.42-18.17 8.66-35.81 20.38-49.77 12.64-15.23 30.48-26.1 49.86-30.15m12.42 58.7c-14.77 2.92-25.44 18.54-22.57 33.38 2.2 15.61 18.63 27.24 34.1 23.97 15.54-2.45 26.89-18.95 23.47-34.35-2.65-15.65-19.55-26.85-35-23zM703.82 740.86c11.48-7.91 25.44-12.05 39.37-11.87 14.62.2 29.12 5.2 40.67 14.17 14.64 11.18 24.41 28.5 26.26 46.84 1.36 12.76-.93 25.92-6.64 37.43-6.69 13.58-18.01 24.81-31.68 31.34-12.59 6.12-27.09 8.1-40.88 5.79-17.29-2.82-33.25-12.7-43.6-26.8-10.74-14.4-15.3-33.14-12.54-50.87.47-2.89 1.07-5.75 1.87-8.56 4.36-15.14 14.13-28.64 27.17-37.47m33.56 33.65c-7.68 1.6-14.32 7.36-16.96 14.75-2.74 7.27-1.45 15.87 3.3 22.02 5.03 6.76 13.93 10.37 22.25 8.92 8.2-1.25 15.42-7.27 18.16-15.09 2.94-7.92 1.05-17.35-4.72-23.53-5.41-6.05-14.11-8.82-22.03-7.07z"/>
    <path fill="#7d87a4" d="M483.47 747.68c15.45-3.85 32.35 7.35 35 23 3.42 15.4-7.93 31.9-23.47 34.35-15.47 3.27-31.9-8.36-34.1-23.97-2.87-14.84 7.8-30.46 22.57-33.38zM737.38 774.51c7.92-1.75 16.62 1.02 22.03 7.07 5.77 6.18 7.66 15.61 4.72 23.53-2.74 7.82-9.96 13.84-18.16 15.09-8.32 1.45-17.22-2.16-22.25-8.92-4.75-6.15-6.04-14.75-3.3-22.02 2.64-7.39 9.28-13.15 16.96-14.75z"/>
</svg>
