<svg width="1000pt" height="1000pt" viewBox="0 0 1000 1000" xmlns="http://www.w3.org/2000/svg">
    <path fill="#9eddcd" d="M443.94 191.05c68.08-12.43 140.22-1.78 201.51 30.46 21.72 11.31 42.06 25.24 60.59 41.24-25.27 5.06-46.22 29.04-45.15 55.24-.9 16.06 6.32 31.04 13.48 44.95-2.98-.48-5.89-1.46-8.9-1.64-5.53 2.07 1.72 8.73-2.78 11.37-4.96 1.93-10.54 2.27-15.76 1.34-.19-1.9-.36-3.79-.5-5.69-6.34.11-12.92-.69-18.91 1.86-1.47-2.33-3.72-4.82-2.61-7.78 2.29-11.16.29-23.92-8.78-31.58-4.91-1.7-10.3-.53-14.81 1.76.04-1.85.09-3.7.14-5.54-1.65-.61-3.29-1.21-4.93-1.8l.21-5.57c-1.39-.92-2.77-1.83-4.16-2.73 5.1-.17 4.63-5.28 4.18-8.96.74 1.52 1.48 3.05 2.2 4.6 1.42-.07 2.83-.14 4.26-.18a26.51 26.51 0 0 0-5.99-4.66c-.78-6.06-4.81-12.06-10.76-13.99-1.08 3.6-2.45 7.15-4.97 10.01 1.09-2.84 1.85-5.78 2.63-8.71-.73-.93-1.46-1.86-2.18-2.78.99-6.23-3.48-11.31-4.11-17.3-.48-3.96-2.13-7.62-4.5-10.8-3.7 2.56-7.32 5.24-10.9 7.97.69 3.65 1.82 7.21 3.6 10.49-1.66-.21-3.33-.4-4.98-.58.01.64.04 1.93.06 2.58.56.31 1.69.95 2.26 1.26-1.64 3.35-1.73 7.12 2.24 8.72.39.72.78 1.45 1.16 2.2.75 5.02 3.06 9.68 8.28 11.21 2.25 1.95 3.83 4.5 5.36 7.03-.38 1.93-.74 3.87-1.07 5.81 1.74.28 3.48.55 5.24.81-2.15 3.11-3.42 6.68-3.43 10.48-6.48-.44-8.58 7.62-14.9 7.56 1.72-3.38 3.43-6.76 4.71-10.33-.61.07-1.82.2-2.43.27-1.21 1.92-2.44 3.84-3.65 5.76-2.76.15-5.51.25-8.25.41-3.12 4.85-8.99 4.27-13.94 5.21-4.12 2.27-9.18 3.84-11.49 8.28-.83-.02-1.66-.04-2.48-.05-.94 2.95-1.38 6.06-.98 9.16-8.65 3.27-18.17-4.37-25.93 1.28.43 5.16-.53 11.81-7.41 9.8 1.58-2.32 2.92-4.82 3.53-7.58-1.38-.28-2.75-.56-4.11-.84-.25-1.87-.48-3.73-.7-5.6-1.91.81-3.84 1.6-5.76 2.37.03.66.06 1.32.1 1.99 3.66.77 5.86 3.37 6.29 7.05-2.31-.54-4.62-1.61-7.04-1.26-.93 2.95.18 6.05.31 9.05-1.31-.99-2.6-2.06-3.33-3.56-.04-1.74-.04-3.49-.04-5.23l-2.03.72c-.51 1.06-1.01 2.13-1.53 3.19a9.408 9.408 0 0 1-4.42 4.68c.19-6.18 7.64-9 7.2-15.21-1.04.03-2.08.07-3.11.12-.88 2.23-1.76 4.45-2.63 6.69-.55.22-1.66.65-2.21.86-.49-.24-1.46-.73-1.94-.97-.29-2.21-.67-4.41-1.12-6.59 1.04-5.3 1.32-11.32-1.01-16.26-3.06-2.76-5.39 1.82-7.99 2.92-6.99 2.54-8.71 11.42-15.77 13.86-2.9 1.32-7.95 1.67-7.71 5.92.13 5.25-4.85 8.05-7.87 11.56 1.44 5.1.9 10.41 1.63 15.62.16 2.65-2.83 3.65-4.83 4.47.35-6.99-3.33-12.63-6.17-18.59-.42-8.08-8.87-11.7-11.32-18.87-2.33-7.43-5.13-15.43-2.04-23.1 5.92-12.32 21.32-13.69 32.01-20.12 11.41-2.99 23.44-3.18 35.24-2.84 4.05.28 7.87-1.17 11.44-2.92.15-4.6-.25-9.32-1.94-13.64-2.2-3.75-6.6-.95-9.67-.2-6.81 2.26-12.62-3.44-19.34-3.37-6.42-1.41-12.49 1.6-18.83 1.83-4.24 5.09-10.6 8.33-17.21 8.73-.49 1.3-.97 2.6-1.43 3.9-4.38.44-9.83.22-12.64 4.27-2.76 4.36-9.44.75-12.44 4.37-1.67 7.13.76 14.41.84 21.61-.08 6.1 5.87 8.71 9.43 12.63-.81 6.63 2.87 14.03-1.04 20.05-3.16 1.65-7.04.69-10.48.86 1.59-2.01 2.98-4.2 3.62-6.72-9.07 1.87-13.7-6.64-21.24-9.56.66-1.85 2.97-3.79 1.99-5.8-2.99-2.26-7.22-.22-10.29-2.48 2.96-2.57 3.47-6.29 2.42-9.93-.07-3.87-1.76-11.02-7.09-8.54-6.33 3.31-2.03 10.28-2.52 15.65-3.7.04-7.4-.11-11.08-.42.07-3.86.05-7.72-.38-11.55.27-5.68-4.38-9.34-6.03-14.37-.73.12-1.46.25-2.18.37 1.49 7.42-5.71 9.46-10.59 12.6-1.65 4.74-4.7 8.94-10.01 9.74a74.83 74.83 0 0 1-1.75-9.24c1.28-.06 2.55-.13 3.83-.22 1.46-1.91 3.06-3.72 4.25-5.82 3.39-7.02.59-14.96 2.33-22.32 1.53-6.67-.56-13.23-1.59-19.75 1.72-5.78 1.34-12.2-1.59-17.51-6.72-5.16-16.03-8.58-24.11-4.54-2.99 3.53-2.56 9.6-7.13 11.93-2.69.27-5.39-.51-8.08-.2-5.08 2.9-7.42 9.66-13.49 10.89 45.46-48.29 106.61-81.57 171.92-93.23m116.81 72.7c-.12.9-.24 1.8-.35 2.71 1.09.02 2.18.06 3.29.09-.02-1.07-.03-2.14-.03-3.21-.98.14-1.95.27-2.91.41m40.45 54.47c.05.57.16 1.72.21 2.3h2.16c.03-.56.11-1.68.14-2.23-.62-.02-1.88-.06-2.51-.07m-35.44 4.51c-.13.95-.24 1.9-.35 2.86 1.26-.1 2.54-.21 3.81-.33.12-.97.25-1.94.39-2.91-1.3.11-2.58.24-3.85.38m-80.35 27.53c0 .56-.02 1.69-.02 2.25 1.49.06 2.98.12 4.48.19-.14-.54-.42-1.6-.57-2.13-1.3-.14-2.6-.24-3.89-.31m-6.1 3.11c-.05.62-.14 1.88-.18 2.5.66-.02 1.97-.07 2.63-.09l-.12-2.38c-.58-.01-1.75-.03-2.33-.03z"/>
    <path fill="#9eddcd" d="M289.26 314.03c1.99-5.55 1.96-11.68 4.95-16.88 1.15 7.62.76 15.71 4.77 22.6.01 3.48.76 7.13 4.15 8.86-6.59-1.08-8.59 5.44-11.13 9.94-3.92-4.82-2.85-12.46-4.64-18.43-6.45-2.13-10.21 5.21-6.38 10.09-1.77.37-3.5.87-5.2 1.47-.07-2.6-.1-5.2-.1-7.8 3.22-4.74 7.55-9.23 13.58-9.85zM335.92 341.44c2.65-1.03 4.96.43 7.04 1.98-1.7 3.8-5.53 5.55-8.54 1.92l1.5-3.9zM497.66 372.71c1.48.11 2.96.1 4.44-.02-.07 3.38-.2 6.93 1.74 9.89-4.91-.46-5.63-5.99-6.18-9.87zM452.26 411.11c.09-5.94 2.66-11.32 4.83-16.71-.03 2.06.06 4.11.12 6.18.51.4 1.55 1.19 2.07 1.59-.62.97-1.26 1.92-1.92 2.87-5.43 3.73-1.01 13.8-9.5 14.16 2.23-2.19 4.49-4.75 4.4-8.09zM713.51 625.21c9.61-8.69 23.31-7.23 35.2-7 4.69 4.27 10.06 8.31 13.16 13.98 1.6 5.07 5.66 8.4 10.15 10.9.41 1.29.84 2.59 1.29 3.88.61 1.78 1.25 3.56 1.89 5.35-29.54 53.9-75.58 98.53-130.1 126.85-62.13 32.58-135.35 42.99-204.18 29.72-52.64-9.97-102.47-33.92-143.38-68.49 1.44-1.64 2.51-4.76 5.22-4.08 4.76.77 9.69-.85 14.32.52 2.5 2.39 5.07 4.81 8.72 5.06 2.29-1.99 4.4-4.39 7.26-5.53 3.65 1.01 6.84 4.19 10.85 3.62 5.29-1.55 10.32-4.77 16.07-4.09 3.35-.02 8.8 1.46 9.54-3.2 1-4.98 4.81-8.29 9.28-10.24.59-5.57-.29-11.37 2.01-16.66.5-1.42 1.02-2.83 1.54-4.23 6.85-1.7 12.57 2.23 18.76 4.16.56-2.26 1.11-4.52 1.83-6.73 2.72-5.57 5.9-11.01 10.86-14.88 4.67 4.36 11.73 7.55 18.12 5.93 6.48-1.71 3.5-11.72 9.87-13.37 3.09-.81 5.1-3.33 7.47-5.26 4.04-.98 8.79 1.06 12.23-1.97 3.65-3.53 9.34.51 12.98-3.03 4.06-3.41 9.51-3.82 14.27-5.77 7.47-2.87 15.37.39 22.33 3.2.73 8.57 9.71 9.1 16.32 9.83 4.75 2.58 10.4 2.74 14.97-.43 1.12-2.32.18-4.99.06-7.43-.32-2.52-.68-5.03-1.24-7.5 2.41-3.36 5.55-6.07 8.99-8.32 7.36 3.27 14.77 6.49 22.3 9.31.04.22.12.68.17.91-.28 8.85 7.5 14.01 15.25 15.48 8.82-3.13 19.11-4.31 27.53.66 5.42.98 6.55 8.44 12.48 8 6.96.1 14.61 2.39 21-1.36 4.13-1.61 9.2-1.08 12.56-4.46 3.99-3.01 6.47-8.61 11.51-9.78 8.61 4.29 18.48 4.11 27.87 4.02 5.76-2.78 12.34-7.75 9.21-14.99.06-.57.17-1.72.23-2.29.88-5.19 2.84-10.09 5.79-14.44 2.08-2.53-.39-5.39-1.07-7.96-.6-2.62-.98-5.27-1.49-7.89z"/>
    <path fill="#e3b026" d="M932.26 235.69l3.07-.08c.03 1.28.07 2.57.12 3.86a253 253 0 0 0 2.91 2.57l-.12 2.99c-1.69-2.79-3.64-5.39-5.72-7.88l-.26-1.46zM932.26 237.63zM930.31 238.97zM927.34 239.86c.49-1.66 1.48-1.96 2.97-.89-.9.66-1.89.96-2.97.89zM919.76 242.55c.87-2.37 4.1-2.13 6.18-2.65-1.4 2.06-3.92 2.39-6.18 2.65zM919.09 243.06zM918.62 243.78c.12-.18.35-.54.47-.72-.12.18-.35.54-.47.72zM916.23 249.14c-.15-1.9.19-4.84 2.39-5.36-.23 2-.93 3.93-2.39 5.36zM938.24 245.03c.61 2.32 1.18 4.67 1.5 7.06-1.27-2.15-1.68-4.6-1.5-7.06zM914.09 250.11l2.14-.97-2.14.97zM860.26 250.67l1.1-.82c1.41 6.12-1.72 11.56-4.14 16.83-3.12.53-4.85-2.78-5.32-5.36.06-.63.18-1.9.23-2.53 1.23-.01 2.45-.03 3.7-.03 1.58-2.64 3.05-5.34 4.43-8.09zM916.2 253.16c-1.92 1.47-4.91-2.24-2.11-3.05.71 1 1.37 2.05 2.11 3.05zM939.74 252.09c.47.15 1.4.44 1.87.59-.47-.15-1.4-.44-1.87-.59zM941.61 252.68c1.31.95 1.8 2.44 2.18 3.95 1.85-.03 3.7-.14 5.57-.17-.03 1.99-.03 3.99-.01 5.98l-1.93.27c.29-1.68.55-3.36.8-5.04-1.83-.07-3.64-.15-5.45-.23-.41-1.59-.8-3.17-1.16-4.76zM947.28 262.9zM937.19 269.25c3.06-2.58 6.56-4.51 10.09-6.35 1.08.58 2.17 1.17 3.27 1.77-.05 1.58-.05 3.16-.04 4.74-3.34 4.2-9.78 3.97-12.06 9.26-3.66.18-8.15-2.96-10.56 1.21-2.13 4.85-4.57 9.85-2.7 15.28-1.85-4.58-3.43-10.52-9.13-11.43-3.43-.34-4.11-3.7-3.48-6.53 2.57 1.28 5.15 3.94 8.27 2.88 4.14-1.37 3.88-6.8 6.92-9.29 3-1.18 6.83.87 9.42-1.54zM322.88 273.22c1.36.34 2.71.7 4.06 1.08-.04 1.93-.13 3.87-.17 5.8-3.79.21-5.77-3.77-3.89-6.88zM860.63 275.35c.11-.09.34-.27.45-.36-.11.09-.34.27-.45.36zM860 276.01c.16-.16.47-.49.63-.66-.16.17-.47.5-.63.66zM859.4 276.81l.6-.8-.6.8zM857.94 279.01c.37-.55 1.09-1.65 1.46-2.2-.37.55-1.09 1.65-1.46 2.2zM857.73 279.37c.05-.09.16-.27.21-.36-.05.09-.16.27-.21.36zM851.88 287.49c1.09-2.8 3.27-4.9 5.29-7.03-1.09 2.8-3.02 5.1-5.29 7.03zM118.96 288.8c-2.14-.61-1.32-7.16.36-4.15-.09 1.38-.26 2.76-.36 4.15zM119.32 284.65c1.97 0 3.9-.39 5.76-1.04.39.67 1.18 2.02 1.57 2.7-2.43-.61-4.88-1.12-7.33-1.66zM126.65 286.31c-.03.52-.09 1.56-.13 2.08.04-.52.1-1.56.13-2.08zM563.38 285.89c.3.19.91.55 1.22.74.48 2.64.65 5.32 1.02 7.98-3.97-1.6-3.88-5.37-2.24-8.72zM849.73 288.54c.53-.26 1.61-.79 2.15-1.05-.54.26-1.62.79-2.15 1.05z"/>
    <path fill="#e3b026" d="M126.52 288.39c1.69-.47 2.46.16 2.31 1.89-1.07-.28-1.84-.91-2.31-1.89zM848.98 289.22zM118.96 288.8c.66 1.94 1.16 3.94 1.28 6-2.18-.64-2.15-4.27-1.28-6zM848.15 289.99c.21-.19.62-.58.83-.77-.21.19-.62.58-.83.77zM128.83 290.28l2.03.8-2.03-.8zM847.29 290.62c.21-.16.65-.47.86-.63-.21.16-.65.47-.86.63zM130.86 291.08c2.18.85 1.66 4.27 1.22 6.15-1.56-1.61-1.17-4.11-1.22-6.15zM846.79 290.9zM292.35 291.6c.76 1.79 1.59 3.59 1.86 5.55-2.99 5.2-2.96 11.33-4.95 16.88-6.03.62-10.36 5.11-13.58 9.85-.57 1.69-1.04 3.41-1.53 5.12-.41-5.86-1.24-12.92 3.52-17.32 2.73-3.28 7.15-4.11 10.38-6.66 2.14-4.21 2.25-9.15 4.3-13.42zM848.02 299.13c-1.84-2.22-6.08-6.49-1.23-8.23-.2 1-.59 3-.79 4 3.14 4.05 12.98 4.57 10.26 11.35-3.47 2.82-9.4 2.2-13.25.15l.78-.94c1.03.63 2.07 1.27 3.19 1.79.75-.17 2.26-.51 3.02-.68-.8-1.07-1.61-2.13-2.41-3.18-.78.14-1.55.29-2.3.46-.19-.78-.57-2.34-.76-3.11 1.15-.55 2.31-1.08 3.49-1.61zM577.05 301.92c4.63-.53 4.13-6.24 4.9-9.65.72.92 1.45 1.85 2.18 2.78-.78 2.93-1.54 5.87-2.63 8.71-.97 1.64-1.85 3.33-2.68 5.04-1.27-.25-2.53-.49-3.76-.78-5.22-1.53-7.53-6.19-8.28-11.21 3.59 1.36 6.75 3.59 10.27 5.11zM120.24 294.8c.54.9.85 1.88.91 2.95-1.76-.49-2.07-1.47-.91-2.95zM925.19 295.16c1.3 2.22 1.23 4.84 1.41 7.33 2.64.5 6.35-.87 8.18 1.46-3.17-.05-6.34-.13-9.5-.23-.15-2.85-.13-5.71-.09-8.56zM121.15 297.75c1.27 1.68 2.32 3.67 1.8 5.86-1.65-.75-2.53-4.11-1.8-5.86zM133.03 299.42c1.87-.46 1.88 3.59 0 3.12a7.14 7.14 0 0 1 0-3.12z"/>
    <path fill="#e3b026" d="M840.83 301.4c.01-1.68 3.71-2.63 3.7-.66-1.23.28-2.46.5-3.7.66zM840.1 302c.18-.15.55-.45.73-.6-.18.15-.55.45-.73.6zM839.51 302.79c.14-.2.44-.59.59-.79-.15.2-.45.59-.59.79zM839.21 304.7c-1.43-.65-1.33-1.29.3-1.91-.08.47-.22 1.43-.3 1.91zM122.95 303.61c.75.52 1.5 1.04 2.26 1.56 2.93-.98 5.91-.75 8.4 1.16l.84.69c.04 1.58-.34 3.11-.92 4.58-1.63-.1-3.27-.18-4.91-.25-.27 3.14-.87 6.23-1.56 9.3-.68-1.12-1.35-2.24-1.94-3.4 1.08-1.34 1.96-2.81 2.76-4.33-1.19-.46-2.39-.9-3.6-1.32l-1.1-.16c.29-.62.88-1.86 1.17-2.48-.52-1.77-.99-3.55-1.4-5.35zM473.05 308.1c4.67.35 8.87-2.09 13.05-3.81.41 2.25.86 4.5 1.38 6.74-3.57 1.75-7.39 3.2-11.44 2.92-11.8-.34-23.83-.15-35.24 2.84-10.69 6.43-26.09 7.8-32.01 20.12-.86 1.39-1.79 2.73-2.74 4.06.16-6.04 1.38-12.68 5.73-17.17 7.68-5.67 17.1-8.15 25.47-12.58 4.09-2.43 9.15-1.09 13.37-3.24 7.22-3.16 14.98-.2 22.43.12zM935.49 304.72l.16.16-.16-.16zM839.21 304.7c.98 2.55 1.37 5.51-.64 7.71.37-2.55-.38-5.32.64-7.71zM935.65 304.88c4.05 1.44 8.26-1.21 12.38.77-3.54.26-7.09.44-10.6.95a293.9 293.9 0 0 1-1.78-1.72zM245.13 309.08zM583.24 312.28c4.44-1.62 9.16-2.42 13.52-4.3.45 3.68.92 8.79-4.18 8.96-4.1 1.04-8.19 2.09-12.25 3.24.79-2.68 1.25-5.58 2.91-7.9zM244.61 309.45c.13-.09.39-.28.52-.37-.13.09-.39.28-.52.37zM943.7 318.61c2.74-2.89 6.33-5.36 6.88-9.65 1.08 1.58.6 3.34.13 5.05 5.17 5.49-1.94 9.19-6.33 11.46.47 14.37-.61 28.86 1.63 43.05-4.55-13.05-2.09-27.01-2.76-40.5-.01-3.13-.48-6.38.45-9.41zM837.89 313.27zM325.94 313.01c.54 4.25.38 8.54-.26 12.77-1.19 2.1-2.79 3.91-4.25 5.82-1.28.09-2.55.16-3.83.22-4.86-.88-9.63-2.2-14.47-3.21-3.39-1.73-4.14-5.38-4.15-8.86 4.55 3.58 10.05 6.62 16.06 5.51 6.34-.31 9.48-6.9 10.9-12.25zM837.03 314.14zM836.07 315.06l.96-.92-.96.92zM835.12 315.96c.24-.22.71-.68.95-.9-.24.22-.71.68-.95.9zM834.25 316.76c.22-.2.65-.6.87-.8-.22.2-.65.6-.87.8zM833.55 317.44c.17-.17.53-.51.7-.68-.17.17-.53.51-.7.68zM831.41 318.62c.54-.3 1.6-.89 2.14-1.18-.54.29-1.6.88-2.14 1.18zM829.33 319.67c.06-.06.16-.17.22-.22-.06.05-.16.16-.22.22z"/>
    <path fill="#e3b026" d="M127.06 320.65c1.14-1.05 4.11-.01 3.57 1.75-1.35-.07-2.94-.41-3.57-1.75zM827.4 322.15c.1-.13.28-.38.38-.51-.1.13-.28.38-.38.51zM130.63 322.4c1.51.7 2.7 2.36 4.48 2.85-2.37 1.76-4.88-.06-4.48-2.85zM138.27 322.82c-.12-1.78 3.66-1.83 3.41.02-1.14.19-2.27.19-3.41-.02zM826.9 322.85c.12-.17.38-.53.5-.7-.12.17-.38.53-.5.7zM135.11 325.25c-.21-1.5 1.75-3.29 3.16-2.43-.64 1.23-1.87 2.02-3.16 2.43zM141.68 322.84c1.53-.68 3.34 1.2 3.34 2.71-1.33-.58-2.67-1.38-3.34-2.71zM826.42 323.62c.12-.19.36-.58.48-.77-.12.19-.36.58-.48.77zM150.35 324.89c.05-2.01 3.56-1.11 3.88.43-1.31-.06-2.6-.2-3.88-.43zM795.99 327.83c3.85-4 12.34-5.36 16.2-1.2-5.24-2.65-11.14-.92-16.2 1.2zM824.99 325.48c.36-.46 1.07-1.4 1.43-1.86-.36.46-1.07 1.4-1.43 1.86zM145.02 325.55c.16.08.48.23.64.31-.16-.08-.48-.23-.64-.31zM145.66 325.86c1.42-.61 3.12-1.33 4.69-.97-.87 1.91-3.12 2.19-4.69.97zM154.23 325.32c.19.2.56.61.75.81-.19-.2-.56-.61-.75-.81zM167.13 326.07c.07-.06.22-.2.29-.26-.07.06-.22.2-.29.26zM154.98 326.13zM166.86 326.37c.06-.08.2-.22.27-.3-.07.08-.21.22-.27.3zM812.19 326.63zM819.75 331.01c2.52-1.01 4.39-2.93 5.24-5.53-.35 1.48-.68 2.96-1.03 4.45-1.41.35-2.83.71-4.21 1.08zM155.78 326.79c.17.16.51.48.68.63-.17-.15-.51-.47-.68-.63zM158.31 328.92c3.05-.03 6.19-.39 8.55-2.55-1.77 3.42-5.24 3.92-8.55 2.55zM795.54 328.32c.11-.12.34-.36.45-.49-.11.13-.34.37-.45.49zM812.43 327.21zM156.46 327.42c.47.38 1.39 1.13 1.85 1.5-.46-.37-1.38-1.12-1.85-1.5zM794.86 329.1zM812.73 328.01zM794.04 330.02c.21-.23.61-.69.82-.92-.21.23-.61.69-.82.92zM793.18 330.99c.21-.24.65-.73.86-.97-.21.24-.65.73-.86.97zM814.13 330.34zM792.4 331.97zM814.61 331.04c1.45.2 3.21-.02 4.51.73-1.14 2.31-3.82 1.4-4.51-.73zM790.43 334.28zM343.92 336.46c1.4-1.26 2.81-2.51 4.24-3.74-.16 3.27-.72 6.5-1.38 9.69-1.28.33-2.55.67-3.82 1.01-2.08-1.55-4.39-3.01-7.04-1.98l-1.5 3.9c-2.01-2.74-1.19-6.61.93-9.02 2.47-2.06 5.8-.29 8.57.14zM789.61 335.06c.21-.19.61-.59.82-.78-.21.19-.61.59-.82.78zM788.93 335.89zM788.51 336.76zM786.64 340.18c-.42-1.71.2-2.85 1.87-3.42a7.209 7.209 0 0 1-1.87 3.42zM360.94 344.98c-2.22-5.68 3.79-7.52 8.29-7.4-.33 2.31-.62 4.63-.87 6.96-2.48.1-4.95.26-7.42.44zM394.82 338.53c5.04 2.15 10.36 5.6 12 11.13-.86.49-1.72.99-2.57 1.5-3.56-3.92-9.51-6.53-9.43-12.63zM786.2 340.74l.44-.56-.44.56zM784.25 342.22c.49-.37 1.46-1.11 1.95-1.48-.49.37-1.46 1.11-1.95 1.48zM783.86 342.29c.1-.02.29-.05.39-.07-.1.02-.29.05-.39.07zM608.16 369.09c4.95-6.25 10.5-11.97 15.7-18.01.87 2.86 2.24 7.97-1.88 8.77-4.26.56-3.72 6.51-7.96 7.05-3.26.35-1.56 3.78-1.4 5.85-3.77 2.81-7.75 5.81-12.61 6.21.13-4.9 5.57-6.44 8.15-9.87zM58.3 356.27c2.85 3.03 5.75 6.08 9.38 8.2-.27 2.11-.53 4.21-.78 6.32-.66-.58-1.31-1.16-1.95-1.75-2.76-4.17-8.3-6.98-6.65-12.77zM462.43 371.92c.23-5.67 6.53-8.23 9.44-12.54.45 2.18.83 4.38 1.12 6.59-5.29 2.21-8.46 7.36-8.61 13.02.12 6.19-5.43 9.95-7.29 15.41-2.17 5.39-4.74 10.77-4.83 16.71.09 3.34-2.17 5.9-4.4 8.09-5.04 3.56-13.43 10.41-18.98 5.1 7.98-5.74 17.77-9.43 22.81-18.45-4.92-13.01 11.42-21.4 10.74-33.93zM481.63 366.61l2.03-.72c0 1.74 0 3.49.04 5.23-1.2-.45-2.41-.89-3.6-1.32.52-1.06 1.02-2.13 1.53-3.19zM946.01 368.52l.84 1.96-.84-1.96zM946.85 370.48c1.46.65 1.39 1.23-.18 1.76.04-.44.14-1.32.18-1.76zM946.35 372.52l.32-.28-.32.28zM934.08 378.01c2.08-4.85 7.9-4.63 12.27-5.49.39 2.91 2.91 5.09 2.46 8.2-5.66-2.27-11.07-.43-14.27 4.73-.88 4.8-1.48 9.65.23 14.36-2.6.49-4.35-1.18-5.89-2.99-1.55 3.18-1.01 6.56.14 9.78-1.21.01-2.4.02-3.59.04-.18 1.62-.35 3.24-.52 4.86-3.49-4.57-3.45-10.63 1.71-13.91.14-2.39.25-4.77.38-7.15 1.76.87 3.51 1.74 5.29 2.61 1.51-4.9.26-10.19 1.79-15.04zM898.39 386.61c-4.02-3.12-2.15-9.41 2.91-9.78.04 2.51.1 5.02.23 7.53-1.05.75-2.1 1.5-3.14 2.25zM56.26 383.86zM54.31 385.05l1.95-1.19-1.95 1.19zM48.76 387.64c.58-2.07 3.58-3.47 5.55-2.59a23.998 23.998 0 0 1-5.55 2.59zM902.69 385.56c3.4 3.8 8.04 7.88 7.92 13.39-1.77 10.57 2.29 20.96 1.19 31.58-2.06-2.39-.99-5.72-1.22-8.57.28-7.46-3.36-14.75-.96-22.1-2.41-2.38-3.6-7.66-7.72-6.95-.48-.95-.9-1.91-1.36-2.84.72-1.5 1.46-2.99 2.15-4.51zM48.02 388.02zM47.24 388.6c.2-.14.59-.44.78-.58-.19.14-.58.44-.78.58zM44.9 390.32zM44.07 391.05zM43.39 391.79zM42.89 396.83c-1.92-.82-1.33-4.38.5-5.04-.22 1.67-.4 3.35-.5 5.04zM901.7 393.27l.2-.36-.2.36z"/>
    <path fill="#e3b026" d="M900.42 395.73c.32-.62.96-1.85 1.28-2.46-.08.8-.25 2.4-.34 3.2 1.24.83 2.48 1.65 3.74 2.48-.93 1.19-1.68 2.5-2.63 3.66-.52 6.1 1.37 12.65-1.28 18.39-1.03-.77-2.05-1.53-3.05-2.29-5.12 1-5.2-4.9-7.69-7.69-.73 2.16-2.12 3.78-4.54 3.86-2.67 4.56-8.1 7.86-6.17 13.89-3.09-7.96-.08-18.67 8.62-21.25 3.89 1.14 8.21 7.17 12.43 4.24-.06-5.31 2.83-11.19-.37-16.03zM42.89 396.83c.03.09.08.28.11.37-.03-.09-.08-.28-.11-.37zM44.44 403.75c-1.72.37-2-3.54-.32-3.36.44 1.08.55 2.2.32 3.36zM44.97 402.11c3.83.17 7.76-.37 11.35 1.36 5.78 1.26 12.75 1.7 15.4 8.02-2.2 1.98-4.23 4.38-4.21 7.52-.34-1.87-.69-3.73-.97-5.61-3.63-1.67-8.17.24-11.16-2.86-2.22-2.49-4.99.28-7.11 1.46-.76-2.99-3.12-5.36-3.83-8.25.17-.55.35-1.1.53-1.64zM459.28 402.17c6.43-1.4 11.9 5.09 10.84 11.19-2.03-2.17-3.88-4.51-5.41-7.06-2.46-.4-4.91-.8-7.35-1.26.66-.95 1.3-1.9 1.92-2.87zM929.6 408.25c-.32-2.05 3.7-3.89 4.1-1.27-1.36.48-2.73.89-4.1 1.27zM933.7 406.98c1.69-.15 2.42 3.67.48 3.54-.27-1.18-.44-2.36-.48-3.54zM930.7 418.28c.93-3.52-1.77-6.56-1.1-10.03.62 4.15 2.19 8.35 6.32 10.08-.29 1.82-.58 3.64-.78 5.48a95.74 95.74 0 0 1-3.64-4.46c-.2-.27-.6-.81-.8-1.07zM924.91 411.5c1.8.28 2.1 1.14.91 2.57-.64-.74-.95-1.6-.91-2.57zM934.1 412.31c.3.28.89.85 1.19 1.13-1.31.8-1.71.42-1.19-1.13zM925.82 414.07c2.91 1.09 1.38 5.1 2.04 7.45-.6-2.51-1.33-4.98-2.04-7.45zM927.86 421.52c1.72.28 2.09 1.22 1.12 2.82-.7-.82-1.08-1.76-1.12-2.82z"/>
    <path fill="#e3b026" d="M935.14 423.81c1.31-.97 4.69-.57 4.46 1.5-1.6.07-3.4-.21-4.46-1.5zM928.98 424.34c.33.5.98 1.5 1.31 2-.33-.5-.98-1.5-1.31-2zM939.6 425.31c2.28-.06 2.45 3.5 2.7 5.23-1.66-1.24-2.9-3.1-2.7-5.23zM930.29 426.34c.12.12.35.35.47.46-.12-.11-.35-.34-.47-.46zM930.76 426.8c.69.18 2.07.53 2.76.7-.12 1.89-2.35.17-2.76-.7zM942.3 430.54zM912.16 431.37c1.13 1.86 1.12 4.06.67 6.13-1.91-.76-1.49-4.5-.67-6.13zM942.92 431.09zM943.55 431.67c.53.36 1.58 1.06 2.11 1.42-.53-.36-1.58-1.06-2.11-1.42zM945.66 433.09c1.36-.97 4.89-1.18 5.07 1-1.73-.17-3.43-.49-5.07-1zM950.73 434.09c.49.16 1.45.49 1.93.65-.48-.16-1.44-.49-1.93-.65zM952.66 434.74c2.66 1.29 2.14 4.53.67 6.52.75.78 1.51 1.56 2.29 2.35.04 1.2.06 2.41.06 3.62-1.67.62-2.87 1.6-1.96 3.54-3.51-3.27-3.77-8.3-5.21-12.6 1.55.54 3.1 1.07 4.66 1.61-.18-1.68-.36-3.37-.51-5.04zM76.47 436.96c4.37 3.55 10.22 3.91 14.91 6.69 6.65 5.98 15.71 9.83 19.83 18.21-4.21-.82-8.23-2.39-12-4.4-.58 2.42-.43 7.56-4.28 5.5.62-.21 1.87-.62 2.49-.83.02-2.26.06-4.52.14-6.77-3.07-3.22-6.56-6.2-11.05-7.08-4.74-.93-7.03-5.54-8.75-9.56-.48 3.74-1.7 7.6-.39 11.32-3.68-3.48-1.24-8.8-.9-13.08zM58.57 443.4c8.47 1.33 12.74 9.85 20.17 13 .52-.62 1.56-1.84 2.08-2.45.65 1.46 1.16 2.98 1.68 4.51-1.1.03-2.2.07-3.3.11-.5 1.68-1.01 3.36-1.45 5.07-2.47-1.15-3.5-3.62-4.72-5.84-4.79-1.86-7.84-6.8-13.49-6.49-2.36-2.23-2.28-5.12-.97-7.91zM910.53 447.53c.7-.78 1.43-1.55 2.16-2.32-.32 2.59-1.44 4.97-2.37 7.38.02-1.7.12-3.38.21-5.06zM886.93 450.13zM886.51 450.44c.1-.08.31-.23.42-.31-.11.08-.32.23-.42.31zM953.72 450.77zM872.03 467.53c7.35-3.67 7.57-13.26 14.48-17.09-.1.73-.31 2.2-.41 2.93 1.48 0 2.98.02 4.48.06.01.54.01 1.63.02 2.17-1.86 1.64-3.42 3.59-4.51 5.83-1.1.07-2.19.15-3.26.23-.58 5.61-5.77 8.56-8.29 13.21-3.68-.13-4.18-4.02-1.76-6.3-1.78-.72-3.92-2.09-5.51-.29-2.87 2.65-7.16 2.5-9.97 5.16.04 2.03.44 4.02 1.55 5.76-1.2 1.49-3.14 1.41-4.86 1.62-1.79 2.98-4.78 4.61-8.17 5.05-.49 1.54-.98 3.08-1.46 4.63-9.16.29-20.23 7.14-20.52 17.5.35 4.2-3.28 7.45-2.36 11.68.67 6.2-2.15 11.91-4.77 17.3-.06 6.57-.64 13.28-4.02 19.1l1.36 1.04.28 1.48c-.65-.06-1.95-.19-2.6-.25-.73 2.09-3.12 5.7.79 5.88-1.16.53-2.27 1.12-3.38 1.71-1.09-.96-2.11-1.99-3.06-3.06 3.03-6.13 5.72-12.42 8.06-18.83 2.42-6.57.83-14.14 4.72-20.22 3.41-5.18-1.14-11.35 1.28-16.78 2.33-5.6 1.65-12.4 5.8-17.17 4.73-3.97 10.6-6.23 16.1-8.87 4.09-3.64 8.77-6.45 13.48-9.21.08-2.67-.96-6.61 2.37-7.7 4.49-1.51 8.72-5.86 13.72-4.12-.39 1.82-.76 3.66-1.14 5.5.39.51 1.17 1.54 1.56 2.05zM954.12 451.18c.12.11.35.33.47.44-.12-.11-.35-.33-.47-.44zM909.76 454.06c-1.35-1.08-1.16-1.57.56-1.47l-.56 1.47zM954.59 451.62c1.97-.19 4.54.85 5.49 2.63-2.16.06-4.04-1.15-5.49-2.63zM909.76 454.06l.28.36-.28-.36zM960.08 454.25c.13.01.39.02.52.03-.13-.01-.39-.02-.52-.03zM960.6 454.28c2.57 3.5 2.03 8.6 2.96 12.89-1.69 1.24-3.33 2.52-4.97 3.81l.28 3.43c-2.15-2.91-2.15-6.8-1.39-10.18 1.7-3.17 4.8-5.98 3.12-9.95zM911.48 456.33c1.16 1.53.88 3.65.1 5.29-2.09-.4-.46-3.86-.1-5.29zM83.57 461.65c.04.11.11.34.15.46-.04-.12-.11-.35-.15-.46z"/>
    <path fill="#e3b026" d="M86.84 462.09c1.97-.83 4.02-1.45 6.14-1.75.64.87 1.29 1.74 1.95 2.62-2.62-.87-5.36-1.06-8.09-.87zM83.72 462.11c1.04-.07 2.08-.06 3.12-.02-.03 2.65-3.22 2.72-3.12.02zM916.29 474.91c10.09 14.14 24.96 23.78 38.4 34.38 3.02 2.7 5.67 7.06 10.21 6.95 4.08-2.42 1.86-8.46 2.41-12.44.53 6.11 3.11 14.36-.41 19.34 0-1.69-.07-3.37-.14-5.04-4.59-.37-4.14 4.78-4.09 7.98-1.65-8.13-9.84-12.43-16.34-16.4-10.61-9.9-23.93-17.84-30.21-31.45.05-.83.13-2.49.17-3.32zM960.03 475.81c.09.09.27.29.36.38-.09-.09-.27-.29-.36-.38zM960.39 476.19zM960.9 476.64l.44.36-.44-.36zM963.47 478.7c.07.08.23.24.3.32-.07-.08-.23-.24-.3-.32zM963.77 479.02c1.57.66 1.58 1.22.05 1.67-.01-.42-.04-1.25-.05-1.67zM962.1 481.72c.43-.25 1.29-.77 1.72-1.03-.43.26-1.29.78-1.72 1.03z"/>
    <path fill="#e3b026" d="M963.57 494.78c-3.12-3.69-2.81-8.72-1.47-13.06.14.65.43 1.94.57 2.58 1.56.97 2.93 2.22 4.31 3.44-3.09 1.23-4.74 3.67-3.41 7.04zM963.57 494.78zM963.73 495.08c2.58.08 3.23 4.16 2.17 6.05-.74-2.02-1.46-4.03-2.17-6.05zM965.9 501.13zM959.36 522.35c3.38 2.17-3.52 2.21 0 0zM966.91 527.15c-.95-1.21-.95-2.82-.01-4.01 1.06 1.31 1.06 2.64.01 4.01zM70.5 525.04c3.63 2.33 4.49 6.48 4.2 10.54-3.2-2.46-7.18-6.33-4.2-10.54zM959.89 531.27c.95-1.37 1.89-2.74 2.83-4.13.16 1.85.39 3.69.64 5.54-.87-.35-2.6-1.05-3.47-1.41zM966.91 527.15c1.72.37 1.81.89.29 1.55-.07-.39-.22-1.16-.29-1.55zM128.78 532.67c6.3-.55 12.99-5.3 18.99-1.44 5.73 3.1 12.56 1.01 18.51 3.42 4.55 1.75 10.42 2.17 13.08 6.85 2.2 3.57 5.3 6.42 8.63 8.91-.99 2.89-2.83 5.32-5.19 7.24 2.23-3.41-.85-7-2.52-9.93-4.14-5.16-11.56-3.39-16.55-7.15-4.94.11-9.92.15-14.68-1.42-1.68-1.4-3.65-3.97-6.01-2.19-4.12 2.61-9.24 1.69-13.55 3.74 2.17 8.06-5.19 12.59-9.61 17.84-1.71 14.19-7.58 28.05-5.1 42.53-2.48-.18-4.2-1.98-5.79-3.68-4.36-.24-8.31 2.69-10.62 6.2-2.12.09-4.24.07-6.35.11-1.7 1.33-3.28 3.81-5.78 3.03-2.75-.49-1.43-4.06-1.8-6 3.29-1.82 6.85-2.99 10.5-3.83 3.94-.82 6.14-5.08 10.14-5.71 2.65.31 4.86 2.02 7.22 3.14 1.07-5.71-1.21-11.59.94-17.17 2.99-8.74 2.59-18.39 6.08-26.91 4.45-5.13 9.67-10.18 9.46-17.58zM963.36 532.68c.07 0 .2-.01.26-.01-.06 0-.19.01-.26.01zM963.62 532.67c1.28-.08 2.57-.15 3.87-.22l1.15-.07c-.88 3.46-1.36 7.04-1.06 10.62-.89-.18-1.77-.35-2.64-.52-1.39-3.1-1.72-6.46-1.32-9.81zM814.05 557.12c.27-1.45 2.55-2.2 3.74-1.4.8 2.54-2.32 2.48-3.74 1.4zM834.45 558.15c2-2.75 6.15-2.09 8.39-.01-2.8-.14-5.6-.19-8.39.01zM182.5 557.95c.08-.08.22-.23.3-.3-.08.07-.22.22-.3.3z"/>
    <path fill="#e3b026" d="M180.45 558.98c.51-.26 1.54-.77 2.05-1.03-.51.26-1.54.77-2.05 1.03zM834.37 558.24c.02-.02.06-.07.08-.09-.02.02-.06.07-.08.09zM842.84 558.14l.04.29-.04-.29zM178.53 559.82l1.92-.84-1.92.84zM830.4 559.59c1.31-.46 2.63-.91 3.97-1.35-2.8 3.06-2.79 7.53-5.14 10.85.51-3.16 1.66-6.26 1.17-9.5zM842.88 558.43zM174.65 562.82c1.04-1.19 1.87-3.48 3.88-3-1.63 1.64-3.28 3.26-5.05 4.76.38-.6.77-1.19 1.17-1.76zM820.58 560.37c1.19.13 2.38.29 3.59.47.17 1.43.32 2.86.48 4.31.45.36 1.36 1.07 1.81 1.43.27 1.48-.39 3.47 1.28 4.38-.16.11-.47.34-.63.45-.31.15-.95.44-1.26.59-1.02-3.01-2.06-6-3.19-8.96-.38.31-1.14.94-1.52 1.25.2 2.21.39 4.43.58 6.65-.99-.19-1.98-.36-2.95-.53-.47-2.25-.88-4.51-1.6-6.68 1.14-1.11 2.27-2.23 3.41-3.36zM844.43 559.79c3.46-.05 6.91.54 10.18 1.69-.06 1.78-.1 3.56-.02 5.34-.85-1.44-1.6-2.94-2.36-4.41-2.58-.93-5.16-1.88-7.8-2.62zM857.32 561.63c.21.09.62.28.83.38.89 6.35 3.15 13.44 9.24 16.63 4.36 1.5 5.64 5.78 6.17 9.94-3.14-1.75-6.28-3.56-8.99-5.93-2.16 3.45-.13 7.29-.71 10.92-2.48-9.21-1.03-20.07-9.27-26.75.75-.11 2.25-.32 2.99-.43-.1-1.59-.16-3.18-.26-4.76zM814.32 562.98c.1-1.66.63-1.86 1.6-.58-.4.15-1.2.44-1.6.58zM812.52 564.23c.45-.31 1.35-.94 1.8-1.25-.45.31-1.35.94-1.8 1.25zM872.92 567.05c8.41 7.28 15.37 16 24.17 22.86 2.43 2.74 6.72 3.55 8.16 7.13-3.02-.7-6.01-1.57-9.11-1.7 3.01 2.99 6.47 5.5 10.2 7.52.13.51.38 1.53.51 2.04-4.11-1.64-8.6-2.26-12.94-1.19-4.6-4.74.77-9.95 5.95-10.29-5.17-4.95-11.4-8.77-15.73-14.57-3.28-4.4-8.98-6.58-11.21-11.8zM68.5 577.02c6.93 1.82 14.09 2.59 20.97 4.61.1 2.12.24 4.24.43 6.37l-.77.19c-5.82.43-11.7-1.36-17.26-3.01-1.2-2.69-2.78-5.25-3.37-8.16zM967.35 577.17l2.16.12c.38 1.4.84 2.79 1.32 4.18-1.23.13-2.44.28-3.65.43.04-1.59.1-3.16.17-4.73z"/>
    <path fill="#e3b026" d="M873.56 588.58c.01.05.04.14.05.18-.01-.04-.04-.13-.05-.18zM873.61 588.76zM874.86 590.43c3.11 3.2 5.12 7.2 6.15 11.53-3.16-2.97-6.73-6.88-6.15-11.53zM863.86 593.57zM865.02 595.35zM961.74 595.61c.95-.27 1.94-.39 2.95-.38-.04 2.75-1.22 6 1.06 8.21.08 3.11-.47 6.19-1.36 9.17-.57.07-1.71.21-2.28.29.11-2.04.24-4.08.4-6.1-.57-.35-1.69-1.04-2.25-1.38-.02-3.34.65-6.6 1.48-9.81zM866.02 597.37zM867.4 599.37zM867.76 600.02c.33.52.98 1.56 1.31 2.08-.33-.52-.98-1.56-1.31-2.08zM869.07 602.1c.21.53.62 1.58.83 2.11-.21-.53-.62-1.58-.83-2.11zM881.01 601.96c.25.47.74 1.39.98 1.86-.24-.47-.73-1.39-.98-1.86z"/>
    <path fill="#e3b026" d="M869.9 604.21c1.96-.51 3.35 2.79 1.89 4.07-.73-1.32-1.37-2.68-1.89-4.07zM881.99 603.82c.25.48.76 1.45 1.01 1.94-.25-.49-.76-1.46-1.01-1.94z"/>
    <path fill="#e3b026" d="M883 605.76c1.03 1.35 2.15 2.8 2.19 4.61-1.93.47-3.03-3.18-2.19-4.61zM871.79 608.28c1.62.18 2.11 1.03 1.48 2.55-1.02-.49-1.52-1.34-1.48-2.55zM717.98 614.01c9.45-5.25 20.35-3.25 30.54-2.32 8.18 5.46 11.61 15.48 18.83 21.94 2.57 2.55 3.54 6.14 4.67 9.46-4.49-2.5-8.55-5.83-10.15-10.9-3.1-5.67-8.47-9.71-13.16-13.98-11.89-.23-25.59-1.69-35.2 7-1.15-.25-2.29-.5-3.43-.73-.74-5.3 3.35-8.85 7.9-10.47zM885.19 610.37c4.73 1.49 6.09 6.28 7.1 10.59-3.87-2.18-7.78-5.68-7.1-10.59zM873.05 612.35c1.53.27 1.92 1.09 1.16 2.46-1.12-.45-1.51-1.27-1.16-2.46z"/>
    <path fill="#e3b026" d="M874.21 614.81c1.71 6.53 3.64 13.79.62 20.25-.76 9.56-1.18 19.17-1.23 28.79-1.76 7.37-3.52 14.8-5.65 22.09-2.76 4.92.56 11.14-3.34 15.68-4.8 6.08-7.03 17.27-16.65 16.79-3.79 1.13-5.57-4.59-9.12-2.69-1.83 3.94-2.01 8.93-6.19 11.36l-.2 2.87c-.48-.14-1.44-.42-1.93-.55-1.13-3.11-.6-6.53-1.91-9.59-1.29-2.87 2.37-4.95 1.98-7.78-.46-4.25-3.62-7.53-6.1-10.79.04-1.79.1-3.56.18-5.33 4.82 6.64 7.38 15 5.4 23.15 4.91-1.96 5.59-7.71 9.01-10.87 5.51 2.11 13.05 3.73 16.62-2.47 2.62-5.83 7.49-10.61 9.29-16.73-.54-14.8 7.81-28.17 7.21-42.99-.59-10.49 2.73-20.7 2.01-31.19zM953.16 615.61zM950.99 622.68c-.45-1.8-1.14-5.65.98-6.31.53 2.16.02 4.36-.98 6.31zM956.6 618.6c1.07-.27 2.17-.41 3.3-.41-1.53 7.3-7.26 13.58-5.27 21.61-.48-.12-1.45-.35-1.94-.47-.72-2.25-1.26-4.55-1.2-6.91.12-3.07-3.47-5.92-.89-8.8.08 1.39.19 2.79.33 4.19.73-.69 1.48-1.37 2.24-2.04.73.23 1.46.47 2.21.73 0-.64.03-1.28.06-1.9-.77-.65-1.53-1.3-2.28-1.93.24-.39.7-1.16.94-1.55l.4 1.95c.45-.22 1.35-.67 1.8-.89l.3-3.58zM892.29 620.96c2.67 3.03 4.57 6.6 4.7 10.74-3.2-2.68-3.99-6.87-4.7-10.74zM905.35 627.58l.4.02c2.58 4.26 10.86 2.82 9.1 9.55-2.58-1.49-6.52-4.13-8.97-1.13-.87 2.76.94 5.72.87 8.62-1.07-.02-2.13-.03-3.18-.03-3.55-3.1-4.96-7.58-6.15-11.96 1.76 2.41 4.14 4.25 6.73 5.7 1.1-3.49 1.34-7.14 1.2-10.77zM897.32 632.48c.02.04.08.13.1.17-.02-.04-.08-.13-.1-.17zM710.28 655.5c-3.61-7.29.75-16.09 4.72-22.4.68 2.57 3.15 5.43 1.07 7.96a36.534 36.534 0 0 0-5.79 14.44zM943.46 645.01c.73-3.94-1.6-12.37 4.41-11.78a31.82 31.82 0 0 1-1.6 7.27c1.1.05 2.22.1 3.35.17-.54 3.99-2.74 7.64-1.97 11.81-.59.14-1.76.41-2.35.55.12-2.82.48-5.93-1.84-8.02zM820.98 655.98c3.49-5.49 7.3-10.86 12.48-14.91 1.04 1.89 2.12 3.77 3.04 5.73-5.77 1.8-7.97 8.08-12.79 11.3 1.35 6.81-6.66 5.27-10.67 7.47-4.09 1.62-7.61-2.01-7.54-5.97 5.4.54 10.65-1.45 15.48-3.62zM112.43 644.64l1.12-1.36c.8 1.77 1.59 3.54 2.35 5.34-1.12-.81-2.24-1.6-3.36-2.38-.03-.4-.08-1.2-.11-1.6zM549.07 643.47c6.26 3.93 13.66 5.2 20.25 8.39 3.17 1.02 2.55 4.85 3.15 7.45-7.53-2.82-14.94-6.04-22.3-9.31-3.44 2.25-6.58 4.96-8.99 8.32-3.22-6.49 1.9-12.68 7.89-14.85zM773.31 646.97c8.38.08 17.33-2.44 25.16 1.75 3.76 1.51 5.02 5.63 5.84 9.23-6.33-5.3-15.46-6.79-23.41-4.66-1.97.63-3.85-.47-5.7-.97-.64-1.79-1.28-3.57-1.89-5.35zM115.9 648.62c3.08.19 6.17.07 9.24-.21 5.95-1.03 10.25 4.25 15.5 6.07 5.41 1.79 5.64 8.07 6.81 12.7-1.92-1.95-3.46-4.66-6.34-5.23-4.58-1.03-7.68-4.92-12.07-6.42-4.16 1.09-8.72 3.19-12.43-.15-3.62-1.02-1.77-4.41-.71-6.76zM470.01 660.15c10.43-4.35 22.41-12.41 33.68-5.85 6.34 1.26 7.63 8.7 13.11 11.07 4.28.63 8.77.23 12.82 2.15 4.28 2.16 8.72-.36 12.8-1.7.12 2.44 1.06 5.11-.06 7.43-4.57 3.17-10.22 3.01-14.97.43-6.61-.73-15.59-1.26-16.32-9.83-6.96-2.81-14.86-6.07-22.33-3.2-4.76 1.95-10.21 2.36-14.27 5.77-3.64 3.54-9.33-.5-12.98 3.03-3.44 3.03-8.19.99-12.23 1.97-2.37 1.93-4.38 4.45-7.47 5.26-6.37 1.65-3.39 11.66-9.87 13.37-6.39 1.62-13.45-1.57-18.12-5.93-4.96 3.87-8.14 9.31-10.86 14.88-1.03 1.85-2.13 3.67-3.2 5.5-5.91-4.06-12.95-5.62-20.04-4.63.01-1.89.02-3.77.02-5.65 6.59-.92 12.93.91 18.6 4.19 4.79-6.71 5.89-16.66 13.79-20.79 5.3 1.47 9.79 5.39 15.31 6.04 6.93-.51 7.04-8.73 9.9-13.38 4.05-1.72 8.53-2.9 11.13-6.79 7.46.58 14.22-2.96 21.56-3.34zM700.58 667.09c1.91-4.2 5.42-7.25 9.47-9.3 3.13 7.24-3.45 12.21-9.21 14.99-9.39.09-19.26.27-27.87-4.02-5.04 1.17-7.52 6.77-11.51 9.78-3.36 3.38-8.43 2.85-12.56 4.46-6.39 3.75-14.04 1.46-21 1.36-5.93.44-7.06-7.02-12.48-8-8.42-4.97-18.71-3.79-27.53-.66-7.75-1.47-15.53-6.63-15.25-15.48 4.64 5.87 12.77 8.31 19.78 5.43 9.52-3.4 19.5.81 26.55 7.29 5.51 7.36 16.45 6.95 24.57 5.61 6.24-3.2 14.69-2.91 18.98-9.15 2.25-2.84 4.83-5.86 8.47-6.82 3.67.6 7.07 2.75 10.91 2.34 6.43-.79 12.2 3.78 18.68 2.17z"/>
    <path fill="#e3b026" d="M147.45 667.18c.47 1.12.9 2.3.78 3.56-1.81.27-2.26-2.87-.78-3.56zM148.29 672.37l.1.05-.1-.05zM148.39 672.42c6.03.78 9.34 5.79 8.62 11.67-3.97-3.08-7.87-6.34-8.62-11.67zM157.01 684.09c.31.43.94 1.29 1.25 1.72-.31-.43-.94-1.29-1.25-1.72z"/>
    <path fill="#e3b026" d="M158.26 685.81c.68 1.92.88 3.95.61 5.99-1.98-.77-1.45-4.4-.61-5.99zM159.27 693.27l.09.13-.09-.13zM159.36 693.4c1.72 1.69 3.68 3.16 5.12 5.12.4 2.79-1.36 5.41-2.21 8 .78-4.67-2.76-8.5-2.91-13.12zM377.21 702.25c1.24.35 2.48.7 3.74 1.06-.04.62-.1 1.87-.14 2.49-2.3 5.29-1.42 11.09-2.01 16.66-4.47 1.95-8.28 5.26-9.28 10.24-.74 4.66-6.19 3.18-9.54 3.2-5.75-.68-10.78 2.54-16.07 4.09-4.01.57-7.2-2.61-10.85-3.62-2.86 1.14-4.97 3.54-7.26 5.53-3.65-.25-6.22-2.67-8.72-5.06-4.63-1.37-9.56.25-14.32-.52-2.71-.68-3.78 2.44-5.22 4.08-1.57 1.4-1.25 3.4-.86 5.24-7.11-4-2-13.42 3.81-15.79 3.82-.42 7.69-.3 11.53-.49 4.52-.27 7.49 4.59 12.01 4.43 3-.86 5.09-3.59 8.09-4.46 3.53.57 6.62 2.56 9.87 3.97 7.52-4.15 16.15-3.75 24.33-5.08 2.68-3.26 2.1-9.03 6.6-11.22 5.76-2.77 4.19-9.54 4.29-14.75zM159.81 709.34c-.75-1.35 1.01-3.49 2.46-2.82-.39 1.21-1.23 2.33-2.46 2.82z"/>
    <path fill="#e3b026" d="M160.27 712.79c-1.83.24-2.42-3.54-.46-3.45.22 1.13.37 2.28.46 3.45zM160.27 712.79c.05.08.16.25.21.34-.05-.09-.16-.26-.21-.34zM160.48 713.13c3.8 4.05 7.19 12.9 14.14 9.57 6.89-4.28 15.52 3.69 21.63-2.46 4.27-4.11 10.84-3.6 16.19-2.57 5.9 5.45 13 9.61 17.39 16.53 4.01 1.11 8.32 1.68 11.36 4.87 2.63-1.51 5.56-3.59 8.62-1.87 5.29 2.76 8.21-6.1 13.53-4.56 3.24 1.52 1.57 5.56 1.92 8.32-4.19-1.31-7.85 2.37-9.94 5.61-.85-.04-1.69-.06-2.53-.09-1.41-1.15-2.96-2.11-4.57-2.95-1.85 1.86-3.9 3.76-6.74 3.26-2.05-3.24-5.61-4.66-9.36-4.19-3.42.43-2.65-4.33-4.88-5.73-2.95-1.73-4.6-5.08-7.94-6.18-3.26-.99-3.47-5.98-7.28-5.8-2.96-.12-6-.64-8.92 0-4.28 1-6.47 6.3-11.24 5.78-3.68-.59-7.4-1.1-11.02-2.04-3.75 1.98-8.16 4.46-12.26 1.72-2.23-4-5.27-7.4-8.13-10.94.12-2.1.15-4.2.03-6.28zM265.26 740.96c.69 1.11.51 2.59-.62 3.38.16-.84.46-2.54.62-3.38zM264.18 745.07c.11-.18.35-.54.46-.73-.11.19-.35.55-.46.73zM262.46 747.29c.43-.56 1.29-1.66 1.72-2.22-.43.56-1.29 1.66-1.72 2.22zM298.05 746.86c.09.1.27.28.36.37-.09-.09-.27-.27-.36-.37zM261.8 748.04c.17-.19.49-.57.66-.75-.17.18-.49.56-.66.75zM298.41 747.23zM261.32 748.75c.12-.18.36-.54.48-.71-.12.17-.36.53-.48.71zM298.68 747.84c1.7-.32 2.25 3.36.27 2.54-.06-.63-.2-1.9-.27-2.54zM260.49 754.67c-1.81-1.15-1.1-5.04.83-5.92-.31 1.96-.53 3.94-.83 5.92zM295.74 763.98c2.27-4.08 2.13-9.1 3.21-13.6 4.32 7.07-1.31 13.91-.33 21.21-1.4.05-2.79.08-4.18.09-1.45-4.21-5.85-4.41-9.63-4.28-.51-1.65-1.06-3.28-1.55-4.92-6.86.71-13.75 1.65-20.68.99-2.43-2.24-.04-6.18-2.09-8.8 6.47 3.26 13.51.49 20.27.66 3.84 4.55 9.92 6.21 14.98 8.65z"/>
    <path fill="#ffcc41" d="M932.52 237.15c2.08 2.49 4.03 5.09 5.72 7.88-.18 2.46.23 4.91 1.5 7.06.47.15 1.4.44 1.87.59.36 1.59.75 3.17 1.16 4.76 1.81.08 3.62.16 5.45.23-.25 1.68-.51 3.36-.8 5.04-.03.05-.1.14-.14.19-3.53 1.84-7.03 3.77-10.09 6.35-2.59 2.41-6.42.36-9.42 1.54-3.04 2.49-2.78 7.92-6.92 9.29-3.12 1.06-5.7-1.6-8.27-2.88-.63 2.83.05 6.19 3.48 6.53 5.7.91 7.28 6.85 9.13 11.43-.04 2.85-.06 5.71.09 8.56 3.16.1 6.33.18 9.5.23l.71.77.16.16c.44.43 1.33 1.29 1.78 1.72 3.51-.51 7.06-.69 10.6-.95l.97-.04c.49 1.12 1.06 2.22 1.58 3.35-.55 4.29-4.14 6.76-6.88 9.65-.93 3.03-.46 6.28-.45 9.41.67 13.49-1.79 27.45 2.76 40.5l.84 1.96c-.04.44-.14 1.32-.18 1.76l-.32.28c-4.37.86-10.19.64-12.27 5.49-1.53 4.85-.28 10.14-1.79 15.04-1.78-.87-3.53-1.74-5.29-2.61-.13 2.38-.24 4.76-.38 7.15-5.16 3.28-5.2 9.34-1.71 13.91-.04.97.27 1.83.91 2.57.71 2.47 1.44 4.94 2.04 7.45.04 1.06.42 2 1.12 2.82.33.5.98 1.5 1.31 2 .12.12.35.35.47.46.41.87 2.64 2.59 2.76.7.99-2.95-.61-5.69-2.02-8.15 1.17 1.52 2.37 3 3.64 4.46 1.06 1.29 2.86 1.57 4.46 1.5-.2 2.13 1.04 3.99 2.7 5.23.15.14.46.42.62.55.16.15.47.44.63.58.53.36 1.58 1.06 2.11 1.42 1.64.51 3.34.83 5.07 1 .49.16 1.45.49 1.93.65.15 1.67.33 3.36.51 5.04-1.56-.54-3.11-1.07-4.66-1.61 1.44 4.3 1.7 9.33 5.21 12.6.1.11.3.31.4.41.12.11.35.33.47.44 1.45 1.48 3.33 2.69 5.49 2.63.13.01.39.02.52.03 1.68 3.97-1.42 6.78-3.12 9.95-.76 3.38-.76 7.27 1.39 10.18l1.16 1.4c.09.09.27.29.36.38.13.11.39.34.51.45l.44.36 2.13 1.7c.07.08.23.24.3.32.01.42.04 1.25.05 1.67-.43.26-1.29.78-1.72 1.03-1.34 4.34-1.65 9.37 1.47 13.06.04.08.12.23.16.3.71 2.02 1.43 4.03 2.17 6.05.31.44.93 1.33 1.24 1.78l.17.89c-.55 3.98 1.67 10.02-2.41 12.44-4.54.11-7.19-4.25-10.21-6.95-13.44-10.6-28.31-20.24-38.4-34.38-.04.83-.12 2.49-.17 3.32-2.16-5.36-2.52-11.21-4.54-16.61.78-1.64 1.06-3.76-.1-5.29l-1.44-1.91-.28-.36.56-1.47c.93-2.41 2.05-4.79 2.37-7.38-.02-2.57-.29-5.16.14-7.71.45-2.07.46-4.27-.67-6.13l-.36-.84c1.1-10.62-2.96-21.01-1.19-31.58.12-5.51-4.52-9.59-7.92-13.39l-1.16-1.2c-.13-2.51-.19-5.02-.23-7.53-5.06.37-6.93 6.66-2.91 9.78.79 1.1 1.49 2.26 2.15 3.46.46.93.88 1.89 1.36 2.84l-.2.36c-.32.61-.96 1.84-1.28 2.46 3.2 4.84.31 10.72.37 16.03-4.22 2.93-8.54-3.1-12.43-4.24-8.7 2.58-11.71 13.29-8.62 21.25 1.61 5.94 1.74 12.13 1.54 18.26 2.87-.49 6.12-2.78 8.64-.17-.66.74-1.97 2.23-2.62 2.97-.1.07-.28.22-.37.3-.11.08-.32.23-.42.31-6.91 3.83-7.13 13.42-14.48 17.09-.39-.51-1.17-1.54-1.56-2.05.38-1.84.75-3.68 1.14-5.5-5-1.74-9.23 2.61-13.72 4.12-3.33 1.09-2.29 5.03-2.37 7.7-4.71 2.76-9.39 5.57-13.48 9.21-5.5 2.64-11.37 4.9-16.1 8.87-4.15 4.77-3.47 11.57-5.8 17.17-2.42 5.43 2.13 11.6-1.28 16.78-3.89 6.08-2.3 13.65-4.72 20.22-2.34 6.41-5.03 12.7-8.06 18.83.95 1.07 1.97 2.1 3.06 3.06 1.11-.59 2.22-1.18 3.38-1.71.45-.31 1.35-.94 1.8-1.25.4-.14 1.2-.43 1.6-.58l1.25 1.33c.72 2.17 1.13 4.43 1.6 6.68.97.17 1.96.34 2.95.53-.19-2.22-.38-4.44-.58-6.65.38-.31 1.14-.94 1.52-1.25 1.13 2.96 2.17 5.95 3.19 8.96.31-.15.95-.44 1.26-.59.16-.11.47-.34.63-.45.37-.47 1.11-1.4 1.49-1.87 2.35-3.32 2.34-7.79 5.14-10.85.02-.02.06-.07.08-.09 2.79-.2 5.59-.15 8.39-.01l.04.29c.38.34 1.16 1.02 1.55 1.36 2.64.74 5.22 1.69 7.8 2.62.76 1.47 1.51 2.97 2.36 4.41 8.24 6.68 6.79 17.54 9.27 26.75.29.45.87 1.34 1.16 1.78.25.51.75 1.52 1 2.02.35.5 1.04 1.5 1.38 2 .09.17.27.49.36.65.33.52.98 1.56 1.31 2.08.21.53.62 1.58.83 2.11.52 1.39 1.16 2.75 1.89 4.07-.04 1.21.46 2.06 1.48 2.55l-.22 1.52c-.35 1.19.04 2.01 1.16 2.46.72 10.49-2.6 20.7-2.01 31.19.6 14.82-7.75 28.19-7.21 42.99-1.8 6.12-6.67 10.9-9.29 16.73-3.57 6.2-11.11 4.58-16.62 2.47-3.42 3.16-4.1 8.91-9.01 10.87 1.98-8.15-.58-16.51-5.4-23.15-.33-.46-.98-1.38-1.31-1.84-.02-1.37-.02-2.74.01-4.1 1.49-1.92 2.66-4.07 3.56-6.32 3.51-.17 7.11.02 10.47-1.18 1.34-11.96-1.49-23.76-.9-35.67-.92-1.96-2-3.84-3.04-5.73-5.18 4.05-8.99 9.42-12.48 14.91-4.83 2.17-10.08 4.16-15.48 3.62l-.79-.04-.4-1.61c-.82-3.6-2.08-7.72-5.84-9.23-7.83-4.19-16.78-1.67-25.16-1.75-.45-1.29-.88-2.59-1.29-3.88-1.13-3.32-2.1-6.91-4.67-9.46-7.22-6.46-10.65-16.48-18.83-21.94-10.19-.93-21.09-2.93-30.54 2.32-4.55 1.62-8.64 5.17-7.9 10.47 1.14.23 2.28.48 3.43.73.51 2.62.89 5.27 1.49 7.89-3.97 6.31-8.33 15.11-4.72 22.4-.06.57-.17 1.72-.23 2.29-4.05 2.05-7.56 5.1-9.47 9.3-6.48 1.61-12.25-2.96-18.68-2.17-3.84.41-7.24-1.74-10.91-2.34-3.64.96-6.22 3.98-8.47 6.82-4.29 6.24-12.74 5.95-18.98 9.15-8.12 1.34-19.06 1.75-24.57-5.61-7.05-6.48-17.03-10.69-26.55-7.29-7.01 2.88-15.14.44-19.78-5.43-.05-.23-.13-.69-.17-.91-.6-2.6.02-6.43-3.15-7.45-6.59-3.19-13.99-4.46-20.25-8.39-5.99 2.17-11.11 8.36-7.89 14.85.56 2.47.92 4.98 1.24 7.5-4.08 1.34-8.52 3.86-12.8 1.7-4.05-1.92-8.54-1.52-12.82-2.15-5.48-2.37-6.77-9.81-13.11-11.07-11.27-6.56-23.25 1.5-33.68 5.85-7.34.38-14.1 3.92-21.56 3.34-2.6 3.89-7.08 5.07-11.13 6.79-2.86 4.65-2.97 12.87-9.9 13.38-5.52-.65-10.01-4.57-15.31-6.04-7.9 4.13-9 14.08-13.79 20.79-5.67-3.28-12.01-5.11-18.6-4.19 0 1.88-.01 3.76-.02 5.65 7.09-.99 14.13.57 20.04 4.63 1.07-1.83 2.17-3.65 3.2-5.5-.72 2.21-1.27 4.47-1.83 6.73-6.19-1.93-11.91-5.86-18.76-4.16-.52 1.4-1.04 2.81-1.54 4.23.04-.62.1-1.87.14-2.49-1.26-.36-2.5-.71-3.74-1.06-.1 5.21 1.47 11.98-4.29 14.75-4.5 2.19-3.92 7.96-6.6 11.22-8.18 1.33-16.81.93-24.33 5.08-3.25-1.41-6.34-3.4-9.87-3.97-3 .87-5.09 3.6-8.09 4.46-4.52.16-7.49-4.7-12.01-4.43-3.84.19-7.71.07-11.53.49-5.81 2.37-10.92 11.79-3.81 15.79l1.37 1.22c.09.1.27.28.36.37.07.15.21.46.27.61.07.64.21 1.91.27 2.54-1.08 4.5-.94 9.52-3.21 13.6-5.06-2.44-11.14-4.1-14.98-8.65-6.76-.17-13.8 2.6-20.27-.66.3-1.98.52-3.96.83-5.92.12-.18.36-.54.48-.71.17-.19.49-.57.66-.75.43-.56 1.29-1.66 1.72-2.22.11-.18.35-.54.46-.73 1.13-.79 1.31-2.27.62-3.38-.35-2.76 1.32-6.8-1.92-8.32-5.32-1.54-8.24 7.32-13.53 4.56-3.06-1.72-5.99.36-8.62 1.87-3.04-3.19-7.35-3.76-11.36-4.87-4.39-6.92-11.49-11.08-17.39-16.53-5.35-1.03-11.92-1.54-16.19 2.57-6.11 6.15-14.74-1.82-21.63 2.46-6.95 3.33-10.34-5.52-14.14-9.57-.05-.09-.16-.26-.21-.34-.09-1.17-.24-2.32-.46-3.45 1.23-.49 2.07-1.61 2.46-2.82.85-2.59 2.61-5.21 2.21-8-1.44-1.96-3.4-3.43-5.12-5.12l-.09-.13-.4-1.47c.27-2.04.07-4.07-.61-5.99-.31-.43-.94-1.29-1.25-1.72.72-5.88-2.59-10.89-8.62-11.67l-.1-.05-.06-1.63c.12-1.26-.31-2.44-.78-3.56-1.17-4.63-1.4-10.91-6.81-12.7-5.25-1.82-9.55-7.1-15.5-6.07-3.07.28-6.16.4-9.24.21-.76-1.8-1.55-3.57-2.35-5.34 3.32-4.78 7.82-8.54 11.94-12.59.7-3.65-.1-7.38-.15-11.06 1.38-.08 2.77-.15 4.16-.21.15-1.22.3-2.43.45-3.63-.62-.14-1.85-.4-2.46-.53-.04-1.12-.09-2.24-.12-3.34 1.65-2.25 3.66-4.19 6.21-5.36 4.45-2.53 5.15-8 6.9-12.33 1.08-3.2 4.86-3.83 7.01-6.06.33-5.06-2.29-10-1.94-15.08 3.52-5.11 4.8-11.74 2.85-17.69 4.01-1.17 7.14 2.11 7.48 5.9.42.09 1.25.28 1.66.37-.05-1.69-.11-3.37-.18-5.04 2.55-1.65 5.75-1.39 8.63-1.11 3.43 1.73 4.99 5.93 8.66 7.3-.4.57-.79 1.16-1.17 1.76 1.77-1.5 3.42-3.12 5.05-4.76l1.92-.84c.51-.26 1.54-.77 2.05-1.03.08-.08.22-.23.3-.3 2.36-1.92 4.2-4.35 5.19-7.24-3.33-2.49-6.43-5.34-8.63-8.91-2.66-4.68-8.53-5.1-13.08-6.85-5.95-2.41-12.78-.32-18.51-3.42-6-3.86-12.69.89-18.99 1.44.21 7.4-5.01 12.45-9.46 17.58-3.49 8.52-3.09 18.17-6.08 26.91-2.15 5.58.13 11.46-.94 17.17-2.36-1.12-4.57-2.83-7.22-3.14-4 .63-6.2 4.89-10.14 5.71-3.65.84-7.21 2.01-10.5 3.83-1.71-3.15-1.1-6.8-1.12-10.22 1.94-.77 3.84-1.62 5.81-2.32l.77-.19c-.19-2.13-.33-4.25-.43-6.37-6.88-2.02-14.04-2.79-20.97-4.61-.59-4.73-2.17-9.59-.46-14.29 1.15-4.18 2.29-9.02-.62-12.76-1.49-6.42 10.59-7.61 7.28-14.39.29-4.06-.57-8.21-4.2-10.54-1.69-1.33-3.11-3.07-3.21-5.31 1.72-.1 3.43-.18 5.14-.29 1.82-3.1 4.85-5.7 5.3-9.42 1.45-5.64-1.21-11.28-.06-16.99 2.41-9.67.4-19.75.08-29.39.44-1.71.95-3.39 1.45-5.07 1.1-.04 2.2-.08 3.3-.11.27.79.8 2.39 1.07 3.19.04.11.11.34.15.46-.1 2.7 3.09 2.63 3.12-.02 2.73-.19 5.47 0 8.09.87 3.85 2.06 3.7-3.08 4.28-5.5 3.77 2.01 7.79 3.58 12 4.4-4.12-8.38-13.18-12.23-19.83-18.21-4.69-2.78-10.54-3.14-14.91-6.69-.34 4.28-2.78 9.6.9 13.08 1.11 1.34 2.33 2.57 3.45 3.91-.52.61-1.56 1.83-2.08 2.45-7.43-3.15-11.7-11.67-20.17-13l-1.7-.3c-.29-1.78-.57-3.57-.69-5.37 1.71-1 3.44-1.98 5.27-2.75.26-3.28.23-6.56.08-9.83 2.41.96 4.78 2.04 7.2 2.98.09-3.1-.26-6.17-1.22-9.12-.02-3.14 2.01-5.54 4.21-7.52-2.65-6.32-9.62-6.76-15.4-8.02-3.59-1.73-7.52-1.19-11.35-1.36-.18.54-.36 1.09-.53 1.64.23-1.16.12-2.28-.32-3.36L43 397.2c-.03-.09-.08-.28-.11-.37.1-1.69.28-3.37.5-5.04.17-.19.51-.56.68-.74.2-.18.62-.55.83-.73.59-.43 1.76-1.29 2.34-1.72.2-.14.59-.44.78-.58.19-.1.56-.29.74-.38 1.96-.62 3.82-1.5 5.55-2.59l1.95-1.19c.04-.05.12-.15.17-.2 3.79-4.13 7.73-8.9 8.52-14.62.64.59 1.29 1.17 1.95 1.75.25-2.11.51-4.21.78-6.32-3.63-2.12-6.53-5.17-9.38-8.2-4.9-5.94-4.12-14.84-5.96-22.13-.19-6.93 7.97-8.22 12.45-4.37 6.09-4.63 14.12-.33 20.28 2.09 5.75-.59 7.63-7.95 13.03-9.52 2.6-.5 3.51-3.2 4.89-5.1 2.59 1.05 5.19 2.71 8.09 2.46 5.14-.91 7.27-6.89 12.1-8.26l1.1.16c.22 1.89.4 3.79.84 5.65.59 1.16 1.26 2.28 1.94 3.4.63 1.34 2.22 1.68 3.57 1.75-.4 2.79 2.11 4.61 4.48 2.85 1.29-.41 2.52-1.2 3.16-2.43 1.14.21 2.27.21 3.41.02.67 1.33 2.01 2.13 3.34 2.71.16.08.48.23.64.31 1.57 1.22 3.82.94 4.69-.97 1.28.23 2.57.37 3.88.43.19.2.56.61.75.81.2.17.6.5.8.66.17.16.51.48.68.63.47.38 1.39 1.13 1.85 1.5 3.31 1.37 6.78.87 8.55-2.55.06-.08.2-.22.27-.3.07-.06.22-.2.29-.26.64-.37 1.92-1.12 2.56-1.49 8.18 11.61 15.97 23.61 25.74 33.98 1.66 2.15 4.84 2.1 6.38-.16 12.76-14.67 24.16-30.62 33-47.97 3.18.18 6.49.57 9.51-.72.13-.09.39-.28.52-.37.05-.06.15-.19.2-.26 2.97-3.45 4.31-7.88 5.55-12.17 2.13-.06 4.27-.07 6.4-.1a47.7 47.7 0 0 1 1.61-4c1.68-1.28 3.14-2.81 4.2-4.65 3.01-1.13 5.71-3.06 8.93-3.62 6.07-1.23 8.41-7.99 13.49-10.89 2.69-.31 5.39.47 8.08.2 4.57-2.33 4.14-8.4 7.13-11.93 8.08-4.04 17.39-.62 24.11 4.54 2.93 5.31 3.31 11.73 1.59 17.51 1.03 6.52 3.12 13.08 1.59 19.75-1.74 7.36 1.06 15.3-2.33 22.32.64-4.23.8-8.52.26-12.77-1.42 5.35-4.56 11.94-10.9 12.25-6.01 1.11-11.51-1.93-16.06-5.51-4.01-6.89-3.62-14.98-4.77-22.6-.27-1.96-1.1-3.76-1.86-5.55-2.05 4.27-2.16 9.21-4.3 13.42-3.23 2.55-7.65 3.38-10.38 6.66-4.76 4.4-3.93 11.46-3.52 17.32.49-1.71.96-3.43 1.53-5.12 0 2.6.03 5.2.1 7.8 1.7-.6 3.43-1.1 5.2-1.47-3.83-4.88-.07-12.22 6.38-10.09 1.79 5.97.72 13.61 4.64 18.43 2.54-4.5 4.54-11.02 11.13-9.94 4.84 1.01 9.61 2.33 14.47 3.21.38 3.11.98 6.19 1.75 9.24 5.31-.8 8.36-5 10.01-9.74 4.88-3.14 12.08-5.18 10.59-12.6.72-.12 1.45-.25 2.18-.37 1.65 5.03 6.3 8.69 6.03 14.37-1.43 1.23-2.84 2.48-4.24 3.74-2.77-.43-6.1-2.2-8.57-.14-2.12 2.41-2.94 6.28-.93 9.02 3.01 3.63 6.84 1.88 8.54-1.92 1.27-.34 2.54-.68 3.82-1.01.66-3.19 1.22-6.42 1.38-9.69.43 3.83.45 7.69.38 11.55 3.68.31 7.38.46 11.08.42.49-5.37-3.81-12.34 2.52-15.65 5.33-2.48 7.02 4.67 7.09 8.54-4.5-.12-10.51 1.72-8.29 7.4 2.47-.18 4.94-.34 7.42-.44.25-2.33.54-4.65.87-6.96 1.05 3.64.54 7.36-2.42 9.93 3.07 2.26 7.3.22 10.29 2.48.98 2.01-1.33 3.95-1.99 5.8 7.54 2.92 12.17 11.43 21.24 9.56-.64 2.52-2.03 4.71-3.62 6.72 3.44-.17 7.32.79 10.48-.86 3.91-6.02.23-13.42 1.04-20.05.85-.51 1.71-1.01 2.57-1.5-1.64-5.53-6.96-8.98-12-11.13-.08-7.2-2.51-14.48-.84-21.61 3-3.62 9.68-.01 12.44-4.37 2.81-4.05 8.26-3.83 12.64-4.27.46-1.3.94-2.6 1.43-3.9 6.61-.4 12.97-3.64 17.21-8.73 6.34-.23 12.41-3.24 18.83-1.83 6.72-.07 12.53 5.63 19.34 3.37 3.07-.75 7.47-3.55 9.67.2 1.69 4.32 2.09 9.04 1.94 13.64-.52-2.24-.97-4.49-1.38-6.74-4.18 1.72-8.38 4.16-13.05 3.81-7.45-.32-15.21-3.28-22.43-.12-4.22 2.15-9.28.81-13.37 3.24-8.37 4.43-17.79 6.91-25.47 12.58-4.35 4.49-5.57 11.13-5.73 17.17.95-1.33 1.88-2.67 2.74-4.06-3.09 7.67-.29 15.67 2.04 23.1 2.45 7.17 10.9 10.79 11.32 18.87 2.84 5.96 6.52 11.6 6.17 18.59 2-.82 4.99-1.82 4.83-4.47-.73-5.21-.19-10.52-1.63-15.62 3.02-3.51 8-6.31 7.87-11.56-.24-4.25 4.81-4.6 7.71-5.92 7.06-2.44 8.78-11.32 15.77-13.86 2.6-1.1 4.93-5.68 7.99-2.92 2.33 4.94 2.05 10.96 1.01 16.26-2.91 4.31-9.21 6.87-9.44 12.54.68 12.53-15.66 20.92-10.74 33.93-5.04 9.02-14.83 12.71-22.81 18.45 5.55 5.31 13.94-1.54 18.98-5.1 8.49-.36 4.07-10.43 9.5-14.16 2.44.46 4.89.86 7.35 1.26 1.53 2.55 3.38 4.89 5.41 7.06 1.06-6.1-4.41-12.59-10.84-11.19-.52-.4-1.56-1.19-2.07-1.59-.06-2.07-.15-4.12-.12-6.18 1.86-5.46 7.41-9.22 7.29-15.41.15-5.66 3.32-10.81 8.61-13.02.48.24 1.45.73 1.94.97.55-.21 1.66-.64 2.21-.86.87-2.24 1.75-4.46 2.63-6.69 1.03-.05 2.07-.09 3.11-.12.44 6.21-7.01 9.03-7.2 15.21a9.408 9.408 0 0 0 4.42-4.68c1.19.43 2.4.87 3.6 1.32.73 1.5 2.02 2.57 3.33 3.56-.13-3-1.24-6.1-.31-9.05 2.42-.35 4.73.72 7.04 1.26-.43-3.68-2.63-6.28-6.29-7.05-.04-.67-.07-1.33-.1-1.99 1.92-.77 3.85-1.56 5.76-2.37.22 1.87.45 3.73.7 5.6 1.36.28 2.73.56 4.11.84-.61 2.76-1.95 5.26-3.53 7.58 6.88 2.01 7.84-4.64 7.41-9.8 7.76-5.65 17.28 1.99 25.93-1.28-.4-3.1.04-6.21.98-9.16.82.01 1.65.03 2.48.05 2.31-4.44 7.37-6.01 11.49-8.28 4.95-.94 10.82-.36 13.94-5.21 2.74-.16 5.49-.26 8.25-.41 1.21-1.92 2.44-3.84 3.65-5.76.61-.07 1.82-.2 2.43-.27-1.28 3.57-2.99 6.95-4.71 10.33 6.32.06 8.42-8 14.9-7.56.01-3.8 1.28-7.37 3.43-10.48-1.76-.26-3.5-.53-5.24-.81.33-1.94.69-3.88 1.07-5.81-1.53-2.53-3.11-5.08-5.36-7.03 1.23.29 2.49.53 3.76.78.83-1.71 1.71-3.4 2.68-5.04 2.52-2.86 3.89-6.41 4.97-10.01 5.95 1.93 9.98 7.93 10.76 13.99a26.51 26.51 0 0 1 5.99 4.66c-1.43.04-2.84.11-4.26.18-.72-1.55-1.46-3.08-2.2-4.6-4.36 1.88-9.08 2.68-13.52 4.3-1.66 2.32-2.12 5.22-2.91 7.9 4.06-1.15 8.15-2.2 12.25-3.24 1.39.9 2.77 1.81 4.16 2.73l-.21 5.57c1.64.59 3.28 1.19 4.93 1.8-.05 1.84-.1 3.69-.14 5.54 4.51-2.29 9.9-3.46 14.81-1.76 9.07 7.66 11.07 20.42 8.78 31.58-1.11 2.96 1.14 5.45 2.61 7.78 5.99-2.55 12.57-1.75 18.91-1.86.14 1.9.31 3.79.5 5.69 5.22.93 10.8.59 15.76-1.34 4.5-2.64-2.75-9.3 2.78-11.37 3.01.18 5.92 1.16 8.9 1.64 10.93 19.61 24.24 37.85 38.93 54.8 2.39 3.41 7.75 2.9 9.9-.51 19.31-22.82 37.26-47.45 48.11-75.53 4.62-2.3 8.24.97 12.55.59.1-.02.29-.05.39-.07.49-.37 1.46-1.11 1.95-1.48l.44-.56c.94-.97 1.56-2.11 1.87-3.42.11-.22.32-.65.42-.87.17-.2.51-.62.68-.83.21-.19.61-.59.82-.78.49-.58 1.47-1.73 1.97-2.31.19-.25.58-.74.78-.98.21-.24.65-.73.86-.97.21-.23.61-.69.82-.92.17-.2.51-.59.68-.78.11-.12.34-.36.45-.49 5.06-2.12 10.96-3.85 16.2-1.2.06.15.18.44.24.58.07.2.22.6.3.8.35.58 1.05 1.74 1.4 2.33.12.17.36.52.48.7.69 2.13 3.37 3.04 4.51.73l.63-.76c1.38-.37 2.8-.73 4.21-1.08.35-1.49.68-2.97 1.03-4.45.36-.46 1.07-1.4 1.43-1.86.12-.19.36-.58.48-.77.12-.17.38-.53.5-.7.1-.13.28-.38.38-.51l1.55-1.97c.06-.06.16-.17.22-.22l1.86-.83c.54-.3 1.6-.89 2.14-1.18.17-.17.53-.51.7-.68.22-.2.65-.6.87-.8.24-.22.71-.68.95-.9l.96-.92c.21-.22.64-.65.86-.87.17-.22.51-.65.68-.86 2.01-2.2 1.62-5.16.64-7.71.08-.48.22-1.44.3-1.91.14-.2.44-.59.59-.79.18-.15.55-.45.73-.6 1.24-.16 2.47-.38 3.7-.66.19.77.57 2.33.76 3.11-.38.4-1.13 1.21-1.5 1.61l-.78.94c3.85 2.05 9.78 2.67 13.25-.15 2.72-6.78-7.12-7.3-10.26-11.35.2-1 .59-3 .79-4 .13-.07.38-.21.5-.28.21-.16.65-.47.86-.63.21-.19.62-.58.83-.77.18-.17.56-.51.75-.68.53-.26 1.61-.79 2.15-1.05 2.27-1.93 4.2-4.23 5.29-7.03l.56-1.09c.05-.09.16-.27.21-.36.37-.55 1.09-1.65 1.46-2.2l.6-.8c.16-.16.47-.49.63-.66.11-.09.34-.27.45-.36 12.21-9.58 27.66-12.1 40.6-20.27 5.57-3.21 11.58.14 17.27.95-.94-.82-1.9-1.63-2.75-2.51-.74-1-1.4-2.05-2.11-3.05l2.14-.97c1.46-1.43 2.16-3.36 2.39-5.36.12-.18.35-.54.47-.72.16-.12.5-.38.67-.51 2.26-.26 4.78-.59 6.18-2.65l1.4-.04c1.08.07 2.07-.23 2.97-.89.49-.34 1.46-1.01 1.95-1.34.06-.12.19-.36.26-.48m-609.64 36.07c-1.88 3.11.1 7.09 3.89 6.88.04-1.93.13-3.87.17-5.8-1.35-.38-2.7-.74-4.06-1.08m285.28 95.87c-2.58 3.43-8.02 4.97-8.15 9.87 4.86-.4 8.84-3.4 12.61-6.21-.16-2.07-1.86-5.5 1.4-5.85 4.24-.54 3.7-6.49 7.96-7.05 4.12-.8 2.75-5.91 1.88-8.77-5.2 6.04-10.75 11.76-15.7 18.01m-110.5 3.62c.55 3.88 1.27 9.41 6.18 9.87-1.94-2.96-1.81-6.51-1.74-9.89-1.48.12-2.96.13-4.44.02m-165.23 21.71c-31.23 4.11-57.15 33-57.33 64.58-.78 17.16 6.26 33.36 13.59 48.48 13.12 25.37 30.23 48.48 48.76 70.12 2.44 3.61 8.47 3.2 10.82-.33 17.16-19.94 33.02-41.16 45.64-64.29 8.49-16.38 17.16-34.04 16.06-52.98 1.03-28.95-20.64-55.98-48.16-63.64-9.44-3.2-19.59-2.47-29.38-1.94m261.01 93.27c-23.41 3.88-40.91 28.91-35.17 52.23 6.02 23.76 21.06 43.9 36.16 62.71 2.26 2.87 5.74 7.47 9.73 4.51 11.62-13.32 22.14-27.71 30.64-43.23 6.96-12.81 12.51-27.49 9.44-42.26-4.46-22.48-28.29-38.49-50.8-33.96z"/>
    <path fill="#ffcc41" d="M851.9 261.32c-1.71-6.07-4.44-16.71 4.06-18.71 5.37-1.72 4.7 4.73 4.3 8.06a124.28 124.28 0 0 1-4.43 8.09c-1.25 0-2.47.02-3.7.03-.05.63-.17 1.9-.23 2.53zM196.51 260.44c.03 0 .1-.01.13-.01-.03 0-.1.01-.13.01zM201.33 260.47c.05.01.14.02.18.03-.04-.01-.13-.02-.18-.03zM560.75 263.75c.96-.14 1.93-.27 2.91-.41 0 1.07.01 2.14.03 3.21-1.11-.03-2.2-.07-3.29-.09.11-.91.23-1.81.35-2.71zM562.44 272.14c3.58-2.73 7.2-5.41 10.9-7.97 2.37 3.18 4.02 6.84 4.5 10.8.63 5.99 5.1 11.07 4.11 17.3-.77 3.41-.27 9.12-4.9 9.65-3.52-1.52-6.68-3.75-10.27-5.11-.38-.75-.77-1.48-1.16-2.2-.37-2.66-.54-5.34-1.02-7.98-.31-.19-.92-.55-1.22-.74-.57-.31-1.7-.95-2.26-1.26-.02-.65-.05-1.94-.06-2.58 1.65.18 3.32.37 4.98.58-1.78-3.28-2.91-6.84-3.6-10.49zM184.38 265.64zM179.4 271.73c.02-.04.07-.12.1-.17-.03.05-.08.13-.1.17zM218.49 272.41l.08.16-.08-.16zM178.53 273.47l.08-.19-.08.19zM118.96 288.8c.1-1.39.27-2.77.36-4.15 2.45.54 4.9 1.05 7.33 1.66-.03.52-.09 1.56-.13 2.08.47.98 1.24 1.61 2.31 1.89l2.03.8c.05 2.04-.34 4.54 1.22 6.15l1.15 1.11-.2 1.08a7.14 7.14 0 0 0 0 3.12c.14.95.44 2.85.58 3.79-2.49-1.91-5.47-2.14-8.4-1.16-.76-.52-1.51-1.04-2.26-1.56.52-2.19-.53-4.18-1.8-5.86a6.34 6.34 0 0 0-.91-2.95c-.12-2.06-.62-4.06-1.28-6zM177.39 288.38zM178.53 291.51c.02.05.07.15.09.21-.02-.06-.07-.16-.09-.21zM218.5 292.56l.08-.16-.08.16zM179.39 293.26zM184.38 299.37c.04.03.11.08.14.11-.03-.03-.1-.08-.14-.11zM196.48 304.56zM201.35 304.52zM601.2 318.22c.63.01 1.89.05 2.51.07-.03.55-.11 1.67-.14 2.23h-2.16c-.05-.58-.16-1.73-.21-2.3zM565.76 322.73c1.27-.14 2.55-.27 3.85-.38-.14.97-.27 1.94-.39 2.91-1.27.12-2.55.23-3.81.33.11-.96.22-1.91.35-2.86zM485.41 350.26c1.29.07 2.59.17 3.89.31.15.53.43 1.59.57 2.13-1.5-.07-2.99-.13-4.48-.19 0-.56.02-1.69.02-2.25zM479.31 353.37c.58 0 1.75.02 2.33.03l.12 2.38c-.66.02-1.97.07-2.63.09.04-.62.13-1.88.18-2.5zM929.6 408.25c1.37-.38 2.74-.79 4.1-1.27.04 1.18.21 2.36.48 3.54l-.08 1.79c-.52 1.55-.12 1.93 1.19 1.13.98 1.5 1.4 3.19.63 4.89-4.13-1.73-5.7-5.93-6.32-10.08zM962.67 526.08c-.05-3.2-.5-8.35 4.09-7.98.07 1.67.14 3.35.14 5.04-.94 1.19-.94 2.8.01 4.01.07.39.22 1.16.29 1.55.07.94.21 2.82.29 3.75-1.3.07-2.59.14-3.87.22-.06 0-.19.01-.26.01-.25-1.85-.48-3.69-.64-5.54l-.05-1.06zM856.9 550.52c-3.05-.88-3.97-7.01.18-6 4.89 4.35 7.27 10.89 12.72 14.62 1.69 2.3 1.77 5.4 3.12 7.91 2.23 5.22 7.93 7.4 11.21 11.8 4.33 5.8 10.56 9.62 15.73 14.57-5.18.34-10.55 5.55-5.95 10.29.11 6.35 2.27 13.58 9.14 15.4 2.57 3.88 7.26 3.91 10.55 6.72l-.12 4.12c-2.05-2.08-4.92-2.76-7.73-2.35l-.4-.02c.14 3.63-.1 7.28-1.2 10.77-2.59-1.45-4.97-3.29-6.73-5.7-.02-.04-.08-.13-.1-.17l-.33-.78c-.13-4.14-2.03-7.71-4.7-10.74-1.01-4.31-2.37-9.1-7.1-10.59-.04-1.81-1.16-3.26-2.19-4.61-.25-.49-.76-1.46-1.01-1.94-.24-.47-.73-1.39-.98-1.86-1.03-4.33-3.04-8.33-6.15-11.53-.31-.42-.93-1.25-1.25-1.67-.01-.04-.04-.13-.05-.18-.53-4.16-1.81-8.44-6.17-9.94-6.09-3.19-8.35-10.28-9.24-16.63-.21-.1-.62-.29-.83-.38l-1.54-.63c-.56-3.55.02-7.1 1.12-10.48zM817.62 554.24c.65-.5 1.93-1.49 2.58-1.99 1.14 1.18 2.27 2.38 3.37 3.62-.76 1.23-1.52 2.47-2.28 3.7-2.24-.76-4.72-2.03-6.82-.21l-.14-.76-.28-1.48c1.42 1.08 4.54 1.14 3.74-1.4l-.17-1.48zM954.31 614.81c.81-2.21 1.08-5.38 4.34-4.44-.21 4.01-2.72 7.33-4.55 10.75-.24.39-.7 1.16-.94 1.55.75.63 1.51 1.28 2.28 1.93-.03.62-.06 1.26-.06 1.9-.75-.26-1.48-.5-2.21-.73-.76.67-1.51 1.35-2.24 2.04-.14-1.4-.25-2.8-.33-4.19l.39-.94c1-1.95 1.51-4.15.98-6.31l1.19-.76c.09-.07.27-.19.37-.25l.78-.55z"/>
    <path fill="#9f3f3f" d="M176.6 244.51c13.04-7.77 30.17-8 43.39-.53 13.66 7.43 22.76 22.5 22.75 38.07.18 9.11-3.27 17.69-6.56 26 1.68 2.6 5.79.93 8.43 1.4-3.02 1.29-6.33.9-9.51.72-8.84 17.35-20.24 33.3-33 47.97-1.54 2.26-4.72 2.31-6.38.16-9.77-10.37-17.56-22.37-25.74-33.98-.64.37-1.92 1.12-2.56 1.49.48-.73 1.43-2.19 1.91-2.91-7.02-12.3-14.06-25.44-14.57-39.91-.35-15.54 8.38-30.76 21.84-38.48m19.91 15.93a22.95 22.95 0 0 0-11.98 5.07c-.03.03-.11.1-.15.13-1.94 1.69-3.59 3.7-4.88 5.92-.03.05-.08.13-.1.17l-.79 1.55-.08.19c-2.1 4.65-2.43 9.99-1.14 14.91.01.05.03.13.04.17.28.74.82 2.22 1.1 2.96.02.05.07.15.09.21l.77 1.54c.03.04.08.13.1.17 1.29 2.23 2.96 4.22 4.89 5.94.04.03.11.08.14.11 3.4 2.8 7.58 4.57 11.96 5.08.04.01.14.02.19.02 1.56.07 3.12.05 4.68-.06.03 0 .11-.01.14-.02 7.19-.9 13.7-5.5 17.01-11.94l.08-.16c3.08-6.16 3.07-13.68-.01-19.83l-.08-.16c-3.32-6.41-9.81-11-16.98-11.91-.04-.01-.13-.02-.18-.03a33.36 33.36 0 0 0-4.69-.04c-.03 0-.1.01-.13.01zM706.04 262.75c20.35-4.53 42.69 3.19 56 19.21 14.17 16.15 17.12 40.01 9.27 59.74-10.85 28.08-28.8 52.71-48.11 75.53-2.15 3.41-7.51 3.92-9.9.51-14.69-16.95-28-35.19-38.93-54.8-7.16-13.91-14.38-28.89-13.48-44.95-1.07-26.2 19.88-50.18 45.15-55.24m6.47 27.86c-11.27 2.12-20.81 11.39-22.97 22.69-3.59 15.49 7.97 32.09 23.63 34.36 17.32 3.57 35.09-11.98 33.82-29.63-.05-17.16-17.76-31.17-34.48-27.42zM332.43 394.42c9.79-.53 19.94-1.26 29.38 1.94 27.52 7.66 49.19 34.69 48.16 63.64 1.1 18.94-7.57 36.6-16.06 52.98-12.62 23.13-28.48 44.35-45.64 64.29-2.35 3.53-8.38 3.94-10.82.33-18.53-21.64-35.64-44.75-48.76-70.12-7.33-15.12-14.37-31.32-13.59-48.48.18-31.58 26.1-60.47 57.33-64.58m3.19 33.41c-18.55 3.6-31.36 24.21-25.82 42.4 4.29 16.73 22.61 28.28 39.56 24.38 16.99-2.91 29.81-20.31 27.28-37.44-1.74-19.28-22.19-33.88-41.02-29.34zM593.44 487.69c22.51-4.53 46.34 11.48 50.8 33.96 3.07 14.77-2.48 29.45-9.44 42.26-8.5 15.52-19.02 29.91-30.64 43.23-3.99 2.96-7.47-1.64-9.73-4.51-15.1-18.81-30.14-38.95-36.16-62.71-5.74-23.32 11.76-48.35 35.17-52.23m2.08 21.91c-9.77 2.49-17.05 12.27-16.4 22.37.23 11.37 10.5 21.33 21.88 21.17 11.16.4 21.52-8.97 22.29-20.1 1.96-14.69-13.6-27.85-27.77-23.44z"/>
    <path fill="#fff" d="M196.64 260.43c1.57-.1 3.13-.08 4.69.04.05.01.14.02.18.03 7.17.91 13.66 5.5 16.98 11.91l.08.16c3.08 6.15 3.09 13.67.01 19.83l-.08.16c-3.31 6.44-9.82 11.04-17.01 11.94-.03.01-.11.02-.14.02-1.56.11-3.12.13-4.68.06-.05 0-.15-.01-.19-.02-4.38-.51-8.56-2.28-11.96-5.08-.03-.03-.1-.08-.14-.11-1.93-1.72-3.6-3.71-4.89-5.94-.02-.04-.07-.13-.1-.17l-.77-1.54c-.02-.06-.07-.16-.09-.21-.28-.74-.82-2.22-1.1-2.96-.01-.04-.03-.12-.04-.17-1.29-4.92-.96-10.26 1.14-14.91l.08-.19.79-1.55c.02-.04.07-.12.1-.17 1.29-2.22 2.94-4.23 4.88-5.92.04-.03.12-.1.15-.13a22.95 22.95 0 0 1 11.98-5.07c.03 0 .1-.01.13-.01zM712.51 290.61c16.72-3.75 34.43 10.26 34.48 27.42 1.27 17.65-16.5 33.2-33.82 29.63-15.66-2.27-27.22-18.87-23.63-34.36 2.16-11.3 11.7-20.57 22.97-22.69zM335.62 427.83c18.83-4.54 39.28 10.06 41.02 29.34 2.53 17.13-10.29 34.53-27.28 37.44-16.95 3.9-35.27-7.65-39.56-24.38-5.54-18.19 7.27-38.8 25.82-42.4zM595.52 509.6c14.17-4.41 29.73 8.75 27.77 23.44-.77 11.13-11.13 20.5-22.29 20.1-11.38.16-21.65-9.8-21.88-21.17-.65-10.1 6.63-19.88 16.4-22.37z"/>
</svg>
