<?xml version="1.0" encoding="utf-8"?>
<!-- Generator: Adobe Illustrator 23.0.4, SVG Export Plug-In . SVG Version: 6.00 Build 0)  -->
<svg version="1.1" id="Слой_1" xmlns="http://www.w3.org/2000/svg" xmlns:xlink="http://www.w3.org/1999/xlink" x="0px" y="0px"
	 viewBox="0 0 826 826" style="enable-background:new 0 0 826 826;" xml:space="preserve">
<style type="text/css">
	.st0{fill:#74A294;}
	.st1{fill:#E0E2F1;}
	.st2{fill:#F8CBC4;}
	.st3{fill:#CCCFE7;}
	.st4{fill:#F7F4C7;}
	.st5{fill:#BE9C79;}
	.st6{fill:#E5D7C9;}
	.st7{fill:#F2EBE4;}
	.st8{fill:#F8DFDB;}
</style>
<path class="st0" d="M195,242.2c2.6-4.8,5.2-9,7.7-12.9c-4.1-9.1-8.9-18.8-14.4-28.9C170.5,167.7,116.7,68.4,22.6,78.8
	c-4.2,0.6-8,2.5-11,5.5c7.5,5.1,35.4,26,64,71.4c19.2,30.5,34.8,65.7,46.1,104.6c7.3,25.2,12.8,50.8,16.4,76.7
	c8.9,2,18,3.1,27.1,3.3C171.8,293.9,184,262.4,195,242.2z"/>
<path class="st1" d="M111.9,480.3c17.1,2.3,34.4,3.3,51.7,3.2c17.3,0.1,34.6-0.8,51.9-2.7c6.7-19.3,2-40.8-12.1-55.6
	c-12.2,1-25.5,1.5-39.8,1.5c-14,0-27.3-0.6-39.5-1.8c-14.1,14.7-19,36-12.5,55.4C111.6,480.3,111.7,480.3,111.9,480.3z"/>
<polygon class="st2" points="244.1,600.4 253.8,600.4 253.8,528.2 253.8,524.7 252.2,524.7 244.1,524.7 "/>
<path class="st0" d="M169.2,340.3c15.5-0.2,32.9-3.8,42.9-16.5c13.6-17.4,11.1-47.7-7.4-90.2c-2.1,3.3-4.2,6.9-6.4,10.9
	C187.5,264.2,175.6,295,169.2,340.3z"/>
<path class="st0" d="M9.2,87.4C5.9,93.6-4.7,121,18.4,201.8c5.3,18.5,4.2,32.6,2.9,47.6c-1.1,13.4-2.2,27.2,1,45.7
	c0.1,0.6,11,59.6,45,70.6c18.7,6,41.2-3.4,66.9-28.1C121.9,252.4,95.3,194.3,72.5,158C44.2,113.2,16.1,92.2,9.2,87.4z"/>
<path class="st1" d="M82.2,802h118.1V617.9c-13.2,1.2-27.7,1.8-43.6,1.8c-33,0-60.9-3.3-83.1-9.7l-2.5-0.7l-2.4-0.8l-1.1-0.4
	c-50.2,53-48,136.8,5,187c2.5,2.4,5.1,4.7,7.8,6.8H82.2z M55.2,748c-0.3,0.1-0.6,0.2-0.9,0.2c-0.7,0-1.4-0.4-1.8-1.1
	c-11.9-24-13.8-51.8-5.5-77.3c0.3-1,1.4-1.6,2.4-1.3c1,0.3,1.6,1.4,1.3,2.4c0,0,0,0.1,0,0.1c-8.1,24.5-6.2,51.2,5.3,74.3
	C56.5,746.4,56.1,747.5,55.2,748z M57.4,655.5c-1.6,3-3,6-4.3,9.2c-0.4,1-1.5,1.5-2.6,1.1c-1-0.4-1.5-1.5-1.1-2.6
	c1.3-3.2,2.8-6.4,4.4-9.5c0.5-1,1.7-1.3,2.7-0.8C57.5,653.4,57.9,654.5,57.4,655.5z"/>
<rect x="204.2" y="524.7" class="st2" width="8.5" height="75.7"/>
<rect x="230.3" y="524.7" class="st2" width="9.8" height="75.7"/>
<rect x="216.6" y="524.7" class="st2" width="9.8" height="75.7"/>
<path class="st1" d="M156.7,615.8c15.9,0,30.5-0.6,43.6-1.8v-91.3c0-1.1,0.9-2,2-2h47.9c-7.8-14.1-19-26.1-32.5-34.8l-1.7-1.1
	l-0.2-0.1l-2,0.2c-16.7,1.7-33.5,2.6-50.2,2.5c-16.9,0.1-33.8-0.9-50.5-3.1l-1-0.1l-1,0.6l-1.7,1.1C70,511.7,54.2,561.6,71.5,605.4
	C93.9,612.3,122.5,615.8,156.7,615.8z M98.3,509.4c2.2-2.7,4.6-5.3,7.1-7.7c0.8-0.7,2-0.6,2.8,0.2c0.7,0.8,0.7,1.9,0,2.6
	c-2.4,2.4-4.7,4.9-6.9,7.4c-0.7,0.8-1.9,0.9-2.8,0.3C97.7,511.5,97.6,510.3,98.3,509.4C98.3,509.4,98.3,509.4,98.3,509.4z M94,515
	c0.6-0.9,1.8-1.1,2.7-0.5c0.9,0.6,1.1,1.8,0.5,2.7c0,0,0,0-0.1,0.1c-1,1.4-2,2.8-2.9,4.3c-12.1,18.7-17.4,40.9-15.2,63
	c0.2,1.7,0.4,3.4,0.6,5.1c0.2,1.1-0.6,2.1-1.6,2.2c0,0,0,0,0,0h-0.3c-1,0-1.8-0.7-2-1.7C71.7,563.8,78.3,536.8,94,515z"/>
<circle class="st3" cx="259.1" cy="163.6" r="41.6"/>
<rect x="340.1" y="524.7" class="st2" width="9.8" height="75.7"/>
<polygon class="st2" points="363.6,600.4 363.6,574 363.6,570.1 363.6,524.7 354.9,524.7 353.8,524.7 353.8,570.1 353.8,574 
	353.8,600.4 354.8,600.4 "/>
<path class="st3" d="M314.7,296.7c7.5-7.5,7.5-19.6,0-27c-7.5-7.5-19.6-7.5-27,0c-7.5,7.5-7.5,19.6,0,27
	C295.1,304.1,307.2,304.1,314.7,296.7z"/>
<path class="st3" d="M200.6,805.9H82.2c-2.2,0-3.9,1.8-3.9,3.9c0,2.2,1.8,3.9,3.9,3.9h122.9C202.8,811.7,201.3,809,200.6,805.9z"/>
<rect x="326.4" y="524.7" class="st2" width="9.8" height="75.7"/>
<rect x="312.6" y="524.7" class="st2" width="9.8" height="75.7"/>
<polygon class="st2" points="261.4,600.4 267.6,600.4 267.6,524.7 257.8,524.7 257.8,527.3 257.8,532.7 257.8,538.4 257.8,599 
	257.8,600.4 259.4,600.4 "/>
<rect x="285.2" y="524.7" class="st2" width="9.8" height="75.7"/>
<rect x="271.5" y="524.7" class="st2" width="9.8" height="75.7"/>
<path class="st4" d="M301.7,470.8c0-1.1,0.9-2,2-2c1.1,0,2,0.9,2,2v18.6c21.4-1.1,26-21,26-37.7c0-18.2-21.4-82.9-27.9-102.2
	c-6.5,19.3-27.9,84-27.9,102.2c0,16.7,4.6,36.5,26,37.7V470.8z M281.6,445c0.1-1.1,1.1-1.8,2.2-1.7c1.1,0.1,1.8,1.1,1.7,2.2
	c0,0,0,0.1,0,0.1c-0.4,2.7-0.7,5.4-0.8,8.2c0,1.1-0.9,1.9-2,1.9h-0.1c-1.1,0-1.9-0.9-1.9-2C280.9,450.8,281.2,447.9,281.6,445z
	 M291.9,477.9c-0.4,0.4-0.9,0.7-1.5,0.7c-0.5,0-0.9-0.2-1.3-0.5c-4.6-4.1-7.4-10.1-8.2-17.9c-0.1-1.1,0.7-2,1.8-2.2
	c1.1-0.1,2,0.7,2.2,1.8c0.7,6.8,2.9,11.9,6.9,15.3C292.6,475.8,292.7,477.1,291.9,477.9C291.9,477.9,291.9,477.9,291.9,477.9z"/>
<rect x="298.9" y="524.7" class="st2" width="9.8" height="75.7"/>
<polygon class="st5" points="407,675.9 820.9,675.9 820.8,644.6 407,644.6 "/>
<polygon class="st5" points="407,574 407,602.4 407,605.4 820.8,605.4 820.8,574 "/>
<polygon class="st5" points="407,711.2 820.9,711.2 820.9,679.9 407,679.9 "/>
<polygon class="st5" points="407,640.7 820.8,640.7 820.8,609.3 407,609.3 "/>
<path class="st5" d="M407,785.7v17.1c0,4.2-1.8,8.1-4.8,10.9h415.3c1.9,0,3.5-1.6,3.5-3.5v-24.6H407z"/>
<polygon class="st2" points="403.1,574 403.1,570.1 403.1,524.7 395,524.7 395,570.1 395,574 395,600.4 403.1,600.4 "/>
<path class="st6" d="M794.4,137.2C757.2,66,685.9,19,605.8,12.9c-6-0.5-12-0.7-18-0.7c-79.9,0-155.8,42.1-198.1,110
	c-34.7,55.6-34.6,121.4-34.6,185c0,3,0,5.9,0,8.8l-0.2,204.7h50.2c1.1,0,2,0.9,2,2v47.4h413.7l-0.2-240.6c0-10.8,0.3-22,0.5-32.8
	c0.8-34.8,1.7-70.7-6-104C810.6,173.4,803.6,154.8,794.4,137.2z M587.9,438.5c-106.4,0-193-86.6-193-193s86.5-193,193-193
	s193,86.6,193,193S694.2,438.5,587.9,438.5z"/>
<polygon class="st2" points="391,570.1 391,524.7 381.2,524.7 381.2,570.1 381.2,574 381.2,600.4 391,600.4 391,574 "/>
<polygon class="st5" points="407,781.8 821,781.8 821,750.4 407,750.4 "/>
<polygon class="st5" points="407,746.5 821,746.5 820.9,715.1 407,715.1 "/>
<path class="st7" d="M587.9,56.3c-104.3,0-189.1,84.8-189.1,189.1s84.8,189.1,189.1,189.1S777,349.7,777,245.4
	S692.1,56.3,587.9,56.3z M450,345.8c-0.9,0.6-2.1,0.5-2.7-0.4c-2.2-2.9-4.3-6-6.3-9.1c-0.6-0.9-0.5-2.1,0.4-2.7
	c0.9-0.6,2.1-0.5,2.7,0.4c0,0.1,0.1,0.1,0.1,0.2c2,3,4.1,6,6.2,8.9C451,344,450.8,345.2,450,345.8C450,345.8,450,345.8,450,345.8z
	 M487.5,383.3c-0.7,0.9-1.9,1-2.7,0.4c0,0,0,0,0,0c-11.2-8.7-21.4-18.5-30.5-29.4c-0.7-0.9-0.5-2.1,0.4-2.7c0.8-0.6,2-0.5,2.7,0.2
	c8.9,10.6,18.9,20.3,29.9,28.8C488,381.2,488.2,382.4,487.5,383.3C487.5,383.3,487.5,383.3,487.5,383.3z M696.1,144.2L594.7,245.6
	c-0.1,3.8-3.3,6.8-7.1,6.6c-3.2-0.1-5.9-2.4-6.5-5.5l-64.3-64.3c-1-1-0.9-2.5,0-3.5c1-1,2.5-0.9,3.5,0l62.2,62.2
	c2.3-3,6.6-3.5,9.6-1.2c0.2,0.2,0.5,0.4,0.7,0.6l99.9-99.9c0.9-1,2.5-1,3.5-0.1s1,2.5,0.1,3.5C696.2,144.1,696.2,144.1,696.1,144.2
	L696.1,144.2z"/>
<path class="st8" d="M403.1,785.7V604.4H204.2v198.4c0,6,4.9,10.9,10.9,10.9h177c6,0,10.9-4.9,10.9-10.9V785.7z M216.5,703.8
	c0,1.1-0.9,2-2,2s-2-0.9-2-2v-53.9c0-1.1,0.9-2,2-2s2,0.9,2,2V703.8z M216.5,640.7c0,1.1-0.9,2-2,2s-2-0.9-2-2v-13.8
	c0-1.1,0.9-2,2-2s2,0.9,2,2V640.7z M393.8,746.5v50.4c0,1.1-0.9,2-2,2s-2-0.9-2-2V743c0-1.1,0.9-2,2-2s2,0.9,2,2V746.5z
	 M393.8,733.8c0,1.1-0.9,2-2,2s-2-0.9-2-2v-13.8c0-1.1,0.9-2,2-2s2,0.9,2,2V733.8z"/>
<polygon class="st2" points="377.3,570.1 377.3,524.7 367.5,524.7 367.5,570.1 367.5,574 367.5,600.4 377.3,600.4 377.3,574 "/>
<path d="M214.5,624.9c-1.1,0-2,0.9-2,2v13.8c0,1.1,0.9,2,2,2s2-0.9,2-2v-13.8C216.5,625.8,215.6,624.9,214.5,624.9z"/>
<path d="M214.5,648c-1.1,0-2,0.9-2,2v53.9c0,1.1,0.9,2,2,2s2-0.9,2-2v-53.9C216.5,648.9,215.6,648,214.5,648z"/>
<path d="M282.7,455.7L282.7,455.7c1.1,0,2-0.8,2-1.9c0.1-2.7,0.4-5.5,0.8-8.2c0.2-1.1-0.5-2.1-1.6-2.3c-1.1-0.2-2.1,0.5-2.3,1.6
	c0,0,0,0.1,0,0.1c-0.5,2.9-0.7,5.8-0.8,8.7C280.8,454.8,281.6,455.7,282.7,455.7z"/>
<path d="M284.9,459.8c-0.1-1.1-1.1-1.9-2.2-1.8s-1.9,1.1-1.8,2.2c0.8,7.8,3.5,13.8,8.2,17.9c0.4,0.3,0.8,0.5,1.3,0.5
	c0.6,0,1.1-0.2,1.5-0.7c0.7-0.8,0.6-2-0.2-2.8c0,0,0,0,0,0C287.9,471.7,285.6,466.6,284.9,459.8z"/>
<path d="M77.7,592H78c1.1-0.2,1.8-1.2,1.6-2.2c0,0,0,0,0,0c-0.3-1.7-0.5-3.4-0.6-5.1c-2.2-22.1,3.2-44.4,15.2-63
	c1-1.4,1.9-2.9,2.9-4.3c0.6-0.9,0.4-2.1-0.4-2.7s-2.1-0.4-2.7,0.4l0,0c-15.7,21.7-22.3,48.8-18.2,75.3C75.9,591.3,76.7,592,77.7,592
	z"/>
<path d="M99.8,512.7c0.6,0,1.1-0.3,1.5-0.7c2.1-2.6,4.4-5.1,6.9-7.4c0.7-0.8,0.7-2-0.1-2.8c-0.7-0.7-1.9-0.7-2.6,0
	c-2.5,2.5-4.9,5-7.1,7.7c-0.7,0.8-0.6,2.1,0.3,2.8c0,0,0,0,0,0C98.9,512.5,99.3,512.6,99.8,512.7z"/>
<path d="M50.8,671.1c0.4-1-0.1-2.1-1.2-2.5s-2.1,0.1-2.5,1.2c0,0,0,0.1,0,0.1c-8.4,25.5-6.4,53.2,5.5,77.3c0.3,0.7,1,1.1,1.8,1.1
	c0.3,0,0.6-0.1,0.9-0.2c1-0.5,1.4-1.6,0.9-2.6C44.6,722.3,42.7,695.6,50.8,671.1z"/>
<path d="M56.6,652.9c-1-0.5-2.1-0.1-2.7,0.8c0,0,0,0,0,0c-1.6,3.1-3.1,6.3-4.4,9.5c-0.4,1,0.1,2.1,1.1,2.5c1,0.4,2.1-0.1,2.5-1.1
	c1.3-3.1,2.7-6.2,4.3-9.2C57.9,654.5,57.5,653.4,56.6,652.9z"/>
<path d="M587.9,52.4c-106.4,0-193,86.6-193,193s86.6,193,193,193s193-86.6,193-193S694.2,52.4,587.9,52.4z M587.9,434.6
	c-104.3,0-189.1-84.8-189.1-189.1S483.5,56.3,587.9,56.3S777,141.2,777,245.4S692.1,434.6,587.9,434.6z"/>
<path d="M444.2,334.2c-0.5-0.9-1.7-1.3-2.7-0.7c-0.9,0.5-1.3,1.7-0.7,2.7c0,0.1,0.1,0.1,0.1,0.2c2,3.1,4.1,6.1,6.3,9.1
	c0.6,0.9,1.8,1.1,2.7,0.5s1.1-1.8,0.5-2.7c0,0-0.1-0.1-0.1-0.1C448.2,340.2,446.1,337.2,444.2,334.2z"/>
<path d="M487.1,380.6c-11-8.5-21-18.1-29.9-28.8c-0.7-0.8-2-0.9-2.8-0.1c-0.8,0.7-0.9,1.8-0.2,2.7c9.1,10.9,19.3,20.7,30.5,29.4
	c0.9,0.7,2.1,0.5,2.8-0.4C488.1,382.5,488,381.3,487.1,380.6L487.1,380.6z"/>
<path d="M692.6,140.8l-99.9,99.9c-2.6-2.7-7-2.8-9.7-0.1c-0.2,0.2-0.4,0.4-0.6,0.7L520.2,179c-0.9-1-2.5-1-3.5-0.1
	c-1,0.9-1,2.5-0.1,3.5c0,0,0,0,0.1,0.1l64.3,64.3c0.8,3.7,4.4,6.1,8.1,5.3c3.1-0.6,5.4-3.3,5.5-6.5l101.4-101.4c1-0.9,1-2.5,0.1-3.5
	C695.2,139.8,693.7,139.8,692.6,140.8C692.7,140.7,692.6,140.7,692.6,140.8L692.6,140.8z"/>
<path d="M826,607.3c0-0.8-0.5-1.5-1.2-1.8v-31.7c1-0.4,1.5-1.6,1.1-2.6c-0.2-0.5-0.6-0.9-1.1-1.1l-0.2-240.7
	c0-10.8,0.3-21.9,0.5-32.7c0.8-35,1.7-71.2-6.1-105C795.6,90.9,709.4,16.9,606.1,9c-6-0.5-12.2-0.7-18.3-0.7
	c-81.3,0-158.4,42.9-201.4,111.9c-35.3,56.6-35.3,122.9-35.3,187c0,3,0,5.9,0,8.8L351,520.8h-45.3v-27.4
	c19.3-0.9,29.9-15.6,29.9-41.6c0-22-28.8-105.4-30-108.9c-0.4-1-1.5-1.6-2.5-1.2c-0.6,0.2-1,0.6-1.2,1.2c-1.2,3.5-30,86.9-30,108.9
	c0,25.9,10.6,40.6,29.9,41.6v27.4h-47.1c-8.3-15.7-20.6-29-35.6-38.6c7.3-21.1,2.1-44.5-13.6-60.4c-0.4-0.4-1-0.6-1.6-0.6
	c-6.5,0.5-13.4,1-20.5,1.2c19-47,45.7-77.7,64.8-95.2c20-18.3,36-26.3,37.5-27c9.4,8.5,23.9,7.7,32.4-1.7c8.5-9.4,7.7-23.9-1.7-32.4
	c-9.4-8.5-23.9-7.7-32.4,1.7c-7.4,8.2-7.9,20.6-1.1,29.4c-4.3,2.2-19,10.3-37.2,27c-19.6,17.9-47,49.4-66.4,97.9
	c-0.1,0.2-0.1,0.3-0.1,0.5c-4.8,0.1-9.7,0.2-14.7,0.2l0,0c-0.6-26.2,0.8-52.4,4.1-78.4c16.5-0.2,35.4-4,46.5-18.1
	c14.8-18.8,12.1-51.3-8-96.6c12.7-18.8,24-26.7,26.5-28.3c20.9,14.1,49.3,8.6,63.4-12.3c14.1-20.9,8.6-49.3-12.3-63.4
	c-20.9-14.1-49.3-8.6-63.4,12.3c-13.2,19.6-9.4,46,8.9,61c-4,2.8-13.8,10.6-25,26.6c-3.9-8.6-8.4-17.6-13.6-27
	c-12.4-22.9-32.1-56.4-59.8-82.6c-33.2-31.6-70.2-45.4-109.7-41c-5.9,0.8-11.3,3.9-15,8.6c-1.6,1.9-19.4,25.5,7.5,119.4
	c5.1,17.8,4,31.6,2.8,46.2c-1.1,13.6-2.2,27.7,1.1,46.7c0.5,2.5,11.4,61.9,47.7,73.6c19.7,6.4,42.8-2.7,68.7-27.1
	c3.6,26.5,5.6,53.2,6,79.9c-6.1-0.3-11.9-0.7-17.5-1.3c-0.6-0.1-1.2,0.1-1.6,0.6C106,437.4,100.6,461,108,482.2
	c-29.5,18.9-47.3,51.6-47.3,86.6c0,12,2.1,23.9,6.2,35.2c-0.5,0-1,0.2-1.3,0.6C13.3,658.7,14.9,744.9,69,797.1
	c2.5,2.4,5.1,4.8,7.9,7c-3.1,3-3.3,7.9-0.3,11.1c1.5,1.6,3.5,2.5,5.7,2.5h735.3c4.1,0,7.4-3.3,7.4-7.4c0,0,0,0,0,0v-24.9
	c0.9-0.5,1.3-1.7,0.7-2.7c-0.2-0.3-0.4-0.6-0.7-0.7v-31.8c0.6-0.3,1-1,1-1.7c0-0.7-0.4-1.4-1-1.7v-31.8c1-0.5,1.3-1.7,0.9-2.6
	c-0.2-0.4-0.5-0.7-0.9-0.9v-31.8c1-0.5,1.4-1.6,0.9-2.6c-0.2-0.4-0.5-0.7-0.9-0.9v-31.7c1-0.4,1.4-1.6,1-2.6c-0.2-0.4-0.5-0.8-1-1
	v-31.7C825.6,608.8,826,608.1,826,607.3z M287.7,269.7c7.5-7.5,19.6-7.5,27,0c7.5,7.5,7.5,19.6,0,27c-7.5,7.5-19.6,7.5-27,0
	C280.2,289.3,280.2,277.2,287.7,269.7C287.6,269.7,287.6,269.7,287.7,269.7z M217.5,163.6c0-23,18.6-41.6,41.6-41.6
	s41.6,18.6,41.6,41.6s-18.6,41.6-41.6,41.6C236.1,205.2,217.5,186.6,217.5,163.6z M353.8,574v-49.3h9.8v75.7h-9.8V574z M340.1,524.7
	h9.8v75.7h-9.8V524.7z M326.4,524.7h9.8v75.7h-9.8V524.7z M312.6,524.7h9.8v75.7h-9.8V524.7z M275.7,451.7
	c0-18.2,21.4-82.9,27.9-102.2c6.5,19.3,27.9,84,27.9,102.2c0,16.7-4.6,36.5-26,37.7v-18.6c0-1.1-0.9-2-2-2c-1.1,0-2,0.9-2,2v18.6
	C280.3,488.2,275.7,468.4,275.7,451.7z M298.9,524.7h9.8v75.7h-9.8V524.7z M285.2,524.7h9.8v75.7h-9.8V524.7z M271.5,524.7h9.8v75.7
	h-9.8V524.7z M257.8,599v-74.3h9.8v75.7h-9.8V599z M253.8,524.7v75.7h-9.8v-75.7H253.8z M212,323.8c-10,12.7-27.3,16.3-42.9,16.5
	c6.4-45.3,18.4-76.1,29-95.9c2.1-3.9,4.3-7.5,6.4-10.9C223.1,276.1,225.7,306.4,212,323.8z M67.4,365.7c-34-11-44.9-70-45-70.6
	c-3.2-18.5-2.1-32.3-1-45.7c1.2-15,2.3-29.2-2.9-47.6C-4.7,121,5.9,93.6,9.2,87.4c6.9,4.7,35,25.8,63.2,70.6
	c22.9,36.3,49.5,94.4,61.7,179.5C108.6,362.3,86.1,371.7,67.4,365.7z M121.8,260.3c-11.4-39-26.9-74.1-46.1-104.6
	C47,110.4,19.2,89.5,11.7,84.3c2.9-3,6.8-4.9,10.9-5.5c94.1-10.4,148,88.8,165.6,121.5c5.5,10.2,10.3,19.8,14.4,28.9
	c-2.5,3.9-5.1,8.2-7.7,12.9c-11,20.2-23.2,51.7-29.7,98.1c-9.1-0.2-18.2-1.3-27.1-3.3C134.5,311.1,129,285.5,121.8,260.3
	L121.8,260.3z M138.8,341.2c8.5,1.8,17.2,2.9,25.9,3.1c-3.3,26-4.6,52.3-4.1,78.5c-5.4,0-10.6-0.1-15.7-0.4
	C144.5,395.3,142.4,368.1,138.8,341.2L138.8,341.2z M124,424.9c12.2,1.2,25.5,1.8,39.5,1.8c14.3,0,27.7-0.5,39.8-1.5
	c14.1,14.8,18.7,36.3,12.1,55.6c-17.2,1.9-34.5,2.8-51.8,2.7c-17.3,0.1-34.5-1-51.7-3.2c-0.1,0-0.3,0-0.4,0
	C105.1,461,109.9,439.6,124,424.9L124,424.9z M64.6,568.8c-0.1-33.5,16.8-64.7,44.8-82.9l1.7-1.1l1-0.6l1,0.1
	c16.7,2.1,33.6,3.2,50.5,3.1c16.8,0.1,33.6-0.7,50.2-2.5l2-0.2l0.2,0.1l1.7,1.1c13.5,8.8,24.6,20.8,32.5,34.8h-47.9
	c-1.1,0-2,0.9-2,2V614c-13.2,1.2-27.7,1.8-43.6,1.8c-34.2,0-62.8-3.5-85.1-10.5C67,593.7,64.6,581.3,64.6,568.8z M240.2,524.7v75.7
	h-9.8v-75.7H240.2z M226.5,524.7v75.7h-9.8v-75.7H226.5z M212.7,524.7v75.7h-8.5v-75.7H212.7z M31.3,699.1
	c-0.1-33.9,12.9-66.4,36.3-91l1.1,0.4l2.4,0.8l2.5,0.7c22.1,6.4,50,9.7,83.1,9.7c15.9,0,30.4-0.6,43.6-1.8V802h-120
	C49.2,776.9,31.2,739.1,31.3,699.1z M82.2,813.8c-2.2,0-3.9-1.8-3.9-3.9c0-2.2,1.8-3.9,3.9-3.9h118.4c0.7,3,2.2,5.8,4.5,7.8H82.2z
	 M392.2,813.8H215.1c-4.8,0-9.1-3.2-10.5-7.8c-0.3-1-0.5-2.1-0.5-3.1V604.4h198.9v198.5C403.1,808.9,398.2,813.8,392.2,813.8
	L392.2,813.8z M367.5,600.4v-75.7h9.8v75.7H367.5z M381.2,600.4v-75.7h9.8v75.7H381.2z M395,600.4v-75.7h8.2v75.7H395z M820,812.8
	c-0.7,0.6-1.5,1-2.5,1H402.2c3.1-2.8,4.8-6.8,4.8-10.9v-17.1H821v24.6C821,811.2,820.7,812.1,820,812.8z M820.8,609.4v31.4H407
	v-31.4H820.8z M407,605.4v-31.4h413.7v31.4H407z M820.8,644.6V676H407v-31.4H820.8z M820.8,679.9v31.4H407v-31.4H820.8z
	 M820.8,715.2v31.4H407v-31.4H820.8z M820.8,750.5v31.4H407v-31.4H820.8z M820.9,296.8c-0.3,10.8-0.5,22-0.5,32.8l0.2,240.6H407
	v-47.4c0-1.1-0.9-2-2-2h-50.2l0.2-204.7c0-2.9,0-5.9,0-8.8c0-63.6,0-129.3,34.6-185C432.1,54.4,507.9,12.2,587.9,12.2
	c6,0,12.1,0.2,18,0.7C707.4,20.8,792,93.6,815,192.7c7.7,33.3,6.8,69.3,6,104L820.9,296.8z"/>
<path d="M391.9,718c-1.1,0-2,0.9-2,2v13.8c0,1.1,0.9,2,2,2s2-0.9,2-2v-13.8C393.8,718.8,393,718,391.9,718z"/>
<path d="M391.9,741.1c-1.1,0-2,0.9-2,2v53.9c0,1.1,0.9,2,2,2s2-0.9,2-2V743C393.8,742,393,741.1,391.9,741.1z"/>
</svg>
