<svg width="1000pt" height="1000pt" viewBox="0 0 1000 1000" xmlns="http://www.w3.org/2000/svg">
    <path fill="#d0d0d0" d="M97 95.09c14.48-9.86 28.95-19.74 43.44-29.58 8.36 12.28 16.75 24.54 25.12 36.82 7.56 11.13 15.23 22.18 22.72 33.35 1.76 1.66-.49 2.95-1.77 3.83-13.53 9.05-26.88 18.36-40.4 27.4-8.1-11.58-15.97-23.32-23.96-34.98-8.39-12.28-16.77-24.56-25.15-36.84zM848.38 102.44c8.39-12.32 16.79-24.64 25.21-36.94 14.46 9.88 28.94 19.72 43.41 29.59-8.4 12.32-16.81 24.63-25.21 36.95-7.99 11.61-15.8 23.34-23.9 34.88-14.43-9.88-29.1-19.42-43.24-29.69 7.87-11.63 15.81-23.2 23.73-34.79zM295.56 170.22c4.27-2.9 8.53-5.8 12.79-8.71 7.07 10.3 14.08 20.63 21.14 30.93-3.66 2.53-7.36 5.02-11.03 7.53-53.44 36.4-106.87 72.8-160.31 109.19-3.34 2.28-6.68 4.56-10.02 6.83-7.05-10.32-14.1-20.63-21.13-30.95 3.84-2.61 7.67-5.23 11.52-7.83 52.33-35.69 104.7-71.32 157.04-106.99zM685.01 192.48c6.99-10.36 14.08-20.65 21.12-30.98 4.36 2.96 8.71 5.94 13.07 8.91 52.3 35.6 104.56 71.23 156.86 106.83 3.8 2.61 7.63 5.2 11.43 7.81-7.01 10.31-14.09 20.59-21.08 30.92-3.44-2.25-6.81-4.6-10.2-6.9C802.8 272.7 749.4 236.32 696 199.94c-3.67-2.49-7.32-4.99-10.99-7.46z"/>
    <path fill="#989898" d="M200.58 78.5c2.18-1.7 5.78-2.3 7.69.12 29.11 30.53 58.21 61.06 87.29 91.6-52.34 35.67-104.71 71.3-157.04 106.99-17.66-38.22-35.61-76.32-53.36-114.5-1.62-2.56.02-5.73 2.35-7.17 11.53-7.9 23.09-15.74 34.64-23.61 7.99 11.66 15.86 23.4 23.96 34.98 13.52-9.04 26.87-18.35 40.4-27.4 1.28-.88 3.53-2.17 1.77-3.83-7.49-11.17-15.16-22.22-22.72-33.35 11.69-7.91 23.34-15.89 35.02-23.83zM804.18 81.22c1.47-1.38 2.7-3.43 4.88-3.7 2.57-.33 4.71 1.38 6.72 2.72a6670.44 6670.44 0 0 0 32.6 22.2c-7.92 11.59-15.86 23.16-23.73 34.79 14.14 10.27 28.81 19.81 43.24 29.69 8.1-11.54 15.91-23.27 23.9-34.88 11.74 8.01 23.51 15.98 35.24 24.02 2.37 1.47 3.89 4.69 2.27 7.26-17.77 37.96-35.4 75.99-53.24 113.92-52.3-35.6-104.56-71.23-156.86-106.83 28.33-29.73 56.68-59.43 84.98-89.19z"/>
    <path fill="#ffcc41" d="M158.15 309.16c53.44-36.39 106.87-72.79 160.31-109.19 1.84 2.69 3.17 5.72 5.28 8.22l.03.35c.24 5.15 1.22 10.37.1 15.49-1.52 7.98-6.79 14.91-13.57 19.23-36.71 24.98-73.35 50.04-110.07 75.01-6.11 4.22-13.85 6.07-21.2 4.87-4.95-.72-9.53-2.98-13.75-5.58-2.6-2.6-5.18-5.26-7.13-8.4zM696 199.94c53.4 36.38 106.8 72.76 160.21 109.13-2.03 3.65-5.2 6.39-7.87 9.54-6.01 3.09-12.49 5.98-19.43 5.34-9.43-.16-16.98-6.37-24.37-11.45-31.92-21.74-63.8-43.52-95.72-65.26-3.74-2.6-7.72-4.93-10.96-8.16-6.05-6.26-9.29-15.31-8.07-23.98.31-2.57.72-5.12 1.27-7.64 1.57-2.55 3.26-5.03 4.94-7.52zM507.85 278.62c.2-1.9 3.22-1.56 2.92.44 2.03 13.34 3.71 26.73 5.7 40.07.19 2.34 2.16 4.14 4.41 4.54 6.88 1.78 13.84 3.24 20.69 5.11 1.35.18 1.54 2.49.16 2.72-7.18 2.07-14.56 3.42-21.74 5.48-1.87.47-3.23 2.13-3.48 4.02-1.9 13.62-3.6 27.28-5.77 40.85-.17 1.85-3.33 1.32-3.04-.44-2.02-13.45-3.73-26.95-5.72-40.41-.26-2.07-1.95-3.73-3.98-4.09-6.94-1.89-14.01-3.32-20.95-5.22-1.41-.48-2.13-2.27-.31-2.88 7.17-2.14 14.59-3.45 21.79-5.5 2.33-.59 3.49-2.87 3.67-5.11 2.03-13.17 3.63-26.41 5.65-39.58zM183.9 446.01c.57-2.52 4.37-1.35 3.95.99 3.83 27.61 7.54 55.23 11.33 82.84.34 4.32 3.69 7.97 7.91 8.82 13.61 3.42 27.23 6.82 40.86 10.21 1.43.22 2.68.96 3.7 1.98-.59 1.1-1.29 2.4-2.68 2.56-14.25 3.63-28.57 7.03-42.79 10.78-3.98 1.01-6.7 4.81-7.04 8.81-3.5 27.17-7.41 54.3-10.98 81.47-.35 1.28-.16 3.49-2.05 3.42-1.88.55-2.56-1.5-2.6-2.93-3.72-27.46-7.48-54.92-11.23-82.37-.41-4.07-3.44-7.56-7.42-8.51-14.38-3.71-28.87-7.06-43.21-10.93-2.07-.39-1.7-3.9.39-3.89 13.97-3.7 28.04-7.03 42.04-10.59 4.15-.81 7.7-4.17 8.15-8.47 4.1-28.03 7.63-56.15 11.67-84.19zM825.66 627.49c.35-1.75 2.83-1.03 2.77.53 2.62 17.35 4.87 34.77 7.49 52.13.23 2.47 2.01 4.65 4.41 5.32 9.43 2.51 19.01 4.45 28.43 6.99 1.52.21 1.24 2.74-.22 2.83-9.21 2.33-18.49 4.37-27.69 6.72-2.69.54-4.72 2.87-4.97 5.6-2.28 17.13-4.81 34.24-7.21 51.36-.03 1.61-1.24 2.33-2.75 1.92-1.2-2.78-1.14-5.88-1.65-8.81-2.21-15.09-4.2-30.21-6.52-45.27-.41-2.71-2.92-4.5-5.48-4.94-8.94-2.19-17.92-4.21-26.83-6.5-1.62-.03-2-2.75-.34-2.95 9.42-2.63 19.06-4.49 28.52-7.05 2.41-.64 4.06-2.9 4.3-5.33 2.81-17.48 4.87-35.09 7.74-52.55z"/>
    <path fill="#ffdb79" d="M653.83 252.96c12.44-15.14 24.63-30.49 37.23-45.5-.55 2.52-.96 5.07-1.27 7.64-1.22 8.67 2.02 17.72 8.07 23.98 3.24 3.23 7.22 5.56 10.96 8.16 31.92 21.74 63.8 43.52 95.72 65.26 7.39 5.08 14.94 11.29 24.37 11.45 6.94.64 13.42-2.25 19.43-5.34-30.89 63.56-62.22 126.92-93.25 190.41-16.87-3.65-34.42-1.91-51.09 1.97-.01-7.49.01-14.97 0-22.46-50.81-.07-101.61 0-152.41-.03-6.85-9.75-14.9-18.59-22.26-27.95-7.51-9.02-14.68-18.31-22.34-27.2-13.49 16.07-26.47 32.57-39.89 48.7-1.71 2.03-3.22 4.22-4.65 6.45-50.82.03-101.63-.04-152.45.03-.01 41.53.01 83.05-.01 124.58-47.2-96.16-94.32-192.35-141.51-288.51-1.15-2.31-2.32-4.61-3.2-7.04 4.22 2.6 8.8 4.86 13.75 5.58 7.35 1.2 15.09-.65 21.2-4.87 36.72-24.97 73.36-50.03 110.07-75.01 6.78-4.32 12.05-11.25 13.57-19.23 1.12-5.12.14-10.34-.1-15.49 25.82 31.09 51.12 62.65 76.74 93.92 35.5 43.56 70.98 87.13 106.49 130.68 48.96-60.04 97.88-120.12 146.83-180.18zM704.03 541.53c12.14-3.32 24.74-5.76 37.38-4.67-12.43 25.46-24.99 50.86-37.38 76.33-.05-23.89-.06-47.77 0-71.66zM197.5 813c39.15-48.04 78.28-96.09 117.44-144.12 9.63 37.02 34.18 69.77 66.83 89.66 1.32 4 3.28 7.74 5.18 11.49 7.03 14.32 14 28.66 21.06 42.97H197.5zM699.06 668.88c5.06 6.19 10.1 12.39 15.15 18.59-8.85 4.81-17.98 9.11-27.34 12.85 5.14-10.02 9.34-20.54 12.19-31.44zM655.6 741.31c27.15-6.32 53.34-16.77 77.57-30.53 27.82 34.03 55.55 68.15 83.33 102.22-70.16-.01-140.33 0-210.5 0 6.61-13.41 13.16-26.85 19.73-40.28 2.26-4.7 4.86-9.26 6.54-14.21 8.35-4.94 15.74-11.22 23.33-17.2z"/>
    <path fill="#ffbc39" d="M467.1 482.05c13.42-16.13 26.4-32.63 39.89-48.7 7.66 8.89 14.83 18.18 22.34 27.2 7.36 9.36 15.41 18.2 22.26 27.95h-89.14c1.43-2.23 2.94-4.42 4.65-6.45zM381.77 758.54c17.71 10.8 37.66 17.93 58.23 20.63V813c-10.66-.01-21.33 0-31.99 0-7.06-14.31-14.03-28.65-21.06-42.97-1.9-3.75-3.86-7.49-5.18-11.49zM574 779.18c20.59-2.72 40.56-9.84 58.27-20.67-1.68 4.95-4.28 9.51-6.54 14.21-6.57 13.43-13.12 26.87-19.73 40.28h-32v-33.82z"/>
    <path fill="#96dac9" d="M310 488.53c50.82-.07 101.63 0 152.45-.03h89.14c50.8.03 101.6-.04 152.41.03.01 7.49-.01 14.97 0 22.46-.06 10.18 0 20.36.03 30.54-.06 23.89-.05 47.77 0 71.66-.17 9.63.27 19.28-.47 28.89-.68 9.05-2.21 18.02-4.5 26.8-2.85 10.9-7.05 21.42-12.19 31.44-7.03 13.21-15.89 25.51-26.62 35.98-1.6 1.62-3.08 3.35-4.65 5.01-7.59 5.98-14.98 12.26-23.33 17.2-17.71 10.83-37.68 17.95-58.27 20.67-8.61 1.22-17.31 1.24-25.98 1.19-30.66-.03-61.32.07-91.98-.02-5.37-.03-10.72-.48-16.04-1.18-20.57-2.7-40.52-9.83-58.23-20.63-32.65-19.89-57.2-52.64-66.83-89.66-5.11-18.14-5.2-37.09-4.95-55.77.02-41.53 0-83.05.01-124.58m188.23 68.7c-3.75 4.26-2.56 10.66.67 14.85-7.46 10.13-15.06 20.15-22.64 30.19-3.25 4.32-7.75 8.15-13.29 8.89-6.59 1.26-13.63-1.07-18.22-5.95-4.53-4.73-9.43-9.11-13.71-14.07 1.39-2.3 3.11-4.53 3.71-7.2.91-5.95-3.9-11.96-9.82-12.65-2.96-.52-5.86.77-8.19 2.5-4.39 3.08-5.2 9.65-2.78 14.19 1.58 3.37 6.38 4.11 6.88 8.12 3.68 14.97 7.43 29.92 11.13 44.89.32 2.05 1.78 4.05 4.02 4.15 5.99.6 12.02.09 18.02.2 40.33.13 80.67-.16 121-.2 2.33-.11 5.42-.02 6.57-2.54 1.64-3.72 2.12-7.82 3.2-11.72 2.98-11.72 5.88-23.47 8.8-35.21.35-3.55 4.4-4.37 6.09-7.09 3.36-5.26 1.61-13.3-4.25-15.98-6.43-4.09-15.41 1.29-16.19 8.51-.72 3.81 1.86 7.04 3.8 10.04-4.47 5.14-9.53 9.72-14.28 14.58-6.1 6.12-16.3 7.61-23.79 3.24-5.3-3.31-8.47-8.88-12.26-13.66-5.78-7.83-11.75-15.51-17.4-23.42 3.32-4.36 4.1-11.08.01-15.23-4.18-5.32-13.24-4.96-17.08.57m-61.82 100.12c-3.25 1.5-3.08 5.61-3.12 8.64.22 3.87-.56 8 1.02 11.66.96 2.22 3.56 2.5 5.68 2.48 44.68-.04 89.36-.03 134.04-.01 1.89-.09 4.1-.05 5.52-1.53 1.96-1.98 1.4-5.01 1.56-7.52-.11-3.6.37-7.26-.4-10.8-.85-2.83-4.11-3.54-6.69-3.48-42.67.05-85.34.05-128.01.04-3.2.08-6.49-.32-9.6.52zM197.5 813h210.51c10.66 0 21.33-.01 31.99 0 44.67 0 89.33-.01 134 0h32c70.17 0 140.34-.01 210.5 0-16.31 12.84-32.64 25.65-48.94 38.49-173.7.02-347.41.01-521.11.01-16.31-12.84-32.64-25.66-48.95-38.5z"/>
    <path fill="#80cab7" d="M704 510.99c16.67-3.88 34.22-5.62 51.09-1.97 14.09 2.97 27.36 10.2 37.03 20.94 11.84 12.97 18.46 29.89 21.69 46.95 4.15 21.82.51 44.86-9.54 64.61-15.27 30.18-42.25 52.6-71.1 69.26-24.23 13.76-50.42 24.21-77.57 30.53 1.57-1.66 3.05-3.39 4.65-5.01 10.73-10.47 19.59-22.77 26.62-35.98 9.36-3.74 18.49-8.04 27.34-12.85 14.54-7.96 28.32-17.44 40.37-28.86 11.3-10.78 21.13-23.52 26.68-38.25 5.38-13.94 5.99-29.54 2.13-43.94-2.91-10.94-7.59-22-16.32-29.58-7.04-6.24-16.4-9.25-25.66-9.98-12.64-1.09-25.24 1.35-37.38 4.67-.03-10.18-.09-20.36-.03-30.54zM498.23 557.23c3.84-5.53 12.9-5.89 17.08-.57 4.09 4.15 3.31 10.87-.01 15.23 5.65 7.91 11.62 15.59 17.4 23.42 3.79 4.78 6.96 10.35 12.26 13.66 7.49 4.37 17.69 2.88 23.79-3.24 4.75-4.86 9.81-9.44 14.28-14.58-1.94-3-4.52-6.23-3.8-10.04.78-7.22 9.76-12.6 16.19-8.51 5.86 2.68 7.61 10.72 4.25 15.98-1.69 2.72-5.74 3.54-6.09 7.09-2.92 11.74-5.82 23.49-8.8 35.21-1.08 3.9-1.56 8-3.2 11.72-1.15 2.52-4.24 2.43-6.57 2.54-40.33.04-80.67.33-121 .2-6-.11-12.03.4-18.02-.2-2.24-.1-3.7-2.1-4.02-4.15-3.7-14.97-7.45-29.92-11.13-44.89-.5-4.01-5.3-4.75-6.88-8.12-2.42-4.54-1.61-11.11 2.78-14.19 2.33-1.73 5.23-3.02 8.19-2.5 5.92.69 10.73 6.7 9.82 12.65-.6 2.67-2.32 4.9-3.71 7.2 4.28 4.96 9.18 9.34 13.71 14.07 4.59 4.88 11.63 7.21 18.22 5.95 5.54-.74 10.04-4.57 13.29-8.89 7.58-10.04 15.18-20.06 22.64-30.19-3.23-4.19-4.42-10.59-.67-14.85zM436.41 657.35c3.11-.84 6.4-.44 9.6-.52 42.67.01 85.34.01 128.01-.04 2.58-.06 5.84.65 6.69 3.48.77 3.54.29 7.2.4 10.8-.16 2.51.4 5.54-1.56 7.52-1.42 1.48-3.63 1.44-5.52 1.53-44.68-.02-89.36-.03-134.04.01-2.12.02-4.72-.26-5.68-2.48-1.58-3.66-.8-7.79-1.02-11.66.04-3.03-.13-7.14 3.12-8.64zM440 779.17c5.32.7 10.67 1.15 16.04 1.18 30.66.09 61.32-.01 91.98.02 8.67.05 17.37.03 25.98-1.19V813c-44.67-.01-89.33 0-134 0v-33.83z"/>
</svg>
