<?xml version="1.0" encoding="utf-8"?>
<!-- Generator: Adobe Illustrator 23.0.4, SVG Export Plug-In . SVG Version: 6.00 Build 0)  -->
<svg version="1.1" id="Слой_1" xmlns="http://www.w3.org/2000/svg" xmlns:xlink="http://www.w3.org/1999/xlink" x="0px" y="0px"
	 viewBox="0 0 861.6 861.6" style="enable-background:new 0 0 861.6 861.6;" xml:space="preserve">
<style type="text/css">
	.st0{fill:#B8D0D9;}
	.st1{fill:#D5E7F2;}
	.st2{fill:#FBECE9;}
	.st3{fill:#F8CBC4;}
	.st4{fill:#C4E1D4;}
	.st5{fill:#E1F0E9;}
</style>
<path class="st0" d="M309.3,480.1c0.2-3.7,0.3-7.3,0.5-11c0-0.1,0-0.3,0-0.4H6.4c0.2,3.9,0.5,7.9,0.7,11.8h302.2
	C309.3,480.4,309.3,480.3,309.3,480.1z"/>
<path class="st1" d="M278.9,702.2c0.6-1.4,1.1-2.8,1.7-4.2l0.1-0.3c2.7-6.9,5-13.9,7.1-21c10-34,13.5-69.7,16.6-108.4
	c1.6-20.8,2.7-41.7,3.7-62.2l0.9-19.8l0.1-1.9H7.3c0.2,3.3,5.2,91.8,8.7,127.1c5.2,51.5,17.1,90.5,38.7,126.4l11.6,19.4
	c2.3,3.9,7.3,6.4,12.7,6.4h157.4c5.4,0,10.4-2.5,12.7-6.4l11.6-19.3c4-6.7,7.8-13.7,11.3-20.6l0.2-0.3c0.7-1.4,1.3-2.8,2-4.2
	c0.2-0.5,0.4-0.9,0.6-1.4c0.5-1.1,1-2.2,1.5-3.3c0.2-0.5,0.4-0.9,0.6-1.4c0.5-1.2,1-2.3,1.5-3.5
	C278.6,702.9,278.8,702.6,278.9,702.2z M18.5,512.3c-0.1-1.1-0.2-2.3-0.2-3.9c0-1.1,0.8-2,1.9-2.1s2,0.8,2.1,1.9
	c0,1.5,0.1,2.6,0.2,3.7c0.1,1.1,0.2,2.2,0.2,3.9c0,1.1-0.8,2-1.9,2.1c0,0,0,0,0,0h-0.1c-1.1,0-2-0.9-2-1.9
	C18.7,514.5,18.6,513.4,18.5,512.3z M26.5,602.8h-0.1c-1.1,0-1.9-0.8-2-1.9c-1.4-23.5-3-47.5-4.7-70.7l-0.6-9
	c-0.1-1.1,0.8-2.1,1.9-2.1s2.1,0.8,2.1,1.9l0.6,9c1.6,23.2,3.3,47.2,4.7,70.7C28.4,601.8,27.6,602.7,26.5,602.8z M276.3,677.8
	c-4.1,14.2-9.4,28-16,41.3c-3.5,7.1-7.3,14.1-11.4,20.9c-0.6,0.9-1.8,1.3-2.7,0.7s-1.3-1.8-0.7-2.7l0,0c4-6.6,7.7-13.3,11-20.2
	l0.2-0.5c3.1-6.3,6-12.8,8.6-19.5s5-13.8,7.1-21.1c0.3-1.1,1.4-1.7,2.5-1.4C276,675.7,276.6,676.8,276.3,677.8L276.3,677.8
	L276.3,677.8z M275.8,674.4c-0.2,0-0.4,0-0.5-0.1c-1.1-0.3-1.7-1.4-1.4-2.5c0,0,0,0,0,0c0.7-2.5,1.4-5.1,2-7.7
	c0.3-1.1,1.4-1.7,2.4-1.4s1.7,1.4,1.4,2.4c-0.6,2.6-1.3,5.2-2,7.8C277.5,673.8,276.7,674.4,275.8,674.4L275.8,674.4z"/>
<path class="st0" d="M313.9,467.6c-0.2,4.7-0.5,9.5-0.7,14.2c0,0.5,0,1-0.1,1.5c14.2,1.4,33.5,8.4,49.6,32.1
	c8.5,12.6,10.9,30.5,6.6,50.6c-3.7,17.4-11.8,35.7-24.1,54.2c-13.7,20.7-32.8,41.4-53.9,58.4c-2.8,9.6-6.2,19-10.1,28.2
	c-0.2,0.4-0.4,0.8-0.5,1.2c-0.4,1-0.9,2-1.3,3c-0.3,0.6-0.6,1.2-0.9,1.9c-0.4,0.8-0.8,1.7-1.1,2.5c-0.1,0.2-0.1,0.3-0.2,0.5
	c19.2-12,36.9-26.1,52.7-42.2c21.2-21.3,37.7-43.9,48.9-67.1c0.9-1.8,1.8-3.7,2.6-5.5c10.4-23.5,20-58.1,6.7-90.1
	c-16.3-39.3-52.7-54.3-73.5-57.4C314.4,458.2,314.2,462.9,313.9,467.6z"/>
<path class="st2" d="M480.7,422.4l11.6-19.4c4-6.7,7.8-13.6,11.2-20.5v-0.1c0.8-1.5,1.5-3.1,2.2-4.6l0.5-1.1
	c0.5-1.2,1.1-2.4,1.6-3.5c0.2-0.4,0.4-0.8,0.5-1.2c0.5-1.2,1.1-2.5,1.6-3.7c0.1-0.3,0.2-0.6,0.4-0.9c0.6-1.5,1.2-2.9,1.8-4.4
	l0.1-0.2c2.7-7,5-14,7.1-21.1c10-34,13.5-69.7,16.6-108.3c1.6-20.8,4.5-79.5,4.6-82l0.1-1.9H238.8c0.2,3.3,5.2,91.8,8.7,127.1
	c5.2,51.5,17.1,90.5,38.7,126.4l11.6,19.4c2.4,3.9,7.3,6.4,12.7,6.4h157.4C473.3,428.8,478.3,426.3,480.7,422.4z M505.4,336.9
	c0.7-2.5,1.4-5.1,2-7.7c0.3-1.1,1.4-1.7,2.4-1.4c1.1,0.3,1.7,1.4,1.4,2.4c-0.6,2.6-1.3,5.2-2,7.8c-0.2,0.9-1,1.5-1.9,1.5
	c-0.2,0-0.4,0-0.5-0.1C505.7,339.1,505.1,338,505.4,336.9C505.3,336.9,505.4,336.9,505.4,336.9L505.4,336.9z M477,403
	c4-6.6,7.7-13.3,11-20.1l0.2-0.5c3.1-6.3,6-12.8,8.6-19.5s5-13.8,7.1-21.1c0.3-1.1,1.4-1.7,2.5-1.4c1.1,0.3,1.7,1.4,1.4,2.5
	c-4.1,14.2-9.5,28-16,41.3c-3.5,7.1-7.3,14.1-11.4,20.9c-0.4,0.6-1,1-1.7,1c-0.4,0-0.7-0.1-1-0.3C476.7,405.2,476.4,404,477,403
	C477,403,477,403,477,403L477,403z M250.2,180.2c0-0.5-0.1-1-0.1-1.5v-0.5l0,0c0-0.1,0-0.2,0-0.4c0-1.1,0.8-2,1.9-2.1h0.1
	c1.1,0,2,0.9,2,1.9c0,0.3,0,0.5,0,0.8c0,0.5,0.1,1,0.1,1.5c0,0.2,0,0.7,0,0.9c0,1.1-0.8,2-1.9,2.1c0,0,0,0,0,0h-0.1
	c-1.1,0-2-0.9-2-1.9C250.3,180.8,250.2,180.5,250.2,180.2z M257.9,267.8h-0.1c-1.1,0-1.9-0.8-2-1.9c-1.4-23.5-3-47.5-4.7-70.7
	l-0.6-8.9c-0.1-1.1,0.8-2.1,1.9-2.1s2.1,0.8,2.1,1.9l0.6,8.9c1.6,23.2,3.3,47.2,4.7,70.8C259.9,266.8,259.1,267.7,257.9,267.8
	C258,267.8,258,267.8,257.9,267.8z"/>
<path class="st3" d="M594.3,180.4c8.5,12.6,10.9,30.5,6.7,50.6c-3.7,17.4-11.8,35.7-24.1,54.2c-13.7,20.6-32.9,41.4-53.9,58.4
	c-2.4,8-5.1,16-8.3,23.9l0,0c-0.6,1.4-1.2,2.8-1.8,4.2c-0.2,0.5-0.4,0.9-0.6,1.4c-0.4,1-0.9,2-1.3,2.9c-0.3,0.6-0.6,1.3-0.9,1.9
	c-0.4,0.8-0.7,1.6-1.1,2.4c-0.1,0.2-0.2,0.4-0.2,0.5c19.2-12,36.9-26.1,52.7-42.2c21.2-21.3,37.7-43.9,48.9-67.1
	c0.9-1.8,1.7-3.7,2.6-5.5c10.4-23.4,20-58.1,6.7-90.1c-16.3-39.2-52.7-54.2-73.5-57.3c-0.3,4.8-0.5,9.5-0.8,14.3
	c-0.2,4.9-0.5,9.7-0.7,14.5c0,0.3,0,0.6,0,0.9C558.8,149.7,578.1,156.6,594.3,180.4z"/>
<path class="st1" d="M310.9,449.9c0.3-5.7,0.7-11.4,1.1-17.1H4.1c0.8,10.7,1.4,21.4,2.1,32h303.9
	C310.3,459.8,310.6,454.9,310.9,449.9z"/>
<path class="st3" d="M540.8,145.3c0.2-3.6,0.3-7.3,0.5-10.9v-0.7H237.9c0.2,3.9,0.5,7.9,0.7,11.8h302.1
	C540.8,145.4,540.8,145.4,540.8,145.3z"/>
<path class="st2" d="M542.3,114.9c0.3-5.7,0.7-11.4,1.1-17.2H235.6c0.8,10.7,1.4,21.4,2.1,32h303.9
	C541.8,124.8,542.1,119.9,542.3,114.9z"/>
<path class="st4" d="M772.3,480.4c0.2-3.8,0.4-7.6,0.6-11.4c0-0.1,0-0.2,0-0.3H469.4c0.2,3.9,0.5,7.9,0.7,11.8L772.3,480.4
	L772.3,480.4z"/>
<path class="st4" d="M777.6,453.5c-0.3,4.7-0.5,9.3-0.7,14c-0.3,5-0.5,10.1-0.7,15.1l0,0v0.7c14.2,1.4,33.5,8.4,49.6,32.1
	c8.5,12.6,10.9,30.5,6.7,50.6c-3.7,17.4-11.8,35.7-24.1,54.2c-13.7,20.7-32.8,41.4-53.8,58.4c-2.4,8-5.1,16-8.3,23.9v0.1
	c-0.6,1.4-1.1,2.8-1.7,4.2c-0.2,0.5-0.4,1-0.6,1.4c-0.4,1-0.8,1.9-1.2,2.9l-0.9,2.1l-1,2.2l-0.3,0.6c19.1-12,36.8-26.1,52.6-42.2
	c21.2-21.3,37.7-43.9,48.9-67.1c0.9-1.8,1.7-3.7,2.6-5.5c10.4-23.4,20-58.1,6.7-90.1C834.9,471.6,798.4,456.6,777.6,453.5z"/>
<path class="st5" d="M741.9,702.3c0.6-1.4,1.2-2.9,1.7-4.3l0.1-0.2c2.7-6.9,5-14,7.1-21c10-34,13.5-69.7,16.6-108.4
	c1.6-20.8,2.7-41.7,3.7-62.2l0.6-11.9c0-0.1,0-0.3,0-0.4l0.4-7.5l0.1-1.9H470.3c0.2,3.3,5.2,91.8,8.7,127.1
	c5.2,51.5,17.1,90.5,38.7,126.4l11.6,19.4c2.3,3.9,7.3,6.4,12.7,6.4h157.4c5.4,0,10.3-2.5,12.7-6.4l11.6-19.3
	c4-6.7,7.8-13.6,11.2-20.5c0,0,0-0.1,0-0.1c0.8-1.5,1.5-3.1,2.2-4.6c0.2-0.4,0.3-0.8,0.5-1.2c0.5-1.2,1.1-2.4,1.6-3.5
	c0.2-0.4,0.3-0.8,0.5-1.2c0.5-1.2,1-2.4,1.6-3.7C741.6,702.9,741.7,702.6,741.9,702.3z M481.5,512.3c-0.1-1.1-0.2-2.3-0.2-3.9
	c0-1.1,0.8-2,1.9-2.1c0,0,0,0,0,0h0.1c1.1,0,2,0.9,2,1.9c0,1.5,0.1,2.6,0.2,3.7s0.2,2.2,0.2,3.9c0,1.1-0.8,2-1.9,2.1c0,0,0,0,0,0
	h-0.1c-1.1,0-2-0.9-2-1.9C481.7,514.5,481.6,513.4,481.5,512.3L481.5,512.3z M489.4,602.8h-0.1c-1.1,0-1.9-0.8-2-1.9
	c-1.4-23.5-3-47.4-4.7-70.5l-0.6-9.1c-0.1-1.1,0.8-2.1,1.9-2.1c1.1-0.1,2,0.8,2.1,1.9l0.6,9.1c1.6,23.1,3.3,47.1,4.7,70.6
	C491.4,601.8,490.5,602.7,489.4,602.8z M739.3,677.8c-4.1,14.2-9.5,28-16,41.3c-3.5,7.1-7.3,14.1-11.4,20.9c-0.4,0.6-1,1-1.7,1
	c-1.1,0-2-0.9-2-2c0-0.3,0.1-0.7,0.3-1c4-6.6,7.7-13.3,11-20.2c0.1-0.2,0.2-0.3,0.2-0.5c3.1-6.3,6-12.8,8.6-19.5s5-13.8,7.1-21.1
	c0.3-1.1,1.4-1.7,2.5-1.4C738.9,675.7,739.6,676.8,739.3,677.8L739.3,677.8L739.3,677.8z M738.8,674.4c-0.2,0-0.4,0-0.5-0.1
	c-1.1-0.3-1.7-1.4-1.4-2.5c0,0,0,0,0,0c0.7-2.5,1.4-5.1,2-7.7c0.3-1.1,1.4-1.7,2.4-1.4s1.7,1.4,1.4,2.4c-0.7,2.6-1.3,5.2-2,7.8
	C740.5,673.8,739.7,674.4,738.8,674.4L738.8,674.4z"/>
<path class="st5" d="M773.8,449.9c0.3-5.7,0.7-11.4,1-17.1H467.1c0.8,10.7,1.5,21.4,2.1,32H773C773.3,459.8,773.5,454.9,773.8,449.9
	z"/>
<path d="M23,521c-0.1-1.1-1-1.9-2.1-1.9c-1.1,0.1-1.9,1-1.9,2.1l0.6,9c1.6,23.2,3.3,47.1,4.7,70.7c0.1,1.1,0.9,1.9,2,1.9h0.1
	c1.1-0.1,1.9-1,1.9-2.1c-1.4-23.6-3-47.5-4.7-70.7L23,521z"/>
<path d="M20.8,517.9L20.8,517.9c1.2,0,2-1,2-2.1c0,0,0,0,0,0c-0.1-1.6-0.1-2.8-0.2-3.9s-0.2-2.2-0.2-3.7c0-1.1-1-2-2.1-1.9
	s-2,1-1.9,2.1c0.1,1.6,0.1,2.8,0.2,3.9c0.1,1.1,0.2,2.2,0.2,3.7C18.8,517.1,19.7,517.9,20.8,517.9z"/>
<path d="M278.3,662.8c-1.1-0.3-2.2,0.4-2.4,1.5c-0.6,2.6-1.3,5.2-2,7.7c-0.3,1.1,0.3,2.2,1.4,2.5c0,0,0,0,0,0
	c1.1,0.3,2.2-0.3,2.5-1.4c0,0,0,0,0,0c0.7-2.6,1.4-5.2,2-7.8C280,664.1,279.4,663.1,278.3,662.8z"/>
<path d="M274.9,675.4c-1.1-0.3-2.2,0.3-2.5,1.3c0,0,0,0,0,0c-2.1,7.4-4.5,14.4-7.1,21.1s-5.4,13.2-8.6,19.5l-0.2,0.5
	c-3.4,6.8-7.1,13.6-11,20.2c-0.6,0.9-0.3,2.2,0.7,2.7s2.2,0.3,2.7-0.7c4.1-6.8,7.9-13.8,11.4-20.9c6.5-13.3,11.9-27.1,16-41.3
	C276.6,676.8,276,675.7,274.9,675.4C275,675.4,275,675.4,274.9,675.4z"/>
<path d="M777.9,449.6c0.3-6.2,0.7-12.4,1.2-18.6c0.1-1.1-0.8-2.1-1.9-2.1c0,0-0.1,0-0.1,0H480.2c1.6-1.2,2.9-2.7,3.9-4.4l11.6-19.4
	c3.5-5.7,6.7-11.6,9.7-17.5c21.5-12.7,41.3-28.2,58.9-46c21.5-21.7,38.2-44.6,49.7-68.2c0.9-1.9,1.8-3.8,2.6-5.6
	c10.7-24.2,20.5-60,6.8-93.2c-20-48.2-65.2-58-77-59.8c0.4-6.2,0.7-12.4,1.2-18.6c0-0.6-0.2-1.1-0.5-1.5c-0.4-0.4-0.9-0.6-1.4-0.7
	H233.4c-0.6,0-1.1,0.2-1.5,0.6c-0.4,0.4-0.6,0.9-0.5,1.5c0.9,12,1.6,24,2.4,35.9l0,0c0.3,5.3,0.6,10.5,0.9,15.8l0,0
	c0.2,4.3,5.3,93.6,8.9,129.4c5.2,52.1,17.3,91.6,39.2,128.1l11.6,19.4c1,1.7,2.4,3.2,3.9,4.4H1.9c-1.1,0-2,0.9-2,2c0,0,0,0.1,0,0.1
	c0.9,12,1.6,24,2.3,35.9l0,0c0.3,5.3,0.6,10.5,0.9,15.8l0,0c0.2,4.3,5.3,93.6,8.9,129.4c5.2,52.2,17.3,91.6,39.2,128.1l11.7,19.4
	c3.1,5.2,9.3,8.4,16.1,8.4h157.4c6.8,0,13-3.2,16.1-8.4l11.6-19.3c3.5-5.7,6.7-11.6,9.7-17.5c21.5-12.7,41.3-28.2,58.9-46
	c21.5-21.7,38.2-44.6,49.6-68.2c0.9-1.9,1.8-3.8,2.6-5.7c10.7-24.2,20.6-60,6.8-93.2c-20-48.2-65.2-58-77-59.8
	c0.3-5.6,0.7-11.2,1-16.8h147.2c0.8,11.4,1.5,22.8,2.2,34.1l0,0c0.3,5.3,0.6,10.5,0.9,15.8l0,0c0.2,4.3,5.3,93.6,8.9,129.4
	c5.2,52.1,17.3,91.6,39.2,128.1l11.7,19.3c3.1,5.2,9.3,8.4,16.1,8.4h157.4c6.8,0,13-3.2,16.1-8.4l11.6-19.3
	c3.5-5.7,6.7-11.6,9.7-17.5c21.5-12.7,41.3-28.2,58.8-46c21.5-21.7,38.2-44.6,49.7-68.2c0.9-1.9,1.8-3.8,2.6-5.7
	c10.7-24.2,20.6-60,6.8-93.2C834.9,461.2,789.6,451.3,777.9,449.6z M775.9,487.2c13.3,1.4,31.3,8,46.5,30.4
	c7.9,11.7,10.1,28.5,6,47.5c-3.6,17-11.5,34.7-23.5,52.8c-12.5,18.9-29.6,37.9-48.6,53.9c8.8-32.5,12.1-66.5,15-103.1
	c1.7-21.2,4.2-74.1,4.3-74.6C775.7,491.8,775.8,489.5,775.9,487.2z M544.7,147.4c0.2-4.8,0.5-9.7,0.7-14.6c0.2-4.7,0.5-9.5,0.8-14.3
	c20.8,3.1,57.2,18.1,73.5,57.3c13.2,32,3.7,66.7-6.7,90.1c-0.8,1.9-1.7,3.7-2.6,5.5c-11.2,23.2-27.7,45.8-48.9,67.1
	c-15.9,16.1-33.6,30.3-52.7,42.2c0.1-0.2,0.2-0.4,0.2-0.5c0.4-0.8,0.7-1.6,1.1-2.4c0.3-0.6,0.6-1.3,0.9-1.9c0.4-1,0.9-2,1.3-2.9
	c0.2-0.5,0.4-0.9,0.6-1.4c0.6-1.4,1.2-2.8,1.8-4.2l0,0c3.2-7.9,5.9-15.8,8.3-23.9c21-17,40.1-37.8,53.9-58.4
	c12.3-18.5,20.4-36.7,24.1-54.2c4.3-20.1,1.9-38-6.7-50.6c-16.2-23.8-35.5-30.7-49.6-32.1C544.7,148,544.7,147.7,544.7,147.4z
	 M590.9,182.6c7.9,11.7,10.1,28.5,6,47.5c-3.6,17-11.5,34.7-23.5,52.8c-12.5,18.9-29.6,37.9-48.5,53.9c8.8-32.5,12.1-66.5,15-103.1
	c1.7-21.2,4.5-79.1,4.6-81.4C557.7,153.6,575.7,160.3,590.9,182.6z M235.6,97.8h307.8c-0.4,5.7-0.7,11.5-1.1,17.2
	c-0.3,5-0.5,9.9-0.8,14.9H237.7C237,119.1,236.3,108.5,235.6,97.8z M237.9,133.8h303.4v0.6c-0.2,3.6-0.4,7.3-0.5,10.9
	c0,0.1,0,0.1,0,0.2H238.6C238.4,141.6,238.1,137.7,237.9,133.8z M4.1,432.8h307.8c-0.4,5.7-0.7,11.4-1.1,17.1
	c-0.3,5-0.5,9.9-0.8,14.8H6.2C5.5,454.1,4.9,443.5,4.1,432.8z M312.9,487.2c13.3,1.4,31.3,8,46.5,30.4c7.9,11.7,10.1,28.5,6,47.5
	c-3.6,17-11.5,34.7-23.5,52.8c-12.5,18.9-29.6,37.9-48.6,53.9c8.8-32.5,12.1-66.5,15-103.1C310,547.4,312.9,489.5,312.9,487.2z
	 M6.4,468.8h303.4c0,0.1,0,0.3,0,0.4c-0.2,3.7-0.4,7.3-0.5,11c0,0.1,0,0.2,0,0.4H7.1C6.9,476.6,6.7,472.7,6.4,468.8z M276.4,708.2
	c-0.5,1.1-1,2.2-1.5,3.3c-0.2,0.5-0.4,1-0.6,1.4c-0.7,1.4-1.3,2.8-2,4.2l-0.2,0.3c-3.4,7-7.2,13.9-11.3,20.6l-11.6,19.3
	c-2.4,3.9-7.3,6.4-12.7,6.4H79.1c-5.4,0-10.3-2.5-12.7-6.4L54.7,738C33.1,702.1,21.2,663.1,16,611.6c-3.5-35.2-8.5-123.8-8.7-127.1
	h301.8l-0.1,1.9l-0.9,19.8c-1,20.5-2.1,41.4-3.7,62.2c-3,38.6-6.6,74.4-16.6,108.4c-2.1,7.1-4.4,14.1-7.1,21l-0.1,0.3
	c-0.5,1.4-1.1,2.8-1.7,4.2c-0.1,0.3-0.3,0.7-0.4,1c-0.5,1.2-1,2.3-1.5,3.5C276.8,707.2,276.6,707.7,276.4,708.2L276.4,708.2z
	 M388.2,510.9c13.2,32,3.6,66.6-6.7,90.1c-0.8,1.8-1.7,3.7-2.6,5.5c-11.2,23.2-27.6,45.8-48.9,67.1c-15.9,16.1-33.6,30.3-52.7,42.2
	c0.1-0.2,0.1-0.3,0.2-0.5c0.4-0.8,0.8-1.7,1.1-2.5c0.3-0.6,0.6-1.2,0.9-1.9c0.5-1,0.9-2,1.3-3c0.2-0.4,0.4-0.8,0.5-1.2
	c3.9-9.2,7.3-18.6,10.1-28.2c21-17,40.1-37.8,53.9-58.4c12.3-18.5,20.4-36.7,24.1-54.2c4.3-20,1.9-38-6.6-50.6
	c-16.1-23.8-35.4-30.7-49.6-32.1c0-0.5,0-1,0.1-1.5c0.2-4.7,0.4-9.4,0.7-14.2c0.2-4.6,0.5-9.3,0.8-14
	C335.5,456.6,371.9,471.6,388.2,510.9z M310.6,428.8c-5.4,0-10.4-2.5-12.7-6.4L286.2,403c-21.6-35.9-33.5-74.9-38.7-126.4
	c-3.5-35.2-8.5-123.8-8.7-127.1h301.8l-0.1,1.9c-0.1,2.5-3,61.2-4.6,82c-3,38.6-6.6,74.4-16.6,108.3c-2.1,7.1-4.4,14.1-7.1,21.1
	l-0.1,0.2c-0.6,1.5-1.2,2.9-1.8,4.4c-0.1,0.3-0.2,0.6-0.4,0.9c-0.5,1.2-1,2.5-1.6,3.7c-0.2,0.4-0.3,0.8-0.5,1.2
	c-0.5,1.2-1.1,2.4-1.6,3.5l-0.5,1.1c-0.7,1.5-1.5,3.1-2.2,4.6v0.1c-3.4,6.9-7.2,13.8-11.2,20.5l-11.6,19.4
	c-2.4,3.9-7.3,6.4-12.7,6.4L310.6,428.8z M467.1,432.8h307.8c-0.4,5.7-0.7,11.4-1,17.1c-0.3,5-0.5,9.9-0.8,14.8H469.1
	C468.5,454.1,467.8,443.5,467.1,432.8z M469.4,468.8h303.4c0,0.1,0,0.2,0,0.3c-0.2,3.8-0.4,7.6-0.6,11.4v0.1H470.1
	C469.8,476.6,469.6,472.7,469.4,468.8z M739.4,708.1c-0.5,1.2-1.1,2.4-1.6,3.5c-0.2,0.4-0.3,0.8-0.5,1.2c-0.7,1.5-1.5,3.1-2.2,4.6
	c0,0,0,0.1,0,0.1c-3.4,6.9-7.2,13.8-11.2,20.5l-11.6,19.3c-2.3,3.9-7.3,6.4-12.7,6.4H542.1c-5.4,0-10.3-2.5-12.7-6.4L517.7,738
	c-21.6-35.9-33.5-74.9-38.7-126.4c-3.5-35.2-8.5-123.8-8.7-127.1h301.8l-0.1,1.8l-0.4,7.5c0,0.1,0,0.3,0,0.4l-0.6,11.9
	c-1,20.5-2.1,41.4-3.7,62.2c-3,38.6-6.6,74.4-16.6,108.4c-2.1,7.1-4.4,14.1-7.1,21l-0.1,0.2c-0.6,1.5-1.1,2.9-1.7,4.3
	c-0.1,0.3-0.2,0.6-0.4,0.9c-0.5,1.2-1,2.5-1.6,3.7C739.8,707.3,739.6,707.7,739.4,708.1L739.4,708.1z M844.4,601
	c-0.8,1.8-1.7,3.7-2.6,5.5c-11.2,23.2-27.6,45.8-48.9,67.1c-15.9,16.1-33.5,30.3-52.7,42.2l0.3-0.6l1-2.2l0.9-2.1
	c0.4-1,0.8-1.9,1.2-2.9c0.2-0.5,0.4-1,0.6-1.4c0.6-1.4,1.2-2.8,1.7-4.2v-0.1c3.2-7.9,5.9-15.8,8.3-23.9c21-17,40.1-37.8,53.8-58.4
	c12.3-18.5,20.4-36.7,24.1-54.2c4.2-20,1.9-38-6.7-50.6c-16.1-23.8-35.4-30.7-49.6-32.1v-0.7l0,0c0.2-5,0.5-10,0.7-15.1
	c0.2-4.7,0.5-9.3,0.7-14c20.8,3.1,57.2,18.1,73.5,57.4C864.4,542.9,854.8,577.5,844.4,601L844.4,601z"/>
<path d="M486,521c-0.1-1.1-1-1.9-2.1-1.9c-1.1,0.1-1.9,1-1.9,2.1l0.6,9.1c1.6,23.1,3.3,47,4.7,70.5c0.1,1.1,0.9,1.9,2,1.9h0.1
	c1.1-0.1,1.9-1,1.9-2.1c-1.3-23.5-3-47.4-4.7-70.6L486,521z"/>
<path d="M483.7,517.9L483.7,517.9c1.2,0,2-1,2-2.1c0,0,0,0,0,0c0-1.6-0.1-2.8-0.2-3.9s-0.2-2.2-0.2-3.7c0-1.1-0.9-1.9-2-1.9h-0.1
	c-1.1,0-2,1-1.9,2.1c0,0,0,0,0,0c0,1.6,0.1,2.8,0.2,3.9c0.1,1.1,0.2,2.2,0.2,3.7C481.8,517.1,482.7,517.9,483.7,517.9z"/>
<path d="M741.3,662.8c-1.1-0.3-2.2,0.4-2.4,1.5c-0.6,2.6-1.3,5.2-2,7.7c-0.3,1.1,0.3,2.2,1.4,2.5c0,0,0,0,0,0c0.2,0,0.4,0.1,0.5,0.1
	c0.9,0,1.7-0.6,1.9-1.5c0.7-2.5,1.4-5.2,2-7.8C743,664.1,742.3,663.1,741.3,662.8z"/>
<path d="M737.9,675.4c-1.1-0.3-2.2,0.3-2.5,1.4c-2.2,7.4-4.5,14.4-7.1,21.1s-5.4,13.2-8.6,19.5c-0.1,0.2-0.2,0.3-0.2,0.5
	c-3.4,6.8-7.1,13.6-11,20.2c-0.6,1-0.2,2.2,0.7,2.7c0.3,0.2,0.6,0.3,1,0.3c0.7,0,1.4-0.4,1.7-1c4.1-6.8,8-13.8,11.4-20.9
	c6.5-13.3,11.9-27.1,16-41.3C739.7,676.7,739,675.6,737.9,675.4z"/>
<path d="M254.5,186c-0.1-1.1-1-1.9-2.1-1.9s-1.9,1-1.9,2.1l0.6,8.9c1.6,23.2,3.3,47.2,4.7,70.7c0.1,1.1,0.9,1.9,2,1.9h0.1
	c1.1-0.1,1.9-1,1.9-2.1c-1.4-23.6-3-47.6-4.7-70.8L254.5,186z"/>
<path d="M252.3,182.9L252.3,182.9c1.2,0,2-1,2-2.1c0,0,0,0,0,0c0-0.1,0-0.7,0-0.9c0-0.6-0.1-1.1-0.1-1.5c0-0.2,0-0.5,0-0.8
	c0-1.1-0.9-1.9-2-1.9h-0.1c-1.1,0-2,1-1.9,2.1c0,0,0,0,0,0c0,0.1,0,0.2,0,0.4l0,0v0.5c0,0.6,0.1,1.1,0.1,1.5c0,0.2,0,0.5,0,0.8
	C250.3,182.1,251.2,182.9,252.3,182.9z"/>
<path d="M506.8,339.3c0.2,0,0.4,0.1,0.5,0.1c0.9,0,1.7-0.6,1.9-1.5c0.7-2.5,1.4-5.2,2-7.8c0.3-1.1-0.4-2.2-1.4-2.4
	c-1.1-0.3-2.2,0.4-2.4,1.4c-0.6,2.6-1.3,5.2-2,7.7C505,337.9,505.6,339,506.8,339.3C506.7,339.3,506.7,339.3,506.8,339.3z"/>
<path d="M477.7,405.8c0.3,0.2,0.6,0.3,1,0.3c0.7,0,1.4-0.4,1.7-1c4.1-6.8,7.9-13.8,11.4-20.9c6.5-13.3,11.9-27.1,16-41.3
	c0.3-1.1-0.3-2.2-1.4-2.5c-1.1-0.3-2.2,0.3-2.5,1.4l0,0c-2.2,7.4-4.5,14.4-7.1,21.1s-5.4,13.2-8.6,19.5l-0.2,0.5
	c-3.4,6.8-7.1,13.6-11,20.1C476.5,403.9,476.7,405.2,477.7,405.8C477.7,405.8,477.7,405.8,477.7,405.8z"/>
</svg>
