<?xml version="1.0" encoding="utf-8"?>
<!-- Generator: Adobe Illustrator 23.0.4, SVG Export Plug-In . SVG Version: 6.00 Build 0)  -->
<svg version="1.1" id="_x31_" xmlns="http://www.w3.org/2000/svg" xmlns:xlink="http://www.w3.org/1999/xlink" x="0px" y="0px"
	 viewBox="0 0 77.2 82.6" enable-background="new 0 0 77.2 82.6" xml:space="preserve">
<g id="_x36_">
	<g>
		<g>
			<g>
				<polygon fill="#40AABC" points="16.6,33.8 16.5,33.9 24.1,48.5 38.6,34 38.6,33.8 				"/>
				<polygon fill="#7EEDED" points="24.1,48.5 38.6,48.5 38.6,34 				"/>
			</g>
			<polygon fill="#40AABC" points="38.6,48.5 24.1,48.5 38.6,82 			"/>
		</g>
		<g>
			<path fill="#4CBDC9" d="M16.5,33.9L0.1,48.5h13.2C13.9,46.4,16.6,33.8,16.5,33.9z"/>
			<path fill="#63CBD6" d="M24.1,48.5l-7.6-14.6c0.1-0.1-2.7,12.5-3.3,14.6H24.1z"/>
			<path fill="#4CBDC9" d="M13.1,48.8C13,48.5,32,73.5,38.6,82.2V82L24.1,48.5H13.2C13.2,48.7,13.1,48.8,13.1,48.8z"/>
			<path fill="#40AABC" d="M13.1,48.8c0,0,0.1-0.1,0.1-0.3H0.1L0,48.5l38.6,34.1v-0.4C32,73.5,13,48.5,13.1,48.8z"/>
		</g>
	</g>
	<g>
		<g>
			<g>
				<polygon fill="#7EEDED" points="60.6,33.8 60.7,33.9 53.1,48.5 38.6,34 38.6,33.8 				"/>
				<polygon fill="#40AABC" points="53.1,48.5 38.6,48.5 38.6,34 				"/>
			</g>
			<polygon fill="#4CBDC9" points="38.6,48.5 53.1,48.5 38.6,82 			"/>
		</g>
		<g>
			<path fill="#7EEDED" d="M60.7,33.9l16.5,14.6H64C63.3,46.4,60.6,33.8,60.7,33.9z"/>
			<path fill="#63CBD6" d="M53.1,48.5l7.6-14.6c-0.1-0.1,2.7,12.5,3.3,14.6H53.1z"/>
			<path fill="#40AABC" d="M64.1,48.8c0.1-0.2-18.9,24.8-25.5,33.4V82l14.5-33.5H64C64,48.7,64.1,48.8,64.1,48.8z"/>
			<path fill="#63CBD6" d="M64.1,48.8c0,0-0.1-0.1-0.1-0.3h13.2l0.1,0.1L38.6,82.6v-0.4C45.2,73.5,64.2,48.5,64.1,48.8z"/>
		</g>
	</g>
	<g>
		<polygon fill="#FFFFFF" points="56.3,50.1 67.6,48.8 56.3,47.4 54.9,36.1 53.6,47.4 42.3,48.8 53.6,50.1 54.9,61.4 		"/>
		<polygon fill="#FFFFFF" points="54.9,50.2 61.3,55.1 56.3,48.8 61.3,42.4 54.9,47.4 48.6,42.4 53.5,48.8 48.6,55.1 		"/>
		<polygon fill="#F4D954" points="19.3,23.8 25.7,28.8 20.7,22.4 25.7,16 19.3,21 12.9,16 17.9,22.4 12.9,28.8 		"/>
		<polygon fill="#F4D954" points="60,11.4 69.3,18.8 62,9.4 69.3,0 60,7.3 50.6,0 57.9,9.4 50.6,18.8 		"/>
	</g>
</g>
</svg>
