<?xml version="1.0" encoding="utf-8"?>
<!-- Generator: Adobe Illustrator 23.0.4, SVG Export Plug-In . SVG Version: 6.00 Build 0)  -->
<svg version="1.1" id="Слой_1" xmlns="http://www.w3.org/2000/svg" xmlns:xlink="http://www.w3.org/1999/xlink" x="0px" y="0px"
	 viewBox="0 0 826 826" style="enable-background:new 0 0 826 826;" xml:space="preserve">
<style type="text/css">
	.st0{fill:#FBE0DC;}
	.st1{fill:#EFB19E;}
	.st2{fill:#E1F0E9;}
	.st3{fill:#C4E1D4;}
	.st4{fill:#F7F4C7;}
	.st5{fill:#F7DF89;}
	.st6{fill:#FCFBE9;}
</style>
<polygon class="st0" points="399.1,633.5 397.1,633.5 320.5,633.5 318.5,633.5 316.5,633.5 241.2,633.5 241.2,699.9 316.5,699.9 
	318.5,699.9 320.5,699.9 397.1,699.9 399.1,699.9 401.1,699.9 426.4,699.9 426.4,633.5 401.1,633.5 "/>
<polygon class="st1" points="316.5,747.8 318.5,747.8 320.5,747.8 397.1,747.8 399.1,747.8 401.1,747.8 426.4,747.8 426.4,703.9 
	401.1,703.9 399.1,703.9 397.1,703.9 320.5,703.9 318.5,703.9 316.5,703.9 241.2,703.9 239.1,703.9 237.1,703.9 193.2,703.9 
	191.2,703.9 189.2,703.9 88.3,703.9 86.3,703.9 84.3,703.9 4,703.9 4,747.8 84.3,747.8 86.3,747.8 88.3,747.8 97.3,747.8 
	99.3,747.8 101.3,747.8 189.2,747.8 191.2,747.8 193.2,747.8 237.1,747.8 239.1,747.8 241.2,747.8 "/>
<path class="st2" d="M612.8,425.2H401.1v204.3h27.3c1.1,0,2,0.9,2,2v186.8h198.8V425.2H612.8L612.8,425.2z"/>
<polygon class="st3" points="642.2,387.2 642.2,384.4 642.2,381.5 642.2,357.8 624,357.8 621.1,357.8 618.3,357.8 614.8,357.8 
	612.8,357.8 610.8,357.8 563.1,357.8 560.3,357.8 557.5,357.8 515.4,357.8 512.6,357.8 509.8,357.8 465.2,357.8 463.2,357.8 
	461.1,357.8 401.1,357.8 401.1,421.2 461.1,421.2 463.2,421.2 465.2,421.2 494,421.2 496.8,421.2 499.7,421.2 554.8,421.2 
	557.7,421.2 560.5,421.2 602.5,421.2 605.4,421.2 608.2,421.2 610.8,421.2 612.8,421.2 614.8,421.2 631.2,421.2 642.2,421.2 "/>
<path class="st4" d="M644.7,117.2h-29.9v236.5h29.5c1.1,0,2,0.9,2,2v67.5c0,1.1-0.9,2-2,2h-11v393h39.2v-701H644.7z"/>
<polygon class="st0" points="399.1,751.9 397.1,751.9 320.5,751.9 318.5,751.9 316.5,751.9 241.2,751.9 241.2,818.2 316.5,818.2 
	318.5,818.2 320.5,818.2 397.1,818.2 399.1,818.2 401.1,818.2 426.4,818.2 426.4,751.9 401.1,751.9 "/>
<path class="st2" d="M316.5,425.2H88.4v204.3h124.7l-48.7-48.7c-0.8-0.8-0.8-2.1,0-2.8c0.3-0.3,0.6-0.5,1-0.6l16.1-3l2.9-16.1
	c0.2-1.1,1.2-1.8,2.3-1.6c0.4,0.1,0.8,0.3,1.1,0.6l27.3,27.3l27.3-27.3c0.8-0.8,2.1-0.8,2.8,0c0.3,0.3,0.5,0.7,0.6,1.1l2.9,16.1
	l16.1,3c1.1,0.2,1.8,1.3,1.6,2.3c-0.1,0.4-0.3,0.8-0.6,1.1l-48.7,48.7h99.1L316.5,425.2z"/>
<path class="st1" d="M246.8,578.2c-0.8-0.2-1.5-0.8-1.6-1.6l-2.5-13.6l-25.5,25.5v35.5l43.2-43.2L246.8,578.2z"/>
<polygon class="st0" points="86.3,699.9 88.3,699.9 189.2,699.9 189.2,633.5 88.3,633.5 86.3,633.5 84.3,633.5 4,633.5 4,699.9 
	84.3,699.9 "/>
<rect x="193.2" y="751.9" class="st1" width="43.9" height="66.4"/>
<polygon class="st0" points="99.3,751.9 97.3,751.9 88.3,751.9 86.3,751.9 84.3,751.9 4,751.9 4,818.2 84.3,818.2 86.3,818.2 
	88.3,818.2 189.2,818.2 189.2,751.9 101.3,751.9 "/>
<path class="st1" d="M185.2,576.6c-0.1,0.8-0.8,1.5-1.6,1.6l-13.6,2.5l43.2,43.2v-35.5L187.7,563L185.2,576.6z"/>
<path class="st3" d="M357.2,353.8h3c4.2-9.5,11.3-26.2,13.9-32.6c2.8-6.8,10-25,11.4-34.6c1.3-11-2.1-22-9.2-30.4
	c-5-5.7-11.2-8.8-17.6-8.8s-12.6,3.1-17.5,8.8c-12.5,14.6-11.1,29.1-4.4,49.5C342.3,322.1,349.9,338.2,357.2,353.8L357.2,353.8z"/>
<path class="st5" d="M683.2,106.2c20.5-4.2,36.1-11.3,47.7-21.9c3.7-3.3,7-7.1,9.8-11.1c10.5-14.7,16.6-38-0.4-55.1
	c-0.9-0.9-1.9-1.8-2.9-2.6c-6.6-5.2-14.7-7.9-23.1-7.7c-14.1,0-28.7,6.7-38.5,16.5c-15.1,15.1-21.1,37.4-24.9,57.2
	c-2,10-3.5,20.1-4.4,30.3c11.1-1.1,22.1-2.7,33.1-4.9L683.2,106.2z"/>
<path class="st5" d="M640.6,111.6v-0.3c-1.1-11.6-2.9-23.2-5.3-34.6c-3.6-17-8.5-36.3-21.1-50.2c-3.4-3.7-7.3-7-11.6-9.7
	c-9.5-6-19.8-9.1-29.2-9.1c-2.9,0-5.9,0.3-8.7,1c-12.8,3-21.5,10.6-25.2,22c-5,15.3,0.1,35.8,12.3,49.9
	c15.2,17.6,39.4,23.3,60.9,27.3c10.4,1.9,19.5,3.2,28,4L640.6,111.6z"/>
<path class="st3" d="M349.5,353.8l-0.5-0.9c-8.4-15-17.1-30.5-27.4-44.5c-11.6-15.9-22-25.3-38.5-25.3c-1.4,0-2.8,0.1-4.3,0.2l0,0
	c-7.5,0.7-13.6,3.9-17.3,9.1s-4.7,12-3,19.5c2.7,10.7,9.8,19.8,19.5,25.2c8.6,4.5,27.6,9.1,34.8,10.8c5.2,1.3,17.2,3.9,27,6
	L349.5,353.8z"/>
<path class="st1" d="M193.2,699.9h43.9v-66h-43.9V699.9z M196.6,652.1c0-1.1,0.9-2,2-2s2,0.9,2,2v4.9c0,1.1-0.9,2-2,2s-2-0.9-2-2
	V652.1z M196.6,663.8c0-1.1,0.9-2,2-2s2,0.9,2,2v17.6c0,1.1-0.9,2-2,2s-2-0.9-2-2V663.8z"/>
<path class="st3" d="M397.1,425.2v-67.5h-76.6v271.8h76.6V425.2z M330.2,421.2v34.3c0,1.1-0.9,2-2,2s-2-0.9-2-2v-52.8
	c0-1.1,0.9-2,2-2s2,0.9,2,2V421.2z M330.2,396.8c0,1.1-0.9,2-2,2s-2-0.9-2-2v-12.7c0-1.1,0.9-2,2-2s2,0.9,2,2V396.8z"/>
<polygon class="st3" points="316.5,421.2 316.5,357.8 75.3,357.8 75.3,421.2 86.3,421.2 "/>
<path class="st3" d="M367.3,353.8h9.8c9.8-2.1,21.9-4.8,27-6c7.2-1.7,26.2-6.3,34.8-10.8c9.7-5.3,16.7-14.4,19.5-25.2
	c1.7-7.4,0.7-14.3-3-19.5c-3.7-5.2-9.8-8.4-17.3-9.1l0,0c-1.5-0.1-2.9-0.2-4.3-0.2c-16.5,0-26.8,9.4-38.5,25.3
	c-10.3,14.1-19,29.5-27.4,44.5L367.3,353.8z"/>
<polygon class="st6" points="676.4,117.2 676.4,130.3 689.5,117.2 "/>
<polygon class="st6" points="676.4,781.6 822,636 822,593.9 676.4,739.5 "/>
<polygon class="st6" points="676.4,673 822,527.4 822,485.4 676.4,631 "/>
<polygon class="st6" points="676.4,564.5 822,418.9 822,376.9 676.4,522.5 "/>
<polygon class="st6" points="756,117.2 676.4,196.8 676.4,238.8 798,117.2 "/>
<polygon class="st6" points="822,818.2 822,811 814.8,818.2 "/>
<polygon class="st6" points="748.2,818.2 822,744.5 822,702.5 706.2,818.2 "/>
<polygon class="st6" points="465.2,117.2 465.2,124.4 472.4,117.2 "/>
<polygon class="st6" points="538.9,117.2 465.2,190.9 465.2,233 580.9,117.2 "/>
<polygon class="st6" points="610.8,153.9 465.2,299.5 465.2,341.5 610.8,195.9 "/>
<polygon class="st6" points="610.8,262.4 519.4,353.8 561.5,353.8 610.8,304.5 "/>
<polygon class="st6" points="676.4,455.9 822,310.3 822,268.3 676.4,413.9 "/>
<polygon class="st6" points="676.4,347.4 822,201.8 822,159.8 676.4,305.4 "/>
<polygon class="st4" points="676.4,733.9 822,588.3 822,533.1 676.4,678.7 "/>
<polygon class="st4" points="676.4,625.3 822,479.7 822,424.6 676.4,570.2 "/>
<polygon class="st4" points="676.4,818.2 700.5,818.2 822,696.8 822,641.6 676.4,787.2 "/>
<polygon class="st4" points="695.1,117.2 676.4,136 676.4,191.1 750.3,117.2 "/>
<polygon class="st4" points="809.1,818.2 822,805.4 822,750.2 753.9,818.2 "/>
<polygon class="st4" points="478.1,117.2 465.2,130.1 465.2,185.3 533.2,117.2 "/>
<polygon class="st4" points="676.4,516.8 822,371.2 822,316 676.4,461.6 "/>
<polygon class="st4" points="610.8,117.2 586.6,117.2 465.2,238.6 465.2,293.8 610.8,148.2 "/>
<polygon class="st4" points="610.8,256.8 610.8,201.6 465.2,347.2 465.2,353.8 513.8,353.8 "/>
<polygon class="st4" points="610.8,310.1 567.1,353.8 610.8,353.8 "/>
<polygon class="st4" points="676.4,408.2 822,262.6 822,207.5 676.4,353.1 "/>
<polygon class="st4" points="676.4,244.5 676.4,299.7 822,154.1 822,117.2 803.7,117.2 "/>
<path d="M824,113.2H667.3c4.3-0.7,8.7-1.5,13.1-2.4l3.5-0.7c21.2-4.3,37.4-11.8,49.6-22.8c3.9-3.5,7.4-7.5,10.4-11.7
	c15-21.1,14.6-44.8-0.9-60.2c-1-1-2.1-2-3.2-2.9c-19.8-16-50.1-7.8-66.9,9c-15.9,15.9-22.1,38.9-26,59.3c-1.4,7.4-2.6,14.3-3.4,20.9
	c-1.1-8.7-2.5-17.3-4.3-25.8c-3.7-17.5-8.7-37.4-22.1-52.1c-3.6-4-7.8-7.5-12.4-10.4c-13.5-8.5-28.4-11.6-41-8.7
	c-18,4.2-25.2,15.7-28.1,24.6c-5.4,16.5,0,38.7,13.1,53.8c16.1,18.6,41,24.5,63.2,28.6c2.7,0.5,5.4,1,8,1.4H463.2c-1.1,0-2,0.9-2,2
	v179.4c-0.7-1.6-1.5-3.2-2.6-4.6c-4.4-6.1-11.6-10-20.2-10.8l0,0c-20.9-1.9-33.3,8.8-46.4,26.8c-7.6,10.6-14.6,21.7-20.9,33.1
	c2.8-6.7,5.6-13.2,6.8-16.3c4.8-11.9,10.4-26.7,11.6-35.6c1.4-12.1-2.3-24.3-10.1-33.6c-5.8-6.6-13.1-10.2-20.6-10.2
	c-7.6,0-14.8,3.6-20.5,10.2c-13.7,15.9-12.2,32.2-5.2,53.4c3.9,11.3,8.3,22.4,13.4,33.3c-6.5-11.8-13.7-23.2-21.6-34.2
	c-13.1-18-25.5-28.7-46.4-26.8c-8.7,0.8-15.8,4.6-20.2,10.8c-4.4,6.1-5.7,14.2-3.6,22.7c3,11.8,10.8,21.9,21.5,27.8
	c8,4.2,23.3,8.2,35.7,11.2c2,0.5,5.4,1.3,9.3,2.1H73.3c-1.1,0-2,0.9-2,2v67.5c0,1.1,0.9,2,2,2h11v204.3H2c-1.1,0-2,0.9-2,2v188.8
	c0,1.1,0.9,2,2,2h822c1.1,0,2-0.9,2-2V115.2C826,114.1,825.1,113.2,824,113.2z M650.9,81.5c3.8-19.8,9.8-42.2,24.9-57.2
	c9.8-9.8,24.5-16.5,38.5-16.5c8.4-0.2,16.5,2.6,23.1,7.7c1,0.8,2,1.7,2.9,2.6c17.1,17.1,10.9,40.3,0.4,55.1c-2.9,4-6.2,7.8-9.8,11.1
	c-11.6,10.5-27.2,17.7-47.7,21.9l-3.5,0.7c-10.9,2.2-22,3.9-33.1,4.9C647.5,101.6,649,91.5,650.9,81.5z M612.7,107.9
	c-21.5-4-45.7-9.7-60.9-27.3c-12.2-14.1-17.3-34.7-12.3-49.9c3.7-11.3,12.4-18.9,25.2-21.9c2.9-0.7,5.8-1,8.7-1
	c9.4,0,19.7,3.2,29.2,9.1c4.3,2.7,8.2,5.9,11.6,9.7c12.6,13.9,17.5,33.2,21.1,50.2c2.4,11.4,4.2,23,5.3,34.6v0.3v0.2
	C632.2,111.1,623,109.8,612.7,107.9z M465.2,117.2h7.2l-7.2,7.2V117.2z M465.2,130.1l12.9-12.9h55.1l-68.1,68.1L465.2,130.1z
	 M465.2,190.9l73.7-73.7h42L465.2,233V190.9z M465.2,238.6l121.4-121.4h24.2v31L465.2,293.8V238.6z M465.2,299.5l145.6-145.6v42
	L465.2,341.5V299.5z M465.2,347.2l145.6-145.6v55.1l-97,97h-48.6V347.2z M561.5,353.8h-42l91.3-91.3v42L561.5,353.8z M610.8,310.1
	v43.6h-43.6L610.8,310.1z M395.2,308.3c11.6-15.9,22-25.3,38.5-25.3c1.4,0,2.9,0.1,4.3,0.2l0,0c7.5,0.7,13.6,3.9,17.3,9.1
	c3.7,5.2,4.7,12,3,19.5c-2.7,10.7-9.8,19.8-19.5,25.2c-8.6,4.5-27.6,9.1-34.8,10.8c-5.2,1.3-17.2,3.9-27,6h-9.8l0.5-0.9
	C376.2,337.8,384.9,322.4,395.2,308.3L395.2,308.3z M461.1,316.3v37.4h-65.4c3.9-0.9,7.2-1.6,9.3-2.1c12.4-3,27.7-7,35.7-11.2
	C450.3,335.2,457.5,326.6,461.1,316.3L461.1,316.3z M336.8,305.6c-6.7-20.3-8.1-34.9,4.4-49.5c4.9-5.7,11.1-8.8,17.5-8.8
	s12.6,3.1,17.6,8.8c7.1,8.4,10.5,19.5,9.2,30.4c-1.3,9.6-8.6,27.8-11.4,34.6c-2.6,6.3-9.7,23.1-13.9,32.6h-3v-0.1
	C349.9,338.2,342.3,322.1,336.8,305.6L336.8,305.6z M312.7,347.8c-7.2-1.7-26.2-6.3-34.8-10.8c-9.7-5.3-16.7-14.4-19.5-25.2
	c-1.8-7.4-0.7-14.3,3-19.5c3.7-5.2,9.9-8.4,17.3-9.1l0,0c1.5-0.1,2.9-0.2,4.3-0.2c16.5,0,26.8,9.4,38.5,25.3
	c10.3,14.1,19,29.5,27.4,44.5l0.5,0.9h-9.8C329.9,351.7,317.9,349,312.7,347.8L312.7,347.8z M320.5,425.3v-67.5h76.6v271.7h-76.6
	L320.5,425.3z M75.3,421.2v-63.5h241.1v63.5H75.3z M237.1,633.9v66h-43.9v-66H237.1z M213.2,623.9L170,580.8l13.6-2.5
	c0.8-0.2,1.5-0.8,1.6-1.6l2.5-13.6l25.5,25.5L213.2,623.9z M217.3,629.5l48.7-48.7c0.8-0.8,0.8-2.1,0-2.8c-0.3-0.3-0.7-0.5-1.1-0.6
	l-16.1-3l-2.9-16.1c-0.2-1.1-1.2-1.8-2.3-1.6c-0.4,0.1-0.8,0.3-1.1,0.6l-27.3,27.4l-27.3-27.3c-0.8-0.8-2.1-0.8-2.8,0
	c-0.3,0.3-0.5,0.7-0.6,1.1l-2.9,16.1l-16.1,3c-1.1,0.2-1.8,1.3-1.6,2.4c0.1,0.4,0.3,0.7,0.6,1l48.7,48.7H88.4V425.2h228.1v204.3
	L217.3,629.5z M217.2,623.9v-35.5l25.5-25.5l2.5,13.6c0.1,0.8,0.8,1.5,1.6,1.6l13.6,2.5L217.2,623.9z M4,633.5h185.2v66.4H4V633.5z
	 M189.2,818.3H4v-66.4h185.2V818.3z M237.1,818.3h-43.9v-66.4h43.9V818.3z M237.1,747.9H4v-43.9h422.3v43.9L237.1,747.9L237.1,747.9
	z M426.4,818.2H241.2v-66.4h185.2V818.2z M426.4,699.9H241.2v-66.4h185.2V699.9z M629.2,455.4v362.9H430.4V631.5c0-1.1-0.9-2-2-2
	h-27.3V425.2h228.1L629.2,455.4z M614.7,421.2H401.1v-63.5h241.1v63.5H614.7L614.7,421.2z M672.3,134.3v683.9h-39.2v-393h11
	c1.1,0,2-0.9,2-2v-67.5c0-1.1-0.9-2-2-2h-29.4V117.2h57.6L672.3,134.3z M676.3,117.2h13.1l-13.1,13.1V117.2z M676.3,136l18.8-18.8
	h55.2l-73.9,73.9L676.3,136z M676.3,196.9l79.6-79.6h42L676.4,238.8L676.3,196.9z M821.9,818.3h-7.2l7.2-7.2V818.3z M821.9,805.4
	l-12.9,12.9h-55.2l68.1-68.1L821.9,805.4z M821.9,744.5l-73.7,73.7h-42L822,702.5L821.9,744.5z M821.9,696.8L700.5,818.2h-24.2v-31
	L822,641.6L821.9,696.8z M821.9,636L676.3,781.6v-42.1l145.6-145.6V636z M821.9,588.3L676.3,733.9v-55.2l145.6-145.6V588.3z
	 M821.9,527.5L676.3,673.1V631l145.6-145.6V527.5z M821.9,479.8L676.3,625.4v-55.2l145.6-145.6V479.8z M821.9,418.9L676.3,564.5
	v-42.1l145.6-145.6V418.9z M821.9,371.2L676.3,516.8v-55.2L821.9,316V371.2z M821.9,310.4L676.3,456v-42.1l145.6-145.6V310.4z
	 M821.9,262.7L676.3,408.3v-55.2l145.6-145.6V262.7z M821.9,201.8L676.3,347.4v-42.1l145.6-145.6V201.8z M821.9,154.1L676.3,299.7
	v-55.2l127.3-127.3H822L821.9,154.1z"/>
<path d="M328.2,382.1c-1.1,0-2,0.9-2,2v12.7c0,1.1,0.9,2,2,2s2-0.9,2-2v-12.7C330.2,383,329.3,382.1,328.2,382.1z"/>
<path d="M328.2,400.7c-1.1,0-2,0.9-2,2v52.8c0,1.1,0.9,2,2,2s2-0.9,2-2v-52.8C330.2,401.6,329.3,400.7,328.2,400.7z"/>
<path d="M198.6,659c1.1,0,2-0.9,2-2v-4.9c0-1.1-0.9-2-2-2s-2,0.9-2,2v4.9C196.6,658.1,197.5,659,198.6,659z"/>
<path d="M198.6,683.4c1.1,0,2-0.9,2-2v-17.6c0-1.1-0.9-2-2-2s-2,0.9-2,2v17.6C196.6,682.5,197.5,683.4,198.6,683.4z"/>
</svg>
