<?xml version="1.0" encoding="utf-8"?>
<!-- Generator: Adobe Illustrator 23.0.4, SVG Export Plug-In . SVG Version: 6.00 Build 0)  -->
<svg version="1.1" id="Слой_1" xmlns="http://www.w3.org/2000/svg" xmlns:xlink="http://www.w3.org/1999/xlink" x="0px" y="0px"
	 viewBox="0 0 826 826" style="enable-background:new 0 0 826 826;" xml:space="preserve">
<style type="text/css">
	.st0{fill:#D5E7F2;}
	.st1{fill:#E6F1F7;}
	.st2{fill:#F1F6F7;}
</style>
<path class="st0" d="M384.8,735.6v-2.1c0.1-16.7-5.4-32.9-15.5-46.1c-4.1-5.2-8.2-10.4-11.2-14.2c-0.6-0.8-1.3-1.6-1.9-2.4
	C269,652,195.8,593.4,158.3,512.5l-13.7,48.3v91.4c61.7,65,144.8,105.5,233.9,114.4C382.7,756.8,384.8,746.2,384.8,735.6z"/>
<path class="st1" d="M156.8,504l0.9-3.1l94.5-333.2l0.9-3.2l0.9-3l3.2-11.2H4.4L48,304.1l1.1,3.8l1.1,3.9L119,554.3l0.5,1.9l1.1,4
	l5.9,20.9c0.6,2.3,3,3.6,5.3,3c1.4-0.4,2.6-1.5,3-3l5.9-20.9l1.1-4l0.5-1.9l13.4-47.2L156.8,504z M71,335.8c-0.9,0-1.6-0.6-1.8-1.4
	l-12.9-46.1l-1-3.5l-1-3.4l-11.5-40.9c-0.1-1,0.6-2,1.6-2.1c0.8-0.1,1.6,0.3,2,1.1l9.9,35.4l1,3.3l1,3.5l14.5,51.8
	c0.3,1-0.3,2.1-1.3,2.4C71.4,335.8,71.2,335.8,71,335.8z M77.1,355.3c-0.2,0.1-0.4,0.1-0.5,0.1c-0.8,0-1.6-0.6-1.8-1.4l-3-9.9
	c-0.3-1,0.3-2.1,1.3-2.4c1-0.3,2,0.3,2.3,1.3l3,9.9C78.7,353.9,78.1,355,77.1,355.3C77.1,355.3,77.1,355.3,77.1,355.3z"/>
<path class="st1" d="M776.8,288.5H589l22.3,304.3l0.2,2.7l0.2,2.5l8,109.7l0.2,2.3l0.2,2.2l6.9,94.4h157.1l38-518.2L776.8,288.5
	L776.8,288.5z M613.4,451.3l-8.5-115.8c-0.1-1.1,0.7-2,1.8-2.1c1.1-0.1,2,0.7,2.1,1.8l8.5,115.8c0.1,1.1-0.7,2-1.8,2c0,0,0,0,0,0
	h-0.1C614.3,453.1,613.5,452.3,613.4,451.3z M617.3,478.2h-0.1c-1,0-1.8-0.8-1.9-1.8l-1.2-15.9c-0.1-1.1,0.7-2,1.8-2.1
	c1.1-0.1,2,0.7,2.1,1.8l1.2,15.9C619.1,477.2,618.3,478.1,617.3,478.2C617.3,478.2,617.3,478.2,617.3,478.2L617.3,478.2z"/>
<path class="st1" d="M448.4,777.1c-1.2-2-2.2-4-3.2-6.1c-0.3-0.6-0.6-1.2-0.9-1.9c-0.3-0.6-0.5-1.2-0.8-1.9
	c-4.1-10-6.2-20.7-6.2-31.5c0-18.9,6.4-36.9,18.1-50.5c-12.5,8.1-27.1,12.4-42,12.5h-0.1c-14.5,0.1-28.6-4.2-40.7-12.1
	c10.4,13.8,16,30.6,15.9,47.8v2.1c0,10.8-2,21.4-6.1,31.4c-0.3,0.6-0.5,1.3-0.8,1.9c-0.3,0.6-0.5,1.2-0.8,1.9
	c-1.1,2.3-2.2,4.5-3.5,6.7c-9.5,16.5-26.9,24.9-37.3,29.3H485c-10.7-4.5-27-12.8-36.5-29.3L448.4,777.1z"/>
<path class="st0" d="M472,671.4c-4.9,5.9-9.5,11.4-13.6,16.3c-11.1,13-17.3,30.1-17.3,48.2c0,10.7,2.2,21.4,6.4,31.3
	c59.9-5.1,117.8-24.7,168.5-57l-8-108.7C570.1,636.8,523,661.1,472,671.4z"/>
<path class="st2" d="M587,284.6h85.4c-42.6-99.8-141.7-169.9-256.9-169.9c-56.6-0.1-111.9,17.2-158.4,49.4L160,506.5
	c35.1,79.3,106,139.4,192.2,159.4c-5.1-6.1-10.3-12.1-15.5-18c-11.5-13.2-23.4-26.8-33.6-41.8c-18.1-26.7-27.8-58.3-27.8-90.6
	c0-60.3,23.1-120.2,36.9-150.5c0.3-0.7,1-1.1,1.7-1.1h198.7c0.7,0,1.4,0.4,1.7,1.1c13.1,26.8,35.2,81.3,36.2,146
	c0,9.3-0.6,18.6-1.9,27.8c-1.1,6.9-2.7,13.7-4.8,20.3c-10.6,32.4-42.3,75.7-68,107.4c49.5-11,95-35.3,131.7-70.3l-22.7-309.6
	c0-0.5,0.1-1.1,0.5-1.4C585.9,284.9,586.5,284.6,587,284.6z"/>
<path class="st1" d="M546.8,511.1c-1-63.1-22.3-116.5-35.3-143.3H315.3c-13.7,30.4-36.1,88.9-36.1,147.8
	c-0.1,31.6,9.3,62.4,27.2,88.4c10,14.8,21.8,28.3,33.3,41.4c6.1,7,12.4,14.2,18.4,21.6c0.2,0.1,0.4,0.2,0.5,0.3
	c0.1,0.1,0.2,0.2,0.2,0.3c0.6,0.7,1.1,1.4,1.7,2.1c0.6,0.7,1.4,1.6,2.1,2.4c13.1,14,31.5,21.9,50.7,21.8h0.1
	c19.3-0.1,37.8-7.7,51.5-21.2c0.8-0.8,1.6-1.6,2.3-2.4c0.8-0.8,1.4-1.6,2.1-2.4c0.5-0.7,1.1-1.3,1.6-2c0.3-0.3,0.6-0.6,1.1-0.7
	c25.6-31.5,57.6-75.1,68.2-107.3c2.1-6.5,3.7-13.1,4.8-19.8C546.3,529.3,546.9,520.2,546.8,511.1z M319.9,593.8
	c-0.9,0.5-2.1,0.2-2.6-0.7C301,565.9,293,540.5,293,515.6c0-1.1,0.9-1.9,1.9-1.9c1.1,0,1.9,0.9,1.9,1.9c0,2.3,0.1,4.6,0.2,6.8
	c1.2,19.7,7.5,39.8,19.1,61.2c1.4,2.5,2.8,5,4.3,7.6C321.1,592.1,320.8,593.3,319.9,593.8z M330.9,610.7c-0.3,0.2-0.7,0.3-1.1,0.3
	c-0.6,0-1.2-0.3-1.6-0.8c-2.2-3.2-3.8-5.8-5.8-9c-0.6-0.9-0.3-2.1,0.6-2.6c0.9-0.6,2.1-0.3,2.6,0.6c1.9,3.1,3.6,5.7,5.7,8.9
	C332,608.9,331.8,610.1,330.9,610.7C330.9,610.7,330.9,610.7,330.9,610.7L330.9,610.7z"/>
<path class="st0" d="M261.1,147.3c0.4,0.5,0.5,1.1,0.3,1.7l-2.6,9.2c130.5-86.5,306.4-50.8,392.9,79.7c9.8,14.8,18.1,30.4,25,46.7
	h96.9c-46.9-153.3-189.7-265-358.1-265c-111.7,0-212.1,49.2-280.8,127h124.8C260.2,146.6,260.7,146.9,261.1,147.3z"/>
<path class="st0" d="M116.8,560.8l-68.3-241C27.3,424.9,52.2,534,116.8,619.5V560.8z"/>
<path class="st1" d="M140.8,654v-79.7l-2.2,7.9c-1.2,4.3-5.7,6.8-10,5.6c-2.7-0.8-4.9-2.9-5.6-5.6l-2.2-7.9v136.4
	c0,24.7-7.6,48.6-21.4,67.5l-0.2,0.3c-9.5,13.2-26.9,22.7-37,27.7l137.4,0.4c-17.8-8.8-29.9-17.9-36.9-27.6l-0.2-0.3
	c-13.8-18.9-21.5-42.8-21.5-67.5L140.8,654z"/>
<path d="M824.1,284.6h-46.4c-60.3-200-271.2-313.2-471.2-253c-59.9,18-114.3,50.6-158.5,94.9c-6.5,6.5-12.7,13.2-18.7,20.1H1.9
	c-0.6,0-1.2,0.3-1.5,0.8c-0.4,0.5-0.5,1.1-0.3,1.7l46.2,162.7c-24.5,110.1,1.3,225.3,70.6,314.3v84.6c0,23.9-7.3,47-20.7,65.2
	l-0.2,0.3c-10.5,14.6-31.9,24.8-40,28.6l-1.3,0.6c-1.2,0.6-1.7,2-1.1,3.2c0.4,0.8,1.2,1.3,2.1,1.3l146.4,0.5l0,0
	c1.8,0,3.2-1.5,3.2-3.2c0-1.2-0.7-2.3-1.8-2.9c-18.3-8.8-31-18.1-37.9-27.6l-0.2-0.3c-13.4-18.2-20.7-41.4-20.7-65.2v-53.3
	c1.1,1.2,2.3,2.4,3.4,3.5c61.4,61.6,142.3,100.1,228.8,108.8c-0.9,1.7-1.8,3.5-2.7,5.1c-9.8,17-29.1,25.1-38.4,28.9
	c-1.5,0.6-2.9,1.2-3.8,1.6c-1.2,0.6-1.7,2-1.1,3.1c0.4,0.8,1.2,1.3,2.1,1.3h159.7c1.3,0,2.4-1,2.4-2.3c0-1-0.6-1.8-1.5-2.2l-2-0.8
	c-9.4-3.7-29.1-11.4-39.6-29.7l-0.1-0.2c-0.9-1.5-1.7-3-2.4-4.5c59.4-5.2,116.6-24.5,167.1-56.2l6.9,93.8c0.1,1.2,1.1,2.2,2.4,2.2
	h159.7c1.2,0,2.2-1,2.3-2.2L826,286.7c0-0.5-0.1-1.1-0.5-1.4C825.1,284.9,824.6,284.7,824.1,284.6z M415.5,19.6
	c168.4,0,311.2,111.8,358.1,265h-96.9C616.1,140.4,450.1,72.5,305.8,133.1c-16.4,6.9-32.2,15.3-47,25.2l2.6-9.2
	c0.3-1-0.3-2.1-1.3-2.4c-0.2,0-0.3-0.1-0.5-0.1H134.7C203.4,68.8,303.8,19.6,415.5,19.6z M607.8,596.3
	c-36.7,35-82.3,59.3-131.8,70.3c25.7-31.7,57.4-75,68-107.4c2.1-6.6,3.7-13.4,4.8-20.3c1.3-9.2,1.9-18.5,1.9-27.8
	c-1-64.7-23.1-119.2-36.2-146c-0.3-0.7-1-1.1-1.7-1.1H314c-0.7,0-1.4,0.4-1.7,1.1c-13.8,30.3-37,90.2-37,150.5
	c0,32.3,9.7,63.9,27.8,90.6c10.2,15,22.1,28.6,33.6,41.8c5.1,5.9,10.4,11.9,15.5,18C266,645.9,195.1,585.9,160,506.5l97.1-342.3
	c46.5-32.2,101.8-49.5,158.4-49.4c115.2,0,214.3,70.1,256.9,169.9H587c-0.5,0-1,0.2-1.4,0.6c-0.4,0.4-0.5,0.9-0.5,1.4L607.8,596.3z
	 M472.1,665.3c-0.4,0.1-0.8,0.3-1.1,0.7c-0.5,0.7-1.1,1.3-1.6,2c-0.7,0.8-1.4,1.6-2.1,2.4c-0.7,0.8-1.5,1.6-2.3,2.4
	c-13.8,13.5-32.2,21.1-51.5,21.2h-0.1c-19.2,0.1-37.6-7.8-50.7-21.8c-0.7-0.8-1.4-1.6-2.1-2.4c-0.7-0.8-1.2-1.4-1.7-2.1
	c-0.1-0.1-0.2-0.2-0.2-0.3c-0.2-0.1-0.3-0.2-0.5-0.3c-6-7.4-12.3-14.6-18.4-21.6c-11.5-13.1-23.3-26.6-33.3-41.4
	c-17.8-26-27.3-56.9-27.2-88.4c0-58.9,22.4-117.4,36.1-147.8h196.3c13,26.8,34.3,80.2,35.3,143.3c0.1,9.1-0.6,18.1-1.8,27.1
	c-1.1,6.7-2.7,13.3-4.8,19.8C529.7,590.3,497.7,633.8,472.1,665.3z M41.1,394c0-24.9,2.5-49.8,7.4-74.2l68.3,241v58.7
	C67.6,554.6,41,475.4,41.1,394z M162.3,778.7l0.2,0.3c7,9.8,19.1,18.8,36.9,27.6L62,806.2c10.1-5,27.5-14.5,37-27.7l0.2-0.3
	c13.8-18.9,21.5-42.8,21.4-67.5V574.3l2.2,7.9c1.2,4.3,5.7,6.8,10,5.6c2.7-0.8,4.9-2.9,5.6-5.6l2.2-7.9v136.9
	C140.8,735.8,148.4,759.8,162.3,778.7z M142.5,554.3l-0.5,1.9l-1.1,4l-5.9,20.9c-0.6,2.3-3,3.6-5.3,3c-1.4-0.4-2.6-1.5-3-3
	l-5.9-20.9l-1.1-4l-0.5-1.9L50.2,311.8l-1.1-3.9l-1.1-3.8L4.4,150.4H257l-3.2,11.2l-0.9,3l-0.9,3.2L157.6,501l-0.9,3.1l-0.9,3
	L142.5,554.3z M144.6,652.2v-91.4l13.7-48.3C195.8,593.4,269,652,356.2,670.8c0.6,0.8,1.3,1.6,1.9,2.4c3,3.8,7.1,9,11.2,14.2
	c10.2,13.2,15.7,29.4,15.5,46.1v2.1c0,10.7-2.1,21.2-6.2,31C289.4,757.7,206.4,717.1,144.6,652.2L144.6,652.2z M485,806.6H340.2
	c10.4-4.4,27.8-12.8,37.3-29.3c1.3-2.2,2.4-4.4,3.5-6.7c0.3-0.6,0.6-1.2,0.8-1.9c0.3-0.6,0.5-1.2,0.8-1.9c4-10,6.1-20.6,6.1-31.4
	v-2.1c0.1-17.2-5.5-34-15.9-47.8c12.1,8,26.2,12.2,40.7,12.1h0.1c14.9-0.1,29.5-4.4,42-12.5c-11.6,13.7-18.1,31.5-18.1,50.5
	c0,10.8,2.1,21.5,6.2,31.5c0.3,0.6,0.5,1.2,0.8,1.9c0.3,0.7,0.6,1.2,0.9,1.9c1,2.1,2,4.1,3.2,6.1l0.1,0.2
	C458,793.9,474.3,802.2,485,806.6L485,806.6z M447.6,767c-4.2-9.9-6.4-20.5-6.4-31.3c0-18.1,6.1-35.2,17.3-48.2
	c4.1-4.8,8.7-10.3,13.6-16.3c51-10.3,98.1-34.5,136.1-70l8,108.7C565.4,742.4,507.6,761.9,447.6,767z M784.1,806.6H627l-6.9-94.4
	l-0.2-2.2l-0.2-2.3l-8-109.6l-0.2-2.5l-0.2-2.7L589,288.5h233L784.1,806.6z"/>
<path d="M615.4,453.1c1.1-0.1,1.8-1,1.8-2c0,0,0,0,0,0l-8.5-115.8c-0.1-1.1-1-1.8-2.1-1.8c-1.1,0.1-1.8,1-1.8,2.1l8.5,115.8
	c0.1,1,0.9,1.8,1.9,1.8H615.4z"/>
<path d="M615.8,458.4c-1.1,0.1-1.8,1-1.8,2c0,0,0,0,0,0l1.2,15.9c0.1,1,0.9,1.8,1.9,1.8h0.1c1.1-0.1,1.8-1,1.8-2c0,0,0,0,0,0
	l-1.2-15.9C617.8,459.1,616.9,458.3,615.8,458.4C615.8,458.4,615.8,458.4,615.8,458.4z"/>
<path d="M325.7,599.2c-0.6-0.9-1.7-1.2-2.6-0.6c-0.9,0.6-1.2,1.7-0.6,2.6c2,3.2,3.7,5.7,5.8,9c0.4,0.5,1,0.8,1.6,0.8
	c1.1,0,1.9-0.9,1.9-1.9c0-0.4-0.1-0.8-0.3-1.1C329.3,604.9,327.6,602.3,325.7,599.2z"/>
<path d="M316.2,583.7c-11.7-21.3-18-41.5-19.1-61.2c-0.1-2.3-0.2-4.6-0.2-6.8c0-1.1-0.9-1.9-1.9-1.9s-1.9,0.9-1.9,1.9
	c0,24.9,7.9,50.3,24.2,77.6c0.6,0.9,1.8,1.1,2.6,0.5c0.8-0.5,1.1-1.6,0.6-2.5C319,588.7,317.6,586.1,316.2,583.7z"/>
<path d="M75.4,342.9c-0.3-1-1.4-1.6-2.4-1.2c-1,0.3-1.5,1.3-1.3,2.3l3,9.9c0.2,0.8,1,1.4,1.8,1.4c0.2,0,0.4,0,0.5-0.1
	c1-0.3,1.6-1.3,1.4-2.3c0,0,0,0,0-0.1L75.4,342.9z"/>
<path d="M72.9,333.4l-14.6-51.8l-1-3.5l-1-3.3l-9.9-35.4c-0.3-1-1.4-1.6-2.4-1.3c-1,0.3-1.5,1.3-1.3,2.3l11.5,40.9l1,3.4l1,3.5
	l12.9,46.1c0.3,1,1.4,1.6,2.4,1.3C72.5,335.4,73.1,334.4,72.9,333.4L72.9,333.4z"/>
</svg>
