<?xml version="1.0" encoding="utf-8"?>
<!-- Generator: Adobe Illustrator 23.0.4, SVG Export Plug-In . SVG Version: 6.00 Build 0)  -->
<svg version="1.1" id="Слой_1" xmlns="http://www.w3.org/2000/svg" xmlns:xlink="http://www.w3.org/1999/xlink" x="0px" y="0px"
	 viewBox="0 0 826 826" style="enable-background:new 0 0 826 826;" xml:space="preserve">
<style type="text/css">
	.st0{fill:#B5D9C9;}
	.st1{fill:#BE9C79;}
	.st2{fill:#E6F1F7;}
	.st3{fill:#F1F6F7;}
	.st4{fill:#F2EBE4;}
	.st5{fill:#D5E7F2;}
	.st6{fill:#588C6B;}
	.st7{fill:#DDE1E5;}
</style>
<path class="st0" d="M822.1,360.9c0-69.9-16.5-134-43.1-167.2c-0.2-0.3-0.3-0.6-0.4-0.9c-5.4-31.8-25.8-54-49.7-54
	c-4.6,0-9.2,0.8-13.5,2.5c-0.8,0.3-1.7,0-2.2-0.7c-15-20.6-34.2-31.9-54.2-31.9c-43.9,0-80,53.8-82.3,122.6c0,0.6-0.3,1.2-0.9,1.6
	c-4.1,2.8-7.9,6.1-11.2,9.8v36.6l78.8,78.7c5.6,5.3,5.8,14.2,0.4,19.8s-14.2,5.8-19.8,0.4c-0.1-0.1-0.3-0.3-0.4-0.4l-13.2-13.2
	v239.2c5.7,2.2,11.8,3.3,17.9,3.3c12.8,0,25.3-5,36.8-14.7l13.1-318.3c0-1.1,0.9-1.9,1.9-1.9c1.1,0,1.9,0.9,1.9,1.9l13.1,318.7
	c7.5,3.9,15.8,5.9,24.2,5.9c20.5,0,39.7-12.3,50.2-32.1c0.3-0.5,0.7-0.8,1.3-1c22.4-5.2,39.4-42.9,39.4-87.8c0-4.9-0.2-9.9-0.6-14.9
	c0-0.2,0-0.5,0.1-0.7C817.8,431.9,822.1,396.9,822.1,360.9z M641,269.2c1.2-3.3,2.7-6.4,4.5-9.4c0.1-0.2,0.4-0.6,0.7-1.1
	c0.9-1.2,1.7-2.5,2.5-3.9c0-1.1,0.9-1.9,1.9-1.9c0.7,0,1.4,0.4,1.7,1l0,0c0.5,0.8,1,1.6,1.4,2.5c3.4,5.8,7.2,12.5,7,19.6
	c0,1.1-0.2,2.2-0.4,3.3c-0.9,3.9-2.8,7.2-4.7,10.4l-0.8,1.4l-0.8,1.2c-0.7,1-2.3,3.4-2.7,4.3c-0.1,0.6-0.4,1.2-1,1.5
	c-0.3,0.2-0.6,0.3-1,0.3c-0.7,0-1.3-0.4-1.7-1l0,0l-0.3-0.5C642.8,288.7,637.6,279.5,641,269.2z M644.2,311.7c0,0.5,0,1.1-0.1,1.6
	c0,0.2-0.1,0.7-0.1,1.5c-0.1,1.2-0.5,4.1-0.4,5.1c0.2,0.6,0.2,1.2-0.2,1.8c-0.4,0.6-1,0.9-1.6,0.9c-0.4,0-0.7-0.1-1-0.3l0,0
	l-0.5-0.3c-7.8-5-16.7-10.8-18.6-21.5c-0.5-3.5-0.6-6.9-0.4-10.4c0-0.2,0.1-0.7,0.1-1.3c0.2-1.5,0.3-3,0.4-4.6
	c-0.5-0.9-0.1-2.1,0.8-2.6c0.6-0.3,1.4-0.3,1.9,0.1c0.8,0.5,1.6,1,2.4,1.5c5.7,3.6,12.2,7.6,15.3,14.1c0.5,1,0.9,2.1,1.2,3.1
	C644.5,304.1,644.3,308,644.2,311.7z M667.9,318.6L667.9,318.6c-0.4,1.1-0.8,2.1-1.4,3.1c-1.9,3.4-4.7,6.1-7.4,8.7l-1.2,1.1
	c-0.1,0.1-0.6,0.5-1.1,1c-0.9,0.7-3.2,2.6-3.9,3.3c-0.2,0.6-0.7,1-1.4,1.1c-0.1,0-0.3,0.1-0.4,0.1c-0.9,0-1.7-0.6-1.9-1.5l-0.1-0.6
	c-2.1-9.1-4.4-19.3,1.7-28.3c2-2.8,4.4-5.4,7-7.7c0.2-0.1,0.5-0.5,1-0.9c1.2-0.9,2.4-1.9,3.4-3c0.3-1,1.4-1.6,2.4-1.3
	c0.7,0.2,1.2,0.7,1.3,1.4l0,0c0.2,0.9,0.4,1.8,0.7,2.8C668.3,304.4,670.2,311.8,667.9,318.6z M691.6,185c0,0.5,0,1.1-0.1,1.6
	c0,0.2-0.1,0.7-0.1,1.5c-0.1,1.2-0.5,4.1-0.4,5.1c0.2,0.6,0.2,1.2-0.2,1.8c-0.4,0.6-1,0.9-1.6,0.9c-0.4,0-0.7-0.1-1-0.3l0,0
	l-0.5-0.3c-7.8-5-16.7-10.8-18.6-21.5c-0.5-3.5-0.6-6.9-0.4-10.4c0-0.2,0.1-0.7,0.1-1.3c0.2-1.5,0.3-3,0.4-4.6
	c-0.5-0.9-0.1-2.1,0.8-2.6c0.6-0.3,1.4-0.3,1.9,0.1c0.8,0.5,1.6,1,2.4,1.5c5.7,3.6,12.2,7.6,15.3,14.1c0.5,1,0.9,2.1,1.2,3.1
	C691.9,177.4,691.7,181.3,691.6,185z M696.8,202.6c-0.2,0-0.3,0-0.5-0.1c-1-0.3-1.7-1.3-1.4-2.3l0,0l0.1-0.6
	c2.2-9.1,4.8-19.3,14.3-24.5c3.1-1.6,6.3-2.8,9.7-3.7c0.2-0.1,0.7-0.2,1.3-0.3c1.5-0.3,3-0.7,4.4-1.1c0.7-0.8,2-0.8,2.7-0.1
	c0.5,0.5,0.7,1.2,0.6,1.9l0,0c-0.2,0.9-0.4,1.8-0.7,2.8c-1.5,6.6-3.2,14.1-8.3,19.1l0,0c-0.8,0.8-1.7,1.5-2.6,2.1
	c-3.3,2.2-7,3.3-10.5,4.4l-1.6,0.5c-0.2,0.1-0.7,0.2-1.5,0.3c-1.1,0.3-4,0.9-4.9,1.2C697.7,202.4,697.2,202.6,696.8,202.6z
	 M717.4,564.5c-0.1,0.2-0.3,0.7-0.6,1.3c-0.5,1.1-1.8,3.7-2.1,4.6c0,1.1-0.8,2-1.9,2c-0.6,0-1.2-0.3-1.6-0.8l0,0l-0.4-0.5
	c-5.7-7.4-12.1-15.8-10.3-26.4c0.7-3.4,1.7-6.7,3.1-9.9c0.1-0.2,0.3-0.6,0.6-1.2c0.7-1.4,1.4-2.7,1.9-4.2c-0.2-1.1,0.6-2,1.6-2.2
	c0.7-0.1,1.4,0.2,1.8,0.7c0.6,0.7,1.2,1.5,1.8,2.3c4.2,5.3,9,11.3,9.7,18.4c0.1,1.1,0.1,2.2,0,3.3c-0.3,3.9-1.8,7.5-3.1,11
	C717.8,563.5,717.6,564,717.4,564.5L717.4,564.5z M750.9,556.2c-0.2,1-0.4,1.9-0.6,2.8c-1.4,6.6-2.9,14.1-7.8,19.3
	c-0.8,0.8-1.6,1.5-2.5,2.2c-3.2,2.3-6.9,3.5-10.4,4.6l-1.5,0.5l-1.4,0.4c-1.1,0.3-4,1-4.9,1.4c-0.4,0.3-0.8,0.5-1.3,0.5
	c-0.1,0-0.3,0-0.4,0c-1-0.2-1.7-1.3-1.5-2.3c0,0,0,0,0,0l0.2-0.6c2-9.1,4.3-19.4,13.6-24.9c3-1.7,6.3-3,9.6-4
	c0.2-0.1,0.7-0.2,1.3-0.3c1.5-0.3,3-0.7,4.4-1.2c0.5-0.5,1.2-0.8,1.9-0.6C750.5,554.2,751.1,555.2,750.9,556.2L750.9,556.2z"/>
<path class="st1" d="M376,193c-38.5,0-69.7,31.2-69.7,69.7s31.2,69.7,69.7,69.7s69.7-31.2,69.7-69.7c0,0,0,0,0,0
	C445.7,224.2,414.5,193,376,193z M376,319.5c-31.3,0-56.7-25.4-56.7-56.7S344.6,206,376,206s56.7,25.4,56.7,56.7l0,0
	C432.7,294.1,407.3,319.5,376,319.5z"/>
<path class="st2" d="M383.9,270.7V315c22.9-3.5,40.8-21.5,44.3-44.3H383.9z"/>
<polygon class="st1" points="508,452.9 508,454.9 508,456.8 508,465 508,466.9 508,468.8 508,501.1 516.2,501.1 516.2,468.8 
	516.2,466.9 516.2,465 516.2,456.8 516.2,454.9 516.2,452.9 516.2,420.7 508,420.7 "/>
<rect x="471.9" y="468.8" class="st2" width="32.3" height="32.3"/>
<rect x="471.9" y="420.7" class="st2" width="32.3" height="32.3"/>
<rect x="471.9" y="456.8" class="st1" width="32.3" height="8.2"/>
<polygon class="st1" points="371.9,254.8 371.9,256.7 371.9,258.7 371.9,266.8 371.9,268.8 371.9,270.7 371.9,315 380,315 
	380,270.7 380,268.8 380,266.8 380,258.7 380,256.7 380,254.8 380,210.5 371.9,210.5 "/>
<rect x="383.9" y="258.7" class="st1" width="44.3" height="8.2"/>
<path class="st2" d="M383.9,210.5v44.3h44.3C424.7,231.9,406.8,214,383.9,210.5z"/>
<rect x="323.7" y="258.7" class="st1" width="44.3" height="8.2"/>
<path class="st2" d="M368,315v-44.3h-44.3C327.2,293.5,345.1,311.5,368,315z"/>
<path class="st3" d="M628.3,611c-6.1,0-12.2-1.1-17.9-3.1v207.6H656l8.9-218C653.4,606.4,641,611,628.3,611z"/>
<polygon class="st1" points="691.3,592.9 691.2,590.6 680.1,321.4 669.1,588.8 669,591.6 668.9,594.2 659.9,815.5 700.4,815.5 
	691.3,595.2 "/>
<polygon class="st3" points="662.3,295.9 662.3,295.9 662.3,295.9 "/>
<path class="st4" d="M548.5,364.1H424.1c-1.1,0-1.9-0.9-1.9-1.9c0-1.1,0.9-1.9,1.9-1.9H606l-62.8-62.8l-1.8-1.8l-1.8-1.8l-11.7-11.7
	l-3.9-3.9l-48.6-48.6l-3.9-3.9L376,130.1L145.8,360.3h224.2c1.1,0,1.9,0.9,1.9,1.9c0,1.1-0.9,1.9-1.9,1.9H145.4v267.2l5.3,3.8
	l23.7-16.9c0.7-0.5,1.6-0.5,2.2,0l23.7,16.9l23.7-16.9c0.7-0.5,1.6-0.5,2.2,0l23.7,16.9l23.7-16.9c0.7-0.5,1.6-0.5,2.2,0l22.2,15.9
	v-75.7c0-1.1,0.9-1.9,1.9-1.9h151.8c1.1,0,1.9,0.9,1.9,1.9v257h152.7V364.1H548.5L548.5,364.1z M302,521.2c0,1.1-0.9,1.9-1.9,1.9
	H179.6c-1.1,0-1.9-0.9-1.9-1.9V400.7c0-1.1,0.9-1.9,1.9-1.9h120.5c1.1,0,1.9,0.9,1.9,1.9V521.2z M302.4,262.8
	c0-40.7,33-73.6,73.6-73.6c40.7,0,73.6,33,73.6,73.6s-33,73.6-73.6,73.6c0,0,0,0,0,0C335.3,336.4,302.4,303.4,302.4,262.8
	L302.4,262.8z M408.5,364.1h-22.9c-1.1,0-1.9-0.9-1.9-1.9c0-1.1,0.9-1.9,1.9-1.9h22.9c1.1,0,1.9,0.9,1.9,1.9
	C410.4,363.2,409.6,364.1,408.5,364.1L408.5,364.1z M574.2,400.7v120.5c0,1.1-0.9,1.9-1.9,1.9H451.8c-1.1,0-1.9-0.9-1.9-1.9V400.7
	c0-1.1,0.9-1.9,1.9-1.9h120.5C573.4,398.7,574.2,399.6,574.2,400.7z"/>
<path class="st1" d="M626.3,375c4,3.9,10.4,3.9,14.3,0c3.9-4,3.9-10.4,0-14.3l0,0L562,282.1l-3.9-3.9l-9-9l-1.5-1.5l-1.5-1.5
	l-70.7-70.7l-3.9-3.9L376,96.1L111.3,360.7c-3.9,4-3.8,10.4,0.3,14.3c3.9,3.8,10.1,3.8,14,0l15.9-15.9L374.6,126
	c0.8-0.7,2-0.7,2.7,0l94.3,94.3l3.9,3.9l54.1,54.1l3.9,3.9l6.8,6.8l1.7,1.7l1.8,1.8l66.7,66.7L626.3,375z"/>
<polygon class="st1" points="537.7,456.8 535.7,456.8 520,456.8 520,465 536.2,465 538.1,465 540.1,465 552.3,465 552.3,456.8 
	539.6,456.8 "/>
<polygon class="st2" points="538.2,420.7 536.3,420.7 520,420.7 520,452.9 535.6,452.9 537.5,452.9 539.5,452.9 552.3,452.9 
	552.3,420.7 540.2,420.7 "/>
<polygon class="st2" points="538.4,468.8 536.5,468.8 520,468.8 520,501.1 541,501.1 543.1,501.1 545,501.1 552.3,501.1 
	552.3,468.8 540.4,468.8 "/>
<path class="st1" d="M540.2,402.6h-86.4v116.6h116.6V402.6H540.2z M556.1,418.7V503c0,1.1-0.9,1.9-1.9,1.9h-84.3
	c-1.1,0-1.9-0.9-1.9-1.9v-84.3c0-1.1,0.9-1.9,1.9-1.9h84.3C555.3,416.8,556.1,417.7,556.1,418.7z"/>
<path class="st1" d="M181.5,519.2h116.6V402.6H181.5V519.2z M195.7,467v-48.2c0-1.1,0.9-1.9,1.9-1.9H282c1.1,0,1.9,0.9,1.9,1.9V503
	c0,1.1-0.9,1.9-1.9,1.9h-84.3c-1.1,0-1.9-0.9-1.9-1.9V467z"/>
<path class="st2" d="M323.7,254.8H368v-44.3C345.1,214,327.2,231.9,323.7,254.8z"/>
<path class="st1" d="M302,633.5l8.2-5.8v-27.1c0-1.1,0.9-1.9,1.9-1.9s1.9,0.9,1.9,1.9v24.3l9.2-6.6c0.7-0.5,1.6-0.5,2.3,0l24.8,17.7
	c0.5,0.4,0.8,1,0.8,1.6v177.9h98.8V560.4H302V633.5z M429.6,699.4c3.7,0,6.6,3,6.6,6.6c0,3.7-3,6.6-6.6,6.6c-3.7,0-6.6-3-6.6-6.6
	l0,0C422.9,702.4,425.9,699.4,429.6,699.4C429.5,699.4,429.6,699.4,429.6,699.4z M310.2,575.3c0-1.1,0.9-1.9,1.9-1.9
	s1.9,0.9,1.9,1.9v14.5c0,1.1-0.9,1.9-1.9,1.9s-1.9-0.9-1.9-1.9V575.3z"/>
<polygon class="st1" points="243.9,468.8 243.9,466.9 243.9,465 243.9,456.8 243.9,454.9 243.9,452.9 243.9,420.7 235.7,420.7 
	235.7,452.9 235.7,454.9 235.7,456.8 235.7,465 235.7,466.9 235.7,468.8 235.7,501.1 243.9,501.1 "/>
<rect x="247.8" y="468.8" class="st2" width="32.3" height="32.3"/>
<rect x="199.6" y="420.7" class="st2" width="32.3" height="32.3"/>
<rect x="199.6" y="456.8" class="st1" width="32.3" height="8.2"/>
<rect x="247.8" y="456.8" class="st1" width="32.3" height="8.2"/>
<rect x="247.8" y="420.7" class="st2" width="32.3" height="32.3"/>
<polygon class="st5" points="3.9,638.6 3.9,815.5 49.6,815.5 49.6,638.6 26.7,622.3 "/>
<polygon class="st5" points="143.5,634.8 141.5,633.4 126,622.3 103.1,638.6 103.1,815.5 141.5,815.5 143.5,815.5 145.4,815.5 
	148.8,815.5 148.8,638.6 145.4,636.2 "/>
<polygon class="st5" points="53.5,638.6 53.5,815.5 99.2,815.5 99.2,638.6 76.4,622.3 "/>
<polygon class="st5" points="251.9,638.6 251.9,815.5 297.7,815.5 297.7,638.6 274.8,622.3 "/>
<polygon class="st5" points="202.3,638.6 202.3,815.5 248.1,815.5 248.1,638.6 225.2,622.3 "/>
<polygon class="st5" points="152.7,638.6 152.7,815.5 198.4,815.5 198.4,638.6 175.6,622.3 "/>
<polygon class="st5" points="314.1,629.7 312.1,631.1 310.2,632.4 302,638.3 301.5,638.6 301.5,815.5 302,815.5 347.3,815.5 
	347.3,638.6 324.4,622.3 "/>
<rect x="199.6" y="468.8" class="st2" width="32.3" height="32.3"/>
<path class="st6" d="M717.3,549.1c-0.6-5.8-4.5-10.9-8.5-15.9c-0.3,0.6-0.6,1.3-1,2.1c-0.2,0.5-0.4,0.8-0.5,1
	c-1.3,2.9-2.3,6-2.9,9.1c-1.4,8,2.9,14.7,7.7,21.1l1.2-2.4c0.3-0.5,0.5-1,0.5-1.1c0.2-0.5,0.4-1,0.6-1.5c1.3-3.3,2.6-6.5,2.9-9.8
	C717.4,550.9,717.4,550,717.3,549.1L717.3,549.1z"/>
<path class="st6" d="M704.9,196.4c3.4-1,6.7-2,9.5-3.9c0.7-0.5,1.4-1.1,2-1.7c4.1-4.1,5.7-10.3,7.1-16.5c-0.7,0.2-1.4,0.3-2.3,0.5
	c-0.5,0.1-0.9,0.2-1.1,0.2c-3.1,0.8-6.1,2-8.9,3.4c-7.1,3.9-9.7,11.5-11.7,19.2l2.6-0.6l1.2-0.3L704.9,196.4z"/>
<path class="st6" d="M743,559.9c-3.1,0.9-6,2.1-8.8,3.6c-7,4.1-9.4,11.7-11.2,19.5c0.7-0.2,1.6-0.4,2.6-0.7l1.2-0.3l1.5-0.5
	c3.4-1.1,6.6-2.2,9.4-4.1c0.7-0.5,1.3-1.1,1.9-1.7c4-4.2,5.4-10.5,6.7-16.7l-2.3,0.6L743,559.9z"/>
<path class="st6" d="M661.4,300.9c-0.4,0.3-0.7,0.6-0.8,0.7c-2.4,2.1-4.5,4.5-6.4,7.1c-4.6,6.7-3.5,14.6-1.7,22.4
	c0.6-0.5,1.3-1.1,2.1-1.7c0.5-0.4,0.8-0.6,0.9-0.8l1.2-1.1c2.6-2.5,5.1-4.8,6.7-7.7c0.4-0.8,0.8-1.6,1.1-2.4
	c1.8-5.5,0.4-11.8-1.1-17.9L661.4,300.9z"/>
<path class="st6" d="M650.8,290.2c0.3-0.5,0.6-0.8,0.7-1l0.8-1.4c1.8-3.1,3.5-6,4.2-9.3c0.2-0.9,0.3-1.7,0.3-2.6l0,0
	c0.2-5.8-2.9-11.4-6.1-16.9c-0.4,0.6-0.8,1.2-1.3,1.9c-0.3,0.4-0.5,0.7-0.6,0.9c-1.7,2.7-3.1,5.6-4.2,8.6c-2.5,7.7,0.8,15,4.7,22
	L650.8,290.2z"/>
<path class="st6" d="M638.8,298.9L638.8,298.9c-2.5-5.2-7.9-8.7-13.3-12.1c-0.1,0.7-0.2,1.5-0.3,2.4c-0.1,0.5-0.1,0.9-0.1,1.1
	c-0.2,3.2-0.1,6.4,0.3,9.5c1.4,8,7.7,12.9,14.4,17.3c0.1-0.8,0.2-1.6,0.3-2.7c0.1-0.6,0.1-1,0.1-1.2c0-0.5,0-1.1,0.1-1.6
	c0.1-3.6,0.3-7-0.6-10.2C639.5,300.5,639.2,299.7,638.8,298.9z"/>
<path class="st6" d="M686.2,172.2L686.2,172.2c-2.5-5.2-7.9-8.7-13.3-12.1c-0.1,0.7-0.2,1.5-0.3,2.4c-0.1,0.5-0.1,0.9-0.1,1.1
	c-0.2,3.2-0.1,6.4,0.3,9.5c1.4,8,7.7,12.9,14.4,17.3c0.1-0.8,0.2-1.6,0.3-2.7c0.1-0.6,0.1-1,0.1-1.2c0-0.5,0-1.1,0.1-1.6
	c0.1-3.6,0.3-7-0.6-10.2C686.9,173.8,686.6,173,686.2,172.2z"/>
<path class="st7" d="M475.5,190.1l76.6,76.6l0,0l8.7,8.7V118.3h-85.3V190.1z M483.6,134.5c0-1.1,0.9-1.9,1.9-1.9s1.9,0.9,1.9,1.9
	v9.7c0,1.1-0.9,1.9-1.9,1.9s-1.9-0.9-1.9-1.9V134.5z M483.6,151.3c0-1.1,0.9-1.9,1.9-1.9s1.9,0.9,1.9,1.9v36.2
	c0,1.1-0.9,1.9-1.9,1.9s-1.9-0.9-1.9-1.9V151.3z"/>
<path d="M826,360.9c0-70.5-16.7-135.2-43.6-169.3c-5.8-33.4-27.8-56.7-53.5-56.7c-4.6,0-9.1,0.8-13.5,2.3
	c-15.6-20.9-35.6-32.4-56.4-32.4c-45.7,0-83.5,55-86.1,125.3c-3,2-5.8,4.3-8.3,6.9V116.4c0-1.1-0.9-1.9-1.9-1.9h-89.2
	c-1.1,0-1.9,0.9-1.9,1.9v69.9l-94-94c-0.4-0.4-1-0.6-1.6-0.5c-0.1,0-0.2,0-0.3,0l0,0c-0.5,0-1,0.2-1.4,0.6L108.6,358
	c-5.3,5.6-5.2,14.4,0.4,19.8c5.4,5.2,13.9,5.2,19.4,0l13.2-13.2v264.1L127,618.3c-0.7-0.5-1.6-0.5-2.2,0l-23.7,16.9l-23.6-16.9
	c-0.7-0.5-1.6-0.5-2.3,0l-23.7,16.9l-23.7-16.9c-0.7-0.5-1.6-0.5-2.3,0L0.8,636c-0.5,0.4-0.8,1-0.8,1.6v179.8c0,1.1,0.9,1.9,1.9,1.9
	H750c1.1,0,1.9-0.9,1.9-1.9s-0.9-1.9-1.9-1.9h-45.7l-9-218.3c7.5,3.5,15.7,5.4,24,5.4c21.6,0,41.9-12.8,53.2-33.4
	c23.7-6.3,41.5-45.3,41.5-91.4c0-4.9-0.2-9.9-0.6-14.9C821.6,432.3,826,397.1,826,360.9z M49.6,815.5H3.9V638.6l22.9-16.3l22.9,16.3
	L49.6,815.5z M99.2,815.5H53.5V638.6l22.9-16.3l22.9,16.3L99.2,815.5z M475.5,118.3h85.3v157.1l-85.3-85.3V118.3z M148.8,815.5
	h-45.7V638.6l22.9-16.3l15.6,11.1l1.9,1.4l1.9,1.4l3.4,2.4V815.5z M198.4,815.5h-45.7V638.6l22.9-16.3l22.9,16.3L198.4,815.5z
	 M248.1,815.5h-45.7V638.6l22.9-16.3l22.9,16.3V815.5z M297.7,815.5h-45.7V638.6l22.9-16.3l22.9,16.3L297.7,815.5z M347.3,815.5
	h-45.7V638.6l0.5-0.3l8.2-5.8l1.9-1.4l1.9-1.4l10.3-7.4l22.8,16.3L347.3,815.5z M449.9,815.5h-98.8V637.6c0-0.6-0.3-1.2-0.8-1.6
	l-24.8-17.7c-0.7-0.5-1.6-0.5-2.3,0l-9.2,6.6v-24.3c0-1.1-0.9-1.9-1.9-1.9c-1.1,0-1.9,0.9-1.9,1.9v27.1l-8.2,5.8v-73.1h147.9V815.5z
	 M606.5,815.5H453.8V558.5c0-1.1-0.9-1.9-1.9-1.9H300.1c-1.1,0-1.9,0.9-1.9,1.9v75.7l-22.2-15.9c-0.7-0.5-1.6-0.5-2.2,0L250,635.2
	l-23.6-16.9c-0.7-0.5-1.6-0.5-2.2,0l-23.7,16.9l-23.7-16.9c-0.7-0.5-1.6-0.5-2.2,0l-23.7,16.9l-5.4-3.8V364.2h224.5
	c1.1,0,1.9-0.9,1.9-1.9s-0.9-1.9-1.9-1.9H145.7l230.2-230.2l95.6,95.6l3.9,3.9l48.6,48.6l15.5,15.6l1.8,1.8l1.8,1.8l62.8,62.8H424.2
	c-1.1,0-1.9,0.9-1.9,1.9c0,1.1,0.9,1.9,1.9,1.9h182.4V815.5z M543.7,292.4l-1.8-1.8l-1.7-1.7l-6.8-6.8l-3.9-3.9l-54.1-54.1l-3.9-3.9
	L377.3,126c-0.8-0.7-2-0.7-2.7,0L141.5,359.1l-15.9,15.9c-4,3.9-10.4,3.8-14.3-0.3c-3.8-3.9-3.8-10.1,0-14L376,96.1l99.5,99.5
	l70.7,70.7l1.5,1.5l1.5,1.5l9,9l82.4,82.4c4,3.9,4,10.4,0,14.3c-3.9,4-10.4,4-14.3,0l0,0l-15.9-15.9L543.7,292.4z M656,815.5h-45.6
	V607.9c5.8,2,11.8,3.1,17.9,3.1c12.7,0,25.1-4.6,36.6-13.5L656,815.5z M700.4,815.5h-40.5l9.1-221.3l0.1-2.7l0.1-2.8l11-267.4
	l11,269.2l0.1,2.3l0.1,2.3L700.4,815.5z M770.7,565.6c-0.5,0.1-1,0.5-1.3,1c-10.5,19.8-29.7,32.1-50.2,32.1c-8.4,0-16.7-2-24.2-5.9
	l-13-318.7c0-1.1-0.9-1.9-1.9-1.9s-1.9,0.9-1.9,1.9l-13.1,318.3c-11.5,9.7-24,14.7-36.8,14.7c-6.1,0-12.2-1.1-17.9-3.3V364.5
	l13.2,13.2c5.3,5.6,14.2,5.8,19.8,0.4c5.6-5.3,5.8-14.2,0.4-19.8c-0.1-0.1-0.3-0.3-0.4-0.4l-78.8-78.7v-36.6c3.3-3.7,7.1-7,11.3-9.8
	c0.5-0.3,0.9-0.9,0.9-1.6c2.3-68.7,38.4-122.6,82.3-122.6c19.9,0,39.1,11.3,54.2,31.9c0.5,0.7,1.4,1,2.2,0.7
	c4.3-1.6,8.9-2.5,13.5-2.5c23.9,0,44.4,22.2,49.7,54c0.1,0.3,0.2,0.6,0.4,0.9c26.4,33.2,43,97.3,43,167.2c0,36-4.4,71-12.6,101.3
	c-0.1,0.2-0.1,0.4-0.1,0.7c0.4,5,0.6,10,0.6,14.9C810.1,522.7,793.1,560.4,770.7,565.6z"/>
<path d="M529.5,10.4c1-0.3,1.6-1.4,1.3-2.4c-0.3-1-1.4-1.6-2.4-1.3c0,0,0,0,0,0c-2.3,0.6-22.3,6.5-23.1,17.4
	c-0.5,6.3,5.4,12.3,17.9,18.4c-5.5,3.7-16.4,12.3-15.5,21.5c0.5,5.5,5.1,10.1,13.7,13.7c-3.6,2.9-9.1,8.2-8.7,14.1
	c0.3,4.5,4,8.3,10.8,11.2c0.2,0.1,0.5,0.2,0.8,0.2c1.1,0,1.9-0.9,1.9-1.9c0-0.8-0.5-1.5-1.2-1.8c-5.4-2.3-8.3-5-8.5-8
	c-0.4-5.1,7.1-10.9,9.9-12.7c0.9-0.6,1.2-1.8,0.6-2.7c-0.2-0.4-0.6-0.6-1-0.8c-9.2-3.2-14.1-7.1-14.6-11.7
	c-0.7-7.8,11.8-16.9,16.6-19.7c0.6-0.4,1-1.1,1-1.8c0-0.7-0.5-1.4-1.2-1.7c-16-7.1-19.1-12.7-18.9-16.1
	C509.7,17.4,524,11.9,529.5,10.4z"/>
<path d="M408.5,360.2h-22.9c-1.1,0-1.9,0.9-1.9,1.9c0,1.1,0.9,1.9,1.9,1.9h22.9c1.1,0,1.9-0.9,1.9-1.9
	C410.4,361,409.6,360.2,408.5,360.2L408.5,360.2z"/>
<path d="M449.6,262.7c0-40.7-33-73.6-73.6-73.6s-73.6,33-73.6,73.6s33,73.6,73.6,73.6h0C416.6,336.3,449.5,303.4,449.6,262.7z
	 M376,332.5c-38.5,0-69.7-31.2-69.7-69.7S337.4,193,376,193c38.5,0,69.7,31.2,69.7,69.7C445.7,301.2,414.5,332.4,376,332.5z"/>
<path d="M376,206c-31.3,0-56.7,25.4-56.7,56.7s25.4,56.7,56.7,56.7s56.7-25.4,56.7-56.7c0,0,0,0,0,0C432.7,231.4,407.3,206,376,206z
	 M383.9,210.5c22.9,3.5,40.8,21.5,44.3,44.3h-44.3L383.9,210.5z M383.9,258.7h44.3v8.1h-44.3L383.9,258.7z M368,315
	c-22.9-3.5-40.8-21.5-44.3-44.3H368V315z M368,266.8h-44.3v-8.2H368V266.8z M368,254.8h-44.3c3.5-22.9,21.5-40.8,44.3-44.3V254.8z
	 M380,254.8V315h-8.2V210.5h8.2V254.8z M383.9,315v-44.3h44.3C424.7,293.5,406.8,311.5,383.9,315L383.9,315z"/>
<path d="M485.5,149.4c-1.1,0-1.9,0.9-1.9,1.9v36.2c0,1.1,0.9,1.9,1.9,1.9s1.9-0.9,1.9-1.9v-36.2
	C487.5,150.2,486.6,149.4,485.5,149.4z"/>
<path d="M485.5,132.5c-1.1,0-1.9,0.9-1.9,1.9v9.7c0,1.1,0.9,1.9,1.9,1.9s1.9-0.9,1.9-1.9v-9.7C487.5,133.4,486.6,132.5,485.5,132.5z
	"/>
<path d="M429.6,712.7c3.7,0,6.6-3,6.6-6.6c0-3.7-3-6.6-6.6-6.6c-3.7,0-6.6,3-6.6,6.6l0,0C422.9,709.7,425.9,712.7,429.6,712.7z"/>
<path d="M312.1,591.7c1.1,0,1.9-0.9,1.9-1.9v-14.5c0-1.1-0.9-1.9-1.9-1.9s-1.9,0.9-1.9,1.9v14.5
	C310.2,590.9,311.1,591.7,312.1,591.7z"/>
<path d="M540.7,398.7h-88.9c-1.1,0-1.9,0.9-1.9,1.9v120.5c0,1.1,0.9,1.9,1.9,1.9h120.5c1.1,0,1.9-0.9,1.9-1.9V400.7
	c0-1.1-0.9-1.9-1.9-1.9H540.7z M570.4,519.2H453.8V402.6h116.6V519.2z"/>
<path d="M538.6,416.8h-68.7c-1.1,0-1.9,0.9-1.9,1.9V503c0,1.1,0.9,1.9,1.9,1.9h84.3c1.1,0,1.9-0.9,1.9-1.9v-84.3
	c0-1.1-0.9-1.9-1.9-1.9H538.6z M504.1,501.1h-32.3v-32.3h32.3V501.1z M504.1,465h-32.3v-8.2h32.3V465z M504.1,452.9h-32.3v-32.3
	h32.3V452.9z M516.2,452.9v48.2H508v-80.5h8.2V452.9z M552.3,501.1H520v-32.3h32.2V501.1z M552.3,465H520v-8.2h32.2V465z
	 M552.3,452.9H520v-32.3h32.2V452.9z"/>
<path d="M300.1,398.7H179.6c-1.1,0-1.9,0.9-1.9,1.9v120.5c0,1.1,0.9,1.9,1.9,1.9h120.5c1.1,0,1.9-0.9,1.9-1.9V400.7
	C302,399.6,301.1,398.7,300.1,398.7z M298.1,519.2H181.5V402.6h116.6V519.2z"/>
<path d="M197.7,505H282c1.1,0,1.9-0.9,1.9-1.9v-84.3c0-1.1-0.9-1.9-1.9-1.9h-84.3c-1.1,0-1.9,0.9-1.9,1.9V503
	C195.7,504.1,196.6,505,197.7,505z M247.8,420.7h32.3v32.3h-32.3V420.7z M247.8,456.8h32.3v8.2h-32.3V456.8z M247.8,468.8h32.3v32.3
	h-32.3V468.8z M235.7,468.8v-48.2h8.2v80.5h-8.2V468.8z M199.6,420.7h32.3v32.3h-32.3V420.7z M199.6,456.8h32.3v8.2h-32.3V456.8z
	 M199.6,468.8h32.3v32.3h-32.3V468.8z"/>
<path d="M704.4,200.5l1.6-0.5c3.6-1.1,7.3-2.2,10.5-4.4c0.9-0.6,1.8-1.3,2.6-2.1l0,0c5.1-5,6.8-12.5,8.3-19.1c0.2-1,0.4-1.9,0.7-2.8
	l0,0c0.3-1-0.4-2.1-1.4-2.3c-0.7-0.2-1.4,0-1.9,0.6c-1.5,0.5-2.9,0.8-4.4,1.1c-0.6,0.1-1.1,0.2-1.3,0.3c-3.4,0.9-6.6,2.1-9.7,3.7
	c-9.5,5.2-12,15.5-14.3,24.5l-0.1,0.6l0,0c-0.3,1,0.4,2.1,1.4,2.3c0.2,0,0.3,0.1,0.5,0.1c0.5,0,0.9-0.2,1.3-0.5
	c0.9-0.3,3.8-1,4.9-1.2C703.7,200.7,704.3,200.6,704.4,200.5z M699.5,197.7c1.9-7.7,4.5-15.3,11.7-19.2c2.8-1.5,5.8-2.6,8.9-3.4
	c0.2,0,0.6-0.1,1.1-0.2c0.9-0.2,1.6-0.4,2.3-0.5c-1.4,6.2-3,12.4-7.1,16.5c-0.6,0.6-1.3,1.2-2,1.7c-2.8,1.9-6,2.8-9.5,3.9l-1.6,0.5
	l-1.2,0.3L699.5,197.7z"/>
<path d="M749.4,553.9c-0.7-0.1-1.4,0.1-1.9,0.6c-1.4,0.5-2.9,0.9-4.4,1.2c-0.6,0.2-1.1,0.3-1.3,0.3c-3.3,1-6.6,2.3-9.6,4
	c-9.4,5.5-11.6,15.8-13.6,24.9l-0.1,0.6c-0.2,1,0.4,2.1,1.5,2.3c0,0,0,0,0,0c0.1,0,0.3,0,0.4,0c0.5,0,0.9-0.2,1.3-0.5
	c0.9-0.4,3.8-1.1,4.9-1.4l1.4-0.4l1.5-0.5c3.5-1.2,7.2-2.4,10.4-4.6c0.9-0.7,1.8-1.4,2.5-2.2c4.9-5.2,6.5-12.7,7.8-19.3
	c0.2-1,0.4-1.9,0.6-2.8C751.1,555.2,750.4,554.2,749.4,553.9z M739.7,575.6c-0.6,0.6-1.2,1.2-1.9,1.7c-2.7,1.9-5.9,3-9.4,4.1
	l-1.5,0.5l-1.2,0.3c-1,0.3-1.9,0.5-2.6,0.7c1.8-7.8,4.1-15.4,11.2-19.5c2.8-1.5,5.8-2.7,8.8-3.6l1-0.3l2.3-0.6
	C745.1,565.2,743.7,571.5,739.7,575.6z"/>
<path d="M721.1,548.7c-0.8-7.1-5.5-13.1-9.7-18.4c-0.6-0.8-1.2-1.5-1.8-2.3c-0.7-0.8-1.9-1-2.7-0.3c-0.5,0.4-0.8,1.1-0.7,1.8
	c-0.6,1.4-1.2,2.8-1.9,4.2c-0.3,0.6-0.5,1-0.6,1.2c-1.4,3.2-2.5,6.5-3.1,9.9c-1.9,10.6,4.6,19.1,10.3,26.4l0.4,0.5l0,0
	c0.4,0.5,0.9,0.8,1.5,0.8c1.1,0,1.9-0.9,1.9-1.9c0,0,0-0.1,0-0.1c0.3-0.9,1.6-3.6,2.1-4.6c0.3-0.7,0.6-1.2,0.6-1.3
	c0.2-0.5,0.4-1,0.6-1.5c1.4-3.5,2.8-7,3.1-11C721.2,551,721.2,549.8,721.1,548.7z M717.3,551.7c-0.3,3.3-1.5,6.5-2.9,9.8
	c-0.2,0.5-0.4,1-0.6,1.5c-0.1,0.2-0.3,0.6-0.5,1.1l-1.2,2.5c-4.8-6.4-9.1-13.1-7.7-21.1c0.6-3.1,1.6-6.2,2.9-9.1
	c0.1-0.2,0.3-0.5,0.5-1c0.4-0.8,0.8-1.5,1-2.1c3.9,5,7.8,10.1,8.5,15.9l0,0C717.4,550,717.4,550.9,717.3,551.7z"/>
<path d="M689.6,170.5c-3.1-6.4-9.6-10.5-15.3-14.1c-0.8-0.5-1.6-1-2.4-1.5c-0.9-0.6-2.1-0.3-2.7,0.6c-0.4,0.6-0.4,1.3-0.1,1.9
	c0,1.5-0.2,3.1-0.4,4.6c-0.1,0.6-0.1,1.1-0.1,1.3c-0.3,3.5-0.1,6.9,0.4,10.4c1.8,10.7,10.7,16.4,18.6,21.5l0.5,0.3l0,0
	c0.3,0.2,0.7,0.3,1,0.3c0.7,0,1.3-0.3,1.6-0.9c0.3-0.5,0.4-1.2,0.2-1.8c0-1,0.3-3.9,0.4-5.1c0.1-0.7,0.1-1.3,0.1-1.5
	c0-0.5,0-1.1,0.1-1.6c0.1-3.7,0.3-7.6-0.7-11.4C690.5,172.5,690.1,171.5,689.6,170.5z M687.7,184.9c0,0.5,0,1.1-0.1,1.6
	c0,0.2-0.1,0.6-0.1,1.2c-0.1,1-0.2,1.9-0.3,2.7c-6.7-4.4-13-9.2-14.4-17.3c-0.5-3.2-0.6-6.4-0.3-9.5c0-0.2,0.1-0.6,0.1-1.1
	c0.1-0.9,0.2-1.7,0.3-2.4c5.4,3.3,10.8,6.9,13.3,12.1l0,0c0.4,0.8,0.7,1.6,0.9,2.5C688,177.9,687.8,181.3,687.7,184.9z"/>
<path d="M642.2,297.2c-3.1-6.4-9.6-10.5-15.3-14.1c-0.8-0.5-1.6-1-2.4-1.5c-0.9-0.6-2.1-0.3-2.7,0.6c-0.4,0.6-0.4,1.3-0.1,1.9
	c0,1.5-0.2,3.1-0.4,4.6c-0.1,0.6-0.1,1.1-0.1,1.3c-0.3,3.5-0.1,6.9,0.4,10.4c1.8,10.7,10.7,16.4,18.6,21.5l0.5,0.3l0,0
	c0.3,0.2,0.7,0.3,1,0.3c0.7,0,1.3-0.3,1.6-0.9c0.3-0.5,0.4-1.2,0.2-1.8c0-1,0.3-3.9,0.4-5.1c0.1-0.7,0.1-1.3,0.1-1.5
	c0-0.5,0-1.1,0.1-1.6c0.1-3.7,0.3-7.6-0.7-11.4C643.1,299.3,642.7,298.2,642.2,297.2z M640.3,311.6c0,0.5,0,1.1-0.1,1.6
	c0,0.2-0.1,0.6-0.1,1.2c-0.1,1-0.2,1.9-0.3,2.7c-6.7-4.4-13-9.2-14.4-17.3c-0.5-3.2-0.6-6.4-0.3-9.5c0-0.2,0.1-0.6,0.1-1.1
	c0.1-0.9,0.2-1.7,0.3-2.4c5.4,3.3,10.8,6.9,13.3,12.1l0,0c0.4,0.8,0.7,1.6,0.9,2.5C640.6,304.6,640.4,308,640.3,311.6z"/>
<path d="M647.6,297.4L647.6,297.4c0.3,0.6,1,1,1.7,1c0.3,0,0.7-0.1,1-0.3c0.5-0.3,0.9-0.9,1-1.5c0.4-0.9,2.1-3.3,2.7-4.3l0.8-1.2
	l0.8-1.4c1.9-3.2,3.8-6.6,4.7-10.4c0.2-1.1,0.4-2.2,0.4-3.3c0.3-7.1-3.6-13.8-7-19.6c-0.5-0.9-1-1.7-1.4-2.5l0,0
	c-0.5-0.9-1.7-1.3-2.6-0.7c-0.6,0.3-1,1-1,1.7c-0.7,1.3-1.6,2.6-2.5,3.9c-0.4,0.5-0.6,1-0.7,1.1c-1.8,2.9-3.4,6.1-4.5,9.4
	c-3.4,10.3,1.8,19.5,6.4,27.6L647.6,297.4z M644.6,270.4c1.1-3,2.5-5.9,4.2-8.6c0.1-0.2,0.3-0.5,0.6-0.9c0.5-0.7,1-1.4,1.3-1.9
	c3.2,5.5,6.3,11.1,6.1,16.9l0,0c0,0.9-0.1,1.8-0.3,2.6c-0.7,3.3-2.4,6.2-4.2,9.3l-0.8,1.4c-0.1,0.1-0.3,0.5-0.7,1l-1.5,2.2
	C645.4,285.4,642.1,278.2,644.6,270.4L644.6,270.4z"/>
<path d="M666.1,295L666.1,295c-0.2-1-1.3-1.7-2.3-1.5c-0.7,0.2-1.2,0.7-1.4,1.3c-1.1,1.1-2.2,2.1-3.4,3c-0.5,0.4-0.9,0.7-1,0.9
	c-2.6,2.3-4.9,4.9-7,7.7c-6.1,8.9-3.8,19.2-1.7,28.3l0.1,0.6c0.2,0.9,1,1.5,1.9,1.5c0.1,0,0.3,0,0.4-0.1c0.6-0.1,1.1-0.6,1.4-1.1
	c0.6-0.7,2.9-2.6,3.9-3.3c0.6-0.5,1-0.8,1.1-1l1.2-1.1c2.7-2.6,5.5-5.2,7.4-8.7c0.5-1,1-2,1.4-3.1l0,0c2.3-6.8,0.4-14.2-1.2-20.8
	C666.5,296.9,666.3,295.9,666.1,295z M664.3,317.4c-0.3,0.8-0.6,1.6-1.1,2.4c-1.6,2.9-4.1,5.3-6.7,7.7l-1.2,1.1
	c-0.1,0.1-0.5,0.4-0.9,0.8c-0.8,0.7-1.5,1.2-2.1,1.7c-1.7-7.8-2.9-15.7,1.7-22.4c1.9-2.6,4-4.9,6.4-7.1c0.1-0.1,0.4-0.4,0.8-0.7
	l1.8-1.5C664.7,305.6,666.1,311.9,664.3,317.4L664.3,317.4z"/>
</svg>
