<?xml version="1.0" encoding="utf-8"?>
<!-- Generator: Adobe Illustrator 23.0.4, SVG Export Plug-In . SVG Version: 6.00 Build 0)  -->
<svg version="1.1" id="Layer_1" xmlns="http://www.w3.org/2000/svg" xmlns:xlink="http://www.w3.org/1999/xlink" x="0px" y="0px"
	 viewBox="0 0 246 92" style="enable-background:new 0 0 246 92;" xml:space="preserve">
<style type="text/css">
	.st0{fill-rule:evenodd;clip-rule:evenodd;fill:#7C2D1C;}
</style>
<path class="st0" d="M0,91.5h11.5V55.9H0V91.5L0,91.5z M39.3,91.5L25.5,76.5c-0.8-0.8-1.9-2-1.9-3.2c0-0.3,0.2-1.1,1.5-2.6
	l12.4-14.7H23.8l-9.6,13.4c-0.8,1.1-1.6,2.6-1.6,4c0,1.5,1.2,3.3,2.1,4.4l10.8,13.8H39.3L39.3,91.5z M58.4,55.5
	c-5.4,0-11.8,0.2-15.6,3.7c-3.9,3.6-4,9.8-4,14.6c0,4.7,0.2,10.9,4,14.6c3.8,3.5,10.3,3.7,15.6,3.7c5.3,0,11.8-0.2,15.6-3.7
	c3.9-3.6,4-9.9,4-14.6c0-4.8-0.2-11-4-14.6C70.1,55.7,63.8,55.5,58.4,55.5L58.4,55.5z M50.6,73.7c0-3,0.1-4.9,1.3-6.8
	c1.5-2.3,3.5-2.6,6.5-2.6c3,0,4.9,0.3,6.5,2.6c1.4,2,1.3,3.7,1.3,6.8c0,2.8,0,4.8-1.3,6.8c-1.6,2.3-3.5,2.6-6.5,2.6
	c-2.9,0-4.9-0.3-6.5-2.6C50.8,78.7,50.6,76.5,50.6,73.7L50.6,73.7z M95,91.5V81.3h15c1.9,0,4.6-0.5,6.3-1.9c3-2.6,3.2-8.7,3.2-11.2
	c0-5.1-1-7.9-2.6-9.7c-2-2.1-4.6-2.5-7.5-2.5H89.7c-2.4,0-4,1-4.7,1.8c-1.2,1.4-1.4,3.4-1.4,4.9v28.9H95L95,91.5z M95,72.4v-5.5
	c0-0.8,0.2-2.1,2-2.1h6.4c1.3,0,2.6,0,3.6,0.8c0.9,0.8,1,1.9,1,2.8c0,1.5-0.4,2.5-0.9,3.1c-1,1-2.4,0.9-3.8,0.9H95L95,72.4z
	 M117.4,91.5h12.1l2.8-7.3h12.8l2.8,7.3h12.1l-13.2-31.7c-1.7-4-4.7-4.3-8.1-4.3c-5.5,0-7,1.7-8.1,4.3L117.4,91.5L117.4,91.5z
	 M138.3,67.1c0.1-0.3,0.3-0.8,0.5-0.8c0.2,0,0.4,0.5,0.5,0.8l3.2,9h-7.3L138.3,67.1L138.3,67.1z M160.5,91.5h12.2l8.6-23.6
	c0.1-0.2,0.3-0.9,0.6-0.9c0.3,0,0.5,0.7,0.6,0.9l8.6,23.6h12.2l-13.7-32.4c-1.5-3.5-5.5-3.7-7.7-3.7c-2.2,0-6.2,0.2-7.7,3.7
	L160.5,91.5L160.5,91.5z M203.3,91.5h12.2l8.6-23.6c0.1-0.2,0.3-0.9,0.6-0.9c0.3,0,0.5,0.7,0.6,0.9l8.6,23.6H246l-13.7-32.4
	c-1.5-3.5-5.5-3.7-7.7-3.7c-2.2,0-6.2,0.2-7.7,3.7L203.3,91.5L203.3,91.5z M121.5,0.2L121.5,0.2l41.3,16.4c0.3,0.1,0.4,0.4,0.3,0.8
	c0,0,0,0,0,0c0,0.1-0.1,0.3-0.2,0.5c-0.1,0.2-0.2,0.3-0.3,0.5c-0.4,0.7-1.1,1.3-1.6,1.1h0c-3.5-1.4-7-2.8-10.6-4.2
	c-9.5-3.8-19-7.5-28.5-11.3c-5.8-2.3-18.1,3.9-27.1,8.5c-3.1,1.6-5.9,3-7.9,3.8l0,0l0,0l0,0l-0.7,0.3H105h37.6
	c0.3,0,0.4,0.1,0.5,0.4c0,0.1,0,0.3,0,0.5c0,0.1-0.1,0.3-0.2,0.5c-0.3,0.7-1,1.7-1.6,1.7H78.6c-0.2,0-0.3-0.1-0.4-0.2
	c-0.2-0.2-0.2-0.4-0.1-0.7l0,0c0,0,0,0,0,0c0,0,0,0,0,0c0-0.1,0.1-0.3,0.2-0.5c0.4-0.7,1.1-1.5,1.4-1.6l22.1-8.8
	c0.8-0.3,2.2-1,4-1.9C111,3.2,118.9-0.8,121.5,0.2L121.5,0.2C121.4,0.1,121.4,0.1,121.5,0.2C121.4,0.2,121.4,0.2,121.5,0.2
	C121.5,0.2,121.5,0.2,121.5,0.2L121.5,0.2z M121.4,0.1C121.4,0.2,121.4,0.2,121.4,0.1L121.4,0.1L121.4,0.1z M78.1,18.7
	C78.1,18.7,78.1,18.7,78.1,18.7L78.1,18.7L78.1,18.7z M114.2,37.9L114.2,37.9c0.3,0.1,0.4,0.4,0.3,0.8c0,0,0,0,0,0
	c0,0.1-0.1,0.3-0.2,0.5c-0.1,0.2-0.2,0.3-0.3,0.5c-0.4,0.7-1.1,1.4-1.6,1.2h0l-39-15.5c-5.8-2.3-18.1,3.9-27.1,8.5
	c-3.1,1.6-5.9,3-7.9,3.8l0,0l0,0l0,0l-0.7,0.3h18.8h37.6c0.4,0,0.5,0.2,0.5,0.6v0c0,0.1,0,0.1,0,0.2c0,0.1-0.1,0.3-0.2,0.4
	c-0.3,0.7-1,1.7-1.6,1.7H30c-0.2,0-0.3-0.1-0.4-0.2c-0.1-0.2-0.2-0.4-0.1-0.6l0,0c0-0.1,0.1-0.3,0.2-0.5c0.4-0.7,1.1-1.5,1.4-1.7
	l0,0l22.1-8.8c0.8-0.3,2.2-1,4-1.9c5.2-2.6,13.1-6.6,15.6-5.7l0,0c0,0,0,0,0,0c0,0,0,0,0,0L114.2,37.9L114.2,37.9z M72.9,21.5
	C72.9,21.5,72.9,21.5,72.9,21.5L72.9,21.5L72.9,21.5z M210.3,38.9L210.3,38.9c0.5,0.2,0.6,0.6,0.5,1c0,0.2-0.1,0.4-0.2,0.6
	c-0.1,0.2-0.2,0.4-0.3,0.5h0c-0.5,0.6-1.2,1.1-1.8,0.8l-39-15.5c-5.5-2.2-17.7,4-26.7,8.5c-3.1,1.6-5.9,2.9-7.8,3.7v0l0,0l0,0
	l-0.7,0.3h18.2h37.6c0.4,0,0.6,0.2,0.7,0.5c0.1,0.2,0.1,0.4,0,0.6c0,0.2-0.1,0.4-0.2,0.5c-0.3,0.7-1,1.5-1.7,1.5h-62.8
	c-0.3,0-0.5-0.1-0.6-0.2l0,0c-0.2-0.2-0.2-0.4-0.2-0.7v0c0-0.2,0.1-0.4,0.2-0.6h0c0.3-0.6,0.8-1.3,1.2-1.4l0,0l1.2-0.5
	c7.9-3.2,15.9-6.3,23.8-9.5c1.1-0.4,2.6-1.2,4.3-2.1c4.2-2.2,9.5-4.9,12.6-4.5l0,0l0,0c9.2,1.2,19.2,6,28.6,10.6
	C201.9,35.1,206.3,37.3,210.3,38.9L210.3,38.9z"/>
</svg>
