<?xml version="1.0" encoding="utf-8"?>
<!-- Generator: Adobe Illustrator 23.0.3, SVG Export Plug-In . SVG Version: 6.00 Build 0)  -->
<svg version="1.1" id="Layer_1" xmlns="http://www.w3.org/2000/svg" xmlns:xlink="http://www.w3.org/1999/xlink" x="0px" y="0px"
	 viewBox="0 0 246 122" style="enable-background:new 0 0 246 122;" xml:space="preserve">
<style type="text/css">
	.st0{fill-rule:evenodd;clip-rule:evenodd;fill:#7C2D1C;}
	.st1{fill:none;}
	.st2{enable-background:new    ;}
	.st3{fill:#7C2D1C;}
</style>
<path class="st0" d="M0,96.5h11.5V60.9H0V96.5z M39.3,96.5l-13.8-15c-0.8-0.8-1.9-2-1.9-3.2c0-0.3,0.2-1.1,1.5-2.6L37.5,61H23.8
	l-9.6,13.4c-0.8,1.1-1.6,2.6-1.6,4c0,1.5,1.2,3.3,2.1,4.4l10.8,13.8h13.8C39.3,96.6,39.3,96.5,39.3,96.5z M58.4,60.5
	c-5.4,0-11.8,0.2-15.6,3.7c-3.9,3.6-4,9.8-4,14.6c0,4.7,0.2,10.9,4,14.6c3.8,3.5,10.3,3.7,15.6,3.7s11.8-0.2,15.6-3.7
	c3.9-3.6,4-9.9,4-14.6c0-4.8-0.2-11-4-14.6C70.1,60.7,63.8,60.5,58.4,60.5z M50.6,78.7c0-3,0.1-4.9,1.3-6.8c1.5-2.3,3.5-2.6,6.5-2.6
	s4.9,0.3,6.5,2.6c1.4,2,1.3,3.7,1.3,6.8c0,2.8,0,4.8-1.3,6.8c-1.6,2.3-3.5,2.6-6.5,2.6c-2.9,0-4.9-0.3-6.5-2.6
	C50.8,83.7,50.6,81.5,50.6,78.7z M95,96.5V86.3h15c1.9,0,4.6-0.5,6.3-1.9c3-2.6,3.2-8.7,3.2-11.2c0-5.1-1-7.9-2.6-9.7
	c-2-2.1-4.6-2.5-7.5-2.5H89.7c-2.4,0-4,1-4.7,1.8c-1.2,1.4-1.4,3.4-1.4,4.9v28.9H95C95,96.6,95,96.5,95,96.5z M95,77.4v-5.5
	c0-0.8,0.2-2.1,2-2.1h6.4c1.3,0,2.6,0,3.6,0.8c0.9,0.8,1,1.9,1,2.8c0,1.5-0.4,2.5-0.9,3.1c-1,1-2.4,0.9-3.8,0.9
	C103.3,77.4,95,77.4,95,77.4z M117.4,96.5h12.1l2.8-7.3h12.8l2.8,7.3H160l-13.2-31.7c-1.7-4-4.7-4.3-8.1-4.3c-5.5,0-7,1.7-8.1,4.3
	C130.6,64.8,117.4,96.5,117.4,96.5z M138.3,72.1c0.1-0.3,0.3-0.8,0.5-0.8s0.4,0.5,0.5,0.8l3.2,9h-7.3L138.3,72.1z M160.5,96.5h12.2
	l8.6-23.6c0.1-0.2,0.3-0.9,0.6-0.9s0.5,0.7,0.6,0.9l8.6,23.6h12.2l-13.7-32.4c-1.5-3.5-5.5-3.7-7.7-3.7s-6.2,0.2-7.7,3.7L160.5,96.5
	L160.5,96.5z M203.3,96.5h12.2l8.6-23.6c0.1-0.2,0.3-0.9,0.6-0.9s0.5,0.7,0.6,0.9l8.6,23.6H246l-13.7-32.4c-1.5-3.5-5.5-3.7-7.7-3.7
	s-6.2,0.2-7.7,3.7L203.3,96.5z M121.5,5.2l41.3,16.4c0.3,0.1,0.4,0.4,0.3,0.8c0,0.1-0.1,0.3-0.2,0.5s-0.2,0.3-0.3,0.5
	c-0.4,0.7-1.1,1.3-1.6,1.1c-3.5-1.4-7-2.8-10.6-4.2c-9.5-3.8-19-7.5-28.5-11.3c-5.8-2.3-18.1,3.9-27.1,8.5c-3.1,1.6-5.9,3-7.9,3.8
	l-0.7,0.3h56.4c0.3,0,0.4,0.1,0.5,0.4v0.5c0,0.1-0.1,0.3-0.2,0.5c-0.3,0.7-1,1.7-1.6,1.7H78.6c-0.2,0-0.3-0.1-0.4-0.2
	c-0.2-0.2-0.2-0.4-0.1-0.7c0-0.1,0.1-0.3,0.2-0.5c0.4-0.7,1.1-1.5,1.4-1.6l22.1-8.8c0.8-0.3,2.2-1,4-1.9
	C111,8.2,118.9,4.2,121.5,5.2C121.4,5.1,121.4,5.1,121.5,5.2C121.4,5.2,121.4,5.2,121.5,5.2z M121.4,5.1
	C121.4,5.2,121.4,5.2,121.4,5.1z M114.2,42.9c0.3,0.1,0.4,0.4,0.3,0.8c0,0.1-0.1,0.3-0.2,0.5s-0.2,0.3-0.3,0.5
	c-0.4,0.7-1.1,1.4-1.6,1.2l-39-15.5c-5.8-2.3-18.1,3.9-27.1,8.5c-3.1,1.6-5.9,3-7.9,3.8L37.7,43h56.4c0.4,0,0.5,0.2,0.5,0.6v0.2
	c0,0.1-0.1,0.3-0.2,0.4c-0.3,0.7-1,1.7-1.6,1.7H30c-0.2,0-0.3-0.1-0.4-0.2c-0.1-0.2-0.2-0.4-0.1-0.6c0-0.1,0.1-0.3,0.2-0.5
	c0.4-0.7,1.1-1.5,1.4-1.7l22.1-8.8c0.8-0.3,2.2-1,4-1.9c5.2-2.6,13.1-6.6,15.6-5.7C72.8,26.5,114.2,42.9,114.2,42.9z M210.3,43.9
	c0.5,0.2,0.6,0.6,0.5,1c0,0.2-0.1,0.4-0.2,0.6c-0.1,0.2-0.2,0.4-0.3,0.5c-0.5,0.6-1.2,1.1-1.8,0.8l-39-15.5
	c-5.5-2.2-17.7,4-26.7,8.5c-3.1,1.6-5.9,2.9-7.8,3.7l-0.7,0.3h55.8c0.4,0,0.6,0.2,0.7,0.5c0.1,0.2,0.1,0.4,0,0.6
	c0,0.2-0.1,0.4-0.2,0.5c-0.3,0.7-1,1.5-1.7,1.5h-62.8c-0.3,0-0.5-0.1-0.6-0.2c-0.2-0.2-0.2-0.4-0.2-0.7c0-0.2,0.1-0.4,0.2-0.6
	c0.3-0.6,0.8-1.3,1.2-1.4l1.2-0.5c7.9-3.2,15.9-6.3,23.8-9.5c1.1-0.4,2.6-1.2,4.3-2.1c4.2-2.2,9.5-4.9,12.6-4.5
	c9.2,1.2,19.2,6,28.6,10.6C201.9,40.1,206.3,42.3,210.3,43.9L210.3,43.9z"/>
<rect y="103.5" class="st1" width="246" height="25"/>
<g class="st2">
	<path class="st3" d="M53.4,106.1h10.5v12.8h-2.5v-10.6h-5.6v10.6h-2.5V106.1z"/>
	<path class="st3" d="M71.7,118.9c-0.9,0-1.8-0.2-2.5-0.5s-1.4-0.9-2-1.5c-0.5-0.6-1-1.3-1.3-2.1s-0.4-1.6-0.4-2.4
		c0-0.9,0.2-1.7,0.5-2.4c0.3-0.8,0.8-1.5,1.3-2.1c0.6-0.6,1.2-1.1,2-1.4s1.6-0.5,2.5-0.5c0.9,0,1.8,0.2,2.5,0.6
		c0.8,0.4,1.4,0.9,2,1.5c0.5,0.6,1,1.3,1.3,2.1c0.3,0.8,0.4,1.6,0.4,2.4c0,0.9-0.2,1.7-0.5,2.4s-0.7,1.5-1.3,2.1
		c-0.6,0.6-1.2,1.1-2,1.4C73.4,118.8,72.6,118.9,71.7,118.9z M68,112.5c0,0.6,0.1,1.1,0.3,1.6c0.2,0.5,0.4,1,0.7,1.4
		c0.3,0.4,0.7,0.7,1.2,1c0.5,0.2,1,0.4,1.6,0.4c0.6,0,1.1-0.1,1.6-0.4s0.9-0.6,1.2-1s0.6-0.9,0.7-1.4c0.2-0.5,0.2-1,0.2-1.6
		c0-0.6-0.1-1.1-0.3-1.6c-0.2-0.5-0.4-1-0.7-1.4c-0.3-0.4-0.7-0.7-1.2-0.9c-0.5-0.2-1-0.4-1.6-0.4c-0.6,0-1.1,0.1-1.6,0.4
		c-0.5,0.2-0.9,0.6-1.2,1c-0.3,0.4-0.5,0.9-0.7,1.4C68.1,111.4,68,111.9,68,112.5z"/>
	<path class="st3" d="M78.6,112.4c0-0.8,0.1-1.6,0.4-2.3c0.3-0.8,0.7-1.4,1.2-2c0.5-0.6,1.2-1.1,2-1.5s1.7-0.6,2.7-0.6
		c1.2,0,2.2,0.3,3.1,0.8c0.9,0.5,1.5,1.2,1.9,2l-1.9,1.3c-0.2-0.4-0.4-0.7-0.6-0.9c-0.2-0.2-0.5-0.4-0.8-0.6
		c-0.3-0.1-0.6-0.2-0.9-0.3c-0.3-0.1-0.6-0.1-0.9-0.1c-0.6,0-1.2,0.1-1.6,0.4c-0.5,0.3-0.8,0.6-1.2,1c-0.3,0.4-0.5,0.9-0.7,1.4
		c-0.2,0.5-0.2,1-0.2,1.5c0,0.6,0.1,1.1,0.3,1.6c0.2,0.5,0.4,1,0.8,1.4c0.3,0.4,0.7,0.7,1.2,1c0.5,0.2,1,0.4,1.5,0.4
		c0.3,0,0.6,0,0.9-0.1c0.3-0.1,0.6-0.2,0.9-0.3c0.3-0.2,0.5-0.4,0.8-0.6c0.2-0.2,0.4-0.5,0.6-0.9l2,1.2c-0.2,0.5-0.5,0.9-0.9,1.3
		c-0.4,0.4-0.8,0.7-1.3,0.9s-1,0.4-1.5,0.6s-1.1,0.2-1.6,0.2c-0.9,0-1.7-0.2-2.5-0.6s-1.4-0.9-2-1.5s-1-1.3-1.3-2.1
		S78.6,113.2,78.6,112.4z"/>
	<path class="st3" d="M93.4,119c-0.1,0-0.3,0-0.4,0c-0.2,0-0.3,0-0.5-0.1c-0.2,0-0.3-0.1-0.5-0.1c-0.2-0.1-0.3-0.1-0.4-0.2l0.3-2.1
		c0.1,0.1,0.3,0.2,0.5,0.2c0.2,0.1,0.5,0.1,0.7,0.1c0.3,0,0.7-0.1,0.9-0.3c0.3-0.2,0.5-0.6,0.7-1.1l-4.7-9.4h2.7l3.1,6.9l2.9-6.9
		h2.6l-4.5,9.7c-0.3,0.6-0.5,1.1-0.8,1.5s-0.5,0.7-0.8,1c-0.3,0.3-0.6,0.4-0.9,0.6S93.8,119,93.4,119z"/>
	<path class="st3" d="M99.7,116.7h0.4c0.3,0,0.7-0.1,0.9-0.3c0.3-0.2,0.5-0.5,0.7-1.1s0.4-1.2,0.5-2.1c0.2-0.9,0.3-2.1,0.4-3.5
		l0.3-3.6h7.7v10.6h1.9v5.4h-2.3v-3.2H102v3.2h-2.3V116.7z M108.3,116.7v-8.4h-3l-0.2,1.9c-0.1,1.7-0.3,3-0.6,4.1
		c-0.3,1-0.6,1.8-1,2.4H108.3z"/>
	<path class="st3" d="M117.5,106.1h2.2l4.9,12.8H122l-1.2-3.2h-4.5l-1.2,3.2h-2.6L117.5,106.1z M120.4,113.9l-1.8-5l-1.8,5H120.4z"
		/>
	<path class="st3" d="M134.8,118.9c-0.9,0-1.8-0.2-2.5-0.5c-0.8-0.4-1.4-0.9-2-1.5c-0.5-0.6-1-1.3-1.3-2.1s-0.4-1.6-0.4-2.4
		c0-0.9,0.2-1.7,0.5-2.4c0.3-0.8,0.8-1.5,1.3-2.1c0.6-0.6,1.2-1.1,2-1.4c0.8-0.4,1.6-0.5,2.5-0.5c0.9,0,1.8,0.2,2.5,0.6
		s1.4,0.9,2,1.5c0.5,0.6,1,1.3,1.3,2.1c0.3,0.8,0.5,1.6,0.5,2.4c0,0.9-0.2,1.7-0.5,2.4c-0.3,0.8-0.7,1.5-1.3,2.1
		c-0.6,0.6-1.2,1.1-2,1.4C136.6,118.8,135.7,118.9,134.8,118.9z M131.1,112.5c0,0.6,0.1,1.1,0.3,1.6c0.2,0.5,0.4,1,0.7,1.4
		c0.3,0.4,0.7,0.7,1.2,1c0.5,0.2,1,0.4,1.6,0.4c0.6,0,1.1-0.1,1.6-0.4s0.9-0.6,1.2-1c0.3-0.4,0.6-0.9,0.7-1.4s0.2-1,0.2-1.6
		c0-0.6-0.1-1.1-0.3-1.6c-0.2-0.5-0.4-1-0.7-1.4c-0.3-0.4-0.7-0.7-1.2-0.9c-0.5-0.2-1-0.4-1.6-0.4c-0.6,0-1.1,0.1-1.6,0.4
		s-0.9,0.6-1.2,1c-0.3,0.4-0.5,0.9-0.7,1.4C131.2,111.4,131.1,111.9,131.1,112.5z"/>
	<path class="st3" d="M142.6,106.1h10.5v12.8h-2.5v-10.6H145v10.6h-2.5V106.1z"/>
	<path class="st3" d="M165,108.2h-4.1v10.6h-2.5v-10.6h-4.1v-2.2H165V108.2z"/>
	<path class="st3" d="M171,118.9c-0.9,0-1.8-0.2-2.5-0.5c-0.8-0.4-1.4-0.9-2-1.5c-0.5-0.6-1-1.3-1.3-2.1s-0.5-1.6-0.5-2.4
		c0-0.9,0.2-1.7,0.5-2.4c0.3-0.8,0.8-1.5,1.3-2.1c0.6-0.6,1.2-1.1,2-1.4c0.8-0.4,1.6-0.5,2.5-0.5c0.9,0,1.8,0.2,2.5,0.6
		c0.8,0.4,1.4,0.9,2,1.5c0.5,0.6,1,1.3,1.3,2.1c0.3,0.8,0.4,1.6,0.4,2.4c0,0.9-0.2,1.7-0.5,2.4c-0.3,0.8-0.7,1.5-1.3,2.1
		c-0.6,0.6-1.2,1.1-2,1.4C172.7,118.8,171.9,118.9,171,118.9z M167.3,112.5c0,0.6,0.1,1.1,0.3,1.6c0.2,0.5,0.4,1,0.7,1.4
		c0.3,0.4,0.7,0.7,1.2,1s1,0.4,1.6,0.4c0.6,0,1.1-0.1,1.6-0.4s0.9-0.6,1.2-1c0.3-0.4,0.6-0.9,0.7-1.4c0.2-0.5,0.2-1,0.2-1.6
		c0-0.6-0.1-1.1-0.3-1.6c-0.2-0.5-0.4-1-0.7-1.4c-0.3-0.4-0.7-0.7-1.2-0.9c-0.5-0.2-1-0.4-1.6-0.4c-0.6,0-1.1,0.1-1.6,0.4
		c-0.5,0.2-0.9,0.6-1.2,1c-0.3,0.4-0.5,0.9-0.7,1.4C167.3,111.4,167.3,111.9,167.3,112.5z"/>
	<path class="st3" d="M189.1,118.8v-8.5l-3.3,6.3h-1.4l-3.3-6.3v8.5h-2.5v-12.8h2.7l3.8,7.3l3.8-7.3h2.6v12.8H189.1z"/>
</g>
</svg>
