<?xml version="1.0" encoding="utf-8"?>
<!-- Generator: Adobe Illustrator 23.0.4, SVG Export Plug-In . SVG Version: 6.00 Build 0)  -->
<svg version="1.1" id="Слой_1" xmlns="http://www.w3.org/2000/svg" xmlns:xlink="http://www.w3.org/1999/xlink" x="0px" y="0px"
	 viewBox="0 0 826 826" style="enable-background:new 0 0 826 826;" xml:space="preserve">
<style type="text/css">
	.st0{fill:#F8CBC4;}
	.st1{fill:#FBE0DC;}
</style>
<path class="st0" d="M769.3,284.4v-8.2c0-9.8-8-17.8-17.8-17.8H74.6c-9.8,0-17.8,8-17.8,17.8v8.2c0,9.8,8,17.8,17.8,17.8h676.9
	C761.3,302.2,769.3,294.2,769.3,284.4z"/>
<path class="st1" d="M89.4,340.4v364.5c0,39.8,32.3,72.1,72.1,72.1h502.9c39.8,0,72.1-32.3,72.2-72.1V306.6H89.4V340.4z M717.6,588
	c0-1.1,0.9-1.9,1.9-1.9s1.9,0.9,1.9,1.9V657c0,1.1-0.9,1.9-1.9,1.9s-1.9-0.9-1.9-1.9V588z M717.6,674.9c0-1.1,0.9-1.9,1.9-1.9
	s1.9,0.9,1.9,1.9v21.7c0,1.1-0.9,1.9-1.9,1.9s-1.9-0.9-1.9-1.9V674.9z M104.5,346.8c0-1.1,0.9-1.9,1.9-1.9s1.9,0.9,1.9,1.9v208.1
	c0,1.1-0.9,1.9-1.9,1.9s-1.9-0.9-1.9-1.9V346.8z M104.5,572.7c0-1.1,0.9-1.9,1.9-1.9s1.9,0.9,1.9,1.9v21.7c0,1.1-0.9,1.9-1.9,1.9
	s-1.9-0.9-1.9-1.9V572.7z"/>
<path class="st0" d="M803.4,342.3h-62.9v51h62.9c10.4,0,18.8-8.4,18.8-18.8v-13.5C822.1,350.7,813.7,342.3,803.4,342.3z"/>
<path class="st1" d="M731.3,246.5c-19.2-40.4-60.7-76.8-116.8-102.6c-58.2-26.7-127.9-40.8-201.5-40.8s-143.3,14.1-201.5,40.8
	c-56.2,25.8-97.7,62.2-116.8,102.6c-1.2,2.6-2.4,5.3-3.5,8h643.5C733.7,251.8,732.5,249.1,731.3,246.5z M177.4,183.7
	c-13.6,9.2-26.1,19.7-37.6,31.4c-0.4,0.4-0.9,0.6-1.4,0.6c-1.1,0-1.9-0.9-1.9-1.9c0-0.5,0.2-1,0.5-1.3
	c11.6-11.9,24.4-22.6,38.2-31.9c0.9-0.6,2.1-0.4,2.7,0.5C178.5,181.9,178.3,183.1,177.4,183.7L177.4,183.7z M193.4,173.4
	c-2.9,1.8-5.7,3.6-8.5,5.4c-0.9,0.6-2.1,0.3-2.7-0.5c-0.6-0.9-0.3-2.1,0.5-2.7c2.8-1.8,5.7-3.7,8.6-5.5c0.9-0.5,2.1-0.2,2.6,0.7
	C194.6,171.7,194.3,172.9,193.4,173.4L193.4,173.4z"/>
<circle class="st0" cx="413" cy="73.8" r="24.8"/>
<path class="st0" d="M3.8,361.1v13.5c0,10.4,8.4,18.8,18.8,18.8h62.9v-51H22.6C12.3,342.3,3.9,350.7,3.8,361.1z"/>
<path d="M803.4,338.4h-62.9V306h11c12,0,21.7-9.7,21.7-21.7v-8.2c0-12-9.7-21.6-21.7-21.7h-12.6c-1.3-3.3-2.6-6.5-4.1-9.6
	c-19.5-41.2-61.7-78.3-118.7-104.5c-55.3-25.3-120.7-39.5-190.1-41c14.1-7.2,19.7-24.4,12.6-38.6c-7.2-14.1-24.4-19.7-38.6-12.6
	s-19.7,24.4-12.6,38.6c2.8,5.4,7.1,9.8,12.6,12.6c-69.3,1.6-134.8,15.7-190.1,41c-57,26.1-99.2,63.2-118.7,104.5
	c-1.5,3.1-2.9,6.4-4.1,9.6H74.5c-12,0-21.6,9.7-21.7,21.7v8.2c0,12,9.7,21.7,21.7,21.7h11v32.4H22.6C10.1,338.5,0,348.6,0,361.1
	v13.5c0,12.5,10.1,22.6,22.6,22.6h62.9v307.6c0,42,34,76,76,76h502.9c42,0,76-34,76-76V397.2h62.9c12.5,0,22.6-10.1,22.6-22.6v-13.5
	C826,348.6,815.9,338.5,803.4,338.4z M85.5,393.3H22.6c-10.4,0-18.8-8.4-18.8-18.8v-13.5c0-10.4,8.4-18.8,18.8-18.8h62.9L85.5,393.3
	z M388.2,73.8c0-13.7,11.1-24.8,24.8-24.8c13.7,0,24.8,11.1,24.8,24.8S426.7,98.7,413,98.7l0,0C399.3,98.6,388.2,87.5,388.2,73.8z
	 M94.7,246.5c19.2-40.4,60.7-76.8,116.8-102.6c58.2-26.7,127.9-40.8,201.5-40.8s143.3,14.1,201.5,40.8
	c56.2,25.8,97.7,62.2,116.8,102.6c1.2,2.6,2.4,5.3,3.5,8H91.2C92.3,251.8,93.5,249.1,94.7,246.5z M736.6,340.4v364.5
	c0,39.8-32.3,72.1-72.2,72.1H161.5c-39.8,0-72.1-32.3-72.1-72.1V306.6h647.2V340.4z M74.5,302.2c-9.8,0-17.8-8-17.8-17.8v-8.2
	c0-9.8,8-17.8,17.8-17.8h676.9c9.8,0,17.8,8,17.8,17.8v8.2c0,9.8-8,17.8-17.8,17.8L74.5,302.2z M822.1,374.6
	c0,10.4-8.4,18.8-18.8,18.8h-62.9v-51h62.9c10.4,0,18.8,8.4,18.8,18.8L822.1,374.6z"/>
<path d="M106.5,556.8c1.1,0,1.9-0.9,1.9-1.9V346.8c0-1.1-0.9-1.9-1.9-1.9s-1.9,0.9-1.9,1.9v208.1
	C104.5,555.9,105.4,556.8,106.5,556.8z"/>
<path d="M106.5,596.4c1.1,0,1.9-0.9,1.9-1.9v-21.7c0-1.1-0.9-1.9-1.9-1.9s-1.9,0.9-1.9,1.9v21.7
	C104.5,595.5,105.4,596.4,106.5,596.4z"/>
<path d="M719.5,658.9c1.1,0,1.9-0.9,1.9-1.9V588c0-1.1-0.9-1.9-1.9-1.9s-1.9,0.9-1.9,1.9V657C717.6,658,718.5,658.9,719.5,658.9z"/>
<path d="M719.5,698.5c1.1,0,1.9-0.9,1.9-1.9v-21.7c0-1.1-0.9-1.9-1.9-1.9s-1.9,0.9-1.9,1.9v21.7
	C717.6,697.7,718.5,698.5,719.5,698.5z"/>
<path d="M175.2,180.5c-13.8,9.3-26.6,20-38.2,31.9c-0.7,0.8-0.7,2,0.1,2.7c0.8,0.7,2,0.7,2.7-0.1c11.4-11.7,24-22.3,37.6-31.4
	c0.9-0.6,1.1-1.8,0.5-2.7C177.3,180.2,176.1,179.9,175.2,180.5L175.2,180.5z"/>
<path d="M191.4,170.2c-2.9,1.8-5.8,3.6-8.6,5.5c-0.9,0.6-1.1,1.8-0.5,2.7c0.4,0.5,1,0.9,1.6,0.9c0.4,0,0.7-0.1,1.1-0.3
	c2.8-1.8,5.6-3.6,8.5-5.4c0.9-0.6,1.2-1.8,0.6-2.7C193.4,169.9,192.3,169.6,191.4,170.2L191.4,170.2z"/>
</svg>
