<?xml version="1.0" encoding="utf-8"?>
<!-- Generator: Adobe Illustrator 23.0.4, SVG Export Plug-In . SVG Version: 6.00 Build 0)  -->
<svg version="1.1" id="Слой_1" xmlns="http://www.w3.org/2000/svg" xmlns:xlink="http://www.w3.org/1999/xlink" x="0px" y="0px"
	 viewBox="0 0 826 826" style="enable-background:new 0 0 826 826;" xml:space="preserve">
<style type="text/css">
	.st0{fill:#D5E7F2;}
	.st1{fill:#C4E1D4;}
	.st2{fill:#F2EBE4;}
</style>
<path class="st0" d="M569.9,363.2H416.5c-1.9,0-3.8,0.4-5.5,1.3c-1.5,0.7-2.8,1.7-3.9,2.9c-4.7,5.2-4.3,13.1,0.9,17.8
	c2.3,2.1,5.3,3.2,8.4,3.2h351.3c7,0,12.6-5.6,12.6-12.6c0-7-5.6-12.6-12.6-12.6L569.9,363.2L569.9,363.2z"/>
<path class="st1" d="M407.1,232.6c0-6.8-5.5-12.3-12.3-12.3H240.2c-6.8,0-12.3,5.5-12.3,12.3v2.1h179.2V232.6z"/>
<path class="st1" d="M332.1,339.8h-29.3c-6.8,0-12.3,5.5-12.3,12.3v93.8c0,6.8,5.5,12.3,12.3,12.3h29.3c6.8,0,12.4-5.5,12.4-12.3
	v-93.8C344.5,345.3,338.9,339.8,332.1,339.8L332.1,339.8z"/>
<path class="st1" d="M581.3,495.6c-4.7,0-8.5,3.8-8.6,8.6v69c0,4.7,3.8,8.5,8.6,8.6h21.5c4.7,0,8.6-3.8,8.6-8.6v-69
	c0-4.7-3.8-8.6-8.6-8.6L581.3,495.6z"/>
<path class="st1" d="M573.8,417.4h83.7v-1c0-4.7-3.8-8.6-8.6-8.6H535.3c-4.7,0-8.6,3.8-8.6,8.6v1L573.8,417.4L573.8,417.4z"/>
<path class="st0" d="M569.9,312.9h-76.2c-25.9,0-47.3,20.5-48.3,46.4h293.5c-1.1-25.9-22.4-46.4-48.3-46.4H569.9L569.9,312.9z"/>
<path class="st0" d="M809.6,392.3H374.7c-7,0-12.6,5.6-12.6,12.6s5.6,12.6,12.6,12.6h148.2v-1.1c0-6.9,5.6-12.4,12.4-12.4h113.6
	c6.9,0,12.4,5.6,12.4,12.4v1h148.3c6.9,0,12.6-5.6,12.6-12.6C822.2,397.9,816.5,392.3,809.6,392.3z"/>
<path class="st0" d="M451.4,91.2H183.5c-35.9,0.1-65.4,28.6-66.5,64.5h400.8C516.8,119.8,487.3,91.2,451.4,91.2z"/>
<path class="st0" d="M556.4,195.2c9.8,0,17.8-8,17.8-17.8c0-9.8-8-17.8-17.8-17.8H78.5c-9.8,0-17.8,8-17.8,17.8
	c0,9.8,8,17.8,17.8,17.8l0,0H556.4z"/>
<path class="st0" d="M224,232.6c0-8.9,7.3-16.2,16.2-16.2h154.5c8.9,0,16.2,7.3,16.2,16.2v2.1h202.3c9.8,0,17.8-8,17.8-17.8
	c0-9.8-8-17.8-17.8-17.8l0,0H21.7c-9.8,0-17.8,8-17.8,17.8c0,9.8,8,17.8,17.8,17.8H224V232.6z"/>
<path class="st2" d="M366,390.8c2.6-1.6,5.6-2.5,8.7-2.5h27.5c0.7-0.5,1.4-1.1,1.9-1.8c-6-6.8-5.3-17.2,1.5-23.1
	c0.5-0.4,1-0.8,1.5-1.1V238.6H227.9v139.9c0,6.8,5.5,12.3,12.3,12.3h46.4v-38.8c0-8.9,7.3-16.2,16.2-16.2h29.3
	c9,0,16.2,7.2,16.2,16.2v0v38.7H366z"/>
<path class="st2" d="M441.5,359.3c1.1-28.1,24.1-50.2,52.2-50.3h76.2v-70.4H410.9v121.7c1.8-0.6,3.6-1,5.5-1L441.5,359.3z"/>
<path class="st2" d="M526.7,523.6c0,4.7,3.8,8.6,8.6,8.6h33.6v-27.9c0-6.8,5.6-12.4,12.4-12.4h21.5c6.9,0,12.4,5.6,12.4,12.4v28
	h33.6c4.7,0,8.6-3.8,8.6-8.6V421.7H526.7V523.6z"/>
<path class="st2" d="M661.3,523.6c0,6.9-5.5,12.4-12.4,12.5c0,0,0,0,0,0h-33.6v37.2c0,6.9-5.6,12.4-12.4,12.4h-21.5
	c-6.9,0-12.4-5.6-12.4-12.4V536h-33.6c-6.9,0-12.4-5.6-12.4-12.4V421.7H407.1v264.8c0,26.7,21.6,48.3,48.3,48.3h273.5
	c26.7,0,48.3-21.6,48.3-48.3V421.7H661.4L661.3,523.6z M425.4,633.3c0,1.1-0.9,1.9-1.9,1.9c-1.1,0-1.9-0.9-1.9-1.9V627
	c0-1.1,0.9-1.9,1.9-1.9c1.1,0,1.9,0.9,1.9,1.9V633.3z M425.4,620.6c0,1.1-0.9,1.9-1.9,1.9c-1.1,0-1.9-0.9-1.9-1.9V473.3
	c0-1.1,0.9-1.9,1.9-1.9c1.1,0,1.9,0.9,1.9,1.9V620.6z M758.7,636.5c0-1.1,0.9-1.9,1.9-1.9s1.9,0.9,1.9,1.9v5.3
	c0,1.1-0.9,1.9-1.9,1.9s-1.9-0.9-1.9-1.9V636.5z M758.7,648.9c0-1.1,0.9-1.9,1.9-1.9s1.9,0.9,1.9,1.9v23.4c0,1.1-0.9,1.9-1.9,1.9
	s-1.9-0.9-1.9-1.9V648.9z"/>
<path class="st2" d="M403.2,686.5V421.3h-28.5c-9.1,0-16.4-7.3-16.5-16.3c0-3.7,1.2-7.3,3.5-10.2h-13.4v51.2
	c0,8.9-7.3,16.2-16.2,16.2h-29.3c-8.9,0-16.2-7.3-16.2-16.2v-51.2h-46.4c-8.9,0-16.2-7.3-16.2-16.2V238.6H65v447.9
	c0,26.7,21.6,48.3,48.3,48.3h322.3C416,726.8,403.2,707.7,403.2,686.5z M85.1,596.1c0,1.1-0.9,1.9-1.9,1.9s-1.9-0.9-1.9-1.9v-8.7
	c0-1.1,0.9-1.9,1.9-1.9s1.9,0.9,1.9,1.9V596.1z M85.1,578.7c0,1.1-0.9,1.9-1.9,1.9s-1.9-0.9-1.9-1.9V378.3c0-1.1,0.9-1.9,1.9-1.9
	s1.9,0.9,1.9,1.9V578.7z"/>
<path d="M83.2,376.4c-1.1,0-1.9,0.9-1.9,1.9v200.4c0,1.1,0.9,1.9,1.9,1.9s1.9-0.9,1.9-1.9V378.3C85.1,377.2,84.3,376.4,83.2,376.4z"
	/>
<path d="M83.2,585.5c-1.1,0-1.9,0.9-1.9,1.9v8.7c0,1.1,0.9,1.9,1.9,1.9s1.9-0.9,1.9-1.9v-8.7C85.1,586.3,84.3,585.5,83.2,585.5z"/>
<path d="M809.6,388.4h-31.3c7-5.8,8-16.1,2.2-23.1c-3.2-3.8-7.9-6-12.8-5.9h-25c-1.1-28.1-24.1-50.3-52.2-50.3H573.8v-70.4h39.5
	c12,0,21.7-9.7,21.7-21.7c0-12-9.7-21.7-21.7-21.7h-44.5c9.8-6.8,12.3-20.3,5.5-30.1c-4-5.9-10.7-9.4-17.8-9.4h-34.7
	c-1.1-38.1-32.2-68.4-70.3-68.4H183.5c-38.1,0.1-69.2,30.4-70.3,68.4H78.5c-12,0-21.7,9.7-21.7,21.7c0,7.1,3.5,13.8,9.4,17.8H21.7
	c-12,0-21.7,9.7-21.7,21.7c0,12,9.7,21.7,21.7,21.7h39.5v447.9c0,28.8,23.4,52.1,52.2,52.2h615.5c28.8,0,52.1-23.4,52.2-52.2V421.3
	h28.6c9.1,0,16.4-7.4,16.4-16.4C826,395.7,818.7,388.4,809.6,388.4z M767.8,363.2c7,0,12.6,5.6,12.6,12.6c0,7-5.6,12.6-12.6,12.6
	H416.4c-6.9,0-12.6-5.5-12.6-12.5c0-3.1,1.1-6.2,3.3-8.5c1.1-1.2,2.4-2.2,3.9-2.9c1.7-0.8,3.6-1.3,5.5-1.3L767.8,363.2L767.8,363.2z
	 M332.1,335.9h-29.3c-8.9,0-16.2,7.3-16.2,16.2v38.7h-46.4c-6.8,0-12.3-5.5-12.3-12.3V238.6h179.2v123.7c-7.5,5.2-9.3,15.4-4.2,22.8
	c0.4,0.5,0.7,1,1.1,1.5c-0.6,0.7-1.2,1.3-1.9,1.8h-27.5c-3.1,0-6.1,0.9-8.7,2.5h-17.6v-38.7C348.3,343.2,341.1,335.9,332.1,335.9
	L332.1,335.9z M344.5,352.1v93.8c0,6.8-5.5,12.3-12.3,12.3h-29.3c-6.8,0-12.3-5.5-12.3-12.3v-93.8c0-6.8,5.5-12.3,12.3-12.3h29.3
	C338.9,339.8,344.5,345.3,344.5,352.1L344.5,352.1z M227.9,234.7v-2.1c0-6.8,5.5-12.3,12.3-12.3h154.5c6.8,0,12.3,5.5,12.3,12.3v2.1
	H227.9z M410.9,360.3V238.6h159V309h-76.2c-28.1,0-51.1,22.2-52.2,50.3h-25.1C414.6,359.3,412.7,359.7,410.9,360.3z M690.5,312.9
	c25.9,0,47.3,20.5,48.3,46.4H445.3c1.1-25.9,22.4-46.4,48.3-46.4H690.5L690.5,312.9z M183.5,91.2h267.9
	c35.9,0.1,65.3,28.6,66.4,64.5H117.1C118.2,119.8,147.6,91.2,183.5,91.2z M60.7,177.4c0-9.8,8-17.8,17.8-17.8h477.9
	c9.8,0,17.8,8,17.8,17.8c0,9.8-8,17.8-17.8,17.8H78.5C68.7,195.2,60.7,187.3,60.7,177.4z M21.7,234.7c-9.8,0-17.8-8-17.8-17.8
	c0-9.8,8-17.8,17.8-17.8h591.6c9.8,0,17.8,8,17.8,17.8c0,9.8-8,17.8-17.8,17.8l0,0H410.9v-2.1c0-8.9-7.3-16.2-16.2-16.2H240.2
	c-8.9,0-16.2,7.3-16.2,16.2v2.1L21.7,234.7L21.7,234.7z M113.3,734.8c-26.7,0-48.3-21.6-48.3-48.3V238.6h159v139.9
	c0,8.9,7.3,16.2,16.2,16.2h46.4V446c0,8.9,7.3,16.2,16.2,16.2h29.3c9,0,16.2-7.3,16.2-16.2c0,0,0,0,0,0v-51.2h13.4
	c-5.6,7.1-4.4,17.4,2.7,23c2.9,2.3,6.5,3.5,10.2,3.5h28.5v265.3c0,21.2,12.9,40.3,32.5,48.3H113.3z M777.2,686.5
	c0,26.7-21.6,48.3-48.3,48.3H455.3c-26.7,0-48.3-21.6-48.3-48.3V421.7h115.8v101.9c0,6.9,5.5,12.4,12.4,12.5l0,0h33.6v37.2
	c0,6.8,5.6,12.4,12.4,12.4h21.5c6.9,0,12.4-5.6,12.4-12.4V536h33.6c6.9,0,12.4-5.6,12.4-12.4V421.7h115.8L777.2,686.5z M569.9,421.7
	h87.5v101.9c0,4.7-3.8,8.6-8.6,8.6h-33.6v-27.9c0-6.9-5.6-12.4-12.4-12.4h-21.5c-6.9,0-12.4,5.6-12.4,12.4v28h-33.6
	c-4.7,0-8.6-3.8-8.6-8.6V421.7H569.9z M526.7,417.4v-1c0-4.7,3.8-8.6,8.6-8.6h113.6c4.7,0,8.6,3.8,8.6,8.6v1L526.7,417.4
	L526.7,417.4z M611.4,504.2v69c0,4.7-3.8,8.6-8.6,8.6h-21.5c-4.7,0-8.5-3.8-8.6-8.6v-69c0-4.7,3.8-8.5,8.6-8.6h21.5
	C607.6,495.6,611.4,499.5,611.4,504.2z M809.6,417.4H661.3v-1c0-6.9-5.6-12.4-12.4-12.4H535.3c-6.9,0-12.4,5.6-12.4,12.4v1H374.7
	c-7,0-12.6-5.6-12.6-12.6c0-7,5.6-12.6,12.6-12.6h434.9c7,0,12.6,5.6,12.6,12.6C822.2,411.8,816.5,417.4,809.6,417.4L809.6,417.4z"
	/>
<path d="M423.5,471.4c-1.1,0-1.9,0.9-1.9,1.9v147.3c0,1.1,0.9,1.9,1.9,1.9c1.1,0,1.9-0.9,1.9-1.9V473.3
	C425.4,472.2,424.5,471.4,423.5,471.4z"/>
<path d="M423.5,625c-1.1,0-1.9,0.9-1.9,1.9v6.4c0,1.1,0.9,1.9,1.9,1.9c1.1,0,1.9-0.9,1.9-1.9V627C425.4,625.9,424.5,625,423.5,625z"
	/>
<path d="M760.6,674.2c1.1,0,1.9-0.9,1.9-1.9v-23.4c0-1.1-0.9-1.9-1.9-1.9s-1.9,0.9-1.9,1.9v23.4
	C758.7,673.4,759.5,674.2,760.6,674.2z"/>
<path d="M760.6,643.8c1.1,0,1.9-0.9,1.9-1.9v-5.3c0-1.1-0.9-1.9-1.9-1.9s-1.9,0.9-1.9,1.9v5.3C758.7,642.9,759.5,643.8,760.6,643.8z
	"/>
</svg>
