<?xml version="1.0" encoding="utf-8"?>
<!-- Generator: Adobe Illustrator 23.0.4, SVG Export Plug-In . SVG Version: 6.00 Build 0)  -->
<svg version="1.1" id="Слой_1" xmlns="http://www.w3.org/2000/svg" xmlns:xlink="http://www.w3.org/1999/xlink" x="0px" y="0px"
	 viewBox="0 0 826 826" style="enable-background:new 0 0 826 826;" xml:space="preserve">
<style type="text/css">
	.st0{fill:#F9E5A1;}
	.st1{fill:#E0E2F1;}
	.st2{fill:#D5E7F2;}
	.st3{fill:#B5D9C9;}
	.st4{fill:#F8CBC4;}
	.st5{fill:#B8D0D9;}
</style>
<circle class="st0" cx="395" cy="52.6" r="17.4"/>
<path class="st1" d="M333.2,72.8c28.3,91.4,21.3,175.5,19.8,190.2h20c14.1-81.6-14.1-177.3-17.7-189.2
	C346.4,72.8,336.6,72.3,333.2,72.8z"/>
<circle class="st0" cx="401.4" cy="125.7" r="5"/>
<circle class="st0" cx="494.9" cy="233.1" r="15.9"/>
<circle class="st2" cx="587.5" cy="37.1" r="2"/>
<path class="st3" d="M551.4,353.2c58-36.2,120.7-52.3,173-44.3c-0.8-5.2-1.6-10.6-2.4-15.8c-59.5-6.7-123.6,9.8-176.4,45.3
	c1,2.5,2.4,6.1,3.8,9.6C550.1,349.9,550.8,351.7,551.4,353.2z"/>
<circle class="st2" cx="644.2" cy="247" r="7"/>
<path class="st1" d="M614.3,209.4c-32.2,13.9-80,43.2-126,103l17.5,10.5c12.9-19.8,28.2-38,45.5-54.2
	c27.2-25.5,71.3-56.4,127.9-60.7l-6.3-14.6C667.4,193.8,644.9,196.2,614.3,209.4z"/>
<circle class="st2" cx="319.4" cy="246.5" r="14.4"/>
<circle class="st0" cx="315.9" cy="147.6" r="3"/>
<path class="st3" d="M438.8,209.2h-21.9c2.4,11.6,10.9,60-11.6,85.4c9.2,2.3,18.5,4.5,21.3,5C431,293.4,450.4,247.5,438.8,209.2z"/>
<circle class="st0" cx="733.7" cy="439" r="3"/>
<path class="st4" d="M605.1,440.1l-0.4-14.4l-12.8,6.6c-0.5,0.2-1,0.3-1.5,0.1l-13.8-4.1l2.3,14.2c0.1,0.5,0,1-0.3,1.4l-8.1,11.9
	l14.2,2.2c0.5,0.1,1,0.3,1.3,0.7l8.8,11.4l6.5-12.8c0.2-0.5,0.6-0.8,1.1-1l13.5-4.8l-10.2-10.1C605.3,441.1,605.1,440.6,605.1,440.1
	z"/>
<circle class="st2" cx="735.2" cy="374.9" r="16.4"/>
<path class="st4" d="M502.8,166.9l-10.6,9.7l13.3,5.4c0.5,0.2,0.9,0.5,1.1,1l6,13.1l9.2-11.1c0.3-0.4,0.8-0.6,1.3-0.7l14.3-1.6
	l-7.6-12.2c-0.3-0.4-0.4-1-0.3-1.5l2.9-14.1l-13.9,3.5c-0.5,0.1-1,0.1-1.5-0.2l-12.5-7.1l-1,14.3
	C503.4,166.1,503.1,166.6,502.8,166.9z"/>
<circle class="st0" cx="756.1" cy="154" r="17.4"/>
<path class="st5" d="M700.9,246.5c22.4,0.2,44.8,6.1,53,8.6l-7.4-35.9C736.2,232.3,716.1,241.3,700.9,246.5z"/>
<circle class="st2" cx="609.3" cy="150.5" r="20.9"/>
<circle class="st2" cx="468.1" cy="150.5" r="10.9"/>
<path class="st5" d="M519.7,100.4c18.5-26.8,36.1-36.8,43.9-40.2c-9.8-5.7-20.3-11.1-23.1-11.4C528.3,63.3,521,81.4,519.7,100.4z"/>
<circle class="st0" cx="682" cy="132.6" r="8"/>
<circle class="st0" cx="137.8" cy="211.2" r="9"/>
<path class="st5" d="M226.7,265.5c-7.7-5.5-27.2-14.5-67-6V274C181.3,267,204,264.1,226.7,265.5z"/>
<path class="st4" d="M272.8,65l-10.2-14.4L254,66c-0.2,0.4-0.7,0.8-1.1,0.9L236,72.1l12,12.9c0.3,0.4,0.5,0.9,0.5,1.4l-0.2,17.7
	l16.1-7.4c0.5-0.2,1-0.2,1.5-0.1l16.7,5.7l-2.1-17.6c-0.1-0.5,0.1-1,0.4-1.4l10.6-14.2l-17.3-3.4C273.6,65.6,273.1,65.4,272.8,65z"
	/>
<circle class="st0" cx="206" cy="356" r="7.5"/>
<path class="st2" d="M240.8,793l-14.9-10.8c-0.7,6.9-1.4,13.1-2,18.4c-0.7,6.3-1.2,11.5-1.7,15.4l0.3,0.2
	C226,811.7,231.6,804.6,240.8,793z"/>
<path class="st2" d="M336.4,674.6l-92.1-67.1c-1.2,11.7-2.4,23-3.5,33.8l77.1,56.2L336.4,674.6z"/>
<path class="st2" d="M272.1,754c5.1-6.3,10.6-13.1,16.4-20.3l-53.4-38.8c-1.3,12.1-2.5,23.4-3.6,33.8l38.4,28
	C270.7,755.8,271.4,754.9,272.1,754z"/>
<path class="st2" d="M432.5,556.4L262.6,432.6c-1.2,11-2.3,22.3-3.5,33.8l154.8,112.9L432.5,556.4z"/>
<path class="st2" d="M480.6,497.4L271.7,345.2c-1.1,10.4-2.3,21.8-3.5,33.8L462,520.3L480.6,497.4z"/>
<path class="st2" d="M528.8,438.4l-181.1-132l-68.9-28.6c-0.3,2.7-0.8,7.4-1.4,13.8l232.8,169.7L528.8,438.4z"/>
<path class="st2" d="M384.5,615.5l-131-95.5c-1,9.8-2.1,19.7-3.1,29.6c-0.1,1.4-0.3,2.8-0.4,4.2l115.9,84.5L384.5,615.5z"/>
<path class="st2" d="M563.3,396.1L531.8,383l26.5,19.3C560.5,399.5,562.2,397.5,563.3,396.1z"/>
<path class="st0" d="M267.5,759.8l-36.4-26.5c-0.2,1.8-0.4,3.5-0.5,5.2c-1.5,14.6-3,27.8-4.1,39.2l16.9,12.3
	C249.7,782,257.6,772.1,267.5,759.8z"/>
<path class="st0" d="M315.4,700.5l-75.1-54.7c-1.7,15.8-3.2,30.6-4.7,44.4l55.4,40.4C298.6,721.3,306.7,711.3,315.4,700.5z"/>
<path class="st0" d="M459.5,523.3L267.8,383.6c-1.5,14-3,28.8-4.6,44.4L435,553.3C443.3,543.1,451.5,533.1,459.5,523.3z"/>
<path class="st0" d="M555.8,405.3l-39.7-28.9l-152.7-63.5l167.9,122.4L555.8,405.3z"/>
<path class="st0" d="M391.4,606.9l19.9-24.5L258.6,471c-1.5,14.6-3.1,29.4-4.6,44.4l133,96.9L391.4,606.9z"/>
<path class="st0" d="M507.6,464.3L276.9,296.1c-1.2,11.2-2.7,26.3-4.6,44.4l210.9,153.7L507.6,464.3z"/>
<path class="st0" d="M363.3,641.4l-113.9-83c-1.6,15.4-3.2,30.3-4.6,44.4l94.1,68.6L363.3,641.4z"/>
<path d="M568.1,396.5c0.7-0.9,0.6-2.1-0.3-2.8c-0.1-0.1-0.3-0.2-0.5-0.3L277.9,273c-0.6-0.2-1.2-0.2-1.8,0.1c-0.6,0.3-0.9,0.9-1,1.5
	c-0.6,5.4-56.6,542.3-57.7,548.9c0,0.1-0.1,0.2,0,0.4c0,1.1,0.8,1.9,1.9,2h0.2c1.3,0,1.7-0.8,1.9-2c0,0.2-0.1,0.5-0.1,0.7
	C225.6,816.4,450,541,568.1,396.5z M563.3,396.1c-1.1,1.4-2.8,3.5-5.1,6.2L531.8,383L563.3,396.1z M516.1,376.4l39.7,28.9l-24.5,30
	L363.4,313L516.1,376.4z M278.8,277.7l68.9,28.6l181.1,132l-18.6,22.9L277.3,291.5C278,285.1,278.5,280.4,278.8,277.7z M276.9,296.1
	l230.7,168.2l-24.5,30L272.3,340.6C274.1,322.4,275.7,307.3,276.9,296.1L276.9,296.1z M271.8,345.2l208.9,152.2L462,520.3L268.2,379
	C269.5,366.9,270.7,355.6,271.8,345.2z M267.8,383.6l191.7,139.7c-8,9.8-16.1,19.8-24.4,30L263.1,428
	C264.7,412.4,266.3,397.5,267.8,383.6L267.8,383.6z M262.7,432.6l169.9,123.8l-18.6,22.9L259.1,466.4
	C260.3,454.9,261.5,443.6,262.7,432.6L262.7,432.6z M258.7,471l152.7,111.3l-19.9,24.5l-4.5,5.5l-133-96.9
	C255.5,500.4,257.1,485.6,258.7,471L258.7,471z M250.5,549.7c1-9.9,2.1-19.8,3.1-29.6l131,95.5l-18.6,22.9l-116-84.6
	C250.1,552.5,250.2,551.1,250.5,549.7L250.5,549.7z M249.5,558.5l113.9,83l-24.5,30l-94.1-68.6C246.3,588.7,247.9,573.9,249.5,558.5
	L249.5,558.5z M244.4,607.5l92.1,67.1l-18.6,22.9l-77.1-56.2C242,630.4,243.1,619.2,244.4,607.5L244.4,607.5z M240.4,645.9
	l75.1,54.7c-8.7,10.7-16.8,20.7-24.3,30.1l-55.5-40.4c1.4-13.8,3-28.6,4.7-44.4L240.4,645.9z M235.2,694.8l53.4,38.9
	c-5.8,7.2-11.3,14-16.4,20.3c-0.7,0.9-1.4,1.7-2.1,2.6l-38.4-28C232.7,718.2,233.9,707,235.2,694.8z M230.6,738.4
	c0.2-1.7,0.4-3.4,0.5-5.2l36.4,26.5c-9.9,12.3-17.8,22.2-24.2,30.2l-16.9-12.3C227.6,766.2,229,753,230.6,738.4z M224,800.6
	c0.6-5.4,1.2-11.5,2-18.4l14.9,10.8c-9.3,11.6-14.9,18.7-18.2,23.1l-0.3-0.2C222.7,812.1,223.3,806.9,224,800.6L224,800.6z"/>
<path d="M541.2,338.5c1,2.3,2.8,7,4.4,11c1.2,2.9,2.2,5.7,3,7.4c0.2,0.5,0.7,1,1.2,1.1c0.2,0.1,0.4,0.1,0.6,0.1
	c0.4,0,0.7-0.1,1.1-0.3c58.7-37.2,122.5-53.5,174.9-44.5c0.6,0.1,1.3-0.1,1.7-0.5c0.5-0.4,0.7-1.1,0.6-1.7c-1-6.6-2-13.4-3.1-20.1
	c-0.1-0.9-0.8-1.6-1.7-1.7C662.6,282,596.3,299,542,336.1C541.2,336.6,540.9,337.6,541.2,338.5z M721.9,293.1
	c0.8,5.3,1.7,10.6,2.4,15.8c-52.3-8-115,8-173,44.3c-0.6-1.5-1.3-3.3-2-5.2c-1.4-3.5-2.8-7.1-3.8-9.6
	C598.3,302.9,662.4,286.4,721.9,293.1L721.9,293.1z"/>
<path d="M296.8,67.1c-0.2-0.6-0.8-1.1-1.5-1.2L275.6,62l-11.6-16.4c-0.4-0.6-1-0.9-1.7-0.8c-0.7,0-1.3,0.4-1.6,1l-9.8,17.5l-19.1,6
	c-1,0.3-1.6,1.4-1.3,2.5c0.1,0.3,0.2,0.5,0.4,0.8l13.6,14.7l-0.3,20.1c0,0.7,0.3,1.3,0.9,1.7c0.6,0.4,1.3,0.4,1.9,0.1l18.2-8.4
	l19,6.4c1,0.4,2.2-0.2,2.5-1.2c0.1-0.3,0.1-0.6,0.1-0.9l-2.4-19.9l12-16.1C296.9,68.5,297,67.8,296.8,67.1z M280.8,83.4
	c-0.3,0.4-0.4,0.9-0.4,1.4l2.1,17.6l-16.7-5.7c-0.5-0.2-1-0.1-1.5,0.1l-16.1,7.4l0.2-17.7c0-0.5-0.2-1-0.5-1.4l-12-12.9l16.9-5.2
	c0.5-0.2,0.9-0.5,1.1-0.9l8.6-15.4L272.8,65c0.3,0.4,0.7,0.7,1.2,0.8l17.3,3.4L280.8,83.4z"/>
<path d="M501.7,146.2c-0.6,0.3-1,0.9-1,1.6l-1.1,16.7l-12.3,11.3c-0.5,0.5-0.7,1.2-0.6,1.8c0.1,0.7,0.6,1.2,1.2,1.5l15.5,6.2l7,15.2
	c0.3,0.6,0.9,1.1,1.5,1.1h0.3c0.6,0,1.1-0.3,1.5-0.7l10.7-12.8l16.6-1.9c0.7-0.1,1.3-0.5,1.6-1.1c0.3-0.6,0.3-1.3-0.1-1.9l-8.9-14.2
	l3.3-16.4c0.1-0.7-0.1-1.4-0.6-1.8c-0.5-0.5-1.2-0.7-1.9-0.5l-16.2,4.1l-14.6-8.2C503,145.9,502.3,145.9,501.7,146.2z M516.9,158.3
	c0.4,0.2,1,0.3,1.5,0.2l13.9-3.5l-2.8,14.1c-0.1,0.5,0,1,0.3,1.5l7.6,12.2l-14.3,1.6c-0.5,0.1-1,0.3-1.3,0.7l-9.2,11l-6-13.1
	c-0.2-0.5-0.6-0.8-1.1-1l-13.3-5.4l10.6-9.7c0.4-0.3,0.6-0.8,0.6-1.3l1-14.3L516.9,158.3z"/>
<path d="M609,439.2l-0.5-16.7c0-0.7-0.4-1.3-1-1.7c-0.6-0.3-1.3-0.4-1.9-0.1l-14.9,7.6l-16-4.8c-0.7-0.2-1.4,0-1.9,0.4
	c-0.5,0.5-0.8,1.1-0.6,1.8l2.7,16.5l-9.5,13.8c-0.4,0.6-0.5,1.3-0.2,1.9c0.3,0.6,0.8,1.1,1.5,1.2l16.5,2.6l10.2,13.3
	c0.4,0.5,1,0.8,1.6,0.8h0.2c0.7-0.1,1.3-0.5,1.6-1.1l7.6-14.9l15.8-5.6c0.6-0.2,1.1-0.8,1.3-1.4c0.2-0.7-0.1-1.4-0.5-1.9L609,439.2z
	 M602.3,456.4c-0.5,0.2-0.9,0.5-1.1,1l-6.5,12.8l-8.8-11.4c-0.3-0.4-0.8-0.7-1.3-0.7l-14.2-2.2l8.1-11.9c0.3-0.4,0.4-0.9,0.3-1.4
	l-2.3-14.2l13.8,4.1c0.5,0.1,1,0.1,1.5-0.1l12.8-6.6l0.4,14.4c0,0.5,0.2,1,0.6,1.4l10.2,10.1L602.3,456.4z"/>
<path d="M150.8,211.2c0-7.1-5.8-12.9-12.9-12.9s-12.9,5.8-12.9,12.9s5.8,12.9,12.9,12.9S150.8,218.4,150.8,211.2L150.8,211.2z
	 M128.9,211.2c0-4.9,4-9,9-9s9,4,9,9s-4,9-9,9S128.9,216.2,128.9,211.2z"/>
<path d="M395,31.2c-11.8,0-21.4,9.6-21.4,21.4s9.6,21.4,21.4,21.4s21.4-9.6,21.4-21.4C416.4,40.7,406.8,31.2,395,31.2z M395,70
	c-9.6,0-17.4-7.8-17.4-17.4s7.8-17.4,17.4-17.4s17.4,7.8,17.4,17.4l0,0C412.4,62.2,404.6,70,395,70z"/>
<path d="M693.9,132.6c0-6.6-5.3-11.9-11.9-11.9S670,126,670,132.6s5.3,11.9,11.9,11.9S693.9,139.2,693.9,132.6z M682,140.6
	c-4.4,0-8-3.6-8-8s3.6-8,8-8c4.4,0,8,3.6,8,8S686.4,140.6,682,140.6z"/>
<path d="M634.2,150.5c0-13.7-11.1-24.9-24.9-24.9s-24.9,11.1-24.9,24.9c0,13.7,11.1,24.9,24.9,24.9S634.2,164.3,634.2,150.5
	L634.2,150.5z M588.5,150.5c0-11.5,9.4-20.9,20.9-20.9s20.9,9.4,20.9,20.9c0,11.5-9.4,20.9-20.9,20.9S588.5,162.1,588.5,150.5z"/>
<path d="M735.2,354.5c-11.3,0-20.4,9.1-20.4,20.4c0,11.3,9.1,20.4,20.4,20.4s20.4-9.1,20.4-20.4
	C755.6,363.6,746.4,354.5,735.2,354.5z M735.2,391.3c-9.1,0-16.4-7.3-16.4-16.4s7.3-16.4,16.4-16.4c9.1,0,16.4,7.3,16.4,16.4l0,0
	C751.6,383.9,744.2,391.3,735.2,391.3z"/>
<path d="M301,246.5c0,10.2,8.2,18.4,18.4,18.4c10.2,0,18.4-8.2,18.4-18.4c0-10.2-8.2-18.4-18.4-18.4
	C309.2,228.1,301,236.4,301,246.5z M319.4,232.1c8,0,14.4,6.5,14.4,14.4c0,8-6.5,14.4-14.4,14.4s-14.4-6.5-14.4-14.4
	C305,238.6,311.4,232.1,319.4,232.1z"/>
<path d="M205.2,321.2c0.7,0.8,2,0.9,2.8,0.2c0.8-0.7,0.9-2,0.2-2.8c-10.2-11.2-27.8-15.3-41.8-9.6c-7.7,3.1-14.2,8.7-19.9,13.8
	c-17.2-4.3-35.2-4.3-52.4-0.2c-13.2,3.2-23.9,8.5-31.7,15.8c-9.5,9-14.7,21.1-13.7,32.6c0.1,1,1,1.8,2,1.8h0.2
	c1.1-0.1,1.9-1,1.8-2.1c0,0,0,0,0,0c-0.9-10.3,3.8-21.2,12.5-29.3c7.3-6.8,17.4-11.8,29.9-14.9c16.9-4.1,34.6-3.9,51.5,0.4
	c0.6,0.2,1.3,0,1.8-0.4c6-5.3,12.1-10.8,19.5-13.8C180.4,307.6,196.1,311.2,205.2,321.2z"/>
<path d="M218.8,160.9c-4.1-2.2-9.3-2.6-15.8-1.3c-10.7,2.2-20.5,7.5-28.2,15.3c-0.8,0.8-0.7,2,0,2.8s2,0.7,2.8,0l0,0
	c7.1-7.2,16.2-12.2,26.1-14.2c5.6-1.1,9.9-0.8,13.1,0.9c2.5,1.5,4.7,3.6,6.4,6c4.1,5.1,7.6,10.6,10.4,16.5c0.4,0.9,1.5,1.3,2.4,1
	c5-1.6,10.9-1,16.4,1.7c4.7,2.3,9.1,5.9,13.4,11.2c10.1,12.2,14.1,26.7,10.8,38.8c-0.3,1.1,0.3,2.2,1.4,2.4c1.1,0.3,2.2-0.3,2.4-1.4
	c3.7-13.4-0.6-29.2-11.5-42.4c-4.7-5.7-9.5-9.7-14.7-12.2c-5.5-2.8-11.7-3.6-17.7-2.4c-2.8-5.6-6.3-10.9-10.2-15.8
	C224.3,165,221.8,162.6,218.8,160.9z"/>
<path d="M448,110.8c-1,0.3-1.6,1.4-1.3,2.5c0.3,0.8,1,1.4,1.9,1.4c0.2,0,0.4,0,0.6-0.1c12.3-4,20.7-15.3,26.7-24.7
	c4.4-6.9,8.4-14.4,8.6-22.7c0.1-7-3.4-14.7-9.6-18.1c5.1-3.4,9.6-8.6,13.5-15.5c1.7-2.8,2.9-5.8,3.6-9c1.1-6.4-1.7-13.5-7-18.2
	c-5.1-4.3-11.5-6.6-18.1-6.5l0,0c-1.1,0-2,0.9-2,2s0.9,2,2,2c5.7-0.1,11.2,1.9,15.6,5.5c4.3,3.8,6.5,9.5,5.6,14.5
	c-0.6,2.7-1.6,5.3-3.1,7.7c-4.5,8-9.7,13.3-15.6,16.1c-0.8,0.4-1.2,1.2-1.1,2.1c0.1,0.9,0.8,1.6,1.6,1.7c6.8,1.2,10.9,9,10.7,15.6
	c-0.1,7.3-4,14.2-8,20.6C466.6,97.2,459.1,107.3,448,110.8z"/>
<path d="M558,150.7h0.2c1,0,1.9-0.7,2-1.8c5.9-47.5,49.1-81.3,96.6-75.4c0.5,0.1,1,0.1,1.6,0.2c3.3,0.5,7.4,1.4,9.4,4.1
	c0.4,0.5,1,0.8,1.6,0.8c0.6,0,1.2-0.3,1.6-0.9c8-11.6,21.4-19.7,36.8-22.2c13.8-2.2,28.8,0,43.5,6.5c4.6,2.1,12.4,6.6,12.6,13.3
	c0,1.1,0.9,2,2,1.9c1.1,0,2-0.9,1.9-2l0,0c-0.2-8.5-8.2-13.8-15-16.8c-15.3-6.8-31.2-9.1-45.8-6.8c-15.5,2.5-29.2,10.4-38,21.9
	c-2.9-2.4-6.9-3.3-10.2-3.8c-49.6-7-95.4,27.5-102.5,77c-0.1,0.5-0.1,1.1-0.2,1.6C556.1,149.5,556.9,150.5,558,150.7
	C558,150.7,558,150.7,558,150.7z"/>
<path d="M669.4,415.1c3.8-8,2.7-18.3-2.8-26.1c-5.4-7.5-14.5-12.6-25-14.1c-8.3-1.2-17.6-0.2-28.4,2.9c-1.1,0.3-1.7,1.4-1.3,2.5
	c0.3,1.1,1.4,1.7,2.5,1.4c10.2-3,19-3.9,26.7-2.8c9.5,1.3,17.6,5.9,22.3,12.5c5.2,7.3,5.8,17.2,1.4,24c-0.6,0.9-0.3,2.2,0.6,2.8
	c0.5,0.3,1.1,0.4,1.7,0.2c2.5,1,10.6,7.8,11.9,9.3c12.1,13.1,16.4,32.1,11,48.4c-3.8,10.7-11.6,19.6-21.8,24.6
	c-7.2,3.4-14.5,3.7-21.3,1.1c-1-0.5-2.2-0.1-2.7,0.9c-0.5,1-0.1,2.2,0.9,2.7c0.1,0,0.2,0.1,0.3,0.1c3.4,1.3,7,2,10.6,2
	c4.8,0,9.5-1.1,13.8-3.2c10.7-5,20.1-15.6,23.9-27c5.9-17.6,1.2-38.1-11.9-52.3C681.7,424.8,674.2,417.7,669.4,415.1z"/>
<path d="M410.4,125.7c0-4.9-4-9-9-9c-4.9,0-9,4-9,9c0,4.9,4,9,9,9C406.4,134.6,410.4,130.6,410.4,125.7z M396.5,125.7
	c0-2.7,2.2-5,5-5s5,2.2,5,5c0,2.7-2.2,5-5,5S396.5,128.4,396.5,125.7z"/>
<path d="M322.9,147.6c0-3.8-3.1-7-7-7s-7,3.1-7,7s3.1,7,7,7S322.9,151.4,322.9,147.6z M312.9,147.6c0-1.6,1.3-3,3-3c1.6,0,3,1.3,3,3
	s-1.3,3-3,3C314.2,150.5,312.9,149.2,312.9,147.6z"/>
<path d="M587.5,43.1c3.3,0,6-2.7,6-6s-2.7-6-6-6c-3.3,0-6,2.7-6,6S584.2,43.1,587.5,43.1z M587.5,35.1c1.1,0,2,0.9,2,2
	c0,1.1-0.9,2-2,2s-2-0.9-2-2C585.5,36,586.4,35.1,587.5,35.1z"/>
<path d="M644.2,236.1c-6,0-10.9,4.9-10.9,10.9c0,6,4.9,10.9,10.9,10.9c6,0,10.9-4.9,10.9-10.9C655.1,241,650.2,236.1,644.2,236.1z
	 M644.2,254c-3.8,0-7-3.1-7-7s3.1-7,7-7s7,3.1,7,7l0,0C651.1,250.9,648,254,644.2,254z"/>
<path d="M683.9,210.8c0.3-0.6,0.4-1.2,0.1-1.8l-8-18.5c-0.3-0.7-1.1-1.2-1.9-1.2c-1,0-25.4,0.9-61.2,16.4
	c-33,14.3-82.1,44.3-129.1,106.1c-0.7,0.9-0.5,2.1,0.4,2.8c0.1,0,0.1,0.1,0.2,0.1l21,12.6c0.3,0.2,0.6,0.3,1,0.3
	c0.2,0,0.3,0,0.5-0.1c0.5-0.1,1-0.5,1.2-0.9c0.2-0.3,16.4-27.4,45.9-55.1c27.2-25.4,71.5-56.4,128.2-59.8
	C683,211.7,683.6,211.4,683.9,210.8z M551.4,268.7c-17.3,16.2-32.6,34.3-45.5,54.2l-17.5-10.5c46-59.8,93.8-89,126-103
	c30.5-13.3,53-15.7,58.6-16.1l6.3,14.6C622.7,212.3,578.6,243.3,551.4,268.7z"/>
<path d="M749.6,213.8c-0.2-1.1-1.3-1.8-2.4-1.5c-0.5,0.1-1,0.4-1.3,0.9c-13,21.7-55.7,32.8-64.2,34.8c-1.1,0.2-1.9,1.2-1.7,2.3
	c0.2,1.1,1.2,1.9,2.3,1.7l0,0l0,0c31-5.8,73.2,7.8,73.6,7.9c0.2,0.1,0.4,0.1,0.6,0.1c0.5,0,1-0.2,1.3-0.5c0.5-0.5,0.8-1.2,0.6-1.9
	L749.6,213.8z M700.9,246.5c15.2-5.2,35.3-14.2,45.7-27.4l7.4,35.9C745.7,252.7,723.3,246.7,700.9,246.5L700.9,246.5z"/>
<path d="M401,297.7c5.7,1.4,24.3,6,26.3,6c1-0.1,1.8-0.6,2.3-1.5c5.3-7.3,25.6-55.6,12.5-95.6c-0.3-0.8-1-1.4-1.9-1.4h-25.9
	c-0.6,0-1.2,0.3-1.6,0.8c-0.4,0.5-0.5,1.1-0.4,1.7c0.1,0.6,14.3,60.9-12.4,86.6c-0.5,0.5-0.7,1.2-0.5,1.9
	C399.7,297,400.3,297.5,401,297.7z M416.9,209.2h21.9c11.6,38.2-7.7,84.1-12.2,90.4c-2.9-0.5-12.2-2.7-21.3-5
	C427.7,269.3,419.3,220.8,416.9,209.2L416.9,209.2z"/>
<path d="M569.3,58.8C541.1,42,539,44.4,538,45.7l0,0c-24.5,28.5-22.3,60.2-22.2,61.6c0.1,0.9,0.7,1.6,1.5,1.8c0.2,0,0.3,0.1,0.5,0.1
	c0.7,0,1.3-0.3,1.7-0.9c24.5-38.5,49.1-45.6,49.4-45.7c0.8-0.2,1.3-0.9,1.5-1.7C570.4,60,570,59.2,569.3,58.8z M519.7,100.4
	c1.2-19,8.5-37.1,20.8-51.6c2.8,0.4,13.3,5.7,23.1,11.4C555.9,63.5,538.2,73.6,519.7,100.4z"/>
<path d="M356.9,70c-25-2.8-26.9-0.5-27.5,0.3c-0.5,0.6-0.7,1.5-0.5,2.3c31.3,99.9,19.9,191.2,19.8,192.1c-0.1,0.6,0.1,1.1,0.5,1.6
	c0.4,0.4,0.9,0.7,1.5,0.7h23.9c1,0,1.8-0.7,2-1.6c15.8-88-17.6-192.9-18-194C358.4,70.6,357.7,70,356.9,70z M372.9,263h-20
	c1.5-14.7,8.6-98.7-19.8-190.2c3.4-0.5,13.2,0.1,22,1C358.8,85.7,387,181.4,372.9,263L372.9,263z"/>
<path d="M494.9,253c11,0,19.9-8.9,19.9-19.9c0-11-8.9-19.9-19.9-19.9s-19.9,8.9-19.9,19.9C475.1,244.1,484,253,494.9,253z
	 M494.9,217.2c8.8,0,15.9,7.1,15.9,15.9c0,8.8-7.1,15.9-15.9,15.9c-8.8,0-15.9-7.1-15.9-15.9C479,224.3,486.2,217.2,494.9,217.2z"/>
<path d="M468.1,135.6c-8.2,0-14.9,6.7-14.9,14.9c0,8.2,6.7,14.9,14.9,14.9c8.2,0,14.9-6.7,14.9-14.9l0,0
	C483,142.3,476.3,135.6,468.1,135.6z M468.1,161.5c-6,0-10.9-4.9-10.9-10.9c0-6,4.9-10.9,10.9-10.9c6,0,10.9,4.9,10.9,10.9
	C479,156.6,474.1,161.5,468.1,161.5z"/>
<path d="M155.7,258v18.9c0,0.7,0.3,1.3,0.9,1.6c0.5,0.4,1.2,0.5,1.9,0.2c0.3-0.1,31.9-12.7,73.7-8.8c1.1,0.1,2.1-0.7,2.2-1.8
	c0-0.5-0.1-1-0.4-1.4c-0.7-1-18.4-23.8-76.6-10.7C156.4,256.2,155.7,257,155.7,258z M159.7,259.6c39.7-8.6,59.3,0.4,67,6
	c-22.7-1.4-45.4,1.5-67,8.5V259.6z"/>
<path d="M206,344.5c-6.3,0-11.4,5.1-11.4,11.4c0,6.3,5.1,11.4,11.4,11.4c6.3,0,11.4-5.1,11.4-11.4
	C217.4,349.6,212.3,344.5,206,344.5z M206,363.4c-4.1,0-7.5-3.3-7.5-7.5c0-4.1,3.3-7.5,7.5-7.5c4.1,0,7.5,3.3,7.5,7.5
	C213.4,360.1,210.1,363.4,206,363.4z"/>
<path d="M733.7,432.1c-3.8,0-7,3.1-7,7c0,3.8,3.1,7,7,7s7-3.1,7-7l0,0C740.7,435.2,737.5,432.1,733.7,432.1z M733.7,442
	c-1.6,0-3-1.3-3-3c0-1.6,1.3-3,3-3c1.6,0,3,1.3,3,3C736.7,440.7,735.3,442,733.7,442L733.7,442z"/>
<path d="M756.1,132.6c-11.8,0-21.4,9.6-21.4,21.4c0,11.8,9.6,21.4,21.4,21.4c11.8,0,21.4-9.6,21.4-21.4
	C777.4,142.2,767.9,132.6,756.1,132.6z M756.1,171.4c-9.6,0-17.4-7.8-17.4-17.4c0-9.6,7.8-17.4,17.4-17.4c9.6,0,17.4,7.8,17.4,17.4
	C773.5,163.6,765.7,171.4,756.1,171.4z"/>
</svg>
