<?xml version="1.0" encoding="utf-8"?>
<!-- Generator: Adobe Illustrator 23.0.4, SVG Export Plug-In . SVG Version: 6.00 Build 0)  -->
<svg version="1.1" id="Слой_1" xmlns="http://www.w3.org/2000/svg" xmlns:xlink="http://www.w3.org/1999/xlink" x="0px" y="0px"
	 viewBox="0 0 826 826" style="enable-background:new 0 0 826 826;" xml:space="preserve">
<style type="text/css">
	.st0{fill:#F9E5A1;}
	.st1{fill:#E6F1F7;}
	.st2{fill:#F7F4C7;}
</style>
<path class="st0" d="M348.4,347.5h129.3c9.8,0,17.8-7.9,17.8-17.7v-30.8H330.6v30.8C330.6,339.6,338.6,347.5,348.4,347.5z
	 M337.2,307c0-1.1,0.9-1.9,1.9-1.9c1.1,0,1.9,0.9,1.9,1.9v5.2c0,1.1-0.9,1.9-1.9,1.9c-1.1,0-1.9-0.9-1.9-1.9V307z M337.2,319.8
	c0-1.1,0.9-1.9,1.9-1.9c1.1,0,1.9,0.9,1.9,1.9v8.9c0,1.1-0.9,1.9-1.9,1.9c-1.1,0-1.9-0.9-1.9-1.9V319.8z"/>
<path class="st1" d="M499.3,299.1v30.8c0,11.9-9.7,21.6-21.6,21.6H348.4c-11.9,0-21.6-9.7-21.6-21.6v-30.8H62.8
	c17.7,77.7,73.4,176,159,222.9h382.2c85.6-46.9,141.3-145.2,159-222.9H499.3z"/>
<path class="st2" d="M497.4,295.2h275c9.8,0,17.8-8,17.8-17.8v-11.6c0-9.8-8-17.8-17.8-17.8H53.6c-9.8,0-17.8,8-17.8,17.8v11.6
	c0,9.8,8,17.8,17.8,17.8H497.4z"/>
<path class="st0" d="M359.1,90.3h107.8c9.8,0,17.8-8,17.7-17.8c0,0,0,0,0,0v-24H341.3v24C341.3,82.3,349.3,90.3,359.1,90.3z
	 M346.6,55.2c0-1.1,0.9-1.9,1.9-1.9c1.1,0,1.9,0.9,1.9,1.9v4.6c0,1.1-0.9,1.9-1.9,1.9c-1.1,0-1.9-0.9-1.9-1.9V55.2z M346.6,66.4
	c0-1.1,0.9-1.9,1.9-1.9c1.1,0,1.9,0.9,1.9,1.9v7.7c0,1.1-0.9,1.9-1.9,1.9c-1.1,0-1.9-0.9-1.9-1.9V66.4z"/>
<path class="st1" d="M488.5,48.5v24c0,12-9.7,21.6-21.6,21.7H359.1c-11.9,0-21.6-9.7-21.6-21.7v-24H107.7
	c15.5,67.7,64,153.2,138.6,194.1h333.4c74.5-40.8,123-126.3,138.6-194.1H488.5z"/>
<path class="st1" d="M505.6,582v34.7c0,11.9-9.7,21.6-21.6,21.6H342c-11.9,0-21.6-9.7-21.6-21.6V582H36.1
	c21.1,93.1,81.9,183.5,155.5,230.8c9.5,6.1,20.6,9.4,31.9,9.4h379c11.3,0,22.4-3.3,31.9-9.4c73.5-47.2,134.4-137.6,155.5-230.8
	H505.6z"/>
<path class="st0" d="M342,634.4H484c9.8,0,17.7-8,17.7-17.8V582H324.2v34.7C324.2,626.5,332.2,634.4,342,634.4z M331.6,590.7
	c0-1.1,0.9-1.9,1.9-1.9s1.9,0.9,1.9,1.9v5.6c0,1.1-0.9,1.9-1.9,1.9s-1.9-0.9-1.9-1.9V590.7z M331.6,604.4c0-1.1,0.9-1.9,1.9-1.9
	s1.9,0.9,1.9,1.9v9.6c0,1.1-0.9,1.9-1.9,1.9s-1.9-0.9-1.9-1.9V604.4z"/>
<path class="st2" d="M799.6,526.9H26.3c-10.7,0-19.3,8.7-19.3,19.3v12.5c0,10.7,8.7,19.3,19.3,19.3h773.3c10.7,0,19.3-8.7,19.3-19.3
	v-12.5C819,535.6,810.3,526.9,799.6,526.9z"/>
<path class="st2" d="M486.6,44.7h240c8.5,0,15.3-6.9,15.3-15.3V19.2c0-8.5-6.9-15.3-15.3-15.3H99.4C90.9,3.9,84,10.7,84,19.2v10.1
	c0,8.5,6.9,15.3,15.3,15.3H486.6z"/>
<path d="M90.7,674.7c-0.6-0.9-1.8-1.2-2.7-0.6c-0.9,0.6-1.2,1.8-0.6,2.7c1.4,2.3,2.9,4.7,4.4,6.9c0.3,0.5,0.9,0.8,1.5,0.9
	c0.4,0,0.8-0.1,1.1-0.3c0.9-0.6,1.1-1.8,0.6-2.7C93.6,679.3,92.2,677,90.7,674.7z"/>
<path d="M82.5,660.6c-8.2-15-15.1-30.6-20.7-46.7c-0.4-1-1.5-1.5-2.5-1.1c-0.9,0.4-1.4,1.4-1.1,2.3c5.7,16.3,12.7,32.1,21,47.3
	c1.4,2.5,2.8,5,4.2,7.5c0.3,0.6,0.9,0.9,1.6,1c0.4,0,0.7-0.1,1.1-0.3c0.9-0.5,1.2-1.7,0.7-2.6C85.2,665.5,83.8,663,82.5,660.6z"/>
<path d="M799.6,523.1H610.1c37.4-21.5,72.1-54.6,100.5-96.2c26.8-39.2,46.8-84.5,56.5-127.8h5.3c12,0,21.7-9.7,21.7-21.7v-11.6
	c0-12-9.7-21.7-21.7-21.7H585.1C659,201.7,706.9,116.2,722.2,48.5h4.4c10.6,0,19.2-8.6,19.2-19.2V19.2c0-10.6-8.6-19.2-19.2-19.2
	H99.4C88.8,0,80.2,8.6,80.2,19.2v10.1c0,10.6,8.6,19.2,19.2,19.2h4.4C119,116.2,167,201.7,240.9,244H53.6c-12,0-21.7,9.7-21.7,21.7
	v11.6c0,12,9.7,21.7,21.7,21.7h5.3c9.7,43.3,29.8,88.6,56.5,127.8c28.4,41.6,63.1,74.8,100.5,96.2H26.3c-12.8,0-23.2,10.4-23.2,23.2
	v12.5c0,12.8,10.4,23.2,23.2,23.2h5.8c9.8,43.9,29,88.6,55.3,129.3c28.5,44,63.8,80.2,102,104.7c10.2,6.5,22,10,34,10h378.9
	c12.1,0,23.9-3.5,34-10c38.2-24.6,73.5-60.8,102-104.7c26.4-40.7,45.5-85.4,55.3-129.3h5.8c12.8,0,23.2-10.4,23.2-23.2v-12.5
	C822.9,533.5,812.5,523.1,799.6,523.1C799.7,523.1,799.7,523.1,799.6,523.1z M99.4,44.7c-8.5,0-15.3-6.9-15.3-15.3V19.2
	c0-8.5,6.9-15.3,15.3-15.3h627.2c8.5,0,15.3,6.9,15.3,15.3v10.1c0,8.5-6.9,15.3-15.3,15.3H99.4z M484.6,48.5v24
	c0,9.8-7.9,17.8-17.7,17.8c0,0,0,0,0,0H359.1c-9.8,0-17.7-8-17.7-17.8v-24H484.6z M107.7,48.5h229.7v24c0,11.9,9.6,21.6,21.6,21.7
	h107.8c12,0,21.6-9.7,21.6-21.7v-24h229.7c-15.5,67.7-64,153.2-138.6,194.1H246.3C171.8,201.8,123.2,116.2,107.7,48.5z M53.6,295.2
	c-9.8,0-17.8-8-17.8-17.8v-11.6c0-9.8,8-17.8,17.8-17.8h718.8c9.8,0,17.8,8,17.8,17.8v11.6c0,9.8-8,17.8-17.8,17.8L53.6,295.2
	L53.6,295.2z M495.4,299v30.8c0,9.8-8,17.7-17.8,17.7H348.4c-9.8,0-17.7-8-17.7-17.7v-30.8L495.4,299z M62.8,299h263.9v30.8
	c0,11.9,9.7,21.6,21.6,21.6h129.3c12,0,21.7-9.7,21.7-21.6c0,0,0,0,0,0v-30.8h263.8c-17.7,77.7-73.4,176-159,222.9H221.9
	C136.3,475.1,80.6,376.8,62.8,299L62.8,299z M634.4,812.8c-9.5,6.1-20.6,9.4-31.9,9.4h-379c-11.3,0-22.4-3.3-31.9-9.4
	C118,765.5,57.2,675.1,36.1,582h284.3v34.7c0,11.9,9.7,21.6,21.6,21.6h142c11.9,0,21.6-9.7,21.6-21.6V582h284.3
	C768.8,675.1,708,765.5,634.4,812.8z M324.2,616.7V582h177.5v34.7c0,9.8-7.9,17.7-17.7,17.8H342
	C332.2,634.4,324.2,626.5,324.2,616.7z M819,558.8c0,10.7-8.7,19.3-19.3,19.3H26.3c-10.7,0-19.3-8.7-19.3-19.3v-12.5
	c0-10.7,8.7-19.3,19.3-19.3h773.3c10.7,0,19.3,8.7,19.3,19.3L819,558.8z"/>
<path d="M333.5,598.3c1.1,0,1.9-0.9,1.9-1.9v-5.6c0-1.1-0.9-1.9-1.9-1.9s-1.9,0.9-1.9,1.9v5.6C331.6,597.4,332.5,598.3,333.5,598.3z
	"/>
<path d="M333.5,616c1.1,0,1.9-0.9,1.9-1.9v-9.6c0-1.1-0.9-1.9-1.9-1.9s-1.9,0.9-1.9,1.9v9.6C331.6,615.1,332.5,616,333.5,616z"/>
<path d="M112.9,385.4c-0.5-0.9-1.7-1.3-2.6-0.8s-1.3,1.7-0.8,2.6c0,0,0.1,0.1,0.1,0.1c1.3,2.2,2.6,4.4,3.9,6.5
	c0.3,0.5,0.9,0.9,1.5,1c0.4,0,0.8-0.1,1.2-0.3c0.9-0.6,1.2-1.7,0.6-2.7c0,0,0,0,0,0C115.5,389.7,114.2,387.6,112.9,385.4z"/>
<path d="M105.6,372c-7.2-14.1-13.3-28.8-18.1-43.9c-0.3-1-1.4-1.6-2.4-1.3c-1,0.3-1.6,1.4-1.3,2.4c0,0,0,0.1,0,0.1
	c4.9,15.3,11,30.2,18.4,44.5c1.2,2.4,2.5,4.8,3.7,7.1c0.5,0.9,1.7,1.3,2.6,0.8c0.9-0.5,1.3-1.7,0.8-2.6l0,0
	C108.1,376.7,106.8,374.4,105.6,372z"/>
<path d="M339.1,314.2c1.1,0,1.9-0.9,1.9-1.9V307c0-1.1-0.9-1.9-1.9-1.9c-1.1,0-1.9,0.9-1.9,1.9v5.2
	C337.2,313.3,338.1,314.2,339.1,314.2z"/>
<path d="M339.1,330.6c1.1,0,1.9-0.9,1.9-1.9v-8.9c0-1.1-0.9-1.9-1.9-1.9c-1.1,0-1.9,0.9-1.9,1.9v8.9
	C337.2,329.8,338.1,330.6,339.1,330.6z"/>
<path d="M152.3,123c-0.6-0.9-1.8-1.1-2.7-0.5c-0.8,0.6-1.1,1.7-0.6,2.6c1.2,1.9,2.4,3.7,3.6,5.6c0.6,0.9,1.8,1.1,2.7,0.5
	c0.9-0.6,1.1-1.8,0.5-2.7C154.6,126.7,153.4,124.8,152.3,123z"/>
<path d="M148.9,117.6c-1.2-1.9-2.4-4-3.5-5.9c-6.8-12-12.7-24.6-17.4-37.5c-0.4-1-1.5-1.5-2.5-1.2c-1,0.4-1.5,1.5-1.2,2.5l0,0
	c4.8,13.2,10.8,25.9,17.7,38.1c1.1,2,2.3,4,3.5,6c0.6,0.9,1.7,1.2,2.7,0.7C149.1,119.7,149.4,118.5,148.9,117.6
	C148.9,117.6,148.9,117.6,148.9,117.6z"/>
<path d="M348.5,61.7c1.1,0,1.9-0.9,1.9-1.9v-4.6c0-1.1-0.9-1.9-1.9-1.9c-1.1,0-1.9,0.9-1.9,1.9v4.6
	C346.6,60.9,347.5,61.7,348.5,61.7z"/>
<path d="M348.5,76.1c1.1,0,1.9-0.9,1.9-1.9v-7.7c0-1.1-0.9-1.9-1.9-1.9c-1.1,0-1.9,0.9-1.9,1.9v7.7
	C346.6,75.2,347.5,76.1,348.5,76.1z"/>
</svg>
