<?xml version="1.0" encoding="utf-8"?>
<!-- Generator: Adobe Illustrator 23.0.4, SVG Export Plug-In . SVG Version: 6.00 Build 0)  -->
<svg version="1.1" id="Слой_1" xmlns="http://www.w3.org/2000/svg" xmlns:xlink="http://www.w3.org/1999/xlink" x="0px" y="0px"
	 viewBox="0 0 826 826" style="enable-background:new 0 0 826 826;" xml:space="preserve">
<style type="text/css">
	.st0{fill:#F5F5FA;}
	.st1{fill:#E0E2F1;}
	.st2{fill:#CCCFE7;}
</style>
<path class="st0" d="M413,112.9c-157.7,0-286,128.3-286,286c0,100.7,52.4,189.5,131.3,240.4h309.5
	c78.9-50.9,131.3-139.7,131.3-240.4C699,241.2,570.7,112.9,413,112.9z M159.4,331.4c-1.6,5.6-2.3,9-3.4,14.2l-0.5,2.7
	c-0.2,0.9-1,1.6-2,1.6c-0.1,0-0.3,0-0.4,0c-1.1-0.2-1.7-1.3-1.5-2.3c0,0,0,0,0,0l0.5-2.7c1.1-5.3,1.8-8.8,3.4-14.6
	c0.3-1,1.4-1.6,2.4-1.3S159.6,330.4,159.4,331.4C159.3,331.4,159.3,331.4,159.4,331.4L159.4,331.4z M210.6,235.3
	c-2.4,2.8-4.7,5.7-7,8.6c-15.8,20.3-28.4,42.8-37.4,66.9c-1.3,3.5-2.5,6.9-3.6,10.5c-0.3,0.8-1,1.4-1.9,1.4c-0.2,0-0.4,0-0.6-0.1
	c-1-0.3-1.6-1.4-1.3-2.5c0,0,0,0,0,0c10.3-32.1,26.9-61.7,48.8-87.3c0.6-0.9,1.8-1.2,2.7-0.6c0.9,0.6,1.2,1.8,0.6,2.7
	C210.8,235,210.7,235.2,210.6,235.3L210.6,235.3z M664.6,515.6c-4.6,9.7-9.8,19.2-15.6,28.3c-0.4,0.6-1,0.9-1.7,0.9
	c-1.1,0-2-0.9-2-2c0-0.4,0.1-0.7,0.3-1c5.6-9,10.8-18.3,15.3-27.9c0.4-1,1.6-1.4,2.6-1C664.6,513.4,665,514.6,664.6,515.6
	C664.6,515.6,664.6,515.6,664.6,515.6z M668.3,508.8c-0.3,0.7-1,1.2-1.8,1.2c-0.3,0-0.5-0.1-0.8-0.2c-1-0.4-1.4-1.6-1-2.6
	c1.3-2.9,2.5-5.8,3.7-8.7c0.4-1,1.5-1.5,2.5-1.2s1.5,1.5,1.2,2.5c0,0.1,0,0.1-0.1,0.2C670.8,502.9,669.6,505.9,668.3,508.8
	L668.3,508.8z"/>
<path class="st1" d="M250.9,639.3c-15.4-10.4-29.7-22.3-42.9-35.4c-113.2-113.2-113.2-296.8,0-410s296.8-113.2,410,0
	c113.2,113.2,113.2,296.8,0,410c-13.1,13.1-27.5,25-42.9,35.4h136.5c55-68,85-152.9,84.9-240.4c0-211.5-172-383.5-383.5-383.5
	S29.5,187.4,29.5,398.9c-0.1,87.5,29.9,172.4,84.9,240.4H250.9z"/>
<path class="st1" d="M170.8,701.2h585.3c1.9-4.4,4.8-8.3,8.4-11.4l54.2-46.6H7.3l54.2,46.6c3.6,3.1,6.5,7,8.4,11.4H170.8z
	 M616.1,660h148.5c1.1,0,2,0.9,2,2s-0.9,2-2,2H616.1c-1.1,0-2-0.9-2-2S615,660,616.1,660z M596.4,660h9.8c1.1,0,2,0.9,2,2
	s-0.9,2-2,2h-9.8c-1.1,0-2-0.9-2-2S595.3,660,596.4,660z"/>
<path class="st2" d="M71.2,766.8l11.4,38.6c0.9,2.9,3.6,5,6.6,5h647.5c3.1,0,5.8-2,6.6-5l11.4-38.6c1.7-5.8,5.1-11.1,9.7-15
	l54.2-46.6H7.3l54.2,46.6C66.1,755.7,69.5,761,71.2,766.8z M269.9,787.8h9.8c1.1,0,2,0.9,2,2c0,1.1-0.9,2-2,2h-9.8c-1.1,0-2-0.9-2-2
	C268,788.7,268.8,787.8,269.9,787.8z M111.6,787.8h148.5c1.1,0,2,0.9,2,2c0,1.1-0.9,2-2,2H111.6c-1.1,0-2-0.9-2-2
	C109.7,788.7,110.6,787.8,111.6,787.8L111.6,787.8z"/>
<path d="M207.6,232.8c-21.9,25.6-38.5,55.3-48.8,87.4c-0.3,1,0.2,2.1,1.3,2.5c0,0,0,0,0,0c0.2,0.1,0.4,0.1,0.6,0.1
	c0.8,0,1.6-0.6,1.9-1.4c1.1-3.5,2.4-7,3.6-10.5c8.9-24.1,21.6-46.7,37.4-66.9c2.3-2.9,4.6-5.8,7-8.6c0.8-0.7,0.9-2,0.2-2.8
	c-0.7-0.8-2-0.9-2.8-0.2C207.9,232.5,207.8,232.6,207.6,232.8L207.6,232.8z"/>
<path d="M158,328.9c-1-0.3-2.1,0.3-2.4,1.3c-1.7,5.8-2.4,9.3-3.4,14.6l-0.5,2.7c-0.2,1.1,0.5,2.1,1.5,2.3c0,0,0,0,0,0
	c0.1,0,0.3,0,0.4,0c0.9,0,1.8-0.6,2-1.6l0.5-2.7c1-5.2,1.7-8.6,3.4-14.2C159.7,330.3,159.1,329.2,158,328.9z"/>
<path d="M663.6,513c-1-0.5-2.1-0.1-2.6,0.9c0,0,0,0,0,0c-4.6,9.6-9.7,18.9-15.3,27.9c-0.6,0.9-0.3,2.1,0.6,2.7
	c0.3,0.2,0.7,0.3,1,0.3c0.7,0,1.3-0.3,1.7-0.9c5.7-9.1,10.9-18.6,15.6-28.3C665,514.7,664.6,513.5,663.6,513
	C663.6,513,663.6,513,663.6,513z"/>
<path d="M671,497.4c-1-0.4-2.1,0.1-2.6,1.1c0,0,0,0,0,0c-1.2,2.9-2.4,5.8-3.7,8.7c-0.4,1,0,2.1,1,2.6c0.2,0.1,0.5,0.2,0.8,0.2
	c0.8,0,1.5-0.5,1.8-1.2c1.3-2.9,2.6-5.9,3.8-8.8C672.4,499,671.9,497.8,671,497.4z"/>
<path d="M616.1,663.9h148.5c1.1,0,2-0.9,2-2s-0.9-2-2-2H616.1c-1.1,0-2,0.9-2,2S615,663.9,616.1,663.9z"/>
<path d="M596.4,663.9h9.8c1.1,0,2-0.9,2-2s-0.9-2-2-2h-9.8c-1.1,0-2,0.9-2,2S595.3,663.9,596.4,663.9z"/>
<path d="M0.1,702.5c-0.3,0.8-0.1,1.6,0.6,2.2l58.2,50c4.1,3.5,7,8.1,8.5,13.2l11.4,38.6c1.4,4.6,5.6,7.8,10.4,7.8h647.5
	c4.8,0,9-3.2,10.4-7.8l11.4-38.6c1.5-5.1,4.5-9.7,8.5-13.2l58.3-50.1c0.8-0.7,0.9-1.9,0.2-2.8c-0.4-0.4-0.9-0.7-1.5-0.7h-63.6
	c1.6-3.2,3.9-6.1,6.6-8.5l58.3-50.1c0.8-0.7,0.9-1.9,0.2-2.8c-0.4-0.4-0.9-0.7-1.5-0.7H716.8C849.5,471.4,820.9,227.7,653,95.1
	S241.5-9,108.8,158.9c-21.5,27.2-39.3,57.2-52.8,89.2C0.9,378.4,21.3,528.4,109.2,639.3H2c-1.1,0-2,0.9-2,2c0,0.6,0.3,1.1,0.7,1.5
	l58.2,50.1c2.7,2.4,5,5.2,6.6,8.5H2C1.1,701.2,0.4,701.8,0.1,702.5z M29.5,398.9c0-211.5,172-383.5,383.5-383.5
	s383.5,172,383.5,383.5c0.1,87.5-29.9,172.4-84.9,240.4H575.1c15.4-10.4,29.7-22.3,42.9-35.4c113.2-113.2,113.2-296.8,0-410
	s-296.8-113.2-410,0c-113.2,113.2-113.2,296.8,0,410c13.1,13.1,27.5,25,42.9,35.4H114.4C59.4,571.3,29.4,486.4,29.5,398.9
	L29.5,398.9z M567.7,639.3H258.3C179.3,588.4,127,499.6,127,398.9c0-157.7,128.3-286,286-286s286,128.3,286,286
	C699,499.6,646.6,588.3,567.7,639.3z M61.5,689.8L7.3,643.2h811.5l-54.2,46.6c-3.6,3.1-6.5,7-8.4,11.4H69.9
	C68,696.8,65.1,692.9,61.5,689.8z M67.2,705.2h751.6l-54.2,46.6c-4.6,4-8,9.2-9.7,15.1l-11.4,38.6c-0.9,2.9-3.6,5-6.6,5H89.2
	c-3.1,0-5.8-2-6.6-5l-11.4-38.6c-1.7-5.8-5.1-11.1-9.7-15L7.3,705.2L67.2,705.2z"/>
<path d="M111.6,791.7h148.4c1.1,0,2-0.9,2-2c0-1.1-0.9-2-2-2H111.6c-1.1,0-2,0.9-2,2C109.7,790.8,110.6,791.7,111.6,791.7z"/>
<path d="M269.9,791.7h9.8c1.1,0,2-0.9,2-2c0-1.1-0.9-2-2-2h-9.8c-1.1,0-2,0.9-2,2C268,790.8,268.8,791.7,269.9,791.7z"/>
</svg>
