<?xml version="1.0" encoding="utf-8"?>
<!-- Generator: Adobe Illustrator 23.0.4, SVG Export Plug-In . SVG Version: 6.00 Build 0)  -->
<svg version="1.1" id="Слой_1" xmlns="http://www.w3.org/2000/svg" xmlns:xlink="http://www.w3.org/1999/xlink" x="0px" y="0px"
	 viewBox="0 0 826 826" style="enable-background:new 0 0 826 826;" xml:space="preserve">
<style type="text/css">
	.st0{fill:#C4E1D4;}
	.st1{fill:#EDF6F2;}
	.st2{fill:#DCEDE5;}
	.st3{fill:#D3E8DF;}
</style>
<g>
	<path class="st0" d="M50.3,710.3c-5.1,2.8-10.8,4.3-16.6,4.1c-5.8,0.1-11.6-1.3-16.6-4.1c-2.9-1.6-6.1-2.7-9.5-3.3l54.2,46.6
		c4.6,4,8,9.2,9.7,15l11.4,38.6c0.9,2.9,3.6,5,6.6,5h647c3.1,0,5.8-2,6.6-5l11.4-38.6c1.7-5.8,5.1-11.1,9.7-15l54.3-46.6
		c-3.3,0.6-6.5,1.7-9.5,3.3c-10.4,5.5-22.9,5.5-33.4,0c-4.6-2.6-9.7-3.8-14.9-3.7c-0.7,0-1.4,0-2.1,0s-1.4,0.1-2.1,0.2
		c-0.7,0.1-1.5,0.2-2.2,0.3c-3,0.6-5.9,1.7-8.6,3.2c-10.4,5.5-22.9,5.5-33.4,0c-9.3-4.9-20.5-4.9-29.9,0c-10.4,5.5-22.9,5.5-33.4,0
		c-1.4-0.7-2.7-1.4-4.3-2c-0.6-0.2-1.2-0.4-1.9-0.6c-0.7-0.2-1.3-0.4-2-0.5c-2.3-0.4-4.6-0.7-6.9-0.6c-5.2-0.1-10.4,1.1-14.9,3.7
		c-10.4,5.5-22.9,5.5-33.3,0c-9.3-4.9-20.5-4.9-29.9,0c-10.4,5.5-22.9,5.5-33.3,0c-9.3-4.9-20.5-4.9-29.9,0
		c-10.4,5.5-22.9,5.5-33.3,0c-9.3-4.9-20.5-4.9-29.9,0c-10.4,5.5-22.9,5.5-33.3,0c-9.3-4.9-20.5-4.9-29.9,0
		c-10.4,5.5-22.9,5.5-33.3,0c-9.3-4.9-20.5-4.9-29.9,0c-10.4,5.5-22.9,5.5-33.3,0c-9.3-4.9-20.5-4.9-29.9,0
		c-10.4,5.5-22.9,5.5-33.3,0c-4.6-2.6-9.7-3.8-14.9-3.7c-2.3,0-4.5,0.2-6.8,0.6c-0.7,0.1-1.3,0.3-2,0.5c-0.6,0.2-1.3,0.4-1.9,0.6
		c-1.5,0.6-2.9,1.3-4.3,2c-10.4,5.5-22.9,5.5-33.3,0c-4.6-2.6-9.7-3.8-14.9-3.7c-5.2-0.1-10.3,1.2-14.9,3.7
		c-5.1,2.8-10.8,4.3-16.6,4.1c-5.8,0.1-11.6-1.3-16.6-4.1c-2.7-1.5-5.6-2.5-8.6-3.2c-0.7-0.1-1.4-0.2-2.2-0.3
		c-0.8-0.1-1.5-0.2-2.3-0.2s-1.4-0.1-2.1-0.1C60,706.4,54.9,707.7,50.3,710.3z M270,789.5h9.8c1.1,0,2,0.9,2,2c0,1.1-0.9,2-2,2H270
		c-1.1,0-2-0.9-2-2C268.1,790.4,269,789.5,270,789.5z M111.8,789.5h148.4c1.1,0,2,0.9,2,2c0,1.1-0.9,2-2,2H111.8c-1.1,0-2-0.9-2-2
		C109.9,790.4,110.8,789.5,111.8,789.5z"/>
	<path class="st1" d="M413,115.1c-157.6,0-285.7,128.2-285.7,285.8c0,100.6,52.3,189.2,131.1,240.2c2.9,0.2,5.8,0.8,8.5,1.8l0.2,0.1
		c1.6,0.6,3.1,1.3,4.6,2.1c9.3,4.9,20.5,4.9,29.9,0c1.5-0.7,2.9-1.4,4.6-2.1l0.2-0.1c7.7-2.6,16.1-2.6,23.8,0l0.2,0.1
		c1.6,0.6,3.1,1.3,4.6,2.1c9.3,4.9,20.5,4.9,29.9,0c1.4-0.7,2.9-1.4,4.6-2.1l0.2-0.1c7.7-2.6,16.1-2.6,23.8,0l0.3,0.1
		c1.6,0.6,3.1,1.4,4.5,2.1c9.3,4.9,20.5,4.9,29.9,0c1.5-0.8,3-1.4,4.5-2.1l0.3-0.1c7.7-2.6,16.1-2.6,23.8,0l0.3,0.1
		c1.6,0.6,3.1,1.4,4.5,2.1c9.3,4.9,20.5,4.9,29.9,0c1.4-0.7,2.9-1.4,4.5-2l0.3-0.1c7.7-2.6,16.1-2.6,23.8,0l0.3,0.1
		c1.6,0.6,3,1.3,4.5,2c9.3,4.9,20.5,4.9,29.9,0c1.4-0.7,2.8-1.4,4.4-2l0.4-0.1c2.7-1,5.6-1.6,8.6-1.8c78.7-50.9,131-139.6,131-240.2
		C698.8,243.4,570.6,115.1,413,115.1z M159.6,333.5c-1.6,5.6-2.3,9-3.4,14.2l-0.6,2.7c-0.2,0.9-1,1.6-2,1.6c-0.1,0-0.3,0-0.4,0
		c-1.1-0.2-1.7-1.2-1.5-2.3c0,0,0,0,0,0l0.5-2.7c1.1-5.3,1.8-8.8,3.4-14.6c0.3-1.1,1.4-1.7,2.4-1.4S159.9,332.4,159.6,333.5z
		 M210.7,237.5c-2.4,2.8-4.7,5.7-7,8.6c-15.8,20.2-28.4,42.8-37.3,66.9c-1.3,3.5-2.5,6.9-3.6,10.5c-0.3,0.8-1,1.4-1.9,1.4
		c-0.2,0-0.4,0-0.6-0.1c-1-0.3-1.6-1.4-1.3-2.5c0,0,0,0,0,0c10.3-32,26.9-61.7,48.7-87.3c0.7-0.8,1.9-0.9,2.8-0.2
		C211.3,235.4,211.4,236.7,210.7,237.5L210.7,237.5z"/>
	<path class="st2" d="M77.1,704.6c0.4,0.1,0.8,0.3,1.1,0.5c1.3,0.5,2.5,1.1,3.6,1.7c4.6,2.6,9.7,3.8,14.9,3.7
		c5.2,0.1,10.4-1.1,14.9-3.7c1.2-0.6,2.4-1.2,3.6-1.7c0.4-0.2,0.8-0.3,1.1-0.5c3.8-1.4,7.8-2.1,11.9-2c4.1-0.1,8.1,0.6,11.9,2
		c0.4,0.1,0.8,0.3,1.2,0.5c1.3,0.5,2.5,1.1,3.6,1.7c9.3,4.9,20.5,4.9,29.9,0c1.2-0.6,2.4-1.2,3.6-1.7l0.3-0.1l0.9-0.4l1-0.4
		c0.6-0.2,1.3-0.4,2-0.6c2.9-0.7,5.9-1,8.9-1c4.1-0.1,8.1,0.6,11.9,2c0.4,0.1,0.8,0.3,1.2,0.5c1.3,0.5,2.5,1.1,3.6,1.7
		c9.3,4.9,20.5,4.9,29.9,0c1.2-0.6,2.4-1.2,3.6-1.7c0.4-0.2,0.8-0.3,1.1-0.5c7.7-2.6,16.1-2.6,23.8,0c0.4,0.1,0.8,0.3,1.2,0.5
		c1.3,0.5,2.5,1.1,3.6,1.7c9.3,4.9,20.5,4.9,29.9,0c1.2-0.6,2.4-1.2,3.6-1.7c0.4-0.2,0.8-0.3,1.1-0.5c7.7-2.6,16.1-2.6,23.8,0
		c0.4,0.1,0.8,0.3,1.1,0.5c1.3,0.5,2.5,1.1,3.6,1.7c9.3,4.9,20.5,4.9,29.9,0c1.2-0.6,2.3-1.2,3.6-1.7c0.4-0.2,0.8-0.3,1.2-0.5
		c7.7-2.6,16.1-2.6,23.8,0l1.2,0.5c1.3,0.5,2.5,1.1,3.6,1.7c9.3,4.9,20.5,4.9,29.9,0c1.2-0.6,2.4-1.2,3.6-1.7
		c0.4-0.2,0.8-0.3,1.1-0.5c7.7-2.6,16.1-2.6,23.8,0c0.4,0.1,0.8,0.3,1.1,0.5c1.3,0.5,2.5,1.1,3.6,1.7c9.3,4.9,20.5,4.9,29.9,0
		c1.2-0.6,2.3-1.2,3.6-1.7l1.2-0.5c7.7-2.6,16.1-2.6,23.8,0c0.4,0.1,0.8,0.3,1.2,0.5c1.3,0.5,2.5,1.1,3.6,1.7
		c9.3,4.9,20.5,4.9,29.9,0c1.2-0.6,2.3-1.2,3.6-1.7l1.2-0.5c7.7-2.6,16.1-2.6,23.8,0l1.2,0.5c1.3,0.5,2.5,1.1,3.6,1.7
		c9.3,4.9,20.5,4.9,29.9,0c1.2-0.6,2.3-1.2,3.6-1.7c0.4-0.2,0.8-0.3,1.1-0.5c3.8-1.4,7.8-2.1,11.9-2c3-0.1,6,0.3,8.9,1
		c0.7,0.2,1.4,0.4,2,0.6l1,0.4l1,0.4l0.2,0.1c1.3,0.5,2.5,1.1,3.6,1.7c9.3,4.9,20.5,4.9,29.9,0c1.2-0.6,2.3-1.2,3.6-1.7
		c0.4-0.2,0.8-0.3,1.1-0.5c7.7-2.6,16.1-2.6,23.8,0c0.4,0.1,0.8,0.3,1.1,0.5c1.3,0.5,2.5,1.1,3.6,1.7c9.3,4.9,20.5,4.9,29.9,0
		c1.2-0.6,2.3-1.2,3.6-1.7c0.4-0.2,0.8-0.3,1.2-0.5c2.3-0.9,4.7-1.4,7.1-1.7c1.9-4.3,4.7-8.2,8.3-11.2l53.9-46.3
		c-3.2,0.6-6.3,1.7-9.1,3.3c-10.4,5.5-22.9,5.5-33.4,0c-9.3-4.9-20.5-4.9-29.9,0c-10.4,5.5-22.9,5.5-33.4,0l-1.7-0.8
		c-0.6-0.3-1.2-0.6-1.8-0.8s-1.2-0.5-1.8-0.7c-3.1-1-6.4-1.5-9.6-1.4c-5.2-0.1-10.4,1.1-14.9,3.7c-10.4,5.5-22.9,5.5-33.4,0
		c-9.3-4.9-20.5-4.9-29.9,0c-10.4,5.5-22.9,5.5-33.4,0c-4.6-2.6-9.7-3.8-14.9-3.7c-0.6,0-1.2,0-1.7,0c-4.6,0.1-9.2,1.4-13.2,3.7
		c-1.2,0.6-2.4,1.2-3.7,1.7c-4.1,1.7-8.5,2.5-12.9,2.4c-5.8,0.1-11.6-1.3-16.6-4.1c-9.3-4.9-20.5-4.9-29.9,0
		c-10.4,5.5-22.9,5.5-33.3,0c-9.3-4.9-20.5-4.9-29.9,0c-10.4,5.5-22.9,5.5-33.3,0c-9.3-4.9-20.5-4.9-29.9,0
		c-10.4,5.5-22.9,5.5-33.3,0c-9.3-4.9-20.5-4.9-29.9,0c-5.1,2.8-10.8,4.3-16.6,4.1c-4.4,0.1-8.7-0.7-12.7-2.3
		c-1.4-0.6-2.7-1.2-4-1.8c-4-2.2-8.6-3.5-13.2-3.6c-0.6,0-1.2,0-1.8,0c-5.2-0.1-10.4,1.1-14.9,3.7c-10.4,5.5-22.9,5.5-33.3,0
		c-9.3-4.9-20.5-4.9-29.9,0c-10.4,5.5-22.9,5.5-33.3,0c-4.6-2.6-9.7-3.8-14.9-3.7c-3.2-0.1-6.5,0.4-9.6,1.4
		c-0.6,0.2-1.3,0.5-1.8,0.7c-0.6,0.2-1.2,0.5-1.8,0.8l-1.7,0.8c-5.1,2.8-10.8,4.3-16.6,4.1c-5.8,0.1-11.6-1.3-16.6-4.1
		c-4.6-2.6-9.7-3.8-14.9-3.7c-5.2-0.1-10.4,1.1-14.9,3.7c-5.1,2.8-10.8,4.3-16.6,4.1c-5.8,0.1-11.6-1.3-16.6-4.1
		c-2.8-1.6-5.9-2.7-9.1-3.3l53.9,46.3c3.6,3.1,6.4,6.9,8.3,11.2C72.6,703.3,74.9,703.8,77.1,704.6z M615.9,661.8h148.4
		c1.1,0,2,0.9,2,2s-0.9,2-2,2H615.9c-1.1,0-2-0.9-2-2S614.8,661.8,615.9,661.8L615.9,661.8z M596.3,661.8h9.8c1.1,0,2,0.9,2,2
		s-0.9,2-2,2h-9.8c-1.1,0-2-0.9-2-2S595.2,661.8,596.3,661.8z"/>
	<path class="st3" d="M128.5,641c4.1-0.1,8.1,0.6,11.9,2h0.1c1.7,0.7,3.2,1.4,4.7,2.1c9.3,4.9,20.5,4.9,29.9,0
		c1.5-0.7,2.9-1.5,4.7-2.1h0.1c7.7-2.6,16.1-2.6,23.8,0l0.1,0c1.6,0.6,3.1,1.3,4.6,2.1c9.3,4.9,20.5,4.9,29.9,0
		c1.5-0.7,2.9-1.5,4.6-2.1l0.1-0.1c2.6-1,5.2-1.6,8-1.8c-15.4-10.4-29.7-22.2-42.8-35.3C95,492.7,95,309.3,208.2,196.1
		s296.6-113.1,409.7,0c113.1,113.1,113.1,296.6,0,409.7c-13.1,13.1-27.5,25-42.8,35.4c2.7,0.2,5.4,0.8,7.9,1.8l0.4,0.1
		c1.6,0.6,3,1.3,4.4,2c9.3,4.9,20.5,4.9,29.9,0c1.4-0.7,2.8-1.4,4.4-2l0.4-0.2c7.7-2.6,16.1-2.6,23.8,0l0.4,0.2
		c1.6,0.6,2.9,1.3,4.4,2c9.3,4.9,20.5,4.9,29.9,0c1.4-0.7,2.8-1.4,4.4-2l0.4-0.2c3.8-1.4,7.8-2.1,11.9-2c3.6-0.1,7.2,0.4,10.6,1.5
		c0.7-2.7,1.9-5.3,3.5-7.6c2.6-3.3,6.6-5.3,10.5-7.3c3.9-2,7.5-3.8,9.5-6.7c2-2.9,2.4-7,2.9-11.3c0.5-4.3,1-8.8,3.1-12.4
		c2.1-3.6,5.9-6.1,9.5-8.5s7-4.7,8.7-7.8c1.6-3.1,1.6-7.2,1.5-11.5s-0.1-8.9,1.6-12.7c1.7-3.8,5.1-6.7,8.4-9.6s6.4-5.5,7.7-8.8
		c1.2-3.3,0.7-7.3,0.1-11.6c-0.6-4.3-1.2-8.8,0.1-12.8c1.3-4,4.3-7.3,7.2-10.5s5.7-6.3,6.5-9.7s-0.2-7.3-1.3-11.5
		c-1.1-4.2-2.3-8.6-1.5-12.7c0.8-4.1,3.3-7.8,5.9-11.3s4.9-6.9,5.3-10.4s-1.1-7.2-2.7-11.3s-3.3-8.3-3-12.5
		c0.2-4.2,2.4-8.1,4.5-11.9c2.1-3.8,4.1-7.5,4.1-11c0-3.5-2-7.2-4.1-11c-2.1-3.8-4.2-7.8-4.5-11.9s1.4-8.4,3-12.5s3.1-7.8,2.7-11.3
		s-2.8-6.9-5.3-10.4s-5.1-7.2-5.9-11.3c-0.8-4.1,0.4-8.5,1.5-12.7c1.1-4.2,2.1-8.2,1.3-11.5c-0.8-3.4-3.6-6.5-6.5-9.7
		s-5.9-6.5-7.2-10.5c-1.2-4-0.6-8.5-0.1-12.8c0.6-4.3,1.1-8.4-0.1-11.6c-1.2-3.2-4.4-6-7.7-8.8s-6.7-5.8-8.4-9.6
		c-1.7-3.8-1.7-8.3-1.6-12.7s0.1-8.4-1.5-11.5c-1.6-3.1-5.1-5.4-8.7-7.8c-3.6-2.4-7.4-4.9-9.5-8.5c-2.2-3.6-2.7-8.1-3.1-12.4
		s-0.9-8.4-2.9-11.3c-2-2.9-5.7-4.7-9.5-6.7c-3.9-2-7.9-4-10.5-7.3c-2.6-3.3-3.6-7.7-4.6-11.9c-1-4.2-2-8.2-4.2-10.8
		c-2.3-2.6-6.2-4-10.3-5.5s-8.3-3-11.3-6c-3-3-4.5-7.2-6-11.3c-1.5-4.1-2.9-7.9-5.5-10.3c-2.6-2.3-6.6-3.2-10.9-4.2
		c-4.2-1-8.6-2-11.9-4.6c-3.3-2.6-5.3-6.6-7.3-10.5c-2-3.9-3.8-7.7-6.7-9.6c-2.9-2-6.9-2.4-11.3-2.9c-4.3-0.5-8.8-1-12.4-3.1
		s-6.1-5.9-8.5-9.5c-2.4-3.7-4.7-7-7.8-8.7s-7.2-1.6-11.5-1.5c-4.3,0.1-8.9,0.1-12.7-1.6c-3.8-1.7-6.7-5.1-9.6-8.4
		c-2.8-3.3-5.5-6.4-8.8-7.7c-3.3-1.2-7.3-0.7-11.6-0.1s-8.8,1.2-12.8-0.1c-4-1.3-7.3-4.3-10.5-7.2s-6.3-5.7-9.7-6.5
		c-3.4-0.8-7.3,0.2-11.5,1.3c-4.2,1.1-8.6,2.3-12.7,1.5c-4.1-0.8-7.8-3.3-11.3-5.9c-3.5-2.5-6.9-4.9-10.4-5.3
		c-3.5-0.4-7.2,1.2-11.3,2.7s-8.3,3.3-12.5,3c-4.2-0.3-8.1-2.4-11.9-4.5c-3.8-2.1-7.5-4.1-11-4.1s-7.2,2-11,4.1
		c-3.8,2.1-7.8,4.2-11.9,4.5c-4.1,0.3-8.4-1.4-12.5-3c-4.1-1.6-7.8-3.1-11.3-2.7c-3.4,0.4-6.9,2.8-10.4,5.3s-7.2,5.1-11.3,5.9
		s-8.5-0.4-12.7-1.5c-4.2-1.1-8.1-2.1-11.5-1.3c-3.4,0.8-6.5,3.6-9.7,6.5c-3.2,2.9-6.5,5.9-10.5,7.2c-4,1.2-8.5,0.6-12.8,0.1
		c-4.3-0.6-8.4-1.1-11.6,0.1c-3.2,1.2-6,4.4-8.8,7.7c-2.8,3.3-5.8,6.7-9.6,8.4c-3.8,1.7-8.3,1.7-12.7,1.6s-8.4-0.1-11.5,1.5
		s-5.4,5-7.8,8.7c-2.4,3.6-4.9,7.4-8.5,9.5c-3.6,2.2-8.1,2.7-12.4,3.1s-8.4,0.9-11.3,2.9s-4.7,5.7-6.7,9.5c-2,3.9-4,7.9-7.3,10.5
		s-7.7,3.6-11.9,4.6c-4.2,1-8.2,2-10.8,4.2s-4,6.1-5.5,10.2s-3,8.3-6,11.3c-3,3-7.2,4.5-11.3,6c-4.1,1.5-7.9,2.9-10.3,5.5
		c-2.3,2.6-3.2,6.6-4.2,10.8c-1,4.2-2,8.6-4.6,11.9c-2.6,3.3-6.6,5.3-10.5,7.3c-3.9,2-7.5,3.8-9.5,6.7c-2,2.9-2.4,7-2.9,11.3
		c-0.5,4.3-1,8.8-3.1,12.4c-2.1,3.6-5.9,6.1-9.5,8.5c-3.7,2.4-7,4.7-8.7,7.8c-1.6,3.1-1.6,7.2-1.5,11.5c0.1,4.3,0.1,8.9-1.6,12.7
		c-1.7,3.8-5.1,6.7-8.4,9.6c-3.3,2.8-6.4,5.5-7.7,8.8c-1.2,3.3-0.7,7.3-0.1,11.6c0.6,4.3,1.2,8.8-0.1,12.8s-4.3,7.3-7.2,10.5
		s-5.7,6.3-6.5,9.7s0.2,7.3,1.3,11.5c1.1,4.2,2.3,8.6,1.5,12.7s-3.3,7.8-5.9,11.3c-2.5,3.5-4.9,6.9-5.3,10.4s1.1,7.2,2.7,11.3
		c1.6,4,3.3,8.3,3,12.5c-0.2,4.2-2.4,8.1-4.5,11.9c-2.1,3.8-4.1,7.5-4.1,11s2,7.2,4.1,11c2.1,3.8,4.2,7.8,4.5,11.9s-1.4,8.4-3,12.5
		s-3.1,7.8-2.7,11.3c0.4,3.4,2.8,6.9,5.3,10.4c2.5,3.6,5.1,7.2,5.9,11.3s-0.4,8.5-1.5,12.7c-1.1,4.2-2.1,8.2-1.3,11.5
		c0.8,3.4,3.6,6.5,6.5,9.7c2.9,3.2,5.9,6.5,7.2,10.5c1.2,4,0.6,8.5,0.1,12.8s-1.1,8.4,0.1,11.6c1.2,3.2,4.4,6,7.7,8.8
		c3.3,2.8,6.7,5.8,8.4,9.6c1.7,3.8,1.7,8.3,1.6,12.7c-0.1,4.4-0.1,8.4,1.5,11.5c1.6,3.1,5.1,5.4,8.7,7.8c3.6,2.4,7.4,4.9,9.5,8.5
		s2.7,8.1,3.1,12.4c0.5,4.3,0.9,8.4,2.9,11.3s5.7,4.7,9.5,6.7c3.9,2,7.9,4,10.5,7.3c1.7,2.3,2.8,4.9,3.5,7.6
		C121.3,641.4,124.9,640.9,128.5,641z"/>
	<path d="M207.7,235c-21.9,25.6-38.4,55.3-48.7,87.3c-0.3,1,0.2,2.1,1.3,2.5c0,0,0,0,0,0c0.2,0.1,0.4,0.1,0.6,0.1
		c0.9,0,1.6-0.5,1.9-1.4c1.1-3.5,2.4-7,3.6-10.5c8.9-24.1,21.5-46.6,37.3-66.9c2.3-2.9,4.6-5.8,7-8.6c0.7-0.8,0.6-2.1-0.2-2.8
		C209.7,234,208.4,234.1,207.7,235z"/>
	<path d="M158.2,331.1c-1-0.3-2.1,0.3-2.4,1.3c-1.7,5.8-2.4,9.3-3.4,14.6l-0.5,2.7c-0.2,1.1,0.5,2.1,1.5,2.3c0,0,0,0,0,0
		c0.1,0,0.3,0,0.4,0c0.9,0,1.8-0.6,2-1.6l0.5-2.7c1-5.2,1.7-8.6,3.4-14.2C159.9,332.4,159.3,331.4,158.2,331.1z"/>
	<path d="M615.9,665.8h148.4c1.1,0,2-0.9,2-2s-0.9-2-2-2H615.9c-1.1,0-2,0.9-2,2S614.8,665.8,615.9,665.8z"/>
	<path d="M596.3,665.8h9.8c1.1,0,2-0.9,2-2s-0.9-2-2-2h-9.8c-1.1,0-2,0.9-2,2S595.2,665.8,596.3,665.8z"/>
	<path d="M111.8,793.5h148.4c1.1,0,2-0.9,2-2c0-1.1-0.9-2-2-2H111.8c-1.1,0-2,0.9-2,2C109.9,792.6,110.8,793.5,111.8,793.5z"/>
	<path d="M270,793.5h9.8c1.1,0,2-0.9,2-2c0-1.1-0.9-2-2-2H270c-1.1,0-2,0.9-2,2C268.1,792.6,269,793.5,270,793.5z"/>
	<path d="M53.4,704.6c-0.4,0.1-0.8,0.3-1.2,0.5c-1.3,0.5-2.5,1.1-3.6,1.7c-4.6,2.6-9.7,3.8-14.9,3.7c-5.2,0.1-10.4-1.1-15-3.7
		c-1.2-0.6-2.3-1.2-3.6-1.7c-0.4-0.2-0.8-0.3-1.1-0.5c-3.8-1.4-7.8-2.1-11.9-2c-1.1,0-2,0.9-2,2c0,0.4,0.2,0.9,0.4,1.2
		c0.1,0.3,0.3,0.5,0.5,0.8l58.2,50c4.1,3.5,7,8.1,8.5,13.2l11.4,38.6c1.4,4.6,5.6,7.8,10.4,7.8h647c4.8,0,9-3.2,10.4-7.8l11.4-38.6
		c1.5-5.1,4.5-9.7,8.5-13.2l58.2-50c0.5-0.5,0.8-1.2,1-2c0-1.1-0.9-2-2-2c-4.1-0.1-8.1,0.6-11.9,2c-0.4,0.1-0.8,0.3-1.2,0.5
		c-1.3,0.5-2.5,1.1-3.6,1.7c-9.3,4.9-20.5,4.9-29.9,0c-1.2-0.6-2.3-1.2-3.6-1.7c-0.4-0.2-0.8-0.3-1.2-0.5c-3.8-1.4-7.8-2.1-11.9-2
		h-0.4c1.6-3,3.8-5.7,6.4-8l58.2-50l0,0c0.6-0.4,0.9-1,0.9-1.6c0-1.1-0.9-2-2-2c-4.1-0.1-8.1,0.6-11.9,2l-0.5,0.2
		c-1.5,0.6-2.9,1.3-4.3,2c-9.3,4.9-20.5,4.9-29.9,0c-1.4-0.7-2.7-1.4-4.3-2l-0.5-0.2c-7.7-2.6-16.1-2.6-23.8,0l-0.5,0.2
		c-1.6,0.6-2.9,1.3-4.3,2c-9.3,4.9-20.5,4.9-29.9,0c-0.8-0.4-1.6-0.8-2.4-1.2c-0.6-0.3-1.2-0.5-1.8-0.8h-0.1l-0.5-0.2h2.6
		c0.5-2,1.4-4,2.7-5.7c2.1-2.6,5.5-4.4,9.2-6.2c4.1-2.1,8.4-4.3,11-8c2.6-3.7,3.1-8.5,3.6-13.1c0.4-4.1,0.9-8,2.6-10.8
		c1.7-2.8,4.9-5,8.4-7.3c3.9-2.6,7.8-5.3,10-9.2c2.1-4,2-8.8,2-13.4c-0.1-4.1-0.1-8,1.3-11.1c1.4-3,4.3-5.5,7.4-8.2
		c3.5-3,7.2-6.2,8.8-10.4c1.6-4.2,1-8.9,0.3-13.5c-0.5-4.1-1.1-7.9-0.1-11.1c1-3.2,3.6-6,6.3-9c3.1-3.4,6.4-7,7.5-11.4
		s-0.2-9-1.3-13.5c-1-4-2-7.8-1.4-11.1c0.6-3.3,2.8-6.4,5.2-9.8c2.7-3.8,5.5-7.7,6-12.2c0.5-4.5-1.2-8.9-2.9-13.2
		c-1.5-3.8-2.9-7.5-2.8-10.8c0.2-3.4,2-6.7,4-10.3c2.2-4.1,4.5-8.3,4.5-12.9c0-4.5-2.3-8.8-4.5-12.9c-2-3.6-3.8-7-4-10.3
		c-0.2-3.3,1.2-7,2.8-10.8c1.7-4.3,3.5-8.7,2.9-13.2c-0.5-4.4-3.3-8.4-6-12.2c-2.4-3.3-4.6-6.5-5.2-9.7c-0.6-3.2,0.4-7.1,1.4-11.1
		c1.2-4.5,2.4-9.1,1.3-13.5c-1.1-4.3-4.3-7.9-7.5-11.4c-2.8-3-5.4-5.9-6.4-9s-0.5-7.1,0.1-11.1c0.6-4.6,1.3-9.3-0.3-13.5
		c-1.6-4.2-5.2-7.4-8.8-10.4c-3.1-2.7-6-5.2-7.4-8.2c-1.4-3-1.3-6.9-1.3-11c0.1-4.6,0.1-9.4-2-13.4c-2.1-4-6.1-6.7-10-9.2
		c-3.4-2.3-6.6-4.4-8.4-7.3c-1.7-2.8-2.2-6.7-2.6-10.8c-0.5-4.6-1-9.4-3.6-13.1c-2.6-3.7-6.9-5.9-11-8c-3.7-1.8-7.1-3.6-9.2-6.2
		c-2.1-2.6-2.9-6.4-3.9-10.4c-1-4.5-2.1-9.2-5.1-12.6c-3-3.4-7.5-5-11.9-6.6c-3.9-1.4-7.5-2.7-9.9-5.1c-2.3-2.4-3.7-6-5.1-9.9
		c-1.6-4.4-3.2-8.9-6.6-11.9c-3.4-3-8-4.1-12.6-5.1c-4-1-7.8-1.8-10.4-3.9c-2.6-2.1-4.4-5.5-6.2-9.2c-2.1-4.1-4.3-8.4-8-11
		c-3.7-2.6-8.5-3.1-13.1-3.6c-4.1-0.4-8-0.9-10.8-2.6c-2.8-1.7-5-4.9-7.3-8.4c-2.6-3.9-5.3-7.8-9.2-10c-4-2.1-8.8-2-13.4-2
		c-4.1,0.1-8,0.1-11.1-1.3c-3-1.4-5.5-4.3-8.2-7.4c-3-3.5-6.2-7.2-10.4-8.8c-4.2-1.6-8.9-1-13.5-0.3c-4.1,0.5-7.9,1.1-11.1,0.1
		c-3.2-1-6-3.6-9-6.4c-3.4-3.1-7-6.4-11.4-7.5s-9,0.2-13.5,1.3c-4,1.1-7.7,2.1-11,1.4c-3.3-0.6-6.4-2.8-9.7-5.2
		c-3.8-2.7-7.7-5.5-12.2-6c-4.5-0.5-8.9,1.2-13.2,2.9c-3.8,1.5-7.5,2.9-10.8,2.8c-3.4-0.2-6.7-2-10.3-4c-4.1-2.2-8.3-4.5-12.9-4.5
		s-8.8,2.3-12.9,4.5c-3.6,2-7,3.8-10.3,4c-3.3,0.2-7-1.2-10.8-2.8c-4.3-1.7-8.8-3.5-13.2-2.9c-4.4,0.5-8.4,3.3-12.2,6
		c-3.3,2.4-6.5,4.6-9.7,5.2c-3.2,0.6-7.1-0.4-11.1-1.4c-4.5-1.2-9.1-2.4-13.5-1.3c-4.3,1.1-7.9,4.3-11.4,7.5c-3,2.8-5.9,5.4-9,6.4
		c-3.2,1-7.1,0.5-11.1-0.1c-4.6-0.6-9.3-1.3-13.5,0.3s-7.4,5.2-10.4,8.8c-2.7,3.1-5.2,6-8.2,7.4c-3,1.4-6.9,1.3-11,1.3
		c-4.6-0.1-9.4-0.1-13.4,2c-4,2.1-6.7,6.1-9.2,10c-2.3,3.4-4.4,6.6-7.3,8.4s-6.7,2.2-10.8,2.6c-4.6,0.5-9.4,1-13.1,3.6
		c-3.7,2.6-5.9,6.9-8,11c-1.8,3.7-3.6,7.1-6.2,9.2s-6.4,2.9-10.4,3.9c-4.5,1-9.2,2.1-12.6,5.1c-3.4,3-5,7.5-6.6,11.9
		c-1.4,3.9-2.7,7.5-5.1,9.9c-2.4,2.3-6,3.6-10,5c-4.4,1.6-8.9,3.2-11.9,6.6s-4.1,8-5.1,12.6c-0.9,4-1.8,7.8-3.9,10.4
		c-2.1,2.6-5.5,4.4-9.2,6.2c-4.1,2.1-8.4,4.3-11,8c-2.6,3.7-3,8.5-3.6,13.1c-0.4,4.1-0.9,8-2.6,10.8c-1.7,2.9-4.9,5-8.4,7.3
		c-3.9,2.6-7.8,5.3-10,9.2s-2,8.8-2,13.4c0.1,4.1,0.1,8-1.3,11.1s-4.3,5.5-7.4,8.2c-3.5,3-7.2,6.2-8.8,10.4c-1.6,4.2-1,8.9-0.3,13.5
		c0.5,4.1,1.1,7.9,0.1,11.1c-1,3.2-3.6,6-6.3,9c-3.1,3.4-6.4,7-7.4,11.4s0.2,9,1.3,13.5c1,4,2,7.8,1.4,11.1
		c-0.6,3.3-2.8,6.4-5.2,9.7c-2.7,3.8-5.5,7.7-6,12.2s1.2,8.9,2.9,13.2c1.5,3.8,2.9,7.5,2.8,10.8c-0.2,3.4-2,6.6-4,10.2
		c-2.2,4.1-4.5,8.3-4.5,12.9c0,4.5,2.3,8.8,4.5,12.9c2,3.6,3.8,7,4,10.3c0.2,3.3-1.2,7-2.8,10.8c-1.7,4.3-3.5,8.7-2.9,13.2
		c0.5,4.4,3.3,8.4,6,12.2c2.4,3.3,4.6,6.5,5.2,9.8c0.6,3.3-0.4,7.1-1.4,11.1c-1.2,4.5-2.4,9.1-1.3,13.5c1.1,4.3,4.3,7.9,7.5,11.4
		c2.8,3,5.4,5.9,6.4,9c1,3.2,0.5,7.1-0.1,11.1c-0.6,4.6-1.3,9.3,0.3,13.5c1.6,4.2,5.2,7.4,8.8,10.4c3.1,2.7,6,5.2,7.4,8.2
		c1.4,3,1.3,6.9,1.3,11c-0.1,4.6-0.1,9.4,2,13.4s6.1,6.7,10,9.2c3.4,2.3,6.6,4.4,8.4,7.3c1.7,2.8,2.2,6.7,2.6,10.8
		c0.5,4.6,1,9.4,3.6,13.1s6.9,5.9,11,8c3.7,1.8,7.1,3.6,9.2,6.2c1.2,1.7,2.1,3.6,2.7,5.7h2.6h-0.1l-0.4,0.2
		c-0.6,0.2-1.2,0.5-1.8,0.8c-0.9,0.4-1.7,0.8-2.5,1.2c-4.6,2.6-9.7,3.8-14.9,3.7c-5.2,0.1-10.4-1.1-14.9-3.7
		c-1.6-0.8-3.2-1.5-4.8-2.1l0,0c-3.8-1.4-7.8-2.1-11.9-2c-4.1-0.1-8.1,0.6-11.9,2l0,0c-1.6,0.6-3.2,1.4-4.7,2.2
		c-4.6,2.6-9.7,3.8-14.9,3.7c-5.3,0.1-10.5-1.2-15.1-3.8c-1.6-0.8-3.1-1.5-4.8-2.2l0,0c-3.8-1.4-7.8-2.1-11.9-2h0H1.7
		c-0.1,0-0.1,0-0.2,0l-0.2,0.1l-0.2,0.1c-0.1,0-0.1,0.1-0.2,0.1l-0.2,0.1l-0.1,0.1c-0.1,0-0.1,0.1-0.1,0.1H0.5l-0.1,0.1l-0.1,0.2
		L0.3,642c0,0.1-0.1,0.1-0.1,0.2l-0.1,0.2c0,0.1,0,0.1,0,0.2c0,0.1,0,0.1,0,0.2c0,0,0,0.1,0,0.1S0.1,643,0.1,643c0,0.1,0,0.1,0,0.2
		v0.2l0.1,0.2c0,0.1,0,0.1,0.1,0.2c0,0.1,0.1,0.1,0.1,0.2l0.1,0.2l0.1,0.1l0.1,0.1v0.1l58.5,50.2c2.7,2.2,4.9,4.9,6.5,8h-0.4
		C61.2,702.6,57.2,703.2,53.4,704.6z M114.4,634.9c-2.6-3.3-6.6-5.3-10.5-7.3c-3.9-2-7.6-3.8-9.5-6.7c-2-2.9-2.4-6.9-2.9-11.3
		c-0.5-4.3-1-8.8-3.1-12.4c-2.1-3.6-5.9-6.1-9.5-8.5c-3.7-2.4-7-4.7-8.7-7.8c-1.6-3.1-1.6-7.2-1.5-11.5c0.1-4.3,0.1-8.9-1.6-12.7
		c-1.7-3.8-5.1-6.8-8.4-9.6c-3.3-2.8-6.4-5.5-7.7-8.8c-1.2-3.3-0.7-7.3-0.1-11.6c0.6-4.3,1.2-8.8-0.1-12.8c-1.3-4-4.3-7.3-7.2-10.5
		s-5.7-6.3-6.5-9.7s0.2-7.3,1.3-11.5c1.1-4.2,2.3-8.6,1.5-12.7s-3.3-7.8-5.9-11.3c-2.5-3.5-4.9-6.9-5.3-10.4s1.1-7.2,2.7-11.3
		c1.6-4,3.3-8.3,3-12.5c-0.2-4.2-2.4-8.1-4.5-11.9c-2.1-3.8-4.1-7.5-4.1-11c0-3.5,2-7.2,4.1-11c2.1-3.8,4.2-7.8,4.5-11.9
		c0.3-4.1-1.4-8.4-3-12.5s-3.1-7.8-2.7-11.3s2.8-6.9,5.3-10.4c2.5-3.6,5.1-7.2,5.9-11.3c0.8-4.1-0.4-8.5-1.5-12.7
		c-1.1-4.2-2.1-8.2-1.3-11.5s3.6-6.5,6.5-9.7s5.9-6.5,7.2-10.5c1.2-4,0.6-8.5,0.1-12.8c-0.6-4.3-1.1-8.4,0.1-11.6
		c1.2-3.3,4.4-6,7.7-8.8c3.3-2.8,6.7-5.8,8.4-9.6c1.7-3.8,1.7-8.3,1.6-12.7c-0.1-4.4-0.1-8.4,1.5-11.5c1.6-3.1,5.1-5.4,8.7-7.8
		c3.6-2.4,7.4-4.9,9.5-8.5s2.7-8.1,3.1-12.4c0.5-4.3,0.9-8.4,2.9-11.3c2-2.9,5.7-4.7,9.5-6.7c3.9-2,7.9-4,10.5-7.3
		c2.6-3.3,3.6-7.7,4.6-11.9c1-4.3,2-8.2,4.2-10.8c2.3-2.6,6.2-4,10.3-5.5s8.3-3,11.3-6c3-3,4.5-7.2,6-11.3c1.5-4.1,2.9-7.9,5.5-10.3
		s6.6-3.2,10.8-4.2c4.2-1,8.6-2,11.9-4.6c3.3-2.6,5.3-6.6,7.3-10.5c2-3.9,3.8-7.6,6.7-9.6c2.9-2,6.9-2.4,11.3-2.9s8.8-1,12.4-3.1
		s6.1-5.9,8.5-9.5c2.4-3.7,4.7-7,7.8-8.7c3.1-1.6,7.2-1.6,11.5-1.5c4.3,0.1,8.9,0.1,12.7-1.6c3.8-1.7,6.8-5.1,9.6-8.4
		c2.8-3.3,5.5-6.4,8.8-7.7c3.3-1.2,7.3-0.7,11.6-0.1c4.3,0.6,8.8,1.2,12.8-0.1c4-1.3,7.3-4.3,10.5-7.2c3.2-2.9,6.3-5.7,9.7-6.5
		c3.4-0.8,7.3,0.2,11.5,1.3s8.6,2.3,12.7,1.5s7.8-3.3,11.3-5.9s6.9-4.9,10.4-5.3c3.5-0.4,7.3,1.2,11.3,2.7s8.3,3.3,12.5,3
		c4.2-0.3,8.1-2.4,11.9-4.5c3.8-2.1,7.5-4.1,11-4.1s7.2,2,11,4.1c3.8,2.1,7.8,4.2,11.9,4.5c4.1,0.3,8.4-1.4,12.5-3s7.8-3.1,11.3-2.7
		c3.4,0.4,6.9,2.8,10.4,5.3c3.6,2.5,7.2,5.1,11.3,5.9s8.5-0.4,12.7-1.5c4.2-1.1,8.2-2.1,11.5-1.3s6.5,3.6,9.7,6.5s6.5,5.9,10.5,7.2
		c4,1.2,8.5,0.6,12.8,0.1c4.3-0.6,8.4-1.1,11.6,0.1c3.3,1.2,6,4.4,8.8,7.7c2.8,3.3,5.8,6.7,9.6,8.4c3.8,1.7,8.3,1.7,12.7,1.6
		c4.4-0.1,8.4-0.1,11.5,1.5s5.4,5.1,7.8,8.7c2.4,3.6,4.9,7.4,8.5,9.5s8.1,2.7,12.4,3.1c4.3,0.5,8.4,0.9,11.3,2.9s4.7,5.7,6.7,9.5
		c2,3.9,4,7.9,7.3,10.5c3.3,2.6,7.7,3.6,11.9,4.6s8.2,2,10.9,4.2c2.6,2.3,4,6.2,5.5,10.3c1.5,4.1,3,8.3,6,11.3c3,3,7.2,4.5,11.3,6
		c4.1,1.5,7.9,2.9,10.3,5.5c2.3,2.6,3.2,6.6,4.2,10.8s2,8.6,4.6,11.9c2.6,3.3,6.6,5.3,10.5,7.2c3.9,2,7.6,3.8,9.5,6.7
		c2,2.9,2.4,6.9,2.9,11.3c0.5,4.3,1,8.8,3.1,12.4c2.1,3.6,5.9,6.1,9.5,8.5c3.6,2.4,7,4.7,8.7,7.8s1.6,7.2,1.5,11.5
		s-0.1,8.9,1.6,12.7s5.1,6.8,8.4,9.6c3.3,2.8,6.4,5.5,7.7,8.8c1.2,3.3,0.7,7.3,0.1,11.6c-0.6,4.3-1.2,8.8,0.1,12.8
		c1.3,4,4.3,7.3,7.2,10.5s5.7,6.3,6.5,9.7s-0.2,7.3-1.3,11.5c-1.1,4.2-2.3,8.6-1.5,12.7c0.8,4.1,3.3,7.8,5.9,11.3
		c2.5,3.5,4.9,6.9,5.3,10.4s-1.1,7.2-2.7,11.3s-3.3,8.3-3,12.5c0.2,4.2,2.4,8.1,4.5,11.9c2.1,3.8,4.1,7.5,4.1,11s-2,7.2-4.1,11
		c-2.1,3.8-4.2,7.8-4.5,11.9s1.4,8.4,3,12.5s3.1,7.8,2.7,11.3c-0.4,3.4-2.8,6.9-5.3,10.4s-5.1,7.2-5.9,11.3
		c-0.8,4.1,0.4,8.5,1.5,12.7c1.1,4.2,2.1,8.2,1.3,11.5c-0.8,3.4-3.6,6.5-6.5,9.7c-2.9,3.2-5.9,6.5-7.2,10.5c-1.2,4-0.6,8.5-0.1,12.8
		c0.6,4.3,1.1,8.4-0.1,11.6c-1.2,3.3-4.4,6-7.7,8.8s-6.7,5.8-8.4,9.6s-1.7,8.3-1.6,12.7c0.1,4.4,0.1,8.4-1.5,11.5s-5.1,5.4-8.7,7.8
		c-3.6,2.4-7.4,4.9-9.5,8.5s-2.7,8.1-3.1,12.4s-0.9,8.4-2.9,11.3c-2,2.9-5.7,4.7-9.5,6.7c-3.9,2-7.9,4-10.5,7.3
		c-1.7,2.3-2.9,4.9-3.5,7.6c-3.4-1.1-7-1.6-10.6-1.5c-4.1-0.1-8.1,0.6-11.9,2l-0.4,0.2c-1.6,0.6-2.9,1.3-4.4,2
		c-9.3,4.9-20.5,4.9-29.9,0c-1.4-0.7-2.8-1.4-4.4-2l-0.4-0.2c-7.7-2.6-16.1-2.6-23.8,0l-0.4,0.2c-1.6,0.6-3,1.3-4.4,2
		c-9.3,4.9-20.5,4.9-29.9,0c-1.4-0.7-2.8-1.4-4.4-2l-0.4-0.1c-2.5-0.9-5.2-1.5-7.9-1.8c15.4-10.4,29.7-22.2,42.8-35.3
		c113.1-113.1,113.1-296.6,0-409.7s-296.6-113.1-409.7,0C95,309.3,95,492.7,208.2,605.8c13.1,13.1,27.5,25,42.8,35.4
		c-2.7,0.2-5.4,0.8-8,1.8l-0.1,0.1c-1.7,0.6-3.2,1.4-4.6,2.1c-9.3,4.9-20.5,4.9-29.9,0c-1.5-0.8-3.1-1.5-4.6-2.1l-0.1,0
		c-7.7-2.6-16.1-2.6-23.8,0h-0.1c-1.7,0.7-3.2,1.4-4.7,2.1c-9.3,4.9-20.5,4.9-29.9,0c-1.5-0.7-3-1.5-4.7-2.1h-0.1
		c-3.8-1.4-7.8-2.1-11.9-2c-3.6-0.1-7.1,0.4-10.5,1.5C117.3,639.8,116.1,637.2,114.4,634.9z M567.7,641.1c-2.9,0.2-5.8,0.8-8.6,1.8
		l-0.4,0.1c-1.6,0.6-3,1.3-4.4,2c-9.3,4.9-20.5,4.9-29.9,0c-1.4-0.7-2.8-1.4-4.5-2l-0.3-0.1c-7.7-2.6-16.1-2.6-23.8,0l-0.3,0.1
		c-1.6,0.6-3.1,1.3-4.5,2c-9.3,4.9-20.5,4.9-29.9,0c-1.4-0.7-2.9-1.4-4.5-2.1l-0.3-0.1c-7.7-2.6-16.1-2.6-23.8,0l-0.3,0.1
		c-1.5,0.6-3,1.3-4.5,2.1c-9.3,4.9-20.5,4.9-29.9,0c-1.4-0.7-2.9-1.4-4.5-2.1l-0.3-0.1c-7.7-2.6-16.1-2.6-23.8,0l-0.2,0.1
		c-1.7,0.6-3.1,1.4-4.6,2.1c-9.3,4.9-20.5,4.9-29.9,0c-1.5-0.8-3-1.5-4.6-2.1L330,643c-7.7-2.6-16.1-2.6-23.8,0l-0.2,0.1
		c-1.7,0.6-3.1,1.4-4.6,2.1c-9.3,4.9-20.5,4.9-29.9,0c-1.5-0.8-3-1.5-4.6-2.1l-0.2-0.1c-2.7-1-5.6-1.6-8.5-1.8
		c-78.8-50.9-131-139.6-131-240.2c0-157.6,128.2-285.7,285.8-285.7S698.8,243.4,698.8,401C698.8,501.6,646.5,590.2,567.7,641.1z
		 M61.8,691.7l-54-46.3c3.2,0.6,6.3,1.7,9.1,3.3c5.1,2.8,10.8,4.3,16.6,4.1c5.8,0.1,11.6-1.3,16.6-4.1c4.6-2.6,9.7-3.8,14.9-3.7
		c5.2-0.1,10.4,1.1,14.9,3.7c5.1,2.8,10.8,4.3,16.6,4.1c5.8,0.1,11.6-1.3,16.6-4.1l1.7-0.8c0.6-0.3,1.2-0.6,1.8-0.8
		c0.6-0.3,1.2-0.5,1.8-0.7c3.1-1,6.3-1.5,9.6-1.4c5.2-0.1,10.4,1.1,14.9,3.7c10.4,5.5,22.9,5.5,33.3,0c9.3-4.9,20.5-4.9,29.9,0
		c10.4,5.5,22.9,5.5,33.3,0c4.6-2.6,9.7-3.8,14.9-3.7c0.6,0,1.2,0,1.8,0c4.6,0.1,9.1,1.4,13.2,3.7c1.3,0.6,2.6,1.3,4,1.8
		c4,1.6,8.4,2.4,12.7,2.3c5.8,0.1,11.6-1.3,16.6-4.1c9.3-4.9,20.5-4.9,29.9,0c10.4,5.5,22.9,5.5,33.4,0c9.3-4.9,20.5-4.9,29.9,0
		c10.4,5.5,22.9,5.5,33.3,0c9.3-4.9,20.5-4.9,29.9,0c10.4,5.5,22.9,5.5,33.3,0c9.3-4.9,20.5-4.9,29.9,0c5.1,2.8,10.8,4.3,16.6,4.1
		c4.4,0.1,8.8-0.7,12.9-2.4c1.3-0.5,2.5-1.1,3.7-1.7c4.1-2.3,8.7-3.5,13.4-3.6c0.6,0,1.1,0,1.7,0c5.2-0.1,10.4,1.1,14.9,3.7
		c10.4,5.5,22.9,5.5,33.4,0c9.3-4.9,20.5-4.9,29.9,0c10.4,5.5,22.9,5.5,33.4,0c4.6-2.6,9.7-3.8,14.9-3.7c3.3-0.1,6.5,0.4,9.6,1.4
		c0.6,0.2,1.3,0.5,1.8,0.7c0.6,0.2,1.2,0.5,1.8,0.8l1.7,0.8c10.4,5.5,22.9,5.5,33.4,0c9.3-4.9,20.5-4.9,29.9,0
		c10.4,5.5,22.9,5.5,33.4,0c2.8-1.6,5.9-2.7,9.1-3.3l-53.9,46.3c-3.6,3.1-6.4,6.9-8.3,11.2c-2.4,0.3-4.8,0.8-7.1,1.7
		c-0.4,0.1-0.8,0.3-1.2,0.5c-1.3,0.5-2.5,1.1-3.6,1.7c-9.3,4.9-20.5,4.9-29.9,0c-1.2-0.6-2.4-1.2-3.6-1.7c-0.4-0.2-0.8-0.3-1.1-0.5
		c-7.7-2.6-16.1-2.6-23.8,0c-0.4,0.1-0.8,0.3-1.1,0.5c-1.3,0.5-2.5,1.1-3.6,1.7c-9.3,4.9-20.5,4.9-29.9,0c-1.2-0.6-2.4-1.2-3.6-1.7
		l-0.2-0.1l-1-0.4l-1-0.4c-0.6-0.2-1.3-0.4-2-0.6c-2.9-0.7-5.9-1-8.9-1c-4.1-0.1-8.1,0.6-11.9,2c-0.4,0.1-0.8,0.3-1.1,0.5
		c-1.3,0.5-2.5,1.1-3.6,1.7c-9.3,4.9-20.5,4.9-29.9,0c-1.2-0.6-2.3-1.2-3.6-1.7l-1.2-0.5c-7.7-2.6-16.1-2.6-23.8,0l-1.2,0.5
		c-1.3,0.5-2.5,1.1-3.6,1.7c-9.3,4.9-20.5,4.9-29.9,0c-1.2-0.6-2.3-1.2-3.6-1.7c-0.4-0.2-0.8-0.3-1.2-0.5c-7.7-2.6-16.1-2.6-23.8,0
		l-1.2,0.5c-1.3,0.5-2.5,1.1-3.6,1.7c-9.3,4.9-20.5,4.9-29.9,0c-1.2-0.6-2.4-1.2-3.6-1.7c-0.4-0.2-0.8-0.3-1.1-0.5
		c-7.7-2.6-16.1-2.6-23.8,0c-0.4,0.1-0.8,0.3-1.1,0.5c-1.3,0.5-2.5,1.1-3.6,1.7c-9.3,4.9-20.5,4.9-29.9,0c-1.2-0.6-2.3-1.2-3.6-1.7
		l-1.2-0.5c-7.7-2.6-16.1-2.6-23.8,0c-0.4,0.1-0.8,0.3-1.2,0.5c-1.3,0.5-2.5,1.1-3.6,1.7c-9.3,4.9-20.5,4.9-29.9,0
		c-1.2-0.6-2.4-1.2-3.6-1.7c-0.4-0.2-0.8-0.3-1.1-0.5c-7.7-2.6-16.1-2.6-23.8,0c-0.4,0.1-0.8,0.3-1.1,0.5c-1.3,0.5-2.5,1.1-3.6,1.7
		c-9.3,4.9-20.5,4.9-29.9,0c-1.2-0.6-2.3-1.2-3.6-1.7c-0.4-0.2-0.8-0.3-1.2-0.5c-7.7-2.6-16.1-2.6-23.8,0c-0.4,0.1-0.8,0.3-1.1,0.5
		c-1.3,0.5-2.5,1.1-3.6,1.7c-9.3,4.9-20.5,4.9-29.9,0c-1.2-0.6-2.3-1.2-3.6-1.7c-0.4-0.2-0.8-0.3-1.2-0.5c-3.8-1.4-7.8-2.1-11.9-2
		c-3-0.1-6,0.3-8.9,1c-0.7,0.2-1.4,0.4-2,0.6l-1,0.4l-0.9,0.4l-0.3,0.1c-1.3,0.5-2.5,1.1-3.6,1.7c-9.3,4.9-20.5,4.9-29.9,0
		c-1.2-0.6-2.3-1.2-3.6-1.7c-0.4-0.2-0.8-0.3-1.2-0.5c-3.8-1.4-7.8-2.1-11.9-2c-4.1-0.1-8.1,0.6-11.9,2c-0.4,0.1-0.8,0.3-1.1,0.5
		c-1.3,0.5-2.5,1.1-3.6,1.7c-4.6,2.6-9.7,3.8-14.9,3.7c-5.2,0.1-10.4-1.1-14.9-3.7c-1.2-0.6-2.4-1.2-3.6-1.7
		c-0.4-0.2-0.8-0.3-1.1-0.5c-2.3-0.8-4.6-1.4-7-1.7C68.2,698.7,65.4,694.8,61.8,691.7L61.8,691.7z M67.3,706.6
		c0.7,0,1.4,0.1,2.1,0.2c0.7,0.1,1.5,0.2,2.2,0.3c3,0.6,5.9,1.7,8.6,3.2c5.1,2.8,10.8,4.3,16.6,4.1c5.8,0.1,11.6-1.3,16.6-4.1
		c4.6-2.6,9.7-3.8,14.9-3.7c5.2-0.1,10.4,1.1,14.9,3.7c10.4,5.5,22.9,5.5,33.3,0c1.4-0.7,2.8-1.4,4.3-2c0.6-0.2,1.2-0.4,1.9-0.6
		c0.7-0.2,1.3-0.3,2-0.5c2.2-0.4,4.5-0.7,6.8-0.6c5.2-0.1,10.4,1.1,14.9,3.7c10.4,5.5,22.9,5.5,33.3,0c9.3-4.9,20.5-4.9,29.9,0
		c10.4,5.5,22.9,5.5,33.4,0c9.3-4.9,20.5-4.9,29.9,0c10.4,5.5,22.9,5.5,33.3,0c9.3-4.9,20.5-4.9,29.9,0c10.4,5.5,22.9,5.5,33.3,0
		c9.3-4.9,20.5-4.9,29.9,0c10.4,5.5,22.9,5.5,33.3,0c9.3-4.9,20.5-4.9,29.9,0c10.4,5.5,22.9,5.5,33.4,0c9.3-4.9,20.5-4.9,29.9,0
		c10.4,5.5,22.9,5.5,33.4,0c4.6-2.6,9.7-3.8,14.9-3.7c2.3,0,4.6,0.2,6.9,0.6c0.7,0.1,1.3,0.3,2,0.5c0.6,0.2,1.3,0.4,1.9,0.6
		c1.5,0.6,2.9,1.3,4.3,2c10.4,5.5,22.9,5.5,33.4,0c9.3-4.9,20.5-4.9,29.9,0c10.4,5.5,22.9,5.5,33.4,0c2.7-1.5,5.6-2.5,8.6-3.2
		c0.7-0.1,1.4-0.2,2.2-0.3s1.4-0.1,2.1-0.2c0.7,0,1.3,0,2.1,0c5.2-0.1,10.4,1.1,14.9,3.7c10.4,5.5,22.9,5.5,33.4,0
		c3-1.6,6.2-2.7,9.5-3.3l-54.2,46.6c-4.6,4-8,9.2-9.7,15l-11.4,38.6c-0.9,2.9-3.6,5-6.6,5h-647c-3.1,0-5.8-2-6.6-5l-11.4-38.6
		c-1.7-5.8-5.1-11.1-9.7-15L7.5,707c3.3,0.6,6.5,1.7,9.5,3.3c5.1,2.8,10.8,4.3,16.6,4.1c5.8,0.1,11.6-1.3,16.6-4.1
		c4.6-2.6,9.7-3.8,14.9-3.7C66,706.6,66.7,706.6,67.3,706.6z"/>
</g>
</svg>
