<svg fill="#cd121b" xmlns="http://www.w3.org/2000/svg" viewBox="0 0 40 40">
    <path d="M38.4 12.2c-1.1-2.4-2.5-4.6-4.3-6.4s-3.9-3.2-6.4-4.3S22.7 0 20 0c-1.8 0-3.6.2-5.3.7s-3.3 1.2-4.8 2-2.8 1.9-4 3.1-2.3 2.6-3.1 4c-.9 1.5-1.5 3.1-2 4.8S0 18.2 0 20s.2 3.6.7 5.3c.5 1.7 1.2 3.3 2 4.8.9 1.5 1.9 2.8 3.1 4 1.2 1.2 2.6 2.3 4 3.1 1.5.9 3.1 1.5 4.8 2 1.7.5 3.5.7 5.3.7s3.6-.2 5.3-.7c1.7-.5 3.3-1.2 4.8-2 1.5-.9 2.8-1.9 4-3.1 1.2-1.2 2.3-2.6 3.1-4 .9-1.5 1.5-3.1 2-4.8.5-1.7.7-3.5.7-5.3.2-2.7-.3-5.3-1.4-7.8zm-19 1.7c-.1.2-.3.3-.4.3-2.7.4-4.1 1.7-4.1 3.8h2.4c.4 0 .6.2.6.6v9.2c0 .4-.2.6-.6.6H9.6c-.4 0-.6-.2-.6-.6v-8c0-6.3 3.1-9.6 9.2-9.9.2 0 .3 0 .4.1.1.1.2.2.3.4l.6 2.9c0 .3 0 .4-.1.6zm11.8 0c-.1.2-.3.3-.4.3-2.7.4-4.1 1.7-4.1 3.8h2.4c.2 0 .3.1.5.2.1.1.2.3.2.5v9.2c0 .2-.1.3-.2.5-.1.1-.3.2-.5.2h-7.6c-.2 0-.3-.1-.5-.2-.1-.1-.2-.3-.2-.5v-8c0-6.3 3.1-9.6 9.2-9.9.2 0 .3 0 .4.1.1.1.2.2.3.4l.6 2.9c.1.2.1.3-.1.5z"/>
</svg>
