<?xml version="1.0" encoding="utf-8"?>
<!-- Generator: Adobe Illustrator 23.0.4, SVG Export Plug-In . SVG Version: 6.00 Build 0)  -->
<svg version="1.1" id="Слой_1" xmlns="http://www.w3.org/2000/svg" xmlns:xlink="http://www.w3.org/1999/xlink" x="0px" y="0px"
	 viewBox="0 0 826 826" style="enable-background:new 0 0 826 826;" xml:space="preserve">
<style type="text/css">
	.st0{fill:#EEF5FA;}
	.st1{fill:#DDE1E5;}
</style>
<path class="st0" d="M413,108.3C245,108.3,108.3,245,108.3,413S245,717.7,413.1,717.7S717.7,581,717.7,413S581,108.3,413,108.3z
	 M382.1,525.3H280.5c-9.6,0-17.4-7.8-17.4-17.4c0-3,0.8-6,2.3-8.7l41.3-71.5c0-0.1,0.1-0.1,0.1-0.2l-5.7-3.1l14.2-8.8l0.6,16.7
	l-5.4-2.9c0,0.1-0.1,0.2-0.2,0.3l-41.3,71.5c-3.6,6.3-1.5,14.4,4.9,18.1c2,1.2,4.3,1.8,6.6,1.8h101.6c1.2,0,2.1,0.9,2.1,2.1
	S383.2,525.3,382.1,525.3z M401.6,271.8l-68,117.9c-0.5,1-1.8,1.4-2.8,0.9c-1-0.5-1.4-1.8-0.9-2.8c0-0.1,0.1-0.1,0.1-0.2l68-117.9
	c3.1-5.4,8.8-8.7,15-8.6l0,0c6.2,0,12,3.3,15.1,8.7l43.9,76.1l5.3-3.1v16.7l-14.5-8.3l5.6-3.2l-43.9-76.1c-3.6-6.3-11.7-8.5-18-4.9
	C404.4,268.2,402.7,269.8,401.6,271.8L401.6,271.8z M560.6,516.7c-3.1,5.4-8.8,8.7-15.1,8.7H432.9c-0.2,0-0.3,0-0.5-0.1v6.3
	l-14.5-8.3l14.5-8.3v6.3c0.2,0,0.3,0,0.5,0h112.6c7.3,0,13.2-5.9,13.2-13.2c0-2.3-0.6-4.6-1.8-6.6l-58.8-101.8
	c-0.6-1-0.2-2.3,0.8-2.9c1-0.6,2.3-0.2,2.9,0.8l58.7,101.7C563.7,504.6,563.7,511.3,560.6,516.7z"/>
<path class="st1" d="M413,4.4C187.7,4.4,4.4,187.7,4.4,413S187.7,821.6,413,821.6S821.6,638.3,821.6,413S638.3,4.4,413,4.4z
	 M631.5,631.5c-120.6,120.6-316.2,120.6-436.9,0s-120.6-316.2,0-436.9s316.2-120.6,436.9,0c57.9,57.9,90.5,136.5,90.5,218.4
	C722.2,495,689.6,573.7,631.5,631.5z"/>
<path d="M573.7,32.7c-210.1-88.7-452.3,9.6-541,219.7s9.6,452.3,219.7,541s452.3-9.6,541-219.7S783.7,121.4,573.7,32.7L573.7,32.7z
	 M821.6,413c0,225.3-183.3,408.6-408.6,408.6S4.4,638.3,4.4,413S187.7,4.4,413,4.4S821.6,187.7,821.6,413z"/>
<path d="M413,104.1c-170.6,0-308.8,138.3-308.8,308.9c0,170.6,138.3,308.8,308.9,308.8s308.8-138.3,308.8-308.9
	c0-81.9-32.5-160.4-90.4-218.3C573.6,136.5,495,103.9,413,104.1z M413,717.7c-168,0-304.7-136.7-304.7-304.7S245,108.4,413.1,108.4
	s304.7,136.7,304.7,304.7S581,717.7,413,717.7z"/>
<path d="M501.9,397.5c-0.6-1-1.9-1.3-2.9-0.8c-1,0.6-1.3,1.9-0.8,2.9L557,501.3c3.6,6.3,1.5,14.4-4.9,18.1c-2,1.2-4.3,1.8-6.6,1.8
	H432.9c-0.2,0-0.3,0-0.5,0v-6.3l-14.5,8.3l14.5,8.3v-6.3c0.2,0,0.3,0.1,0.5,0.1h112.6c9.6,0,17.4-7.8,17.4-17.4c0-3-0.8-6-2.3-8.7
	L501.9,397.5z"/>
<path d="M382.1,521.2H280.5c-7.3,0-13.2-5.9-13.2-13.2c0-2.3,0.6-4.6,1.8-6.6l41.3-71.5c0.1-0.1,0.1-0.2,0.2-0.3l5.4,2.9l-0.6-16.7
	l-14.2,8.8l5.7,3.1c0,0.1-0.1,0.1-0.1,0.2l-41.3,71.5c-4.8,8.3-1.9,19,6.4,23.8c2.6,1.5,5.6,2.3,8.7,2.3h101.6
	c1.2,0,2.1-0.9,2.1-2.1C384.2,522.1,383.2,521.2,382.1,521.2L382.1,521.2z"/>
<path d="M424.4,271.8l43.9,76.1l-5.6,3.2l14.5,8.3v-16.7l-5.3,3.1l-43.9-76.1c-3.1-5.4-8.9-8.7-15.1-8.6l0,0c-6.2,0-12,3.3-15.1,8.7
	l-68,117.8c-0.6,1-0.3,2.3,0.6,2.9c1,0.6,2.3,0.3,2.9-0.6c0,0,0.1-0.1,0.1-0.2l68-117.9c3.6-6.3,11.7-8.5,18-4.9
	C421.6,268.1,423.3,269.7,424.4,271.8L424.4,271.8z"/>
</svg>
