<?xml version="1.0" encoding="utf-8"?>
<!-- Generator: Adobe Illustrator 23.0.4, SVG Export Plug-In . SVG Version: 6.00 Build 0)  -->
<svg version="1.1" id="Слой_1" xmlns="http://www.w3.org/2000/svg" xmlns:xlink="http://www.w3.org/1999/xlink" x="0px" y="0px"
	 viewBox="0 0 826 826" style="enable-background:new 0 0 826 826;" xml:space="preserve">
<style type="text/css">
	.st0{fill:#F8DFDB;}
	.st1{fill:#FEF9F8;}
	.st2{fill:#F1F6F7;}
	.st3{fill:#F8CBC4;}
</style>
<path class="st0" d="M145.8,322.6c0.9,6.6-0.8,13.6-2.5,20.3c-1.9,7.6-3.8,14.8-1.9,21c1.9,6.4,7.4,11.5,13.1,16.9
	c5,4.7,10.2,9.6,12.9,15.4c2.7,5.9,3,13.1,3.3,20.1c0.3,7.9,0.6,15.3,4.2,20.8c3.5,5.5,10.3,8.9,17.3,12.5
	c6.2,3.1,12.6,6.3,16.8,11.3c4.3,4.9,6.6,11.7,8.8,18.3c2.5,7.5,4.9,14.5,9.9,18.9s12.3,5.6,20,7.1c6.8,1.3,13.9,2.6,19.4,6.1
	c2.1,1.4,4,3.1,5.7,4.9c0.5,0.5,0.9,1.1,1.4,1.6c0.5,0.5,0.9,1.1,1.4,1.7c1.7,2.2,3.3,4.5,4.9,6.8c4.5,6.5,8.8,12.6,14.8,15.4
	c6,2.8,13.3,1.9,21.1,1.1c6.9-0.7,14.1-1.5,20.4,0.4c6.2,1.8,11.7,6.3,17.1,10.5c5.9,4.7,12.1,9.7,18.7,10.6
	c6.4,0.9,13.2-1.9,20.4-4.9c3.9-1.7,7.9-3.1,12-4.3c0.6-0.2,1.2-0.3,1.8-0.4c0.6-0.1,1.2-0.2,1.9-0.3c1.4-0.2,2.8-0.3,4.2-0.3
	c6.7,0,13.4,2.8,19.8,5.4l2.5,1l1.7,0.7c0.6,0.2,1.2,0.5,1.8,0.7c5,1.9,9.8,3.1,14.4,2.5c6.6-0.9,12.8-5.9,18.7-10.6
	c5.4-4.3,10.9-8.7,17.1-10.5c6.3-1.9,13.5-1.1,20.4-0.4c7.8,0.8,15.2,1.6,21.1-1.1c5.9-2.7,10.3-8.9,14.8-15.4c4-5.6,8-11.5,13.5-15
	c2.4-1.5,5-2.6,7.7-3.4c0.6-0.2,1.2-0.4,1.8-0.5c0.6-0.2,1.2-0.3,1.8-0.5c2.6-0.6,5.4-1.2,8.1-1.7c7.8-1.4,15.1-2.8,20-7.1
	c5-4.3,7.4-11.4,9.9-18.9c2.2-6.6,4.5-13.4,8.8-18.3c4.3-4.9,10.7-8.1,16.8-11.3c7.1-3.5,13.7-6.9,17.3-12.5s3.8-12.9,4.2-20.8
	c0.3-6.9,0.6-14.1,3.3-20.1c2.7-6,7.9-10.7,12.9-15.4c5.8-5.4,11.3-10.5,13.1-16.9c1.8-6.2,0-13.4-1.9-21
	c-1.7-6.8-3.5-13.8-2.5-20.3c0.9-6.3,4.5-12.4,8-18.3c3.9-6.6,7.9-13.4,7.9-20.1c0-6.7-4-13.5-7.9-20.1c-3.5-5.9-7.1-12-8-18.3
	c-0.9-6.6,0.8-13.6,2.5-20.3c1.9-7.6,3.8-14.8,1.9-21c-1.9-6.4-7.4-11.5-13.1-16.9c-5-4.7-10.2-9.6-12.9-15.4s-3-13.1-3.3-20.1
	c-0.3-7.9-0.6-15.3-4.2-20.8c-3.5-5.5-10.2-8.9-17.3-12.5c-6.2-3.1-12.6-6.3-16.8-11.3c-4.3-4.9-6.6-11.7-8.8-18.3
	c-2.5-7.5-4.9-14.6-9.9-18.9s-12.3-5.6-20-7.1c-6.8-1.3-13.9-2.6-19.4-6.1s-9.5-9.4-13.5-15c-4.5-6.5-8.8-12.7-14.8-15.4
	c-6-2.8-13.3-1.9-21.1-1.1c-6.9,0.7-14.1,1.5-20.4-0.4c-6.2-1.8-11.7-6.3-17.1-10.5c-5.9-4.8-12.1-9.7-18.7-10.6
	c-6.4-0.9-13.2,1.9-20.4,4.9c-6.5,2.7-13.1,5.4-19.8,5.4s-13.4-2.8-19.9-5.4c-7.2-3-14.1-5.8-20.4-4.9C366.1,4.9,360,9.8,354,14.5
	c-5.4,4.3-10.9,8.7-17.1,10.5c-6.3,1.9-13.5,1.1-20.4,0.4c-7.8-0.8-15.2-1.6-21.1,1.1s-10.3,8.9-14.8,15.4c-4,5.6-8,11.5-13.5,15
	c-5.4,3.5-12.6,4.8-19.4,6.1c-7.8,1.4-15.1,2.8-20,7.1c-5,4.3-7.4,11.4-9.9,18.9c-2.2,6.6-4.5,13.4-8.8,18.3
	c-4.3,4.9-10.7,8.1-16.9,11.3c-7.1,3.5-13.7,6.9-17.3,12.5c-3.6,5.6-3.8,12.9-4.1,20.8c-0.3,6.9-0.6,14.1-3.3,20.1
	s-7.9,10.7-12.9,15.4c-5.8,5.4-11.3,10.5-13.1,16.9c-1.8,6.2,0,13.4,1.9,21c1.7,6.8,3.5,13.8,2.5,20.3c-0.9,6.3-4.5,12.4-8,18.3
	c-3.8,6.5-7.8,13.3-7.8,20.1c0,6.7,4,13.5,7.9,20.1C141.3,310.1,144.9,316.3,145.8,322.6z M251.4,122.6
	c89.7-88.8,234.3-88,323.1,1.6c88.1,89,88.1,232.4,0,321.5c-6.2,6.2-12.7,12-19.5,17.4l-1.5,1.2l-1.6,1.2
	c-27.7,21.4-60,36-94.4,42.8c-0.7,0.1-1.4,0.3-2.1,0.4c-0.7,0.1-1.4,0.3-2.1,0.4c-13.3,2.4-26.8,3.5-40.4,3.5
	c-6.4,0-12.7-0.3-19-0.8l-2-0.2l-2-0.2c-35.4-3.5-69.5-15.3-99.5-34.4c-0.5-0.3-1.1-0.7-1.6-1.1s-1.1-0.7-1.6-1.1
	c-12.9-8.5-24.8-18.3-35.7-29.2C162.2,356.5,162.2,211.8,251.4,122.6C251.4,122.6,251.5,122.6,251.4,122.6L251.4,122.6z"/>
<path class="st1" d="M288.5,471.1c0.5,0.4,1.1,0.7,1.6,1.1l1.6,1.1c29.2,18.8,62.3,30.5,96.8,34.3l2.1,0.2l2,0.2
	c6.7,0.6,13.5,0.9,20.3,0.9c14,0,28-1.3,41.8-3.9l2.1-0.4l2.1-0.4c33.4-7,64.7-21.5,91.6-42.4l1.6-1.2l1.6-1.2
	c53.1-42.6,84-107,84-175.1c0-123.9-100.8-224.7-224.7-224.7S188.3,160.2,188.3,284.2C188.3,362.1,228.1,430.8,288.5,471.1z
	 M304,388.5c11.3,0,18.9-3,22.8-8.9s5.9-16.4,5.9-31.4V189.1c0-15-1.9-25.4-5.8-31.1c-3.9-5.7-11.5-8.6-22.9-8.6v-7.4h104.1
	c25.7,0,46.2,6.2,61.6,18.7c15.4,12.5,23.1,28.4,23,47.7c0,31.2-17.5,51.9-52.4,62.3c7.7,4.9,15.2,11.6,22.5,20.2
	c7.3,8.6,16.9,22.8,28.7,42.8c13.3,22.1,23.7,36.6,31.1,43.5c0.8,0.8,1.7,1.5,2.5,2.2c0.4,0.3,0.8,0.7,1.3,1
	c6.3,4.9,12.8,7.5,19.5,8v7.4H494c-0.4-0.5-0.8-0.9-1.2-1.5s-0.8-1-1.3-1.5s-0.8-1-1.2-1.6c-9.9-12.6-21.6-29.9-35-52
	c-16.1-26.2-28.8-42.9-38-50.1c-9.2-7.2-19.3-10.8-30.4-10.8h-20.6v69.8c0,15,2.1,25.5,6.4,31.4c4.3,5.9,11.8,8.9,22.6,8.8v7.4H304
	L304,388.5z M245.8,398.9c-0.8,0.6-2,0.4-2.6-0.4c0,0,0,0,0,0c-19.8-27.8-30.3-61-30.2-95.1c0-1,0.8-1.9,1.9-1.9l0,0
	c1,0,1.9,0.8,1.9,1.9c0,2.1,0,4.2,0.1,6.3c1,29.1,10,57.3,25.9,81.6c1.1,1.7,2.3,3.4,3.5,5.1C246.9,397.2,246.7,398.3,245.8,398.9
	L245.8,398.9z M252.6,407.6c0.8-0.7,2-0.6,2.6,0.2c3.9,4.6,8.1,8.9,12.5,13c0.8,0.7,0.8,1.9,0.1,2.7c-0.4,0.4-0.9,0.6-1.4,0.6
	c-0.5,0-0.9-0.2-1.3-0.5c-4.5-4.2-8.8-8.6-12.8-13.3C251.8,409.4,251.9,408.3,252.6,407.6L252.6,407.6z"/>
<path class="st2" d="M441.3,251.8c10.6-10.7,15.9-24.8,15.9-42.4c0-17.2-5.9-31-17.6-41.7s-27.3-15.9-46.6-16h-26.6v116h31.2
	C416.1,267.8,430.7,262.5,441.3,251.8z"/>
<path class="st3" d="M561,514.4c-4.8,3.1-8.5,8.4-12.4,14.1c-4.6,6.6-9.4,13.5-16.4,16.7c-7,3.2-15.1,2.3-23.1,1.4
	c-6.6-0.7-13.3-1.4-19,0.3c-5.5,1.6-10.5,5.6-15.8,9.9c-6.3,5.1-12.9,10.3-20.5,11.4c-1,0.1-2,0.2-3,0.2c-4.4,0-8.8-1.2-13.1-2.8
	l-12.5,35.8l56.1,161.4l57.3-82.1c0.5-0.7,1.3-1,2.1-0.7l95.9,28.9l-68.6-197.5C565.5,512.1,563.1,513.1,561,514.4z M607.4,656.1
	c1-0.3,2,0.2,2.4,1.2l4.3,12.2c0.3,1-0.2,2-1.2,2.4c0,0,0,0,0,0c-0.2,0.1-0.4,0.1-0.6,0.1c-0.8,0-1.5-0.5-1.8-1.3l-4.3-12.2
	C605.9,657.5,606.4,656.5,607.4,656.1L607.4,656.1z M587.1,593.4c1-0.3,2,0.2,2.4,1.2l16.2,50c0.3,1-0.2,2-1.2,2.4c0,0,0,0,0,0
	c-0.2,0.1-0.4,0.1-0.6,0.1c-0.8,0-1.5-0.5-1.8-1.3l-16.2-50C585.6,594.8,586.1,593.7,587.1,593.4z"/>
<path class="st3" d="M431.4,563c-6.1-2.5-12.5-5.1-18.4-5.1c-1,0-2,0.1-2.9,0.2c-0.6,0.1-1.2,0.2-1.9,0.3s-1.2,0.3-1.9,0.4
	c-4,1.1-8,2.5-11.8,4.2c-7.4,3-15,6.2-22.4,5.1c-7.7-1.1-14.2-6.3-20.5-11.4c-5.3-4.3-10.3-8.3-15.8-9.9c-5.6-1.6-12.4-0.9-19-0.3
	c-8,0.8-16.2,1.7-23.1-1.4c-6.9-3.1-11.7-10-16.4-16.7c-1.1-1.6-2.2-3.2-3.3-4.7l-84.5,242l95.9-28.7c0.2-0.1,0.4-0.1,0.5-0.1
	c0.6,0,1.2,0.3,1.5,0.8l57.2,82.2l76.4-218.7l1-2.8l1-2.8l11-31.5L431.4,563z M250.3,637.1l-7.2,20.4c-0.3,0.7-1,1.2-1.8,1.2
	c-0.2,0-0.4,0-0.6-0.1c-1-0.3-1.5-1.4-1.1-2.4c0,0,0,0,0,0l7.2-20.4c0.3-1,1.4-1.5,2.4-1.1C250.1,635,250.6,636.1,250.3,637.1
	L250.3,637.1z M272.4,574.9l-17.6,49.6c-0.3,0.8-1,1.3-1.8,1.3c-1,0-1.9-0.8-1.9-1.9c0-0.2,0-0.4,0.1-0.6l17.6-49.6
	c0.3-1,1.4-1.5,2.4-1.2c1,0.3,1.5,1.4,1.2,2.4C272.4,574.8,272.4,574.9,272.4,574.9z"/>
<path d="M142.1,323.1c0.8,5.8-0.8,12.5-2.5,18.9c-2,7.8-4,15.8-1.9,23c2.2,7.4,8.3,13.1,14.2,18.6c5,4.7,9.7,9.1,12.1,14.3
	c2.4,5.2,2.7,12.1,2.9,18.7c0.3,8,0.6,16.3,4.7,22.7s11.6,10.2,18.8,13.8c6.1,3.1,11.9,6,15.7,10.3c3.8,4.3,5.9,10.6,8.1,17.1
	c2.6,7.6,5.2,15.5,11,20.5c5.8,5,13.9,6.5,21.8,7.9c6.5,1.2,13.1,2.4,18,5.6c2.4,1.6,4.5,3.6,6.3,5.8l-86.6,247.8
	c-0.3,1,0.2,2.1,1.1,2.4c0.4,0.1,0.8,0.1,1.2,0l98.1-29.4l58.5,84.1c0.4,0.5,0.9,0.8,1.5,0.8h0.3c0.7-0.1,1.3-0.6,1.5-1.2L423.1,607
	l55.7,160.5c0.2,0.7,0.8,1.1,1.5,1.2h0.3c0.6,0,1.2-0.3,1.5-0.8l58.6-84l98.1,29.6c1,0.3,2-0.3,2.3-1.3c0.1-0.4,0.1-0.8,0-1.2
	l-69.7-200.7c2.5-0.6,5-1.1,7.5-1.5c7.9-1.5,16.1-3,21.8-7.9s8.4-12.9,11-20.5c2.2-6.5,4.3-12.7,8-17c3.8-4.4,9.6-7.3,15.7-10.3
	c7.2-3.6,14.6-7.4,18.8-13.8c4.1-6.4,4.4-14.7,4.7-22.7c0.3-6.6,0.5-13.4,3-18.7c2.4-5.3,7.1-9.6,12.1-14.3
	c5.9-5.5,12-11.3,14.2-18.6c2.1-7.2,0.1-15.2-1.9-23c-1.6-6.4-3.3-13.1-2.5-18.9c0.8-5.6,4.1-11.1,7.5-17c4.1-7,8.4-14.2,8.4-22
	s-4.3-15-8.4-22c-3.4-5.9-6.7-11.4-7.5-17c-0.8-5.8,0.8-12.5,2.5-18.9c2-7.8,4-15.8,1.9-23c-2.2-7.4-8.3-13.1-14.2-18.6
	c-5-4.7-9.7-9.1-12.1-14.3c-2.4-5.2-2.7-12.1-2.9-18.7c-0.3-8-0.6-16.3-4.7-22.7c-4.1-6.4-11.6-10.2-18.8-13.8
	c-6.1-3.1-11.9-6-15.7-10.3c-3.8-4.3-5.9-10.5-8-17c-2.6-7.6-5.2-15.5-11-20.5c-5.8-5-13.9-6.5-21.8-7.9c-6.5-1.2-13.1-2.4-18-5.6
	c-4.9-3.1-8.5-8.4-12.4-14c-4.6-6.6-9.4-13.5-16.4-16.7s-15.1-2.3-23.1-1.4c-6.6,0.7-13.4,1.4-19-0.3c-5.5-1.6-10.5-5.6-15.8-9.9
	C468,6.6,461.5,1.3,453.8,0.2c-7.4-1.1-15,2.1-22.4,5.1c-6.1,2.5-12.5,5.1-18.4,5.1c-5.9,0-12.3-2.6-18.4-5.1
	c-7.4-3-15-6.2-22.4-5.1c-7.6,1.1-14.2,6.4-20.5,11.4c-5.3,4.3-10.3,8.3-15.8,9.9c-5.6,1.6-12.4,0.9-19,0.3
	c-8-0.8-16.2-1.7-23.1,1.4c-6.9,3.1-11.7,10-16.4,16.7c-3.9,5.6-7.6,10.9-12.4,14c-4.8,3.1-11.6,4.4-18,5.6
	c-7.9,1.5-16.1,3-21.8,7.9c-5.7,5-8.4,12.9-11,20.5c-2.2,6.5-4.3,12.7-8,17c-3.8,4.4-9.6,7.3-15.7,10.3c-7.2,3.6-14.6,7.4-18.8,13.8
	c-4.1,6.4-4.4,14.7-4.7,22.7c-0.3,6.6-0.5,13.4-2.9,18.7c-2.4,5.3-7.1,9.6-12.1,14.3c-5.9,5.5-12,11.3-14.2,18.6
	c-2.1,7.2-0.1,15.2,1.9,23c1.6,6.4,3.3,13.1,2.5,18.9c-0.8,5.6-4.1,11.1-7.5,17c-4.1,7-8.4,14.3-8.4,22s4.3,15,8.4,22
	C138,312,141.3,317.5,142.1,323.1z M422.1,598.4l-1,2.8L344.7,820l-57.1-82.2c-0.4-0.5-0.9-0.8-1.5-0.8c-0.2,0-0.4,0-0.5,0.1
	l-96,28.7l84.6-242.1c1.1,1.5,2.2,3.1,3.3,4.7c4.6,6.6,9.4,13.5,16.4,16.7c7,3.2,15.1,2.3,23.1,1.4c6.6-0.7,13.4-1.4,19,0.3
	c5.5,1.6,10.5,5.6,15.8,9.9c6.3,5.1,12.9,10.3,20.5,11.4c7.4,1.1,15-2.1,22.4-5.1c3.8-1.7,7.8-3.1,11.8-4.2c0.6-0.2,1.2-0.3,1.9-0.4
	c0.6-0.1,1.3-0.2,1.9-0.3c1-0.1,1.9-0.2,2.9-0.2c5.9,0,12.3,2.6,18.4,5.1l2.7,1.1l-11,31.5L422.1,598.4z M636.5,708.8l-95.9-28.9
	c-0.8-0.2-1.6,0.1-2.1,0.7l-57.3,82.1l-56.1-161.4l12.5-35.8c4.4,1.6,8.8,2.8,13.1,2.8c1,0,2-0.1,3-0.2c7.7-1.1,14.2-6.3,20.5-11.4
	c5.3-4.3,10.3-8.3,15.8-9.9c5.6-1.6,12.4-0.9,19-0.3c8,0.8,16.2,1.7,23.1-1.4c6.9-3.1,11.7-10,16.4-16.7c3.9-5.6,7.6-10.9,12.4-14.1
	c2.2-1.3,4.5-2.3,6.9-3.1L636.5,708.8z M137.8,264.1c3.5-5.9,7.1-12,8-18.3c0.9-6.6-0.8-13.6-2.5-20.3c-1.9-7.6-3.8-14.8-1.9-21
	c1.9-6.4,7.4-11.5,13.1-16.9c5-4.7,10.2-9.6,12.9-15.4s3-13.1,3.3-20.1c0.3-7.9,0.6-15.3,4.1-20.8c3.5-5.5,10.3-8.9,17.3-12.5
	c6.2-3.1,12.6-6.3,16.9-11.3c4.3-4.9,6.6-11.7,8.8-18.3c2.5-7.5,4.9-14.6,9.9-18.9c5-4.3,12.3-5.6,20-7.1c6.8-1.3,13.9-2.6,19.4-6.1
	c5.5-3.5,9.5-9.4,13.5-15c4.5-6.5,8.8-12.6,14.8-15.4s13.3-1.9,21.1-1.1c6.9,0.7,14.1,1.5,20.4-0.4c6.2-1.8,11.7-6.3,17.1-10.5
	c5.9-4.8,12.1-9.7,18.7-10.6c6.4-0.9,13.2,1.9,20.4,4.9c6.5,2.7,13.2,5.4,19.9,5.4s13.4-2.8,19.8-5.4c7.2-3,14.1-5.8,20.4-4.9
	c6.6,0.9,12.8,5.9,18.7,10.6c5.4,4.3,10.9,8.7,17.1,10.5c6.3,1.9,13.5,1.1,20.4,0.4c7.8-0.8,15.2-1.6,21.1,1.1
	c5.9,2.7,10.3,8.9,14.8,15.4c4,5.6,8,11.5,13.5,15c5.5,3.5,12.6,4.8,19.4,6.1c7.8,1.4,15.1,2.8,20,7.1c5,4.3,7.3,11.4,9.8,18.9
	c2.2,6.6,4.5,13.4,8.8,18.3c4.3,4.9,10.7,8.1,16.8,11.3c7.1,3.6,13.7,6.9,17.3,12.5c3.6,5.6,3.8,12.9,4.2,20.8
	c0.3,6.9,0.6,14.1,3.3,20.1c2.7,6,7.9,10.7,12.9,15.4c5.8,5.4,11.3,10.5,13.1,16.9c1.8,6.2,0,13.4-1.9,21
	c-1.7,6.8-3.5,13.8-2.5,20.3c0.9,6.3,4.5,12.4,8,18.3c3.9,6.6,7.9,13.3,7.9,20.1c0,6.7-4,13.5-7.9,20.1c-3.5,5.9-7.1,12-8,18.3
	c-0.9,6.6,0.8,13.6,2.5,20.3c1.9,7.6,3.8,14.8,1.9,21c-1.9,6.4-7.4,11.5-13.1,16.9c-5,4.7-10.2,9.6-12.9,15.4
	c-2.7,5.9-3,13.1-3.3,20.1c-0.3,7.9-0.6,15.3-4.2,20.8c-3.5,5.5-10.2,8.9-17.3,12.5c-6.2,3.1-12.6,6.3-16.8,11.3
	c-4.3,4.9-6.6,11.7-8.8,18.3c-2.5,7.5-4.9,14.5-9.9,18.9s-12.3,5.6-20,7.1c-2.7,0.5-5.4,1-8.1,1.7c-0.6,0.1-1.2,0.3-1.8,0.5
	c-0.6,0.2-1.2,0.3-1.8,0.5c-2.7,0.8-5.3,2-7.7,3.4c-5.5,3.5-9.5,9.4-13.5,15c-4.5,6.5-8.8,12.6-14.8,15.4c-6,2.8-13.3,2-21.1,1.1
	c-6.9-0.7-14.1-1.5-20.4,0.4c-6.2,1.8-11.7,6.3-17.1,10.5c-5.9,4.7-12.1,9.7-18.7,10.6c-4.6,0.7-9.4-0.6-14.4-2.5
	c-0.6-0.2-1.2-0.4-1.8-0.7l-1.7-0.7l-2.5-1c-6.5-2.7-13.1-5.4-19.8-5.4c-1.4,0-2.8,0.1-4.2,0.3c-0.6,0.1-1.2,0.2-1.9,0.3
	s-1.2,0.3-1.8,0.4c-4.1,1.2-8.1,2.6-12,4.3c-7.2,3-14.1,5.8-20.4,4.9c-6.6-0.9-12.8-5.9-18.7-10.6c-5.4-4.3-10.9-8.7-17.1-10.5
	c-6.3-1.9-13.5-1.1-20.4-0.4c-7.8,0.8-15.2,1.6-21.1-1.1c-5.9-2.7-10.3-8.9-14.8-15.4c-1.6-2.3-3.2-4.6-4.9-6.8
	c-0.5-0.6-0.9-1.1-1.4-1.7c-0.5-0.6-0.9-1.1-1.4-1.6c-1.7-1.9-3.6-3.5-5.7-4.9c-5.5-3.5-12.6-4.8-19.4-6.1c-7.8-1.4-15.1-2.8-20-7.1
	c-5-4.3-7.4-11.4-9.9-18.9c-2.2-6.6-4.5-13.4-8.8-18.3c-4.3-4.9-10.7-8.1-16.8-11.3c-7.1-3.5-13.7-6.9-17.3-12.5
	c-3.6-5.6-3.8-12.9-4.2-20.8c-0.3-6.9-0.6-14.1-3.3-20.1c-2.7-6-7.9-10.7-12.9-15.4c-5.8-5.4-11.3-10.5-13.1-16.9
	c-1.8-6.2,0-13.4,1.9-21c1.7-6.8,3.5-13.8,2.5-20.3c-0.9-6.3-4.5-12.4-8-18.3c-3.9-6.6-7.9-13.3-7.9-20.1S133.9,270.6,137.8,264.1z"
	/>
<path d="M287.2,474.9c0.5,0.4,1.1,0.7,1.6,1.1s1.1,0.7,1.6,1.1c30,19.1,64.1,30.9,99.5,34.4l2,0.2l2,0.2c6.3,0.5,12.6,0.8,19,0.8
	c13.5,0,27-1.2,40.4-3.5c0.7-0.1,1.4-0.3,2.1-0.4c0.7-0.1,1.4-0.3,2.1-0.4c34.4-6.7,66.7-21.4,94.4-42.8l1.6-1.2l1.5-1.2
	c6.8-5.4,13.3-11.2,19.5-17.4c89.7-88.8,90.4-233.4,1.6-323.1S342.8,32.2,253.1,121c-0.6,0.5-1.1,1.1-1.6,1.6
	c-89.2,89.2-89.2,233.9,0,323.1c0,0,0,0,0,0C262.4,456.6,274.3,466.4,287.2,474.9z M413,59.4c123.9,0,224.7,100.8,224.7,224.7
	c0,68.1-30.9,132.5-84,175.1l-1.6,1.2l-1.6,1.2c-26.9,20.9-58.2,35.4-91.6,42.4l-2.1,0.4l-2.1,0.4c-13.8,2.6-27.8,3.9-41.8,3.9
	c-6.9,0-13.6-0.3-20.3-0.9l-2-0.2l-2.1-0.2c-34.5-3.7-67.7-15.5-96.8-34.3l-1.6-1.1c-0.5-0.4-1.1-0.7-1.6-1.1
	c-60.4-40.4-100.2-109.1-100.2-187C188.3,160.2,289.1,59.4,413,59.4z"/>
<path d="M242.8,391.1c-15.9-24.3-24.9-52.6-25.9-81.6c-0.1-2.1-0.1-4.2-0.1-6.3c0-1-0.8-1.9-1.9-1.9l0,0c-1,0-1.9,0.8-1.9,1.9
	c-0.1,34.1,10.4,67.4,30.2,95.2c0.6,0.9,1.7,1.1,2.6,0.6s1.1-1.7,0.6-2.6c0-0.1-0.1-0.1-0.1-0.1
	C245.1,394.6,243.9,392.9,242.8,391.1z"/>
<path d="M265.3,423.6c0.8,0.7,1.9,0.7,2.7-0.1c0,0,0,0,0,0c0.7-0.8,0.7-1.9-0.1-2.7c0,0,0,0,0,0c-4.4-4.1-8.6-8.4-12.5-13
	c-0.6-0.9-1.8-1.1-2.6-0.5c-0.9,0.6-1.1,1.8-0.5,2.6c0.1,0.1,0.2,0.2,0.3,0.3C256.5,414.9,260.8,419.4,265.3,423.6z"/>
<path d="M395.3,388.5c-10.8,0-18.3-3-22.6-8.9c-4.3-5.9-6.4-16.4-6.4-31.4v-69.8h20.6c11.1,0,21.2,3.6,30.4,10.8
	c9.2,7.2,21.8,23.9,38,50.1c13.5,22.1,25.1,39.4,35.1,52c0.4,0.5,0.8,1.1,1.2,1.6c0.4,0.5,0.8,1,1.3,1.5s0.8,1,1.2,1.5h51.9v-7.4
	c-6.7-0.5-13.2-3.2-19.5-8c-0.4-0.3-0.8-0.6-1.3-1c-0.8-0.7-1.7-1.4-2.5-2.2c-7.5-6.9-17.8-21.4-31.1-43.5
	c-11.8-19.9-21.4-34.2-28.7-42.8c-7.3-8.6-14.8-15.3-22.5-20.2c34.9-10.4,52.4-31.2,52.4-62.3c0-19.3-7.7-35.2-23-47.7
	c-15.4-12.5-35.9-18.7-61.6-18.7H304v7.4c11.4,0,19,2.9,22.9,8.6c3.9,5.7,5.8,16.1,5.8,31.1v159.2c0,15-2,25.5-5.9,31.4
	c-4,5.9-11.6,8.9-22.8,8.8v7.4h91.3V388.5z M366.3,151.8h26.6c19.3,0,34.9,5.3,46.6,16c11.8,10.6,17.6,24.5,17.6,41.7
	c0,17.6-5.3,31.7-15.9,42.4c-10.6,10.7-25.2,16-43.8,16h-31.2L366.3,151.8z"/>
<path d="M249.1,634.7c-1-0.3-2.1,0.2-2.4,1.1c0,0,0,0,0,0l-7.2,20.4c-0.4,1,0.2,2.1,1.1,2.4c0,0,0,0,0,0c0.2,0.1,0.4,0.1,0.6,0.1
	c0.8,0,1.5-0.5,1.8-1.2l7.2-20.4C250.6,636.1,250.1,635,249.1,634.7C249.1,634.7,249.1,634.7,249.1,634.7z"/>
<path d="M271.2,572.5c-1-0.3-2,0.2-2.4,1.1l-17.6,49.6c-0.3,1,0.2,2,1.1,2.4c0.2,0.1,0.4,0.1,0.6,0.1c0.8,0,1.5-0.5,1.8-1.3
	l17.6-49.6C272.7,573.9,272.1,572.8,271.2,572.5z"/>
<path d="M610.5,670.7c0.3,0.8,1,1.3,1.8,1.3c0.2,0,0.4,0,0.6-0.1c1-0.3,1.5-1.4,1.2-2.4c0,0,0,0,0,0l-4.3-12.2
	c-0.3-1-1.3-1.6-2.3-1.3s-1.6,1.3-1.3,2.3c0,0.1,0,0.1,0.1,0.2L610.5,670.7z"/>
<path d="M602.1,645.8c0.2,0.8,1,1.3,1.8,1.3c0.2,0,0.4,0,0.6-0.1c1-0.3,1.5-1.4,1.2-2.4c0,0,0,0,0,0l-16.2-50
	c-0.4-1-1.4-1.5-2.4-1.1c-0.9,0.3-1.4,1.3-1.2,2.3L602.1,645.8z"/>
</svg>
