<?xml version="1.0" encoding="utf-8"?>
<!-- Generator: Adobe Illustrator 23.0.4, SVG Export Plug-In . SVG Version: 6.00 Build 0)  -->
<svg version="1.1" id="Web_and_Development" xmlns="http://www.w3.org/2000/svg" xmlns:xlink="http://www.w3.org/1999/xlink"
	 x="0px" y="0px" viewBox="0 0 1223.9 626.5" enable-background="new 0 0 1223.9 626.5" xml:space="preserve">
<g id="Network_Security_2_">
	<g id="Network_Security">
		<g id="Security_2_">
			<path fill="#005984" d="M626.4,0L392.2,101.1v250.8c0,0,13.8,174.6,234.2,271.6c220.3-97,234.2-271.6,234.2-271.6V101.1L626.4,0z
				"/>
			<path fill="#FFDF42" d="M626.4,63.7l-186.3,80.5v199.5c0,0,11,139,186.3,216.1c175.3-77.2,186.3-216.1,186.3-216.1V144.2
				L626.4,63.7z"/>
			<path opacity="0.1" fill="#231F20" d="M860.6,351.9V101.1L626.4,0v623.5C846.7,526.6,860.6,351.9,860.6,351.9z"/>
			<polygon fill="#09C6A2" points="625.5,368.7 772.5,243 750.4,217.2 628.6,321.4 578,264.4 552.6,287 625.1,368.7 625.3,368.9 
				625.3,368.9 625.3,368.9 			"/>
		</g>
		<g id="Clouds">
			<g>
				<path fill="#EEEEEE" d="M449.7,406.9h-7.5c1.3-5,2-10.2,2-15.6c0-34-27.6-61.6-61.6-61.6c-11.2,0-21.7,3-30.7,8.2
					c-10.6-54.8-58.9-96.2-116.8-96.2c-57.9,0-106.1,41.4-116.8,96.1c-6-1.8-12.3-2.8-18.8-2.8c-36,0-65.3,29.2-65.3,65.3
					c0,3.1,0.2,6.1,0.6,9C14.6,416.1,0,435.1,0,457.6c0,28,22.7,50.7,50.7,50.7h399c28,0,50.7-22.7,50.7-50.7
					C500.4,429.6,477.7,406.9,449.7,406.9z"/>
				<path opacity="0.1" d="M449.7,406.9h-7.5c1.3-5,2-10.2,2-15.6c0-34-27.6-61.6-61.6-61.6c-11.2,0-21.7,3-30.7,8.2
					c-10.6-54.8-58.9-96.2-116.8-96.2c-1.5,0-2.9,0-4.4,0.1v266.4h219c28,0,50.7-22.7,50.7-50.7
					C500.4,429.6,477.7,406.9,449.7,406.9z"/>
			</g>
			<g>
				<path fill="#EEEEEE" d="M1173.2,191.7h-7.5c1.3-5,2-10.2,2-15.6c0-34-27.6-61.6-61.6-61.6c-11.2,0-21.7,3-30.7,8.2
					c-10.6-54.8-58.9-96.2-116.8-96.2c-57.9,0-106.1,41.4-116.8,96.1c-6-1.8-12.3-2.8-18.8-2.8c-36,0-65.3,29.2-65.3,65.3
					c0,3.1,0.2,6.1,0.6,9c-20.3,6.6-34.9,25.7-34.9,48.2c0,28,22.7,50.7,50.7,50.7h399c28,0,50.7-22.7,50.7-50.7
					C1223.9,214.4,1201.2,191.7,1173.2,191.7z"/>
				<path opacity="0.1" d="M1173.2,191.7h-7.5c1.3-5,2-10.2,2-15.6c0-34-27.6-61.6-61.6-61.6c-11.2,0-21.7,3-30.7,8.2
					c-10.6-54.8-58.9-96.2-116.8-96.2c-1.5,0-2.9,0-4.4,0.1V293h219c28,0,50.7-22.7,50.7-50.7
					C1223.9,214.4,1201.2,191.7,1173.2,191.7z"/>
			</g>
			<g>
				<path fill="#EEEEEE" d="M1002.6,554.3h-5.4c0.9-3.5,1.4-7.3,1.4-11.1c0-24.2-19.6-43.8-43.8-43.8c-8,0-15.4,2.1-21.9,5.8
					c-7.6-39-41.9-68.5-83.1-68.5c-41.2,0-75.5,29.4-83.1,68.4c-4.2-1.3-8.7-2-13.4-2c-25.6,0-46.4,20.8-46.4,46.4
					c0,2.2,0.2,4.3,0.5,6.4c-14.4,4.7-24.8,18.3-24.8,34.3c0,19.9,16.1,36.1,36.1,36.1h284c19.9,0,36.1-16.1,36.1-36.1
					C1038.6,570.5,1022.5,554.3,1002.6,554.3z"/>
				<path opacity="0.1" d="M1002.6,554.3h-5.4c0.9-3.5,1.4-7.3,1.4-11.1c0-24.2-19.6-43.8-43.8-43.8c-8,0-15.4,2.1-21.9,5.8
					c-7.6-39-41.9-68.5-83.1-68.5c-1,0-2.1,0-3.1,0.1v189.6h155.9c19.9,0,36.1-16.1,36.1-36.1
					C1038.6,570.5,1022.5,554.3,1002.6,554.3z"/>
			</g>
		</g>
	</g>
</g>
</svg>
