<svg width="1000pt" height="1000pt" viewBox="0 0 1000 1000" xmlns="http://www.w3.org/2000/svg">
    <path fill="#d0d0d0" d="M150.54 163.05c-.33-6.69 5.82-12.83 12.5-12.51 107.98-.02 215.95.01 323.93-.01 6.42-.52 12.79 4.87 12.94 11.39.15 8.28.02 16.56.05 24.83-10.06 0-20.12-.05-30.18.02-.64-5.39-4.4-10.6-9.97-11.54-4.93-.53-9.93-.43-14.87-.11-5.98.46-10.64 5.78-11.04 11.65-30.22-.03-60.44-.08-90.67.03-.55-3.73-2.13-7.53-5.4-9.65-3.38-2.56-7.81-2.22-11.8-2.26-4.54.07-9.61-.47-13.45 2.47-3.18 2.08-4.66 5.78-5.15 9.42-30.23-.06-60.47-.07-90.7 0-.63-3.81-2.27-7.73-5.7-9.82-3.51-2.49-7.98-1.98-12.04-2.07-4.08.07-8.52-.33-12.15 1.91-3.69 1.98-5.34 6.16-6.15 10.04-10.07-.27-20.14.05-30.21-.17.13-7.87 0-15.75.06-23.62zM297.59 354.5c3.02-1.84 6.19-3.44 9.38-4.96 12.32.2 24.66-.23 36.97.2 6.86 3.15 13.57 6.92 19.01 12.23 7.67 7.44 13.01 17.22 15.25 27.66 1.78 8.01 1.19 16.27 1.3 24.41-.09 11.67.17 23.34-.15 35-.81 19.2-12.94 37.09-30.11 45.53-4.06-6.13-7.91-12.4-11.68-18.71 15.65-36.31 13.2-79.65-6.14-114.08-.13 34.46-.15 68.92 0 103.38-3.81-5.96-7.28-12.22-12.11-17.46-.13-28.72.04-57.45-.08-86.17-13.79 24.84-19.16 54.1-15.31 82.23-3.4.56-6.75 1.33-10.12 2.03-.49-.53-.97-1.04-1.46-1.55-3.54-26.8.65-54.44 11.73-79.09-12.57 6.85-20.75 20.73-20.84 35.02-.07 16.2-.17 32.41.06 48.62-4.02 1.21-7.98 2.61-11.9 4.13-.42-17.33-.12-34.67-.19-52-.34-18.73 10.34-36.95 26.39-46.42m48.83 10.67c17.28 35.99 17.9 79.37 1.84 115.91 11.89-7.34 19.13-21.19 19.2-35.06.03-15.03.05-30.06-.01-45.08-.11-14.52-8.39-28.63-21.03-35.77zM197.22 358.78c1.18.1 2.35.22 3.53.36l-.64.57c13.87 10.72 27.3 22.02 41.03 32.93 3.2 2.4 5.82 6.14 5.71 10.28.01 28.36.01 56.72 0 85.08.29 6.32-5.44 12.06-11.74 11.93-24.05.07-48.11.03-72.16.03-6.54.35-12.52-5.57-12.4-12.06-.03-28.29-.03-56.58 0-84.86-.07-4.53 3.1-8.35 6.54-10.95 13.55-10.71 26.71-21.93 40.45-32.38l-.32-.93m-28.61 44.84c.04 26.08-.06 52.16.05 78.24 4.01-.07 8.02-.03 12.02-.04-.03-26.08.04-52.15-.04-78.23-4.01.04-8.02.02-12.03.03m24.13 0c.02 26.08-.04 52.15.03 78.22 3.99-.03 7.98-.01 11.97-.02 0-26.06-.06-52.11.02-78.17-4.01-.06-8.01-.04-12.02-.03m24.06.01v78.18c4.01.02 8.03.01 12.04.01 0-26.06-.03-52.13.02-78.19-4.03-.02-8.05-.02-12.06 0zM445.66 370.09c2.13-.54 4.17-1.51 6.37-1.84 1.94.47 3.81 1.23 5.77 1.69 3.8.75 7.36 2.36 11.01 3.62-18.4 7.47-35.5 21.5-41.67 40.94-7.24.75-13.49 5.5-16.95 11.77-4.14 6.79-5.46 14.86-5.5 22.7-.12 1.77.26 3.76-.94 5.27-.31-7.43-.06-14.87-.14-22.31.13-7.98-.57-16.11 1.47-23.93 3.44-14.21 13.7-26.56 27.02-32.58 4.41-2.03 8.91-3.92 13.56-5.33zM272.28 456.65c10.56 9.03 19.17 20.88 22.88 34.39-11.59-8.02-20.4-20.39-22.88-34.39z"/>
    <path fill="#42495d" d="M186.84 176.8c3.63-2.24 8.07-1.84 12.15-1.91 4.06.09 8.53-.42 12.04 2.07 3.43 2.09 5.07 6.01 5.7 9.82.22 50.07.01 100.15.1 150.22.38 3.72-1.36 7.31-3.99 9.85-4.27 4.01-9.24 7.22-13.29 11.47l-2.07-.64c-4-3.77-8.48-6.96-12.57-10.62-2.62-2.25-4.39-5.59-4.28-9.09.04-50.38-.07-100.76.06-151.13.81-3.88 2.46-8.06 6.15-10.04zM312.58 177.36c3.84-2.94 8.91-2.4 13.45-2.47 3.99.04 8.42-.3 11.8 2.26 3.27 2.12 4.85 5.92 5.4 9.65.35 54.19.05 108.42.15 162.62-11.97.04-23.95-.09-35.93.07-.38-25.13-.05-50.28-.16-75.43.09-29.09-.2-58.2.14-87.28.49-3.64 1.97-7.34 5.15-9.42zM433.9 186.77c.4-5.87 5.06-11.19 11.04-11.65 4.94-.32 9.94-.42 14.87.11 5.57.94 9.33 6.15 9.97 11.54.19 45.43.01 90.87.08 136.3.09 3.47-.57 7.17-3.05 9.77-2.67 2.73-6.22 4.36-9.12 6.83.2 10.09.01 20.18.11 30.27-1.96-.46-3.83-1.22-5.77-1.69-2.2.33-4.24 1.3-6.37 1.84.14-10.27.07-20.54.04-30.8-4.89-3.31-11.48-6.44-11.83-13.19-.29-28.36-.04-56.73-.12-85.09.1-18.08-.21-36.17.15-54.24z"/>
    <path fill="#96dac9" d="M606.86 295.88c39.85-15.8 84.35-19.5 126.3-10.75 35.94 7.4 69.89 24.09 97.83 47.87 27.03 22.92 48.45 52.42 61.79 85.26 23.66 57.62 21.3 125.27-6.54 181.02-23.24 47.32-64 85.71-112.65 106.03-21.86 9.22-45.24 14.78-68.89 16.57-10.99.71-22.05 1.02-33.02-.14-.09-.12-.29-.36-.39-.48-1.75.24-3.49.3-5.23.17-25.95-2.54-51.39-9.81-74.86-21.16 14.5-6.95 27.84-16.45 38.8-28.25 1.28-1.37 2.69-2.62 4.18-3.74l-.35 1.44c13.02-2.17 25.65-6.47 37.46-12.33 5.34 1.89 11.07 1.48 16.63 1.6 38.13.16 76.08-14.2 104.51-39.62 6.7-5.29 12.14-11.9 17.63-18.38 23.36-28.36 36.24-65.23 35.28-101.99-.18-36.06-13.65-71.9-37.18-99.22-22.51-27.03-54.65-45.85-89.14-52.69-40.02-8.21-83.21-.02-117.24 22.67-8.49 5.29-16.13 11.78-23.44 18.57-2.19 2.25-4.44 4.45-7 6.29-10.98-12.66-26.4-20.84-42.5-24.96-2.83-.76-5.84-.89-8.57-2-1-2.23-1.59-4.63-2.61-6.85 23.54-28.77 54.64-51.27 89.2-64.93zM164.5 545c45.31-.02 90.62.05 135.93-.04 2.58 20.15 7.69 40.51 18.74 57.79 8.51 13.37 21.27 24.14 36.26 29.46-3.69 14.38-11.64 27.66-22.84 37.44-10.88 9.69-24.73 15.84-39.14 17.81-11.1 1.13-22.28.31-33.42.55-10.67-.3-21.41.63-32.03-.65-13.52-1.9-26.52-7.54-36.97-16.35a8.861 8.861 0 0 0-4.06-2.16l-.1-.18c-.83-1.61-1.79-3.16-3.02-4.48-4.34-4.68-8.08-9.93-11.01-15.6-5.22-10.04-8.14-21.29-8.31-32.61-.11-14.9.07-29.79-.09-44.68-.21-5.13-.16-10.27.02-15.39.08-3.64.02-7.28.04-10.91zM109.82 703.49c39.39 0 78.79.05 118.18-.02 21.8-.25 43.61-.15 65.41-.02 39.63.13 79.26-.01 118.89.07-7.58 6.36-15.54 12.27-23.16 18.59-4.04.56-8.11.41-12.17.39H145c-4.04.02-8.1.17-12.11-.38-7.59-6.34-15.64-12.11-23.07-18.63z"/>
    <path fill="#80cab8" d="M601.78 369.76c34.03-22.69 77.22-30.88 117.24-22.67 34.49 6.84 66.63 25.66 89.14 52.69 23.53 27.32 37 63.16 37.18 99.22.96 36.76-11.92 73.63-35.28 101.99-5.49 6.48-10.93 13.09-17.63 18.38-28.43 25.42-66.38 39.78-104.51 39.62-5.56-.12-11.29.29-16.63-1.6 15.09-7.76 28.75-18.87 37.77-33.38 10.09-16.42 18.52-34.08 22.94-52.92 2.87-11.77 3.81-23.98 3.29-36.07-1.19-17.37-4.43-35.09-13-50.45-6.75-12.28-18.19-22.02-31.77-25.8-9.42-2.46-19.94-3.85-29.07.39-8.81 3.55-16.4 9.34-24.2 14.61l-1.37.77c-7.71-7.79-15.86-15.19-25.01-21.27.25-8.96-.19-18.38-4.87-26.29-2.64-4.79-6.69-8.97-11.73-11.19-3.89-.66-7.79-1.21-11.66-1.98-2.59-7-6.41-13.52-11.27-19.19 2.56-1.84 4.81-4.04 7-6.29 7.31-6.79 14.95-13.28 23.44-18.57z"/>
    <path fill="#80cab8" d="M650.99 491.49c8.23-7.26 19.62-10.86 30.52-9.55 8 1.23 16.6 4.3 21.12 11.47 7.07 10.79 7.98 24.1 8.77 36.61-.64 24.21-5.61 48.53-16.12 70.45-7.59 15.31-21.7 26.55-37.65 32.2.23-1.41.34-2.85.83-4.2 7.4-17.26 12.45-35.65 13.99-54.41.16-9.71.66-19.53-1.12-29.13-2.73-17.31-9.11-34.04-18.67-48.72-.97-1.41-1.33-3.09-1.67-4.72zM133.93 556.8c9.67-4.08 20.53-3.06 30.53-.89-.18 5.12-.23 10.26-.02 15.39-8.48-2.17-17.84-3.68-26.15-.1-7.23 3.3-10.74 11.26-12.45 18.57-2.54 10.53.64 21.74 7.08 30.25 9.96 13.41 24.83 22.07 39.92 28.57 2.93 5.67 6.67 10.92 11.01 15.6 1.23 1.32 2.19 2.87 3.02 4.48-13.18-2.9-25.77-8.32-37.46-15.03-14.47-8.52-27.96-20.12-34.97-35.7-5.6-12.16-5.78-26.47-1.02-38.94 3.29-9.86 10.77-18.36 20.51-22.2zM228 687.36c10.62 1.28 21.36.35 32.03.65 11.14-.24 22.32.58 33.42-.55.07 5.33.12 10.66-.04 15.99-21.8-.13-43.61-.23-65.41.02-.01-5.38 0-10.75 0-16.11z"/>
    <path fill="#e3b026" d="M490.8 363.73c1.77-5.31 6.77-8.75 12.03-10.03 1.43-.04 2.86-.04 4.3 0 4.17 1.2 8.1 3.39 10.53 7.11 1.02 2.22 1.61 4.62 2.61 6.85 2.73 1.11 5.74 1.24 8.57 2 16.1 4.12 31.52 12.3 42.5 24.96a63.243 63.243 0 0 1 11.27 19.19c-47.84.46-95.7.02-143.55.23-3.97.13-8.06-.77-11.92.46 6.17-19.44 23.27-33.47 41.67-40.94 2.62-1.13 5.44-1.69 8.08-2.79 4.04-1.06 8.08-2.13 12.24-2.67 1.43-.94 1.07-2.95 1.67-4.37zM303.92 443.76c5.38-.57 11.73-.84 15.39 3.94 4.83 5.24 8.3 11.5 12.11 17.46 2.03 3.58 4.09 7.13 6.14 10.7 3.77 6.31 7.62 12.58 11.68 18.71 2.86 3.61 5.01 8.11 8.96 10.65-1.61 2.12-3.73 3.89-4.84 6.37-5.24 11.52-8.79 23.81-10.35 36.37-2.91 21.23.25 42.9 6.75 63.2 2.54 7.55 4.79 15.32 8.96 22.18-1.1-.38-2.2-.76-3.29-1.13-14.99-5.32-27.75-16.09-36.26-29.46-11.05-17.28-16.16-37.64-18.74-57.79-.09-.74-.28-2.24-.37-2.99-1.29-8.24-1.24-16.63-2.2-24.88-.54-5.31.17-10.77-1.07-15.97-.22-2.37-.08-4.8-.89-7.06-.24-1.02-.49-2.02-.74-3.02-3.71-13.51-12.32-25.36-22.88-34.39-1.09-.95-2.17-1.89-3.26-2.82.59-.22 1.78-.68 2.37-.91 3.92-1.52 7.88-2.92 11.9-4.13 3.05-.93 6.11-1.83 9.21-2.61l-.16-1.94c.49.51.97 1.02 1.46 1.55 3.37-.7 6.72-1.47 10.12-2.03zM661.45 459.16c9.13-4.24 19.65-2.85 29.07-.39 13.58 3.78 25.02 13.52 31.77 25.8 8.57 15.36 11.81 33.08 13 50.45.52 12.09-.42 24.3-3.29 36.07-4.42 18.84-12.85 36.5-22.94 52.92-9.02 14.51-22.68 25.62-37.77 33.38-11.81 5.86-24.44 10.16-37.46 12.33l.35-1.44c2.12-1.6 4.08-3.41 5.6-5.6 6.79-9.45 13.35-19.23 17.85-30.01 15.95-5.65 30.06-16.89 37.65-32.2 10.51-21.92 15.48-46.24 16.12-70.45-.79-12.51-1.7-25.82-8.77-36.61-4.52-7.17-13.12-10.24-21.12-11.47-10.9-1.31-22.29 2.29-30.52 9.55-4.06-6.3-9.41-11.62-13.74-17.72 7.8-5.27 15.39-11.06 24.2-14.61zM436.89 704.93c11.78 3.28 24.09 2.21 36.16 2.38 28.99.01 57.97-.06 86.96.04 5.4.05 10.76-.81 16.07-1.71-.13 5.49-.08 10.99-.07 16.49-16.65.68-33.34.11-50 .3h-69.95c-6.36-.04-12.73.21-19.07-.31-.01-5.73.1-11.46-.1-17.19z"/>
    <path fill="#ffcc41" d="M427.14 414.5c3.86-1.23 7.95-.33 11.92-.46 47.85-.21 95.71.23 143.55-.23 3.87.77 7.77 1.32 11.66 1.98 5.04 2.22 9.09 6.4 11.73 11.19 4.68 7.91 5.12 17.33 4.87 26.29 9.15 6.08 17.3 13.48 25.01 21.27l1.37-.77c4.33 6.1 9.68 11.42 13.74 17.72.34 1.63.7 3.31 1.67 4.72 9.56 14.68 15.94 31.41 18.67 48.72 1.78 9.6 1.28 19.42 1.12 29.13-1.54 18.76-6.59 37.15-13.99 54.41-.49 1.35-.6 2.79-.83 4.2-4.5 10.78-11.06 20.56-17.85 30.01-1.52 2.19-3.48 4-5.6 5.6-1.49 1.12-2.9 2.37-4.18 3.74-10.96 11.8-24.3 21.3-38.8 28.25-4.94 2.05-9.83 4.37-15.12 5.37-5.31.9-10.67 1.76-16.07 1.71-28.99-.1-57.97-.03-86.96-.04-12.07-.17-24.38.9-36.16-2.38-30.28-9.75-55.34-32.46-71.18-59.71-2.47-3.88-3.88-8.42-6.99-11.88-4.17-6.86-6.42-14.63-8.96-22.18-6.5-20.3-9.66-41.97-6.75-63.2 1.56-12.56 5.11-24.85 10.35-36.37 1.11-2.48 3.23-4.25 4.84-6.37.1-.38.29-1.14.39-1.52.51-.91 1.02-1.81 1.54-2.7 10.9-18.5 25.87-34.68 43.62-46.76 1.2-1.51.82-3.5.94-5.27.04-7.84 1.36-15.91 5.5-22.7 3.46-6.27 9.71-11.02 16.95-11.77z"/>
    <path fill="#d5a065" d="M128.44 722.06c1.48-.07 2.96-.05 4.45.06 4.01.55 8.07.4 12.11.38h231.97c4.06.02 8.13.17 12.17-.39 15.94-.18 31.91-.2 47.85.01 6.34.52 12.71.27 19.07.31h69.95c16.66-.19 33.35.38 50-.3 31.88-.46 63.79.29 95.67-.39 10.97 1.16 22.03.85 33.02.14 47.95.34 95.91-.08 143.87.21-.16 22.47-.02 44.94-.07 67.41-26.35.02-52.69-.03-79.03.02-15.16.07-30.31.06-45.46 0-159.67-.03-319.34-.02-479.01-.01-15.17.09-30.34.06-45.5 0-23.67-.03-47.33 0-71-.01-.05-22.48.08-44.96-.06-67.44z"/>
    <path fill="#a57742" d="M199.5 789.51c15.16.06 30.33.09 45.5 0 .01 23.18 0 46.37 0 69.55.43 2.9-1.82 5.99-4.88 5.89-11.71.11-23.43.04-35.14.04-2.85.3-5.6-2.14-5.45-5.03-.08-23.48-.01-46.97-.03-70.45zM724.01 789.52c15.15.06 30.3.07 45.46 0 .05 23.47.05 46.93 0 70.4.19 2.91-2.59 5.36-5.44 5.07-11.72 0-23.43.06-35.14-.03-3.08.1-5.34-3.02-4.89-5.94 0-23.17-.01-46.34.01-69.5z"/>
</svg>
