<?xml version="1.0" encoding="utf-8"?>
<!-- Generator: Adobe Illustrator 23.0.4, SVG Export Plug-In . SVG Version: 6.00 Build 0)  -->
<svg version="1.1" id="Слой_1" xmlns="http://www.w3.org/2000/svg" xmlns:xlink="http://www.w3.org/1999/xlink" x="0px" y="0px"
	 viewBox="0 0 826 826" style="enable-background:new 0 0 826 826;" xml:space="preserve">
<style type="text/css">
	.st0{fill:#E1F0E9;}
	.st1{fill:#F1F6F7;}
	.st2{fill:#FBECE9;}
	.st3{fill:#D5E7F2;}
	.st4{fill:#C4E1D4;}
	.st5{fill:#FBE0DC;}
	.st6{fill:#D3E8DF;}
</style>
<path class="st0" d="M785.7,365.8H361.6c1.1,35.5,9.5,70.5,24.8,102.5h410.9c15.3-32.1,23.7-67,24.8-102.5H785.7L785.7,365.8z"/>
<path class="st1" d="M386.8,690.5c-7-13.4-12.7-27.4-17.2-41.8c-3.2,13.1-6.6,25.7-10.4,37.8C368.3,688.3,377.5,689.6,386.8,690.5z"
	/>
<path class="st2" d="M245.3,751.3h83.8c10.1-19.9,18.5-40.6,25.2-61.9l0.6-1.9c0.2-0.6,0.4-1.2,0.6-1.9c4.4-14.1,8.4-28.9,12-44.4
	c0.3-1.3,0.6-2.6,0.9-3.9c0.3-1.5,0.7-2.9,1-4.4c3.8-17.5,7-35.7,9.7-54.5c0.1-0.6,0.2-1.3,0.3-1.9c0.1-0.6,0.2-1.3,0.3-1.9
	c0.2-1.5,0.4-3.1,0.6-4.6l0.5-3.6c0.2-1.3,0.3-2.6,0.5-3.9c2.5-20.6,4.3-41.9,5.4-63.6H88.1c0.5,10.2,1.2,20.2,2,30.1l0.2,2.1
	c0.1,0.7,0.1,1.4,0.2,2c0.8,9.1,1.7,18.1,2.8,27c0.1,0.7,0.2,1.3,0.2,2s0.2,1.4,0.2,2c2.4,19.7,5.5,38.8,9.1,57.1
	c0.4,1.8,0.7,3.5,1.1,5.2c0.4,1.7,0.7,3.2,1,4.9c4.3,20.4,9.7,40.5,16.1,60.4c0.2,0.7,0.5,1.4,0.7,2.1c0.2,0.7,0.5,1.4,0.7,2
	c2.8,8.3,5.7,16.2,8.8,24l0.8,1.9c0.3,0.6,0.5,1.3,0.8,1.9c4,9.8,8.3,19.1,12.8,27.8L245.3,751.3z M131.6,664.7l-0.2,0.1
	c-0.1,0-0.3,0.1-0.5,0.1c-0.9,0-1.7-0.6-1.9-1.5c-0.2-0.7-0.3-1.4-0.5-2c-0.3-1.3-0.6-2.7-1-4c-0.3-1.4-0.7-2.9-1-4.4
	c-0.2-1.1-0.5-2.2-0.7-3.3c-0.2-1,0.4-2.1,1.5-2.3c1-0.2,2.1,0.4,2.3,1.5c0.8,3.5,1.6,6.9,2.4,10.4c0.3,1.1,0.5,2.2,0.8,3.3
	c0.1,0.3,0.1,0.5,0,0.8C132.6,663.8,132.2,664.4,131.6,664.7z M137.2,693.2c-1.7-5.1-3.3-10.3-4.9-15.7c-0.3-1,0.3-2.1,1.3-2.4
	c1-0.3,2.1,0.3,2.4,1.3c5.5,19,12.2,37.6,20,55.7c0.4,1,0,2.1-1,2.5c-0.2,0.1-0.5,0.2-0.8,0.2c-0.8,0-1.5-0.5-1.8-1.2
	c-1.6-3.7-3.2-7.6-4.8-11.5l-0.7-1.8c-3.2-8.1-6.2-16.5-9.1-25.2L137.2,693.2z"/>
<path class="st3" d="M392.2,700.4c-1.1-1.9-2.2-3.9-3.3-5.9c-10.4-0.9-20.7-2.3-31-4.3c-6.6,21-14.8,41.4-24.6,61.1h93
	c1.1,0,1.9,0.9,1.9,1.9c0,0.5-0.2,0.9-0.5,1.3l-17.9,19.3v9.1c0,1.3-0.3,2.7-1,3.8c1.4,0,2.8,0,4.2,0c19,0,38-1.4,56.8-4.3
	C437.9,761.5,411.3,733.4,392.2,700.4z"/>
<path class="st4" d="M797.7,578.5H382.7c-3,21.7-6.9,42.6-11.4,62.5c4.9,17.3,11.7,34,20.2,49.9c0.4,0.7,0.7,1.3,1.1,2
	c0.4,0.7,0.7,1.3,1.1,2c19.7,35.3,47.6,65.4,81.8,86.6c0.8,0.5,1.7,1,2.5,1.5l1.7,1l0.9,0.5c2.8,1.4,5.8,2.2,8.9,2.2h204.6
	c3.5,0,6.9-0.9,9.8-2.7c70.4-41.7,115.5-120.3,118.1-205.6L797.7,578.5L797.7,578.5z M414.5,695.5c-0.1,0.1-0.3,0.3-0.4,0.4
	c-0.3,0.2-0.7,0.3-1,0.3c-0.5,0-1.1-0.2-1.4-0.7c-0.1-0.1-0.1-0.2-0.2-0.2c-0.4-0.6-0.7-1.1-1.1-1.7c-0.4-0.6-0.8-1.3-1.2-1.9
	c-1.3-2.1-2.5-4.2-3.8-6.3c-0.5-0.9-0.2-2.1,0.7-2.6c0.9-0.5,2.1-0.2,2.6,0.7c1.6,2.8,3.3,5.5,5,8.3c0.3,0.5,0.6,1,1,1.5
	c0.1,0.1,0.1,0.2,0.2,0.4C415.1,694.2,414.9,695,414.5,695.5z M444.9,734.4c-0.4,0.3-0.8,0.5-1.3,0.5c-0.5,0-1-0.2-1.4-0.6
	c-8.9-9.2-17.1-19.1-24.4-29.5c-0.6-0.8-0.5-2,0.4-2.7c0.8-0.6,2-0.5,2.7,0.4c0,0,0,0.1,0.1,0.1c7.2,10.3,15.3,20,24,29.1
	C445.7,732.4,445.7,733.7,444.9,734.4z"/>
<path class="st1" d="M53.9,568.6c-8.1,5.6-13.1,14.4-14.5,25.3c-2.3,18.5,5.6,40.4,21.2,58.4c13.1,15.1,30.7,32,56,38.3
	c-7-22.2-12.8-44.7-17.3-67.5c-12.7-18.9-23.7-39-32.7-59.9C62,564.2,57.7,566.1,53.9,568.6z"/>
<path class="st5" d="M331.4,755.2H52.6L68,771.8c0.3,0.4,0.5,0.8,0.5,1.3v9.8c0,2.1,1.7,3.8,3.8,3.8h329.7c2.1,0,3.8-1.7,3.8-3.8
	v-9.8c0-0.5,0.2-1,0.5-1.3l15.4-16.6H331.4z M382.1,775H92.3c-1.1,0-1.9-0.9-1.9-1.9c0-1.1,0.9-1.9,1.9-1.9h289.8
	c1.1,0,1.9,0.9,1.9,1.9C384,774.2,383.2,775,382.1,775L382.1,775z"/>
<path class="st3" d="M86.1,527.9c-0.8-10.2-1.5-20.4-2-30.9c0-0.5,0.2-1,0.5-1.4c0.4-0.4,0.9-0.6,1.4-0.6h56.4
	c-45.2-149.4,39.3-307.2,188.7-352.4c26.5-8,54.1-12.1,81.8-12.1c136.3,0.1,253.2,97.4,277.9,231.5h92.3
	C758.3,180,601.8,39.3,413,39.3C206.9,39.3,39.3,207,39.3,413c0,38.3,5.9,76.4,17.4,112.9C66.6,524.8,76.5,525.4,86.1,527.9z"/>
<path class="st5" d="M57.8,654.9c-16.3-18.9-24.6-41.9-22.1-61.4c1.5-12.1,7.1-21.8,16.1-28c4-2.8,8.5-4.7,13.2-5.9
	c0.6-0.2,1.3-0.3,1.9-0.4c0.7-0.1,1.4-0.2,2-0.4c2.8-0.4,5.7-0.7,8.5-0.7c3.9,0,7.9,0.4,11.8,1.1c-1.1-9-2-18.1-2.8-27.4
	c-9.3-2.5-19-3.3-28.5-2.3c-0.7,0.1-1.3,0.2-2,0.3s-1.3,0.2-1.9,0.3c-9.5,1.6-18.4,5.5-26,11.4c-15.7,12.1-24.2,31.5-24.1,54.6
	c0.1,23.3,9,47.6,25.1,68.4c23.4,30.3,64.3,52.3,98,54.8c-3.1-7.9-6.1-16.1-8.9-24.5C90.6,689,71.7,671,57.8,654.9z"/>
<path class="st1" d="M359.6,362H687c-24-129.4-137.8-227.7-274-227.7c-153.7,0-278.7,125-278.7,278.7c0,27.8,4.1,55.4,12.3,82h212.8
	c-1-8.2-1.5-16.4-1.7-24.8c0-0.5,0.2-1,0.5-1.4c0.4-0.4,0.9-0.6,1.4-0.6h22.5c-15.3-32.7-23.6-68.3-24.4-104.4c0-0.5,0.2-1,0.5-1.4
	C358.6,362.2,359.1,362,359.6,362z M165.8,347.2c-1.6,5.5-2.3,8.8-3.3,13.9l-0.5,2.6c-0.2,0.9-1,1.6-1.9,1.5c-0.1,0-0.3,0-0.4,0
	c-1-0.2-1.7-1.2-1.5-2.3c0,0,0,0,0,0l0.5-2.6c1-5.2,1.7-8.6,3.4-14.2c0.3-1,1.4-1.6,2.4-1.3C165.5,345.2,166.1,346.2,165.8,347.2z
	 M215.7,253.6c-2.4,2.8-4.6,5.6-6.9,8.5c-15.4,19.7-27.7,41.7-36.4,65.2c-1.3,3.4-2.5,6.8-3.6,10.2c-0.3,0.8-1,1.3-1.8,1.3
	c-0.2,0-0.4,0-0.6-0.1c-1-0.3-1.6-1.4-1.2-2.4c0,0,0,0,0,0c10.1-31.3,26.2-60.2,47.5-85.2c0.7-0.8,1.9-0.9,2.7-0.2
	C216.3,251.5,216.4,252.7,215.7,253.6L215.7,253.6L215.7,253.6z"/>
<path class="st3" d="M77.5,562c-2.3,0-4.7,0.2-7,0.5c7.6,17.4,16.6,34.2,26.8,50.2c-3-16-5.5-32.5-7.6-49.5
	C85.7,562.5,81.6,562.1,77.5,562z"/>
<path d="M212.8,251.1c-21.3,25-37.5,53.9-47.5,85.2c-0.3,1,0.2,2.1,1.2,2.4c0,0,0,0,0,0c0.2,0.1,0.4,0.1,0.6,0.1
	c0.8,0,1.6-0.5,1.8-1.3c1.1-3.4,2.3-6.9,3.6-10.2c8.7-23.5,21-45.4,36.4-65.2c2.2-2.9,4.5-5.7,6.9-8.5c0.7-0.8,0.6-2-0.2-2.7
	C214.7,250.1,213.5,250.2,212.8,251.1L212.8,251.1L212.8,251.1z"/>
<path d="M164.5,344.9c-1-0.3-2.1,0.3-2.4,1.3c-1.6,5.6-2.3,9-3.4,14.2l-0.5,2.6c-0.2,1,0.5,2,1.5,2.3c0,0,0,0,0,0c0.1,0,0.3,0,0.4,0
	c0.9,0,1.7-0.6,1.9-1.5l0.5-2.6c1-5.1,1.7-8.4,3.3-13.9C166.1,346.2,165.5,345.1,164.5,344.9z"/>
<path d="M825.4,362.5c-0.4-0.4-0.9-0.6-1.4-0.6h-36.9C761.7,174.8,601.9,35.3,413,35.4C204.3,35.6,35.3,204.9,35.4,413.6
	c0,38.3,5.9,76.4,17.4,113c-9.9,1.8-19.2,5.9-27.2,12C9,551.5-0.1,572,0,596.3c0.1,24.2,9.3,49.3,25.9,70.7
	c24.4,31.5,67.5,54.4,102.5,56.3c4,9.8,8.2,19.1,12.6,27.9h-93c-1.1,0-1.9,0.9-1.9,1.9c0,0.5,0.2,0.9,0.5,1.3l17.9,19.3v9.1
	c0,4.2,3.4,7.7,7.7,7.7h329.9c0.4,0,0.9,0,1.3-0.1c3.2,0.1,6.4,0.1,9.6,0.1c20.7,0,41.4-1.7,61.8-5c1,0.6,2,1.2,3,1.8
	c3.6,2.1,7.6,3.2,11.8,3.2h204.6c4.1,0,8.2-1.1,11.8-3.2c35-20.7,64.5-50.8,85.6-87c21.7-37.7,33.6-80.3,34.5-123.8
	c0-1.1-0.9-1.9-1.9-1.9h-22.5c15.3-32.7,23.6-68.3,24.4-104.4c0-1.1-0.8-1.9-1.9-2c0,0,0,0,0,0h-22.5
	c15.3-32.7,23.6-68.3,24.4-104.4C826,363.4,825.8,362.9,825.4,362.5z M39.3,413C39.3,207,206.9,39.3,413,39.3
	C601.8,39.3,758.3,180,783.2,362h-92.3C662.6,208.5,515.2,107,361.8,135.3C227.8,160,130.6,276.8,130.5,413c0,27.8,4,55.4,12,82
	H86.1c-0.5,0-1,0.2-1.4,0.6c-0.4,0.4-0.6,0.9-0.5,1.4c0.5,10.4,1.1,20.7,2,30.9c-9.6-2.5-19.6-3.1-29.4-1.9
	C45.1,489.4,39.2,451.3,39.3,413z M382.1,468.3h-22.5c-0.5,0-1,0.2-1.4,0.6c-0.4,0.4-0.6,0.9-0.5,1.4c0.2,8.3,0.8,16.6,1.7,24.8
	H146.6c-8.2-26.6-12.3-54.2-12.3-82c0-153.7,125-278.7,278.7-278.7c136.2,0,250,98.3,274,227.7H359.6c-0.5,0-1,0.2-1.4,0.6
	c-0.4,0.4-0.6,0.9-0.5,1.4C358.5,400,366.8,435.6,382.1,468.3L382.1,468.3z M28.9,664.7c-16.1-20.8-25-45.1-25.1-68.4
	c-0.1-23.1,8.5-42.6,24.1-54.6c7.6-5.9,16.6-9.8,26-11.4c0.6-0.1,1.3-0.2,1.9-0.3c0.6-0.1,1.3-0.2,2-0.3c9.6-1,19.3-0.3,28.5,2.3
	c0.8,9.2,1.7,18.4,2.8,27.4c-3.9-0.7-7.8-1-11.8-1.1c-2.9,0-5.7,0.2-8.5,0.7c-0.7,0.1-1.4,0.2-2,0.4c-0.7,0.1-1.3,0.3-1.9,0.4
	c-4.7,1.1-9.2,3.1-13.2,5.8c-9,6.2-14.5,15.9-16.1,28c-2.5,19.5,5.7,42.5,22.1,61.4c13.9,16.1,32.8,34.1,60.2,40
	c2.8,8.5,5.8,16.7,8.9,24.5C93.2,717,52.3,695,28.9,664.7L28.9,664.7z M70.5,562.5c2.3-0.3,4.6-0.5,7-0.5c4.1,0,8.2,0.4,12.2,1.2
	c2.1,17,4.6,33.5,7.6,49.5C87.1,596.7,78.1,579.9,70.5,562.5z M99.2,623.2c4.5,22.8,10.3,45.3,17.3,67.5
	c-25.2-6.2-42.8-23.1-55.9-38.2c-15.6-18-23.6-39.9-21.2-58.4c1.4-11,6.4-19.8,14.5-25.3c3.8-2.6,8.1-4.4,12.6-5.4
	C75.6,584.2,86.6,604.2,99.2,623.2L99.2,623.2z M132.6,723.5c-0.3-0.6-0.5-1.3-0.8-1.9l-0.8-1.9c-3.1-7.7-6-15.7-8.8-24
	c-0.2-0.7-0.5-1.4-0.7-2c-0.2-0.7-0.5-1.4-0.7-2.1c-6.4-19.8-11.8-40-16.1-60.4c-0.3-1.6-0.7-3.2-1-4.9c-0.4-1.7-0.7-3.5-1.1-5.2
	c-3.6-18.3-6.7-37.4-9.1-57.1c-0.1-0.7-0.2-1.4-0.2-2c-0.1-0.7-0.2-1.3-0.2-2c-1.1-8.9-2-17.9-2.8-27c-0.1-0.7-0.1-1.4-0.2-2l-0.1-2
	c-0.8-9.9-1.5-20-2-30.1h298.2c-1.1,21.8-2.9,43-5.4,63.6c-0.2,1.3-0.3,2.6-0.5,3.9L380,570c-0.2,1.5-0.4,3.1-0.6,4.6
	c-0.1,0.6-0.2,1.3-0.3,1.9c-0.1,0.6-0.2,1.3-0.3,1.9c-2.7,18.8-5.9,37.1-9.7,54.5c-0.3,1.5-0.6,2.9-1,4.4c-0.3,1.3-0.6,2.6-0.9,3.9
	c-3.6,15.5-7.6,30.3-12,44.4c-0.2,0.6-0.4,1.2-0.6,1.9l-0.6,1.9c-6.7,21.3-15.1,42-25.2,61.9H145.4
	C140.9,742.6,136.6,733.3,132.6,723.5L132.6,723.5z M369.5,648.7c4.5,14.4,10.3,28.4,17.2,41.8c-9.3-0.9-18.5-2.2-27.6-4
	C362.9,674.4,366.4,661.8,369.5,648.7L369.5,648.7z M405.9,773v9.8c0,2.1-1.7,3.8-3.8,3.8H72.3c-2.1,0-3.8-1.7-3.8-3.8v-9.8
	c0-0.5-0.2-1-0.5-1.3l-15.4-16.6h369.3l-15.4,16.6C406.1,772.1,405.9,772.6,405.9,773L405.9,773z M413,786.7c-1.4,0-2.8,0-4.2,0
	c0.7-1.2,1-2.5,1-3.8v-9.1l17.9-19.3c0.7-0.8,0.7-2-0.1-2.7c-0.4-0.3-0.8-0.5-1.3-0.5h-93c9.8-19.7,18-40.1,24.6-61.1
	c10.2,2,20.6,3.4,31,4.3c1.1,2,2.2,3.9,3.3,5.9c19.1,33.1,45.7,61.2,77.6,82C451,785.3,432,786.7,413,786.7z M822.1,578.5
	C819.5,663.8,774.3,742.3,704,784c-3,1.8-6.4,2.7-9.8,2.7H489.5c-3.1,0-6.2-0.7-8.9-2.2l-0.9-0.5l-1.7-1c-0.8-0.5-1.7-1-2.5-1.5
	c-34.2-21.3-62.1-51.3-81.8-86.6c-0.4-0.7-0.7-1.3-1.1-2s-0.7-1.3-1.1-2c-8.5-15.9-15.2-32.6-20.2-49.9c4.5-19.9,8.3-40.8,11.4-62.5
	L822.1,578.5L822.1,578.5z M822.1,472.1c-1.1,35.5-9.5,70.4-24.8,102.5H383.5c0.7-2.6,5.6-52.8,6.7-77.6c0-0.5-0.2-1-0.5-1.4
	c-0.4-0.4-0.9-0.6-1.4-0.6h-25c-0.9-7.6-1.5-15.2-1.7-22.9L822.1,472.1L822.1,472.1z M797.3,468.3H386.4
	c-15.3-32.1-23.7-67-24.8-102.5h460.5C821.1,401.3,812.6,436.2,797.3,468.3L797.3,468.3z"/>
<path class="st6" d="M799.4,472.1H361.6c0.2,7.7,0.8,15.3,1.7,22.9h25c0.5,0,1,0.2,1.4,0.6c0.4,0.4,0.6,0.9,0.5,1.4
	c-1.2,24.8-6,75.1-6.7,77.6H797c15.5-32,24-67,25.1-102.5L799.4,472.1L799.4,472.1z"/>
<path d="M420.9,702.6c-0.6-0.9-1.8-1.1-2.7-0.6s-1.1,1.8-0.6,2.7c0,0,0,0.1,0.1,0.1c7.4,10.5,15.5,20.3,24.4,29.5
	c0.4,0.4,0.9,0.6,1.4,0.6c1.1,0,1.9-0.9,1.9-1.9c0-0.5-0.2-1-0.5-1.3C436.2,722.6,428.2,712.9,420.9,702.6z"/>
<path d="M414.7,693.2c-0.3-0.5-0.6-1-1-1.5c-1.7-2.7-3.4-5.5-5-8.3c-0.5-0.9-1.7-1.2-2.6-0.7s-1.2,1.7-0.7,2.6
	c1.2,2.1,2.5,4.2,3.8,6.3c0.4,0.6,0.8,1.3,1.2,1.9c0.4,0.6,0.7,1.1,1.1,1.7c0.1,0.1,0.1,0.2,0.2,0.2c0.4,0.4,0.9,0.6,1.4,0.7
	c0.4,0,0.7-0.1,1-0.3c0.1-0.1,0.3-0.2,0.4-0.4c0.5-0.5,0.6-1.3,0.4-1.9C414.8,693.5,414.7,693.3,414.7,693.2z"/>
<path d="M147.7,722.1c1.6,3.9,3.2,7.8,4.8,11.5c0.3,0.7,1,1.2,1.8,1.2c0.3,0,0.5-0.1,0.8-0.2c1-0.4,1.4-1.6,1-2.5
	c-7.8-18.1-14.4-36.7-19.9-55.7c-0.3-1-1.4-1.6-2.4-1.3c-1,0.3-1.6,1.4-1.3,2.4c1.6,5.3,3.2,10.6,4.9,15.7l0.6,1.9
	c2.9,8.7,5.9,17.2,9.1,25.2L147.7,722.1z"/>
<path d="M132.8,663.2c0.1-0.3,0.1-0.5,0-0.8c-0.3-1.1-0.5-2.2-0.8-3.3c-0.8-3.4-1.6-6.9-2.4-10.4c-0.2-1-1.3-1.7-2.3-1.5
	c-1,0.2-1.7,1.3-1.5,2.3c0.2,1.1,0.5,2.2,0.7,3.3c0.3,1.5,0.7,2.9,1,4.4c0.3,1.5,0.6,2.7,1,4c0.2,0.7,0.3,1.4,0.5,2
	c0.2,0.9,1,1.5,1.9,1.5c0.2,0,0.3,0,0.5-0.1l0.2-0.1C132.2,664.4,132.7,663.8,132.8,663.2z"/>
<path d="M382.1,771.2H92.3c-1.1,0-1.9,0.9-1.9,1.9c0,1.1,0.9,1.9,1.9,1.9h289.8c1.1,0,1.9-0.9,1.9-1.9
	C384,772.1,383.2,771.2,382.1,771.2z"/>
</svg>
