<?xml version="1.0" encoding="utf-8"?>
<!-- Generator: Adobe Illustrator 23.0.4, SVG Export Plug-In . SVG Version: 6.00 Build 0)  -->
<svg version="1.1" id="Слой_1" xmlns="http://www.w3.org/2000/svg" xmlns:xlink="http://www.w3.org/1999/xlink" x="0px" y="0px"
	 viewBox="0 0 826 826" style="enable-background:new 0 0 826 826;" xml:space="preserve">
<style type="text/css">
	.st0{fill:#E0E2F1;}
	.st1{fill:#F5F5FA;}
	.st2{fill:#FBE0DC;}
	.st3{fill:#FBECE9;}
</style>
<path class="st0" d="M462.4,108.8c0-15.4-12.5-27.8-27.8-27.8c-15.4,0-27.8,12.5-27.8,27.8c0,15.4,12.5,27.8,27.8,27.8c0,0,0,0,0,0
	C449.9,136.6,462.3,124.1,462.4,108.8z"/>
<path class="st1" d="M285.3,217.9c1.6,0.7,3.3,1.3,4.9,2l2.2,0.9h0.1c29,10.9,63.1,16.6,109.8,18.2l0,0l5.8,0.2h0.4
	c1.8,0.1,3.7,0.1,5.5,0.1h0.8c1.7,0,3.5,0.1,5.3,0.1h1.2h5.2h1.4c2.2,0,4.4,0,6.7,0c2.3,0,4.5,0,6.7,0h1.4h5.2h1.2l5.2-0.1h0.9
	l5.4-0.1h0.5c1.9,0,3.8-0.1,5.7-0.2h0.1c44.5-1.6,77.5-6.9,105.7-17l0,0c1-0.4,2-0.7,3-1.1l0.9-0.3l1.2-0.5c1.8-0.7,3.6-1.4,5.4-2.2
	l1.5-0.6l2.7-1.2c-45-53.6-89.5-75.6-152.8-75.6s-108,22-153,75.8c0.8,0.4,1.7,0.7,2.5,1.1L285.3,217.9z"/>
<path class="st0" d="M194.4,452.7c-0.4-4.4-0.8-8.6-1.1-12.7c0,0,0-0.1,0-0.1c-0.1-1.1-0.2-2.2-0.2-3.3c0-0.2,0-0.5,0-0.7
	c-0.2-2.8-0.3-5.5-0.4-8.1c0-0.7-0.1-1.5-0.1-2.2c0-0.5,0-1.1,0-1.6c0-0.8,0-1.6,0-2.5v-1.3c0-1.2,0-2.4,0-3.6c0-1.9,0-3.8,0.1-5.7
	c0-0.3,0-0.6,0-0.8c0.1-1.8,0.2-3.7,0.3-5.5c0-0.3,0-0.7,0.1-1c0.1-1.8,0.3-3.7,0.4-5.5l0.1-0.9c0.2-1.9,0.4-3.8,0.6-5.7
	c0-0.2,0.1-0.4,0.1-0.6c0.2-1.9,0.5-3.7,0.8-5.6l0.1-0.6c0.3-1.9,0.6-3.7,1-5.6c0.1-0.4,0.1-0.7,0.2-1.1c0.3-1.8,0.7-3.5,1.1-5.3
	c0.1-0.5,0.2-1,0.3-1.5c0.4-1.7,0.7-3.3,1.1-5l0.4-1.8c0.4-1.6,0.8-3.1,1.2-4.7c0.2-0.7,0.4-1.5,0.6-2.2c0.4-1.5,0.8-2.9,1.2-4.4
	c0.2-0.8,0.5-1.7,0.7-2.5c0.4-1.3,0.8-2.7,1.2-4c0.3-1.1,0.7-2.2,1.1-3.3c0.4-1.1,0.7-2.2,1.1-3.2c0.6-1.7,1.2-3.4,1.8-5.1
	c0.2-0.4,0.3-0.9,0.5-1.3c0.7-1.9,1.5-4,2.3-6c0-0.1,0.1-0.2,0.1-0.3c2.2-5.6,4.6-11.2,7.1-16.9c-70.1-29.2-113.6-66.3-137.7-92.4
	c-18.1-19.5-28.2-35.7-33-44.3L45.9,205c0,0.5-0.3,1-0.6,1.4c-0.4,0.3-0.9,0.5-1.4,0.5l-27-1.5C47.4,235,59.9,301.5,74.4,378
	c4.6,24.2,9.3,49.5,15,74.8L194.4,452.7z"/>
<path class="st0" d="M268.6,230.7c0.2,0.1,0.3,0.2,0.5,0.3c0.2,0.1,0.3,0.2,0.5,0.3l0,0c30.5,15.4,65.4,23.5,117.3,26.2l6.3,0.3
	c4.3,0.2,8.6,0.3,13.1,0.5c9,0.3,18.4,0.4,28.4,0.4h7.4c4.8,0,9.6-0.1,14.1-0.2c66.6-1.4,107.9-9.4,143.4-27.5
	c0.3-0.2,0.6-0.4,0.9-0.6l0.1-0.1c0.3-0.2,0.6-0.5,0.9-0.7c2.5-2.6,2.7-6.7,0.4-9.5l-0.2-0.2c-2.1-2.5-5.6-3.3-8.6-1.9l-1.5,0.7
	h-0.1c-1.1,0.5-2.2,1-3.4,1.5l-0.6,0.2l-2.9,1.2l-1.1,0.4c-0.8,0.3-1.6,0.7-2.5,1c-0.5,0.2-1.1,0.4-1.6,0.6l-1.9,0.7l-2.2,0.8
	l-1.4,0.5l-2.9,1l-0.8,0.3c-1.2,0.4-2.4,0.8-3.5,1.2l-0.3,0.1c-32.1,10.2-70.6,14.7-124.2,15.1h-0.5c-2.2,0-4.5,0-6.8,0
	s-4.6,0-6.8,0h-0.5c-53.8-0.4-92.4-4.9-124.5-15h-0.1c-1.2-0.4-2.5-0.8-3.7-1.2l-0.7-0.2l-3-1l-1.3-0.5c-0.8-0.3-1.6-0.6-2.4-0.9
	l-1.8-0.7l-1.8-0.7l-2.3-1l-1.2-0.5l-2.8-1.2l-0.7-0.3c-1.1-0.5-2.1-0.9-3.2-1.4l-0.2-0.1c-0.5-0.2-1-0.5-1.5-0.7
	c-1-0.4-2-0.7-3-0.7c-2.1,0-4.1,0.9-5.5,2.6l-0.3,0.3c-2.5,3-2.1,7.5,0.9,10C268.2,230.4,268.4,230.5,268.6,230.7L268.6,230.7z"/>
<path class="st2" d="M342.6,489.7c-0.8,9.2-1.7,18.4-2.8,27.4c3.9-0.7,7.8-1,11.8-1.1c10.1,0,18.8,2.5,25.8,7.3
	c9,6.2,14.6,15.9,16.1,28.1c2.5,19.6-5.8,42.6-22.2,61.6c-13.9,16.1-32.9,34.2-60.4,40.1c-2.8,8.4-5.8,16.6-8.9,24.6
	c33.7-2.5,74.7-24.6,98.2-54.9c16.1-20.9,25-45.2,25.1-68.6c0.1-23.2-8.5-42.6-24.2-54.8l0,0C385.4,487.3,364.4,484,342.6,489.7z"/>
<path class="st3" d="M273.3,709.6h10.2c4.5-8.7,8.7-18,12.8-27.8c0.3-0.6,0.5-1.3,0.8-1.9c0.3-0.7,0.5-1.3,0.8-1.9
	c3.1-7.7,6-15.7,8.8-23.9c0.2-0.7,0.5-1.4,0.7-2.1c0.2-0.7,0.5-1.4,0.7-2.1c12.3-37.7,21.6-81,27.3-127.8c0.1-0.7,0.2-1.4,0.3-2.1
	c0.1-0.7,0.2-1.4,0.2-2c1-8.9,2-17.9,2.8-27l0.2-2.1l0.2-2.1c0.8-9.9,1.5-20,1.9-30.1H42c5,100.8,25.7,191.2,57.5,253L273.3,709.6z
	 M296.1,620.5c1.1-4.5,2.1-9.1,3.2-13.7c0.2-1.1,1.3-1.7,2.3-1.5c1.1,0.2,1.7,1.3,1.5,2.3c-1,4.7-2.1,9.3-3.2,13.8
	c-0.2,0.9-1,1.5-1.9,1.5c-0.2,0-0.3,0-0.5-0.1C296.5,622.6,295.9,621.6,296.1,620.5z M272.8,690.4c7.8-18.2,14.5-36.8,20.1-55.8
	c0.3-1,1.4-1.6,2.4-1.3c1,0.3,1.6,1.4,1.3,2.4c0,0,0,0,0,0c-1.6,5.3-3.2,10.6-4.9,15.7c-0.2,0.7-0.4,1.3-0.7,1.9
	c-2.9,8.8-5.9,17.2-9.1,25.3c-0.2,0.6-0.5,1.2-0.7,1.9c-1.6,3.9-3.2,7.8-4.8,11.5c-0.3,0.7-1,1.2-1.8,1.2c-0.3,0-0.5-0.1-0.8-0.2
	C272.8,692.5,272.4,691.4,272.8,690.4C272.8,690.4,272.8,690.4,272.8,690.4z"/>
<path class="st0" d="M755.8,223.8c-34.1-2.5-77,18.1-117.9,56.6c3.2,5.6,6.1,11.2,8.9,16.7c0.7,1.4,1.4,2.8,2.1,4.2
	c0.4,0.8,0.8,1.6,1.1,2.4c1,1.9,1.9,4,2.8,6l0.8,1.8c0.3,0.7,0.7,1.4,1,2.2c0.6,1.3,1.2,2.7,1.8,4c0.2,0.4,0.3,0.7,0.5,1.1
	c0.7,1.6,1.3,3.2,1.9,4.8c37-34.8,75.2-51.6,100-44c5.6,1.6,10.6,5,14.2,9.6c10.2,13.1,12.2,40.2,5.4,74.4
	c-8.9,44.4-31.6,94.3-62.3,137c-22.1,30.7-45,56.5-64.4,72.6c-0.7,2.5-1.5,5.1-2.2,7.6c-0.2,0.6-0.4,1.2-0.5,1.8l-0.5,1.8
	c-0.5,1.7-1,3.4-1.6,5.1l-0.3,1c-0.8,2.5-1.6,5-2.4,7.4l-0.7,2.1c-0.6,1.9-1.3,3.9-1.9,5.8c-0.2,0.6-0.4,1.2-0.6,1.8
	c-0.8,2.5-1.7,5-2.6,7.5l0,0c-0.9,2.5-1.7,4.9-2.6,7.3l-0.5,1.4c-0.8,2.3-1.6,4.5-2.5,6.7l-0.2,0.6c-0.9,2.4-1.8,4.8-2.7,7.1
	l-0.2,0.5C668.5,621,708.6,585,743.2,537c75.1-104.2,101.2-233.8,58.1-288.9C789.9,233.4,774.5,225.2,755.8,223.8z"/>
<path class="st1" d="M634.1,616c1.9-5.4,3.7-10.8,5.5-16.4c0.2-0.6,0.4-1.2,0.6-1.8c0.8-2.4,1.6-4.9,2.3-7.3
	c0.1-0.3,0.2-0.6,0.3-0.9c0.6-2.1,1.3-4.3,1.9-6.4l0.5-1.8c0.2-0.5,0.3-1,0.5-1.6c0.8-2.8,1.7-5.6,2.5-8.4
	c16.8-58.2,26.7-115.4,26.7-154.9c0-31-7.6-61.3-18.6-88.8c-2.3-5.8-4.8-11.6-7.4-17.2c-0.2-0.4-0.3-0.7-0.5-1
	c-0.6-1.3-1.2-2.6-1.9-3.9c-0.5-1-1-1.9-1.4-2.9c-0.3-0.6-0.6-1.1-0.9-1.7c-11.9-23.7-25.9-46.2-41.9-67.3l0,0
	c-0.4,0.3-0.8,0.5-1.2,0.7l0,0l-0.9,0.4c-1,0.5-1.9,1-2.9,1.4l-1.4,0.6l-2.4,1.1c-0.4,0.2-0.9,0.4-1.4,0.6c-0.8,0.4-1.7,0.8-2.5,1.1
	c-4.5,2-9.2,3.8-14.1,5.5c-2.8,1-5.6,1.9-8.4,2.8c-14.5,4.4-29.3,7.6-44.3,9.5h-0.2c-6.3,0.9-12.9,1.6-19.7,2.2
	c-14.2,1.3-29.7,2.1-46.8,2.5c-7,0.1-14.2,0.2-21.7,0.2c-3.8,0-7.5,0-11.1-0.1H420h-2.3c-1.6,0-3.2,0-4.8-0.1c-1.3,0-2.6-0.1-4-0.1
	l-2.9-0.1l-3.6-0.1l-3.1-0.1l-3-0.1l-3.6-0.1l-2.6-0.1l-3.8-0.2l-2.6-0.1l-3.6-0.2l-2.8-0.2l-3.3-0.2l-2.5-0.2l-3.4-0.3l-2.3-0.2
	l-3.4-0.3l-2.3-0.2l-3.3-0.3l-2.2-0.3l-3.3-0.4l-2.1-0.3l-3.2-0.4l-1.9-0.3c-1.1-0.2-2.2-0.3-3.2-0.5l-1.9-0.3l-3.1-0.5l-1.9-0.4
	l-2.9-0.5l-1.9-0.4c-1-0.2-1.9-0.4-2.9-0.6c-0.6-0.1-1.2-0.3-1.8-0.4c-1-0.2-1.9-0.4-2.9-0.6l-1.8-0.4l-2.9-0.7l-1.6-0.4
	c-1-0.2-1.9-0.5-2.9-0.7l-1.6-0.4l-2.8-0.7l-1.6-0.4c-0.9-0.3-1.9-0.5-2.8-0.8c-0.5-0.1-1-0.3-1.5-0.4l-2.8-0.9l-1.3-0.4l-2.8-0.9
	l-1.3-0.4l-2.8-1l-1.3-0.5c-0.9-0.3-1.9-0.7-2.8-1l-1.2-0.5c-0.9-0.4-1.8-0.7-2.7-1.1l-1.1-0.5l-2.8-1.2l-1-0.5l-2.8-1.2
	c-0.3-0.1-0.6-0.3-1-0.4l-2.9-1.3l-0.9-0.4l-2.7-1.5c-14,18.8-32.6,46.7-47.3,79.5c0,0.1-0.1,0.1-0.1,0.2c-0.8,1.7-1.5,3.5-2.3,5.2
	c-0.3,0.7-0.6,1.3-0.8,1.9c-0.6,1.4-1.2,2.8-1.8,4.2c-0.5,1.3-1,2.6-1.5,3.9c-0.3,0.8-0.7,1.7-1,2.5c-0.6,1.4-1.1,2.9-1.6,4.4
	c-0.3,0.7-0.5,1.4-0.8,2.1c-0.6,1.6-1.1,3.2-1.7,4.9c-0.2,0.6-0.4,1.1-0.6,1.7c-0.6,1.8-1.1,3.5-1.7,5.3c-0.1,0.4-0.3,0.8-0.4,1.3
	c-0.6,1.9-1.1,3.8-1.7,5.7c-0.1,0.3-0.2,0.6-0.3,0.9c-0.5,2-1.1,4-1.6,6c0,0.2-0.1,0.4-0.1,0.6c-0.5,2.1-1,4.1-1.4,6.2
	c0,0.1-0.1,0.3-0.1,0.4c-0.4,2-0.9,4.1-1.2,6.2c0,0.1-0.1,0.3-0.1,0.4c-0.4,2-0.7,4-1,6c0,0.2-0.1,0.4-0.1,0.6
	c-0.3,1.9-0.6,3.9-0.8,5.8l-0.1,0.7c-0.2,1.9-0.4,3.8-0.6,5.7c0,0.3,0,0.6-0.1,0.8c-0.2,1.9-0.3,3.7-0.4,5.6l-0.1,0.9
	c-0.1,1.9-0.2,3.7-0.3,5.6c0,0.2,0,0.5,0,0.7c-0.1,1.9-0.1,3.9-0.1,5.8c0,1.2,0,2.4,0,3.6v1.3c0,0.8,0,1.5,0,2.3c0,0.6,0,1.2,0,1.8
	s0,1.2,0.1,1.8c0.3,7.9,0.9,16.4,1.8,25.3h144.7c0.5,0,1,0.2,1.4,0.6c0.4,0.4,0.6,0.9,0.5,1.4c-0.5,10.4-1.1,20.7-1.9,30.9
	c22.6-5.6,44.2-1.9,60.6,10.7l0,0c16.7,12.9,25.8,33.5,25.7,57.9c-0.1,24.2-9.3,49.4-25.9,70.9c-24.4,31.6-67.7,54.5-102.8,56.5
	c-4,9.8-8.2,19.2-12.7,28H381c1.1,0,1.9,0.9,2,1.9c0,0.5-0.2,1-0.5,1.3l-17,18.3h210.9c16.2-19.6,32.9-50.9,48.2-89.6
	c1.1-2.7,2.1-5.4,3.2-8.2c0,0,0-0.1,0-0.1c2.1-5.4,4.1-10.9,6.1-16.6C633.9,616.5,634,616.2,634.1,616z M244.3,294
	c-6.2,9.7-11.9,19.4-16.8,28.7c-0.3,0.6-1,1-1.7,1c-0.3,0-0.6-0.1-0.9-0.2c-0.9-0.5-1.3-1.7-0.8-2.6c0,0,0,0,0,0
	c5-9.3,10.7-19,16.9-28.9c0.6-0.9,1.8-1.2,2.7-0.6C244.6,291.9,244.9,293.1,244.3,294L244.3,294L244.3,294z M256.4,275.7
	c-2.6,3.8-5.1,7.5-7.6,11.2c-0.4,0.6-1,0.9-1.6,0.9c-0.4,0-0.8-0.1-1.1-0.3c-0.9-0.6-1.1-1.8-0.6-2.7c2.4-3.7,5-7.5,7.6-11.3
	c0.6-0.9,1.8-1.1,2.7-0.5C256.8,273.6,257,274.8,256.4,275.7L256.4,275.7z"/>
<path class="st0" d="M577,735.1H364.4v6.7c0,1.1-0.3,2.3-0.8,3.3H577c2.7,0,4.9-2.2,4.9-4.9V740C581.9,737.3,579.7,735.1,577,735.1z
	"/>
<path class="st2" d="M285.8,713.5H6.4l15.4,16.6c0.4,0.4,0.6,0.8,0.6,1.4v10.4c0,1.8,1.5,3.2,3.3,3.3h331.6c1.8,0,3.3-1.5,3.3-3.3
	l0,0v-10.3c0-0.1,0-0.1,0-0.2c0-0.4,0.2-0.8,0.5-1.1l15.4-16.6L285.8,713.5z M337.7,733.2c-0.3,0.2-0.6,0.3-1,0.3H46.2
	c-1.1,0-1.9-0.9-1.9-1.9s0.9-1.9,1.9-1.9h290.5c1,0,1.8,0.7,1.9,1.7c0,0.1,0,0.2,0,0.3C338.6,732.2,338.3,732.8,337.7,733.2z"/>
<path class="st1" d="M389.7,552c-1.4-11-6.4-19.8-14.5-25.4c-6.3-4.4-14.3-6.6-23.6-6.6c-4.1,0-8.2,0.4-12.2,1.2
	c-5.7,46.6-14.8,89.9-27,127.7c25.3-6.3,42.9-23.2,56-38.3C384.1,592.4,392,570.5,389.7,552z"/>
<path d="M756,220c-35.1-2.6-78.7,18.2-120.2,57c-9.3-15.9-19.5-31.3-30.6-46c0.9-1.3,1.5-2.7,1.8-4.2c0.7-3.3-0.2-6.7-2.3-9.3
	l-0.2-0.3c-3.2-3.9-8.6-5.1-13.2-2.9l-0.2,0.1c-22.6-27-44.3-45.5-68.2-58c-22-11.4-46.3-17.8-74-19.4c15.6-7.9,21.8-27.1,13.9-42.7
	s-27.1-21.8-42.7-13.9c-15.6,7.9-21.8,27.1-13.9,42.7c3,6,7.9,10.9,13.9,13.9c-27.7,1.6-52,8-73.9,19.5c-24,12.5-45.8,31-68.4,58.2
	l-0.2-0.1c-4.5-2.1-9.9-0.9-13.2,2.9l-0.3,0.3c-3.6,4.3-3.4,10.6,0.5,14.7c-13.3,17.8-30.7,43.8-45.1,74.4
	c-69.5-28.9-112.5-65.6-136.3-91.4c-26.2-28.2-35.7-49.7-35.8-49.9c-0.4-1-1.6-1.4-2.6-1c-0.7,0.3-1.1,0.9-1.2,1.7L42,202.8
	L11.4,201c-1.1-0.1-2,0.8-2.1,1.8c0,0.6,0.2,1.2,0.7,1.6c32.6,26.6,45.4,95,60.4,174.2c4.5,23.9,9.2,49,14.8,74.1H39.9
	c-0.5,0-1,0.2-1.4,0.6c-0.4,0.4-0.6,0.9-0.5,1.4C42.8,556,63.3,646.9,95.1,709.6H2c-1.1,0-1.9,0.9-2,1.9c0,0.5,0.2,1,0.5,1.3
	l18,19.3v9.6c0,4,3.2,7.2,7.1,7.2H577c4.8,0,8.8-3.9,8.8-8.8V740c0-3.4-2-6.6-5.2-8c15.9-19.8,32.2-50.5,47.2-88.2
	c40.4-17.4,82.5-54.5,118.5-104.6c36.8-51,63.1-109.6,74.1-164.8c11.1-55.6,5.4-101.3-16-128.7C792.2,230.1,776,221.4,756,220z
	 M406.7,108.8c0-15.4,12.5-27.8,27.8-27.8s27.8,12.5,27.8,27.8s-12.5,27.8-27.8,27.8c0,0,0,0,0,0
	C419.2,136.6,406.7,124.1,406.7,108.8z M434.7,140.5c63.4,0,107.8,21.9,152.8,75.6l-2.7,1.2l-1.5,0.6c-1.8,0.7-3.6,1.5-5.4,2.2
	l-1.2,0.5l-0.9,0.3c-1,0.4-1.9,0.7-3,1.1l0,0c-28.2,10.1-61.3,15.4-105.7,17h-0.1c-1.9,0.1-3.8,0.1-5.7,0.2h-0.5l-5.4,0.1h-0.9
	l-5.2,0.1H448h-5.2h-1.4c-2.2,0-4.4,0-6.7,0c-2.3,0-4.5,0-6.7,0h-1.5h-5.2h-1.2c-1.8,0-3.5,0-5.3-0.1H414c-1.9,0-3.7-0.1-5.5-0.1
	h-0.4l-5.8-0.2l0,0c-46.7-1.7-80.7-7.4-109.8-18.2h-0.1l-2.2-0.9c-1.7-0.6-3.3-1.3-4.9-2l-1.2-0.5c-0.8-0.4-1.7-0.7-2.5-1.1
	C326.7,162.5,371.2,140.5,434.7,140.5z M267.3,220.4l0.3-0.3c1.4-1.6,3.4-2.6,5.5-2.6c1.1,0,2.1,0.2,3,0.7c0.5,0.2,1,0.5,1.5,0.7
	l0.2,0.1c1.1,0.5,2.1,0.9,3.2,1.4l0.7,0.3l2.8,1.2l1.2,0.5l2.3,1l1.8,0.7l1.8,0.7c0.8,0.3,1.6,0.6,2.4,0.9l1.3,0.5l3,1l0.7,0.2
	c1.2,0.4,2.5,0.8,3.7,1.2h0.1c32.1,10.1,70.7,14.6,124.5,15h0.5c2.2,0,4.5,0,6.8,0s4.6,0,6.8,0h0.5c53.6-0.4,92.1-4.9,124.2-15.1
	l0.3-0.1c1.2-0.4,2.4-0.8,3.5-1.2l0.8-0.3l2.9-1l1.4-0.5l2.2-0.8l1.9-0.7c0.5-0.2,1.1-0.4,1.6-0.6c0.8-0.3,1.7-0.7,2.5-1l1.1-0.4
	l2.9-1.2l0.6-0.2c1.1-0.5,2.2-1,3.4-1.5h0.1l1.5-0.7c3-1.4,6.5-0.6,8.6,1.9l0.2,0.2c2.3,2.8,2.2,6.9-0.4,9.5
	c-0.3,0.3-0.6,0.5-0.9,0.7l-0.1,0.1c-0.3,0.2-0.6,0.4-0.9,0.6c-35.5,18.1-76.8,26.1-143.4,27.5c-4.6,0.1-9.3,0.2-14.1,0.2h-7.4
	c-10,0-19.4-0.1-28.4-0.4c-4.5-0.1-8.9-0.3-13.1-0.5l-6.3-0.3c-51.8-2.8-86.8-10.8-117.3-26.2l0,0c-0.2-0.1-0.3-0.2-0.5-0.3
	c-0.2-0.1-0.3-0.2-0.5-0.3c-3.2-2.3-3.9-6.7-1.6-9.9C267.1,220.7,267.2,220.6,267.3,220.4L267.3,220.4z M74.2,377.9
	c-14.4-76.5-27-143-57.5-172.7l27,1.5c0.5,0,1-0.2,1.4-0.5c0.4-0.3,0.6-0.8,0.6-1.4l1.6-31.2c4.7,8.6,14.9,24.7,33,44.3
	c24.2,26.1,67.6,63.2,137.7,92.4c-2.6,5.7-5,11.3-7.1,16.9c0,0.1-0.1,0.2-0.1,0.3c-0.8,2-1.5,4-2.3,6c-0.2,0.4-0.3,0.9-0.5,1.3
	c-0.6,1.7-1.3,3.4-1.8,5.1c-0.4,1.1-0.7,2.2-1.1,3.2c-0.4,1.1-0.7,2.2-1.1,3.3c-0.4,1.3-0.8,2.7-1.2,4c-0.3,0.8-0.5,1.7-0.7,2.5
	c-0.4,1.5-0.8,2.9-1.2,4.4c-0.2,0.7-0.4,1.5-0.6,2.2c-0.4,1.6-0.8,3.1-1.2,4.7l-0.4,1.8c-0.4,1.7-0.8,3.3-1.1,5
	c-0.1,0.5-0.2,1-0.3,1.5c-0.4,1.8-0.7,3.5-1.1,5.3c-0.1,0.4-0.1,0.7-0.2,1.1c-0.3,1.9-0.7,3.7-1,5.6l-0.1,0.6
	c-0.3,1.9-0.5,3.7-0.8,5.6c0,0.2,0,0.4-0.1,0.6c-0.2,1.9-0.4,3.8-0.6,5.7l-0.1,0.9c-0.2,1.8-0.3,3.7-0.4,5.5c0,0.3,0,0.7-0.1,1
	c-0.1,1.8-0.2,3.7-0.3,5.5c0,0.3,0,0.6,0,0.8c-0.1,1.9-0.1,3.8-0.1,5.7c0,1.2,0,2.4,0,3.6v1.3c0,0.8,0,1.6,0,2.5c0,0.5,0,1,0,1.6
	c0,0.7,0,1.5,0.1,2.2c0.1,2.6,0.2,5.3,0.4,8.1c0,0.2,0,0.5,0,0.7c0.1,1.1,0.1,2.2,0.2,3.3c0,0,0,0.1,0,0.1c0.3,4.1,0.7,8.3,1.1,12.7
	H89.1C83.6,427.4,78.8,402.1,74.2,377.9z M42,456.6h298.9c-0.5,10.1-1.2,20.2-1.9,30.1l-0.2,2.1l-0.2,2.1c-0.8,9.1-1.7,18.1-2.8,27
	c-0.1,0.7-0.2,1.4-0.2,2c-0.1,0.7-0.2,1.4-0.3,2.1c-5.8,46.8-15,90.1-27.3,127.8c-0.2,0.7-0.5,1.4-0.7,2.1c-0.2,0.7-0.5,1.4-0.7,2.1
	c-2.8,8.3-5.7,16.2-8.8,23.9c-0.3,0.6-0.5,1.3-0.8,1.9s-0.5,1.3-0.8,1.9c-4,9.8-8.3,19.1-12.8,27.8H99.4
	C67.6,647.8,47,557.4,42,456.6z M425.4,554.2c-0.1,23.4-9,47.7-25.1,68.5c-23.4,30.3-64.4,52.4-98.2,54.9c3.1-7.9,6.1-16.1,8.9-24.6
	c27.5-6,46.5-24,60.4-40.1c16.4-19,24.7-42,22.2-61.6c-1.5-12.2-7.1-21.9-16.1-28.1c-7-4.9-15.7-7.3-25.8-7.3
	c-3.9,0-7.9,0.4-11.8,1.1c1.1-9,2-18.1,2.8-27.4c21.9-5.7,42.8-2.4,58.6,9.7l0,0C416.9,511.6,425.5,531.1,425.4,554.2z M312.4,648.8
	c12.1-37.8,21.3-81,27-127.7c4-0.8,8.1-1.2,12.2-1.2c9.3,0,17.3,2.2,23.6,6.6c8.1,5.6,13.1,14.4,14.5,25.4
	c2.4,18.5-5.6,40.4-21.3,58.5C355.3,625.6,337.6,642.6,312.4,648.8L312.4,648.8z M360.6,731.2c0,0.1,0,0.1,0,0.2v10.4
	c0,1.8-1.5,3.3-3.3,3.3h0H25.7c-1.8,0-3.2-1.5-3.3-3.3v-10.3c0-0.5-0.2-1-0.5-1.3L6.4,713.5h370.1l-15.4,16.6
	C360.8,730.4,360.6,730.8,360.6,731.2L360.6,731.2z M581.9,740v0.3c0,2.7-2.2,4.9-4.9,4.9H363.6c0.5-1,0.8-2.2,0.8-3.3v-6.7H577
	C579.7,735.1,581.9,737.3,581.9,740L581.9,740z M627.7,633.3c0,0,0,0.1,0,0.1c-1.1,2.8-2.1,5.5-3.2,8.2
	c-15.3,38.7-32.1,70-48.2,89.6H365.3l17-18.3c0.7-0.8,0.7-2-0.1-2.8c-0.4-0.3-0.8-0.5-1.3-0.5h-93.1c4.4-8.8,8.7-18.1,12.7-28
	c35.2-1.9,78.4-24.9,102.8-56.5c16.6-21.5,25.8-46.7,25.9-70.9c0.1-24.4-9-45-25.7-57.9l0,0c-16.4-12.7-38.1-16.3-60.6-10.7
	c0.8-10.2,1.5-20.5,1.9-30.9c0-0.5-0.2-1-0.5-1.4c-0.4-0.4-0.9-0.6-1.4-0.6H198.3c-0.9-9-1.5-17.4-1.8-25.3c0-0.6,0-1.2-0.1-1.8
	s0-1.2,0-1.8c0-0.8,0-1.5,0-2.3v-1.3c0-1.2,0-2.4,0-3.6c0-1.9,0-3.9,0.1-5.8c0-0.2,0-0.5,0-0.7c0.1-1.9,0.2-3.7,0.3-5.6l0.1-0.9
	c0.1-1.9,0.3-3.7,0.4-5.6c0-0.3,0.1-0.5,0.1-0.8c0.2-1.9,0.4-3.8,0.6-5.7l0.1-0.7c0.3-1.9,0.5-3.9,0.8-5.8c0-0.2,0.1-0.4,0.1-0.6
	c0.3-2,0.7-4,1-6c0-0.1,0-0.3,0.1-0.4c0.4-2.1,0.8-4.1,1.2-6.2c0-0.1,0.1-0.3,0.1-0.4c0.4-2.1,0.9-4.1,1.4-6.2
	c0-0.2,0.1-0.4,0.1-0.6c0.5-2,1-4,1.6-6c0.1-0.3,0.2-0.6,0.3-0.9c0.5-1.9,1.1-3.8,1.7-5.7c0.1-0.4,0.3-0.8,0.4-1.3
	c0.5-1.8,1.1-3.5,1.7-5.3c0.2-0.6,0.4-1.1,0.6-1.7c0.5-1.6,1.1-3.2,1.7-4.9c0.3-0.7,0.5-1.4,0.8-2.1c0.5-1.5,1.1-2.9,1.6-4.4
	c0.3-0.8,0.6-1.7,1-2.5c0.5-1.3,1-2.6,1.5-3.9c0.6-1.3,1.2-2.8,1.8-4.2c0.3-0.7,0.6-1.3,0.8-1.9c0.7-1.8,1.5-3.5,2.3-5.2
	c0-0.1,0.1-0.2,0.1-0.2c14.7-32.8,33.3-60.7,47.3-79.5l2.7,1.3l0.9,0.4l2.9,1.3c0.3,0.1,0.6,0.3,1,0.4l2.8,1.2l1,0.5l2.8,1.2
	l1.1,0.5c0.9,0.4,1.8,0.7,2.7,1.1l1.2,0.5c0.9,0.4,1.8,0.7,2.8,1l1.3,0.5l2.8,1l1.3,0.4l2.8,0.9l1.3,0.4l2.8,0.9
	c0.5,0.1,1,0.3,1.5,0.4c0.9,0.3,1.8,0.5,2.8,0.8l1.6,0.4l2.8,0.7l1.6,0.4c1,0.2,1.9,0.5,2.9,0.7l1.6,0.4l2.9,0.7l1.8,0.4
	c1,0.2,1.9,0.4,2.9,0.6c0.6,0.1,1.2,0.3,1.8,0.4c1,0.2,1.9,0.4,2.9,0.6l1.9,0.4l2.9,0.5l1.9,0.4l3.1,0.5l1.9,0.3
	c1.1,0.2,2.1,0.3,3.2,0.5l1.9,0.3l3.2,0.4l2.1,0.3l3.3,0.4l2.2,0.3l3.3,0.3l2.3,0.2l3.4,0.3l2.3,0.2l3.4,0.3l2.5,0.2l3.3,0.2
	l2.8,0.2l3.6,0.2l2.6,0.1l3.8,0.2l2.6,0.1l3.6,0.1l3,0.1l3.1,0.1l3.6,0.1l2.9,0.1c1.3,0,2.6,0.1,4,0.1c1.6,0,3.2,0.1,4.8,0.1h2.3
	h3.6c3.6,0,7.3,0.1,11.1,0.1c7.5,0,14.7-0.1,21.7-0.2c17.1-0.4,32.6-1.1,46.8-2.5c6.9-0.6,13.4-1.4,19.7-2.2h0.2
	c15-2,29.8-5.2,44.3-9.5c2.9-0.9,5.7-1.8,8.4-2.8c4.8-1.7,9.5-3.5,14.1-5.5c0.8-0.4,1.7-0.7,2.5-1.1c0.4-0.2,0.9-0.4,1.4-0.6
	l2.4-1.1l1.4-0.6c1-0.5,1.9-1,2.9-1.4l0.9-0.4l0,0c0.4-0.2,0.8-0.4,1.2-0.7l0,0c16,21.1,30,43.7,41.9,67.3c0.3,0.6,0.6,1.1,0.9,1.7
	c0.5,1,1,1.9,1.4,2.9c0.6,1.3,1.3,2.6,1.9,3.9c0.2,0.4,0.3,0.7,0.5,1c2.6,5.6,5.1,11.3,7.4,17.2c10.9,27.5,18.6,57.8,18.6,88.8
	c0,39.5-9.9,96.7-26.7,154.9c-0.8,2.8-1.6,5.6-2.5,8.4c-0.1,0.5-0.3,1-0.5,1.6l-0.5,1.8c-0.6,2.2-1.3,4.3-1.9,6.4
	c-0.1,0.3-0.2,0.6-0.3,0.9c-0.8,2.5-1.5,4.9-2.3,7.3c-0.2,0.6-0.4,1.2-0.6,1.8c-1.8,5.6-3.7,11-5.5,16.4c-0.1,0.2-0.2,0.5-0.3,0.7
	C631.8,622.3,629.8,627.9,627.7,633.3z M660.4,327.6c35.9-34,74-51.3,97.3-44.2c4.9,1.4,9.1,4.3,12.3,8.3
	c9.6,12.2,11.2,38.2,4.7,71.2c-8.8,43.9-31.2,93.3-61.6,135.5c-20.3,28.2-41.1,52.1-59.3,68.1c15.8-56.4,25.1-111.4,25.1-149.8
	C678.8,385.6,671.3,355.2,660.4,327.6L660.4,327.6z M743.2,537c-34.6,48-74.7,83.9-113.4,101.7l0.2-0.5c0.9-2.4,1.8-4.7,2.7-7.1
	l0.2-0.6c0.8-2.2,1.6-4.4,2.5-6.7l0.5-1.3c0.9-2.4,1.7-4.9,2.6-7.3l0,0c0.9-2.5,1.7-5,2.6-7.5c0.2-0.6,0.4-1.2,0.6-1.8
	c0.6-1.9,1.3-3.8,1.9-5.8l0.7-2.1c0.8-2.5,1.6-4.9,2.4-7.4l0.3-1c0.5-1.7,1-3.4,1.6-5.1l0.5-1.7c0.2-0.6,0.4-1.2,0.5-1.8
	c0.8-2.5,1.5-5.1,2.2-7.6c19.4-16.1,42.3-41.9,64.4-72.6c30.7-42.6,53.4-92.5,62.3-137c6.8-34.2,4.9-61.3-5.4-74.4
	c-3.6-4.6-8.6-8-14.2-9.6c-24.8-7.6-62.9,9.3-100,44c-0.7-1.6-1.3-3.2-1.9-4.8c-0.2-0.4-0.3-0.7-0.5-1.1c-0.6-1.4-1.2-2.7-1.8-4
	c-0.3-0.7-0.6-1.5-1-2.2l-0.9-1.9c-1-2-1.9-4-2.8-6c-0.4-0.8-0.8-1.6-1.1-2.4c-0.7-1.4-1.4-2.8-2.1-4.2c-2.8-5.6-5.8-11.2-8.9-16.7
	c40.9-38.5,83.8-59.1,117.9-56.6c18.8,1.4,34.1,9.6,45.6,24.2C844.3,303.2,818.3,432.8,743.2,537L743.2,537z"/>
<path d="M243.7,291.3c-0.9-0.6-2.1-0.3-2.7,0.6c0,0,0,0,0,0c-6.3,9.9-11.9,19.6-16.9,28.9c-0.5,0.9-0.2,2.1,0.8,2.6c0,0,0,0,0,0
	c0.3,0.1,0.6,0.2,0.9,0.2c0.7,0,1.4-0.4,1.7-1c4.9-9.2,10.6-18.9,16.8-28.7C244.9,293.1,244.6,291.9,243.7,291.3
	C243.7,291.3,243.7,291.3,243.7,291.3z"/>
<path d="M255.9,273c-0.9-0.6-2.1-0.4-2.7,0.5c-2.6,3.8-5.2,7.6-7.6,11.3c-0.6,0.9-0.3,2.1,0.6,2.7c0.3,0.2,0.7,0.3,1.1,0.3
	c0.7,0,1.3-0.3,1.6-0.9c2.4-3.7,5-7.5,7.6-11.2C257,274.8,256.8,273.6,255.9,273z"/>
<path d="M273.8,692.9c0.2,0.1,0.5,0.2,0.8,0.2c0.8,0,1.5-0.5,1.8-1.2c1.6-3.7,3.2-7.6,4.8-11.5c0.3-0.6,0.5-1.2,0.7-1.9
	c3.2-8.1,6.2-16.6,9.1-25.3c0.2-0.7,0.4-1.3,0.7-1.9c1.7-5.1,3.3-10.4,4.9-15.7c0.3-1-0.3-2.1-1.3-2.4c-1-0.3-2.1,0.3-2.4,1.3
	c0,0,0,0,0,0c-5.5,19-12.2,37.7-20.1,55.8C272.3,691.3,272.8,692.5,273.8,692.9C273.8,692.9,273.8,692.9,273.8,692.9z"/>
<path d="M297.6,622.9c0.1,0,0.3,0.1,0.5,0.1c0.9,0,1.7-0.6,1.9-1.5c1.1-4.5,2.2-9.1,3.2-13.8c0.2-1.1-0.4-2.1-1.5-2.3
	c-1.1-0.2-2.1,0.4-2.3,1.5l0,0c-1,4.6-2.1,9.2-3.2,13.7C295.9,621.5,296.5,622.6,297.6,622.9z"/>
<path d="M336.7,729.5H46.2c-1.1,0-1.9,0.9-1.9,1.9c0,1.1,0.9,1.9,1.9,1.9h290.5c0.3,0,0.7-0.1,1-0.3c0.6-0.3,1-1,1-1.7
	c0-0.1,0-0.2,0-0.3C338.5,730.2,337.7,729.5,336.7,729.5z"/>
</svg>
