<?xml version="1.0" encoding="utf-8"?>
<!-- Generator: Adobe Illustrator 23.0.4, SVG Export Plug-In . SVG Version: 6.00 Build 0)  -->
<svg version="1.1" id="Слой_1" xmlns="http://www.w3.org/2000/svg" xmlns:xlink="http://www.w3.org/1999/xlink" x="0px" y="0px"
	 viewBox="0 0 826 826" style="enable-background:new 0 0 826 826;" xml:space="preserve">
<style type="text/css">
	.st0{fill:#EEF5FA;}
	.st1{fill:#DDE1E5;}
	.st2{fill:#D5E7F2;}
	.st3{fill:#F1F6F7;}
	.st4{fill:#FAF8DD;}
	.st5{fill:#F7F4C7;}
	.st6{fill:#FBE0DC;}
	.st7{fill:#D0E7DD;}
</style>
<path class="st0" d="M79.8,99.2c-0.8,5-1.6,10.2-2.3,15.8c-1.8,14.3-3.2,29.4-4.1,45c-0.8,15.2-1.2,31.1-1.1,46.9
	c0.1,15.7,0.7,31.6,1.8,47.3s2.6,31.1,4.6,46c1.6,11.1,3.2,22,5.1,32.6c2.9,16.2,7.2,32,12.1,49.4c2.3,8.2,5.1,18.1,8,27.9h2.9
	l0.1-368c-4.5,0.8-9,4.4-12.8,10.4C88,62.3,83.3,77.6,79.8,99.2z"/>
<path class="st0" d="M93,410.2c-5.7-9.4-11.2-18.9-16.2-27.4c-7.5-12.8-16-27.4-22.2-42.4c-5.4-13.4-10-27-13.7-41
	c-3.8-14.3-6.7-28.9-8.7-43.6C30,241,28.8,226,28.4,211c-0.3-15,0.2-29.9,1.7-44.8c1.4-14.6,3.8-29.1,7.2-43.4
	c1.9-8,4.1-15.9,6.5-23.4c7.3-22.6,17.4-38.6,30.8-49.1c1.3-1,2.6-1.9,4-2.8c-4.7,1.7-9.3,3.8-13.6,6.3
	C47.5,64,34.3,79.7,24.6,101.8c-16.2,37-23.1,79.2-20.1,122c0.3,4.6,0.8,9.2,1.3,13.8c3.7,29.9,11.4,57.1,22.9,80.8
	c11.6,24.1,25.9,46.7,42.6,67.6c5.1,6.4,13,15.8,20.2,24.1H93z"/>
<path class="st1" d="M208.5,253.6c7-39.5,5.4-80.3-4.7-121.3c-5.4-22.5-21.7-70.1-65.1-85.3c28.3,18.5,39.2,61.7,42.9,83
	c7.5,40.4,8.7,81.7,3.5,122.4l0,0c-6.6,51.4-23.4,99.3-49.7,142.4c-3,4.9-6.2,10.1-9.7,15.4h0.6c5.3-5.8,10.3-11.7,15.2-17.4
	c5.2-6.2,10.1-12.4,14.6-18.6C182.9,337.6,201,295.9,208.5,253.6z"/>
<path class="st1" d="M118.8,393c12.6-43.1,20.7-91.1,23.9-142.6c2.5-40.4,1.9-81-1.7-121.3c-4.5-52-15.7-84-30.2-86.9l-0.1,367.9
	h2.9C115.5,404.3,117.2,398.4,118.8,393z"/>
<path class="st2" d="M123.2,414H78.7v360.7c0,5,4.1,9.1,9.1,9.2h44.7c5.1,0,9.2-4.1,9.2-9.2V414H123.2L123.2,414z M88.1,570.1
	c0,1.1-0.9,1.9-1.9,1.9c-1.1,0-1.9-0.9-1.9-1.9v-8.5c0-1.1,0.9-1.9,1.9-1.9c1.1,0,1.9,0.9,1.9,1.9V570.1z M88.1,551.6
	c0,1.1-0.9,1.9-1.9,1.9c-1.1,0-1.9-0.9-1.9-1.9v-97.5c0-1.1,0.9-1.9,1.9-1.9c1.1,0,1.9,0.9,1.9,1.9V551.6z"/>
<path class="st0" d="M357.5,314.1c-8.4-71-29.9-174.8-84.4-267.4L272.7,446h90.2C363.5,434.8,365.7,382.9,357.5,314.1z"/>
<path class="st3" d="M711.4,309.4c-3,0.7-5.5,2.8-6.5,5.8h6.5V309.4z"/>
<path class="st0" d="M122.6,394.1c-1.5,5.1-3.1,10.6-4.9,16h3.4c3.9-5.9,7.6-11.9,11-17.4c26.1-42.6,42.6-90,49.2-140.9l0,0
	c5.1-40.4,4-81.3-3.5-121.2c-4.3-24.3-18.1-78.2-57.1-87.3c15.6,14.8,21.8,57.8,24.2,85.5c3.6,40.5,4.2,81.2,1.7,121.8
	C143.4,302.5,135.3,350.7,122.6,394.1z"/>
<path class="st1" d="M47.5,100.5c-2.4,7.5-4.6,15.2-6.5,23.2c-3.3,14.1-5.6,28.5-7,42.9c-1.4,14.7-2,29.5-1.6,44.3
	c0.3,14.8,1.5,29.7,3.6,44.4c2.1,14.5,5,28.9,8.7,43.1c3.6,13.8,8.1,27.3,13.5,40.5c6.1,14.8,14.5,29.2,21.9,41.9
	c5.3,9.1,11.3,19.3,17.4,29.3h2.5c-2.8-9.4-5.4-18.9-7.7-26.8c-4.9-17.5-9.2-33.3-12.2-49.7c-1.9-10.7-3.5-21.6-5.1-32.8
	c-1.9-15-3.5-30.6-4.6-46.3s-1.7-31.7-1.8-47.5c-0.1-16,0.2-31.9,1.1-47.2c0.9-15.7,2.2-30.9,4.1-45.3c0.7-5.7,1.5-10.9,2.3-16
	c3.6-22.5,8.3-37.8,14.9-48.1c1.6-2.5,3.4-4.8,5.5-6.8c-7.1,1.9-13.7,5.1-19.4,9.6C64.2,63.3,54.6,78.7,47.5,100.5z"/>
<path class="st4" d="M470.4,177.8h-21.5c-5.8,0-10.5,4.7-10.5,10.5v449.4c0,5.8,4.7,10.5,10.5,10.5h94.4c5.8,0,10.5-4.7,10.5-10.5
	V188.3c0-5.8-4.7-10.5-10.5-10.5H470.4z M449.3,349.3c0,1.1-0.9,1.9-1.9,1.9s-1.9-0.9-1.9-1.9v-8.7c0-1.1,0.9-1.9,1.9-1.9
	s1.9,0.9,1.9,1.9V349.3z M449.3,330.4c0,1.1-0.9,1.9-1.9,1.9s-1.9-0.9-1.9-1.9v-99c0-1.1,0.9-1.9,1.9-1.9s1.9,0.9,1.9,1.9V330.4z
	 M542.1,508.4c0-1.1,0.9-1.9,1.9-1.9c1.1,0,1.9,0.9,1.9,1.9v99c0,1.1-0.9,1.9-1.9,1.9c-1.1,0-1.9-0.9-1.9-1.9V508.4z M542.1,617.6
	c0-1.1,0.9-1.9,1.9-1.9c1.1,0,1.9,0.9,1.9,1.9v8.7c0,1.1-0.9,1.9-1.9,1.9c-1.1,0-1.9-0.9-1.9-1.9V617.6z"/>
<path class="st5" d="M472.8,775.1c0,4.9,4,8.9,8.9,8.9h0h29.9c4.9,0,8.9-4,8.9-8.9v-123h-47.6L472.8,775.1z"/>
<path class="st5" d="M519.9,50.9c0-4.9-4-8.9-8.9-8.9h-29.9c-4.9,0-8.9,4-8.9,8.9v123h47.6L519.9,50.9z"/>
<path class="st3" d="M722.2,319h-6.9v7.5C718.9,325.8,721.7,322.7,722.2,319z"/>
<path class="st3" d="M715.3,309.4v5.8h6.5C720.7,312.2,718.3,310,715.3,309.4z"/>
<path class="st3" d="M299.9,502.8v-7.6H293C293.5,498.9,296.3,501.9,299.9,502.8z"/>
<path class="st3" d="M310.7,495.1h-6.9v7.6C307.5,501.9,310.3,498.9,310.7,495.1z"/>
<path class="st3" d="M303.8,485.4v5.8h6.5C309.3,488.3,306.8,486.1,303.8,485.4z"/>
<path class="st3" d="M299.9,485.4c-3,0.7-5.5,2.9-6.5,5.8h6.5V485.4z"/>
<path class="st1" d="M352.1,459.6h10.7v-9.2h-90.1v12.4h64.7C339.1,461.2,343,459.6,352.1,459.6z"/>
<path class="st6" d="M326.5,784c5.1,0,9.2-4.1,9.2-9.2V467.1h-63v307.7c0,5.1,4.1,9.2,9.2,9.2H326.5z M301.9,481.3
	c7.1,0,12.8,5.7,12.8,12.8c0,7.1-5.7,12.8-12.8,12.8c-7.1,0-12.8-5.7-12.8-12.8c0,0,0,0,0,0C289.1,487,294.8,481.3,301.9,481.3z
	 M279.2,500.8c0-1.1,0.9-1.9,1.9-1.9c1.1,0,1.9,0.9,1.9,1.9v83.8c0,1.1-0.9,1.9-1.9,1.9c-1.1,0-1.9-0.9-1.9-1.9V500.8z M279.2,600.5
	v-7.4c0-1.1,0.9-1.9,1.9-1.9c1.1,0,1.9,0.9,1.9,1.9v7.4c0,1.1-0.9,1.9-1.9,1.9C280,602.4,279.2,601.5,279.2,600.5z"/>
<path class="st3" d="M711.4,326.6V319h-6.9C705,322.7,707.7,325.8,711.4,326.6z"/>
<path class="st0" d="M803.8,275.6l18.3-224.9c0.2-2.2-0.6-4.4-2.1-6c-1.5-1.7-3.7-2.6-5.9-2.6H612.6c-2.3,0-4.4,0.9-5.9,2.6
	c-1.5,1.6-2.3,3.8-2.1,6l18.3,224.9c0.4,4.1,3.8,7.3,8,7.3h165C800,282.9,803.4,279.7,803.8,275.6z M619.5,153.6l-6.1-71.2
	c-0.1-1.1,0.7-2,1.8-2.1c1.1-0.1,2,0.7,2.1,1.8l6.1,71.2c0.1,1.1-0.7,2-1.8,2.1c0,0,0,0,0,0h-0.2
	C620.4,155.4,619.6,154.6,619.5,153.6z M623.6,176.5h-0.2c-1,0-1.9-0.8-1.9-1.8l-1.1-13.1c-0.1-1.1,0.7-2,1.8-2.1s2,0.7,2.1,1.8
	l1.1,13.1C625.5,175.5,624.7,176.4,623.6,176.5C623.6,176.5,623.6,176.5,623.6,176.5z M664.4,250.3c0,1.1-0.9,1.9-1.9,1.9h-16.9
	c-1.1,0-1.9-0.9-1.9-1.9V74.6c0-1.1,0.9-1.9,1.9-1.9h17c1.1,0,1.9,0.9,1.9,1.9L664.4,250.3z M703.9,250.3c0,1.1-0.9,1.9-1.9,1.9
	h-16.9c-1.1,0-1.9-0.9-1.9-1.9V74.6c0-1.1,0.9-1.9,1.9-1.9h17c1.1,0,1.9,0.9,1.9,1.9L703.9,250.3z M743.5,250.3
	c0,1.1-0.9,1.9-1.9,1.9h-16.9c-1.1,0-1.9-0.9-1.9-1.9V74.6c0-1.1,0.9-1.9,1.9-1.9h17c1.1,0,1.9,0.9,1.9,1.9L743.5,250.3z
	 M783.1,250.3c0,1.1-0.9,1.9-1.9,1.9h-16.9c-1.1,0-1.9-0.9-1.9-1.9V74.6c0-1.1,0.9-1.9,1.9-1.9h17c1.1,0,1.9,0.9,1.9,1.9
	L783.1,250.3z"/>
<path class="st7" d="M681.8,774.8c0,5.1,4.1,9.2,9.2,9.2h44.7c5.1,0,9.2-4.1,9.2-9.2V287.2h-63V774.8z M713.3,305.3
	c7,0,12.7,5.8,12.6,12.8c0,7-5.8,12.7-12.8,12.6c-7,0-12.6-5.7-12.6-12.7C700.6,310.9,706.3,305.3,713.3,305.3z M687.4,341.5
	c0-1.1,0.9-1.9,1.9-1.9c1.1,0,1.9,0.9,1.9,1.9v130.6c0,1.1-0.9,1.9-1.9,1.9c-1.1,0-1.9-0.9-1.9-1.9V341.5z M687.4,485.4
	c0-1.1,0.9-1.9,1.9-1.9c1.1,0,1.9,0.9,1.9,1.9v11.5c0,1.1-0.9,1.9-1.9,1.9c-1.1,0-1.9-0.9-1.9-1.9V485.4z"/>
<path d="M159.3,376.5c27.1-37.1,45.4-79.3,53-122.2c7.1-40.1,5.5-81.4-4.8-122.9c-6.6-27.9-29.5-92.8-97.9-93.2h-0.8h-0.5
	C92.4,38.3,76.8,42.5,63,50.4c-18.2,10.7-31.9,27-41.9,49.9C4.6,137.8-2.4,180.7,0.7,224.1c0.3,4.6,0.8,9.3,1.4,14
	c3.7,30.3,11.5,57.9,23.3,82c11.8,24.3,26.2,47.3,43.1,68.4c1.7,2.2,9.8,12,18.1,21.7h-9.8c-1.1,0-1.9,0.9-1.9,1.9v362.7
	c0,7.2,5.8,13,13,13.1h44.7c7.2,0,13-5.8,13.1-13.1V412.1c0-1.1-0.9-1.9-1.9-1.9h-11.9c4.5-5,8.7-10,12.9-14.9
	C149.8,389,154.8,382.7,159.3,376.5z M144.9,128.8c-2.4-27.7-8.5-70.6-24.2-85.5c38.9,9.1,52.8,62.9,57.1,87.3
	c7.4,40,8.6,80.9,3.5,121.2l0,0c-6.6,50.9-23.1,98.3-49.2,140.9c-3.4,5.5-7.1,11.5-11,17.4h-3.4c1.7-5.5,3.4-10.9,4.9-16
	c12.7-43.4,20.8-91.6,24.1-143.5C149.1,210.1,148.6,169.3,144.9,128.8L144.9,128.8z M110.9,42.3c14.5,2.8,25.7,34.8,30.2,86.9
	c3.6,40.3,4.2,80.9,1.7,121.3c-3.2,51.5-11.3,99.5-23.9,142.6c-1.6,5.4-3.4,11.3-5.2,17.1h-2.8L110.9,42.3z M107,42.2l-0.1,368H104
	c-2.9-9.8-5.7-19.7-8-27.9c-4.9-17.4-9.2-33.1-12.1-49.4c-1.9-10.7-3.5-21.5-5.1-32.6c-1.9-14.9-3.5-30.4-4.6-46s-1.7-31.6-1.8-47.3
	c-0.1-15.9,0.2-31.7,1.1-46.9c0.9-15.5,2.2-30.7,4.1-45c0.7-5.6,1.5-10.8,2.3-15.8c3.4-21.6,8.1-36.9,14.4-46.6
	C98,46.6,102.5,43,107,42.2z M90.9,50.5C84.3,60.9,79.6,76.2,76,98.6c-0.8,5-1.6,10.3-2.3,16c-1.9,14.4-3.2,29.6-4.1,45.3
	c-0.8,15.3-1.2,31.2-1.1,47.2c0.1,15.8,0.7,31.8,1.8,47.5s2.6,31.3,4.6,46.3c1.6,11.2,3.2,22.1,5.1,32.8c3,16.4,7.3,32.2,12.2,49.7
	c2.2,7.9,4.9,17.4,7.7,26.8h-2.5c-6.1-10-12.1-20.2-17.4-29.3c-7.4-12.7-15.9-27.1-21.9-41.9c-5.4-13.2-9.9-26.7-13.5-40.5
	c-3.8-14.2-6.7-28.6-8.7-43.1c-2.1-14.7-3.3-29.5-3.6-44.4c-0.3-14.8,0.2-29.6,1.7-44.3c1.4-14.4,3.8-28.8,7.1-42.9
	c1.9-7.9,4-15.7,6.5-23.2c7.1-21.8,16.7-37.2,29.5-47.2c5.8-4.5,12.4-7.8,19.4-9.6C94.4,45.7,92.5,48,90.9,50.5z M71.4,386.1
	c-16.7-20.9-30.9-43.6-42.6-67.6c-11.5-23.8-19.2-51-22.9-80.8c-0.6-4.6-1-9.2-1.3-13.8c-3.1-42.8,3.9-85,20.1-122
	C34.4,79.7,47.5,64,65,53.8c4.3-2.5,8.9-4.6,13.6-6.3c-1.3,0.9-2.7,1.8-4,2.8C61.2,60.7,51.1,76.8,43.8,99.3
	c-2.5,7.6-4.7,15.5-6.6,23.5c-3.3,14.3-5.7,28.8-7.1,43.4c-1.5,14.9-2,29.8-1.7,44.8c0.4,15,1.6,30,3.7,44.8c2,14.7,5,29.2,8.7,43.6
	c3.7,13.9,8.3,27.6,13.7,41c6.2,15.1,14.7,29.6,22.2,42.4c5,8.5,10.5,18,16.2,27.4h-1.3C84.4,401.8,76.6,392.4,71.4,386.1z
	 M141.6,414v360.7c0,5.1-4.1,9.2-9.2,9.2H87.8c-5,0-9.1-4.1-9.1-9.2V414H141.6L141.6,414z M126.4,410.2h-0.6
	c3.4-5.3,6.7-10.5,9.7-15.4c26.3-43.1,43.1-91,49.7-142.4l0,0c5.2-40.7,4-82.1-3.6-122.4c-3.8-21.4-14.7-64.5-43-83
	c43.4,15.3,59.7,62.8,65.1,85.3c10.1,41,11.8,81.8,4.7,121.4c-7.4,42.3-25.5,84-52.3,120.5c-4.5,6.1-9.4,12.4-14.6,18.6
	C136.7,398.5,131.7,404.4,126.4,410.2z"/>
<path d="M86.2,452.1c-1.1,0-1.9,0.9-1.9,1.9v97.5c0,1.1,0.9,1.9,1.9,1.9c1.1,0,1.9-0.9,1.9-1.9v-97.5
	C88.1,453,87.2,452.1,86.2,452.1z"/>
<path d="M86.2,559.6c-1.1,0-1.9,0.9-1.9,1.9v8.6c0,1.1,0.9,1.9,1.9,1.9c1.1,0,1.9-0.9,1.9-1.9v-8.6
	C88.1,560.5,87.2,559.6,86.2,559.6z"/>
<path d="M326.5,787.8c7.2,0,13-5.8,13.1-13.1V466.4c0.2-0.2,0.3-0.4,0.3-0.6c0.2-0.3,2.3-2.3,12.2-2.3h12.6c1.1,0,1.9-0.9,1.9-1.9
	v-13.1c0.2-2.3,3.9-58.3-5.2-134.8c-8.5-71.9-30.4-177.2-86.1-270.9c-0.9-1.5-2.9-2.1-4.5-1.1c-1,0.6-1.6,1.6-1.6,2.8L268.8,448l0,0
	v16.7l0,0v310.1c0,7.2,5.8,13,13.1,13.1H326.5z M273.1,46.7c54.5,92.6,76,196.4,84.4,267.4c8.2,68.8,6,120.8,5.3,132h-90.2
	L273.1,46.7z M272.7,450.4h90.1v9.2H352c-9.1,0-13,1.6-14.7,3.2h-64.7L272.7,450.4z M272.7,774.7V467.1h63v307.7
	c0,5.1-4.1,9.2-9.2,9.2h-44.7C276.7,783.9,272.7,779.8,272.7,774.7L272.7,774.7z"/>
<path d="M281.1,586.5c1.1,0,1.9-0.9,1.9-1.9v-83.8c0-1.1-0.9-1.9-1.9-1.9c-1.1,0-1.9,0.9-1.9,1.9v83.8
	C279.2,585.7,280,586.5,281.1,586.5z"/>
<path d="M283,600.5v-7.4c0-1.1-0.9-1.9-1.9-1.9c-1.1,0-1.9,0.9-1.9,1.9v7.4c0,1.1,0.9,1.9,1.9,1.9C282.2,602.4,283,601.5,283,600.5z
	"/>
<path d="M301.9,506.9c7.1,0,12.8-5.7,12.8-12.8c0-7.1-5.7-12.8-12.8-12.8s-12.8,5.7-12.8,12.8c0,0,0,0,0,0
	C289.1,501.1,294.8,506.9,301.9,506.9z M303.8,485.4c3,0.7,5.5,2.9,6.5,5.8h-6.5V485.4z M303.8,495.1h6.9c-0.5,3.7-3.2,6.8-6.9,7.6
	L303.8,495.1z M299.9,485.4v5.8h-6.5C294.5,488.3,296.9,486.1,299.9,485.4z M299.9,495.1v7.6c-3.7-0.8-6.4-3.9-6.9-7.6H299.9z"/>
<path d="M447.3,229.5c-1.1,0-1.9,0.9-1.9,1.9v99c0,1.1,0.9,1.9,1.9,1.9s1.9-0.9,1.9-1.9v-99C449.3,230.3,448.4,229.5,447.3,229.5z"
	/>
<path d="M447.3,338.6c-1.1,0-1.9,0.9-1.9,1.9v8.7c0,1.1,0.9,1.9,1.9,1.9s1.9-0.9,1.9-1.9v-8.7C449.3,339.5,448.4,338.6,447.3,338.6z
	"/>
<path d="M544,609.4c1.1,0,1.9-0.9,1.9-1.9v-99c0-1.1-0.9-1.9-1.9-1.9c-1.1,0-1.9,0.9-1.9,1.9v99C542.1,608.6,542.9,609.4,544,609.4z
	"/>
<path d="M544,628.2c1.1,0,1.9-0.9,1.9-1.9v-8.7c0-1.1-0.9-1.9-1.9-1.9c-1.1,0-1.9,0.9-1.9,1.9v8.7
	C542.1,627.4,542.9,628.2,544,628.2z"/>
<path d="M511.1,38.2h-29.9c-7,0-12.7,5.7-12.8,12.8v123h-19.5c-7.9,0-14.4,6.4-14.4,14.4v449.4c0,7.9,6.4,14.4,14.4,14.4h20v123
	c0,7.1,5.7,12.8,12.8,12.8h0h29.9c7,0,12.8-5.7,12.8-12.8v-123h19.1c7.9,0,14.4-6.4,14.4-14.4V188.3c0-7.9-6.4-14.4-14.4-14.4h-19.5
	v-123C523.8,43.9,518.1,38.2,511.1,38.2z M472.3,50.9c0-4.9,4-8.9,8.9-8.9h29.9c4.9,0,8.9,4,8.9,8.9v123h-47.6L472.3,50.9z
	 M520.4,775.1c0,4.9-4,8.9-8.9,8.9h-29.8c-4.9,0-8.9-4-8.9-8.9v-123h47.6L520.4,775.1z M543.3,177.9c5.8,0,10.5,4.7,10.5,10.5v449.3
	c0,5.8-4.7,10.5-10.5,10.5h-94.4c-5.8,0-10.5-4.7-10.5-10.5V188.3c0-5.8,4.7-10.5,10.5-10.5L543.3,177.9L543.3,177.9z"/>
<path d="M691,787.8h44.7c7.2,0,13-5.9,13-13.1v-488h47.1c6.2,0,11.3-4.7,11.9-10.9L826,51c0.5-6.5-4.4-12.2-10.9-12.8
	c-0.3,0-0.6,0-1,0H612.6c-3.3,0-6.5,1.4-8.7,3.9c-2.2,2.4-3.3,5.7-3.1,8.9L619,275.9c0.6,6.1,5.7,10.8,11.8,10.9H678v488
	C678,782,683.8,787.8,691,787.8z M744.8,774.8c0,5.1-4.1,9.2-9.2,9.2H691c-5.1,0-9.2-4.1-9.2-9.2V287.2h63V774.8z M630.8,282.9
	c-4.2,0-7.6-3.2-8-7.3L604.6,50.6c-0.2-2.2,0.6-4.4,2.1-6c1.5-1.7,3.7-2.6,5.9-2.6h201.5c2.3,0,4.4,0.9,5.9,2.6
	c1.5,1.6,2.3,3.8,2.1,6l-18.3,224.9c-0.4,4.1-3.8,7.3-8,7.3H630.8z"/>
<path d="M689.4,474c1.1,0,1.9-0.9,1.9-1.9V341.5c0-1.1-0.9-1.9-1.9-1.9c-1.1,0-1.9,0.9-1.9,1.9v130.6
	C687.4,473.2,688.3,474,689.4,474z"/>
<path d="M689.4,498.8c1.1,0,1.9-0.9,1.9-1.9v-11.5c0-1.1-0.9-1.9-1.9-1.9c-1.1,0-1.9,0.9-1.9,1.9v11.5
	C687.4,498,688.3,498.8,689.4,498.8C689.4,498.8,689.4,498.8,689.4,498.8z"/>
<path d="M713.3,330.7c7,0,12.7-5.8,12.6-12.8c0-7-5.8-12.7-12.8-12.6c-7,0-12.6,5.7-12.6,12.7C700.6,325,706.3,330.7,713.3,330.7z
	 M715.3,309.4c3,0.7,5.5,2.8,6.5,5.8h-6.5V309.4z M715.3,319h6.9c-0.5,3.7-3.2,6.7-6.9,7.5V319z M711.4,309.4v5.8h-6.5
	C705.9,312.2,708.4,310.1,711.4,309.4L711.4,309.4z M711.4,319v7.5c-3.7-0.8-6.4-3.8-6.9-7.5H711.4z"/>
<path d="M662.5,72.7h-17c-1.1,0-1.9,0.9-1.9,1.9v175.7c0,1.1,0.9,1.9,1.9,1.9h17c1.1,0,1.9-0.9,1.9-1.9V74.6
	C664.4,73.5,663.5,72.7,662.5,72.7z M660.5,248.4h-13.1V76.6h13.1V248.4z"/>
<path d="M702,72.7h-17c-1.1,0-1.9,0.9-1.9,1.9v175.7c0,1.1,0.9,1.9,1.9,1.9h17c1.1,0,1.9-0.9,1.9-1.9V74.6
	C704,73.5,703.1,72.7,702,72.7z M700.1,248.4H687V76.6h13.1V248.4z"/>
<path d="M741.6,72.7h-17c-1.1,0-1.9,0.9-1.9,1.9v175.7c0,1.1,0.9,1.9,1.9,1.9h17c1.1,0,1.9-0.9,1.9-1.9V74.6
	C743.5,73.5,742.6,72.7,741.6,72.7L741.6,72.7z M739.6,248.4h-13.1V76.6h13.1L739.6,248.4z"/>
<path d="M781.1,72.7h-17c-1.1,0-1.9,0.9-1.9,1.9v175.7c0,1.1,0.9,1.9,1.9,1.9h17c1.1,0,1.9-0.9,1.9-1.9V74.6
	C783.1,73.5,782.2,72.7,781.1,72.7z M779.2,248.4h-13.1V76.6h13.1V248.4z"/>
<path d="M622.1,159.5c-1.1,0.1-1.9,1-1.8,2.1l1.1,13.1c0.1,1,0.9,1.8,1.9,1.8h0.2c1.1-0.1,1.9-1,1.8-2.1l-1.1-13.1
	C624.2,160.3,623.3,159.5,622.1,159.5C622.2,159.5,622.2,159.5,622.1,159.5z"/>
<path d="M621.6,155.4c1.1-0.1,1.9-1,1.8-2.1c0,0,0,0,0,0l-6.1-71.2c-0.1-1.1-1-1.9-2.1-1.8s-1.9,1-1.8,2.1l6.1,71.2
	c0.1,1,0.9,1.8,1.9,1.8H621.6z"/>
</svg>
