<?xml version="1.0" encoding="utf-8"?>
<!-- Generator: Adobe Illustrator 23.0.4, SVG Export Plug-In . SVG Version: 6.00 Build 0)  -->
<svg version="1.1" id="Слой_1" xmlns="http://www.w3.org/2000/svg" xmlns:xlink="http://www.w3.org/1999/xlink" x="0px" y="0px"
	 viewBox="0 0 826 826" style="enable-background:new 0 0 826 826;" xml:space="preserve">
<style type="text/css">
	.st0{fill:#F1F6F7;}
	.st1{fill:#D5E7F2;}
	.st2{fill:#F8CBC4;}
	.st3{fill:#FBECE9;}
	.st4{fill:#F9D5D0;}
</style>
<g>
	<polygon class="st0" points="204.9,78 183.4,108.3 201.7,108.3 	"/>
	<path class="st1" d="M784.9,89c-14.7,0-28,8.7-34,22.1c-0.3,0.7-1,1.1-1.7,1.1h-42.6l2.5,28.2h40.1c0.8,0,1.4,0.4,1.8,1.1
		c8.4,18.8,30.4,27.2,49.2,18.8c18.8-8.4,27.2-30.4,18.8-49.2C812.9,97.6,799.6,89,784.9,89L784.9,89z"/>
	<path class="st2" d="M594.8,604.2c-0.7-0.3-1.5-0.7-2.1-1l-1.7,1.1c-32.4,20.2-84.6,32.1-140.4,32.1c-64.7,0-124.3-16.3-153.7-41.8
		c-0.8-0.7-1.5-1.3-2.3-2L293,593c-18.6,6.1-38.1,9.1-57.7,9c-27.9,0-58.2-5.6-80.1-14.8l-3.5,33.1l-2.3,21.5l0,0
		c21.1,10.7,55.4,17.8,85.9,17.8c20.3,0,40.2-3.2,57.7-9.3l1.4-0.5c0.2-0.1,0.4-0.1,0.6-0.1c0.5,0,1,0.2,1.3,0.5
		c0.2,0.2,0.3,0.3,0.5,0.4c27.7,26.2,87.9,43.1,153.7,43.1c56.4,0,108.8-12.3,140.4-32.8l0.5-0.3c0.6-0.4,1.3-0.4,1.9-0.1
		c0.4,0.2,0.9,0.5,1.4,0.7c17.5,8.8,42,13.8,67.6,13.8c38.9,0,73.8-11.2,87.3-27.9l0,0l-4.6-51.8l0,0
		c-17.5,13.7-48.7,22.1-82.8,22.1C637,617.5,612.6,612.7,594.8,604.2z"/>
	<path class="st3" d="M296.8,656v54.2c27.7,26.2,87.9,43.1,153.7,43.1c56.4,0,108.8-12.3,140.4-32.8v-54.7
		c-32.4,20.2-84.6,32.1-140.4,32.1C385.8,697.8,326.2,681.5,296.8,656z"/>
	<path class="st3" d="M149,645.9l-5.5,52c20.2,12.5,57.7,21.1,91.8,21.1c20.3,0,40.2-3.2,57.7-9.3v-55.3c-18.6,6.1-38.1,9.1-57.6,9
		C204.3,663.5,170.9,656.7,149,645.9z"/>
	<path class="st3" d="M594.8,665.6v55.1c17.5,8.8,42,13.8,67.6,13.8c45.6,0,84.9-15.4,91.9-35.8l-4.1-46.2
		c-15.7,16-50,26.5-87.8,26.5C637,679,612.6,674.2,594.8,665.6z"/>
	<path class="st3" d="M705.4,142.3l-0.2-1.9l-2.5-28.2l-0.2-1.9l-0.2-1.9l-3.2-35.5H209.4l-3.7,35.5l-0.2,1.9l-0.2,1.9l-3,28.2
		l-0.2,1.9l-0.2,1.9l-46.3,439.1c21.5,9.2,51.9,15,79.7,15c20.3,0,40.2-3.2,57.7-9.3v-20.3c0-1.1,0.9-1.9,1.9-1.9s1.9,0.9,1.9,1.9
		v20.7c27.7,26.2,87.9,43.1,153.7,43.1c56.4,0,108.8-12.3,140.4-32.8v-98.3c0-1.1,0.9-1.9,1.9-1.9c1.1,0,1.9,0.9,1.9,1.9v98.6
		c17.5,8.8,42,13.8,67.6,13.8c34.1,0,66.3-9,82.4-22.9l-39.2-446.6L705.4,142.3z M296.8,559.8c0,1.1-0.9,1.9-1.9,1.9
		s-1.9-0.9-1.9-1.9v-15.4c0-1.1,0.9-1.9,1.9-1.9s1.9,0.9,1.9,1.9V559.8z M594.8,492.5c0,1.1-0.9,1.9-1.9,1.9c-1.1,0-1.9-0.9-1.9-1.9
		v-12.2c0-1.1,0.9-1.9,1.9-1.9c1.1,0,1.9,0.9,1.9,1.9V492.5z"/>
	<path class="st4" d="M197.9,144.2h-39.8L3.8,362.5c0.8,11.8,12.6,27.3,27.1,35.6c10.6,6,30.4,12,39.2,8.1l29.6-42
		c0.6-0.9,1.8-1.2,2.7-0.6s1.2,1.8,0.6,2.7c0,0.1-0.1,0.1-0.1,0.1l-29.7,42c0.8,2.1,3.6,7.8,4.1,8.7c2.4,4.1,5.2,7.9,8.5,11.3
		c15.4,15.9,36.2,25.5,58.3,26.8c7.3,0.4,14.6-0.7,21.3-1.7L197.9,144.2z M111,355l-4.3,6.1c-0.6,0.9-1.8,1.1-2.7,0.5
		c-0.9-0.6-1.1-1.8-0.5-2.7l4.3-6.1c0.6-0.9,1.8-1.1,2.7-0.5C111.4,353,111.6,354.2,111,355z"/>
	<path class="st1" d="M160.8,140.4h37.6l3-28.2h-65c-0.8,0-1.4-0.4-1.7-1.1c-8.4-18.8-30.4-27.2-49.2-18.8s-27.2,30.4-18.8,49.2
		c8.4,18.8,30.4,27.2,49.2,18.8c8.4-3.7,15.1-10.4,18.8-18.8c0.3-0.7,1-1.1,1.7-1.1H160.8L160.8,140.4z"/>
	<path d="M110.5,352.4c-0.9-0.6-2.1-0.4-2.7,0.5c0,0,0,0,0,0l-4.3,6.1c-0.6,0.9-0.4,2.1,0.5,2.7c0.9,0.6,2.1,0.4,2.7-0.5l4.3-6.1
		C111.6,354.2,111.4,353,110.5,352.4C110.5,352.4,110.5,352.4,110.5,352.4z"/>
	<path d="M784.9,85.2c-15.7,0-30.1,9-37,23.2h-41.7l-3.3-37.6c-0.1-1-0.9-1.8-1.9-1.8H207.6c-0.7,0-1.3,0.3-1.7,0.8l-27.2,38.6
		h-41.1c-9.9-20.4-34.5-29-54.9-19.1s-29,34.5-19.1,54.9c9.9,20.4,34.5,29,54.9,19.1c8.3-4,15-10.7,19.1-19.1h15.8L0.4,360.8
		C0.1,361.2,0,361.6,0,362c0.5,13.3,13,30.3,29,39.4c8.9,5.1,29.2,12.5,40.8,9c1.2,3,2.6,5.9,4.2,8.7c2.5,4.3,5.6,8.4,9,12
		c16.1,16.6,37.8,26.7,60.9,28c1.1,0.1,2.2,0.1,3.2,0.1c6-0.1,11.9-0.7,17.8-1.7l-15.7,148.7l-3.8,36.5l0,0l-5.9,55.9
		c-0.1,0.7,0.3,1.4,0.9,1.8c20.5,13.2,59.5,22.4,94.8,22.4c20.9,0,41.3-3.3,59.2-9.6c28.6,26.6,89.6,43.8,156,43.8
		c56.8,0,109.8-12.4,142.1-33.1h0.1c18,9.1,43.3,14.4,69.7,14.4c47.4,0,88.6-16.7,95.6-38.9c0.1-0.2,0.1-0.5,0.1-0.7l-4.5-51.1
		l-5-56.1l0,0l-39.3-447.3h38.5c9.9,20.4,34.5,29,54.9,19c20.4-9.9,29-34.5,19-54.9C815,94.2,800.6,85.2,784.9,85.2z M204.9,78
		l-3.2,30.3h-18.2L204.9,78z M136.4,140.4c-0.8,0-1.4,0.4-1.7,1.1c-8.4,18.8-30.4,27.2-49.2,18.8s-27.2-30.4-18.8-49.2
		c8.4-18.8,30.4-27.2,49.2-18.8c8.4,3.7,15.1,10.4,18.8,18.8c0.3,0.7,1,1.1,1.7,1.1h65l-3,28.2L136.4,140.4L136.4,140.4z
		 M144.1,455.4c-22.1-1.3-42.9-10.9-58.3-26.8c-3.3-3.4-6.1-7.2-8.5-11.3c-0.6-1-3.4-6.6-4.1-8.7l29.7-42c0.7-0.8,0.5-2-0.3-2.7
		s-2-0.5-2.7,0.3c0,0-0.1,0.1-0.1,0.1l-29.6,41.9c-8.7,3.8-28.6-2.1-39.2-8.1c-14.5-8.3-26.2-23.8-27.1-35.6l154.3-218.3h39.8
		l-32.5,309.4C158.7,454.7,151.4,455.8,144.1,455.4L144.1,455.4z M292.9,709.8c-17.4,6.1-37.3,9.3-57.7,9.3
		c-34.1,0-71.5-8.6-91.8-21.1l5.5-52c21.9,10.7,55.4,17.6,86.3,17.6c19.6,0.1,39.1-3,57.7-9.1V709.8z M590.9,720.4
		c-31.7,20.6-84.1,32.8-140.4,32.8c-65.8,0-126-16.9-153.7-43.1V656c29.4,25.5,89,41.8,153.7,41.8c55.9,0,108-12,140.4-32.1V720.4z
		 M754.2,698.7c-6.9,20.4-46.3,35.8-91.9,35.8c-25.7,0-50.2-5-67.6-13.8v-55.1c17.8,8.5,42.3,13.4,67.6,13.4
		c37.8,0,72.1-10.6,87.8-26.5L754.2,698.7z M745.1,595.4l4.6,51.8l0,0c-13.5,16.7-48.5,27.9-87.3,27.9c-25.7,0-50.2-5-67.6-13.8
		c-0.5-0.2-1-0.4-1.4-0.7c-0.6-0.3-1.3-0.3-1.9,0.1l-0.5,0.3c-31.7,20.5-84.1,32.8-140.4,32.8c-65.8,0-126-16.9-153.7-43.1
		c-0.2-0.1-0.3-0.3-0.5-0.4c-0.4-0.3-0.8-0.5-1.3-0.5c-0.2,0-0.4,0-0.6,0.1l-1.4,0.5c-17.4,6.1-37.3,9.3-57.7,9.3
		c-30.5,0-64.8-7.1-85.9-17.8l0,0l2.3-21.5l3.5-33.1c21.9,9.2,52.3,14.8,80.1,14.8c19.6,0.1,39.1-3,57.7-9l1.6-0.5
		c0.7,0.7,1.5,1.4,2.3,2c29.4,25.5,89,41.8,153.7,41.8c55.9,0,108-12,140.4-32.1l1.7-1.1c0.7,0.4,1.4,0.7,2.1,1
		c17.8,8.5,42.3,13.4,67.6,13.4C696.4,617.5,727.7,609.1,745.1,595.4L745.1,595.4z M744.7,590.8c-16.1,13.9-48.3,22.9-82.4,22.9
		c-25.7,0-50.2-5-67.6-13.8v-98.6c0-1.1-0.9-1.9-1.9-1.9c-1.1,0-1.9,0.9-1.9,1.9v98.3c-31.7,20.5-84.1,32.8-140.4,32.8
		c-65.8,0-126-16.9-153.7-43.1v-20.7c0-1.1-0.9-1.9-1.9-1.9s-1.9,0.9-1.9,1.9V589c-17.4,6.1-37.3,9.3-57.7,9.3
		c-27.9,0-58.2-5.8-79.7-15l46.3-439.1l0.2-1.9l0.2-1.9l3-28.2l0.2-1.9l0.2-1.9l3.7-35.5h489.8l3.1,35.5l0.2,1.9l0.2,1.9l2.5,28.2
		l0.2,1.9l0.2,1.9L744.7,590.8z M784.9,163.5c-14.7,0-28-8.7-34-22.1c-0.3-0.7-1-1.1-1.7-1.1h-40.1l-2.5-28.2h42.6
		c0.8,0,1.4-0.4,1.8-1.1c8.4-18.8,30.4-27.2,49.2-18.8c18.8,8.4,27.2,30.4,18.8,49.2C812.9,154.9,799.6,163.5,784.9,163.5
		L784.9,163.5z"/>
	<path d="M294.9,542.5c-1.1,0-1.9,0.9-1.9,1.9v15.4c0,1.1,0.9,1.9,1.9,1.9s1.9-0.9,1.9-1.9v-15.4
		C296.8,543.3,295.9,542.5,294.9,542.5z"/>
	<path d="M592.9,478.4c-1.1,0-1.9,0.9-1.9,1.9v12.2c0,1.1,0.9,1.9,1.9,1.9c1.1,0,1.9-0.9,1.9-1.9v-12.2
		C594.8,479.3,593.9,478.4,592.9,478.4z"/>
</g>
</svg>
