<?xml version="1.0" encoding="utf-8"?>
<!-- Generator: Adobe Illustrator 23.0.4, SVG Export Plug-In . SVG Version: 6.00 Build 0)  -->
<svg version="1.1" id="Слой_1" xmlns="http://www.w3.org/2000/svg" xmlns:xlink="http://www.w3.org/1999/xlink" x="0px" y="0px"
	 viewBox="0 0 826 826" style="enable-background:new 0 0 826 826;" xml:space="preserve">
<style type="text/css">
	.st0{fill:#E5D7C9;}
	.st1{fill:#BE9C79;}
</style>
<path class="st0" d="M544.7,37.4c-11.1,0-21.6,4.7-29,13c22,14.2,40.8,32.7,55.5,54.3c15.7-14.6,16.6-39.2,1.9-54.9
	C565.8,41.9,555.5,37.4,544.7,37.4z"/>
<path class="st0" d="M248.4,683.3c-12.6-28-31.5-51.1-53.2-65.1c-13.7-8.8-27.5-13.3-40.3-13.3c-6.2,0-12.3,1.1-18.1,3.3l0,0
	c-0.8,0.3-1.6,0.6-2.4,1c-37.1,16.7-46.2,77.1-20.3,134.6s77.1,90.8,114.1,74.1c3.1-1.4,6-3.1,8.7-5.1c0.1-0.1,0.2-0.3,0.4-0.4
	l1.5-1.1C266.8,788.7,271.6,734.9,248.4,683.3z"/>
<path class="st0" d="M626.6,618.2c-21.7,14-40.7,37.1-53.2,65.1c-23.2,51.5-18.3,105.2,9.5,127.9c0.7,0.5,1.3,1.1,2,1.6
	c2.7,2,5.6,3.7,8.7,5.1c6.5,2.9,13.5,4.3,20.5,4.3c33.7,0,72.2-30.9,93.6-78.4c25.9-57.5,16.8-117.9-20.2-134.5
	c-0.8-0.4-1.6-0.7-2.4-1l0,0c-5.8-2.2-11.9-3.3-18.1-3.3C654.1,604.9,640.3,609.4,626.6,618.2z"/>
<path class="st1" d="M544.7,33.6c23.6,0,42.7,19.1,42.6,42.7c0,12-5.1,23.5-14,31.6c5.4,8.4,10.2,17.2,14.2,26.3
	c32-23.6,38.9-68.7,15.3-100.8C579.2,1.4,534.1-5.4,502,18.2c-6.2,4.6-11.7,10.2-16.1,16.5c9.2,3.9,18.1,8.4,26.5,13.7
	C520.5,39,532.3,33.6,544.7,33.6z"/>
<path class="st1" d="M280.9,346.8l1.4,1.4l1.5,1.3c2,1.8,3.9,3.6,6,5.3c71,60.9,176.1,60.2,246.3-1.6c1.7-1.5,3.4-3,5-4.6
	c0.5-0.4,0.9-0.9,1.4-1.4l1.4-1.4c54.7-53.7,71.3-135.2,42-206l-0.8-1.6c-0.3-0.6-0.5-1.2-0.8-1.8c-4-9-8.6-17.8-14-26.1
	c-0.3-0.5-0.7-1.1-1-1.6s-0.7-1.1-1.1-1.6c-14.4-21.5-33.1-39.8-54.9-53.8l-1.6-1l-1.6-0.9c-8.4-5.2-17.2-9.7-26.4-13.4l-1.8-0.7
	l-1.8-0.7C459,28.4,436.5,24,413.8,23.8v66.9c0,1-0.8,1.9-1.9,1.9c-1,0-1.9-0.8-1.9-1.9v-67c-22.7,0.2-45.2,4.5-66.3,12.8l-1.8,0.7
	l-1.8,0.7c-9.1,3.8-17.9,8.3-26.3,13.4c-0.5,0.3-1.1,0.7-1.6,0.9l-1.6,1c-21.8,14-40.5,32.3-54.9,53.8c-0.4,0.5-0.7,1.1-1.1,1.6
	c-0.4,0.5-0.7,1-1,1.6c-5.3,8.3-10,17-14,26.1c-0.3,0.6-0.5,1.2-0.8,1.8s-0.5,1.2-0.7,1.8C208.5,211.1,225.5,293.1,280.9,346.8
	L280.9,346.8z M450.9,105.3c0.8-2.8,3.7-4.4,6.4-3.6l0,0l17.9,5.1l2.4,0.7l2.5,0.7l20.1,5.8c2.8,0.8,4.3,3.8,3.4,6.5
	c-0.8,2.7-3.6,4.2-6.3,3.5l-8.8-2.5l-3.2-0.9l-2.8-0.8l-28-8C451.8,110.9,450.1,108,450.9,105.3z M491.6,173
	c0,11-8.9,19.9-19.9,19.9s-19.9-8.9-19.9-19.9s8.9-19.9,19.9-19.9S491.6,162,491.6,173z M500.1,269.2c0,34.2-39.6,62.1-88.2,62.1
	s-88.2-27.9-88.2-62.1s39.6-62.1,88.2-62.1S500.1,235,500.1,269.2L500.1,269.2z M332.2,173c0-11,8.9-19.9,19.9-19.9S372,162,372,173
	s-8.9,19.9-19.9,19.9C341.2,192.9,332.2,184,332.2,173z M410,97.9c0-1,0.8-1.9,1.9-1.9c1,0,1.9,0.8,1.9,1.9v7.8c0,1-0.8,1.9-1.9,1.9
	c-1,0-1.9-0.8-1.9-1.9V97.9z M323.6,113.9l20.2-5.8l2.5-0.7l2.4-0.7l17.9-5.1c2.8-0.7,5.6,1,6.4,3.7c0.7,2.7-0.8,5.5-3.5,6.3l-28,8
	l-2.8,0.8l-3.2,0.9l-8.8,2.5c-2.8,0.7-5.6-1-6.4-3.7C319.5,117.5,321,114.8,323.6,113.9L323.6,113.9z"/>
<path class="st1" d="M50.8,498.7c-6.2,23.1,7.5,47,30.6,53.2c11.1,3,23,1.4,33-4.3l140.8-81.4l11.4-38.7c0.3-1,1.3-1.5,2.3-1.3h0.1
	c1,0.3,1.6,1.3,1.3,2.4l0,0L230,566.1l49.5-20.3c1-0.4,2.1,0,2.5,0.9c0.4,1,0,2.1-0.9,2.5c0,0-0.1,0-0.2,0.1l-126.8,51.8
	c13.8-0.2,28.5,4.5,43.2,13.9c22.3,14.4,41.7,38.1,54.6,66.7c20.3,45,19.5,91.8,0.9,119.5l113.4-80.9c0.9-0.6,2-0.4,2.6,0.4
	c0.6,0.9,0.4,2-0.4,2.6l-10.8,7.7h107.5l-10.7-7.7c-0.9-0.6-1.2-1.7-0.6-2.6c0.6-0.9,1.7-1.2,2.6-0.6c0.1,0,0.1,0.1,0.2,0.2
	L568.8,801c-18.4-27.7-19.1-74.4,1.1-119.4c12.9-28.7,32.3-52.4,54.6-66.7c14.6-9.4,29.4-14.1,43.2-13.9l-126.8-51.9
	c-1-0.4-1.5-1.4-1.1-2.4s1.4-1.5,2.4-1.1c0.1,0,0.1,0,0.2,0.1L597,568l-29.2-99.7c-0.1-0.2-0.2-0.4-0.2-0.7l-4.9-16.8
	c-0.3-1,0.3-2,1.3-2.3l0,0c1-0.3,2.1,0.3,2.4,1.3l4.8,16.4l140.7,81.2c20.8,12,47.3,4.9,59.3-15.9c12-20.8,4.9-47.3-15.9-59.3l0,0
	L544.5,350.7c-1.9,1.8-3.8,3.6-5.8,5.3c0.1,0.2,0.2,0.3,0.3,0.5l24.6,83.9c0.3,1-0.3,2.1-1.3,2.4l0,0c-0.2,0-0.3,0.1-0.5,0.1
	c-0.8,0-1.6-0.6-1.8-1.4l-24.3-82.8c-34.1,28.8-77.1,44.8-121.8,45.2v22.3c0,1-0.8,1.9-1.9,1.9l0,0c-1,0-1.9-0.8-1.9-1.9v-22.3
	c-43.8-0.4-86-15.8-119.8-43.6l-17.1,58.4c-0.2,0.8-1,1.4-1.8,1.4c-0.2,0-0.4,0-0.5-0.1h-0.1c-1-0.3-1.5-1.4-1.2-2.3l17.6-60
	c-2.3-2-4.6-4-6.8-6.1L71,472.3C61,478.1,53.8,487.6,50.8,498.7z M410,472.2c0-1,0.8-1.9,1.9-1.9l0,0c1,0,1.9,0.8,1.9,1.9v46.1
	c0,1-0.8,1.9-1.9,1.9l0,0c-1,0-1.9-0.8-1.9-1.9V472.2z M410,564.4c0-1,0.8-1.9,1.9-1.9l0,0c1,0,1.9,0.8,1.9,1.9v46.1
	c0,1-0.8,1.9-1.9,1.9l0,0c-1,0-1.9-0.8-1.9-1.9V564.4z M410,656.6c0-1,0.8-1.9,1.9-1.9l0,0c1,0,1.9,0.8,1.9,1.9v23.7
	c0,1-0.8,1.9-1.9,1.9c-1,0-1.9-0.8-1.9-1.9V656.6z"/>
<path class="st1" d="M250.6,107.9c-17.6-15.7-19.2-42.6-3.5-60.2s42.6-19.2,60.2-3.5c1.5,1.3,2.8,2.7,4.1,4.2
	c8.5-5.2,17.4-9.8,26.5-13.7C315,2.2,270.1-5.6,237.5,17.3s-40.3,67.9-17.3,100.5c4.5,6.3,9.9,11.9,16.2,16.5
	C240.4,125.1,245.2,116.3,250.6,107.9z"/>
<path class="st0" d="M496.3,269.2c0-24.4-21.8-45.3-52.6-54c-2.8,10.5-16.9,32.8-25.4,36.2c-1.4,0.6-3,0.9-4.5,1.1v75
	C459.5,326.8,496.3,301,496.3,269.2z"/>
<path class="st0" d="M240.3,76.3c0,10.8,4.5,21.1,12.4,28.4c14.6-21.7,33.5-40.2,55.5-54.3c-14.3-16-38.9-17.4-54.9-3
	C245,54.7,240.3,65.3,240.3,76.3z"/>
<path class="st0" d="M380.1,215.2c-30.8,8.7-52.6,29.6-52.6,54c0,31.7,36.8,57.6,82.5,58.3v-75c-1.6-0.2-3.1-0.5-4.5-1.1
	C397.1,248,383,225.8,380.1,215.2z"/>
<path d="M47.2,497.7c-6.7,25.2,8.2,51.1,33.4,57.8c12.1,3.2,25,1.5,35.8-4.7l137.3-79.3l-28.3,96.3l-90.4,37l-0.9,0.4l-0.6,0.2
	c0,0-0.1,0-0.1,0.1l-0.5,0.2c-39,17.6-48.9,80.2-22.2,139.6c22,48.9,62,80.6,97.2,80.6c7.6,0,15-1.5,21.9-4.6
	c4-1.8,7.8-4.1,11.2-6.9L352.4,735h118.1l110.3,79.3c3.5,2.8,7.2,5.1,11.3,7c6.9,3.1,14.4,4.6,21.9,4.6c35.2,0,75.2-31.7,97.2-80.6
	c26.7-59.4,16.8-122-22.1-139.6l-0.5-0.2c0,0-0.1,0-0.1-0.1l-0.6-0.2l-0.9-0.4l-85.9-35c0.1-0.3,0.1-0.7,0-1.1l-28.5-97.2
	l137.2,79.2c22.6,12.9,51.5,5,64.4-17.6C787,510.6,779.4,482,757,469L547.3,347.9c55.4-55,71.9-138.1,41.7-210.2
	c34.1-24.4,42-71.7,17.6-105.8s-71.7-42-105.8-17.6c-7.2,5.2-13.5,11.6-18.5,18.9c-45.2-17.8-95.5-17.8-140.7,0
	c-23.7-34.5-70.9-43.3-105.5-19.6s-43.4,70.9-19.7,105.5c5,7.3,11.2,13.6,18.4,18.8c-30.3,72.4-13.4,156,42.7,211L69.1,469
	C58.3,475.3,50.4,485.6,47.2,497.7z M238.8,811.3l-1.5,1.1c-0.2,0.1-0.3,0.2-0.4,0.4c-2.7,2-5.6,3.7-8.7,5.1
	c-37,16.7-88.2-16.6-114.1-74.1s-16.8-117.9,20.2-134.6c0.8-0.4,1.6-0.7,2.4-1l0,0c5.8-2.2,11.9-3.3,18.1-3.3
	c12.8,0,26.6,4.5,40.3,13.3c21.7,14,40.6,37.1,53.2,65.1C271.6,734.9,266.8,788.7,238.8,811.3z M685.1,608.2c0.8,0.3,1.6,0.6,2.4,1
	c37,16.7,46.1,77,20.2,134.5c-21.4,47.5-60,78.4-93.6,78.4c-7.1,0-14.1-1.4-20.5-4.3c-3.1-1.4-6-3.1-8.7-5.1c-0.7-0.5-1.4-1-2-1.6
	c-27.8-22.7-32.7-76.4-9.5-127.9c12.6-28,31.5-51.1,53.2-65.1c13.7-8.8,27.5-13.3,40.3-13.3C673.1,604.9,679.3,606,685.1,608.2
	L685.1,608.2z M544.7,4.2c39.8,0,72,32.3,72,72.1c0,22.8-10.8,44.3-29.2,57.9c-4-9.1-8.8-17.9-14.2-26.3
	c17.6-15.7,19.2-42.6,3.5-60.2s-42.6-19.2-60.2-3.5c-1.5,1.3-2.8,2.7-4.1,4.2c-8.5-5.2-17.4-9.8-26.5-13.7
	C499.4,15.6,521.3,4.3,544.7,4.2z M571.2,104.7c-14.6-21.7-33.5-40.1-55.5-54.3c14.1-16.2,38.7-17.8,54.8-3.7
	c16.2,14.1,17.8,38.7,3.7,54.8C573.3,102.7,572.3,103.7,571.2,104.7z M207.1,76.3c0-39.8,32.3-72,72.1-72
	c23.3,0,45.2,11.3,58.7,30.4c-9.2,3.9-18.1,8.4-26.5,13.7c-15.3-17.9-42.2-20.1-60.1-4.8s-20.1,42.2-4.8,60.1
	c1.3,1.5,2.6,2.9,4.1,4.2c-5.4,8.4-10.2,17.2-14.2,26.3C218,120.6,207.1,99.1,207.1,76.3z M308.2,50.4c-22,14.2-40.8,32.7-55.5,54.3
	c-15.8-14.5-16.9-39.1-2.4-54.9c14.5-15.8,39.1-16.9,54.9-2.4C306.2,48.4,307.2,49.4,308.2,50.4z M223.8,211.9
	c0-24.7,4.8-49.1,14.2-71.9c0.2-0.6,0.5-1.2,0.7-1.8c0.3-0.6,0.5-1.2,0.8-1.8c4-9,8.6-17.8,14-26.1c0.3-0.5,0.7-1.1,1-1.6
	s0.7-1.1,1.1-1.6c14.4-21.5,33.1-39.8,54.9-53.8l1.6-1c0.5-0.3,1.1-0.7,1.6-0.9c8.4-5.2,17.2-9.7,26.3-13.4l1.8-0.7l1.8-0.7
	c21.1-8.2,43.6-12.6,66.3-12.8v66.9c0,1,0.8,1.9,1.9,1.9c1,0,1.9-0.8,1.9-1.9v-67c22.7,0.2,45.2,4.5,66.3,12.8l1.8,0.7l1.8,0.7
	c9.1,3.8,18,8.3,26.4,13.4l1.6,0.9l1.6,1c21.8,14,40.5,32.3,54.9,53.8c0.4,0.5,0.7,1.1,1.1,1.6c0.4,0.5,0.7,1,1,1.6
	c5.3,8.3,10,17,14,26.1c0.3,0.6,0.5,1.2,0.8,1.8l0.7,1.8c29.3,70.8,12.7,152.4-42,206l-1.4,1.4c-0.5,0.5-0.9,0.9-1.4,1.4
	c-1.6,1.6-3.3,3.1-5,4.6c-70.2,61.8-175.3,62.5-246.3,1.6c-2-1.7-4-3.5-6-5.3l-1.5-1.3l-1.4-1.4
	C244.3,311.4,223.7,262.7,223.8,211.9z M280.3,351.5c2.2,2.1,4.5,4.1,6.8,6.1l-17.6,60c-0.3,1,0.2,2,1.2,2.3h0.1
	c0.2,0.1,0.4,0.1,0.5,0.1c0.8,0,1.6-0.6,1.8-1.4l17.1-58.4C324,388,366.3,403.4,410,403.8v22.4c0,1,0.8,1.9,1.9,1.9l0,0
	c1,0,1.9-0.8,1.9-1.9v-22.3c44.6-0.4,87.7-16.4,121.8-45.2l24.3,82.8c0.2,0.8,1,1.4,1.8,1.4c0.2,0,0.4,0,0.5-0.1l0,0
	c1-0.3,1.6-1.3,1.3-2.4l-24.6-83.8c-0.1-0.2-0.1-0.4-0.3-0.5c2-1.7,3.9-3.5,5.8-5.3l210.7,121.7c20.8,12,27.9,38.5,15.9,59.3
	s-38.5,27.9-59.3,15.9l-140.6-81.4l-4.8-16.4c-0.3-1-1.3-1.6-2.4-1.3l0,0c-1,0.3-1.6,1.3-1.3,2.3l4.9,16.8c0,0.2,0.1,0.5,0.2,0.7
	l29.2,99.7l-54.6-22.3c-1-0.4-2.1,0-2.5,0.9c-0.4,1,0,2.1,0.9,2.5c0,0,0.1,0,0.2,0.1l126.8,51.9c-13.8-0.2-28.5,4.5-43.2,13.9
	c-22.3,14.4-41.7,38.1-54.6,66.7c-20.2,44.9-19.5,91.6-1.1,119.4l-112.2-80.7c-0.8-0.7-2-0.6-2.7,0.3c-0.7,0.8-0.6,2,0.3,2.7
	c0.1,0.1,0.1,0.1,0.2,0.2l10.7,7.7H357.6l10.8-7.7c0.9-0.6,1.1-1.8,0.4-2.6c-0.6-0.9-1.8-1.1-2.6-0.4l-113.4,80.9
	c18.5-27.7,19.3-74.5-0.9-119.5c-12.9-28.7-32.3-52.4-54.6-66.7c-14.6-9.4-29.4-14.1-43.2-13.9l126.7-51.9c1-0.4,1.5-1.4,1.1-2.4
	s-1.4-1.5-2.4-1.1c-0.1,0-0.1,0-0.2,0.1l-49.5,20.3L270.1,429c0.3-1-0.3-2.1-1.3-2.4l0,0h-0.1c-1-0.2-2,0.3-2.3,1.3l-11.2,38.3
	l-140.8,81.3c-20.8,12-47.3,4.9-59.3-15.9c-12-20.8-4.9-47.3,15.9-59.3L280.3,351.5z"/>
<path d="M411.9,107.6c1,0,1.9-0.8,1.9-1.9v-7.8c0-1-0.8-1.9-1.9-1.9c-1,0-1.9,0.8-1.9,1.9v7.8C410,106.7,410.9,107.6,411.9,107.6z"
	/>
<path d="M411.9,470.3L411.9,470.3c1,0,1.9,0.8,1.9,1.9v46.1c0,1-0.8,1.9-1.9,1.9l0,0c-1,0-1.9-0.8-1.9-1.9v-46.1
	C410,471.2,410.9,470.3,411.9,470.3z"/>
<path d="M411.9,562.5L411.9,562.5c1,0,1.9,0.8,1.9,1.9v46.1c0,1-0.8,1.9-1.9,1.9l0,0c-1,0-1.9-0.8-1.9-1.9v-46.1
	C410,563.3,410.9,562.5,411.9,562.5z"/>
<path d="M411.9,682.2c1,0,1.9-0.8,1.9-1.9v-23.7c0-1-0.8-1.9-1.9-1.9l0,0c-1,0-1.9,0.8-1.9,1.9v23.7
	C410,681.3,410.9,682.2,411.9,682.2z"/>
<circle cx="471.7" cy="173" r="19.9"/>
<circle cx="352.1" cy="173" r="19.9"/>
<path d="M454.5,111.7l28,8l2.8,0.8l3.2,0.9l8.8,2.5c2.8,0.7,5.6-1,6.4-3.7c0.7-2.7-0.8-5.5-3.5-6.3l-20.1-5.8l-2.5-0.7l-2.4-0.7
	l-17.9-5.1c-2.8-0.7-5.6,1-6.4,3.7C450.3,108.2,451.8,110.9,454.5,111.7L454.5,111.7z"/>
<path d="M326.5,123.9l8.8-2.5l3.2-0.9l2.8-0.8l28-8c2.8-0.8,4.3-3.8,3.4-6.5c-0.8-2.7-3.6-4.2-6.3-3.5l-17.9,5.1l-2.4,0.7l-2.5,0.7
	l-20.2,5.8c-2.8,0.8-4.3,3.8-3.4,6.5C321,123,323.8,124.6,326.5,123.9L326.5,123.9z"/>
<path d="M323.8,269.2c0,34.2,39.6,62.1,88.2,62.1s88.1-27.8,88.1-62.1s-39.6-62.1-88.2-62.1S323.8,235,323.8,269.2z M410,327.5
	c-45.7-0.7-82.5-26.5-82.5-58.3c0-24.4,21.8-45.3,52.6-54c2.8,10.5,16.9,32.8,25.4,36.2c1.5,0.6,3,0.9,4.5,1.1V327.5z M413.8,252.5
	c1.6-0.2,3.1-0.5,4.5-1.1c8.4-3.5,22.6-25.7,25.4-36.2c30.8,8.7,52.6,29.6,52.6,54c0,31.7-36.8,57.6-82.5,58.3V252.5z"/>
</svg>
