<?xml version="1.0" encoding="utf-8"?>
<!-- Generator: Adobe Illustrator 23.0.4, SVG Export Plug-In . SVG Version: 6.00 Build 0)  -->
<svg version="1.1" id="Layer_1" xmlns="http://www.w3.org/2000/svg" xmlns:xlink="http://www.w3.org/1999/xlink" x="0px" y="0px"
	 viewBox="0 0 150 104.7" enable-background="new 0 0 150 104.7" xml:space="preserve">
<path fill="#DA4643" d="M132.1,48.2c-0.2,0.9-1.2,1.5-2.3,1.3l-32.6-7.2c-1-0.2-1.7-1.2-1.5-2.1l8.6-38.9c0.2-0.9,1.2-1.5,2.3-1.3
	l32.6,7.2c1,0.2,1.7,1.2,1.5,2.1L132.1,48.2z"/>
<path fill="#F39225" d="M108,51.6c0,1.1-1.2,1.9-2.7,1.9H59.2c-1.5,0-2.7-0.9-2.7-1.9V7.3c0-1.1,1.2-1.9,2.7-1.9h46.2
	c1.5,0,2.7,0.9,2.7,1.9V51.6z"/>
<g>
	<g>
		<g>
			<path fill="#E6E6E5" d="M148.1,12.1H46.6c-1.1,0-1.9,1-1.9,2.2c0,1.2,0.9,2.2,1.9,2.2h101.5c1.1,0,1.9-1,1.9-2.2
				C150,13.1,149.1,12.1,148.1,12.1z"/>
			<path fill="#E6E6E5" d="M141.7,29.8H51.6c-1.1,0-1.9,1-1.9,2.2c0,1.2,0.9,2.2,1.9,2.2h90.1c1.1,0,1.9-1,1.9-2.2
				C143.6,30.8,142.7,29.8,141.7,29.8z"/>
			<path fill="#E6E6E5" d="M134.9,47.5H55.5c-1.1,0-1.9,1-1.9,2.2c0,1.2,0.9,2.2,1.9,2.2H109h25.9c1.1,0,1.9-1,1.9-2.2
				C136.8,48.5,136,47.5,134.9,47.5z"/>
			<polygon fill="#E6E6E5" points="65.2,15.1 61.4,15.6 66.6,61.6 70.6,62.6 			"/>
			<polygon fill="#E6E6E5" points="80.5,15.4 76.7,15.7 79.5,63 83.5,62.2 			"/>
			<polygon fill="#E6E6E5" points="92,14.7 92,63.2 95.7,63 95.9,14.7 			"/>
			<polygon fill="#E6E6E5" points="109.8,14.6 102.5,63.7 106.6,62 113.5,15.3 			"/>
			<polygon fill="#E6E6E5" points="126.2,14.5 114.3,64 118.6,63 129.9,15.7 			"/>
			<polygon fill="#E6E6E5" points="142.4,13.8 126.6,61.6 130.4,63.4 146,15.3 			"/>
		</g>
	</g>
	<g>
		<path fill="#DA4643" d="M138.5,58.3H61.1L45.5,8.1c-0.2,2.7-2.6,3.2-5,3.6l15.9,51c0.4,1.3,1.5,2.1,2.6,2.1h79.3
			c1.6,0,2.8-1.4,2.8-3.2C141.3,59.8,140,58.3,138.5,58.3z"/>
		<path fill="#999999" d="M44.8,5.6c-0.9-0.8-2.1-1.3-3.5-1.3h-2.1H5c-2.8,0-5,2-5,4.5c0,2.5,2.2,4.5,5,4.5h36.3
			c0.2,0,0.4,0,0.6-0.1c2.3-0.3,4.1-1.9,4.4-4c0-0.1,0-0.3,0-0.4C46.3,7.5,45.7,6.4,44.8,5.6z"/>
	</g>
	<polygon fill="#DA4643" points="116.7,95.5 54.7,95.5 62.1,61.1 66,62.2 59.9,90.9 116.7,90.9 	"/>
	<g>
		
			<ellipse transform="matrix(0.9993 -3.837621e-02 3.837621e-02 0.9993 -3.5483 2.2927)" fill="#E6E6E5" cx="57.9" cy="93.6" rx="11.1" ry="11.1"/>
		<path fill="#F39225" d="M66.3,93.6c0,4.6-3.7,8.4-8.4,8.4c-4.6,0-8.4-3.7-8.4-8.4c0-4.6,3.7-8.4,8.4-8.4
			C62.6,85.2,66.3,89,66.3,93.6z"/>
	</g>
	<g>
		<path fill="#E6E6E5" d="M126.7,93.6c0,6.1-5,11.1-11.1,11.1c-6.1,0-11.1-5-11.1-11.1c0-6.1,5-11.1,11.1-11.1
			C121.7,82.4,126.7,87.4,126.7,93.6z"/>
		<path fill="#F39225" d="M123.9,93.6c0,4.6-3.7,8.4-8.4,8.4c-4.6,0-8.4-3.7-8.4-8.4c0-4.6,3.7-8.4,8.4-8.4
			C120.2,85.2,123.9,89,123.9,93.6z"/>
	</g>
</g>
</svg>
