<svg xmlns="http://www.w3.org/2000/svg" id="Слой_1" x="0" y="0" version="1.1" viewBox="0 0 17 15.9" xml:space="preserve"><style>.st1{fill:#6E191E}</style><path fill="#4E300E" d="M13.3 11l-.2.2c-.1-.1 0-.1 0-.2.1-.3.1-.5 0-.8-.2 0-.2.1-.2.2 0 .3 0 .5-.2.7h-.2c.2-.3.3-.5.3-.8-.2.1-.4.1-.6.2-.1.8-.7 1.2-1.4 1.5-.7.3-1.5.4-2.3.4H6.7c-.4 0-.8-.1-1.3-.2v-.1c.2 0 .4 0 .5.1 1.5.2 2.9.1 4.3-.3.4-.1.8-.3 1.1-.5.4-.2.6-.6.6-1-.1 0-.1.1-.1.1-1.1.8-2.3 1.3-3.6 1.4-.8.1-1.6 0-2.4.1l-.1-.1.1-.1c.5 0 1 0 1.5-.1 1.2-.1 2.3-.4 3.3-1 .8-.4 1.5-1 2.1-1.6l.6-.9c.5-.8.8-1.6 1-2.5 0-.2.1-.5.1-.7l-.1.1c-.2.1-.3.2-.5.3l-1.8.9c-.8.4-1.7.5-2.6.5-.7.1-1.5.2-2.3.2h-.2v-.1c.2 0 .3-.1.5-.1.9-.1 1.8-.1 2.8-.2.8-.1 1.7-.3 2.5-.6 0 0 .1 0 .1-.1-.1 0-.2 0-.3.1-.3.1-.6.1-.8.2H5.1C4 6 3 5.9 2.1 5.4c-.1-.1-.3-.2-.5-.2-.9-.5-1.1-1.6-.5-2.3.2-.2.3-.3.6-.4.3-.1.5-.2.7-.3.4-.2.7-.3 1.1-.4h.2l-.1.1c-.5.2-1 .4-1.4.6-.4.2-.7.4-1 .7-.2.1-.2.3-.2.6.6-.5 1.3-.8 2-1.1v.1c-.1.1-.3.2-.5.3-.1 0-.2.1-.2.1h-.1c-.2.2-.4.3-.6.4-.2.1-.3.2-.4.3-.1.1-.1.2-.1.2.1.1.1.3.2.4.5.5 1.1.8 1.8 1h.1v-.1c0-.2-.1-.4-.2-.6-.2-.6-.3-1.2.1-1.8.2-.4.5-.7.7-1.1 0-.2-.1-.4-.1-.6C3.7.7 4.2.1 4.8 0c.3 0 .5 0 .7.2l.6.6s.1.1.2.1c.7 0 1.4 0 2.2.1.2.1.3 0 .5-.2.3-.4.6-.7 1.1-.8.5 0 .9.2 1 .7.1.1.1.3.1.4v.4c.6 0 1.2.1 1.7.3.3.2.6.2.8.3.6.3 1.1.7 1.3 1.4.1.7.2 1.4.1 2.1.1-.1.2-.1.3-.2.6-.2.9-.2 1.2.4.7.9.3 2.2-.8 2.7-.3.1-.5.2-.8.3l-.9.3c.1.1.2.1.2.2.3.3.6.6.9 1 .5.8.5 1.5-.1 2.3-.5.7-1.1 1.1-1.8 1.6-1.3.8-2.6 1.3-4.1 1.6-1 .2-2 .2-3.1 0-.5-.1-1-.1-1.5-.3-1.6-.4-2.9-1.1-4-2.4-.5-.5-.7-1.2-.7-1.9.1-.7.4-1.2.8-1.7.4-.3.7-.5 1-.8C.4 7 .2 4.2.5 3.5v.3c-.1 1 .2 2 .6 2.9.5 1.1 1.1 2 1.9 2.9.3.3.5.6.8.9.2.2.4.4.6.5 0 0 0 .1.1.2h-.2c-.3-.3-.7-.5-1-.8-.5-.4-.9-.9-1.4-1.4-.5.7-1.2 1.4-1.3 2.4-.1.7.2 1.2.7 1.7.4.4.9.8 1.5 1 1.1.6 2.3 1.1 3.5 1.3 1.3.3 2.5.2 3.7-.2 1.4-.4 2.7-1 3.9-1.8.5-.3.9-.7 1.2-1.2.2-.3.3-.6.3-1 0-.5-.2-.9-.7-1v.7c0 .1-.1.2-.1.3h-.1v-.1c.2-.3.1-.6.1-.9 0-.1-.1-.2-.2-.2h-.2v.7c0 .1 0 .2-.1.2l-.1.1s-.1-.1 0-.1c0-.1.1-.1.1-.2v-.8c-.1 0-.2 0-.4.1 0 .2.1.3.1.5 0 .1 0 .3-.1.4-.2.2-.3.2-.4.1.2-.2.2-.5.2-.8 0-.2-.1-.2-.2-.1v.9zM3.2 14.7s-.1-.1 0 0l-.1-.1h-.2.1s.1 0 .2.1c-.1 0-.1 0 0 0zm-.6-.3c0-.1-.1-.1-.2-.1 0 0 .1 0 .2.1zM13.7 3.6c0-.1-.1-.1-.1-.2-.3-.3-.7-.4-1.2-.4 0-.1.1-.1.2-.1.4 0 .8.2 1.2.5.2.1.3.3.4.4.1-.6-.2-1.1-.8-1.3h-.1c-.5-.2-1-.3-1.5-.5-.1 0-.1 0-.2-.1s-.2-.1-.3-.2c-.1.1-.1.3-.1.4.2.3.4.6.7.9.1.2.2.5.2.7.1.5 0 .9-.2 1.4-.1.2-.2.5-.3.8.2 0 .3-.1.4-.1l.9-.3c.5-.2 1-.6 1.2-1.1.1-.1.1-.3 0-.4-.1-.2-.2-.3-.4-.4.1 0 .1 0 0 0zm-6 2.3h3.1c.1 0 .2 0 .2-.1.1-.1.2-.2.2-.3.3-.5.6-1 .6-1.5 0-.7-.3-1.3-.9-1.8 0 0-.1-.1-.1-.2.2-.4.2-.8 0-1.2-.2-.5-.6-.7-1.1-.4-.3.2-.5.5-.7.8 0 .1-.1.1-.2.1-.4 0-.8-.1-1.2-.1-.4 0-.8 0-1.2.1-.2-.1-.3 0-.3-.3V.9C5.9.8 5.7.6 5.6.4 5.3.3 5.1.2 4.8.2c-.6.1-1 .8-.9 1.4.1.3.2.4-.1.6-.2.2-.3.5-.5.7-.1.3-.2.5-.2.8-.1.7.2 1.3.6 1.8.1.1.2.2.3.2.4.1.9.1 1.3.1.8.1 1.6.1 2.4.1zm5.8 2.9c.3-.1.6-.1.8-.2.6-.1 1.1-.2 1.6-.4.8-.5 1.1-1.6.5-2.4-.2-.2-.5-.3-.7-.2-.4.2-.6.5-.8.9-.2.6-.5 1.2-.9 1.8-.2.1-.3.3-.5.5zm-13 3.6v-.2c-.1-.4-.1-.8 0-1.2.1-.6.5-1.1.8-1.6 0-.1.1-.1.1-.2h-.1c-.5.4-.9.9-1.1 1.5-.1.6 0 1.2.3 1.7zm2.1 2c0 .1.1.1.1.1.1-.1 0-.1-.1-.1zm-.3-.2zm.6.3c-.1 0-.1 0 0 0-.1 0-.1 0 0 0z"/><path d="M2.2 3.3h.1c.3-.1.5-.2.8-.3-.4.6-.3 1.2-.1 1.8.1.2.2.4.2.6v.1h-.1c-.6-.2-1.3-.5-1.7-1-.1-.1-.2-.2-.3-.4 0-.1 0-.2.1-.2.1-.1.3-.2.4-.3l.6-.3z" class="st1"/><path fill="#533514" d="M11.7 7c-.5.1-.9.3-1.4.3-.7.1-1.4.2-2.2.3 0 0-.1-.1-.2-.1.1 0 .2-.1.2-.1 1.1 0 2.1-.2 3.1-.5.1 0 .2 0 .3-.1.1.1.2.1.2.2 0-.1 0-.1 0 0z"/><path fill="#F1EDE7" d="M13.3 11v-.9c.1 0 .1 0 .2.1 0 .3 0 .6-.2.8z"/><path d="M13.8 3.6c.1.1.2.1.3.2.1.1.1.3 0 .4-.3.5-.7.9-1.2 1.1l-.9.3c-.1 0-.2.1-.4.1.1-.3.2-.5.3-.8.2-.4.3-.9.2-1.4-.1-.2-.1-.5-.2-.7.1.1.3.2.4.2h.1c.5.2.9.4 1.4.6-.1 0-.1 0 0 0z" class="st1"/><path fill="#F1EFEA" d="M.5 12.4c-.3-.6-.4-1.1-.2-1.7.2-.6.6-1.1 1.1-1.5h.1c0 .1-.1.1-.1.2-.4.5-.8 1-.9 1.6-.1.4-.1.8 0 1.2v.2z"/><path fill="#EBE1DE" d="M12.4 3c.4 0 .8.1 1.2.4.1 0 .1.1.1.2-.4-.2-.8-.4-1.3-.6z"/><path fill="#D0B6AE" d="M2.2 3.3l-.6.3.6-.3z"/><path fill="#C4B19A" d="M2.6 14.4c-.1 0-.1-.1-.2-.1.1 0 .1 0 .2.1zm0 0c.1 0 .1.1.2.1-.1 0-.1 0-.2-.1zm-.3-.2zm.7.4c-.1 0 0 0 0 0zm0 0c.1 0 .1 0 0 0 .1 0 .1 0 0 0 .1 0 0 0 0 0zm.2.1c-.1 0-.1 0 0 0-.1-.1-.1-.1 0 0-.1-.1 0 0 0 0zm0 0zm-.6-.4c0 .1 0 .1 0 0 0 .1 0 .1 0 0 0 .1 0 .1 0 0zm.3.2c-.1 0-.1 0 0 0-.1 0-.1 0 0 0zm0 .1c.1 0 0 0 0 0z"/><path fill="#711E23" d="M4.5 1.7c-.2 0-.3-.1-.2-.3.1-.2.3-.4.4-.6 0 0 .1-.1.2-.1.2.1.4.2.5.4 0 .1 0 .2-.1.2-.2.2-.5.3-.8.4z"/><path fill="#711D22" d="M10.5 1.7c-.3-.1-.5-.2-.8-.3-.1-.1-.1-.2 0-.3.1-.1.2-.3.4-.3.1 0 .2 0 .2.1.1.2.3.4.3.6.1.1 0 .2-.1.2z"/><path fill="#F3998F" d="M7.6 5.4c-.4 0-.6-.2-.8-.4v-.1H7c.2 0 .3.1.4.1.2 0 .4-.1.7-.1h.2v.2c-.3.1-.5.3-.7.3z"/><path fill="#FCDED3" d="M9.3 4.9c0 .1 0 .3-.2.3-.1-.1-.3-.2-.3-.3 0-.1.1-.2.2-.2s.3 0 .3.2z"/><path fill="#792D31" d="M6.2 4.1c-.2-.1-.4-.1-.6.1h-.2V4c.3-.2.6-.1.8.1z"/><path fill="#762D31" d="M8.6 4.1c.2-.2.6-.3.8-.1v.2h-.1C9 4 8.8 4 8.6 4.1z"/><path fill="#FCDED1" d="M6.1 4.9c-.1 0-.1.1-.2.1-.2 0-.2-.1-.2-.2s.1-.2.2-.2c0 .1.1.2.2.3 0-.1 0 0 0 0z"/><path fill="#762B2F" d="M9.6 5.1c.3 0 .5 0 .7.2 0 0 0 .1.1.1h-.1c-.3-.1-.5-.2-.7-.3z"/><path fill="#7C2E33" d="M4.3 4.6c.2.1.5.2.7.3-.3.1-.6 0-.7-.3z"/><path fill="#732228" d="M4.4 5h.7c-.2.1-.5.2-.7 0 0 .1 0 0 0 0z"/><path fill="#7D393E" d="M9.6 4.9c.2 0 .3-.1.5-.1h.1l-.1.1h-.5z"/><path fill="#7A353B" d="M9.6 4.8l.6-.3c-.1.1-.4.3-.6.3z"/><path fill="#7B353B" d="M4.5 5.4c.1-.1.3-.2.5-.3v.1c-.1.1-.3.2-.5.2z"/><path fill="#543817" d="M15.5 6.4c.1-.2.3-.2.4-.1.2.2.2.4.2.7-.1.5-.5.7-.9.9-.2.1-.3.2-.5.1.1-.1.1-.1.2-.1l.6-.3c.2-.1.4-.3.5-.6 0-.5-.1-.7-.5-.6z"/></svg>