<svg xmlns="http://www.w3.org/2000/svg" id="Layer_1" x="0" y="0" version="1.1" viewBox="0 0 80 80" xml:space="preserve"><style>.st1{fill-rule:evenodd;clip-rule:evenodd;fill:#770a00}</style><path fill="#fff" fill-rule="evenodd" d="M26.3 34.9c-1.1.3-2.2.5-3.6.5-2.9-.1-5.9-.7-8.1-1.6-1.7-.9-3.2-2.1-3.8-3.6-1-2.3-1.1-5.2.1-8.9 1-3 3.3-6.7 7.2-11.3.5-.7 2-1 3.8-.8 1.4.1 3 .5 4.8 1.3 1.7.8 3.5 1.8 5 3.3 3.3 3 5.8 8.1 5.7 15.7 1.7-3.7 1.4-7.2 1.1-9.6-.3-2.8-.5-5 .1-6.1.1-.2.2-.3.4-.5 1-1.2 2.6-2.1 4.2-2.5 1.7-.4 3.5-.3 4.8.5.2.1.3.2.4.3.9.8 1.3 1.8 1.7 2.8.3.8.7 1.5 1.2 2.1.7.6 1.7 1.1 2.7 1.5 1 .4 2 .9 2.8 1.6 3.5 3.3 3.7 5.8 2 7.8-1 1.2-3.5 1.8-6.4 2.3 4.1.2 8.2.7 11.4 1.3.1.8.1 1.5.1 2.3 0 17.7-14.4 32-32 32h-1.3c-1.4-4.1-2.9-7.5-4.6-10.4-2.3-4.1-4.7-7.2-7.3-10.1l-1.1-1.2 1-1.6c2.2-3 4.7-5.4 7.7-7.1z" clip-rule="evenodd"/><path d="M64 34.8c-5.9-1.1-13.8-1.8-21.5-1.1l4.7 28.7c-.3.2-.7.3-1 .5l-4.7-29.2-4.2.7v.1h-.1l-1.2.3 6.6 29.7-1 .3L35 35.1c-5.9 1.6-11.1 4.5-14.8 9 2.2 2.6 4.2 5.3 6.2 8.9 2 3.5 3.7 7.7 5.4 13.2h-1c-1.4-4.1-2.9-7.5-4.6-10.4-2.3-4.1-4.7-7.2-7.3-10.1l-1.1-1.2 1-1.6c2-2.9 4.5-5.3 7.4-7.1-1.1.3-2.2.5-3.6.5-2.9-.1-5.9-.7-8.1-1.6-1.7-.9-3.2-2.1-3.8-3.6-1-2.3-1.1-5.2.1-8.9 1-3 3.3-6.7 7.2-11.3.5-.7 2-1 3.8-.8 1.4.1 3 .5 4.8 1.3 1.7.8 3.5 1.8 5 3.3 3.3 3 5.8 8.1 5.7 15.7 1.7-3.7 1.4-7.2 1.1-9.6-.3-2.8-.5-5 .1-6.1.1-.2.2-.3.4-.5 1-1.2 2.6-2.1 4.2-2.5 1.7-.4 3.5-.3 4.8.5.2.1.3.2.4.3.9.8 1.3 1.8 1.7 2.8.3.8.7 1.5 1.2 2.1.8.6 1.8 1.1 2.8 1.5 1 .4 2 .9 2.8 1.6 3.5 3.3 3.7 5.8 2 7.8-1 1.2-3.5 1.8-6.4 2.3 4.1.2 8.2.7 11.4 1.3.1.8.1 1.5.1 2.3.1.3.1.4.1.6zM38.7 18.7c.3 3.2.9 7.4-.2 11.4 4.4-2.6 5.1-5.1 5.7-7.3.1-.5.3-1.1.5-1.6.4-1 1-1.8 1.6-2.4.4-.3 1-.5 1.4-.7.5-.1 1.1 0 1.6.2.8.3 1.6 1.1 2.4 2.1 2.7 3.6 3.3 5.5 2.2 7.1 2.3-.4 4-1.1 4.9-2.1.1-.2-.3-.9-2-2.4-.8-.7-1.8-1.2-2.8-1.6-1-.4-1.8-.9-2.6-1.5-.5-.5-.9-1.3-1.3-2.1-.4-1-.9-2-1.7-2.7-.1-.1-.3-.2-.4-.3-1.3-.9-3.2-1-4.8-.5-1.7.4-3.3 1.3-4.2 2.5-.1.2-.2.3-.3.5-.2.2-.2.7 0 1.4zm4.3 9.9c2.6-1 4.9-1.5 6.6-2s3-.7 3.7-1.2c0 0-.3-.5-1.5-2.2-.8-1.1-1.6-1.7-2.4-2.1-.5-.2-1.1-.3-1.6-.2s-1 .3-1.4.7c-.7.5-1.2 1.3-1.5 2.3-.2.5-.3 1-.5 1.5-.4 1-.7 2.1-1.4 3.2zm-14.1 3.5c.7-.3 1.3-.5 1.8-.8-1 0-2 .1-2.8.1-1.5.1-2.9.2-3.7 0-2.5-.5-3.9-1.3-4.4-2.2-1.4-2.6-.3-4.9 2.2-6.2 1.8-.9 4.5-1.4 7-1 3.5.5 7 2.9 8.1 8.5.2-5.8-2.3-10-5.4-13.1-1.5-1.4-3.3-2.5-5-3.3s-3.4-1.2-4.8-1.3c-1.8-.2-3.3.1-3.8.8-3.9 4.6-6.1 8.3-7.1 11.2-.4 1.5-.4 2.6-.1 3.5.7 1.6 2.1 2.7 3.8 3.6 2.3 1.1 5.1 1.5 8.1 1.6 2.4.2 4.3-.7 6.1-1.4zm6.9-2.4c-1.5-3-4.1-4.5-6.9-4.9-2.5-.4-5.1.1-7 1-1.1.5-2.3.4-2.2.7.4.9 1.7 1.6 4.4 2.2.9.1 2.2.1 3.7 0 1.3-.1 2.8-.1 4.1-.1 1.6 0 3 .2 3.9 1.1z" class="st1"/><path fill="#770a00" d="M32.8 1.3V3c2.4 0 4.8.3 7.1.8 8.1 1.9 14.9 6.8 19.3 13.9 4.4 7.1 5.7 15.4 3.8 23.5-3.3 14.1-15.7 24-30.2 24-2.4 0-4.8-.3-7.1-.8-8.1-1.9-14.9-6.8-19.3-13.9S.7 35.1 2.6 27C5.9 12.9 18.3 3 32.8 3V1.3m0 0C17.9 1.3 4.4 11.5.9 26.6-3.3 44.2 7.7 61.9 25.3 66c2.5.6 5.1.9 7.5.9 14.9 0 28.4-10.2 31.9-25.3C68.9 24 58 6.3 40.3 2.2c-2.5-.6-5-.9-7.5-.9z"/><path d="M13.7 74.8l-1.5-.7 2.4-4.8L9 72.6 7.8 72l3.6-7.3 1.4.8-2.4 4.8L16 67l1.2.7-3.5 7.1zm6.2.7c.2-.7.1-1.3-.5-1.7.7 0 1-.3 1.2-.9s.1-1.1-.2-1.5c-.3-.3-.8-.7-1.3-.9-1.4-.4-2.3-.2-2.8 1l1.3.4c.1-.4.5-.5 1.1-.3.5.2.8.5.7.9s-.3.4-.7.4c-.2 0-.4-.1-.9-.2l-.3 1c.4.1.8.3.9.4.3.2.4.5.3.9-.1.4-.5.5-1.3.2-.2-.1-.4-.2-.7-.4-.1-.2-.2-.4-.1-.7l-1.3-.4c-.2.7-.1 1.2.3 1.6.3.4.8.8 1.4 1 .7.2 1.2.3 1.7.2.6-.2 1-.5 1.2-1zm6.9 3l-1.4-.3 1.1-5.8 1.4.3-1.1 5.8zm-1.6-2.2c-.1.7-.4 1.1-1 1.3-.4.2-1 .2-1.6.1l-2.3-.4 1.1-5.8 1.4.3-.5 2.2c.7.1 1.1.2 1.4.3 1.3.3 1.7 1.1 1.5 2zm-2.3-1.1l-.7-.1-.2 1.3.8.1c.5.1.9 0 1-.4 0-.5-.3-.7-.9-.9zm11 1.5l-1.5-.1c-.2.7-.8 1-1.5.9-.4 0-.9-.2-1.2-.5-.3-.3-.4-.8-.4-1.3s.2-1 .4-1.3c.3-.3.7-.4 1.2-.4.8 0 1.2.3 1.5 1l1.4.1c-.1-.8-.4-1.3-1-1.7-.5-.4-1.1-.7-1.8-.7-.9 0-1.6.2-2.3.8-.5.5-.9 1.3-1 2.2 0 .9.2 1.6.8 2.3.5.7 1.3 1 2.2 1 .8 0 1.4-.1 2-.5.6-.5 1-1.1 1.2-1.8zm6 1.4l-1.7.2-2.3-2.6.3 2.8-1.4.1-.7-5.8 1.4-.1.3 2.7 1.7-2.9 1.6-.2-1.8 3 2.6 2.8zm6.3-1.6l-1.3-5.7-1.4.3.1.7c-.5-.4-1.2-.5-2-.3-.9.2-1.4.7-1.8 1.3-.4.7-.5 1.5-.3 2.3.2.9.7 1.5 1.3 2 .7.4 1.4.5 2.3.4.8-.2 1.3-.5 1.6-1.2l.1.7 1.4-.5zM44.1 74c.1.4 0 .9-.2 1.3s-.5.7-1.1.8c-.4.1-.9 0-1.3-.2-.4-.3-.7-.7-.8-1.1-.1-.4 0-.9.2-1.3s.5-.7 1.1-.8c.4-.1.9 0 1.3.2.5.3.7.7.8 1.1zm7.9.2l-1.4.5-.9-2.3-2.1.8.9 2.3-1.4.5-2.1-5.4 1.4-.5.9 2.2 2.1-.8-.9-2.2 1.4-.5 2.1 5.4zm5.5-3.2l-2.9-5-1.3.8 1.2 2-1.8 1.1-1.2-2-1.3.8 2.9 5 1.3-.8-1.2-2.1 1.8-1.1 1.2 2.1 1.3-.8zm6.1-5l-1.1 1-3.8-4.5 1.1-1 3.8 4.5zM61 66c.4.4.5 1 .3 1.5-.1.4-.4.9-1 1.3l-1.7 1.5-3.8-4.5 1.1-1 1.4 1.7c.5-.4.9-.8 1.1-.9 1-.6 1.8-.5 2.6.4zm-2.3 1l-.5.4.9 1 .5-.5c.4-.3.5-.8.2-1.1-.4-.3-.7-.3-1.1.2zm2.7-10.4c.3.3.5.7.7 1.2 0 .4-.1.9-.4 1.2-.3.3-.7.5-1.2.5-.4 0-.9-.1-1.2-.4l.7-.7c.2.1.3.2.5.2s.4-.1.5-.2c.1-.2.2-.3.2-.5s-.1-.4-.3-.5l.5-.8zm6.6 4.5l-4.5-3.8-.9 1 1.1 4.4-2.7-2.4-1 1.1 4.5 3.8.9-1-1.1-4.4 2.8 2.5.9-1.2zm5.3-8.3l-.8 1.3-4-2.3-1.1 1.8 4 2.3-.8 1.3-5-2.9 2.5-4.4c0 .1 5.2 2.9 5.2 2.9zm-2-3.3c.4.2.9.2 1.3 0 .4-.1.8-.4.9-1 .2-.4.2-.9 0-1.3s-.5-.7-1-.9c-.4-.2-1-.2-1.3-.1-.4.1-.8.4-.9 1-.2.4-.2.9 0 1.3s.6.7 1 1zM73 45c-.9-.3-1.6-.3-2.4 0-.8.3-1.3 1-1.6 1.7-.3.9-.3 1.6 0 2.4s.9 1.3 1.7 1.6c.9.3 1.6.3 2.4 0 .8-.3 1.3-.9 1.6-1.7s.3-1.6 0-2.4c-.1-.7-.8-1.3-1.7-1.6zm5.3-4.9l-.3 1.2-1.3-.3-.7 3.3 1.2.3-.2 1.3-2.4-.5.1-.7-4.1-2.6.3-1.5 4.9-.4.1-.7c0-.1 2.4.6 2.4.6zm-2.9 1.5l-3 .2 2.6 1.5c0 .1.4-1.7.4-1.7zm2.1-8.4l-.1 1.4h-.7c.5.4.8 1.1.7 1.8-.1.9-.4 1.5-1.1 2.1-.7.5-1.4.8-2.3.7-.9-.1-1.5-.4-2.2-1-.5-.5-.8-1.3-.8-2.2.1-.8.3-1.4 1-1.7h-.7l.1-1.4 6.1.3zm-2.9 1.2c-.5 0-1 .1-1.3.4-.3.3-.5.7-.7 1.2 0 .4.1.9.4 1.2s.8.5 1.2.5c.4 0 .9-.1 1.3-.4.4-.3.5-.7.7-1.2 0-.4-.1-.9-.4-1.2-.4-.2-.8-.5-1.2-.5zm-.5-8.3c.9-.1 1.5.1 2.2.7s1 1.2 1.1 2c.1.8-.1 1.4-.7 2l3.2-.2.1 1.4-8.4.7-.1-1.4h.8c-.7-.4-1-1-1-1.7-.1-.9.2-1.6.8-2.2.4-.9 1-1.2 2-1.3zm0 1.4c-.5 0-.9.2-1.2.5-.3.3-.4.8-.4 1.2 0 .4.2.9.7 1.1.3.3.8.4 1.3.3.5 0 .9-.2 1.2-.5.3-.3.4-.8.4-1.2 0-.4-.2-.9-.7-1.2-.4-.1-.7-.2-1.3-.2zm-.5-3.1c.5-.1.9-.3 1.1-.8.2-.3.3-.8.2-1.3s-.3-.9-.8-1.1-.9-.2-1.3-.1c-.5.1-.9.3-1.1.8-.2.3-.3.8-.2 1.3.1.5.3.9.8 1.1.3.1.7.2 1.3.1zm-1.2-4.6c-.9.2-1.5.7-2 1.4-.4.8-.5 1.5-.3 2.4s.7 1.5 1.3 2c.7.4 1.5.5 2.4.4.9-.2 1.5-.7 2-1.4.4-.7.5-1.5.3-2.4-.2-.9-.7-1.5-1.3-2-.7-.6-1.4-.7-2.4-.4zm.5-6.4l.7 1.6-2 2.9 2.6-1.1.5 1.3-5.4 2.2-.5-1.3 2.5-1-3.3-.7-.7-1.5 3.5 1c.1-.1 2.1-3.4 2.1-3.4z" class="st1"/></svg>