<svg xmlns="http://www.w3.org/2000/svg" id="Layer_1" x="0" y="0" version="1.1" viewBox="0 0 80 80" xml:space="preserve"><style>.st1{fill-rule:evenodd;clip-rule:evenodd;fill:#770a00}</style><path fill="#fff" fill-rule="evenodd" d="M41 44c.9-.4 1.9-1.1 2.3-1.3.1-.1.7-.4 1.2-.8-.2 0-.4 0-.7-.1-.8.9-1.9 1.6-2.8 2.2zm5.8-1.9c-.3.8-1.9 1.5-2.5 2-.5.4-1.2.9-1.8 1.3l.5-.2c.5-.3 1.1-.5 1.6-.9.8-.4 2.7-1.9 3.5-1.1l.1.1-.1.1c-.4 1.1-8 6.2-9.4 7.1-2.8 1.6-2-1.1-3.4-.5l-6.8 4.6c-3.1 2-6 4-9.1 6l-2 1.3c-1.9-1-3.7-2.2-5.4-3.5l.5-.3c1.9-1.1 3.6-2.2 5.5-3.3 2.4-1.5 4.9-3 7.3-4.5 1.6-1 3.3-2 4.9-3.1.5-.3 1.1-.7 1.6-1.1.1-.1.4-.3.7-.4-.1-.5-.3-1.1-.3-1.5 0-.8 1-1.3 1.5-1.6l3.9-2c-1.2-.4-2.4-1-3.5-1.5v3l-.1.2-.1.2H33c-.1.1-.1.2-.2.3l.3.2-.1.2c0 .1-.1.1-.1.2s-.1.1-.1.2-.1.1-.1.2c-1.6 1.3-2.5 1-2.6 1.9l-6.7.1c-.2-.7-1.3-.7-1.6-.7-8.5.3-16.7-4.6-16.7-14.8 0-7.1 6.8-14.9 14.9-14.9h.5c.1-5 1.8-9.7 4.3-13.6 2.3-.5 4.8-.9 7.3-.9 17.8 0 32.2 14.4 32.2 32.2v1.6c-4.5 4.6-10.7 7.3-17.5 7.4zm-6.1-.6l.3.1-1.8.9c.6-.4 1.1-.7 1.5-1zM26.5 65c1.6-1.2 3.1-2.2 3.7-2.6L40.6 55l-2-2c-1.2.5-2.4 1.4-3.5 2.1-2.5 1.4-5 3-7.4 4.4-2.3 1.3-4.6 2.6-6.8 4 1.8.6 3.6 1.2 5.6 1.5zm12.9-12.6c1.4-1 2.8-1.9 4.4-2.8l9.2-5.9c.3-.2 2.1-1.4 2.4-1.2.3.2.3 1.8.3 2 0 1.8-1.6 4.2-2.8 5.3-.3.3-.5.5-.9.8-1.4 1.4-3.1 2.6-4.7 3.8-.3.2-2.3 1.5-2.6 1.5-.4-.1-2.7-1.2-3.1-1.4-.8-.6-1.5-1.3-2.2-2.1z" clip-rule="evenodd"/><path d="M58.9 14c.1.5.1 1.2.1 1.9 0 3.3-1.3 6.3-3.5 8.4-2.2 2.2-5.1 3.5-8.4 3.5-3.3 0-6.3-1.3-8.4-3.5-2.2-2.2-3.5-5.1-3.5-8.4s1.3-6.3 3.5-8.4c2-2.1 4.9-3.5 8.1-3.5.5.2 1 .5 1.5.8-.4 0-.9-.1-1.3-.1-3.1 0-5.9 1.2-8 3.3-2.1 2.1-3.3 4.8-3.3 8 0 3.1 1.2 5.9 3.3 8 2.1 2.1 4.8 3.3 8 3.3 3.1 0 5.9-1.2 8-3.3 2.1-2.1 3.3-4.8 3.3-8 0-1.1-.1-2.2-.4-3.2.2.4.5.8 1 1.2zm-5.1 36.4c1.4-1.5 3-3.7 3.2-5.9.1-1 .1-2.4-.9-3-.9-.4-2.3.8-3 1.3-3.6 2.5-7.3 4.7-11.1 7.1-5.5 3.5-11.1 6.7-16.6 10l-4.9 3c.3.1.5.2.9.3 2.3-1.3 4.6-2.7 6.8-4 2.5-1.4 5-3 7.4-4.4 1.1-.7 2.4-1.4 3.5-2.1l2 2-10.4 7.4c-.7.4-2.1 1.4-3.7 2.6.4.1.8.1 1.2.2 1.1-.8 2.2-1.6 3.4-2.4l8.3-5.9c.2-.2 1.6-1.3 2-1.3.1 0 .4.2.5.2 3 1.4 3.3 1.3 5.9-.5 1.8-1.4 3.9-3 5.5-4.6zM18.2 61.7l2-1.3c3.1-2 6-4 9.1-6l6.9-4.5c1.4-.5.5 2.1 3.4.5 1.4-.8 9-6 9.4-7.1l.1-.1-.1-.1c-.8-.7-2.7.8-3.5 1.1-.5.2-1.1.5-1.6.9l-.5.2c.5-.4 1.2-.9 1.8-1.3.7-.4 2.1-1.2 2.5-2.1 6.8-.1 12.9-2.8 17.5-7.2V32c-.3.3-.5.7-.9 1-4.4 4.4-10.4 7-17 7h-.8v-.1l.1-.1-.1-.1c-.7-.5-1.3-.2-1.9.2-.3 0-.8-.1-1.1-.1.8-.7 1.3-1.2 1.4-1.5v-.1l-.2-.2c-.7-.5-2.7.8-3.4 1.1l-.3.2c-2-.5-3.8-1.3-5.6-2.2.1-1 .3-2 .5-3 3.3 2 7.1 3.2 11.2 3.2 5.9 0 11.2-2.4 15-6.2.9-.9 1.8-2 2.5-3.1-.1-.4-.1-.9-.2-1.3-.9 1.3-1.9 2.5-3 3.6-3.7 3.7-8.8 5.9-14.3 5.9-4 0-7.8-1.2-10.9-3.2.4-1.4 1-2.6 2.1-3.6h-3c-.2-5.7-3.6-10.6-8.5-12.9v-.7c0-5.6 2.3-10.7 5.9-14.3l.8-.8H32l-.1.1c-3.8 3.8-6.2 9.2-6.2 15v.2c-.9-.3-1.9-.7-2.8-.8.1-5.4 2-10.4 5.1-14.3-1 .1-1.8.3-2.7.5C22.7 5.3 21.1 9.9 21 15h-.9C12 15 5.2 22.8 5.2 29.9 5.3 40 13.5 45 22 44.6c.3 0 1.5 0 1.6.7l6.5-.1c.1-.9 1.1-.5 2.6-1.9 1.2-1.3 1.6-3 2.1-4.7 1.1.5 2.3 1.1 3.5 1.5l-3.9 2c-.5.3-1.4.9-1.5 1.6 0 .4.3 1 .3 1.5-.2.1-.4.3-.7.4-.5.3-1.1.7-1.6 1.1-1.6 1-3.3 2-4.9 3.1-2.4 1.5-4.9 3-7.3 4.5-1.8 1.1-3.6 2.2-5.5 3.3l-.5.3c.2.1.4.3.7.4 3.1-1.9 6.1-3.7 7-4.3l6.9-4.3c1.1-.7 2.2-1.3 3.4-2 .7-.4 2.7-1.8 3.2-2.1.7.7 1 1.8 2.1 2.4l.2.1.1-.2c.3-.8-2.3-3.3-2.4-4.4.1-.9 4.4-2.6 5.1-3.1.5-.3 2.6-1.3 3.8-1.9-2 1.5-6.1 4.3-6.3 5.1v.2h.2c.7.1 3.9-1.9 4.6-2.2.7-.3 2.6-1.5 3.7-2-1.3 1.4-6.3 3.9-6.9 5.5l-.1.2.2.1c.5.3 1.9-.7 2.4-1 1.1-.5 2.1-1.1 3.2-1.6.4-.2 1.8-1 2.6-1.4-1.6 1.4-6.6 4.4-7 5.5l-.1.5h.2c.5.1.8-.2 1.3-.4 1.2-.7 2.4-1.2 3.6-1.9.8-.4 1.6-.9 2.4-1.2l-1.6 1.4c-.5.4-6.3 5-7.2 4.3-.4-.3-.3-.9-1.3-1-.8-.1-12.4 7.8-13.6 8.6-1.9 1.3-3.8 2.5-5.7 3.8.2.4.4.5.8.7zm23.1-20.5l.3.1.5-.3-2.3 1.2c.6-.4 1-.7 1.5-1zm3.1.5c.2 0 .4 0 .7.1-.5.3-1.1.7-1.2.8-.4.2-1.4.9-2.3 1.3.9-.7 2-1.5 2.8-2.2zm1.2-.3c.1 0 .2-.1.3-.1 0 0-.2.1-.3.1zm1.2-.4h.2-.2zm.3 0s.1 0 0 0c.1 0 0 0 0 0zm.1 0c.1 0 .1 0 0 0 .1 0 .1 0 0 0zm-7.3 11.1c1.4-1 2.8-1.9 4.4-2.8l9.2-5.9c.3-.2 2.1-1.4 2.4-1.2.3.2.3 1.8.3 2 0 1.8-1.6 4.2-2.8 5.3-.3.3-.5.5-.9.8-1.4 1.4-3.1 2.6-4.7 3.8-.3.2-2.3 1.5-2.6 1.5-.4-.1-2.7-1.2-3.1-1.4-.7-.5-1.5-1.3-2.2-2.1zm-16.4-8.6c-4.5-2-2.5-9.1-5.8-12.8h17.9c-2.7 4.2-1.1 10.9-5.6 12.8h-6.5zm10-14h-5c-.3-4.3-3.8-7.7-8.2-7.7-5.5 0-9.3 5.1-7.9 10.3-.5.5-.9 1.4-.8 2.7.2 6.5 5 2.4 7.7 5.6.3 1 .7 2 1.3 2.7-7.4 0-13.6-4.9-13.5-13.2 0-7.3 6-13.2 13.2-13.2 7.2.1 13 5.7 13.2 12.8zm-19.9 2c-.9-4.3 2.3-8.2 6.7-8.2 3.6 0 6.6 2.7 6.8 6.3l-11.3.1c.8.9 1.3 1.9 1.6 2.8-.9-.8-2.5-1.4-3.8-1zm5.1 6.8c-2.4-1.6-5.6.8-5.8-3.9 0-2.6 3.7-1.3 5.1.3.4 1.2.5 2.4.7 3.6z" class="st1"/><path fill="#770a00" d="M32.7 1.8c2.4 0 4.8.3 7.2.9 16.6 4 26.8 20.7 22.9 37.3-3.3 14-15.7 23.7-30 23.7-2.4 0-4.8-.3-7.2-.9-16.7-4-26.9-20.7-22.9-37.3C6 11.6 18.3 1.8 32.7 1.8m0-1.8C17.9 0 4.5 10.1.9 25.1c-4.2 17.6 6.6 35.2 24.2 39.4 2.6.6 5.1.9 7.6.9 14.8 0 28.2-10.1 31.8-25.1C68.7 22.7 57.9 5.1 40.3.9 37.8.3 35.2 0 32.7 0z"/><path d="M10.5 73.6l-1.3-.9 1.8-2.6c-.5-.2-1-.4-1.3-.5-.7-.4-1.1-1-1.2-1.6-.1-.7 0-1.3.5-2l1.4-2.2 1.3.9-1.4 2.2c-.4.7-.3 1.2.3 1.6.3.2.8.4 1.1.4l2-3 1.3.9c0 .1-4.5 6.8-4.5 6.8zm6.7 2.8l2.2-5.5-1.3-.4-.3.5c-.2-.7-.7-1.1-1.4-1.4-.8-.3-1.5-.3-2.3 0-.8.3-1.3.9-1.6 1.8-.3.8-.3 1.6-.1 2.4.3.8.9 1.3 1.6 1.6.8.3 1.4.2 2.1-.1l-.2.5 1.3.6zm-.2-3.2c.2-.4.2-.9 0-1.4-.2-.4-.4-.8-1-1-.4-.2-.9-.2-1.3 0s-.8.5-.9 1c-.2.4-.2.9 0 1.3.1.4.4.8.9 1 .4.2.9.1 1.3 0 .5-.1.9-.5 1-.9zm8.1-3c-.1.4-.3.9-.8 1.1-.4.2-.8.3-1.3.2-.4-.1-.8-.3-1-.8-.2-.4-.3-.9-.2-1.3l.9.2c0 .2 0 .4.1.7.1.2.2.3.4.4.2 0 .4 0 .5-.1.2-.1.3-.3.3-.5.1 0 1.1.1 1.1.1zm-.9 8l-1.4-.3.9-3.6-3.4 3L19 77l1.3-5.7 1.4.3-.9 3.6 3.4-3 1.3.3-1.3 5.7zm6.3.7L31 73l-1.4-.1-.2 2.3-2.3-.2.2-2.3-1.4-.1-.4 5.9 1.4.1.2-2.4 2.2.2-.3 2.4 1.5.1zm2.2-3c0 .5.2.9.5 1.2s.8.4 1.2.4c.5 0 .9-.2 1.2-.5.2-.3.4-.8.3-1.3 0-.5-.2-1-.5-1.2-.3-.3-.8-.4-1.2-.4-.5 0-.9.2-1.2.5-.2.5-.3.9-.3 1.3zm4.8-.3c.1.9-.2 1.6-.8 2.3-.5.7-1.3 1-2.2 1.1-.9.1-1.8-.1-2.3-.7-.7-.5-1-1.3-1.1-2.2-.1-.9.2-1.6.8-2.3.5-.7 1.3-1 2.2-1.1.9-.1 1.6.2 2.3.7.7.6 1 1.2 1.1 2.2zm3.9-.1l-2.9.5-.2-1.4 2.8-.5.3 1.4zm6.2-1.4l-1.4.4c-.1.7-.4 1.1-1.2 1.3-.4.1-.9.1-1.3-.2-.4-.2-.7-.7-.8-1.1-.1-.5-.1-1 .1-1.3.2-.4.5-.7 1-.8.7-.2 1.3 0 1.8.5l1.4-.4c-.3-.7-.9-1.1-1.4-1.4-.5-.2-1.3-.2-2 0-.9.2-1.5.8-2 1.4-.4.7-.4 1.5-.2 2.4s.8 1.5 1.4 2c.8.4 1.5.5 2.4.2.8-.2 1.3-.5 1.6-1.1.5-.5.7-1.2.6-1.9zm3.4-4.4l-1.2.5 1.9 4.3-1.3.5-1.9-4.3-1.2.5-.5-1.1 3.8-1.8c0 .2.4 1.4.4 1.4zm2.4.5c.2.4.7.7 1.1.9.4.1.9 0 1.3-.2s.7-.7.8-1.1c.1-.4 0-.9-.3-1.3s-.7-.8-1.1-.9c-.4-.1-.9 0-1.3.2s-.7.7-.8 1.1c0 .5.1.9.3 1.3zm4.2-2.6c-.4-.8-1.1-1.2-2-1.4s-1.6 0-2.4.4c-.8.4-1.2 1.1-1.4 2-.2.8-.1 1.6.4 2.4.4.8 1.1 1.2 2 1.4.8.2 1.6 0 2.4-.4.8-.4 1.3-1.1 1.4-2 .1-.7 0-1.5-.4-2.4zm6-1.3l-1.1 1-3.6-2.2 1.5 3.9-1.1 1-2.2-5.8 1.1-.9c0 .1 5.4 3 5.4 3zm-.9-3.2c.3.3.8.5 1.2.5.4 0 .9-.2 1.2-.5s.4-.8.4-1.2c0-.4-.2-.9-.7-1.2s-.8-.5-1.2-.5c-.4 0-.9.2-1.2.5s-.4.8-.4 1.2.3.9.7 1.2zm3.2-3.6c-.7-.5-1.4-.9-2.3-.8-.9.1-1.5.4-2.2 1.1-.5.7-.9 1.4-.9 2.3s.3 1.5 1 2.2c.7.7 1.4.9 2.3.9s1.5-.4 2.2-1.1c.7-.7.9-1.4.9-2.3.1-1-.4-1.6-1-2.3zm4.1-3.7c.9.7.9 1.6 0 3l-1.4 2-4.8-3.4 1.4-2c.8-1.1 1.6-1.4 2.5-.8.4.3.7.8.5 1.3.6-.5 1.3-.5 1.8-.1zm-3 0c-.3-.2-.7-.1-1 .3l-.4.7 1 .8.4-.7c.3-.6.3-.9 0-1.1zm2.1 1.2c-.4-.3-.8-.2-1.1.3l-.5.8 1.1.8.5-.8c.3-.4.3-.8 0-1.1zm5.4-6.5l-5.3-2.6-.7 1.3.5.3c-.7.1-1.2.5-1.5 1.3-.4.8-.4 1.5-.1 2.3.3.8.9 1.3 1.6 1.8s1.5.4 2.4.2c.8-.2 1.3-.8 1.8-1.5.3-.7.3-1.4.1-2.1l.7.3c.1.1.5-1.3.5-1.3zm-3.3 0c.4.2.7.5.9 1 .2.4.1.9 0 1.3-.2.4-.5.7-1 .9-.4.1-.9.1-1.3-.1s-.8-.5-.9-1c-.2-.4-.1-.9.1-1.3s.5-.8 1-.9c.4-.1.8-.1 1.2.1zm5.1-5.3l-.4 1.4-2.4-.8 1.9 2.5-.7 1.7-1.6-2.4c-.5.9-1.2 1.2-2.1.9-.5-.2-1-.5-1.1-1.1-.1-.4-.1-1 .1-1.6l.8-2.3c0-.1 5.5 1.7 5.5 1.7zm-3.6.3l-1.4-.4-.3.7c-.2.5 0 .9.3 1 .4.1.8-.1 1-.7 0 .1.4-.6.4-.6zm3-10.9c.7.2 1.2.7 1.5 1.2.3.5.4 1.2.4 2-.1.9-.4 1.6-1.1 2.1-.7.5-1.4.8-2.3.7-.9-.1-1.6-.4-2.2-1.1s-.8-1.4-.7-2.3c.1-.8.3-1.4.8-1.9s1.1-.8 1.9-.9l-.2 1.4c-.7.2-1 .7-1.1 1.4-.1.5.1.9.3 1.2.3.3.8.5 1.2.5.5.1 1 0 1.3-.3.3-.2.5-.7.7-1.1.1-.8-.2-1.3-.8-1.6.1 0 .3-1.3.3-1.3zm.1-4.6c.3.1.5.2.7.5.1.2.1.4.1.8 0 1-.4 1.5-1.3 1.8l-.2-4.7c-.7 0-1.2.1-1.6.3-.7.2-1.1.7-1.4 1.2-.3.5-.4 1.1-.4 1.8 0 .9.3 1.5 1 2.2.7.5 1.4.8 2.3.8s1.6-.3 2.2-1c.5-.5.9-1.3.8-2.3-.3-1.4-1-2.4-2.4-2.8l.2 1.4zm-1.7-.2l.1 3.2c-.9-.2-1.3-.8-1.3-1.5 0-1 .4-1.5 1.2-1.7zm-.7-8.1c.9-.1 1.6 0 2.3.4.7.4 1.1 1 1.3 1.9.1.8 0 1.4-.4 2l3.1-.5.3 1.4-8.3 1.5-.3-1.4.7-.1c-.7-.3-1.1-.9-1.2-1.6-.2-.9 0-1.6.5-2.3.5-.8 1.2-1.1 2-1.3zm.3 1.4c-.4.1-.9.3-1.2.8-.3.3-.3.8-.3 1.3.1.4.3.8.8 1.1.4.2.9.3 1.3.2.4-.1.9-.3 1.2-.7.3-.3.3-.8.3-1.3-.1-.4-.3-.8-.8-1.1-.5-.3-.9-.4-1.3-.3zm.6-8l-5.6 1.8.4 1.3 4.3 1.3-3.5 1.1.4 1.4 5.6-1.8-.4-1.3-4.4-1.3 3.6-1.1-.4-1.4zm-2.6-5l.7 1.3-2.4 1.1 3.1.5.8 1.5-2.9-.6c.2 1-.1 1.8-.9 2.1-.5.2-1.1.2-1.5 0-.4-.2-.8-.7-1.1-1.2l-1.1-2.2 5.3-2.5zm-2.4 2.7l-1.3.6.3.8c.2.5.5.7 1 .4.4-.2.5-.7.3-1.2l-.3-.6z" class="st1"/></svg>