<svg xmlns="http://www.w3.org/2000/svg" id="Layer_1" x="0" y="0" version="1.1" viewBox="0 0 80 80" xml:space="preserve"><style>.st0{fill:#692721}</style><path d="M56.5 11.2C50.8 5.6 43 2 34.3 2 25.7 2 17.7 5.6 12 11.2S2.8 24.7 2.8 33.5 6.4 50 12 55.7s13.5 9.2 22.2 9.2c8.6 0 16.6-3.5 22.2-9.2s9.2-13.5 9.2-22.2-3.4-16.6-9.1-22.3zM34.3 0c9.2 0 17.6 3.7 23.6 9.8s9.8 14.4 9.8 23.6S63.9 51 57.9 57s-14.4 9.8-23.6 9.8S16.7 63 10.7 57 .9 42.6.9 33.4s3.7-17.6 9.8-23.6S25.1 0 34.3 0z" class="st0"/><path d="M34.4 16.1c3 0 5.8.8 8.5 2.3 2.7 1.5 5 3.6 6.5 6.5 1.6 2.8 2.3 5.7 2.3 8.7 0 3-.8 5.9-2.3 8.6-1.5 2.7-3.6 4.9-6.5 6.5-2.7 1.5-5.7 2.3-8.6 2.3-3.1 0-5.9-.8-8.6-2.3-2.7-1.5-4.9-3.6-6.5-6.5-1.5-2.7-2.3-5.7-2.3-8.6 0-3.1.8-5.9 2.4-8.7 1.6-2.8 3.7-4.9 6.5-6.5 2.8-1.6 5.6-2.3 8.6-2.3zm0 2.9c-2.5 0-4.9.7-7.1 1.9-2.3 1.2-4.1 3.1-5.4 5.3-1.2 2.3-1.9 4.8-1.9 7.3s.7 4.9 1.9 7.1c1.2 2.3 3.1 4.1 5.3 5.3s4.7 1.9 7.3 1.9c2.5 0 4.9-.7 7.1-1.9 2.3-1.2 4.1-3.1 5.3-5.3s1.9-4.7 1.9-7.1c0-2.5-.7-4.9-1.9-7.3-1.2-2.3-3.1-4.1-5.4-5.3-2.3-1.3-4.7-1.9-7.1-1.9zm-7.7 24V24.4h6.5c2.2 0 3.7.2 4.8.6 1 .3 1.8.9 2.4 1.8s.9 1.8.9 2.7c0 1.4-.5 2.6-1.5 3.5-1 1-2.3 1.6-3.9 1.7.7.2 1.2.6 1.6 1 .8.7 1.7 1.9 2.7 3.7l2.3 3.6h-3.6l-1.7-3c-1.2-2.3-2.4-3.7-3.2-4.3-.6-.5-1.4-.7-2.4-.7h-1.8v7.9h-3.1v.1zm3-10.4h3.6c1.7 0 3-.2 3.6-.8.7-.6.9-1.2.9-2 0-.6-.1-1-.5-1.5-.3-.5-.7-.8-1.2-1-.6-.2-1.6-.3-3.1-.3h-3.4v5.6zM11.4 71.1c-.5.6-1 .9-1.8.9s-1.5-.1-2-.6c-.7-.5-1-1-1.2-1.8-.2-.8-.1-1.5.3-2.2l1.4 1c-.2.3-.2.6-.2.9-.1.5.1.7.4.9.3.2.6.3.9.2.3 0 .6-.2.8-.5.2-.3.3-.7.2-.9-.1-.3-.2-.6-.6-.8l-.1-.1c-.1 0-.3-.1-.5-.2l.8-1 .6.3c.3.2.6.3.9.3.3 0 .6-.1.8-.5.2-.2.2-.5.2-.8 0-.2-.2-.5-.5-.7-.6-.3-1-.3-1.4.2l-1.4-1c.5-.6 1-.9 1.7-1 .7-.1 1.4.1 1.9.6.6.5 1 1 1.1 1.6.2.7.1 1.2-.3 1.9-.6.7-1.2.9-2 .8.5 1 .5 1.8 0 2.5zm5.6 5.6l-1.3-.7.3-.7c-.7.3-1.4.3-2.2-.1s-1.4-1-1.6-1.8c-.2-.8-.1-1.6.2-2.4.5-.8 1-1.4 1.8-1.7.8-.3 1.6-.2 2.4.1.7.3 1.1.9 1.4 1.6l.3-.6 1.4.7c.1 0-2.7 5.6-2.7 5.6zm0-3.4c.2-.5.3-.9.1-1.4-.1-.5-.5-.8-.9-1-.3-.3-.8-.3-1.2-.1-.5.2-.8.5-1 .9-.2.5-.2.9-.1 1.4.1.5.5.8.9 1 .5.2.9.2 1.4.1.3-.1.6-.4.8-.9zm7 5.7l-1.5-.5 1.5-4.7-2.2-.7-1.5 4.7-1.5-.5 1.9-5.8 5 1.6L24 79zm8.2 1l-1.5-.2.1-.7c-.6.6-1.2.8-2 .7-.9-.2-1.6-.6-2-1.2-.5-.7-.7-1.5-.6-2.4.1-.9.5-1.6 1.1-2.2.7-.6 1.4-.8 2.3-.7.8.1 1.4.5 1.8 1l.1-.7 1.5.2c0 .1-.8 6.2-.8 6.2zm-1.1-3.3c.1-.6 0-1-.3-1.4-.3-.5-.7-.7-1.2-.7-.5-.1-.9.1-1.2.3-.3.3-.6.7-.7 1.2-.1.5 0 .9.3 1.4.3.5.7.7 1.1.7.5.1.9-.1 1.2-.3.6-.3.8-.6.8-1.2zm6.6-1.8l-1.4.1.3 4.8-1.5.1-.5-4.8-1.4.1.1-1.2 4.3-.3c0-.1.1 1.2.1 1.2zm5.7 2l1.5-.3c-.2 1.5-1 2.4-2.5 2.7-.9.2-1.7.1-2.5-.5-.7-.5-1.1-1.1-1.4-2s-.1-1.7.3-2.4c.5-.8 1.1-1.2 2-1.4.7-.1 1.4-.1 1.9.1s1 .7 1.5 1.2c.2.3.5.9.6 1.6l-4.8 1c.3.9 1 1.2 2 1 .3-.1.7-.2.8-.3.4-.1.6-.3.6-.7zm-.2-1.7c-.3-.8-1-1.1-1.9-.9-.9.3-1.3.7-1.3 1.6l3.2-.7zm9 1.1l-1.5.6-.9-2.4-2.2.8.9 2.4-1.4.7-2.3-5.7 1.5-.6.9 2.3 2.2-.8-.9-2.3 1.5-.6 2.2 5.6zm3.1-6.9L54 70l2.3 4.3-1.4.7-2.3-4.3-1.2.7-.6-1.1 3.9-2c0-.1.6 1.1.6 1.1zm2.7.5c.3.5.7.7 1.1.8s.9 0 1.4-.3c.5-.3.7-.7.7-1.1s-.1-.9-.5-1.4c-.3-.5-.7-.7-1.1-.8s-.9 0-1.4.3c-.5.3-.7.7-.7 1.1s.2.9.5 1.4zm4-3.1c.6.8.8 1.6.7 2.4-.1.9-.6 1.6-1.4 2.2s-1.6.8-2.4.7c-.9-.1-1.6-.6-2.2-1.4-.6-.8-.8-1.6-.6-2.4.1-.9.6-1.6 1.4-2.2s1.6-.8 2.4-.7c.8.3 1.5.6 2.1 1.4zm5.5-3.4c.8.8.7 1.8-.6 3l-1.8 1.8-4.2-4.4 1.8-1.8c1-1 1.9-1.1 2.7-.3.3.3.5.9.3 1.4.8-.3 1.4-.2 1.8.3zm-3-.5c-.3-.3-.7-.2-1 .1l-.6.6.9.9.6-.6c.3-.4.4-.7.1-1zm1.9 1.6c-.3-.3-.8-.3-1.2.1l-.7.7 1 1 .7-.7c.4-.5.4-.8.2-1.1zm7.1-6.3l-.8 1.2-.6-.3c.2.7.1 1.4-.3 2-.5.8-1.1 1.1-2 1.2-.8.1-1.6-.1-2.4-.6-.8-.6-1.2-1.1-1.4-2-.2-.8 0-1.6.5-2.4.5-.7 1-1 1.8-1.1l-.7-.2.9-1.2 5 3.4zm-3.2-.4c-.5-.3-.9-.5-1.4-.3-.5.1-.9.3-1.1.8-.3.5-.3.9-.2 1.4s.3.8.8 1.1c.5.2.9.3 1.4.3.5-.1.9-.3 1.1-.7.1-.4.3-.8.1-1.4-.1-.6-.4-1-.7-1.2zm6.8-6.1l-.7 1.4-2.3-1.1-1 2 2.3 1.1-.7 1.4-5.4-2.7.7-1.4 2.2 1 1-2-2.2-1 .7-1.4 5.4 2.7zm-1.9-4c.5.1.9.1 1.4 0 .5-.2.7-.6.9-1 .1-.5.1-.9-.1-1.4-.2-.5-.6-.7-1.1-.8-.6-.1-1-.1-1.4 0-.5.2-.7.6-.9 1-.1.5-.1.9.1 1.4.4.3.7.5 1.1.8zm1.6-4.8c.9.3 1.6.8 1.9 1.6s.5 1.6.1 2.5c-.3.9-.8 1.6-1.6 1.9s-1.6.5-2.5.1c-.9-.3-1.5-.8-1.9-1.6-.3-.8-.5-1.6-.1-2.5.3-.9.8-1.6 1.6-1.9.8-.3 1.6-.4 2.5-.1z" class="st0"/></svg>