<svg xmlns="http://www.w3.org/2000/svg" viewBox="0 0 1000 1000"><path fill="#66a495" d="M444.98 107.94c17.15-1.9 34.43-2.73 51.68-2.34-.13 25.02-.27 50.05.08 75.07-63.29-1.86-126.99 16.26-179.69 51.38-54.08 35.67-96.51 88.63-119.45 149.22-23.37-8.84-46.71-17.76-70.08-26.62 25.64-68.02 71.16-128.28 129.28-171.88 54.56-41.13 120.26-67.31 188.18-74.83zM147.07 514.45c36.92 28.74 73.98 57.3 110.89 86.04-9.59 3.93-19.22 7.77-28.78 11.79 16.82 36.56 40.8 69.82 70.21 97.3 28.35 26.59 61.73 47.82 97.87 62.14 31.29 12.47 64.65 19.63 98.27 21.43.66 2.23 1.03 4.54.98 6.88-.2 22.71.15 45.43-.17 68.13-41-1.62-81.75-9.8-120.16-24.26-76.18-28.44-142.72-81.82-187.19-149.88-11.17-17-20.96-34.9-29.3-53.44-10.57 4.29-21.12 8.62-31.69 12.92 6.36-46.35 12.73-92.7 19.07-139.05z"/><path fill="#7eb7a9" d="M496.66 105.6c48.55.99 96.91 11.2 141.64 30.12 74.68 31.35 138.84 86.97 180.61 156.35 8.07 13.34 15.35 27.16 21.71 41.4 10.65-4.28 21.26-8.68 31.91-12.98-6.41 46.31-12.78 92.64-19.07 138.97-37.06-28.55-73.97-57.31-110.97-85.96 9.55-3.86 19.09-7.75 28.62-11.67-32.71-71.7-93.74-129.89-166.97-159.03-34.1-13.71-70.67-21.21-107.4-22.13-.35-25.02-.21-50.05-.08-75.07zm306.27 487.64c23.36 8.85 46.71 17.7 70.05 26.62-17.39 45.78-43.66 88.15-76.88 124.13-32.63 35.46-71.97 64.74-115.32 85.78-57.03 27.84-121.06 41.04-184.44 38.39.32-22.7-.03-45.42.17-68.13.05-2.34-.32-4.65-.98-6.88 40.7 2.07 81.84-3.64 120.26-17.29 63.69-22.35 119.47-66.23 156.43-122.68 12.39-18.78 22.62-38.96 30.71-59.94z"/><path fill="#d5a065" d="M322.98 419.64c20.09-32.44 40.38-64.78 60.66-97.11 26.52.02 53.05-.02 79.58.02.08 32.58.03 65.16.03 97.75-44.42.33-88.86 0-133.28.16-2.36.01-4.77.08-6.99-.82zm213.8-97.09c26.53-.04 53.06 0 79.58-.03 20.29 32.35 40.58 64.7 60.69 97.15-2.24.96-4.7.76-7.05.79-44.42-.15-88.84.18-133.25-.17 0-32.58-.06-65.16.03-97.74z"/><path fill="#eec38e" d="M463.22 322.55c24.52-.02 49.04-.03 73.56 0-.09 32.58-.03 65.16-.03 97.74-24.5-.17-49-.18-73.5.01 0-32.59.05-65.17-.03-97.75z"/><path fill="#a57742" d="M322.51 419.63c.12 0 .35.01.47.01 2.22.9 4.63.83 6.99.82 44.42-.16 88.86.17 133.28-.16.04 14.26-.08 28.52.06 42.79 4.25-3.72 7.9-8.06 12.08-11.86 8.56 7.55 15.98 16.35 24.54 23.91 8.73-7.37 16.03-16.4 24.68-23.9 4.16 3.8 7.87 8.06 12 11.9.33-14.28.04-28.57.14-42.85 44.41.35 88.83.02 133.25.17 2.35-.03 4.81.17 7.05-.79l.43-.13c-.03 85.97-.01 171.94-.01 257.91-46.89.03-93.79.03-140.69 0-.1-12.16.04-24.31-.06-36.47-4.31 3.66-7.92 8.05-12.13 11.82-8.58-7.59-16.06-16.39-24.61-24.01-8.49 7.67-16.02 16.39-24.55 24.01-4.2-3.77-7.9-8.07-12.04-11.9-.35 12.17-.01 24.37-.17 36.55-46.89.03-93.79.03-140.69 0 0-85.94.03-171.88-.02-257.82z"/><path fill="#d3a269" d="M463.25 420.3c24.5-.19 49-.18 73.5-.01-.1 14.28.19 28.57-.14 42.85-4.13-3.84-7.84-8.1-12-11.9-8.65 7.5-15.95 16.53-24.68 23.9-8.56-7.56-15.98-16.36-24.54-23.91-4.18 3.8-7.83 8.14-12.08 11.86-.14-14.27-.02-28.53-.06-42.79zm12.18 232.5c8.53-7.62 16.06-16.34 24.55-24.01 8.55 7.62 16.03 16.42 24.61 24.01 4.21-3.77 7.82-8.16 12.13-11.82.1 12.16-.04 24.31.06 36.47-24.52.03-49.04.03-73.56 0 .16-12.18-.18-24.38.17-36.55 4.14 3.83 7.84 8.13 12.04 11.9z"/></svg>