<svg xmlns="http://www.w3.org/2000/svg" viewBox="0 0 457.3 642.9"><path fill="#E3C08A" d="M0 269.9h457.3v373H0z"/><path fill="#C8A679" d="M427.9 210.5h-.4l-.3-.7-198.5.4-198.6-.4-.2.7h-.4L0 269.8h457.4z"/><path fill="#F3F5FA" d="M196.7 269.9h63.9v154.6h-63.9z"/><path fill="#C7C8CC" d="M251.8 210.2h-46.3l-8.8 59.6h63.9z"/><path fill="#C2A077" d="M324.2 603.5h106.4v20.9H324.2zm47-71.8l-17-17.4-17.4 17.4h5.3v65.8h23.8v-65.8zm46.7 16.3l-12.8-13.1-13 13.1h4v49.5H414V548zM16.2 299.3h73.1v14H16.2zm86 0h55.9v14h-55.9zm-86 29.1H57v14H16.2zm101 0H158v14h-40.8zm-50.5 0h40.8v14H66.7z"/><path fill="#E3C08A" d="M90 36.4h277.3v226.2H90z"/><path fill="#C8A679" d="M349.5.4h-.3l-.1-.4-120.4.2L108.3 0l-.1.4h-.3L90 36.4h277.3z"/><path fill="#F3F5FA" d="M209.3 36.4h38.8v93.8h-38.8z"/><path fill="#C7C8CC" d="M242.7.2h-28.1l-5.3 36.2h38.8z"/><path fill="#C2A077" d="M286.6 238.7h64.5v12.7h-64.5zm28.5-43.5l-10.3-10.6-10.5 10.6h3.2v39.9h14.4v-39.9zm28.3 9.8l-7.7-7.9-7.9 7.9h2.4v30.1H341V205zM99.9 54.3h44.3v8.5H99.9zm52.1 0h33.9v8.5H152zM99.9 71.9h24.8v8.5H99.9zm61.2 0h24.8v8.5h-24.8zm-30.6 0h24.8v8.5h-24.8z"/></svg>