<svg xmlns="http://www.w3.org/2000/svg" viewBox="0 0 1000 1000"><path fill="#fff6dd" d="M219.03 131.47c92.99.07 185.98.01 278.97.03 38.69-.06 77.38.12 116.07-.09l-.07.42c-1.45 7.95-1.64 16.05-2.37 24.08-1.59 19.02-2.96 38.06-4.66 57.07-.09 2.12-.33 4.38.62 6.36 4.44 1.42 9.13 1.67 13.71 2.42 24.22 3.73 48.42 7.67 72.69 11.15.02 4.36.01 8.73.01 13.1-.02 18.93-.12 37.86.05 56.79-.12 25.01 0 50.02-.06 75.03-.02 4.1-.01 8.2 0 12.3.02 5.91.02 11.83 0 17.75-.01 4.09-.02 8.19-.01 12.29.02 6.23.03 12.47.01 18.71-.01 4.09-.02 8.19 0 12.29.01 6.22.01 12.44 0 18.66-.02 4.1-.01 8.19 0 12.29.02 6.24.01 12.47-.01 18.71-.01 4.1 0 8.2.01 12.3.02 5.91.02 11.83 0 17.74-.01 4.1-.02 8.2 0 12.3.01 6.24.03 12.47 0 18.71-.01 4.09-.02 8.19-.01 12.29.02 6.22.02 12.44.01 18.66-.02 4.09-.01 8.19 0 12.29.02 6.24.01 12.47-.01 18.71-.01 4.09 0 8.19.01 12.29.06 61.37-.09 122.73.08 184.09-.03 2.56-.12 5.13-.19 7.71-16.76.15-33.52-.05-50.27.1.13-12.23-.32-24.47.24-36.69 5.42-4.76 6.26-12.98 12.4-17.05 4.97-3.26 11.43-5.01 14.4-10.64 4.92-7.53-.51-17.21 4.23-24.79 2.93-4.91 7.04-9.75 6.54-15.86.31-8.45-8.44-13.62-8.63-21.91-.25-6.15 1.34-12.97-2.51-18.37-4.22-7.17-14.15-7.47-18.46-14.57.41-47.71.06-95.43.18-143.14V357c-.11-32.93.22-65.86-.16-98.78-16.35-6.31-31.61-15.63-44.13-27.94-14.75-14.38-25.65-32.53-31.91-52.13-78.92-.32-157.85-.11-236.77-.11-2.02 4.71-3.79 9.52-5.78 14.23-11.63 26.44-33.06 48.29-58.99 60.91-4.39 2-8.86 3.78-13.22 5.82-.09 146-.01 292-.05 438 .06 4.55-.43 9.16.33 13.68 3.59 2.83 8.22 3.77 12.25 5.8 17.23 8.27 32.5 20.6 44.28 35.65 7.29 8.94 12.63 19.24 17.39 29.69 72.56.41 145.13.08 217.7.16 1.64 3.36 3.48 6.69 6.2 9.32.55 12.23.13 24.48.2 36.72-62.91-.08-125.82-.11-188.72.01-50.54-.08-101.08-.01-151.62-.03.02-232.18-.04-464.35.03-696.53z"/><path fill="#efe2bd" d="M614 131.83c12.36 14.73 23.76 30.27 35.99 45.11 14.48 18.73 29.32 37.33 44 55.97-24.27-3.48-48.47-7.42-72.69-11.15-4.58-.75-9.27-1-13.71-2.42-.95-1.98-.71-4.24-.62-6.36 1.7-19.01 3.07-38.05 4.66-57.07.73-8.03.92-16.13 2.37-24.08z"/><path fill="#efe2bd" d="M339.03 178.04c78.92 0 157.85-.21 236.77.11 6.26 19.6 17.16 37.75 31.91 52.13 12.52 12.31 27.78 21.63 44.13 27.94.38 32.92.05 65.85.16 98.78v168c-.12 47.71.23 95.43-.18 143.14-2.89-5.18-5.09-11.42-10.77-14.22-7.22-4.3-16.16.5-23.44-3.53-5.25-2.87-10.19-7.41-16.62-6.83-8.45-.34-13.65 8.39-21.94 8.58-6.14.27-12.96-1.3-18.34 2.56-7.27 4.38-7.78 14.57-15.17 18.78-4.77 2.72-10.48 4.72-13.21 9.88-3.85 5.54-1.66 12.43-2.17 18.65-.49 7.61-8.71 12.13-8.55 19.95-.8 6.75 3.74 12.14 6.72 17.7 4.19 7.47-.53 16.68 3.9 24.09 2.8 5.45 9.12 7.04 13.94 10.12 3.12 1.83 5.17 4.94 6.77 8.11-72.57-.08-145.14.25-217.7-.16-4.76-10.45-10.1-20.75-17.39-29.69-11.78-15.05-27.05-27.38-44.28-35.65-4.03-2.03-8.66-2.97-12.25-5.8-.76-4.52-.27-9.13-.33-13.68.04-146-.04-292 .05-438 4.36-2.04 8.83-3.82 13.22-5.82 25.93-12.62 47.36-34.47 58.99-60.91 1.99-4.71 3.76-9.52 5.78-14.23m21.79 45.78c-.26 4.03-.27 8.07-.02 12.11 63.38.1 126.77.04 190.15.02.07-4.05.06-8.1-.02-12.15-9.64-.37-19.29-.07-28.93-.16-53.73.12-107.46-.25-161.18.18m-65 56c-.26 4.03-.27 8.08-.02 12.11 107.47.07 214.93.08 322.4 0 .25-4.04.24-8.08-.02-12.11-24.72-.43-49.46-.06-74.18-.18-61 0-122-.01-183 0-21.73.12-43.46-.26-65.18.18m-.02 34.25c-.25 4.03-.24 8.08.02 12.11 57.05.42 114.12.06 171.18.18 50.39-.12 100.79.25 151.18-.19.26-4.03.27-8.07.02-12.1-107.47-.07-214.93-.08-322.4 0m.02 34.75c-.26 4.03-.27 8.08-.02 12.11 107.47.07 214.93.08 322.4 0 .24-4.04.24-8.08-.02-12.11-4.73-.22-9.46-.24-14.18-.18H438c-47.39.12-94.79-.25-142.18.18m-.02 34.25c-.25 4.03-.24 8.07.02 12.11 51.72.43 103.45.05 155.18.18 55.72-.12 111.46.25 167.18-.18.26-4.04.26-8.08.02-12.11-107.47-.07-214.94-.08-322.4 0m.02 34.75c-.26 4.03-.27 8.07-.02 12.11 107.47.08 214.93.08 322.4 0 .25-4.04.24-8.08-.02-12.11-4.73-.22-9.46-.24-14.18-.18H448c-50.73.12-101.46-.24-152.18.18m-.02 34.25c-.25 4.03-.24 8.08.02 12.11 51.72.42 103.46.06 155.18.19 55.73-.14 111.46.24 167.18-.19.26-4.04.26-8.08.02-12.11-107.46-.08-214.93-.08-322.4 0m.02 34.75c-.26 4.03-.27 8.07-.02 12.11 107.47.08 214.94.08 322.4 0 .25-4.04.24-8.08-.03-12.1-51.05-.45-102.11-.06-153.17-.19-56.39.12-112.79-.24-169.18.18m-.02 34.25c-.25 4.03-.24 8.07.02 12.1 2.06.08 4.12.16 6.18.2 55-.02 110-.01 165-.01 50.39-.12 100.79.24 151.17-.18.27-4.03.27-8.08.03-12.11-107.46-.08-214.93-.08-322.4 0m.02 34.75c-.26 4.03-.27 8.07-.02 12.11 107.47.08 214.93.08 322.4 0 .24-4.04.24-8.08-.02-12.11-55.05-.42-110.12-.06-165.18-.18-52.39.12-104.79-.25-157.18.18zM694 246.01c9.47-.07 18.94.12 28.41-.1-2.21 23-3.67 46.06-5.74 69.07-.27 3.16-.37 6.34-.45 9.51 22.87 3.64 45.76 7.09 68.63 10.73 2.76.39 5.54.51 8.33.58l.85.02c-.08 177.06-.01 354.12-.03 531.18-50.13-.01-100.26 0-150.39-.01-.01-12.99 0-25.98 0-38.97 16.75-.15 33.51.05 50.27-.1.07-2.58.16-5.15.19-7.71 4.61-6.8 8.28-14.23 13.56-20.57 8.14-9.86 17.51-18.88 28.54-25.48 6.21-4.12 13.11-6.96 19.81-10.15.1-135.01.09-270.02 0-405.02-12.46-5.44-24.64-11.99-34.72-21.25-5.84-5.5-11.52-11.24-16.21-17.77-4.09-5.45-7.1-11.6-11-17.17-.17-18.93-.07-37.86-.05-56.79zM370.62 828.03c62.9-.12 125.81-.09 188.72-.01.01 12.99 0 25.98 0 38.97-62.94.01-125.89 0-188.83.01.05-12.99-.16-25.98.11-38.97z"/><path fill="#c4b488" d="M360.82 223.82c53.72-.43 107.45-.06 161.18-.18 9.64.09 19.29-.21 28.93.16.08 4.05.09 8.1.02 12.15-63.38.02-126.77.08-190.15-.02-.25-4.04-.24-8.08.02-12.11zm-65 56c21.72-.44 43.45-.06 65.18-.18 61-.01 122 0 183 0 24.72.12 49.46-.25 74.18.18.26 4.03.27 8.07.02 12.11-107.47.08-214.93.07-322.4 0-.25-4.03-.24-8.08.02-12.11zm-.02 34.25c107.47-.08 214.93-.07 322.4 0 .25 4.03.24 8.07-.02 12.1-50.39.44-100.79.07-151.18.19-57.06-.12-114.13.24-171.18-.18-.26-4.03-.27-8.08-.02-12.11zm.02 34.75c47.39-.43 94.79-.06 142.18-.18h166c4.72-.06 9.45-.04 14.18.18.26 4.03.26 8.07.02 12.11-107.47.08-214.93.07-322.4 0-.25-4.03-.24-8.08.02-12.11zm398.17 29.01c10.75-.33 21.51-.27 32.27-.06.47 4.06.68 8.15.69 12.25-10.98.47-21.98.27-32.96.11-.01-4.1-.02-8.2 0-12.3zm-398.19 5.24c107.46-.08 214.93-.07 322.4 0 .24 4.03.24 8.07-.02 12.11-55.72.43-111.46.06-167.18.18-51.73-.13-103.46.25-155.18-.18a95.95 95.95 0 01-.02-12.11zm398.19 24.81c10.99-.17 21.98-.38 32.96.1-.01 4.09-.22 8.19-.7 12.26-10.75.19-21.51.27-32.27-.07-.01-4.1 0-8.2.01-12.29zm-398.17 9.94c50.72-.42 101.45-.06 152.18-.18h156c4.72-.06 9.45-.04 14.18.18.26 4.03.27 8.07.02 12.11-107.47.08-214.93.08-322.4 0-.25-4.04-.24-8.08.02-12.11zm398.17 21.06c10.98-.17 21.98-.37 32.96.1-.01 4.09-.22 8.19-.7 12.26-10.75.2-21.52.25-32.26-.07-.02-4.1-.01-8.2 0-12.29zM295.8 452.07c107.47-.08 214.94-.08 322.4 0 .24 4.03.24 8.07-.02 12.11-55.72.43-111.45.05-167.18.19-51.72-.13-103.46.23-155.18-.19-.26-4.03-.27-8.08-.02-12.11zm398.19 17.76c10.75-.33 21.51-.28 32.27-.06.47 4.06.68 8.16.7 12.25-10.99.47-21.98.27-32.97.1-.01-4.1-.02-8.19 0-12.29zm-398.17 16.99c56.39-.42 112.79-.06 169.18-.18 51.06.13 102.12-.26 153.17.19.27 4.02.28 8.06.03 12.1-107.46.08-214.93.08-322.4 0-.25-4.04-.24-8.08.02-12.11zm398.16 14.01c10.75-.33 21.51-.27 32.27-.07.48 4.07.69 8.16.71 12.26-10.99.47-21.98.27-32.97.11-.01-4.1-.02-8.2-.01-12.3zM295.8 521.07c107.47-.08 214.94-.08 322.4 0 .24 4.03.24 8.08-.03 12.11-50.38.42-100.78.06-151.17.18-55 0-110-.01-165 .01-2.06-.04-4.12-.12-6.18-.2-.26-4.03-.27-8.07-.02-12.1zm398.19 9.8c10.98-.16 21.98-.37 32.96.11-.01 4.09-.22 8.19-.7 12.26-10.75.2-21.51.25-32.26-.07-.02-4.1-.01-8.2 0-12.3zm-398.17 24.95c52.39-.43 104.79-.06 157.18-.18 55.06.12 110.13-.24 165.18.18.26 4.03.26 8.07.02 12.11-107.47.08-214.93.08-322.4 0-.25-4.04-.24-8.08.02-12.11zm398.17 6.06c10.99-.17 21.98-.38 32.96.1-.01 4.09-.22 8.19-.7 12.26-10.75.2-21.52.25-32.27-.07-.01-4.1 0-8.2.01-12.29zm0 30.95c10.75-.33 21.51-.27 32.26-.06.48 4.06.69 8.15.7 12.24-10.98.48-21.97.28-32.96.11-.01-4.1-.02-8.2 0-12.29zm-.01 31c10.75-.32 21.52-.28 32.27-.07.47 4.07.69 8.16.7 12.26-10.98.47-21.97.27-32.96.1-.01-4.1-.02-8.2-.01-12.29z"/><path fill="#dfcda1" d="M722.41 245.91c22.58 28.01 44.58 56.49 66.96 84.66 1.35 1.68 2.67 3.39 3.81 5.23-2.79-.07-5.57-.19-8.33-.58-22.87-3.64-45.76-7.09-68.63-10.73.08-3.17.18-6.35.45-9.51 2.07-23.01 3.53-46.07 5.74-69.07z"/><path fill="#dfcda1" d="M694.05 302.8c3.9 5.57 6.91 11.72 11 17.17 4.69 6.53 10.37 12.27 16.21 17.77 10.08 9.26 22.26 15.81 34.72 21.25.09 135 .1 270.01 0 405.02-6.7 3.19-13.6 6.03-19.81 10.15-11.03 6.6-20.4 15.62-28.54 25.48-5.28 6.34-8.95 13.77-13.56 20.57-.17-61.36-.02-122.72-.08-184.09 10.99.17 21.98.37 32.96-.1-.01-4.1-.23-8.19-.7-12.26-10.75-.21-21.52-.25-32.27.07.02-6.24.03-12.47.01-18.71 10.99.17 21.98.37 32.96-.11-.01-4.09-.22-8.18-.7-12.24-10.75-.21-21.51-.27-32.26.06.01-6.22.01-12.44-.01-18.66 10.75.32 21.52.27 32.27.07.48-4.07.69-8.17.7-12.26-10.98-.48-21.97-.27-32.96-.1.03-6.24.01-12.47 0-18.71 10.75.32 21.51.27 32.26.07.48-4.07.69-8.17.7-12.26-10.98-.48-21.98-.27-32.96-.11.02-5.91.02-11.83 0-17.74 10.99.16 21.98.36 32.97-.11-.02-4.1-.23-8.19-.71-12.26-10.76-.2-21.52-.26-32.27.07.02-6.24.03-12.47.01-18.71 10.99.17 21.98.37 32.97-.1-.02-4.09-.23-8.19-.7-12.25-10.76-.22-21.52-.27-32.27.06.01-6.22.01-12.44 0-18.66 10.74.32 21.51.27 32.26.07.48-4.07.69-8.17.7-12.26-10.98-.47-21.98-.27-32.96-.1.02-6.24.01-12.48-.01-18.71 10.76.34 21.52.26 32.27.07.48-4.07.69-8.17.7-12.26-10.98-.48-21.97-.27-32.96-.1.02-5.92.02-11.84 0-17.75 10.98.16 21.98.36 32.96-.11-.01-4.1-.22-8.19-.69-12.25-10.76-.21-21.52-.27-32.27.06.06-25.01-.06-50.02.06-75.03z"/><path fill="#9f3f3f" d="M579.05 652.14c8.29-.19 13.49-8.92 21.94-8.58 6.43-.58 11.37 3.96 16.62 6.83 7.28 4.03 16.22-.77 23.44 3.53 5.68 2.8 7.88 9.04 10.77 14.22 4.31 7.1 14.24 7.4 18.46 14.57 3.85 5.4 2.26 12.22 2.51 18.37.19 8.29 8.94 13.46 8.63 21.91.5 6.11-3.61 10.95-6.54 15.86-4.74 7.58.69 17.26-4.23 24.79-2.97 5.63-9.43 7.38-14.4 10.64-6.14 4.07-6.98 12.29-12.4 17.05-4.57 5.17-11.96 4.69-18.18 3.98-8.75-.96-14.29 8.1-22.79 8.48-6.5.77-11.85-3.46-17.09-6.57-2.5-1.66-5.54-1.98-8.45-1.71-6.23.51-13.65.94-18.2-4.21-2.72-2.63-4.56-5.96-6.2-9.32-1.6-3.17-3.65-6.28-6.77-8.11-4.82-3.08-11.14-4.67-13.94-10.12-4.43-7.41.29-16.62-3.9-24.09-2.98-5.56-7.52-10.95-6.72-17.7-.16-7.82 8.06-12.34 8.55-19.95.51-6.22-1.68-13.11 2.17-18.65 2.73-5.16 8.44-7.16 13.21-9.88 7.39-4.21 7.9-14.4 15.17-18.78 5.38-3.86 12.2-2.29 18.34-2.56m13.32 13.27c-21.78 3.22-40.72 19.95-46.97 41-4.49 14.5-2.98 30.74 4.04 44.2 7.2 13.76 19.94 24.68 34.88 29.15 8.77 2.92 18.24 3.02 27.33 1.84 15.12-2.61 29.24-11.34 38.01-23.99 8.88-12.09 12.53-27.81 10.29-42.6-2.54-18.22-14.22-34.94-30.57-43.41-11.19-6.2-24.44-7.97-37.01-6.19z"/><path fill="#bc6c6c" d="M592.37 665.41c12.57-1.78 25.82-.01 37.01 6.19 16.35 8.47 28.03 25.19 30.57 43.41 2.24 14.79-1.41 30.51-10.29 42.6-8.77 12.65-22.89 21.38-38.01 23.99-9.09 1.18-18.56 1.08-27.33-1.84-14.94-4.47-27.68-15.39-34.88-29.15-7.02-13.46-8.53-29.7-4.04-44.2 6.25-21.05 25.19-37.78 46.97-41zm-15.03 130.1c2.91-.27 5.95.05 8.45 1.71 5.24 3.11 10.59 7.34 17.09 6.57 8.5-.38 14.04-9.44 22.79-8.48-.01 16.56-.01 33.12-.01 49.69-.15 13.5.35 27-.32 40.49-8.06-5.51-15.46-11.95-23.47-17.52l-.74-.08c-7.9 5.75-15.54 11.89-23.39 17.72-.68-7.52-.34-15.08-.39-22.61-.01-22.5.01-44.99-.01-67.49z"/><path fill="#772a2a" d="M559.14 791.3c4.55 5.15 11.97 4.72 18.2 4.21.02 22.5 0 44.99.01 67.49.05 7.53-.29 15.09.39 22.61-6.12 4.57-11.97 9.53-18.38 13.71-.04-10.78 0-21.56-.02-32.33 0-12.99.01-25.98 0-38.97-.07-12.24.35-24.49-.2-36.72zm66.53 4.01c6.22.71 13.61 1.19 18.18-3.98-.56 12.22-.11 24.46-.24 36.69 0 12.99-.01 25.98 0 38.97-.03 10.77.04 21.54-.03 32.3-6.3-4.28-12.42-8.92-18.24-13.8.67-13.49.17-26.99.32-40.49 0-16.57 0-33.13.01-49.69z"/></svg>