<svg xmlns="http://www.w3.org/2000/svg" id="Слой_1" x="0" y="0" version="1.1" viewBox="0 0 826 826" xml:space="preserve"><style>.st0{fill:#74A294}.st1{fill:#E0E2F1}.st2{fill:#F8CBC4}.st3{fill:#CCCFE7}.st5{fill:#BE9C79}</style><path d="M195 242.2c2.6-4.8 5.2-9 7.7-12.9-4.1-9.1-8.9-18.8-14.4-28.9-17.8-32.7-71.6-132-165.7-121.6-4.2.6-8 2.5-11 5.5 7.5 5.1 35.4 26 64 71.4 19.2 30.5 34.8 65.7 46.1 104.6 7.3 25.2 12.8 50.8 16.4 76.7 8.9 2 18 3.1 27.1 3.3 6.6-46.4 18.8-77.9 29.8-98.1z" class="st0"/><path d="M111.9 480.3c17.1 2.3 34.4 3.3 51.7 3.2 17.3.1 34.6-.8 51.9-2.7 6.7-19.3 2-40.8-12.1-55.6-12.2 1-25.5 1.5-39.8 1.5-14 0-27.3-.6-39.5-1.8-14.1 14.7-19 36-12.5 55.4h.3z" class="st1"/><path d="M244.1 600.4h9.7v-75.7h-9.7z" class="st2"/><path d="M169.2 340.3c15.5-.2 32.9-3.8 42.9-16.5 13.6-17.4 11.1-47.7-7.4-90.2-2.1 3.3-4.2 6.9-6.4 10.9-10.8 19.7-22.7 50.5-29.1 95.8zM9.2 87.4C5.9 93.6-4.7 121 18.4 201.8c5.3 18.5 4.2 32.6 2.9 47.6-1.1 13.4-2.2 27.2 1 45.7.1.6 11 59.6 45 70.6 18.7 6 41.2-3.4 66.9-28.1-12.3-85.2-38.9-143.3-61.7-179.6-28.3-44.8-56.4-65.8-63.3-70.6z" class="st0"/><path d="M82.2 802h118.1V617.9c-13.2 1.2-27.7 1.8-43.6 1.8-33 0-60.9-3.3-83.1-9.7l-2.5-.7-2.4-.8-1.1-.4c-50.2 53-48 136.8 5 187 2.5 2.4 5.1 4.7 7.8 6.8h1.8zm-27-54c-.3.1-.6.2-.9.2-.7 0-1.4-.4-1.8-1.1-11.9-24-13.8-51.8-5.5-77.3.3-1 1.4-1.6 2.4-1.3 1 .3 1.6 1.4 1.3 2.4v.1c-8.1 24.5-6.2 51.2 5.3 74.3.5 1.1.1 2.2-.8 2.7zm2.2-92.5c-1.6 3-3 6-4.3 9.2-.4 1-1.5 1.5-2.6 1.1-1-.4-1.5-1.5-1.1-2.6 1.3-3.2 2.8-6.4 4.4-9.5.5-1 1.7-1.3 2.7-.8 1 .5 1.4 1.6.9 2.6z" class="st1"/><path d="M204.2 524.7h8.5v75.7h-8.5zm26.1 0h9.8v75.7h-9.8zm-13.7 0h9.8v75.7h-9.8z" class="st2"/><path d="M156.7 615.8c15.9 0 30.5-.6 43.6-1.8v-91.3c0-1.1.9-2 2-2h47.9c-7.8-14.1-19-26.1-32.5-34.8l-1.7-1.1-.2-.1-2 .2c-16.7 1.7-33.5 2.6-50.2 2.5-16.9.1-33.8-.9-50.5-3.1l-1-.1-1 .6-1.7 1.1C70 511.7 54.2 561.6 71.5 605.4c22.4 6.9 51 10.4 85.2 10.4zM98.3 509.4c2.2-2.7 4.6-5.3 7.1-7.7.8-.7 2-.6 2.8.2.7.8.7 1.9 0 2.6-2.4 2.4-4.7 4.9-6.9 7.4-.7.8-1.9.9-2.8.3-.8-.7-.9-1.9-.2-2.8zM94 515c.6-.9 1.8-1.1 2.7-.5.9.6 1.1 1.8.5 2.7l-.1.1c-1 1.4-2 2.8-2.9 4.3-12.1 18.7-17.4 40.9-15.2 63l.6 5.1c.2 1.1-.6 2.1-1.6 2.2h-.3c-1 0-1.8-.7-2-1.7-4-26.4 2.6-53.4 18.3-75.2z" class="st1"/><circle cx="259.1" cy="163.6" r="41.6" class="st3"/><path d="M340.1 524.7h9.8v75.7h-9.8zm23.5 75.7v-75.7h-9.8v75.7h1z" class="st2"/><path d="M314.7 296.7c7.5-7.5 7.5-19.6 0-27-7.5-7.5-19.6-7.5-27 0-7.5 7.5-7.5 19.6 0 27 7.4 7.4 19.5 7.4 27 0zM200.6 805.9H82.2c-2.2 0-3.9 1.8-3.9 3.9 0 2.2 1.8 3.9 3.9 3.9h122.9c-2.3-2-3.8-4.7-4.5-7.8z" class="st3"/><path d="M326.4 524.7h9.8v75.7h-9.8zm-13.8 0h9.8v75.7h-9.8zm-51.2 75.7h6.2v-75.7h-9.8v75.7h1.6zm23.8-75.7h9.8v75.7h-9.8zm-13.7 0h9.8v75.7h-9.8z" class="st2"/><path fill="#F7F4C7" d="M301.7 470.8c0-1.1.9-2 2-2s2 .9 2 2v18.6c21.4-1.1 26-21 26-37.7 0-18.2-21.4-82.9-27.9-102.2-6.5 19.3-27.9 84-27.9 102.2 0 16.7 4.6 36.5 26 37.7v-18.6zM281.6 445c.1-1.1 1.1-1.8 2.2-1.7 1.1.1 1.8 1.1 1.7 2.2v.1c-.4 2.7-.7 5.4-.8 8.2 0 1.1-.9 1.9-2 1.9h-.1c-1.1 0-1.9-.9-1.9-2 .2-2.9.5-5.8.9-8.7zm10.3 32.9c-.4.4-.9.7-1.5.7-.5 0-.9-.2-1.3-.5-4.6-4.1-7.4-10.1-8.2-17.9-.1-1.1.7-2 1.8-2.2 1.1-.1 2 .7 2.2 1.8.7 6.8 2.9 11.9 6.9 15.3.8.7.9 2 .1 2.8z"/><path d="M298.9 524.7h9.8v75.7h-9.8z" class="st2"/><path d="M407 675.9h413.9l-.1-31.3H407zm0-101.9v31.4h413.8V574zm0 137.2h413.9v-31.3H407zm0-70.5h413.8v-31.4H407zm0 145v17.1c0 4.2-1.8 8.1-4.8 10.9h415.3c1.9 0 3.5-1.6 3.5-3.5v-24.6H407z" class="st5"/><path d="M403.1 574v-49.3H395v75.7h8.1z" class="st2"/><path fill="#E5D7C9" d="M794.4 137.2C757.2 66 685.9 19 605.8 12.9c-6-.5-12-.7-18-.7-79.9 0-155.8 42.1-198.1 110-34.7 55.6-34.6 121.4-34.6 185v8.8l-.2 204.7h50.2c1.1 0 2 .9 2 2v47.4h413.7l-.2-240.6c0-10.8.3-22 .5-32.8.8-34.8 1.7-70.7-6-104-4.5-19.3-11.5-37.9-20.7-55.5zM587.9 438.5c-106.4 0-193-86.6-193-193s86.5-193 193-193 193 86.6 193 193-86.7 193-193 193z"/><path d="M391 570.1v-45.4h-9.8v75.7h9.8V574z" class="st2"/><path d="M407 781.8h414v-31.4H407zm0-35.3h414l-.1-31.4H407z" class="st5"/><path fill="#F2EBE4" d="M587.9 56.3c-104.3 0-189.1 84.8-189.1 189.1s84.8 189.1 189.1 189.1S777 349.7 777 245.4 692.1 56.3 587.9 56.3zM450 345.8c-.9.6-2.1.5-2.7-.4-2.2-2.9-4.3-6-6.3-9.1-.6-.9-.5-2.1.4-2.7.9-.6 2.1-.5 2.7.4 0 .1.1.1.1.2 2 3 4.1 6 6.2 8.9.6.9.4 2.1-.4 2.7zm37.5 37.5c-.7.9-1.9 1-2.7.4-11.2-8.7-21.4-18.5-30.5-29.4-.7-.9-.5-2.1.4-2.7.8-.6 2-.5 2.7.2 8.9 10.6 18.9 20.3 29.9 28.8.7.6.9 1.8.2 2.7zm208.6-239.1L594.7 245.6c-.1 3.8-3.3 6.8-7.1 6.6-3.2-.1-5.9-2.4-6.5-5.5l-64.3-64.3c-1-1-.9-2.5 0-3.5 1-1 2.5-.9 3.5 0l62.2 62.2c2.3-3 6.6-3.5 9.6-1.2.2.2.5.4.7.6l99.9-99.9c.9-1 2.5-1 3.5-.1s1 2.5.1 3.5l-.2.2z"/><path fill="#F8DFDB" d="M403.1 785.7V604.4H204.2v198.4c0 6 4.9 10.9 10.9 10.9h177c6 0 10.9-4.9 10.9-10.9v-17.1zm-186.6-81.9c0 1.1-.9 2-2 2s-2-.9-2-2v-53.9c0-1.1.9-2 2-2s2 .9 2 2v53.9zm0-63.1c0 1.1-.9 2-2 2s-2-.9-2-2v-13.8c0-1.1.9-2 2-2s2 .9 2 2v13.8zm177.3 105.8v50.4c0 1.1-.9 2-2 2s-2-.9-2-2V743c0-1.1.9-2 2-2s2 .9 2 2v3.5zm0-12.7c0 1.1-.9 2-2 2s-2-.9-2-2V720c0-1.1.9-2 2-2s2 .9 2 2v13.8z"/><path d="M377.3 570.1v-45.4h-9.8v75.7h9.8V574z" class="st2"/><path d="M214.5 624.9c-1.1 0-2 .9-2 2v13.8c0 1.1.9 2 2 2s2-.9 2-2v-13.8c0-1.1-.9-2-2-2zm0 23.1c-1.1 0-2 .9-2 2v53.9c0 1.1.9 2 2 2s2-.9 2-2V650c0-1.1-.9-2-2-2zm68.2-192.3c1.1 0 2-.8 2-1.9.1-2.7.4-5.5.8-8.2.2-1.1-.5-2.1-1.6-2.3-1.1-.2-2.1.5-2.3 1.6v.1c-.5 2.9-.7 5.8-.8 8.7 0 1.1.8 2 1.9 2zm2.2 4.1c-.1-1.1-1.1-1.9-2.2-1.8s-1.9 1.1-1.8 2.2c.8 7.8 3.5 13.8 8.2 17.9.4.3.8.5 1.3.5.6 0 1.1-.2 1.5-.7.7-.8.6-2-.2-2.8-3.8-3.4-6.1-8.5-6.8-15.3zM77.7 592h.3c1.1-.2 1.8-1.2 1.6-2.2-.3-1.7-.5-3.4-.6-5.1-2.2-22.1 3.2-44.4 15.2-63 1-1.4 1.9-2.9 2.9-4.3.6-.9.4-2.1-.4-2.7s-2.1-.4-2.7.4c-15.7 21.7-22.3 48.8-18.2 75.3.1.9.9 1.6 1.9 1.6zm22.1-79.3c.6 0 1.1-.3 1.5-.7 2.1-2.6 4.4-5.1 6.9-7.4.7-.8.7-2-.1-2.8-.7-.7-1.9-.7-2.6 0-2.5 2.5-4.9 5-7.1 7.7-.7.8-.6 2.1.3 2.8.2.2.6.3 1.1.4zm-49 158.4c.4-1-.1-2.1-1.2-2.5s-2.1.1-2.5 1.2v.1c-8.4 25.5-6.4 53.2 5.5 77.3.3.7 1 1.1 1.8 1.1.3 0 .6-.1.9-.2 1-.5 1.4-1.6.9-2.6-11.6-23.2-13.5-49.9-5.4-74.4zm5.8-18.2c-1-.5-2.1-.1-2.7.8-1.6 3.1-3.1 6.3-4.4 9.5-.4 1 .1 2.1 1.1 2.5 1 .4 2.1-.1 2.5-1.1 1.3-3.1 2.7-6.2 4.3-9.2.5-.9.1-2-.8-2.5zM587.9 52.4c-106.4 0-193 86.6-193 193s86.6 193 193 193 193-86.6 193-193-86.7-193-193-193zm0 382.2c-104.3 0-189.1-84.8-189.1-189.1S483.5 56.3 587.9 56.3 777 141.2 777 245.4s-84.9 189.2-189.1 189.2z"/><path d="M444.2 334.2c-.5-.9-1.7-1.3-2.7-.7-.9.5-1.3 1.7-.7 2.7 0 .1.1.1.1.2 2 3.1 4.1 6.1 6.3 9.1.6.9 1.8 1.1 2.7.5s1.1-1.8.5-2.7l-.1-.1c-2.1-3-4.2-6-6.1-9zm42.9 46.4c-11-8.5-21-18.1-29.9-28.8-.7-.8-2-.9-2.8-.1-.8.7-.9 1.8-.2 2.7 9.1 10.9 19.3 20.7 30.5 29.4.9.7 2.1.5 2.8-.4.6-.9.5-2.1-.4-2.8zm205.5-239.8l-99.9 99.9c-2.6-2.7-7-2.8-9.7-.1-.2.2-.4.4-.6.7L520.2 179c-.9-1-2.5-1-3.5-.1s-1 2.5-.1 3.5l.1.1 64.3 64.3c.8 3.7 4.4 6.1 8.1 5.3 3.1-.6 5.4-3.3 5.5-6.5L696 144.2c1-.9 1-2.5.1-3.5-.9-.9-2.4-.9-3.5.1.1-.1 0-.1 0 0z"/><path d="M826 607.3c0-.8-.5-1.5-1.2-1.8v-31.7c1-.4 1.5-1.6 1.1-2.6-.2-.5-.6-.9-1.1-1.1l-.2-240.7c0-10.8.3-21.9.5-32.7.8-35 1.7-71.2-6.1-105C795.6 90.9 709.4 16.9 606.1 9c-6-.5-12.2-.7-18.3-.7-81.3 0-158.4 42.9-201.4 111.9-35.3 56.6-35.3 122.9-35.3 187v8.8l-.1 204.8h-45.3v-27.4c19.3-.9 29.9-15.6 29.9-41.6 0-22-28.8-105.4-30-108.9-.4-1-1.5-1.6-2.5-1.2-.6.2-1 .6-1.2 1.2-1.2 3.5-30 86.9-30 108.9 0 25.9 10.6 40.6 29.9 41.6v27.4h-47.1c-8.3-15.7-20.6-29-35.6-38.6 7.3-21.1 2.1-44.5-13.6-60.4-.4-.4-1-.6-1.6-.6-6.5.5-13.4 1-20.5 1.2 19-47 45.7-77.7 64.8-95.2 20-18.3 36-26.3 37.5-27 9.4 8.5 23.9 7.7 32.4-1.7s7.7-23.9-1.7-32.4-23.9-7.7-32.4 1.7c-7.4 8.2-7.9 20.6-1.1 29.4-4.3 2.2-19 10.3-37.2 27-19.6 17.9-47 49.4-66.4 97.9-.1.2-.1.3-.1.5-4.8.1-9.7.2-14.7.2-.6-26.2.8-52.4 4.1-78.4 16.5-.2 35.4-4 46.5-18.1 14.8-18.8 12.1-51.3-8-96.6 12.7-18.8 24-26.7 26.5-28.3 20.9 14.1 49.3 8.6 63.4-12.3 14.1-20.9 8.6-49.3-12.3-63.4-20.9-14.1-49.3-8.6-63.4 12.3-13.2 19.6-9.4 46 8.9 61-4 2.8-13.8 10.6-25 26.6-3.9-8.6-8.4-17.6-13.6-27-12.4-22.9-32.1-56.4-59.8-82.6C98.6 84.4 61.6 70.6 22.1 75c-5.9.8-11.3 3.9-15 8.6-1.6 1.9-19.4 25.5 7.5 119.4 5.1 17.8 4 31.6 2.8 46.2-1.1 13.6-2.2 27.7 1.1 46.7.5 2.5 11.4 61.9 47.7 73.6 19.7 6.4 42.8-2.7 68.7-27.1 3.6 26.5 5.6 53.2 6 79.9-6.1-.3-11.9-.7-17.5-1.3-.6-.1-1.2.1-1.6.6-15.8 15.8-21.2 39.4-13.8 60.6-29.5 18.9-47.3 51.6-47.3 86.6 0 12 2.1 23.9 6.2 35.2-.5 0-1 .2-1.3.6-52.3 54.1-50.7 140.3 3.4 192.5 2.5 2.4 5.1 4.8 7.9 7-3.1 3-3.3 7.9-.3 11.1 1.5 1.6 3.5 2.5 5.7 2.5h735.3c4.1 0 7.4-3.3 7.4-7.4v-24.9c.9-.5 1.3-1.7.7-2.7-.2-.3-.4-.6-.7-.7v-31.8c.6-.3 1-1 1-1.7s-.4-1.4-1-1.7V715c1-.5 1.3-1.7.9-2.6-.2-.4-.5-.7-.9-.9v-31.8c1-.5 1.4-1.6.9-2.6-.2-.4-.5-.7-.9-.9v-31.7c1-.4 1.4-1.6 1-2.6-.2-.4-.5-.8-1-1v-31.7c.6-.4 1-1.1 1-1.9zM287.7 269.7c7.5-7.5 19.6-7.5 27 0 7.5 7.5 7.5 19.6 0 27-7.5 7.5-19.6 7.5-27 0-7.5-7.4-7.5-19.5 0-27-.1 0-.1 0 0 0zm-70.2-106.1c0-23 18.6-41.6 41.6-41.6s41.6 18.6 41.6 41.6-18.6 41.6-41.6 41.6-41.6-18.6-41.6-41.6zM353.8 574v-49.3h9.8v75.7h-9.8V574zm-13.7-49.3h9.8v75.7h-9.8v-75.7zm-13.7 0h9.8v75.7h-9.8v-75.7zm-13.8 0h9.8v75.7h-9.8v-75.7zm-36.9-73c0-18.2 21.4-82.9 27.9-102.2 6.5 19.3 27.9 84 27.9 102.2 0 16.7-4.6 36.5-26 37.7v-18.6c0-1.1-.9-2-2-2s-2 .9-2 2v18.6c-21.2-1.2-25.8-21-25.8-37.7zm23.2 73h9.8v75.7h-9.8v-75.7zm-13.7 0h9.8v75.7h-9.8v-75.7zm-13.7 0h9.8v75.7h-9.8v-75.7zM257.8 599v-74.3h9.8v75.7h-9.8V599zm-4-74.3v75.7H244v-75.7h9.8zM212 323.8c-10 12.7-27.3 16.3-42.9 16.5 6.4-45.3 18.4-76.1 29-95.9 2.1-3.9 4.3-7.5 6.4-10.9 18.6 42.6 21.2 72.9 7.5 90.3zM67.4 365.7c-34-11-44.9-70-45-70.6-3.2-18.5-2.1-32.3-1-45.7 1.2-15 2.3-29.2-2.9-47.6C-4.7 121 5.9 93.6 9.2 87.4c6.9 4.7 35 25.8 63.2 70.6 22.9 36.3 49.5 94.4 61.7 179.5-25.5 24.8-48 34.2-66.7 28.2zm54.4-105.4c-11.4-39-26.9-74.1-46.1-104.6-28.7-45.3-56.5-66.2-64-71.4 2.9-3 6.8-4.9 10.9-5.5 94.1-10.4 148 88.8 165.6 121.5 5.5 10.2 10.3 19.8 14.4 28.9-2.5 3.9-5.1 8.2-7.7 12.9-11 20.2-23.2 51.7-29.7 98.1-9.1-.2-18.2-1.3-27.1-3.3-3.6-25.8-9.1-51.4-16.3-76.6zm17 80.9c8.5 1.8 17.2 2.9 25.9 3.1-3.3 26-4.6 52.3-4.1 78.5-5.4 0-10.6-.1-15.7-.4-.4-27.1-2.5-54.3-6.1-81.2zM124 424.9c12.2 1.2 25.5 1.8 39.5 1.8 14.3 0 27.7-.5 39.8-1.5 14.1 14.8 18.7 36.3 12.1 55.6-17.2 1.9-34.5 2.8-51.8 2.7-17.3.1-34.5-1-51.7-3.2h-.4c-6.4-19.3-1.6-40.7 12.5-55.4zM64.6 568.8c-.1-33.5 16.8-64.7 44.8-82.9l1.7-1.1 1-.6 1 .1c16.7 2.1 33.6 3.2 50.5 3.1 16.8.1 33.6-.7 50.2-2.5l2-.2.2.1 1.7 1.1c13.5 8.8 24.6 20.8 32.5 34.8h-47.9c-1.1 0-2 .9-2 2V614c-13.2 1.2-27.7 1.8-43.6 1.8-34.2 0-62.8-3.5-85.1-10.5-4.6-11.6-7-24-7-36.5zm175.6-44.1v75.7h-9.8v-75.7h9.8zm-13.7 0v75.7h-9.8v-75.7h9.8zm-13.8 0v75.7h-8.5v-75.7h8.5zM31.3 699.1c-.1-33.9 12.9-66.4 36.3-91l1.1.4 2.4.8 2.5.7c22.1 6.4 50 9.7 83.1 9.7 15.9 0 30.4-.6 43.6-1.8V802h-120c-31.1-25.1-49.1-62.9-49-102.9zm50.9 114.7c-2.2 0-3.9-1.8-3.9-3.9 0-2.2 1.8-3.9 3.9-3.9h118.4c.7 3 2.2 5.8 4.5 7.8H82.2zm310 0H215.1c-4.8 0-9.1-3.2-10.5-7.8-.3-1-.5-2.1-.5-3.1V604.4H403v198.5c.1 6-4.8 10.9-10.8 10.9zm-24.7-213.4v-75.7h9.8v75.7h-9.8zm13.7 0v-75.7h9.8v75.7h-9.8zm13.8 0v-75.7h8.2v75.7H395zm425 212.4c-.7.6-1.5 1-2.5 1H402.2c3.1-2.8 4.8-6.8 4.8-10.9v-17.1h414v24.6c0 .8-.3 1.7-1 2.4zm.8-203.4v31.4H407v-31.4h413.8zm-413.8-4V574h413.7v31.4H407zm413.8 39.2V676H407v-31.4h413.8zm0 35.3v31.4H407v-31.4h413.8zm0 35.3v31.4H407v-31.4h413.8zm0 35.3v31.4H407v-31.4h413.8zm.1-453.7c-.3 10.8-.5 22-.5 32.8l.2 240.6H407v-47.4c0-1.1-.9-2-2-2h-50.2l.2-204.7v-8.8c0-63.6 0-129.3 34.6-185C432.1 54.4 507.9 12.2 587.9 12.2c6 0 12.1.2 18 .7C707.4 20.8 792 93.6 815 192.7c7.7 33.3 6.8 69.3 6 104l-.1.1z"/><path d="M391.9 718c-1.1 0-2 .9-2 2v13.8c0 1.1.9 2 2 2s2-.9 2-2V720c-.1-1.2-.9-2-2-2zm0 23.1c-1.1 0-2 .9-2 2V797c0 1.1.9 2 2 2s2-.9 2-2v-54c-.1-1-.9-1.9-2-1.9z"/></svg>