<svg xmlns="http://www.w3.org/2000/svg" id="Слой_1" x="0" y="0" version="1.1" viewBox="0 0 861.6 861.6" xml:space="preserve"><style>.st0{fill:#B8D0D9}.st1{fill:#D5E7F2}.st2{fill:#FBECE9}.st3{fill:#F8CBC4}</style><path d="M309.3 480.1c.2-3.7.3-7.3.5-11v-.4H6.4c.2 3.9.5 7.9.7 11.8h302.2v-.4z" class="st0"/><path d="M278.9 702.2c.6-1.4 1.1-2.8 1.7-4.2l.1-.3c2.7-6.9 5-13.9 7.1-21 10-34 13.5-69.7 16.6-108.4 1.6-20.8 2.7-41.7 3.7-62.2l.9-19.8.1-1.9H7.3c.2 3.3 5.2 91.8 8.7 127.1C21.2 663 33.1 702 54.7 737.9l11.6 19.4c2.3 3.9 7.3 6.4 12.7 6.4h157.4c5.4 0 10.4-2.5 12.7-6.4l11.6-19.3c4-6.7 7.8-13.7 11.3-20.6l.2-.3c.7-1.4 1.3-2.8 2-4.2.2-.5.4-.9.6-1.4l1.5-3.3c.2-.5.4-.9.6-1.4.5-1.2 1-2.3 1.5-3.5.2-.4.4-.7.5-1.1zM18.5 512.3c-.1-1.1-.2-2.3-.2-3.9 0-1.1.8-2 1.9-2.1s2 .8 2.1 1.9c0 1.5.1 2.6.2 3.7s.2 2.2.2 3.9c0 1.1-.8 2-1.9 2.1h-.1c-1.1 0-2-.9-2-1.9 0-1.5-.1-2.6-.2-3.7zm8 90.5h-.1c-1.1 0-1.9-.8-2-1.9-1.4-23.5-3-47.5-4.7-70.7l-.6-9c-.1-1.1.8-2.1 1.9-2.1s2.1.8 2.1 1.9l.6 9c1.6 23.2 3.3 47.2 4.7 70.7 0 1.1-.8 2-1.9 2.1zm249.8 75c-4.1 14.2-9.4 28-16 41.3-3.5 7.1-7.3 14.1-11.4 20.9-.6.9-1.8 1.3-2.7.7s-1.3-1.8-.7-2.7c4-6.6 7.7-13.3 11-20.2l.2-.5c3.1-6.3 6-12.8 8.6-19.5s5-13.8 7.1-21.1c.3-1.1 1.4-1.7 2.5-1.4 1.1.4 1.7 1.5 1.4 2.5zm-.5-3.4c-.2 0-.4 0-.5-.1-1.1-.3-1.7-1.4-1.4-2.5.7-2.5 1.4-5.1 2-7.7.3-1.1 1.4-1.7 2.4-1.4s1.7 1.4 1.4 2.4c-.6 2.6-1.3 5.2-2 7.8-.2.9-1 1.5-1.9 1.5z" class="st1"/><path d="M313.9 467.6c-.2 4.7-.5 9.5-.7 14.2 0 .5 0 1-.1 1.5 14.2 1.4 33.5 8.4 49.6 32.1 8.5 12.6 10.9 30.5 6.6 50.6-3.7 17.4-11.8 35.7-24.1 54.2-13.7 20.7-32.8 41.4-53.9 58.4-2.8 9.6-6.2 19-10.1 28.2-.2.4-.4.8-.5 1.2-.4 1-.9 2-1.3 3-.3.6-.6 1.2-.9 1.9-.4.8-.8 1.7-1.1 2.5-.1.2-.1.3-.2.5 19.2-12 36.9-26.1 52.7-42.2 21.2-21.3 37.7-43.9 48.9-67.1.9-1.8 1.8-3.7 2.6-5.5 10.4-23.5 20-58.1 6.7-90.1-16.3-39.3-52.7-54.3-73.5-57.4-.2 4.6-.4 9.3-.7 14z" class="st0"/><path d="M480.7 422.4l11.6-19.4c4-6.7 7.8-13.6 11.2-20.5v-.1c.8-1.5 1.5-3.1 2.2-4.6l.5-1.1c.5-1.2 1.1-2.4 1.6-3.5.2-.4.4-.8.5-1.2.5-1.2 1.1-2.5 1.6-3.7.1-.3.2-.6.4-.9.6-1.5 1.2-2.9 1.8-4.4l.1-.2c2.7-7 5-14 7.1-21.1 10-34 13.5-69.7 16.6-108.3 1.6-20.8 4.5-79.5 4.6-82l.1-1.9H238.8c.2 3.3 5.2 91.8 8.7 127.1 5.2 51.5 17.1 90.5 38.7 126.4l11.6 19.4c2.4 3.9 7.3 6.4 12.7 6.4h157.4c5.4 0 10.4-2.5 12.8-6.4zm24.7-85.5c.7-2.5 1.4-5.1 2-7.7.3-1.1 1.4-1.7 2.4-1.4 1.1.3 1.7 1.4 1.4 2.4-.6 2.6-1.3 5.2-2 7.8-.2.9-1 1.5-1.9 1.5-.2 0-.4 0-.5-.1-1.1-.3-1.7-1.4-1.4-2.5-.1 0 0 0 0 0zM477 403c4-6.6 7.7-13.3 11-20.1l.2-.5c3.1-6.3 6-12.8 8.6-19.5s5-13.8 7.1-21.1c.3-1.1 1.4-1.7 2.5-1.4 1.1.3 1.7 1.4 1.4 2.5-4.1 14.2-9.5 28-16 41.3-3.5 7.1-7.3 14.1-11.4 20.9-.4.6-1 1-1.7 1-.4 0-.7-.1-1-.3-1-.6-1.3-1.8-.7-2.8zM250.2 180.2c0-.5-.1-1-.1-1.5v-.9c0-1.1.8-2 1.9-2.1h.1c1.1 0 2 .9 2 1.9v.8c0 .5.1 1 .1 1.5v.9c0 1.1-.8 2-1.9 2.1h-.1c-1.1 0-2-.9-2-1.9.1-.2 0-.5 0-.8zm7.7 87.6h-.1c-1.1 0-1.9-.8-2-1.9-1.4-23.5-3-47.5-4.7-70.7l-.6-8.9c-.1-1.1.8-2.1 1.9-2.1s2.1.8 2.1 1.9l.6 8.9c1.6 23.2 3.3 47.2 4.7 70.8.1 1-.7 1.9-1.9 2 .1 0 .1 0 0 0z" class="st2"/><path d="M594.3 180.4c8.5 12.6 10.9 30.5 6.7 50.6-3.7 17.4-11.8 35.7-24.1 54.2-13.7 20.6-32.9 41.4-53.9 58.4-2.4 8-5.1 16-8.3 23.9l-1.8 4.2c-.2.5-.4.9-.6 1.4-.4 1-.9 2-1.3 2.9-.3.6-.6 1.3-.9 1.9-.4.8-.7 1.6-1.1 2.4-.1.2-.2.4-.2.5 19.2-12 36.9-26.1 52.7-42.2 21.2-21.3 37.7-43.9 48.9-67.1.9-1.8 1.7-3.7 2.6-5.5 10.4-23.4 20-58.1 6.7-90.1-16.3-39.2-52.7-54.2-73.5-57.3-.3 4.8-.5 9.5-.8 14.3-.2 4.9-.5 9.7-.7 14.5v.9c14.1 1.4 33.4 8.3 49.6 32.1z" class="st3"/><path d="M310.9 449.9c.3-5.7.7-11.4 1.1-17.1H4.1c.8 10.7 1.4 21.4 2.1 32h303.9c.2-5 .5-9.9.8-14.9z" class="st1"/><path d="M540.8 145.3c.2-3.6.3-7.3.5-10.9v-.7H237.9c.2 3.9.5 7.9.7 11.8h302.1c.1-.1.1-.1.1-.2z" class="st3"/><path d="M542.3 114.9c.3-5.7.7-11.4 1.1-17.2H235.6c.8 10.7 1.4 21.4 2.1 32h303.9c.2-4.9.5-9.8.7-14.8z" class="st2"/><path fill="#C4E1D4" d="M772.3 480.4l.6-11.4v-.3H469.4c.2 3.9.5 7.9.7 11.8l302.2-.1zm5.3-26.9c-.3 4.7-.5 9.3-.7 14-.3 5-.5 10.1-.7 15.1v.7c14.2 1.4 33.5 8.4 49.6 32.1 8.5 12.6 10.9 30.5 6.7 50.6-3.7 17.4-11.8 35.7-24.1 54.2-13.7 20.7-32.8 41.4-53.8 58.4-2.4 8-5.1 16-8.3 23.9v.1c-.6 1.4-1.1 2.8-1.7 4.2-.2.5-.4 1-.6 1.4-.4 1-.8 1.9-1.2 2.9l-.9 2.1-1 2.2-.3.6c19.1-12 36.8-26.1 52.6-42.2 21.2-21.3 37.7-43.9 48.9-67.1.9-1.8 1.7-3.7 2.6-5.5 10.4-23.4 20-58.1 6.7-90.1-16.5-39.5-53-54.5-73.8-57.6z"/><path fill="#E1F0E9" d="M741.9 702.3c.6-1.4 1.2-2.9 1.7-4.3l.1-.2c2.7-6.9 5-14 7.1-21 10-34 13.5-69.7 16.6-108.4 1.6-20.8 2.7-41.7 3.7-62.2l.6-11.9v-.4l.4-7.5.1-1.9H470.3c.2 3.3 5.2 91.8 8.7 127.1 5.2 51.5 17.1 90.5 38.7 126.4l11.6 19.4c2.3 3.9 7.3 6.4 12.7 6.4h157.4c5.4 0 10.3-2.5 12.7-6.4l11.6-19.3c4-6.7 7.8-13.6 11.2-20.5v-.1c.8-1.5 1.5-3.1 2.2-4.6.2-.4.3-.8.5-1.2.5-1.2 1.1-2.4 1.6-3.5.2-.4.3-.8.5-1.2.5-1.2 1-2.4 1.6-3.7.3-.4.4-.7.6-1zm-260.4-190c-.1-1.1-.2-2.3-.2-3.9 0-1.1.8-2 1.9-2.1h.1c1.1 0 2 .9 2 1.9 0 1.5.1 2.6.2 3.7s.2 2.2.2 3.9c0 1.1-.8 2-1.9 2.1h-.1c-1.1 0-2-.9-2-1.9 0-1.5-.1-2.6-.2-3.7zm7.9 90.5h-.1c-1.1 0-1.9-.8-2-1.9-1.4-23.5-3-47.4-4.7-70.5l-.6-9.1c-.1-1.1.8-2.1 1.9-2.1 1.1-.1 2 .8 2.1 1.9l.6 9.1c1.6 23.1 3.3 47.1 4.7 70.6.1 1-.8 1.9-1.9 2zm249.9 75c-4.1 14.2-9.5 28-16 41.3-3.5 7.1-7.3 14.1-11.4 20.9-.4.6-1 1-1.7 1-1.1 0-2-.9-2-2 0-.3.1-.7.3-1 4-6.6 7.7-13.3 11-20.2.1-.2.2-.3.2-.5 3.1-6.3 6-12.8 8.6-19.5s5-13.8 7.1-21.1c.3-1.1 1.4-1.7 2.5-1.4 1 .4 1.7 1.5 1.4 2.5zm-.5-3.4c-.2 0-.4 0-.5-.1-1.1-.3-1.7-1.4-1.4-2.5.7-2.5 1.4-5.1 2-7.7.3-1.1 1.4-1.7 2.4-1.4s1.7 1.4 1.4 2.4c-.7 2.6-1.3 5.2-2 7.8-.2.9-1 1.5-1.9 1.5zm35-224.5c.3-5.7.7-11.4 1-17.1H467.1c.8 10.7 1.5 21.4 2.1 32H773c.3-5 .5-9.9.8-14.9z"/><path d="M23 521c-.1-1.1-1-1.9-2.1-1.9-1.1.1-1.9 1-1.9 2.1l.6 9c1.6 23.2 3.3 47.1 4.7 70.7.1 1.1.9 1.9 2 1.9h.1c1.1-.1 1.9-1 1.9-2.1-1.4-23.6-3-47.5-4.7-70.7l-.6-9zm-2.2-3.1c1.2 0 2-1 2-2.1-.1-1.6-.1-2.8-.2-3.9s-.2-2.2-.2-3.7c0-1.1-1-2-2.1-1.9s-2 1-1.9 2.1c.1 1.6.1 2.8.2 3.9s.2 2.2.2 3.7c0 1.1.9 1.9 2 1.9zm257.5 144.9c-1.1-.3-2.2.4-2.4 1.5-.6 2.6-1.3 5.2-2 7.7-.3 1.1.3 2.2 1.4 2.5 1.1.3 2.2-.3 2.5-1.4.7-2.6 1.4-5.2 2-7.8.2-1.2-.4-2.2-1.5-2.5zm-3.4 12.6c-1.1-.3-2.2.3-2.5 1.3-2.1 7.4-4.5 14.4-7.1 21.1s-5.4 13.2-8.6 19.5l-.2.5c-3.4 6.8-7.1 13.6-11 20.2-.6.9-.3 2.2.7 2.7s2.2.3 2.7-.7c4.1-6.8 7.9-13.8 11.4-20.9 6.5-13.3 11.9-27.1 16-41.3.3-1-.3-2.1-1.4-2.4.1 0 .1 0 0 0z"/><path d="M777.9 449.6c.3-6.2.7-12.4 1.2-18.6.1-1.1-.8-2.1-1.9-2.1h-297c1.6-1.2 2.9-2.7 3.9-4.4l11.6-19.4c3.5-5.7 6.7-11.6 9.7-17.5 21.5-12.7 41.3-28.2 58.9-46 21.5-21.7 38.2-44.6 49.7-68.2.9-1.9 1.8-3.8 2.6-5.6 10.7-24.2 20.5-60 6.8-93.2-20-48.2-65.2-58-77-59.8.4-6.2.7-12.4 1.2-18.6 0-.6-.2-1.1-.5-1.5-.4-.4-.9-.6-1.4-.7H233.4c-.6 0-1.1.2-1.5.6-.4.4-.6.9-.5 1.5.9 12 1.6 24 2.4 35.9.3 5.3.6 10.5.9 15.8.2 4.3 5.3 93.6 8.9 129.4 5.2 52.1 17.3 91.6 39.2 128.1l11.6 19.4c1 1.7 2.4 3.2 3.9 4.4H1.9c-1.1 0-2 .9-2 2v.1c.9 12 1.6 24 2.3 35.9.3 5.3.6 10.5.9 15.8.2 4.3 5.3 93.6 8.9 129.4 5.2 52.2 17.3 91.6 39.2 128.1l11.7 19.4c3.1 5.2 9.3 8.4 16.1 8.4h157.4c6.8 0 13-3.2 16.1-8.4l11.6-19.3c3.5-5.7 6.7-11.6 9.7-17.5 21.5-12.7 41.3-28.2 58.9-46 21.5-21.7 38.2-44.6 49.6-68.2.9-1.9 1.8-3.8 2.6-5.7 10.7-24.2 20.6-60 6.8-93.2-20-48.2-65.2-58-77-59.8.3-5.6.7-11.2 1-16.8h147.2c.8 11.4 1.5 22.8 2.2 34.1.3 5.3.6 10.5.9 15.8.2 4.3 5.3 93.6 8.9 129.4 5.2 52.1 17.3 91.6 39.2 128.1l11.7 19.3c3.1 5.2 9.3 8.4 16.1 8.4h157.4c6.8 0 13-3.2 16.1-8.4l11.6-19.3c3.5-5.7 6.7-11.6 9.7-17.5 21.5-12.7 41.3-28.2 58.8-46 21.5-21.7 38.2-44.6 49.7-68.2.9-1.9 1.8-3.8 2.6-5.7 10.7-24.2 20.6-60 6.8-93.2-19.7-48.9-65-58.8-76.7-60.5zm-2 37.6c13.3 1.4 31.3 8 46.5 30.4 7.9 11.7 10.1 28.5 6 47.5-3.6 17-11.5 34.7-23.5 52.8-12.5 18.9-29.6 37.9-48.6 53.9 8.8-32.5 12.1-66.5 15-103.1 1.7-21.2 4.2-74.1 4.3-74.6l.3-6.9zM544.7 147.4c.2-4.8.5-9.7.7-14.6.2-4.7.5-9.5.8-14.3 20.8 3.1 57.2 18.1 73.5 57.3 13.2 32 3.7 66.7-6.7 90.1-.8 1.9-1.7 3.7-2.6 5.5-11.2 23.2-27.7 45.8-48.9 67.1-15.9 16.1-33.6 30.3-52.7 42.2.1-.2.2-.4.2-.5.4-.8.7-1.6 1.1-2.4.3-.6.6-1.3.9-1.9.4-1 .9-2 1.3-2.9.2-.5.4-.9.6-1.4l1.8-4.2c3.2-7.9 5.9-15.8 8.3-23.9 21-17 40.1-37.8 53.9-58.4 12.3-18.5 20.4-36.7 24.1-54.2 4.3-20.1 1.9-38-6.7-50.6-16.2-23.8-35.5-30.7-49.6-32.1v-.8zm46.2 35.2c7.9 11.7 10.1 28.5 6 47.5-3.6 17-11.5 34.7-23.5 52.8-12.5 18.9-29.6 37.9-48.5 53.9 8.8-32.5 12.1-66.5 15-103.1 1.7-21.2 4.5-79.1 4.6-81.4 13.2 1.3 31.2 8 46.4 30.3zM235.6 97.8h307.8c-.4 5.7-.7 11.5-1.1 17.2-.3 5-.5 9.9-.8 14.9H237.7c-.7-10.8-1.4-21.4-2.1-32.1zm2.3 36h303.4v.6c-.2 3.6-.4 7.3-.5 10.9v.2H238.6c-.2-3.9-.5-7.8-.7-11.7zM4.1 432.8h307.8c-.4 5.7-.7 11.4-1.1 17.1-.3 5-.5 9.9-.8 14.8H6.2c-.7-10.6-1.3-21.2-2.1-31.9zm308.8 54.4c13.3 1.4 31.3 8 46.5 30.4 7.9 11.7 10.1 28.5 6 47.5-3.6 17-11.5 34.7-23.5 52.8-12.5 18.9-29.6 37.9-48.6 53.9 8.8-32.5 12.1-66.5 15-103.1 1.7-21.3 4.6-79.2 4.6-81.5zM6.4 468.8h303.4v.4c-.2 3.7-.4 7.3-.5 11v.4H7.1c-.2-4-.4-7.9-.7-11.8zm270 239.4l-1.5 3.3c-.2.5-.4 1-.6 1.4-.7 1.4-1.3 2.8-2 4.2l-.2.3c-3.4 7-7.2 13.9-11.3 20.6l-11.6 19.3c-2.4 3.9-7.3 6.4-12.7 6.4H79.1c-5.4 0-10.3-2.5-12.7-6.4L54.7 738C33.1 702.1 21.2 663.1 16 611.6c-3.5-35.2-8.5-123.8-8.7-127.1h301.8l-.1 1.9-.9 19.8c-1 20.5-2.1 41.4-3.7 62.2-3 38.6-6.6 74.4-16.6 108.4-2.1 7.1-4.4 14.1-7.1 21l-.1.3c-.5 1.4-1.1 2.8-1.7 4.2-.1.3-.3.7-.4 1-.5 1.2-1 2.3-1.5 3.5-.2.4-.4.9-.6 1.4zm111.8-197.3c13.2 32 3.6 66.6-6.7 90.1-.8 1.8-1.7 3.7-2.6 5.5-11.2 23.2-27.6 45.8-48.9 67.1-15.9 16.1-33.6 30.3-52.7 42.2.1-.2.1-.3.2-.5.4-.8.8-1.7 1.1-2.5.3-.6.6-1.2.9-1.9.5-1 .9-2 1.3-3 .2-.4.4-.8.5-1.2 3.9-9.2 7.3-18.6 10.1-28.2 21-17 40.1-37.8 53.9-58.4 12.3-18.5 20.4-36.7 24.1-54.2 4.3-20 1.9-38-6.6-50.6-16.1-23.8-35.4-30.7-49.6-32.1 0-.5 0-1 .1-1.5.2-4.7.4-9.4.7-14.2.2-4.6.5-9.3.8-14 20.7 3.1 57.1 18.1 73.4 57.4zm-77.6-82.1c-5.4 0-10.4-2.5-12.7-6.4L286.2 403c-21.6-35.9-33.5-74.9-38.7-126.4-3.5-35.2-8.5-123.8-8.7-127.1h301.8l-.1 1.9c-.1 2.5-3 61.2-4.6 82-3 38.6-6.6 74.4-16.6 108.3-2.1 7.1-4.4 14.1-7.1 21.1l-.1.2c-.6 1.5-1.2 2.9-1.8 4.4-.1.3-.2.6-.4.9-.5 1.2-1 2.5-1.6 3.7-.2.4-.3.8-.5 1.2-.5 1.2-1.1 2.4-1.6 3.5l-.5 1.1c-.7 1.5-1.5 3.1-2.2 4.6v.1c-3.4 6.9-7.2 13.8-11.2 20.5l-11.6 19.4c-2.4 3.9-7.3 6.4-12.7 6.4H310.6zm156.5 4h307.8c-.4 5.7-.7 11.4-1 17.1-.3 5-.5 9.9-.8 14.8h-304c-.6-10.6-1.3-21.2-2-31.9zm2.3 36h303.4v.3l-.6 11.4v.1H470.1c-.3-4-.5-7.9-.7-11.8zm270 239.3c-.5 1.2-1.1 2.4-1.6 3.5-.2.4-.3.8-.5 1.2-.7 1.5-1.5 3.1-2.2 4.6v.1c-3.4 6.9-7.2 13.8-11.2 20.5l-11.6 19.3c-2.3 3.9-7.3 6.4-12.7 6.4H542.1c-5.4 0-10.3-2.5-12.7-6.4L517.7 738c-21.6-35.9-33.5-74.9-38.7-126.4-3.5-35.2-8.5-123.8-8.7-127.1h301.8l-.1 1.8-.4 7.5v.4l-.6 11.9c-1 20.5-2.1 41.4-3.7 62.2-3 38.6-6.6 74.4-16.6 108.4-2.1 7.1-4.4 14.1-7.1 21l-.1.2c-.6 1.5-1.1 2.9-1.7 4.3-.1.3-.2.6-.4.9-.5 1.2-1 2.5-1.6 3.7 0 .5-.2.9-.4 1.3zm105-107.1c-.8 1.8-1.7 3.7-2.6 5.5-11.2 23.2-27.6 45.8-48.9 67.1-15.9 16.1-33.5 30.3-52.7 42.2l.3-.6 1-2.2.9-2.1c.4-1 .8-1.9 1.2-2.9.2-.5.4-1 .6-1.4.6-1.4 1.2-2.8 1.7-4.2v-.1c3.2-7.9 5.9-15.8 8.3-23.9 21-17 40.1-37.8 53.8-58.4 12.3-18.5 20.4-36.7 24.1-54.2 4.2-20 1.9-38-6.7-50.6-16.1-23.8-35.4-30.7-49.6-32.1v-.7c.2-5 .5-10 .7-15.1.2-4.7.5-9.3.7-14 20.8 3.1 57.2 18.1 73.5 57.4 13.7 32.2 4.1 66.8-6.3 90.3z"/><path d="M486 521c-.1-1.1-1-1.9-2.1-1.9-1.1.1-1.9 1-1.9 2.1l.6 9.1c1.6 23.1 3.3 47 4.7 70.5.1 1.1.9 1.9 2 1.9h.1c1.1-.1 1.9-1 1.9-2.1-1.3-23.5-3-47.4-4.7-70.6l-.6-9zm-2.3-3.1c1.2 0 2-1 2-2.1 0-1.6-.1-2.8-.2-3.9s-.2-2.2-.2-3.7c0-1.1-.9-1.9-2-1.9h-.1c-1.1 0-2 1-1.9 2.1 0 1.6.1 2.8.2 3.9s.2 2.2.2 3.7c.1 1.1 1 1.9 2 1.9zm257.6 144.9c-1.1-.3-2.2.4-2.4 1.5-.6 2.6-1.3 5.2-2 7.7-.3 1.1.3 2.2 1.4 2.5.2 0 .4.1.5.1.9 0 1.7-.6 1.9-1.5.7-2.5 1.4-5.2 2-7.8.3-1.2-.4-2.2-1.4-2.5zm-3.4 12.6c-1.1-.3-2.2.3-2.5 1.4-2.2 7.4-4.5 14.4-7.1 21.1s-5.4 13.2-8.6 19.5c-.1.2-.2.3-.2.5-3.4 6.8-7.1 13.6-11 20.2-.6 1-.2 2.2.7 2.7.3.2.6.3 1 .3.7 0 1.4-.4 1.7-1 4.1-6.8 8-13.8 11.4-20.9 6.5-13.3 11.9-27.1 16-41.3.4-1.2-.3-2.3-1.4-2.5zM254.5 186c-.1-1.1-1-1.9-2.1-1.9s-1.9 1-1.9 2.1l.6 8.9c1.6 23.2 3.3 47.2 4.7 70.7.1 1.1.9 1.9 2 1.9h.1c1.1-.1 1.9-1 1.9-2.1-1.4-23.6-3-47.6-4.7-70.8l-.6-8.8zm-2.2-3.1c1.2 0 2-1 2-2.1v-.9c0-.6-.1-1.1-.1-1.5v-.8c0-1.1-.9-1.9-2-1.9h-.1c-1.1 0-2 1-1.9 2.1v.9c0 .6.1 1.1.1 1.5v.8c0 1.1.9 1.9 2 1.9zm254.5 156.4c.2 0 .4.1.5.1.9 0 1.7-.6 1.9-1.5.7-2.5 1.4-5.2 2-7.8.3-1.1-.4-2.2-1.4-2.4-1.1-.3-2.2.4-2.4 1.4-.6 2.6-1.3 5.2-2 7.7-.4 1.1.2 2.2 1.4 2.5-.1 0-.1 0 0 0zm-29.1 66.5c.3.2.6.3 1 .3.7 0 1.4-.4 1.7-1 4.1-6.8 7.9-13.8 11.4-20.9 6.5-13.3 11.9-27.1 16-41.3.3-1.1-.3-2.2-1.4-2.5-1.1-.3-2.2.3-2.5 1.4-2.2 7.4-4.5 14.4-7.1 21.1s-5.4 13.2-8.6 19.5l-.2.5c-3.4 6.8-7.1 13.6-11 20.1-.5.9-.3 2.2.7 2.8z"/></svg>