<svg xmlns="http://www.w3.org/2000/svg" viewBox="0 0 77.2 82.6"><path fill="#40AABC" d="M16.6 33.8l-.1.1 7.6 14.6L38.6 34v-.2z"/><path fill="#7EEDED" d="M24.1 48.5h14.5V34z"/><path fill="#40AABC" d="M38.6 48.5H24.1L38.6 82z"/><path fill="#4CBDC9" d="M16.5 33.9L.1 48.5h13.2c.6-2.1 3.3-14.7 3.2-14.6z"/><path fill="#63CBD6" d="M24.1 48.5l-7.6-14.6c.1-.1-2.7 12.5-3.3 14.6h10.9z"/><path fill="#4CBDC9" d="M13.1 48.8C13 48.5 32 73.5 38.6 82.2V82L24.1 48.5H13.2c0 .2-.1.3-.1.3z"/><path fill="#40AABC" d="M13.1 48.8s.1-.1.1-.3H0l38.6 34.1v-.4C32 73.5 13 48.5 13.1 48.8z"/><path fill="#7EEDED" d="M60.6 33.8l.1.1-7.6 14.6L38.6 34v-.2z"/><path fill="#40AABC" d="M53.1 48.5H38.6V34z"/><path fill="#4CBDC9" d="M38.6 48.5h14.5L38.6 82z"/><path fill="#7EEDED" d="M60.7 33.9l16.5 14.6H64c-.7-2.1-3.4-14.7-3.3-14.6z"/><path fill="#63CBD6" d="M53.1 48.5l7.6-14.6c-.1-.1 2.7 12.5 3.3 14.6H53.1z"/><path fill="#40AABC" d="M64.1 48.8c.1-.2-18.9 24.8-25.5 33.4V82l14.5-33.5H64c0 .2.1.3.1.3z"/><path fill="#63CBD6" d="M64.1 48.8s-.1-.1-.1-.3h13.2l.1.1-38.7 34v-.4c6.6-8.7 25.6-33.7 25.5-33.4z"/><path fill="#FFF" d="M56.3 50.1l11.3-1.3-11.3-1.4-1.4-11.3-1.3 11.3-11.3 1.4 11.3 1.3 1.3 11.3z"/><path fill="#FFF" d="M54.9 50.2l6.4 4.9-5-6.3 5-6.4-6.4 5-6.3-5 4.9 6.4-4.9 6.3z"/><path fill="#F4D954" d="M19.3 23.8l6.4 5-5-6.4 5-6.4-6.4 5-6.4-5 5 6.4-5 6.4zM60 11.4l9.3 7.4L62 9.4 69.3 0 60 7.3 50.6 0l7.3 9.4-7.3 9.4z"/></svg>