<svg xmlns="http://www.w3.org/2000/svg" id="Слой_1" x="0" y="0" version="1.1" viewBox="0 0 826 826" xml:space="preserve"><style>.st0{fill:#FBE0DC}.st1{fill:#EFB19E}.st2{fill:#E1F0E9}.st3{fill:#C4E1D4}.st4{fill:#F7F4C7}</style><path d="M399.1 633.5H241.2v66.4h185.2v-66.4h-25.3z" class="st0"/><path d="M316.5 747.8h109.9v-43.9H4v43.9h237.2z" class="st1"/><path d="M612.8 425.2H401.1v204.3h27.3c1.1 0 2 .9 2 2v186.8h198.8V425.2h-16.4z" class="st2"/><path d="M642.2 387.2v-29.4H401.1v63.4h241.1z" class="st3"/><path d="M644.7 117.2h-29.9v236.5h29.5c1.1 0 2 .9 2 2v67.5c0 1.1-.9 2-2 2h-11v393h39.2v-701h-27.8z" class="st4"/><path d="M399.1 751.9H241.2v66.3h185.2v-66.3h-25.3z" class="st0"/><path d="M316.5 425.2H88.4v204.3h124.7l-48.7-48.7c-.8-.8-.8-2.1 0-2.8.3-.3.6-.5 1-.6l16.1-3 2.9-16.1c.2-1.1 1.2-1.8 2.3-1.6.4.1.8.3 1.1.6l27.3 27.3 27.3-27.3c.8-.8 2.1-.8 2.8 0 .3.3.5.7.6 1.1l2.9 16.1 16.1 3c1.1.2 1.8 1.3 1.6 2.3-.1.4-.3.8-.6 1.1l-48.7 48.7h99.1l.3-204.4z" class="st2"/><path d="M246.8 578.2c-.8-.2-1.5-.8-1.6-1.6l-2.5-13.6-25.5 25.5V624l43.2-43.2-13.6-2.6z" class="st1"/><path d="M86.3 699.9h102.9v-66.4H4v66.4h80.3z" class="st0"/><path d="M193.2 751.9h43.9v66.4h-43.9z" class="st1"/><path d="M99.3 751.9H4v66.3h185.2v-66.3h-87.9z" class="st0"/><path d="M185.2 576.6c-.1.8-.8 1.5-1.6 1.6l-13.6 2.5 43.2 43.2v-35.5L187.7 563l-2.5 13.6z" class="st1"/><path d="M357.2 353.8h3c4.2-9.5 11.3-26.2 13.9-32.6 2.8-6.8 10-25 11.4-34.6 1.3-11-2.1-22-9.2-30.4-5-5.7-11.2-8.8-17.6-8.8s-12.6 3.1-17.5 8.8c-12.5 14.6-11.1 29.1-4.4 49.5 5.5 16.4 13.1 32.5 20.4 48.1z" class="st3"/><path fill="#F7DF89" d="M683.2 106.2c20.5-4.2 36.1-11.3 47.7-21.9 3.7-3.3 7-7.1 9.8-11.1 10.5-14.7 16.6-38-.4-55.1-.9-.9-1.9-1.8-2.9-2.6-6.6-5.2-14.7-7.9-23.1-7.7-14.1 0-28.7 6.7-38.5 16.5-15.1 15.1-21.1 37.4-24.9 57.2-2 10-3.5 20.1-4.4 30.3 11.1-1.1 22.1-2.7 33.1-4.9l3.6-.7zm-42.6 5.4v-.3c-1.1-11.6-2.9-23.2-5.3-34.6-3.6-17-8.5-36.3-21.1-50.2-3.4-3.7-7.3-7-11.6-9.7-9.5-6-19.8-9.1-29.2-9.1-2.9 0-5.9.3-8.7 1-12.8 3-21.5 10.6-25.2 22-5 15.3.1 35.8 12.3 49.9 15.2 17.6 39.4 23.3 60.9 27.3 10.4 1.9 19.5 3.2 28 4l-.1-.3z"/><path d="M349.5 353.8l-.5-.9c-8.4-15-17.1-30.5-27.4-44.5-11.6-15.9-22-25.3-38.5-25.3-1.4 0-2.8.1-4.3.2-7.5.7-13.6 3.9-17.3 9.1s-4.7 12-3 19.5c2.7 10.7 9.8 19.8 19.5 25.2 8.6 4.5 27.6 9.1 34.8 10.8 5.2 1.3 17.2 3.9 27 6l9.7-.1z" class="st3"/><path d="M193.2 699.9h43.9v-66h-43.9v66zm3.4-47.8c0-1.1.9-2 2-2s2 .9 2 2v4.9c0 1.1-.9 2-2 2s-2-.9-2-2v-4.9zm0 11.7c0-1.1.9-2 2-2s2 .9 2 2v17.6c0 1.1-.9 2-2 2s-2-.9-2-2v-17.6z" class="st1"/><path d="M397.1 425.2v-67.5h-76.6v271.8h76.6V425.2zm-66.9-4v34.3c0 1.1-.9 2-2 2s-2-.9-2-2v-52.8c0-1.1.9-2 2-2s2 .9 2 2v18.5zm0-24.4c0 1.1-.9 2-2 2s-2-.9-2-2v-12.7c0-1.1.9-2 2-2s2 .9 2 2v12.7zm-13.7 24.4v-63.4H75.3v63.4h11zm50.8-67.4h9.8c9.8-2.1 21.9-4.8 27-6 7.2-1.7 26.2-6.3 34.8-10.8 9.7-5.3 16.7-14.4 19.5-25.2 1.7-7.4.7-14.3-3-19.5-3.7-5.2-9.8-8.4-17.3-9.1-1.5-.1-2.9-.2-4.3-.2-16.5 0-26.8 9.4-38.5 25.3-10.3 14.1-19 29.5-27.4 44.5l-.6 1z" class="st3"/><path fill="#FCFBE9" d="M676.4 117.2v13.1l13.1-13.1zm0 664.4L822 636v-42.1L676.4 739.5zm0-108.6L822 527.4v-42L676.4 631zm0-108.5L822 418.9v-42L676.4 522.5zM756 117.2l-79.6 79.6v42L798 117.2zm66 701V811l-7.2 7.2zm-73.8 0l73.8-73.7v-42L706.2 818.2zm-283-701v7.2l7.2-7.2zm73.7 0l-73.7 73.7V233l115.7-115.8zm71.9 36.7L465.2 299.5v42l145.6-145.6zm0 108.5l-91.4 91.4h42.1l49.3-49.3zm65.6 193.5L822 310.3v-42L676.4 413.9zm0-108.5L822 201.8v-42L676.4 305.4z"/><path d="M676.4 733.9L822 588.3v-55.2L676.4 678.7zm0-108.6L822 479.7v-55.1L676.4 570.2zm0 192.9h24.1L822 696.8v-55.2L676.4 787.2zm18.7-701L676.4 136v55.1l73.9-73.9zm114 701l12.9-12.8v-55.2l-68.1 68zm-331-701l-12.9 12.9v55.2l68-68.1zm198.3 399.6L822 371.2V316L676.4 461.6zm-65.6-399.6h-24.2L465.2 238.6v55.2l145.6-145.6zm0 139.6v-55.2L465.2 347.2v6.6h48.6zm0 53.3l-43.7 43.7h43.7zm65.6 98.1L822 262.6v-55.1L676.4 353.1zm0-163.7v55.2L822 154.1v-36.9h-18.3z" class="st4"/><path d="M824 113.2H667.3c4.3-.7 8.7-1.5 13.1-2.4l3.5-.7c21.2-4.3 37.4-11.8 49.6-22.8 3.9-3.5 7.4-7.5 10.4-11.7 15-21.1 14.6-44.8-.9-60.2-1-1-2.1-2-3.2-2.9-19.8-16-50.1-7.8-66.9 9-15.9 15.9-22.1 38.9-26 59.3-1.4 7.4-2.6 14.3-3.4 20.9-1.1-8.7-2.5-17.3-4.3-25.8-3.7-17.5-8.7-37.4-22.1-52.1-3.6-4-7.8-7.5-12.4-10.4-13.5-8.5-28.4-11.6-41-8.7-18 4.2-25.2 15.7-28.1 24.6-5.4 16.5 0 38.7 13.1 53.8 16.1 18.6 41 24.5 63.2 28.6 2.7.5 5.4 1 8 1.4H463.2c-1.1 0-2 .9-2 2v179.4c-.7-1.6-1.5-3.2-2.6-4.6-4.4-6.1-11.6-10-20.2-10.8-20.9-1.9-33.3 8.8-46.4 26.8-7.6 10.6-14.6 21.7-20.9 33.1 2.8-6.7 5.6-13.2 6.8-16.3 4.8-11.9 10.4-26.7 11.6-35.6 1.4-12.1-2.3-24.3-10.1-33.6-5.8-6.6-13.1-10.2-20.6-10.2-7.6 0-14.8 3.6-20.5 10.2-13.7 15.9-12.2 32.2-5.2 53.4 3.9 11.3 8.3 22.4 13.4 33.3-6.5-11.8-13.7-23.2-21.6-34.2-13.1-18-25.5-28.7-46.4-26.8-8.7.8-15.8 4.6-20.2 10.8-4.4 6.1-5.7 14.2-3.6 22.7 3 11.8 10.8 21.9 21.5 27.8 8 4.2 23.3 8.2 35.7 11.2 2 .5 5.4 1.3 9.3 2.1H73.3c-1.1 0-2 .9-2 2v67.5c0 1.1.9 2 2 2h11v204.3H2c-1.1 0-2 .9-2 2v188.8c0 1.1.9 2 2 2h822c1.1 0 2-.9 2-2V115.2c0-1.1-.9-2-2-2zM650.9 81.5c3.8-19.8 9.8-42.2 24.9-57.2 9.8-9.8 24.5-16.5 38.5-16.5 8.4-.2 16.5 2.6 23.1 7.7 1 .8 2 1.7 2.9 2.6 17.1 17.1 10.9 40.3.4 55.1-2.9 4-6.2 7.8-9.8 11.1-11.6 10.5-27.2 17.7-47.7 21.9l-3.5.7c-10.9 2.2-22 3.9-33.1 4.9.9-10.2 2.4-20.3 4.3-30.3zm-38.2 26.4c-21.5-4-45.7-9.7-60.9-27.3-12.2-14.1-17.3-34.7-12.3-49.9 3.7-11.3 12.4-18.9 25.2-21.9 2.9-.7 5.8-1 8.7-1 9.4 0 19.7 3.2 29.2 9.1 4.3 2.7 8.2 5.9 11.6 9.7 12.6 13.9 17.5 33.2 21.1 50.2 2.4 11.4 4.2 23 5.3 34.6v.5c-8.4-.8-17.6-2.1-27.9-4zm-147.5 9.3h7.2l-7.2 7.2v-7.2zm0 12.9l12.9-12.9h55.1l-68.1 68.1.1-55.2zm0 60.8l73.7-73.7h42L465.2 233v-42.1zm0 47.7l121.4-121.4h24.2v31L465.2 293.8v-55.2zm0 60.9l145.6-145.6v42L465.2 341.5v-42zm0 47.7l145.6-145.6v55.1l-97 97h-48.6v-6.5zm96.3 6.6h-42l91.3-91.3v42l-49.3 49.3zm49.3-43.7v43.6h-43.6l43.6-43.6zm-215.6-1.8c11.6-15.9 22-25.3 38.5-25.3 1.4 0 2.9.1 4.3.2 7.5.7 13.6 3.9 17.3 9.1 3.7 5.2 4.7 12 3 19.5-2.7 10.7-9.8 19.8-19.5 25.2-8.6 4.5-27.6 9.1-34.8 10.8-5.2 1.3-17.2 3.9-27 6h-9.8l.5-.9c8.5-15.1 17.2-30.5 27.5-44.6zm65.9 8v37.4h-65.4c3.9-.9 7.2-1.6 9.3-2.1 12.4-3 27.7-7 35.7-11.2 9.6-5.2 16.8-13.8 20.4-24.1zm-124.3-10.7c-6.7-20.3-8.1-34.9 4.4-49.5 4.9-5.7 11.1-8.8 17.5-8.8s12.6 3.1 17.6 8.8c7.1 8.4 10.5 19.5 9.2 30.4-1.3 9.6-8.6 27.8-11.4 34.6-2.6 6.3-9.7 23.1-13.9 32.6h-3v-.1c-7.3-15.4-14.9-31.5-20.4-48zm-24.1 42.2c-7.2-1.7-26.2-6.3-34.8-10.8-9.7-5.3-16.7-14.4-19.5-25.2-1.8-7.4-.7-14.3 3-19.5 3.7-5.2 9.9-8.4 17.3-9.1 1.5-.1 2.9-.2 4.3-.2 16.5 0 26.8 9.4 38.5 25.3 10.3 14.1 19 29.5 27.4 44.5l.5.9h-9.8c-9.7-2-21.7-4.7-26.9-5.9zm7.8 77.5v-67.5h76.6v271.7h-76.6V425.3zm-245.2-4.1v-63.5h241.1v63.5H75.3zm161.8 212.7v66h-43.9v-66h43.9zm-23.9-10L170 580.8l13.6-2.5c.8-.2 1.5-.8 1.6-1.6l2.5-13.6 25.5 25.5v35.3zm4.1 5.6l48.7-48.7c.8-.8.8-2.1 0-2.8-.3-.3-.7-.5-1.1-.6l-16.1-3-2.9-16.1c-.2-1.1-1.2-1.8-2.3-1.6-.4.1-.8.3-1.1.6l-27.3 27.4-27.3-27.3c-.8-.8-2.1-.8-2.8 0-.3.3-.5.7-.6 1.1l-2.9 16.1-16.1 3c-1.1.2-1.8 1.3-1.6 2.4.1.4.3.7.6 1l48.7 48.7H88.4V425.2h228.1v204.3h-99.2zm-.1-5.6v-35.5l25.5-25.5 2.5 13.6c.1.8.8 1.5 1.6 1.6l13.6 2.5-43.2 43.3zM4 633.5h185.2v66.4H4v-66.4zm185.2 184.8H4v-66.4h185.2v66.4zm47.9 0h-43.9v-66.4h43.9v66.4zm0-70.4H4V704h422.3v43.9H237.1zm189.3 70.3H241.2v-66.4h185.2v66.4zm0-118.3H241.2v-66.4h185.2v66.4zm202.8-244.5v362.9H430.4V631.5c0-1.1-.9-2-2-2h-27.3V425.2h228.1v30.2zm-14.5-34.2H401.1v-63.5h241.1v63.5h-27.5zm57.6-286.9v683.9h-39.2v-393h11c1.1 0 2-.9 2-2v-67.5c0-1.1-.9-2-2-2h-29.4V117.2h57.6v17.1zm4-17.1h13.1l-13.1 13.1v-13.1zm0 18.8l18.8-18.8h55.2l-73.9 73.9-.1-55.1zm0 60.9l79.6-79.6h42L676.4 238.8l-.1-41.9zm145.6 621.4h-7.2l7.2-7.2v7.2zm0-12.9L809 818.3h-55.2l68.1-68.1v55.2zm0-60.9l-73.7 73.7h-42L822 702.5l-.1 42zm0-47.7L700.5 818.2h-24.2v-31L822 641.6l-.1 55.2zm0-60.8L676.3 781.6v-42.1l145.6-145.6V636zm0-47.7L676.3 733.9v-55.2l145.6-145.6v55.2zm0-60.8L676.3 673.1V631l145.6-145.6v42.1zm0-47.7L676.3 625.4v-55.2l145.6-145.6v55.2zm0-60.9L676.3 564.5v-42.1l145.6-145.6v42.1zm0-47.7L676.3 516.8v-55.2L821.9 316v55.2zm0-60.8L676.3 456v-42.1l145.6-145.6v42.1zm0-47.7L676.3 408.3v-55.2l145.6-145.6v55.2zm0-60.9L676.3 347.4v-42.1l145.6-145.6v42.1zm0-47.7L676.3 299.7v-55.2l127.3-127.3H822l-.1 36.9z"/><path d="M328.2 382.1c-1.1 0-2 .9-2 2v12.7c0 1.1.9 2 2 2s2-.9 2-2v-12.7c0-1.1-.9-2-2-2zm0 18.6c-1.1 0-2 .9-2 2v52.8c0 1.1.9 2 2 2s2-.9 2-2v-52.8c0-1.1-.9-2-2-2zM198.6 659c1.1 0 2-.9 2-2v-4.9c0-1.1-.9-2-2-2s-2 .9-2 2v4.9c0 1.1.9 2 2 2zm0 24.4c1.1 0 2-.9 2-2v-17.6c0-1.1-.9-2-2-2s-2 .9-2 2v17.6c0 1.1.9 2 2 2z"/></svg>