<svg xmlns="http://www.w3.org/2000/svg" id="Слой_1" x="0" y="0" version="1.1" viewBox="0 0 826 826" xml:space="preserve"><style>.st0{fill:#D5E7F2}.st1{fill:#E6F1F7}</style><path d="M384.8 735.6v-2.1c.1-16.7-5.4-32.9-15.5-46.1-4.1-5.2-8.2-10.4-11.2-14.2-.6-.8-1.3-1.6-1.9-2.4C269 652 195.8 593.4 158.3 512.5l-13.7 48.3v91.4c61.7 65 144.8 105.5 233.9 114.4 4.2-9.8 6.3-20.4 6.3-31z" class="st0"/><path d="M156.8 504l.9-3.1 94.5-333.2.9-3.2.9-3 3.2-11.2H4.4L48 304.1l1.1 3.8 1.1 3.9L119 554.3l.5 1.9 1.1 4 5.9 20.9c.6 2.3 3 3.6 5.3 3 1.4-.4 2.6-1.5 3-3l5.9-20.9 1.1-4 .5-1.9 13.4-47.2 1.1-3.1zM71 335.8c-.9 0-1.6-.6-1.8-1.4l-12.9-46.1-1-3.5-1-3.4-11.5-40.9c-.1-1 .6-2 1.6-2.1.8-.1 1.6.3 2 1.1l9.9 35.4 1 3.3 1 3.5 14.5 51.8c.3 1-.3 2.1-1.3 2.4-.1-.1-.3-.1-.5-.1zm6.1 19.5c-.2.1-.4.1-.5.1-.8 0-1.6-.6-1.8-1.4l-3-9.9c-.3-1 .3-2.1 1.3-2.4 1-.3 2 .3 2.3 1.3l3 9.9c.3 1-.3 2.1-1.3 2.4zm699.7-66.8H589l22.3 304.3.2 2.7.2 2.5 8 109.7.2 2.3.2 2.2 6.9 94.4h157.1l38-518.2-45.3.1zM613.4 451.3l-8.5-115.8c-.1-1.1.7-2 1.8-2.1 1.1-.1 2 .7 2.1 1.8l8.5 115.8c.1 1.1-.7 2-1.8 2h-.1c-1.1.1-1.9-.7-2-1.7zm3.9 26.9h-.1c-1 0-1.8-.8-1.9-1.8l-1.2-15.9c-.1-1.1.7-2 1.8-2.1 1.1-.1 2 .7 2.1 1.8l1.2 15.9c-.1 1.1-.9 2-1.9 2.1zM448.4 777.1c-1.2-2-2.2-4-3.2-6.1-.3-.6-.6-1.2-.9-1.9-.3-.6-.5-1.2-.8-1.9-4.1-10-6.2-20.7-6.2-31.5 0-18.9 6.4-36.9 18.1-50.5-12.5 8.1-27.1 12.4-42 12.5h-.1c-14.5.1-28.6-4.2-40.7-12.1 10.4 13.8 16 30.6 15.9 47.8v2.1c0 10.8-2 21.4-6.1 31.4-.3.6-.5 1.3-.8 1.9-.3.6-.5 1.2-.8 1.9-1.1 2.3-2.2 4.5-3.5 6.7-9.5 16.5-26.9 24.9-37.3 29.3h145c-10.7-4.5-27-12.8-36.5-29.3l-.1-.3z" class="st1"/><path d="M472 671.4c-4.9 5.9-9.5 11.4-13.6 16.3-11.1 13-17.3 30.1-17.3 48.2 0 10.7 2.2 21.4 6.4 31.3 59.9-5.1 117.8-24.7 168.5-57l-8-108.7c-37.9 35.3-85 59.6-136 69.9z" class="st0"/><path fill="#F1F6F7" d="M587 284.6h85.4c-42.6-99.8-141.7-169.9-256.9-169.9-56.6-.1-111.9 17.2-158.4 49.4L160 506.5c35.1 79.3 106 139.4 192.2 159.4-5.1-6.1-10.3-12.1-15.5-18-11.5-13.2-23.4-26.8-33.6-41.8-18.1-26.7-27.8-58.3-27.8-90.6 0-60.3 23.1-120.2 36.9-150.5.3-.7 1-1.1 1.7-1.1h198.7c.7 0 1.4.4 1.7 1.1 13.1 26.8 35.2 81.3 36.2 146 0 9.3-.6 18.6-1.9 27.8-1.1 6.9-2.7 13.7-4.8 20.3-10.6 32.4-42.3 75.7-68 107.4 49.5-11 95-35.3 131.7-70.3l-22.7-309.6c0-.5.1-1.1.5-1.4.6-.3 1.2-.6 1.7-.6z"/><path d="M546.8 511.1c-1-63.1-22.3-116.5-35.3-143.3H315.3c-13.7 30.4-36.1 88.9-36.1 147.8-.1 31.6 9.3 62.4 27.2 88.4 10 14.8 21.8 28.3 33.3 41.4 6.1 7 12.4 14.2 18.4 21.6.2.1.4.2.5.3.1.1.2.2.2.3.6.7 1.1 1.4 1.7 2.1.6.7 1.4 1.6 2.1 2.4 13.1 14 31.5 21.9 50.7 21.8h.1c19.3-.1 37.8-7.7 51.5-21.2.8-.8 1.6-1.6 2.3-2.4.8-.8 1.4-1.6 2.1-2.4.5-.7 1.1-1.3 1.6-2 .3-.3.6-.6 1.1-.7 25.6-31.5 57.6-75.1 68.2-107.3 2.1-6.5 3.7-13.1 4.8-19.8 1.3-8.8 1.9-17.9 1.8-27zm-226.9 82.7c-.9.5-2.1.2-2.6-.7-16.3-27.2-24.3-52.6-24.3-77.5 0-1.1.9-1.9 1.9-1.9 1.1 0 1.9.9 1.9 1.9 0 2.3.1 4.6.2 6.8 1.2 19.7 7.5 39.8 19.1 61.2 1.4 2.5 2.8 5 4.3 7.6.7.9.4 2.1-.5 2.6zm11 16.9c-.3.2-.7.3-1.1.3-.6 0-1.2-.3-1.6-.8-2.2-3.2-3.8-5.8-5.8-9-.6-.9-.3-2.1.6-2.6.9-.6 2.1-.3 2.6.6 1.9 3.1 3.6 5.7 5.7 8.9.7.8.5 2-.4 2.6z" class="st1"/><path d="M261.1 147.3c.4.5.5 1.1.3 1.7l-2.6 9.2c130.5-86.5 306.4-50.8 392.9 79.7 9.8 14.8 18.1 30.4 25 46.7h96.9c-46.9-153.3-189.7-265-358.1-265-111.7 0-212.1 49.2-280.8 127h124.8c.7 0 1.2.3 1.6.7zM116.8 560.8l-68.3-241C27.3 424.9 52.2 534 116.8 619.5v-58.7z" class="st0"/><path d="M140.8 654v-79.7l-2.2 7.9c-1.2 4.3-5.7 6.8-10 5.6-2.7-.8-4.9-2.9-5.6-5.6l-2.2-7.9v136.4c0 24.7-7.6 48.6-21.4 67.5l-.2.3c-9.5 13.2-26.9 22.7-37 27.7l137.4.4c-17.8-8.8-29.9-17.9-36.9-27.6l-.2-.3c-13.8-18.9-21.5-42.8-21.5-67.5l-.2-57.2z" class="st1"/><path d="M824.1 284.6h-46.4c-60.3-200-271.2-313.2-471.2-253-59.9 18-114.3 50.6-158.5 94.9-6.5 6.5-12.7 13.2-18.7 20.1H1.9c-.6 0-1.2.3-1.5.8-.4.5-.5 1.1-.3 1.7l46.2 162.7c-24.5 110.1 1.3 225.3 70.6 314.3v84.6c0 23.9-7.3 47-20.7 65.2l-.2.3c-10.5 14.6-31.9 24.8-40 28.6l-1.3.6c-1.2.6-1.7 2-1.1 3.2.4.8 1.2 1.3 2.1 1.3l146.4.5c1.8 0 3.2-1.5 3.2-3.2 0-1.2-.7-2.3-1.8-2.9-18.3-8.8-31-18.1-37.9-27.6l-.2-.3c-13.4-18.2-20.7-41.4-20.7-65.2v-53.3c1.1 1.2 2.3 2.4 3.4 3.5 61.4 61.6 142.3 100.1 228.8 108.8-.9 1.7-1.8 3.5-2.7 5.1-9.8 17-29.1 25.1-38.4 28.9-1.5.6-2.9 1.2-3.8 1.6-1.2.6-1.7 2-1.1 3.1.4.8 1.2 1.3 2.1 1.3h159.7c1.3 0 2.4-1 2.4-2.3 0-1-.6-1.8-1.5-2.2l-2-.8c-9.4-3.7-29.1-11.4-39.6-29.7l-.1-.2c-.9-1.5-1.7-3-2.4-4.5 59.4-5.2 116.6-24.5 167.1-56.2l6.9 93.8c.1 1.2 1.1 2.2 2.4 2.2h159.7c1.2 0 2.2-1 2.3-2.2L826 286.7c0-.5-.1-1.1-.5-1.4-.4-.4-.9-.6-1.4-.7zm-408.6-265c168.4 0 311.2 111.8 358.1 265h-96.9C616.1 140.4 450.1 72.5 305.8 133.1c-16.4 6.9-32.2 15.3-47 25.2l2.6-9.2c.3-1-.3-2.1-1.3-2.4-.2 0-.3-.1-.5-.1H134.7c68.7-77.8 169.1-127 280.8-127zm192.3 576.7c-36.7 35-82.3 59.3-131.8 70.3 25.7-31.7 57.4-75 68-107.4 2.1-6.6 3.7-13.4 4.8-20.3 1.3-9.2 1.9-18.5 1.9-27.8-1-64.7-23.1-119.2-36.2-146-.3-.7-1-1.1-1.7-1.1H314c-.7 0-1.4.4-1.7 1.1-13.8 30.3-37 90.2-37 150.5 0 32.3 9.7 63.9 27.8 90.6 10.2 15 22.1 28.6 33.6 41.8 5.1 5.9 10.4 11.9 15.5 18C266 645.9 195.1 585.9 160 506.5l97.1-342.3c46.5-32.2 101.8-49.5 158.4-49.4 115.2 0 214.3 70.1 256.9 169.9H587c-.5 0-1 .2-1.4.6-.4.4-.5.9-.5 1.4l22.7 309.6zm-135.7 69c-.4.1-.8.3-1.1.7-.5.7-1.1 1.3-1.6 2l-2.1 2.4c-.7.8-1.5 1.6-2.3 2.4-13.8 13.5-32.2 21.1-51.5 21.2h-.1c-19.2.1-37.6-7.8-50.7-21.8l-2.1-2.4c-.7-.8-1.2-1.4-1.7-2.1-.1-.1-.2-.2-.2-.3-.2-.1-.3-.2-.5-.3-6-7.4-12.3-14.6-18.4-21.6-11.5-13.1-23.3-26.6-33.3-41.4-17.8-26-27.3-56.9-27.2-88.4 0-58.9 22.4-117.4 36.1-147.8h196.3c13 26.8 34.3 80.2 35.3 143.3.1 9.1-.6 18.1-1.8 27.1-1.1 6.7-2.7 13.3-4.8 19.8-10.7 32.2-42.7 75.7-68.3 107.2zM41.1 394c0-24.9 2.5-49.8 7.4-74.2l68.3 241v58.7C67.6 554.6 41 475.4 41.1 394zm121.2 384.7l.2.3c7 9.8 19.1 18.8 36.9 27.6L62 806.2c10.1-5 27.5-14.5 37-27.7l.2-.3c13.8-18.9 21.5-42.8 21.4-67.5V574.3l2.2 7.9c1.2 4.3 5.7 6.8 10 5.6 2.7-.8 4.9-2.9 5.6-5.6l2.2-7.9v136.9c.2 24.6 7.8 48.6 21.7 67.5zm-19.8-224.4l-.5 1.9-1.1 4-5.9 20.9c-.6 2.3-3 3.6-5.3 3-1.4-.4-2.6-1.5-3-3l-5.9-20.9-1.1-4-.5-1.9-69-242.5-1.1-3.9-1.1-3.8L4.4 150.4H257l-3.2 11.2-.9 3-.9 3.2L157.6 501l-.9 3.1-.9 3-13.3 47.2zm2.1 97.9v-91.4l13.7-48.3C195.8 593.4 269 652 356.2 670.8c.6.8 1.3 1.6 1.9 2.4 3 3.8 7.1 9 11.2 14.2 10.2 13.2 15.7 29.4 15.5 46.1v2.1c0 10.7-2.1 21.2-6.2 31-89.2-8.9-172.2-49.5-234-114.4zM485 806.6H340.2c10.4-4.4 27.8-12.8 37.3-29.3 1.3-2.2 2.4-4.4 3.5-6.7.3-.6.6-1.2.8-1.9.3-.6.5-1.2.8-1.9 4-10 6.1-20.6 6.1-31.4v-2.1c.1-17.2-5.5-34-15.9-47.8 12.1 8 26.2 12.2 40.7 12.1h.1c14.9-.1 29.5-4.4 42-12.5-11.6 13.7-18.1 31.5-18.1 50.5 0 10.8 2.1 21.5 6.2 31.5.3.6.5 1.2.8 1.9.3.7.6 1.2.9 1.9 1 2.1 2 4.1 3.2 6.1l.1.2c9.3 16.7 25.6 25 36.3 29.4zM447.6 767c-4.2-9.9-6.4-20.5-6.4-31.3 0-18.1 6.1-35.2 17.3-48.2 4.1-4.8 8.7-10.3 13.6-16.3 51-10.3 98.1-34.5 136.1-70l8 108.7c-50.8 32.5-108.6 52-168.6 57.1zm336.5 39.6H627l-6.9-94.4-.2-2.2-.2-2.3-8-109.6-.2-2.5-.2-2.7L589 288.5h233l-37.9 518.1z"/><path d="M615.4 453.1c1.1-.1 1.8-1 1.8-2l-8.5-115.8c-.1-1.1-1-1.8-2.1-1.8-1.1.1-1.8 1-1.8 2.1l8.5 115.8c.1 1 .9 1.8 1.9 1.8h.2zm.4 5.3c-1.1.1-1.8 1-1.8 2l1.2 15.9c.1 1 .9 1.8 1.9 1.8h.1c1.1-.1 1.8-1 1.8-2l-1.2-15.9c0-1.1-.9-1.9-2-1.8zM325.7 599.2c-.6-.9-1.7-1.2-2.6-.6-.9.6-1.2 1.7-.6 2.6 2 3.2 3.7 5.7 5.8 9 .4.5 1 .8 1.6.8 1.1 0 1.9-.9 1.9-1.9 0-.4-.1-.8-.3-1.1-2.2-3.1-3.9-5.7-5.8-8.8zm-9.5-15.5c-11.7-21.3-18-41.5-19.1-61.2-.1-2.3-.2-4.6-.2-6.8 0-1.1-.9-1.9-1.9-1.9s-1.9.9-1.9 1.9c0 24.9 7.9 50.3 24.2 77.6.6.9 1.8 1.1 2.6.5.8-.5 1.1-1.6.6-2.5-1.5-2.6-2.9-5.2-4.3-7.6zM75.4 342.9c-.3-1-1.4-1.6-2.4-1.2-1 .3-1.5 1.3-1.3 2.3l3 9.9c.2.8 1 1.4 1.8 1.4.2 0 .4 0 .5-.1a2 2 0 001.4-2.3v-.1l-3-9.9zm-2.5-9.5l-14.6-51.8-1-3.5-1-3.3-9.9-35.4c-.3-1-1.4-1.6-2.4-1.3-1 .3-1.5 1.3-1.3 2.3l11.5 40.9 1 3.4 1 3.5 12.9 46.1c.3 1 1.4 1.6 2.4 1.3 1-.2 1.6-1.2 1.4-2.2z"/></svg>