<svg xmlns="http://www.w3.org/2000/svg" id="Слой_1" x="0" y="0" version="1.1" viewBox="0 0 826 826" xml:space="preserve"><style>.st1{fill:#BE9C79}.st2{fill:#E6F1F7}</style><path fill="#B5D9C9" d="M822.1 360.9c0-69.9-16.5-134-43.1-167.2-.2-.3-.3-.6-.4-.9-5.4-31.8-25.8-54-49.7-54-4.6 0-9.2.8-13.5 2.5-.8.3-1.7 0-2.2-.7-15-20.6-34.2-31.9-54.2-31.9-43.9 0-80 53.8-82.3 122.6 0 .6-.3 1.2-.9 1.6-4.1 2.8-7.9 6.1-11.2 9.8v36.6l78.8 78.7c5.6 5.3 5.8 14.2.4 19.8s-14.2 5.8-19.8.4l-.4-.4-13.2-13.2v239.2c5.7 2.2 11.8 3.3 17.9 3.3 12.8 0 25.3-5 36.8-14.7l13.1-318.3c0-1.1.9-1.9 1.9-1.9 1.1 0 1.9.9 1.9 1.9l13.1 318.7c7.5 3.9 15.8 5.9 24.2 5.9 20.5 0 39.7-12.3 50.2-32.1.3-.5.7-.8 1.3-1 22.4-5.2 39.4-42.9 39.4-87.8 0-4.9-.2-9.9-.6-14.9 0-.2 0-.5.1-.7 8.1-30.3 12.4-65.3 12.4-101.3zM641 269.2c1.2-3.3 2.7-6.4 4.5-9.4.1-.2.4-.6.7-1.1.9-1.2 1.7-2.5 2.5-3.9 0-1.1.9-1.9 1.9-1.9.7 0 1.4.4 1.7 1 .5.8 1 1.6 1.4 2.5 3.4 5.8 7.2 12.5 7 19.6 0 1.1-.2 2.2-.4 3.3-.9 3.9-2.8 7.2-4.7 10.4l-.8 1.4-.8 1.2c-.7 1-2.3 3.4-2.7 4.3-.1.6-.4 1.2-1 1.5-.3.2-.6.3-1 .3-.7 0-1.3-.4-1.7-1l-.3-.5c-4.5-8.2-9.7-17.4-6.3-27.7zm3.2 42.5c0 .5 0 1.1-.1 1.6 0 .2-.1.7-.1 1.5-.1 1.2-.5 4.1-.4 5.1.2.6.2 1.2-.2 1.8-.4.6-1 .9-1.6.9-.4 0-.7-.1-1-.3l-.5-.3c-7.8-5-16.7-10.8-18.6-21.5-.5-3.5-.6-6.9-.4-10.4 0-.2.1-.7.1-1.3.2-1.5.3-3 .4-4.6-.5-.9-.1-2.1.8-2.6.6-.3 1.4-.3 1.9.1l2.4 1.5c5.7 3.6 12.2 7.6 15.3 14.1.5 1 .9 2.1 1.2 3.1 1.1 3.7.9 7.6.8 11.3zm23.7 6.9c-.4 1.1-.8 2.1-1.4 3.1-1.9 3.4-4.7 6.1-7.4 8.7l-1.2 1.1c-.1.1-.6.5-1.1 1-.9.7-3.2 2.6-3.9 3.3-.2.6-.7 1-1.4 1.1-.1 0-.3.1-.4.1-.9 0-1.7-.6-1.9-1.5l-.1-.6c-2.1-9.1-4.4-19.3 1.7-28.3 2-2.8 4.4-5.4 7-7.7.2-.1.5-.5 1-.9 1.2-.9 2.4-1.9 3.4-3 .3-1 1.4-1.6 2.4-1.3.7.2 1.2.7 1.3 1.4.2.9.4 1.8.7 2.8 1.7 6.5 3.6 13.9 1.3 20.7zM691.6 185c0 .5 0 1.1-.1 1.6 0 .2-.1.7-.1 1.5-.1 1.2-.5 4.1-.4 5.1.2.6.2 1.2-.2 1.8-.4.6-1 .9-1.6.9-.4 0-.7-.1-1-.3l-.5-.3c-7.8-5-16.7-10.8-18.6-21.5-.5-3.5-.6-6.9-.4-10.4 0-.2.1-.7.1-1.3.2-1.5.3-3 .4-4.6-.5-.9-.1-2.1.8-2.6.6-.3 1.4-.3 1.9.1l2.4 1.5c5.7 3.6 12.2 7.6 15.3 14.1.5 1 .9 2.1 1.2 3.1 1.1 3.7.9 7.6.8 11.3zm5.2 17.6c-.2 0-.3 0-.5-.1-1-.3-1.7-1.3-1.4-2.3l.1-.6c2.2-9.1 4.8-19.3 14.3-24.5 3.1-1.6 6.3-2.8 9.7-3.7.2-.1.7-.2 1.3-.3 1.5-.3 3-.7 4.4-1.1.7-.8 2-.8 2.7-.1.5.5.7 1.2.6 1.9-.2.9-.4 1.8-.7 2.8-1.5 6.6-3.2 14.1-8.3 19.1-.8.8-1.7 1.5-2.6 2.1-3.3 2.2-7 3.3-10.5 4.4l-1.6.5c-.2.1-.7.2-1.5.3-1.1.3-4 .9-4.9 1.2-.2.2-.7.4-1.1.4zm20.6 361.9c-.1.2-.3.7-.6 1.3-.5 1.1-1.8 3.7-2.1 4.6 0 1.1-.8 2-1.9 2-.6 0-1.2-.3-1.6-.8l-.4-.5c-5.7-7.4-12.1-15.8-10.3-26.4.7-3.4 1.7-6.7 3.1-9.9l.6-1.2c.7-1.4 1.4-2.7 1.9-4.2-.2-1.1.6-2 1.6-2.2.7-.1 1.4.2 1.8.7.6.7 1.2 1.5 1.8 2.3 4.2 5.3 9 11.3 9.7 18.4.1 1.1.1 2.2 0 3.3-.3 3.9-1.8 7.5-3.1 11-.1.6-.3 1.1-.5 1.6zm33.5-8.3c-.2 1-.4 1.9-.6 2.8-1.4 6.6-2.9 14.1-7.8 19.3-.8.8-1.6 1.5-2.5 2.2-3.2 2.3-6.9 3.5-10.4 4.6l-1.5.5-1.4.4c-1.1.3-4 1-4.9 1.4-.4.3-.8.5-1.3.5h-.4c-1-.2-1.7-1.3-1.5-2.3l.2-.6c2-9.1 4.3-19.4 13.6-24.9 3-1.7 6.3-3 9.6-4 .2-.1.7-.2 1.3-.3 1.5-.3 3-.7 4.4-1.2.5-.5 1.2-.8 1.9-.6.9.2 1.5 1.2 1.3 2.2z"/><path d="M376 193c-38.5 0-69.7 31.2-69.7 69.7s31.2 69.7 69.7 69.7 69.7-31.2 69.7-69.7S414.5 193 376 193zm0 126.5c-31.3 0-56.7-25.4-56.7-56.7S344.6 206 376 206s56.7 25.4 56.7 56.7c0 31.4-25.4 56.8-56.7 56.8z" class="st1"/><path d="M383.9 270.7V315c22.9-3.5 40.8-21.5 44.3-44.3h-44.3z" class="st2"/><path d="M508 452.9v48.2h8.2v-80.4H508z" class="st1"/><path d="M471.9 468.8h32.3v32.3h-32.3zm0-48.1h32.3V453h-32.3z" class="st2"/><path d="M471.9 456.8h32.3v8.2h-32.3zm-100-202V315h8.1V210.5h-8.1zm12 3.9h44.3v8.2h-44.3z" class="st1"/><path d="M383.9 210.5v44.3h44.3c-3.5-22.9-21.4-40.8-44.3-44.3z" class="st2"/><path d="M323.7 258.7H368v8.2h-44.3z" class="st1"/><path d="M368 315v-44.3h-44.3c3.5 22.8 21.4 40.8 44.3 44.3z" class="st2"/><path fill="#F1F6F7" d="M628.3 611c-6.1 0-12.2-1.1-17.9-3.1v207.6H656l8.9-218c-11.5 8.9-23.9 13.5-36.6 13.5z"/><path d="M691.3 592.9l-.1-2.3-11.1-269.2-11 267.4-.1 2.8-.1 2.6-9 221.3h40.5l-9.1-220.3z" class="st1"/><path fill="#F2EBE4" d="M548.5 364.1H424.1c-1.1 0-1.9-.9-1.9-1.9 0-1.1.9-1.9 1.9-1.9H606l-62.8-62.8-1.8-1.8-1.8-1.8-11.7-11.7-3.9-3.9-48.6-48.6-3.9-3.9-95.5-95.7-230.2 230.2H370c1.1 0 1.9.9 1.9 1.9 0 1.1-.9 1.9-1.9 1.9H145.4v267.2l5.3 3.8 23.7-16.9c.7-.5 1.6-.5 2.2 0l23.7 16.9 23.7-16.9c.7-.5 1.6-.5 2.2 0l23.7 16.9 23.7-16.9c.7-.5 1.6-.5 2.2 0l22.2 15.9v-75.7c0-1.1.9-1.9 1.9-1.9h151.8c1.1 0 1.9.9 1.9 1.9v257h152.7V364.1h-57.8zM302 521.2c0 1.1-.9 1.9-1.9 1.9H179.6c-1.1 0-1.9-.9-1.9-1.9V400.7c0-1.1.9-1.9 1.9-1.9h120.5c1.1 0 1.9.9 1.9 1.9v120.5zm.4-258.4c0-40.7 33-73.6 73.6-73.6 40.7 0 73.6 33 73.6 73.6s-33 73.6-73.6 73.6c-40.7 0-73.6-33-73.6-73.6zm106.1 101.3h-22.9c-1.1 0-1.9-.9-1.9-1.9 0-1.1.9-1.9 1.9-1.9h22.9c1.1 0 1.9.9 1.9 1.9 0 1-.8 1.9-1.9 1.9zm165.7 36.6v120.5c0 1.1-.9 1.9-1.9 1.9H451.8c-1.1 0-1.9-.9-1.9-1.9V400.7c0-1.1.9-1.9 1.9-1.9h120.5c1.1-.1 1.9.8 1.9 1.9z"/><path d="M626.3 375c4 3.9 10.4 3.9 14.3 0 3.9-4 3.9-10.4 0-14.3L562 282.1l-3.9-3.9-9-9-1.5-1.5-1.5-1.5-70.7-70.7-3.9-3.9L376 96.1 111.3 360.7c-3.9 4-3.8 10.4.3 14.3 3.9 3.8 10.1 3.8 14 0l15.9-15.9L374.6 126c.8-.7 2-.7 2.7 0l94.3 94.3 3.9 3.9 54.1 54.1 3.9 3.9 6.8 6.8 1.7 1.7 1.8 1.8 66.7 66.7 15.8 15.8zm-88.6 81.8H520v8.2h32.3v-8.2h-12.7z" class="st1"/><path d="M538.2 420.7H520v32.2h32.3v-32.2h-12.1zm.2 48.1H520v32.3h32.3v-32.3h-11.9z" class="st2"/><path d="M540.2 402.6h-86.4v116.6h116.6V402.6h-30.2zm15.9 16.1V503c0 1.1-.9 1.9-1.9 1.9h-84.3c-1.1 0-1.9-.9-1.9-1.9v-84.3c0-1.1.9-1.9 1.9-1.9h84.3c1.1 0 1.9.9 1.9 1.9zM181.5 519.2h116.6V402.6H181.5v116.6zm14.2-52.2v-48.2c0-1.1.9-1.9 1.9-1.9H282c1.1 0 1.9.9 1.9 1.9V503c0 1.1-.9 1.9-1.9 1.9h-84.3c-1.1 0-1.9-.9-1.9-1.9v-36z" class="st1"/><path d="M323.7 254.8H368v-44.3c-22.9 3.5-40.8 21.4-44.3 44.3z" class="st2"/><path d="M302 633.5l8.2-5.8v-27.1c0-1.1.9-1.9 1.9-1.9s1.9.9 1.9 1.9v24.3l9.2-6.6c.7-.5 1.6-.5 2.3 0l24.8 17.7c.5.4.8 1 .8 1.6v177.9h98.8V560.4H302v73.1zm127.6 65.9c3.7 0 6.6 3 6.6 6.6 0 3.7-3 6.6-6.6 6.6-3.7 0-6.6-3-6.6-6.6-.1-3.6 2.9-6.6 6.6-6.6-.1 0 0 0 0 0zM310.2 575.3c0-1.1.9-1.9 1.9-1.9s1.9.9 1.9 1.9v14.5c0 1.1-.9 1.9-1.9 1.9s-1.9-.9-1.9-1.9v-14.5zm-66.3-106.5v-48.1h-8.2v80.4h8.2z" class="st1"/><path d="M247.8 468.8h32.3v32.3h-32.3zm-48.2-48.1h32.3V453h-32.3z" class="st2"/><path d="M199.6 456.8h32.3v8.2h-32.3zm48.2 0h32.3v8.2h-32.3z" class="st1"/><path d="M247.8 420.7h32.3V453h-32.3z" class="st2"/><path fill="#D5E7F2" d="M3.9 638.6v176.9h45.7V638.6l-22.9-16.3zm139.6-3.8l-2-1.4-15.5-11.1-22.9 16.3v176.9h45.7V638.6l-3.4-2.4zm-90 3.8v176.9h45.7V638.6l-22.8-16.3zm198.4 0v176.9h45.8V638.6l-22.9-16.3zm-49.6 0v176.9h45.8V638.6l-22.9-16.3zm-49.6 0v176.9h45.7V638.6l-22.8-16.3zm161.4-8.9l-2 1.4-1.9 1.3-8.2 5.9-.5.3v176.9h45.8V638.6l-22.9-16.3z"/><path d="M199.6 468.8h32.3v32.3h-32.3z" class="st2"/><path fill="#588C6B" d="M717.3 549.1c-.6-5.8-4.5-10.9-8.5-15.9-.3.6-.6 1.3-1 2.1-.2.5-.4.8-.5 1-1.3 2.9-2.3 6-2.9 9.1-1.4 8 2.9 14.7 7.7 21.1l1.2-2.4c.3-.5.5-1 .5-1.1l.6-1.5c1.3-3.3 2.6-6.5 2.9-9.8.1-.8.1-1.7 0-2.6zm-12.4-352.7c3.4-1 6.7-2 9.5-3.9.7-.5 1.4-1.1 2-1.7 4.1-4.1 5.7-10.3 7.1-16.5-.7.2-1.4.3-2.3.5-.5.1-.9.2-1.1.2-3.1.8-6.1 2-8.9 3.4-7.1 3.9-9.7 11.5-11.7 19.2l2.6-.6 1.2-.3 1.6-.3zM743 559.9c-3.1.9-6 2.1-8.8 3.6-7 4.1-9.4 11.7-11.2 19.5.7-.2 1.6-.4 2.6-.7l1.2-.3 1.5-.5c3.4-1.1 6.6-2.2 9.4-4.1.7-.5 1.3-1.1 1.9-1.7 4-4.2 5.4-10.5 6.7-16.7l-2.3.6-1 .3zm-81.6-259c-.4.3-.7.6-.8.7-2.4 2.1-4.5 4.5-6.4 7.1-4.6 6.7-3.5 14.6-1.7 22.4.6-.5 1.3-1.1 2.1-1.7.5-.4.8-.6.9-.8l1.2-1.1c2.6-2.5 5.1-4.8 6.7-7.7.4-.8.8-1.6 1.1-2.4 1.8-5.5.4-11.8-1.1-17.9l-2 1.4zm-10.6-10.7c.3-.5.6-.8.7-1l.8-1.4c1.8-3.1 3.5-6 4.2-9.3.2-.9.3-1.7.3-2.6.2-5.8-2.9-11.4-6.1-16.9-.4.6-.8 1.2-1.3 1.9-.3.4-.5.7-.6.9-1.7 2.7-3.1 5.6-4.2 8.6-2.5 7.7.8 15 4.7 22l1.5-2.2zm-12 8.7c-2.5-5.2-7.9-8.7-13.3-12.1-.1.7-.2 1.5-.3 2.4-.1.5-.1.9-.1 1.1-.2 3.2-.1 6.4.3 9.5 1.4 8 7.7 12.9 14.4 17.3.1-.8.2-1.6.3-2.7.1-.6.1-1 .1-1.2 0-.5 0-1.1.1-1.6.1-3.6.3-7-.6-10.2-.2-.9-.5-1.7-.9-2.5zm47.4-126.7c-2.5-5.2-7.9-8.7-13.3-12.1-.1.7-.2 1.5-.3 2.4-.1.5-.1.9-.1 1.1-.2 3.2-.1 6.4.3 9.5 1.4 8 7.7 12.9 14.4 17.3.1-.8.2-1.6.3-2.7.1-.6.1-1 .1-1.2 0-.5 0-1.1.1-1.6.1-3.6.3-7-.6-10.2-.2-.9-.5-1.7-.9-2.5z"/><path fill="#DDE1E5" d="M475.5 190.1l76.6 76.6 8.7 8.7V118.3h-85.3v71.8zm8.1-55.6c0-1.1.9-1.9 1.9-1.9s1.9.9 1.9 1.9v9.7c0 1.1-.9 1.9-1.9 1.9s-1.9-.9-1.9-1.9v-9.7zm0 16.8c0-1.1.9-1.9 1.9-1.9s1.9.9 1.9 1.9v36.2c0 1.1-.9 1.9-1.9 1.9s-1.9-.9-1.9-1.9v-36.2z"/><path d="M826 360.9c0-70.5-16.7-135.2-43.6-169.3-5.8-33.4-27.8-56.7-53.5-56.7-4.6 0-9.1.8-13.5 2.3-15.6-20.9-35.6-32.4-56.4-32.4-45.7 0-83.5 55-86.1 125.3-3 2-5.8 4.3-8.3 6.9V116.4c0-1.1-.9-1.9-1.9-1.9h-89.2c-1.1 0-1.9.9-1.9 1.9v69.9l-94-94c-.4-.4-1-.6-1.6-.5h-.3c-.5 0-1 .2-1.4.6L108.6 358c-5.3 5.6-5.2 14.4.4 19.8 5.4 5.2 13.9 5.2 19.4 0l13.2-13.2v264.1L127 618.3c-.7-.5-1.6-.5-2.2 0l-23.7 16.9-23.6-16.9c-.7-.5-1.6-.5-2.3 0l-23.7 16.9-23.7-16.9c-.7-.5-1.6-.5-2.3 0L.8 636c-.5.4-.8 1-.8 1.6v179.8c0 1.1.9 1.9 1.9 1.9H750c1.1 0 1.9-.9 1.9-1.9s-.9-1.9-1.9-1.9h-45.7l-9-218.3c7.5 3.5 15.7 5.4 24 5.4 21.6 0 41.9-12.8 53.2-33.4 23.7-6.3 41.5-45.3 41.5-91.4 0-4.9-.2-9.9-.6-14.9 8.2-30.6 12.6-65.8 12.6-102zM49.6 815.5H3.9V638.6l22.9-16.3 22.9 16.3-.1 176.9zm49.6 0H53.5V638.6l22.9-16.3 22.9 16.3-.1 176.9zm376.3-697.2h85.3v157.1l-85.3-85.3v-71.8zM148.8 815.5h-45.7V638.6l22.9-16.3 15.6 11.1 1.9 1.4 1.9 1.4 3.4 2.4v176.9zm49.6 0h-45.7V638.6l22.9-16.3 22.9 16.3-.1 176.9zm49.7 0h-45.7V638.6l22.9-16.3 22.9 16.3v176.9zm49.6 0H252V638.6l22.9-16.3 22.9 16.3-.1 176.9zm49.6 0h-45.7V638.6l.5-.3 8.2-5.8 1.9-1.4 1.9-1.4 10.3-7.4 22.8 16.3.1 176.9zm102.6 0h-98.8V637.6c0-.6-.3-1.2-.8-1.6l-24.8-17.7c-.7-.5-1.6-.5-2.3 0l-9.2 6.6v-24.3c0-1.1-.9-1.9-1.9-1.9-1.1 0-1.9.9-1.9 1.9v27.1l-8.2 5.8v-73.1h147.9v255.1zm156.6 0H453.8v-257c0-1.1-.9-1.9-1.9-1.9H300.1c-1.1 0-1.9.9-1.9 1.9v75.7L276 618.3c-.7-.5-1.6-.5-2.2 0L250 635.2l-23.6-16.9c-.7-.5-1.6-.5-2.2 0l-23.7 16.9-23.7-16.9c-.7-.5-1.6-.5-2.2 0l-23.7 16.9-5.4-3.8V364.2H370c1.1 0 1.9-.9 1.9-1.9s-.9-1.9-1.9-1.9H145.7l230.2-230.2 95.6 95.6 3.9 3.9 48.6 48.6 15.5 15.6 1.8 1.8 1.8 1.8 62.8 62.8H424.2c-1.1 0-1.9.9-1.9 1.9 0 1.1.9 1.9 1.9 1.9h182.4v451.4zm-62.8-523.1l-1.8-1.8-1.7-1.7-6.8-6.8-3.9-3.9-54.1-54.1-3.9-3.9-94.2-94.2c-.8-.7-2-.7-2.7 0L141.5 359.1 125.6 375c-4 3.9-10.4 3.8-14.3-.3-3.8-3.9-3.8-10.1 0-14L376 96.1l99.5 99.5 70.7 70.7 1.5 1.5 1.5 1.5 9 9 82.4 82.4c4 3.9 4 10.4 0 14.3-3.9 4-10.4 4-14.3 0l-15.9-15.9-66.7-66.7zM656 815.5h-45.6V607.9c5.8 2 11.8 3.1 17.9 3.1 12.7 0 25.1-4.6 36.6-13.5l-8.9 218zm44.4 0h-40.5l9.1-221.3.1-2.7.1-2.8 11-267.4 11 269.2.1 2.3.1 2.3 9 220.4zm70.3-249.9c-.5.1-1 .5-1.3 1-10.5 19.8-29.7 32.1-50.2 32.1-8.4 0-16.7-2-24.2-5.9l-13-318.7c0-1.1-.9-1.9-1.9-1.9s-1.9.9-1.9 1.9l-13.1 318.3c-11.5 9.7-24 14.7-36.8 14.7-6.1 0-12.2-1.1-17.9-3.3V364.5l13.2 13.2c5.3 5.6 14.2 5.8 19.8.4 5.6-5.3 5.8-14.2.4-19.8l-.4-.4-78.8-78.7v-36.6c3.3-3.7 7.1-7 11.3-9.8.5-.3.9-.9.9-1.6 2.3-68.7 38.4-122.6 82.3-122.6 19.9 0 39.1 11.3 54.2 31.9.5.7 1.4 1 2.2.7 4.3-1.6 8.9-2.5 13.5-2.5 23.9 0 44.4 22.2 49.7 54 .1.3.2.6.4.9 26.4 33.2 43 97.3 43 167.2 0 36-4.4 71-12.6 101.3-.1.2-.1.4-.1.7.4 5 .6 10 .6 14.9.1 45-16.9 82.7-39.3 87.9z"/><path d="M529.5 10.4c1-.3 1.6-1.4 1.3-2.4-.3-1-1.4-1.6-2.4-1.3-2.3.6-22.3 6.5-23.1 17.4-.5 6.3 5.4 12.3 17.9 18.4-5.5 3.7-16.4 12.3-15.5 21.5.5 5.5 5.1 10.1 13.7 13.7-3.6 2.9-9.1 8.2-8.7 14.1.3 4.5 4 8.3 10.8 11.2.2.1.5.2.8.2 1.1 0 1.9-.9 1.9-1.9 0-.8-.5-1.5-1.2-1.8-5.4-2.3-8.3-5-8.5-8-.4-5.1 7.1-10.9 9.9-12.7.9-.6 1.2-1.8.6-2.7-.2-.4-.6-.6-1-.8-9.2-3.2-14.1-7.1-14.6-11.7-.7-7.8 11.8-16.9 16.6-19.7.6-.4 1-1.1 1-1.8s-.5-1.4-1.2-1.7c-16-7.1-19.1-12.7-18.9-16.1.8-6.9 15.1-12.4 20.6-13.9zm-121 349.8h-22.9c-1.1 0-1.9.9-1.9 1.9 0 1.1.9 1.9 1.9 1.9h22.9c1.1 0 1.9-.9 1.9-1.9 0-1.1-.8-1.9-1.9-1.9zm41.1-97.5c0-40.7-33-73.6-73.6-73.6s-73.6 33-73.6 73.6 33 73.6 73.6 73.6c40.6 0 73.5-32.9 73.6-73.6zM376 332.5c-38.5 0-69.7-31.2-69.7-69.7S337.4 193 376 193c38.5 0 69.7 31.2 69.7 69.7s-31.2 69.7-69.7 69.8z"/><path d="M376 206c-31.3 0-56.7 25.4-56.7 56.7s25.4 56.7 56.7 56.7 56.7-25.4 56.7-56.7c0-31.3-25.4-56.7-56.7-56.7zm7.9 4.5c22.9 3.5 40.8 21.5 44.3 44.3h-44.3v-44.3zm0 48.2h44.3v8.1h-44.3v-8.1zM368 315c-22.9-3.5-40.8-21.5-44.3-44.3H368V315zm0-48.2h-44.3v-8.2H368v8.2zm0-12h-44.3c3.5-22.9 21.5-40.8 44.3-44.3v44.3zm12 0V315h-8.2V210.5h8.2v44.3zm3.9 60.2v-44.3h44.3c-3.5 22.8-21.4 40.8-44.3 44.3zm101.6-165.6c-1.1 0-1.9.9-1.9 1.9v36.2c0 1.1.9 1.9 1.9 1.9s1.9-.9 1.9-1.9v-36.2c.1-1.1-.8-1.9-1.9-1.9zm0-16.9c-1.1 0-1.9.9-1.9 1.9v9.7c0 1.1.9 1.9 1.9 1.9s1.9-.9 1.9-1.9v-9.7c.1-1-.8-1.9-1.9-1.9zm-55.9 580.2c3.7 0 6.6-3 6.6-6.6 0-3.7-3-6.6-6.6-6.6-3.7 0-6.6 3-6.6 6.6-.1 3.6 2.9 6.6 6.6 6.6zm-117.5-121c1.1 0 1.9-.9 1.9-1.9v-14.5c0-1.1-.9-1.9-1.9-1.9s-1.9.9-1.9 1.9v14.5c0 1.1.9 1.9 1.9 1.9zm228.6-193h-88.9c-1.1 0-1.9.9-1.9 1.9v120.5c0 1.1.9 1.9 1.9 1.9h120.5c1.1 0 1.9-.9 1.9-1.9V400.7c0-1.1-.9-1.9-1.9-1.9h-31.6zm29.7 120.5H453.8V402.6h116.6v116.6z"/><path d="M538.6 416.8h-68.7c-1.1 0-1.9.9-1.9 1.9V503c0 1.1.9 1.9 1.9 1.9h84.3c1.1 0 1.9-.9 1.9-1.9v-84.3c0-1.1-.9-1.9-1.9-1.9h-15.6zm-34.5 84.3h-32.3v-32.3h32.3v32.3zm0-36.1h-32.3v-8.2h32.3v8.2zm0-12.1h-32.3v-32.3h32.3v32.3zm12.1 0v48.2H508v-80.5h8.2v32.3zm36.1 48.2H520v-32.3h32.2v32.3zm0-36.1H520v-8.2h32.2v8.2zm0-12.1H520v-32.3h32.2v32.3zm-252.2-54.2H179.6c-1.1 0-1.9.9-1.9 1.9v120.5c0 1.1.9 1.9 1.9 1.9h120.5c1.1 0 1.9-.9 1.9-1.9V400.7c0-1.1-.9-2-1.9-2zm-2 120.5H181.5V402.6h116.6v116.6z"/><path d="M197.7 505H282c1.1 0 1.9-.9 1.9-1.9v-84.3c0-1.1-.9-1.9-1.9-1.9h-84.3c-1.1 0-1.9.9-1.9 1.9V503c-.1 1.1.8 2 1.9 2zm50.1-84.3h32.3V453h-32.3v-32.3zm0 36.1h32.3v8.2h-32.3v-8.2zm0 12h32.3v32.3h-32.3v-32.3zm-12.1 0v-48.2h8.2v80.5h-8.2v-32.3zm-36.1-48.1h32.3V453h-32.3v-32.3zm0 36.1h32.3v8.2h-32.3v-8.2zm0 12h32.3v32.3h-32.3v-32.3zm504.8-268.3l1.6-.5c3.6-1.1 7.3-2.2 10.5-4.4.9-.6 1.8-1.3 2.6-2.1 5.1-5 6.8-12.5 8.3-19.1.2-1 .4-1.9.7-2.8.3-1-.4-2.1-1.4-2.3-.7-.2-1.4 0-1.9.6-1.5.5-2.9.8-4.4 1.1-.6.1-1.1.2-1.3.3-3.4.9-6.6 2.1-9.7 3.7-9.5 5.2-12 15.5-14.3 24.5l-.1.6c-.3 1 .4 2.1 1.4 2.3.2 0 .3.1.5.1.5 0 .9-.2 1.3-.5.9-.3 3.8-1 4.9-1.2.6-.1 1.2-.2 1.3-.3zm-4.9-2.8c1.9-7.7 4.5-15.3 11.7-19.2 2.8-1.5 5.8-2.6 8.9-3.4.2 0 .6-.1 1.1-.2.9-.2 1.6-.4 2.3-.5-1.4 6.2-3 12.4-7.1 16.5-.6.6-1.3 1.2-2 1.7-2.8 1.9-6 2.8-9.5 3.9l-1.6.5-1.2.3-2.6.4zm49.9 356.2c-.7-.1-1.4.1-1.9.6-1.4.5-2.9.9-4.4 1.2-.6.2-1.1.3-1.3.3-3.3 1-6.6 2.3-9.6 4-9.4 5.5-11.6 15.8-13.6 24.9l-.1.6c-.2 1 .4 2.1 1.5 2.3h.4c.5 0 .9-.2 1.3-.5.9-.4 3.8-1.1 4.9-1.4l1.4-.4 1.5-.5c3.5-1.2 7.2-2.4 10.4-4.6.9-.7 1.8-1.4 2.5-2.2 4.9-5.2 6.5-12.7 7.8-19.3.2-1 .4-1.9.6-2.8.3-.9-.4-1.9-1.4-2.2zm-9.7 21.7c-.6.6-1.2 1.2-1.9 1.7-2.7 1.9-5.9 3-9.4 4.1l-1.5.5-1.2.3c-1 .3-1.9.5-2.6.7 1.8-7.8 4.1-15.4 11.2-19.5 2.8-1.5 5.8-2.7 8.8-3.6l1-.3 2.3-.6c-1.3 6.3-2.7 12.6-6.7 16.7zm-18.6-26.9c-.8-7.1-5.5-13.1-9.7-18.4-.6-.8-1.2-1.5-1.8-2.3-.7-.8-1.9-1-2.7-.3-.5.4-.8 1.1-.7 1.8-.6 1.4-1.2 2.8-1.9 4.2l-.6 1.2c-1.4 3.2-2.5 6.5-3.1 9.9-1.9 10.6 4.6 19.1 10.3 26.4l.4.5c.4.5.9.8 1.5.8 1.1 0 1.9-.9 1.9-1.9v-.1c.3-.9 1.6-3.6 2.1-4.6.3-.7.6-1.2.6-1.3l.6-1.5c1.4-3.5 2.8-7 3.1-11 .1-1.1.1-2.3 0-3.4zm-3.8 3c-.3 3.3-1.5 6.5-2.9 9.8l-.6 1.5c-.1.2-.3.6-.5 1.1l-1.2 2.5c-4.8-6.4-9.1-13.1-7.7-21.1.6-3.1 1.6-6.2 2.9-9.1.1-.2.3-.5.5-1 .4-.8.8-1.5 1-2.1 3.9 5 7.8 10.1 8.5 15.9.1.8.1 1.7 0 2.5zm-27.7-381.2c-3.1-6.4-9.6-10.5-15.3-14.1l-2.4-1.5c-.9-.6-2.1-.3-2.7.6-.4.6-.4 1.3-.1 1.9 0 1.5-.2 3.1-.4 4.6-.1.6-.1 1.1-.1 1.3-.3 3.5-.1 6.9.4 10.4 1.8 10.7 10.7 16.4 18.6 21.5l.5.3c.3.2.7.3 1 .3.7 0 1.3-.3 1.6-.9.3-.5.4-1.2.2-1.8 0-1 .3-3.9.4-5.1.1-.7.1-1.3.1-1.5 0-.5 0-1.1.1-1.6.1-3.7.3-7.6-.7-11.4-.3-1-.7-2-1.2-3zm-1.9 14.4c0 .5 0 1.1-.1 1.6 0 .2-.1.6-.1 1.2-.1 1-.2 1.9-.3 2.7-6.7-4.4-13-9.2-14.4-17.3-.5-3.2-.6-6.4-.3-9.5 0-.2.1-.6.1-1.1.1-.9.2-1.7.3-2.4 5.4 3.3 10.8 6.9 13.3 12.1.4.8.7 1.6.9 2.5.9 3.2.7 6.6.6 10.2zm-45.5 112.3c-3.1-6.4-9.6-10.5-15.3-14.1l-2.4-1.5c-.9-.6-2.1-.3-2.7.6-.4.6-.4 1.3-.1 1.9 0 1.5-.2 3.1-.4 4.6-.1.6-.1 1.1-.1 1.3-.3 3.5-.1 6.9.4 10.4 1.8 10.7 10.7 16.4 18.6 21.5l.5.3c.3.2.7.3 1 .3.7 0 1.3-.3 1.6-.9.3-.5.4-1.2.2-1.8 0-1 .3-3.9.4-5.1.1-.7.1-1.3.1-1.5 0-.5 0-1.1.1-1.6.1-3.7.3-7.6-.7-11.4-.3-.9-.7-2-1.2-3zm-1.9 14.4c0 .5 0 1.1-.1 1.6 0 .2-.1.6-.1 1.2-.1 1-.2 1.9-.3 2.7-6.7-4.4-13-9.2-14.4-17.3-.5-3.2-.6-6.4-.3-9.5 0-.2.1-.6.1-1.1.1-.9.2-1.7.3-2.4 5.4 3.3 10.8 6.9 13.3 12.1.4.8.7 1.6.9 2.5.9 3.2.7 6.6.6 10.2zm7.3-14.2c.3.6 1 1 1.7 1 .3 0 .7-.1 1-.3.5-.3.9-.9 1-1.5.4-.9 2.1-3.3 2.7-4.3l.8-1.2.8-1.4c1.9-3.2 3.8-6.6 4.7-10.4.2-1.1.4-2.2.4-3.3.3-7.1-3.6-13.8-7-19.6-.5-.9-1-1.7-1.4-2.5-.5-.9-1.7-1.3-2.6-.7-.6.3-1 1-1 1.7-.7 1.3-1.6 2.6-2.5 3.9-.4.5-.6 1-.7 1.1-1.8 2.9-3.4 6.1-4.5 9.4-3.4 10.3 1.8 19.5 6.4 27.6l.2.5zm-3-27c1.1-3 2.5-5.9 4.2-8.6.1-.2.3-.5.6-.9.5-.7 1-1.4 1.3-1.9 3.2 5.5 6.3 11.1 6.1 16.9 0 .9-.1 1.8-.3 2.6-.7 3.3-2.4 6.2-4.2 9.3l-.8 1.4c-.1.1-.3.5-.7 1l-1.5 2.2c-3.9-7-7.2-14.2-4.7-22zm21.5 24.6c-.2-1-1.3-1.7-2.3-1.5-.7.2-1.2.7-1.4 1.3-1.1 1.1-2.2 2.1-3.4 3-.5.4-.9.7-1 .9-2.6 2.3-4.9 4.9-7 7.7-6.1 8.9-3.8 19.2-1.7 28.3l.1.6c.2.9 1 1.5 1.9 1.5.1 0 .3 0 .4-.1.6-.1 1.1-.6 1.4-1.1.6-.7 2.9-2.6 3.9-3.3.6-.5 1-.8 1.1-1l1.2-1.1c2.7-2.6 5.5-5.2 7.4-8.7.5-1 1-2 1.4-3.1 2.3-6.8.4-14.2-1.2-20.8-.4-.7-.6-1.7-.8-2.6zm-1.8 22.4c-.3.8-.6 1.6-1.1 2.4-1.6 2.9-4.1 5.3-6.7 7.7l-1.2 1.1c-.1.1-.5.4-.9.8-.8.7-1.5 1.2-2.1 1.7-1.7-7.8-2.9-15.7 1.7-22.4 1.9-2.6 4-4.9 6.4-7.1.1-.1.4-.4.8-.7l1.8-1.5c1.7 6.2 3.1 12.5 1.3 18z"/></svg>