<svg xmlns="http://www.w3.org/2000/svg" viewBox="0 0 246 92"><path fill="#7C2D1C" fill-rule="evenodd" d="M0 91.5h11.5V55.9H0v35.6zm39.3 0l-13.8-15c-.8-.8-1.9-2-1.9-3.2 0-.3.2-1.1 1.5-2.6L37.5 56H23.8l-9.6 13.4c-.8 1.1-1.6 2.6-1.6 4 0 1.5 1.2 3.3 2.1 4.4l10.8 13.8h13.8v-.1zm19.1-36c-5.4 0-11.8.2-15.6 3.7-3.9 3.6-4 9.8-4 14.6 0 4.7.2 10.9 4 14.6 3.8 3.5 10.3 3.7 15.6 3.7 5.3 0 11.8-.2 15.6-3.7 3.9-3.6 4-9.9 4-14.6 0-4.8-.2-11-4-14.6-3.9-3.5-10.2-3.7-15.6-3.7zm-7.8 18.2c0-3 .1-4.9 1.3-6.8 1.5-2.3 3.5-2.6 6.5-2.6s4.9.3 6.5 2.6c1.4 2 1.3 3.7 1.3 6.8 0 2.8 0 4.8-1.3 6.8-1.6 2.3-3.5 2.6-6.5 2.6-2.9 0-4.9-.3-6.5-2.6-1.1-1.8-1.3-4-1.3-6.8zM95 91.5V81.3h15c1.9 0 4.6-.5 6.3-1.9 3-2.6 3.2-8.7 3.2-11.2 0-5.1-1-7.9-2.6-9.7-2-2.1-4.6-2.5-7.5-2.5H89.7c-2.4 0-4 1-4.7 1.8-1.2 1.4-1.4 3.4-1.4 4.9v28.9H95v-.1zm0-19.1v-5.5c0-.8.2-2.1 2-2.1h6.4c1.3 0 2.6 0 3.6.8.9.8 1 1.9 1 2.8 0 1.5-.4 2.5-.9 3.1-1 1-2.4.9-3.8.9H95zm22.4 19.1h12.1l2.8-7.3h12.8l2.8 7.3H160l-13.2-31.7c-1.7-4-4.7-4.3-8.1-4.3-5.5 0-7 1.7-8.1 4.3l-13.2 31.7zm20.9-24.4c.1-.3.3-.8.5-.8s.4.5.5.8l3.2 9h-7.3l3.1-9zm22.2 24.4h12.2l8.6-23.6c.1-.2.3-.9.6-.9s.5.7.6.9l8.6 23.6h12.2l-13.7-32.4c-1.5-3.5-5.5-3.7-7.7-3.7s-6.2.2-7.7 3.7l-13.7 32.4zm42.8 0h12.2l8.6-23.6c.1-.2.3-.9.6-.9s.5.7.6.9l8.6 23.6H246l-13.7-32.4c-1.5-3.5-5.5-3.7-7.7-3.7s-6.2.2-7.7 3.7l-13.6 32.4zM121.5.2l41.3 16.4c.3.1.4.4.3.8 0 .1-.1.3-.2.5s-.2.3-.3.5c-.4.7-1.1 1.3-1.6 1.1-3.5-1.4-7-2.8-10.6-4.2-9.5-3.8-19-7.5-28.5-11.3-5.8-2.3-18.1 3.9-27.1 8.5-3.1 1.6-5.9 3-7.9 3.8l-.7.3h56.4c.3 0 .4.1.5.4v.5c0 .1-.1.3-.2.5-.3.7-1 1.7-1.6 1.7H78.6c-.2 0-.3-.1-.4-.2-.2-.2-.2-.4-.1-.7 0-.1.1-.3.2-.5.4-.7 1.1-1.5 1.4-1.6l22.1-8.8c.8-.3 2.2-1 4-1.9C111 3.2 118.9-.8 121.5.2c-.1-.1-.1-.1 0 0-.1 0-.1 0 0 0zm-.1-.1c0 .1 0 .1 0 0zM78.1 18.7zm36.1 19.2c.3.1.4.4.3.8 0 .1-.1.3-.2.5s-.2.3-.3.5c-.4.7-1.1 1.4-1.6 1.2l-39-15.5c-5.8-2.3-18.1 3.9-27.1 8.5-3.1 1.6-5.9 3-7.9 3.8l-.7.3h56.4c.4 0 .5.2.5.6v.2c0 .1-.1.3-.2.4-.3.7-1 1.7-1.6 1.7H30c-.2 0-.3-.1-.4-.2-.1-.2-.2-.4-.1-.6 0-.1.1-.3.2-.5.4-.7 1.1-1.5 1.4-1.7l22.1-8.8c.8-.3 2.2-1 4-1.9 5.2-2.6 13.1-6.6 15.6-5.7l41.4 16.4zM72.9 21.5zm137.4 17.4c.5.2.6.6.5 1 0 .2-.1.4-.2.6-.1.2-.2.4-.3.5-.5.6-1.2 1.1-1.8.8l-39-15.5c-5.5-2.2-17.7 4-26.7 8.5-3.1 1.6-5.9 2.9-7.8 3.7l-.7.3h55.8c.4 0 .6.2.7.5.1.2.1.4 0 .6 0 .2-.1.4-.2.5-.3.7-1 1.5-1.7 1.5h-62.8c-.3 0-.5-.1-.6-.2-.2-.2-.2-.4-.2-.7 0-.2.1-.4.2-.6.3-.6.8-1.3 1.2-1.4l1.2-.5c7.9-3.2 15.9-6.3 23.8-9.5 1.1-.4 2.6-1.2 4.3-2.1 4.2-2.2 9.5-4.9 12.6-4.5 9.2 1.2 19.2 6 28.6 10.6 4.7 2.1 9.1 4.3 13.1 5.9z" clip-rule="evenodd"/></svg>