<svg xmlns="http://www.w3.org/2000/svg" id="Layer_1" x="0" y="0" version="1.1" viewBox="0 0 246 122" xml:space="preserve"><style>.st3{fill:#7C2D1C}</style><path fill="#7C2D1C" fill-rule="evenodd" d="M0 96.5h11.5V60.9H0v35.6zm39.3 0l-13.8-15c-.8-.8-1.9-2-1.9-3.2 0-.3.2-1.1 1.5-2.6L37.5 61H23.8l-9.6 13.4c-.8 1.1-1.6 2.6-1.6 4 0 1.5 1.2 3.3 2.1 4.4l10.8 13.8h13.8v-.1zm19.1-36c-5.4 0-11.8.2-15.6 3.7-3.9 3.6-4 9.8-4 14.6 0 4.7.2 10.9 4 14.6 3.8 3.5 10.3 3.7 15.6 3.7s11.8-.2 15.6-3.7c3.9-3.6 4-9.9 4-14.6 0-4.8-.2-11-4-14.6-3.9-3.5-10.2-3.7-15.6-3.7zm-7.8 18.2c0-3 .1-4.9 1.3-6.8 1.5-2.3 3.5-2.6 6.5-2.6s4.9.3 6.5 2.6c1.4 2 1.3 3.7 1.3 6.8 0 2.8 0 4.8-1.3 6.8-1.6 2.3-3.5 2.6-6.5 2.6-2.9 0-4.9-.3-6.5-2.6-1.1-1.8-1.3-4-1.3-6.8zM95 96.5V86.3h15c1.9 0 4.6-.5 6.3-1.9 3-2.6 3.2-8.7 3.2-11.2 0-5.1-1-7.9-2.6-9.7-2-2.1-4.6-2.5-7.5-2.5H89.7c-2.4 0-4 1-4.7 1.8-1.2 1.4-1.4 3.4-1.4 4.9v28.9H95v-.1zm0-19.1v-5.5c0-.8.2-2.1 2-2.1h6.4c1.3 0 2.6 0 3.6.8.9.8 1 1.9 1 2.8 0 1.5-.4 2.5-.9 3.1-1 1-2.4.9-3.8.9H95zm22.4 19.1h12.1l2.8-7.3h12.8l2.8 7.3H160l-13.2-31.7c-1.7-4-4.7-4.3-8.1-4.3-5.5 0-7 1.7-8.1 4.3l-13.2 31.7zm20.9-24.4c.1-.3.3-.8.5-.8s.4.5.5.8l3.2 9h-7.3l3.1-9zm22.2 24.4h12.2l8.6-23.6c.1-.2.3-.9.6-.9s.5.7.6.9l8.6 23.6h12.2l-13.7-32.4c-1.5-3.5-5.5-3.7-7.7-3.7s-6.2.2-7.7 3.7l-13.7 32.4zm42.8 0h12.2l8.6-23.6c.1-.2.3-.9.6-.9s.5.7.6.9l8.6 23.6H246l-13.7-32.4c-1.5-3.5-5.5-3.7-7.7-3.7s-6.2.2-7.7 3.7l-13.6 32.4zM121.5 5.2l41.3 16.4c.3.1.4.4.3.8 0 .1-.1.3-.2.5s-.2.3-.3.5c-.4.7-1.1 1.3-1.6 1.1-3.5-1.4-7-2.8-10.6-4.2-9.5-3.8-19-7.5-28.5-11.3-5.8-2.3-18.1 3.9-27.1 8.5-3.1 1.6-5.9 3-7.9 3.8l-.7.3h56.4c.3 0 .4.1.5.4v.5c0 .1-.1.3-.2.5-.3.7-1 1.7-1.6 1.7H78.6c-.2 0-.3-.1-.4-.2-.2-.2-.2-.4-.1-.7 0-.1.1-.3.2-.5.4-.7 1.1-1.5 1.4-1.6l22.1-8.8c.8-.3 2.2-1 4-1.9 5.2-2.8 13.1-6.8 15.7-5.8-.1-.1-.1-.1 0 0-.1 0-.1 0 0 0zm-.1-.1c0 .1 0 .1 0 0zm-7.2 37.8c.3.1.4.4.3.8 0 .1-.1.3-.2.5s-.2.3-.3.5c-.4.7-1.1 1.4-1.6 1.2l-39-15.5c-5.8-2.3-18.1 3.9-27.1 8.5-3.1 1.6-5.9 3-7.9 3.8l-.7.3h56.4c.4 0 .5.2.5.6v.2c0 .1-.1.3-.2.4-.3.7-1 1.7-1.6 1.7H30c-.2 0-.3-.1-.4-.2-.1-.2-.2-.4-.1-.6 0-.1.1-.3.2-.5.4-.7 1.1-1.5 1.4-1.7l22.1-8.8c.8-.3 2.2-1 4-1.9 5.2-2.6 13.1-6.6 15.6-5.7l41.4 16.4zm96.1 1c.5.2.6.6.5 1 0 .2-.1.4-.2.6-.1.2-.2.4-.3.5-.5.6-1.2 1.1-1.8.8l-39-15.5c-5.5-2.2-17.7 4-26.7 8.5-3.1 1.6-5.9 2.9-7.8 3.7l-.7.3h55.8c.4 0 .6.2.7.5.1.2.1.4 0 .6 0 .2-.1.4-.2.5-.3.7-1 1.5-1.7 1.5h-62.8c-.3 0-.5-.1-.6-.2-.2-.2-.2-.4-.2-.7 0-.2.1-.4.2-.6.3-.6.8-1.3 1.2-1.4l1.2-.5c7.9-3.2 15.9-6.3 23.8-9.5 1.1-.4 2.6-1.2 4.3-2.1 4.2-2.2 9.5-4.9 12.6-4.5 9.2 1.2 19.2 6 28.6 10.6 4.7 2.1 9.1 4.3 13.1 5.9z" clip-rule="evenodd"/><path fill="none" d="M0 103.5h246v25H0z"/><path d="M53.4 106.1h10.5v12.8h-2.5v-10.6h-5.6v10.6h-2.5v-12.8zm18.3 12.8c-.9 0-1.8-.2-2.5-.5s-1.4-.9-2-1.5c-.5-.6-1-1.3-1.3-2.1s-.4-1.6-.4-2.4c0-.9.2-1.7.5-2.4.3-.8.8-1.5 1.3-2.1.6-.6 1.2-1.1 2-1.4s1.6-.5 2.5-.5c.9 0 1.8.2 2.5.6.8.4 1.4.9 2 1.5.5.6 1 1.3 1.3 2.1.3.8.4 1.6.4 2.4 0 .9-.2 1.7-.5 2.4s-.7 1.5-1.3 2.1c-.6.6-1.2 1.1-2 1.4-.8.3-1.6.4-2.5.4zm-3.7-6.4c0 .6.1 1.1.3 1.6.2.5.4 1 .7 1.4.3.4.7.7 1.2 1 .5.2 1 .4 1.6.4.6 0 1.1-.1 1.6-.4s.9-.6 1.2-1 .6-.9.7-1.4c.2-.5.2-1 .2-1.6 0-.6-.1-1.1-.3-1.6-.2-.5-.4-1-.7-1.4-.3-.4-.7-.7-1.2-.9-.5-.2-1-.4-1.6-.4-.6 0-1.1.1-1.6.4-.5.2-.9.6-1.2 1-.3.4-.5.9-.7 1.4-.1.4-.2.9-.2 1.5zm10.6-.1c0-.8.1-1.6.4-2.3.3-.8.7-1.4 1.2-2 .5-.6 1.2-1.1 2-1.5s1.7-.6 2.7-.6c1.2 0 2.2.3 3.1.8.9.5 1.5 1.2 1.9 2l-1.9 1.3c-.2-.4-.4-.7-.6-.9-.2-.2-.5-.4-.8-.6l-.9-.3c-.3-.1-.6-.1-.9-.1-.6 0-1.2.1-1.6.4-.5.3-.8.6-1.2 1-.3.4-.5.9-.7 1.4-.2.5-.2 1-.2 1.5 0 .6.1 1.1.3 1.6.2.5.4 1 .8 1.4.3.4.7.7 1.2 1 .5.2 1 .4 1.5.4.3 0 .6 0 .9-.1l.9-.3c.3-.2.5-.4.8-.6.2-.2.4-.5.6-.9l2 1.2c-.2.5-.5.9-.9 1.3s-.8.7-1.3.9l-1.5.6c-.5.2-1.1.2-1.6.2-.9 0-1.7-.2-2.5-.6s-1.4-.9-2-1.5-1-1.3-1.3-2.1-.4-1.8-.4-2.6zm14.8 6.6H93c-.2 0-.3 0-.5-.1-.2 0-.3-.1-.5-.1-.2-.1-.3-.1-.4-.2l.3-2.1c.1.1.3.2.5.2.2.1.5.1.7.1.3 0 .7-.1.9-.3.3-.2.5-.6.7-1.1L90 106h2.7l3.1 6.9 2.9-6.9h2.6l-4.5 9.7c-.3.6-.5 1.1-.8 1.5s-.5.7-.8 1c-.3.3-.6.4-.9.6s-.5.2-.9.2zm6.3-2.3h.4c.3 0 .7-.1.9-.3.3-.2.5-.5.7-1.1s.4-1.2.5-2.1c.2-.9.3-2.1.4-3.5l.3-3.6h7.7v10.6h1.9v5.4h-2.3v-3.2H102v3.2h-2.3v-5.4zm8.6 0v-8.4h-3l-.2 1.9c-.1 1.7-.3 3-.6 4.1-.3 1-.6 1.8-1 2.4h4.8z" class="st3"/><path d="M117.5 106.1h2.2l4.9 12.8H122l-1.2-3.2h-4.5l-1.2 3.2h-2.6l5-12.8zm2.9 7.8l-1.8-5-1.8 5h3.6zm14.4 5c-.9 0-1.8-.2-2.5-.5-.8-.4-1.4-.9-2-1.5-.5-.6-1-1.3-1.3-2.1s-.4-1.6-.4-2.4c0-.9.2-1.7.5-2.4.3-.8.8-1.5 1.3-2.1.6-.6 1.2-1.1 2-1.4.8-.4 1.6-.5 2.5-.5.9 0 1.8.2 2.5.6s1.4.9 2 1.5c.5.6 1 1.3 1.3 2.1.3.8.5 1.6.5 2.4 0 .9-.2 1.7-.5 2.4-.3.8-.7 1.5-1.3 2.1-.6.6-1.2 1.1-2 1.4-.8.3-1.7.4-2.6.4zm-3.7-6.4c0 .6.1 1.1.3 1.6.2.5.4 1 .7 1.4.3.4.7.7 1.2 1 .5.2 1 .4 1.6.4.6 0 1.1-.1 1.6-.4s.9-.6 1.2-1c.3-.4.6-.9.7-1.4s.2-1 .2-1.6c0-.6-.1-1.1-.3-1.6-.2-.5-.4-1-.7-1.4-.3-.4-.7-.7-1.2-.9-.5-.2-1-.4-1.6-.4-.6 0-1.1.1-1.6.4s-.9.6-1.2 1c-.3.4-.5.9-.7 1.4-.1.4-.2.9-.2 1.5zm11.5-6.4h10.5v12.8h-2.5v-10.6H145v10.6h-2.5v-12.8zm22.4 2.1h-4.1v10.6h-2.5v-10.6h-4.1V106H165v2.2zm6 10.7c-.9 0-1.8-.2-2.5-.5-.8-.4-1.4-.9-2-1.5-.5-.6-1-1.3-1.3-2.1s-.5-1.6-.5-2.4c0-.9.2-1.7.5-2.4.3-.8.8-1.5 1.3-2.1.6-.6 1.2-1.1 2-1.4.8-.4 1.6-.5 2.5-.5.9 0 1.8.2 2.5.6.8.4 1.4.9 2 1.5.5.6 1 1.3 1.3 2.1.3.8.4 1.6.4 2.4 0 .9-.2 1.7-.5 2.4-.3.8-.7 1.5-1.3 2.1-.6.6-1.2 1.1-2 1.4-.7.3-1.5.4-2.4.4zm-3.7-6.4c0 .6.1 1.1.3 1.6.2.5.4 1 .7 1.4.3.4.7.7 1.2 1s1 .4 1.6.4c.6 0 1.1-.1 1.6-.4s.9-.6 1.2-1c.3-.4.6-.9.7-1.4.2-.5.2-1 .2-1.6 0-.6-.1-1.1-.3-1.6-.2-.5-.4-1-.7-1.4-.3-.4-.7-.7-1.2-.9-.5-.2-1-.4-1.6-.4-.6 0-1.1.1-1.6.4-.5.2-.9.6-1.2 1-.3.4-.5.9-.7 1.4-.2.4-.2.9-.2 1.5zm21.8 6.3v-8.5l-3.3 6.3h-1.4l-3.3-6.3v8.5h-2.5V106h2.7l3.8 7.3 3.8-7.3h2.6v12.8h-2.4z" class="st3"/></svg>