<svg xmlns="http://www.w3.org/2000/svg" id="Слой_1" x="0" y="0" version="1.1" viewBox="0 0 826 826" xml:space="preserve"><style>.st0{fill:#F8CBC4}.st1{fill:#FBE0DC}</style><path d="M769.3 284.4v-8.2c0-9.8-8-17.8-17.8-17.8H74.6c-9.8 0-17.8 8-17.8 17.8v8.2c0 9.8 8 17.8 17.8 17.8h676.9c9.8 0 17.8-8 17.8-17.8z" class="st0"/><path d="M89.4 340.4v364.5c0 39.8 32.3 72.1 72.1 72.1h502.9c39.8 0 72.1-32.3 72.2-72.1V306.6H89.4v33.8zM717.6 588c0-1.1.9-1.9 1.9-1.9s1.9.9 1.9 1.9v69c0 1.1-.9 1.9-1.9 1.9s-1.9-.9-1.9-1.9v-69zm0 86.9c0-1.1.9-1.9 1.9-1.9s1.9.9 1.9 1.9v21.7c0 1.1-.9 1.9-1.9 1.9s-1.9-.9-1.9-1.9v-21.7zM104.5 346.8c0-1.1.9-1.9 1.9-1.9s1.9.9 1.9 1.9v208.1c0 1.1-.9 1.9-1.9 1.9s-1.9-.9-1.9-1.9V346.8zm0 225.9c0-1.1.9-1.9 1.9-1.9s1.9.9 1.9 1.9v21.7c0 1.1-.9 1.9-1.9 1.9s-1.9-.9-1.9-1.9v-21.7z" class="st1"/><path d="M803.4 342.3h-62.9v51h62.9c10.4 0 18.8-8.4 18.8-18.8V361c-.1-10.3-8.5-18.7-18.8-18.7z" class="st0"/><path d="M731.3 246.5c-19.2-40.4-60.7-76.8-116.8-102.6-58.2-26.7-127.9-40.8-201.5-40.8s-143.3 14.1-201.5 40.8c-56.2 25.8-97.7 62.2-116.8 102.6-1.2 2.6-2.4 5.3-3.5 8h643.5c-1-2.7-2.2-5.4-3.4-8zm-553.9-62.8c-13.6 9.2-26.1 19.7-37.6 31.4-.4.4-.9.6-1.4.6-1.1 0-1.9-.9-1.9-1.9 0-.5.2-1 .5-1.3 11.6-11.9 24.4-22.6 38.2-31.9.9-.6 2.1-.4 2.7.5.6.8.4 2-.5 2.6zm16-10.3c-2.9 1.8-5.7 3.6-8.5 5.4-.9.6-2.1.3-2.7-.5-.6-.9-.3-2.1.5-2.7 2.8-1.8 5.7-3.7 8.6-5.5.9-.5 2.1-.2 2.6.7.7.9.4 2.1-.5 2.6z" class="st1"/><circle cx="413" cy="73.8" r="24.8" class="st0"/><path d="M3.8 361.1v13.5c0 10.4 8.4 18.8 18.8 18.8h62.9v-51H22.6c-10.3-.1-18.7 8.3-18.8 18.7z" class="st0"/><path d="M803.4 338.4h-62.9V306h11c12 0 21.7-9.7 21.7-21.7v-8.2c0-12-9.7-21.6-21.7-21.7h-12.6c-1.3-3.3-2.6-6.5-4.1-9.6-19.5-41.2-61.7-78.3-118.7-104.5-55.3-25.3-120.7-39.5-190.1-41 14.1-7.2 19.7-24.4 12.6-38.6-7.2-14.1-24.4-19.7-38.6-12.6s-19.7 24.4-12.6 38.6c2.8 5.4 7.1 9.8 12.6 12.6-69.3 1.6-134.8 15.7-190.1 41-57 26.1-99.2 63.2-118.7 104.5-1.5 3.1-2.9 6.4-4.1 9.6H74.5c-12 0-21.6 9.7-21.7 21.7v8.2c0 12 9.7 21.7 21.7 21.7h11v32.4H22.6C10.1 338.5 0 348.6 0 361.1v13.5c0 12.5 10.1 22.6 22.6 22.6h62.9v307.6c0 42 34 76 76 76h502.9c42 0 76-34 76-76V397.2h62.9c12.5 0 22.6-10.1 22.6-22.6v-13.5c.1-12.5-10-22.6-22.5-22.7zM85.5 393.3H22.6c-10.4 0-18.8-8.4-18.8-18.8V361c0-10.4 8.4-18.8 18.8-18.8h62.9v51.1zM388.2 73.8c0-13.7 11.1-24.8 24.8-24.8 13.7 0 24.8 11.1 24.8 24.8S426.7 98.7 413 98.7c-13.7-.1-24.8-11.2-24.8-24.9zM94.7 246.5c19.2-40.4 60.7-76.8 116.8-102.6 58.2-26.7 127.9-40.8 201.5-40.8s143.3 14.1 201.5 40.8c56.2 25.8 97.7 62.2 116.8 102.6 1.2 2.6 2.4 5.3 3.5 8H91.2c1.1-2.7 2.3-5.4 3.5-8zm641.9 93.9v364.5c0 39.8-32.3 72.1-72.2 72.1H161.5c-39.8 0-72.1-32.3-72.1-72.1V306.6h647.2v33.8zM74.5 302.2c-9.8 0-17.8-8-17.8-17.8v-8.2c0-9.8 8-17.8 17.8-17.8h676.9c9.8 0 17.8 8 17.8 17.8v8.2c0 9.8-8 17.8-17.8 17.8H74.5zm747.6 72.4c0 10.4-8.4 18.8-18.8 18.8h-62.9v-51h62.9c10.4 0 18.8 8.4 18.8 18.8v13.4z"/><path d="M106.5 556.8c1.1 0 1.9-.9 1.9-1.9V346.8c0-1.1-.9-1.9-1.9-1.9s-1.9.9-1.9 1.9v208.1c-.1 1 .8 1.9 1.9 1.9zm0 39.6c1.1 0 1.9-.9 1.9-1.9v-21.7c0-1.1-.9-1.9-1.9-1.9s-1.9.9-1.9 1.9v21.7c-.1 1 .8 1.9 1.9 1.9zm613 62.5c1.1 0 1.9-.9 1.9-1.9v-69c0-1.1-.9-1.9-1.9-1.9s-1.9.9-1.9 1.9v69c0 1 .9 1.9 1.9 1.9zm0 39.6c1.1 0 1.9-.9 1.9-1.9v-21.7c0-1.1-.9-1.9-1.9-1.9s-1.9.9-1.9 1.9v21.7c0 1.1.9 1.9 1.9 1.9zm-544.3-518c-13.8 9.3-26.6 20-38.2 31.9-.7.8-.7 2 .1 2.7.8.7 2 .7 2.7-.1 11.4-11.7 24-22.3 37.6-31.4.9-.6 1.1-1.8.5-2.7-.6-.7-1.8-1-2.7-.4zm16.2-10.3c-2.9 1.8-5.8 3.6-8.6 5.5-.9.6-1.1 1.8-.5 2.7.4.5 1 .9 1.6.9.4 0 .7-.1 1.1-.3 2.8-1.8 5.6-3.6 8.5-5.4.9-.6 1.2-1.8.6-2.7-.7-1-1.8-1.3-2.7-.7z"/></svg>