<svg xmlns="http://www.w3.org/2000/svg" id="Слой_1" x="0" y="0" version="1.1" viewBox="0 0 826 826" xml:space="preserve"><style>.st0{fill:#D5E7F2}.st2{fill:#F2EBE4}</style><path d="M569.9 363.2H416.5c-1.9 0-3.8.4-5.5 1.3-1.5.7-2.8 1.7-3.9 2.9-4.7 5.2-4.3 13.1.9 17.8 2.3 2.1 5.3 3.2 8.4 3.2h351.3c7 0 12.6-5.6 12.6-12.6s-5.6-12.6-12.6-12.6H569.9z" class="st0"/><path fill="#C4E1D4" d="M407.1 232.6c0-6.8-5.5-12.3-12.3-12.3H240.2c-6.8 0-12.3 5.5-12.3 12.3v2.1h179.2v-2.1zm-75 107.2h-29.3c-6.8 0-12.3 5.5-12.3 12.3v93.8c0 6.8 5.5 12.3 12.3 12.3h29.3c6.8 0 12.4-5.5 12.4-12.3v-93.8c0-6.8-5.6-12.3-12.4-12.3zm249.2 155.8c-4.7 0-8.5 3.8-8.6 8.6v69c0 4.7 3.8 8.5 8.6 8.6h21.5c4.7 0 8.6-3.8 8.6-8.6v-69c0-4.7-3.8-8.6-8.6-8.6h-21.5zm-7.5-78.2h83.7v-1c0-4.7-3.8-8.6-8.6-8.6H535.3c-4.7 0-8.6 3.8-8.6 8.6v1h47.1z"/><path d="M569.9 312.9h-76.2c-25.9 0-47.3 20.5-48.3 46.4h293.5c-1.1-25.9-22.4-46.4-48.3-46.4H569.9zm239.7 79.4H374.7c-7 0-12.6 5.6-12.6 12.6s5.6 12.6 12.6 12.6h148.2v-1.1c0-6.9 5.6-12.4 12.4-12.4h113.6c6.9 0 12.4 5.6 12.4 12.4v1h148.3c6.9 0 12.6-5.6 12.6-12.6 0-6.9-5.7-12.5-12.6-12.5zM451.4 91.2H183.5c-35.9.1-65.4 28.6-66.5 64.5h400.8c-1-35.9-30.5-64.5-66.4-64.5zm105 104c9.8 0 17.8-8 17.8-17.8s-8-17.8-17.8-17.8H78.5c-9.8 0-17.8 8-17.8 17.8s8 17.8 17.8 17.8h477.9zM224 232.6c0-8.9 7.3-16.2 16.2-16.2h154.5c8.9 0 16.2 7.3 16.2 16.2v2.1h202.3c9.8 0 17.8-8 17.8-17.8s-8-17.8-17.8-17.8H21.7c-9.8 0-17.8 8-17.8 17.8s8 17.8 17.8 17.8H224v-2.1z" class="st0"/><path d="M366 390.8c2.6-1.6 5.6-2.5 8.7-2.5h27.5c.7-.5 1.4-1.1 1.9-1.8-6-6.8-5.3-17.2 1.5-23.1.5-.4 1-.8 1.5-1.1V238.6H227.9v139.9c0 6.8 5.5 12.3 12.3 12.3h46.4V352c0-8.9 7.3-16.2 16.2-16.2h29.3c9 0 16.2 7.2 16.2 16.2v38.7H366zm75.5-31.5c1.1-28.1 24.1-50.2 52.2-50.3h76.2v-70.4h-159v121.7c1.8-.6 3.6-1 5.5-1h25.1zm85.2 164.3c0 4.7 3.8 8.6 8.6 8.6h33.6v-27.9c0-6.8 5.6-12.4 12.4-12.4h21.5c6.9 0 12.4 5.6 12.4 12.4v28h33.6c4.7 0 8.6-3.8 8.6-8.6v-102H526.7v101.9z" class="st2"/><path d="M661.3 523.6c0 6.9-5.5 12.4-12.4 12.5h-33.6v37.2c0 6.9-5.6 12.4-12.4 12.4h-21.5c-6.9 0-12.4-5.6-12.4-12.4V536h-33.6c-6.9 0-12.4-5.6-12.4-12.4V421.7H407.1v264.8c0 26.7 21.6 48.3 48.3 48.3h273.5c26.7 0 48.3-21.6 48.3-48.3V421.7H661.4l-.1 101.9zM425.4 633.3c0 1.1-.9 1.9-1.9 1.9-1.1 0-1.9-.9-1.9-1.9V627c0-1.1.9-1.9 1.9-1.9 1.1 0 1.9.9 1.9 1.9v6.3zm0-12.7c0 1.1-.9 1.9-1.9 1.9-1.1 0-1.9-.9-1.9-1.9V473.3c0-1.1.9-1.9 1.9-1.9 1.1 0 1.9.9 1.9 1.9v147.3zm333.3 15.9c0-1.1.9-1.9 1.9-1.9s1.9.9 1.9 1.9v5.3c0 1.1-.9 1.9-1.9 1.9s-1.9-.9-1.9-1.9v-5.3zm0 12.4c0-1.1.9-1.9 1.9-1.9s1.9.9 1.9 1.9v23.4c0 1.1-.9 1.9-1.9 1.9s-1.9-.9-1.9-1.9v-23.4z" class="st2"/><path d="M403.2 686.5V421.3h-28.5c-9.1 0-16.4-7.3-16.5-16.3 0-3.7 1.2-7.3 3.5-10.2h-13.4V446c0 8.9-7.3 16.2-16.2 16.2h-29.3c-8.9 0-16.2-7.3-16.2-16.2v-51.2h-46.4c-8.9 0-16.2-7.3-16.2-16.2v-140H65v447.9c0 26.7 21.6 48.3 48.3 48.3h322.3c-19.6-8-32.4-27.1-32.4-48.3zM85.1 596.1c0 1.1-.9 1.9-1.9 1.9s-1.9-.9-1.9-1.9v-8.7c0-1.1.9-1.9 1.9-1.9s1.9.9 1.9 1.9v8.7zm0-17.4c0 1.1-.9 1.9-1.9 1.9s-1.9-.9-1.9-1.9V378.3c0-1.1.9-1.9 1.9-1.9s1.9.9 1.9 1.9v200.4z" class="st2"/><path d="M83.2 376.4c-1.1 0-1.9.9-1.9 1.9v200.4c0 1.1.9 1.9 1.9 1.9s1.9-.9 1.9-1.9V378.3c0-1.1-.8-1.9-1.9-1.9zm0 209.1c-1.1 0-1.9.9-1.9 1.9v8.7c0 1.1.9 1.9 1.9 1.9s1.9-.9 1.9-1.9v-8.7c0-1.1-.8-1.9-1.9-1.9z"/><path d="M809.6 388.4h-31.3c7-5.8 8-16.1 2.2-23.1-3.2-3.8-7.9-6-12.8-5.9h-25c-1.1-28.1-24.1-50.3-52.2-50.3H573.8v-70.4h39.5c12 0 21.7-9.7 21.7-21.7s-9.7-21.7-21.7-21.7h-44.5c9.8-6.8 12.3-20.3 5.5-30.1-4-5.9-10.7-9.4-17.8-9.4h-34.7c-1.1-38.1-32.2-68.4-70.3-68.4h-268c-38.1.1-69.2 30.4-70.3 68.4H78.5c-12 0-21.7 9.7-21.7 21.7 0 7.1 3.5 13.8 9.4 17.8H21.7C9.7 195.3 0 205 0 217s9.7 21.7 21.7 21.7h39.5v447.9c0 28.8 23.4 52.1 52.2 52.2h615.5c28.8 0 52.1-23.4 52.2-52.2V421.3h28.6c9.1 0 16.4-7.4 16.4-16.4-.1-9.2-7.4-16.5-16.5-16.5zm-41.8-25.2c7 0 12.6 5.6 12.6 12.6s-5.6 12.6-12.6 12.6H416.4c-6.9 0-12.6-5.5-12.6-12.5 0-3.1 1.1-6.2 3.3-8.5 1.1-1.2 2.4-2.2 3.9-2.9 1.7-.8 3.6-1.3 5.5-1.3h351.3zm-435.7-27.3h-29.3c-8.9 0-16.2 7.3-16.2 16.2v38.7h-46.4c-6.8 0-12.3-5.5-12.3-12.3V238.6h179.2v123.7c-7.5 5.2-9.3 15.4-4.2 22.8.4.5.7 1 1.1 1.5-.6.7-1.2 1.3-1.9 1.8h-27.5c-3.1 0-6.1.9-8.7 2.5h-17.6v-38.7c0-9-7.2-16.3-16.2-16.3zm12.4 16.2v93.8c0 6.8-5.5 12.3-12.3 12.3h-29.3c-6.8 0-12.3-5.5-12.3-12.3v-93.8c0-6.8 5.5-12.3 12.3-12.3h29.3c6.7 0 12.3 5.5 12.3 12.3zM227.9 234.7v-2.1c0-6.8 5.5-12.3 12.3-12.3h154.5c6.8 0 12.3 5.5 12.3 12.3v2.1H227.9zm183 125.6V238.6h159V309h-76.2c-28.1 0-51.1 22.2-52.2 50.3h-25.1c-1.8 0-3.7.4-5.5 1zm279.6-47.4c25.9 0 47.3 20.5 48.3 46.4H445.3c1.1-25.9 22.4-46.4 48.3-46.4h196.9zm-507-221.7h267.9c35.9.1 65.3 28.6 66.4 64.5H117.1c1.1-35.9 30.5-64.5 66.4-64.5zM60.7 177.4c0-9.8 8-17.8 17.8-17.8h477.9c9.8 0 17.8 8 17.8 17.8s-8 17.8-17.8 17.8H78.5c-9.8 0-17.8-7.9-17.8-17.8zm-39 57.3c-9.8 0-17.8-8-17.8-17.8s8-17.8 17.8-17.8h591.6c9.8 0 17.8 8 17.8 17.8s-8 17.8-17.8 17.8H410.9v-2.1c0-8.9-7.3-16.2-16.2-16.2H240.2c-8.9 0-16.2 7.3-16.2 16.2v2.1H21.7zm91.6 500.1c-26.7 0-48.3-21.6-48.3-48.3V238.6h159v139.9c0 8.9 7.3 16.2 16.2 16.2h46.4V446c0 8.9 7.3 16.2 16.2 16.2h29.3c9 0 16.2-7.3 16.2-16.2v-51.2h13.4c-5.6 7.1-4.4 17.4 2.7 23 2.9 2.3 6.5 3.5 10.2 3.5h28.5v265.3c0 21.2 12.9 40.3 32.5 48.3H113.3zm663.9-48.3c0 26.7-21.6 48.3-48.3 48.3H455.3c-26.7 0-48.3-21.6-48.3-48.3V421.7h115.8v101.9c0 6.9 5.5 12.4 12.4 12.5h33.6v37.2c0 6.8 5.6 12.4 12.4 12.4h21.5c6.9 0 12.4-5.6 12.4-12.4V536h33.6c6.9 0 12.4-5.6 12.4-12.4V421.7h115.8l.3 264.8zM569.9 421.7h87.5v101.9c0 4.7-3.8 8.6-8.6 8.6h-33.6v-27.9c0-6.9-5.6-12.4-12.4-12.4h-21.5c-6.9 0-12.4 5.6-12.4 12.4v28h-33.6c-4.7 0-8.6-3.8-8.6-8.6v-102h43.2zm-43.2-4.3v-1c0-4.7 3.8-8.6 8.6-8.6h113.6c4.7 0 8.6 3.8 8.6 8.6v1H526.7zm84.7 86.8v69c0 4.7-3.8 8.6-8.6 8.6h-21.5c-4.7 0-8.5-3.8-8.6-8.6v-69c0-4.7 3.8-8.5 8.6-8.6h21.5c4.8 0 8.6 3.9 8.6 8.6zm198.2-86.8H661.3v-1c0-6.9-5.6-12.4-12.4-12.4H535.3c-6.9 0-12.4 5.6-12.4 12.4v1H374.7c-7 0-12.6-5.6-12.6-12.6s5.6-12.6 12.6-12.6h434.9c7 0 12.6 5.6 12.6 12.6s-5.7 12.6-12.6 12.6z"/><path d="M423.5 471.4c-1.1 0-1.9.9-1.9 1.9v147.3c0 1.1.9 1.9 1.9 1.9 1.1 0 1.9-.9 1.9-1.9V473.3c0-1.1-.9-1.9-1.9-1.9zm0 153.6c-1.1 0-1.9.9-1.9 1.9v6.4c0 1.1.9 1.9 1.9 1.9 1.1 0 1.9-.9 1.9-1.9V627c0-1.1-.9-2-1.9-2zm337.1 49.2c1.1 0 1.9-.9 1.9-1.9v-23.4c0-1.1-.9-1.9-1.9-1.9s-1.9.9-1.9 1.9v23.4c0 1.1.8 1.9 1.9 1.9zm0-30.4c1.1 0 1.9-.9 1.9-1.9v-5.3c0-1.1-.9-1.9-1.9-1.9s-1.9.9-1.9 1.9v5.3c0 1 .8 1.9 1.9 1.9z"/></svg>