<svg xmlns="http://www.w3.org/2000/svg" id="Слой_1" x="0" y="0" version="1.1" viewBox="0 0 826 826" xml:space="preserve"><style>.st0{fill:#F9E5A1}.st1{fill:#E0E2F1}.st2{fill:#D5E7F2}.st3{fill:#B5D9C9}.st4{fill:#F8CBC4}.st5{fill:#B8D0D9}</style><circle cx="395" cy="52.6" r="17.4" class="st0"/><path d="M333.2 72.8c28.3 91.4 21.3 175.5 19.8 190.2h20c14.1-81.6-14.1-177.3-17.7-189.2-8.9-1-18.7-1.5-22.1-1z" class="st1"/><circle cx="401.4" cy="125.7" r="5" class="st0"/><circle cx="494.9" cy="233.1" r="15.9" class="st0"/><circle cx="587.5" cy="37.1" r="2" class="st2"/><path d="M551.4 353.2c58-36.2 120.7-52.3 173-44.3-.8-5.2-1.6-10.6-2.4-15.8-59.5-6.7-123.6 9.8-176.4 45.3 1 2.5 2.4 6.1 3.8 9.6.7 1.9 1.4 3.7 2 5.2z" class="st3"/><circle cx="644.2" cy="247" r="7" class="st2"/><path d="M614.3 209.4c-32.2 13.9-80 43.2-126 103l17.5 10.5c12.9-19.8 28.2-38 45.5-54.2 27.2-25.5 71.3-56.4 127.9-60.7l-6.3-14.6c-5.5.4-28 2.8-58.6 16z" class="st1"/><circle cx="319.4" cy="246.5" r="14.4" class="st2"/><circle cx="315.9" cy="147.6" r="3" class="st0"/><path d="M438.8 209.2h-21.9c2.4 11.6 10.9 60-11.6 85.4 9.2 2.3 18.5 4.5 21.3 5 4.4-6.2 23.8-52.1 12.2-90.4z" class="st3"/><circle cx="733.7" cy="439" r="3" class="st0"/><path d="M605.1 440.1l-.4-14.4-12.8 6.6c-.5.2-1 .3-1.5.1l-13.8-4.1 2.3 14.2c.1.5 0 1-.3 1.4l-8.1 11.9 14.2 2.2c.5.1 1 .3 1.3.7l8.8 11.4 6.5-12.8c.2-.5.6-.8 1.1-1l13.5-4.8-10.2-10.1c-.4-.3-.6-.8-.6-1.3z" class="st4"/><circle cx="735.2" cy="374.9" r="16.4" class="st2"/><path d="M502.8 166.9l-10.6 9.7 13.3 5.4c.5.2.9.5 1.1 1l6 13.1 9.2-11.1c.3-.4.8-.6 1.3-.7l14.3-1.6-7.6-12.2c-.3-.4-.4-1-.3-1.5l2.9-14.1-13.9 3.5c-.5.1-1 .1-1.5-.2l-12.5-7.1-1 14.3c-.1.7-.4 1.2-.7 1.5z" class="st4"/><circle cx="756.1" cy="154" r="17.4" class="st0"/><path d="M700.9 246.5c22.4.2 44.8 6.1 53 8.6l-7.4-35.9c-10.3 13.1-30.4 22.1-45.6 27.3z" class="st5"/><circle cx="609.3" cy="150.5" r="20.9" class="st2"/><circle cx="468.1" cy="150.5" r="10.9" class="st2"/><path d="M519.7 100.4c18.5-26.8 36.1-36.8 43.9-40.2-9.8-5.7-20.3-11.1-23.1-11.4-12.2 14.5-19.5 32.6-20.8 51.6z" class="st5"/><circle cx="682" cy="132.6" r="8" class="st0"/><circle cx="137.8" cy="211.2" r="9" class="st0"/><path d="M226.7 265.5c-7.7-5.5-27.2-14.5-67-6V274c21.6-7 44.3-9.9 67-8.5z" class="st5"/><path d="M272.8 65l-10.2-14.4L254 66c-.2.4-.7.8-1.1.9L236 72.1 248 85c.3.4.5.9.5 1.4l-.2 17.7 16.1-7.4c.5-.2 1-.2 1.5-.1l16.7 5.7-2.1-17.6c-.1-.5.1-1 .4-1.4l10.6-14.2-17.3-3.4c-.6-.1-1.1-.3-1.4-.7z" class="st4"/><circle cx="206" cy="356" r="7.5" class="st0"/><path d="M240.8 793l-14.9-10.8c-.7 6.9-1.4 13.1-2 18.4-.7 6.3-1.2 11.5-1.7 15.4l.3.2c3.5-4.5 9.1-11.6 18.3-23.2zm95.6-118.4l-92.1-67.1c-1.2 11.7-2.4 23-3.5 33.8l77.1 56.2 18.5-22.9zM272.1 754c5.1-6.3 10.6-13.1 16.4-20.3l-53.4-38.8c-1.3 12.1-2.5 23.4-3.6 33.8l38.4 28c.8-.9 1.5-1.8 2.2-2.7zm160.4-197.6L262.6 432.6c-1.2 11-2.3 22.3-3.5 33.8l154.8 112.9 18.6-22.9zm48.1-59L271.7 345.2c-1.1 10.4-2.3 21.8-3.5 33.8L462 520.3l18.6-22.9zm48.2-59l-181.1-132-68.9-28.6c-.3 2.7-.8 7.4-1.4 13.8l232.8 169.7 18.6-22.9zM384.5 615.5l-131-95.5c-1 9.8-2.1 19.7-3.1 29.6-.1 1.4-.3 2.8-.4 4.2l115.9 84.5 18.6-22.8zm178.8-219.4L531.8 383l26.5 19.3c2.2-2.8 3.9-4.8 5-6.2z" class="st2"/><path d="M267.5 759.8l-36.4-26.5c-.2 1.8-.4 3.5-.5 5.2-1.5 14.6-3 27.8-4.1 39.2l16.9 12.3c6.3-8 14.2-17.9 24.1-30.2zm47.9-59.3l-75.1-54.7c-1.7 15.8-3.2 30.6-4.7 44.4l55.4 40.4c7.6-9.3 15.7-19.3 24.4-30.1zm144.1-177.2L267.8 383.6c-1.5 14-3 28.8-4.6 44.4L435 553.3c8.3-10.2 16.5-20.2 24.5-30zm96.3-118l-39.7-28.9-152.7-63.5 167.9 122.4 24.5-30zM391.4 606.9l19.9-24.5L258.6 471c-1.5 14.6-3.1 29.4-4.6 44.4l133 96.9 4.4-5.4zm116.2-142.6L276.9 296.1c-1.2 11.2-2.7 26.3-4.6 44.4l210.9 153.7 24.4-29.9zM363.3 641.4l-113.9-83c-1.6 15.4-3.2 30.3-4.6 44.4l94.1 68.6 24.4-30z" class="st0"/><path d="M568.1 396.5c.7-.9.6-2.1-.3-2.8-.1-.1-.3-.2-.5-.3L277.9 273c-.6-.2-1.2-.2-1.8.1-.6.3-.9.9-1 1.5-.6 5.4-56.6 542.3-57.7 548.9 0 .1-.1.2 0 .4 0 1.1.8 1.9 1.9 2h.2c1.3 0 1.7-.8 1.9-2 0 .2-.1.5-.1.7 4.3-8.2 228.7-283.6 346.8-428.1zm-4.8-.4c-1.1 1.4-2.8 3.5-5.1 6.2L531.8 383l31.5 13.1zm-47.2-19.7l39.7 28.9-24.5 30L363.4 313l152.7 63.4zm-237.3-98.7l68.9 28.6 181.1 132-18.6 22.9-232.9-169.7c.7-6.4 1.2-11.1 1.5-13.8zm-1.9 18.4l230.7 168.2-24.5 30-210.8-153.7c1.8-18.2 3.4-33.3 4.6-44.5zm-5.1 49.1l208.9 152.2-18.7 22.9L268.2 379c1.3-12.1 2.5-23.4 3.6-33.8zm-4 38.4l191.7 139.7c-8 9.8-16.1 19.8-24.4 30L263.1 428c1.6-15.6 3.2-30.5 4.7-44.4zm-5.1 49l169.9 123.8-18.6 22.9-154.9-112.9c1.2-11.5 2.4-22.8 3.6-33.8zm-4 38.4l152.7 111.3-19.9 24.5-4.5 5.5-133-96.9c1.5-15 3.1-29.8 4.7-44.4zm-8.2 78.7c1-9.9 2.1-19.8 3.1-29.6l131 95.5-18.6 22.9-116-84.6c.1-1.4.2-2.8.5-4.2zm-1 8.8l113.9 83-24.5 30-94.1-68.6c1.5-14.2 3.1-29 4.7-44.4zm-5.1 49l92.1 67.1-18.6 22.9-77.1-56.2c1.2-10.9 2.3-22.1 3.6-33.8zm-4 38.4l75.1 54.7c-8.7 10.7-16.8 20.7-24.3 30.1l-55.5-40.4c1.4-13.8 3-28.6 4.7-44.4zm-5.2 48.9l53.4 38.9c-5.8 7.2-11.3 14-16.4 20.3-.7.9-1.4 1.7-2.1 2.6l-38.4-28c1-10.4 2.2-21.6 3.5-33.8zm-4.6 43.6c.2-1.7.4-3.4.5-5.2l36.4 26.5c-9.9 12.3-17.8 22.2-24.2 30.2l-16.9-12.3c1.2-11.4 2.6-24.6 4.2-39.2zm-6.6 62.2c.6-5.4 1.2-11.5 2-18.4l14.9 10.8c-9.3 11.6-14.9 18.7-18.2 23.1l-.3-.2c.3-3.8.9-9 1.6-15.3zm317.2-462.1c1 2.3 2.8 7 4.4 11 1.2 2.9 2.2 5.7 3 7.4.2.5.7 1 1.2 1.1.2.1.4.1.6.1.4 0 .7-.1 1.1-.3 58.7-37.2 122.5-53.5 174.9-44.5.6.1 1.3-.1 1.7-.5.5-.4.7-1.1.6-1.7-1-6.6-2-13.4-3.1-20.1-.1-.9-.8-1.6-1.7-1.7-61.3-7.3-127.6 9.7-181.9 46.8-.8.5-1.1 1.5-.8 2.4zm180.7-45.4c.8 5.3 1.7 10.6 2.4 15.8-52.3-8-115 8-173 44.3-.6-1.5-1.3-3.3-2-5.2-1.4-3.5-2.8-7.1-3.8-9.6 52.8-35.5 116.9-52 176.4-45.3zm-425.1-226c-.2-.6-.8-1.1-1.5-1.2L275.6 62 264 45.6c-.4-.6-1-.9-1.7-.8-.7 0-1.3.4-1.6 1l-9.8 17.5-19.1 6c-1 .3-1.6 1.4-1.3 2.5.1.3.2.5.4.8l13.6 14.7-.3 20.1c0 .7.3 1.3.9 1.7.6.4 1.3.4 1.9.1l18.2-8.4 19 6.4c1 .4 2.2-.2 2.5-1.2.1-.3.1-.6.1-.9l-2.4-19.9 12-16.1c.5-.6.6-1.3.4-2zm-16 16.3c-.3.4-.4.9-.4 1.4l2.1 17.6-16.7-5.7c-.5-.2-1-.1-1.5.1l-16.1 7.4.2-17.7c0-.5-.2-1-.5-1.4l-12-12.9 16.9-5.2c.5-.2.9-.5 1.1-.9l8.6-15.4L272.8 65c.3.4.7.7 1.2.8l17.3 3.4-10.5 14.2zm220.9 62.8c-.6.3-1 .9-1 1.6l-1.1 16.7-12.3 11.3c-.5.5-.7 1.2-.6 1.8.1.7.6 1.2 1.2 1.5l15.5 6.2 7 15.2c.3.6.9 1.1 1.5 1.1h.3c.6 0 1.1-.3 1.5-.7l10.7-12.8 16.6-1.9c.7-.1 1.3-.5 1.6-1.1.3-.6.3-1.3-.1-1.9l-8.9-14.2 3.3-16.4c.1-.7-.1-1.4-.6-1.8-.5-.5-1.2-.7-1.9-.5l-16.2 4.1-14.6-8.2c-.6-.3-1.3-.3-1.9 0zm15.2 12.1c.4.2 1 .3 1.5.2l13.9-3.5-2.8 14.1c-.1.5 0 1 .3 1.5l7.6 12.2-14.3 1.6c-.5.1-1 .3-1.3.7l-9.2 11-6-13.1c-.2-.5-.6-.8-1.1-1l-13.3-5.4 10.6-9.7c.4-.3.6-.8.6-1.3l1-14.3 12.5 7zM609 439.2l-.5-16.7c0-.7-.4-1.3-1-1.7-.6-.3-1.3-.4-1.9-.1l-14.9 7.6-16-4.8c-.7-.2-1.4 0-1.9.4-.5.5-.8 1.1-.6 1.8l2.7 16.5-9.5 13.8c-.4.6-.5 1.3-.2 1.9.3.6.8 1.1 1.5 1.2l16.5 2.6 10.2 13.3c.4.5 1 .8 1.6.8h.2c.7-.1 1.3-.5 1.6-1.1l7.6-14.9 15.8-5.6c.6-.2 1.1-.8 1.3-1.4.2-.7-.1-1.4-.5-1.9l-12-11.7zm-6.7 17.2c-.5.2-.9.5-1.1 1l-6.5 12.8-8.8-11.4c-.3-.4-.8-.7-1.3-.7l-14.2-2.2 8.1-11.9c.3-.4.4-.9.3-1.4l-2.3-14.2 13.8 4.1c.5.1 1 .1 1.5-.1l12.8-6.6.4 14.4c0 .5.2 1 .6 1.4l10.2 10.1-13.5 4.7zM150.8 211.2c0-7.1-5.8-12.9-12.9-12.9s-12.9 5.8-12.9 12.9 5.8 12.9 12.9 12.9 12.9-5.7 12.9-12.9zm-21.9 0c0-4.9 4-9 9-9s9 4 9 9-4 9-9 9-9-4-9-9zM395 31.2c-11.8 0-21.4 9.6-21.4 21.4S383.2 74 395 74s21.4-9.6 21.4-21.4c0-11.9-9.6-21.4-21.4-21.4zm0 38.8c-9.6 0-17.4-7.8-17.4-17.4s7.8-17.4 17.4-17.4 17.4 7.8 17.4 17.4c0 9.6-7.8 17.4-17.4 17.4zm298.9 62.6c0-6.6-5.3-11.9-11.9-11.9s-12 5.3-12 11.9 5.3 11.9 11.9 11.9 12-5.3 12-11.9zm-11.9 8c-4.4 0-8-3.6-8-8s3.6-8 8-8 8 3.6 8 8-3.6 8-8 8zm-47.8 9.9c0-13.7-11.1-24.9-24.9-24.9s-24.9 11.1-24.9 24.9c0 13.7 11.1 24.9 24.9 24.9s24.9-11.1 24.9-24.9zm-45.7 0c0-11.5 9.4-20.9 20.9-20.9s20.9 9.4 20.9 20.9c0 11.5-9.4 20.9-20.9 20.9s-20.9-9.3-20.9-20.9zm146.7 204c-11.3 0-20.4 9.1-20.4 20.4 0 11.3 9.1 20.4 20.4 20.4s20.4-9.1 20.4-20.4c0-11.3-9.2-20.4-20.4-20.4zm0 36.8c-9.1 0-16.4-7.3-16.4-16.4s7.3-16.4 16.4-16.4c9.1 0 16.4 7.3 16.4 16.4 0 9-7.4 16.4-16.4 16.4zM301 246.5c0 10.2 8.2 18.4 18.4 18.4s18.4-8.2 18.4-18.4-8.2-18.4-18.4-18.4-18.4 8.3-18.4 18.4zm18.4-14.4c8 0 14.4 6.5 14.4 14.4 0 8-6.5 14.4-14.4 14.4s-14.4-6.5-14.4-14.4 6.4-14.4 14.4-14.4zm-114.2 89.1c.7.8 2 .9 2.8.2.8-.7.9-2 .2-2.8-10.2-11.2-27.8-15.3-41.8-9.6-7.7 3.1-14.2 8.7-19.9 13.8-17.2-4.3-35.2-4.3-52.4-.2-13.2 3.2-23.9 8.5-31.7 15.8-9.5 9-14.7 21.1-13.7 32.6.1 1 1 1.8 2 1.8h.2c1.1-.1 1.9-1 1.8-2.1-.9-10.3 3.8-21.2 12.5-29.3 7.3-6.8 17.4-11.8 29.9-14.9 16.9-4.1 34.6-3.9 51.5.4.6.2 1.3 0 1.8-.4 6-5.3 12.1-10.8 19.5-13.8 12.5-5.1 28.2-1.5 37.3 8.5zm13.6-160.3c-4.1-2.2-9.3-2.6-15.8-1.3a55.2 55.2 0 00-28.2 15.3c-.8.8-.7 2 0 2.8s2 .7 2.8 0c7.1-7.2 16.2-12.2 26.1-14.2 5.6-1.1 9.9-.8 13.1.9 2.5 1.5 4.7 3.6 6.4 6 4.1 5.1 7.6 10.6 10.4 16.5.4.9 1.5 1.3 2.4 1 5-1.6 10.9-1 16.4 1.7 4.7 2.3 9.1 5.9 13.4 11.2 10.1 12.2 14.1 26.7 10.8 38.8-.3 1.1.3 2.2 1.4 2.4 1.1.3 2.2-.3 2.4-1.4 3.7-13.4-.6-29.2-11.5-42.4-4.7-5.7-9.5-9.7-14.7-12.2-5.5-2.8-11.7-3.6-17.7-2.4-2.8-5.6-6.3-10.9-10.2-15.8-2-2.8-4.5-5.2-7.5-6.9zM448 110.8c-1 .3-1.6 1.4-1.3 2.5.3.8 1 1.4 1.9 1.4.2 0 .4 0 .6-.1 12.3-4 20.7-15.3 26.7-24.7 4.4-6.9 8.4-14.4 8.6-22.7.1-7-3.4-14.7-9.6-18.1 5.1-3.4 9.6-8.6 13.5-15.5 1.7-2.8 2.9-5.8 3.6-9 1.1-6.4-1.7-13.5-7-18.2-5.1-4.3-11.5-6.6-18.1-6.5-1.1 0-2 .9-2 2s.9 2 2 2c5.7-.1 11.2 1.9 15.6 5.5 4.3 3.8 6.5 9.5 5.6 14.5-.6 2.7-1.6 5.3-3.1 7.7-4.5 8-9.7 13.3-15.6 16.1-.8.4-1.2 1.2-1.1 2.1.1.9.8 1.6 1.6 1.7 6.8 1.2 10.9 9 10.7 15.6-.1 7.3-4 14.2-8 20.6-6 9.5-13.5 19.6-24.6 23.1z"/><path d="M558 150.7h.2c1 0 1.9-.7 2-1.8 5.9-47.5 49.1-81.3 96.6-75.4.5.1 1 .1 1.6.2 3.3.5 7.4 1.4 9.4 4.1.4.5 1 .8 1.6.8.6 0 1.2-.3 1.6-.9 8-11.6 21.4-19.7 36.8-22.2 13.8-2.2 28.8 0 43.5 6.5 4.6 2.1 12.4 6.6 12.6 13.3 0 1.1.9 2 2 1.9 1.1 0 2-.9 1.9-2-.2-8.5-8.2-13.8-15-16.8-15.3-6.8-31.2-9.1-45.8-6.8-15.5 2.5-29.2 10.4-38 21.9-2.9-2.4-6.9-3.3-10.2-3.8-49.6-7-95.4 27.5-102.5 77-.1.5-.1 1.1-.2 1.6 0 1.2.8 2.2 1.9 2.4zm111.4 264.4c3.8-8 2.7-18.3-2.8-26.1-5.4-7.5-14.5-12.6-25-14.1-8.3-1.2-17.6-.2-28.4 2.9-1.1.3-1.7 1.4-1.3 2.5.3 1.1 1.4 1.7 2.5 1.4 10.2-3 19-3.9 26.7-2.8 9.5 1.3 17.6 5.9 22.3 12.5 5.2 7.3 5.8 17.2 1.4 24-.6.9-.3 2.2.6 2.8.5.3 1.1.4 1.7.2 2.5 1 10.6 7.8 11.9 9.3 12.1 13.1 16.4 32.1 11 48.4-3.8 10.7-11.6 19.6-21.8 24.6-7.2 3.4-14.5 3.7-21.3 1.1-1-.5-2.2-.1-2.7.9s-.1 2.2.9 2.7c.1 0 .2.1.3.1 3.4 1.3 7 2 10.6 2 4.8 0 9.5-1.1 13.8-3.2 10.7-5 20.1-15.6 23.9-27 5.9-17.6 1.2-38.1-11.9-52.3-.1-.2-7.6-7.3-12.4-9.9zm-259-289.4c0-4.9-4-9-9-9-4.9 0-9 4-9 9 0 4.9 4 9 9 9 5-.1 9-4.1 9-9zm-13.9 0c0-2.7 2.2-5 5-5s5 2.2 5 5c0 2.7-2.2 5-5 5s-5-2.3-5-5zm-73.6 21.9c0-3.8-3.1-7-7-7s-7 3.1-7 7 3.1 7 7 7 7-3.2 7-7zm-10 0c0-1.6 1.3-3 3-3 1.6 0 3 1.3 3 3s-1.3 3-3 3c-1.7-.1-3-1.4-3-3zM587.5 43.1c3.3 0 6-2.7 6-6s-2.7-6-6-6-6 2.7-6 6 2.7 6 6 6zm0-8c1.1 0 2 .9 2 2s-.9 2-2 2-2-.9-2-2 .9-2 2-2zm56.7 201c-6 0-10.9 4.9-10.9 10.9s4.9 10.9 10.9 10.9 10.9-4.9 10.9-10.9-4.9-10.9-10.9-10.9zm0 17.9c-3.8 0-7-3.1-7-7s3.1-7 7-7 7 3.1 7 7c-.1 3.9-3.2 7-7 7z"/><path d="M683.9 210.8c.3-.6.4-1.2.1-1.8l-8-18.5c-.3-.7-1.1-1.2-1.9-1.2-1 0-25.4.9-61.2 16.4-33 14.3-82.1 44.3-129.1 106.1-.7.9-.5 2.1.4 2.8.1 0 .1.1.2.1l21 12.6c.3.2.6.3 1 .3.2 0 .3 0 .5-.1.5-.1 1-.5 1.2-.9.2-.3 16.4-27.4 45.9-55.1 27.2-25.4 71.5-56.4 128.2-59.8.8 0 1.4-.3 1.7-.9zm-132.5 57.9c-17.3 16.2-32.6 34.3-45.5 54.2l-17.5-10.5c46-59.8 93.8-89 126-103 30.5-13.3 53-15.7 58.6-16.1l6.3 14.6c-56.6 4.4-100.7 35.4-127.9 60.8zm198.2-54.9c-.2-1.1-1.3-1.8-2.4-1.5-.5.1-1 .4-1.3.9-13 21.7-55.7 32.8-64.2 34.8-1.1.2-1.9 1.2-1.7 2.3.2 1.1 1.2 1.9 2.3 1.7 31-5.8 73.2 7.8 73.6 7.9.2.1.4.1.6.1.5 0 1-.2 1.3-.5.5-.5.8-1.2.6-1.9l-8.8-43.8zm-48.7 32.7c15.2-5.2 35.3-14.2 45.7-27.4L754 255c-8.3-2.3-30.7-8.3-53.1-8.5zM401 297.7c5.7 1.4 24.3 6 26.3 6 1-.1 1.8-.6 2.3-1.5 5.3-7.3 25.6-55.6 12.5-95.6-.3-.8-1-1.4-1.9-1.4h-25.9c-.6 0-1.2.3-1.6.8-.4.5-.5 1.1-.4 1.7.1.6 14.3 60.9-12.4 86.6-.5.5-.7 1.2-.5 1.9.3.8.9 1.3 1.6 1.5zm15.9-88.5h21.9c11.6 38.2-7.7 84.1-12.2 90.4-2.9-.5-12.2-2.7-21.3-5 22.4-25.3 14-73.8 11.6-85.4zM569.3 58.8C541.1 42 539 44.4 538 45.7c-24.5 28.5-22.3 60.2-22.2 61.6.1.9.7 1.6 1.5 1.8.2 0 .3.1.5.1.7 0 1.3-.3 1.7-.9 24.5-38.5 49.1-45.6 49.4-45.7.8-.2 1.3-.9 1.5-1.7 0-.9-.4-1.7-1.1-2.1zm-49.6 41.6c1.2-19 8.5-37.1 20.8-51.6 2.8.4 13.3 5.7 23.1 11.4-7.7 3.3-25.4 13.4-43.9 40.2zM356.9 70c-25-2.8-26.9-.5-27.5.3-.5.6-.7 1.5-.5 2.3 31.3 99.9 19.9 191.2 19.8 192.1-.1.6.1 1.1.5 1.6.4.4.9.7 1.5.7h23.9c1 0 1.8-.7 2-1.6 15.8-88-17.6-192.9-18-194-.2-.8-.9-1.4-1.7-1.4zm16 193h-20c1.5-14.7 8.6-98.7-19.8-190.2 3.4-.5 13.2.1 22 1 3.7 11.9 31.9 107.6 17.8 189.2zm122-10c11 0 19.9-8.9 19.9-19.9 0-11-8.9-19.9-19.9-19.9s-19.9 8.9-19.9 19.9c.1 11 9 19.9 19.9 19.9zm0-35.8c8.8 0 15.9 7.1 15.9 15.9s-7.1 15.9-15.9 15.9-15.9-7.1-15.9-15.9 7.2-15.9 15.9-15.9zm-26.8-81.6c-8.2 0-14.9 6.7-14.9 14.9s6.7 14.9 14.9 14.9 14.9-6.7 14.9-14.9-6.7-14.9-14.9-14.9zm0 25.9c-6 0-10.9-4.9-10.9-10.9s4.9-10.9 10.9-10.9 10.9 4.9 10.9 10.9-4.9 10.9-10.9 10.9zM155.7 258v18.9c0 .7.3 1.3.9 1.6.5.4 1.2.5 1.9.2.3-.1 31.9-12.7 73.7-8.8 1.1.1 2.1-.7 2.2-1.8 0-.5-.1-1-.4-1.4-.7-1-18.4-23.8-76.6-10.7-1 .2-1.7 1-1.7 2zm4 1.6c39.7-8.6 59.3.4 67 6-22.7-1.4-45.4 1.5-67 8.5v-14.5zm46.3 84.9c-6.3 0-11.4 5.1-11.4 11.4 0 6.3 5.1 11.4 11.4 11.4 6.3 0 11.4-5.1 11.4-11.4 0-6.3-5.1-11.4-11.4-11.4zm0 18.9c-4.1 0-7.5-3.3-7.5-7.5 0-4.1 3.3-7.5 7.5-7.5 4.1 0 7.5 3.3 7.5 7.5-.1 4.2-3.4 7.5-7.5 7.5zm527.7 68.7c-3.8 0-7 3.1-7 7 0 3.8 3.1 7 7 7s7-3.1 7-7-3.2-7-7-7zm0 9.9c-1.6 0-3-1.3-3-3 0-1.6 1.3-3 3-3 1.6 0 3 1.3 3 3s-1.4 3-3 3zm22.4-309.4c-11.8 0-21.4 9.6-21.4 21.4 0 11.8 9.6 21.4 21.4 21.4 11.8 0 21.4-9.6 21.4-21.4-.1-11.8-9.6-21.4-21.4-21.4zm0 38.8c-9.6 0-17.4-7.8-17.4-17.4 0-9.6 7.8-17.4 17.4-17.4 9.6 0 17.4 7.8 17.4 17.4 0 9.6-7.8 17.4-17.4 17.4z"/></svg>