<svg xmlns="http://www.w3.org/2000/svg" viewBox="0 0 826 826"><path fill="#EADFD4" d="M410.2 736.4c178.3 0 323.4-145.1 323.4-323.4S588.5 89.6 410.2 89.6 86.9 234.7 86.9 413s145 323.4 323.3 323.4zM237.1 239.9c95.6-95.6 250.7-95.6 346.3 0 95.6 95.6 95.6 250.7 0 346.3s-250.7 95.6-346.3 0c-45.9-45.9-71.7-108.2-71.7-173.1-.2-65.1 25.6-127.4 71.7-173.2z"/><path fill="#FCFBFA" d="M410.2 654.1c132.9 0 241.1-108.1 241.1-241.1S543.2 171.9 410.2 171.9 169.1 280.1 169.1 413s108.2 241.1 241.1 241.1zm205.9-155.5c1-2.2 2-4.5 2.9-6.8.4-1 1.4-1.5 2.4-1.1 1 .4 1.5 1.4 1.1 2.4 0 .1 0 .1-.1.2-.9 2.3-2 4.7-3 7-.4 1-1.6 1.4-2.5 1-.8-.7-1.2-1.8-.8-2.7zm-15 27.4c4.5-7.1 8.5-14.5 12.1-22 .4-1 1.5-1.4 2.5-1 1 .4 1.4 1.5 1 2.5v.1c-3.7 7.7-7.8 15.2-12.3 22.4-.6.9-1.8 1.1-2.6.5-1-.6-1.2-1.7-.7-2.5zM196.4 356.1c-1.4 4.7-2 7.6-2.8 12l-.4 2.2c-.2.9-1 1.5-1.9 1.5h-.4c-1-.2-1.7-1.2-1.5-2.2l.4-2.2c.9-4.5 1.5-7.4 2.9-12.3.3-1 1.3-1.6 2.4-1.3 1 .2 1.6 1.3 1.3 2.3zm36.3-72.5c-12.6 16.3-22.7 34.4-30 53.7-1.3 3.4-2.5 6.8-3.6 10.3-.3.8-1 1.3-1.8 1.3-.2 0-.4 0-.6-.1-1-.3-1.5-1.4-1.2-2.4 8.7-27.1 22.7-52.2 41.2-73.8.7-.8 1.9-.9 2.7-.2.8.7.9 1.9.2 2.7-2.4 2.8-4.7 5.6-6.9 8.5z"/><path fill="#EEF5FA" d="M7.8 609.1c-3.1 8-1.9 16.8 3.2 24.3 6 8.7 15.9 13.9 26.4 14 10.7-.1 20.6-5.4 26.6-14.2 5.1-7.5 6.2-16.3 3-24.1l-.2-.6C54.2 576.4 48 544.6 48 511.3L42.2 344c0-.6.3-1.3.8-1.6l8.1-5.7c14.3-10 21.3-24.4 19.8-40.5l-11-114.3h-1.5v120.4c0 1-.8 1.9-1.9 1.9h-8c-1 0-1.9-.8-1.9-1.9V181.9H43v119.7c0 1-.8 1.9-1.9 1.9h-7.3c-1 0-1.9-.8-1.9-1.9V181.9h-3.5v119.7c0 1-.8 1.9-1.9 1.9h-7.3c-1 0-1.9-.8-1.9-1.9V181.9h-2.9L3.9 296.4c-1.5 16.1 5.6 30.4 19.8 40.3l8.3 5.8c.5.4.8 1 .8 1.6L27 511.4c0 32-5.7 62.7-17.6 93.7l-1.6 4zm22.3-97.8c0-1 .8-1.9 1.9-1.9s1.9.8 1.9 1.9c0 2.6 0 5.3-.1 8 0 1-.9 1.8-1.9 1.8h-.1c-1 0-1.9-.9-1.8-1.9 0-2.6.1-5.3.1-7.9zm-4.5 48c2.1-10.9 3.5-21.9 4.1-33 .1-1 1-1.8 2-1.8 1 .1 1.8 1 1.8 2-.7 11.2-2 22.4-4.2 33.5-.2.9-1 1.6-1.9 1.5H27c-1-.1-1.7-1.1-1.4-2.2zm794.3 50.2c-15.3-36.9-15.5-76.7-15.7-115.1 0-4.8 0-9.7-.1-14.5-.1-6.7-.2-13.4-.2-20.1-.2-15.9-.4-32.4-.4-48.6V181.9c-1.9.2-3.8.9-5.3 2.1-6 4.5-14.7 17.2-21.9 52.9-8.5 41.9-12.8 104.7-12.8 186.7 0 8.5 3.8 13.7 23.9 16.3 2.5.3 3.6.5-1.8 52.2-.2 1.5-.3 2.6-.3 3l-.9 10.5c-1.9 21.4-4 43.5-8.1 65-1.1 5.7-2 10.8-2.7 15.3-1.6 9.6-2.8 17.1-5.7 24.2-3.3 8-2.4 17.2 2.5 24.4 9.4 13.1 27.7 16.1 40.8 6.7 2.7-1.9 5-4.2 6.8-6.9 4.8-7.2 5.7-16.3 2.3-24.2l-.4-.6zm-31.5-75.3c-.1 1-.9 1.7-1.9 1.7h-.2c-1-.1-1.8-1.1-1.7-2.1.9-8.7 1.8-17.3 2.6-26.2.1-1 1-1.8 2.1-1.7 1 .1 1.8 1 1.7 2.1-.8 8.8-1.6 17.5-2.6 26.2zm3.1-32.2c-.1 1-.9 1.7-1.9 1.7h-.2c-1-.1-1.8-1-1.7-2.1l.6-6.9c.1-1 1-1.8 2.1-1.7 1 .1 1.8 1 1.7 2.1l-.6 6.9z"/><path d="M410.2 740.2c180.7 0 327.2-146.4 327.2-327.1 0-86.8-34.5-170-95.8-231.4-127.8-127.8-334.9-127.8-462.7 0s-127.8 334.9 0 462.7c61.2 61.5 144.5 96 231.3 95.8zm0-650.6c178.3 0 323.4 145.1 323.4 323.4S588.5 736.4 410.2 736.4 86.9 591.3 86.9 413s145-323.4 323.3-323.4z"/><path d="M410.2 657.9c135.2 0 244.9-109.6 244.9-244.9 0-135.2-109.6-244.9-244.9-244.9-135.2 0-244.9 109.7-244.8 244.9 0 64.9 25.8 127.2 71.7 173.1 45.8 46.1 108.1 71.9 173.1 71.8zm0-486c132.9 0 241.1 108.1 241.1 241.1S543.2 654.1 410.2 654.1 169.1 545.9 169.1 413s108.2-241.1 241.1-241.1z"/><path d="M239.4 272.4c-.8-.7-2-.6-2.7.2-18.5 21.6-32.5 46.7-41.2 73.8-.3 1 .2 2.1 1.2 2.4.2.1.4.1.6.1.8 0 1.5-.5 1.8-1.3 1.1-3.5 2.3-6.9 3.6-10.3 7.3-19.3 17.4-37.4 30-53.7 2.2-2.9 4.5-5.7 6.9-8.5.7-.8.6-2-.2-2.7zm-44.3 81.4c-1-.3-2.1.3-2.4 1.3-1.4 4.9-2 7.8-2.9 12.3l-.4 2.2c-.2 1 .5 2 1.5 2.2h.4c.9 0 1.7-.6 1.9-1.5l.4-2.2c.9-4.4 1.5-7.3 2.8-12 .3-1-.3-2.1-1.3-2.3zm406.6 174.8c.9.6 2.1.3 2.6-.6 4.5-7.2 8.7-14.7 12.3-22.4.5-.9.1-2.1-.8-2.5s-2.1-.1-2.5.8v.1c-3.6 7.6-7.7 14.9-12.1 22-.7.8-.4 2 .5 2.6zm15.3-27.5c1 .4 2.1 0 2.5-.9 1-2.3 2-4.6 3-7 .4-1 0-2.1-.9-2.5-1-.4-2.1 0-2.5.9 0 0 0 .1-.1.2-.9 2.3-1.9 4.6-2.9 6.8-.4.9 0 2 .9 2.5zM5.8 603.7c-.5 1.3-1 2.7-1.5 4-3.5 9.2-2.2 19.3 3.6 27.8 6.7 9.7 17.8 15.6 29.6 15.7 11.9-.1 23-6 29.7-15.8 5.8-8.5 7-18.6 3.4-27.7l-.2-.6c-12.5-31.6-18.6-62.9-18.6-95.8L46 344.9l7.3-5.1c15.5-10.8 23.1-26.4 21.4-44l-11.1-116c-.1-1-.9-1.7-1.9-1.7h-5.1c-1 0-1.9.8-1.9 1.9v120.4h-4.2V180c0-1-.8-1.9-1.9-1.9h-7.3c-1 0-1.9.8-1.9 1.9v119.7h-3.5V180c0-1-.8-1.9-1.9-1.9h-7.3c-1 0-1.9.8-1.9 1.9v119.7h-3.5V180c0-1-.8-1.9-1.9-1.9h-6.6c-1 0-1.8.7-1.9 1.7L.2 296c-1.6 17.5 6 33 21.4 43.8L29 345l-5.8 166.4c0 31.5-5.7 61.7-17.4 92.3zm27-259.7c0-.6-.3-1.3-.8-1.6l-8.3-5.8c-14.2-9.9-21.2-24.2-19.8-40.3l10.4-114.4h2.9v119.7c0 1 .8 1.9 1.9 1.9h7.3c1 0 1.9-.8 1.9-1.9V181.9h3.5v119.7c0 1 .8 1.9 1.9 1.9H41c1 0 1.9-.8 1.9-1.9V181.9h3.5v120.4c0 1 .8 1.9 1.9 1.9h8.1c1 0 1.9-.8 1.9-1.9V181.9h1.5l11 114.3c1.6 16.2-5.5 30.6-19.8 40.6l-8.1 5.7c-.5.4-.8 1-.8 1.6L48 511.4c0 33.3 6.2 65.1 18.9 97.1l.2.6c3.1 7.9 2 16.7-3 24.1-6 8.8-15.9 14.1-26.6 14.2-10.6-.1-20.4-5.3-26.4-14-5.1-7.5-6.3-16.3-3.2-24.3l1.5-4c11.8-31 17.6-61.7 17.6-93.7L32.8 344z"/><path d="M27 561.6h.4c.9 0 1.7-.6 1.9-1.5 2.1-11 3.5-22.2 4.2-33.5.1-1-.7-1.9-1.8-2s-1.9.7-2 1.8c-.6 11.1-2 22.1-4.1 33-.2 1 .4 1.9 1.4 2.2zm4.8-40.5c1.1 0 1.9-.8 2-1.8.1-2.7.1-5.4.1-8 0-1-.8-1.9-1.9-1.9s-1.9.8-1.9 1.9c0 2.6 0 5.3-.1 7.9-.1 1 .7 1.9 1.8 1.9zm791.8 87.5l-.2-.6c-15-36.2-15.2-75.6-15.4-113.7 0-4.9 0-9.7-.1-14.6-.1-6.7-.2-13.4-.2-20.1-.2-15.9-.4-32.4-.4-48.5V180.2c0-.8-.5-1.6-1.3-1.8-1.4-.4-5.1-1-10 2.6-13.6 10.1-36.3 55-36.3 242.6 0 13.4 9.9 17.7 26 19.9.2 3-.2 13.5-3.8 48.2-.2 1.5-.3 2.6-.3 3l-.9 10.5c-1.9 21.3-3.9 43.4-8.1 64.6-1.1 5.8-2 10.9-2.7 15.4-1.5 9.3-2.7 16.7-5.4 23.4-3.8 9.2-2.8 19.7 2.8 27.9 10.6 14.9 31.2 18.3 46.1 7.8 3.1-2.2 5.7-4.9 7.9-7.9 5.3-8.2 6.3-18.6 2.3-27.8zm-5.8 25.7c-9.3 13.2-27.6 16.3-40.7 7-2.7-1.9-5-4.2-6.9-6.8-4.9-7.2-5.8-16.4-2.5-24.4 2.8-7.1 4.1-14.6 5.7-24.2.7-4.5 1.6-9.6 2.7-15.3 4.2-21.4 6.2-43.6 8.1-65l.9-10.5c0-.4.2-1.5.3-3 5.4-51.7 4.2-51.9 1.8-52.2-20.1-2.7-23.9-7.8-23.9-16.3 0-82 4.3-144.8 12.8-186.7 7.2-35.6 15.9-48.4 21.9-52.9 1.5-1.2 3.3-2 5.3-2.1v229.3c0 16.2.2 32.7.4 48.6.1 6.7.2 13.4.2 20.1.1 4.8.1 9.7.1 14.5.2 38.5.4 78.2 15.7 115.1l.2.6c3.6 7.9 2.7 17-2.1 24.2z"/><path d="M789.3 505.9c-1-.1-2 .7-2.1 1.7-.8 8.9-1.6 17.5-2.6 26.2-.1 1 .6 2 1.7 2.1h.2c1 0 1.8-.7 1.9-1.7.9-8.7 1.8-17.4 2.6-26.3.1-1-.7-1.9-1.7-2zm1.1-12.9c-1-.1-2 .7-2.1 1.7l-.6 6.9c-.1 1 .7 2 1.7 2.1h.2c1 0 1.8-.7 1.9-1.7l.6-6.9c.2-1-.6-2-1.7-2.1.1 0 .1 0 0 0z"/></svg>