<svg xmlns="http://www.w3.org/2000/svg" viewBox="0 0 826 826"><path fill="#C4E1D4" d="M50.3 710.3c-5.1 2.8-10.8 4.3-16.6 4.1-5.8.1-11.6-1.3-16.6-4.1-2.9-1.6-6.1-2.7-9.5-3.3l54.2 46.6c4.6 4 8 9.2 9.7 15l11.4 38.6c.9 2.9 3.6 5 6.6 5h647c3.1 0 5.8-2 6.6-5l11.4-38.6c1.7-5.8 5.1-11.1 9.7-15l54.3-46.6c-3.3.6-6.5 1.7-9.5 3.3-10.4 5.5-22.9 5.5-33.4 0-4.6-2.6-9.7-3.8-14.9-3.7h-2.1c-.7 0-1.4.1-2.1.2-.7.1-1.5.2-2.2.3-3 .6-5.9 1.7-8.6 3.2-10.4 5.5-22.9 5.5-33.4 0-9.3-4.9-20.5-4.9-29.9 0-10.4 5.5-22.9 5.5-33.4 0-1.4-.7-2.7-1.4-4.3-2-.6-.2-1.2-.4-1.9-.6-.7-.2-1.3-.4-2-.5-2.3-.4-4.6-.7-6.9-.6-5.2-.1-10.4 1.1-14.9 3.7-10.4 5.5-22.9 5.5-33.3 0-9.3-4.9-20.5-4.9-29.9 0-10.4 5.5-22.9 5.5-33.3 0-9.3-4.9-20.5-4.9-29.9 0-10.4 5.5-22.9 5.5-33.3 0-9.3-4.9-20.5-4.9-29.9 0-10.4 5.5-22.9 5.5-33.3 0-9.3-4.9-20.5-4.9-29.9 0-10.4 5.5-22.9 5.5-33.3 0-9.3-4.9-20.5-4.9-29.9 0-10.4 5.5-22.9 5.5-33.3 0-9.3-4.9-20.5-4.9-29.9 0-10.4 5.5-22.9 5.5-33.3 0-4.6-2.6-9.7-3.8-14.9-3.7-2.3 0-4.5.2-6.8.6-.7.1-1.3.3-2 .5-.6.2-1.3.4-1.9.6-1.5.6-2.9 1.3-4.3 2-10.4 5.5-22.9 5.5-33.3 0-4.6-2.6-9.7-3.8-14.9-3.7-5.2-.1-10.3 1.2-14.9 3.7-5.1 2.8-10.8 4.3-16.6 4.1-5.8.1-11.6-1.3-16.6-4.1-2.7-1.5-5.6-2.5-8.6-3.2-.7-.1-1.4-.2-2.2-.3-.8-.1-1.5-.2-2.3-.2s-1.4-.1-2.1-.1c-5.1-.1-10.2 1.2-14.8 3.8zM270 789.5h9.8c1.1 0 2 .9 2 2s-.9 2-2 2H270c-1.1 0-2-.9-2-2 .1-1.1 1-2 2-2zm-158.2 0h148.4c1.1 0 2 .9 2 2s-.9 2-2 2H111.8c-1.1 0-2-.9-2-2 .1-1.1 1-2 2-2z"/><path fill="#EDF6F2" d="M413 115.1c-157.6 0-285.7 128.2-285.7 285.8 0 100.6 52.3 189.2 131.1 240.2 2.9.2 5.8.8 8.5 1.8l.2.1c1.6.6 3.1 1.3 4.6 2.1 9.3 4.9 20.5 4.9 29.9 0 1.5-.7 2.9-1.4 4.6-2.1l.2-.1c7.7-2.6 16.1-2.6 23.8 0l.2.1c1.6.6 3.1 1.3 4.6 2.1 9.3 4.9 20.5 4.9 29.9 0 1.4-.7 2.9-1.4 4.6-2.1l.2-.1c7.7-2.6 16.1-2.6 23.8 0l.3.1c1.6.6 3.1 1.4 4.5 2.1 9.3 4.9 20.5 4.9 29.9 0 1.5-.8 3-1.4 4.5-2.1l.3-.1c7.7-2.6 16.1-2.6 23.8 0l.3.1c1.6.6 3.1 1.4 4.5 2.1 9.3 4.9 20.5 4.9 29.9 0 1.4-.7 2.9-1.4 4.5-2l.3-.1c7.7-2.6 16.1-2.6 23.8 0l.3.1c1.6.6 3 1.3 4.5 2 9.3 4.9 20.5 4.9 29.9 0 1.4-.7 2.8-1.4 4.4-2l.4-.1c2.7-1 5.6-1.6 8.6-1.8 78.7-50.9 131-139.6 131-240.2-.4-157.6-128.6-285.9-286.2-285.9zM159.6 333.5c-1.6 5.6-2.3 9-3.4 14.2l-.6 2.7c-.2.9-1 1.6-2 1.6h-.4c-1.1-.2-1.7-1.2-1.5-2.3l.5-2.7c1.1-5.3 1.8-8.8 3.4-14.6.3-1.1 1.4-1.7 2.4-1.4s1.9 1.4 1.6 2.5zm51.1-96c-2.4 2.8-4.7 5.7-7 8.6a248.23 248.23 0 00-37.3 66.9c-1.3 3.5-2.5 6.9-3.6 10.5-.3.8-1 1.4-1.9 1.4-.2 0-.4 0-.6-.1-1-.3-1.6-1.4-1.3-2.5 10.3-32 26.9-61.7 48.7-87.3.7-.8 1.9-.9 2.8-.2.8.6.9 1.9.2 2.7z"/><path fill="#DCEDE5" d="M77.1 704.6c.4.1.8.3 1.1.5 1.3.5 2.5 1.1 3.6 1.7 4.6 2.6 9.7 3.8 14.9 3.7 5.2.1 10.4-1.1 14.9-3.7 1.2-.6 2.4-1.2 3.6-1.7.4-.2.8-.3 1.1-.5 3.8-1.4 7.8-2.1 11.9-2 4.1-.1 8.1.6 11.9 2 .4.1.8.3 1.2.5 1.3.5 2.5 1.1 3.6 1.7 9.3 4.9 20.5 4.9 29.9 0 1.2-.6 2.4-1.2 3.6-1.7l.3-.1.9-.4 1-.4c.6-.2 1.3-.4 2-.6 2.9-.7 5.9-1 8.9-1 4.1-.1 8.1.6 11.9 2 .4.1.8.3 1.2.5 1.3.5 2.5 1.1 3.6 1.7 9.3 4.9 20.5 4.9 29.9 0 1.2-.6 2.4-1.2 3.6-1.7.4-.2.8-.3 1.1-.5 7.7-2.6 16.1-2.6 23.8 0 .4.1.8.3 1.2.5 1.3.5 2.5 1.1 3.6 1.7 9.3 4.9 20.5 4.9 29.9 0 1.2-.6 2.4-1.2 3.6-1.7.4-.2.8-.3 1.1-.5 7.7-2.6 16.1-2.6 23.8 0 .4.1.8.3 1.1.5 1.3.5 2.5 1.1 3.6 1.7 9.3 4.9 20.5 4.9 29.9 0 1.2-.6 2.3-1.2 3.6-1.7.4-.2.8-.3 1.2-.5 7.7-2.6 16.1-2.6 23.8 0l1.2.5c1.3.5 2.5 1.1 3.6 1.7 9.3 4.9 20.5 4.9 29.9 0 1.2-.6 2.4-1.2 3.6-1.7.4-.2.8-.3 1.1-.5 7.7-2.6 16.1-2.6 23.8 0 .4.1.8.3 1.1.5 1.3.5 2.5 1.1 3.6 1.7 9.3 4.9 20.5 4.9 29.9 0 1.2-.6 2.3-1.2 3.6-1.7l1.2-.5c7.7-2.6 16.1-2.6 23.8 0 .4.1.8.3 1.2.5 1.3.5 2.5 1.1 3.6 1.7 9.3 4.9 20.5 4.9 29.9 0 1.2-.6 2.3-1.2 3.6-1.7l1.2-.5c7.7-2.6 16.1-2.6 23.8 0l1.2.5c1.3.5 2.5 1.1 3.6 1.7 9.3 4.9 20.5 4.9 29.9 0 1.2-.6 2.3-1.2 3.6-1.7.4-.2.8-.3 1.1-.5 3.8-1.4 7.8-2.1 11.9-2 3-.1 6 .3 8.9 1 .7.2 1.4.4 2 .6l1 .4 1 .4.2.1c1.3.5 2.5 1.1 3.6 1.7 9.3 4.9 20.5 4.9 29.9 0 1.2-.6 2.3-1.2 3.6-1.7.4-.2.8-.3 1.1-.5 7.7-2.6 16.1-2.6 23.8 0 .4.1.8.3 1.1.5 1.3.5 2.5 1.1 3.6 1.7 9.3 4.9 20.5 4.9 29.9 0 1.2-.6 2.3-1.2 3.6-1.7.4-.2.8-.3 1.2-.5 2.3-.9 4.7-1.4 7.1-1.7 1.9-4.3 4.7-8.2 8.3-11.2l53.9-46.3c-3.2.6-6.3 1.7-9.1 3.3-10.4 5.5-22.9 5.5-33.4 0-9.3-4.9-20.5-4.9-29.9 0-10.4 5.5-22.9 5.5-33.4 0l-1.7-.8c-.6-.3-1.2-.6-1.8-.8s-1.2-.5-1.8-.7c-3.1-1-6.4-1.5-9.6-1.4-5.2-.1-10.4 1.1-14.9 3.7-10.4 5.5-22.9 5.5-33.4 0-9.3-4.9-20.5-4.9-29.9 0-10.4 5.5-22.9 5.5-33.4 0-4.6-2.6-9.7-3.8-14.9-3.7h-1.7c-4.6.1-9.2 1.4-13.2 3.7-1.2.6-2.4 1.2-3.7 1.7-4.1 1.7-8.5 2.5-12.9 2.4-5.8.1-11.6-1.3-16.6-4.1-9.3-4.9-20.5-4.9-29.9 0-10.4 5.5-22.9 5.5-33.3 0-9.3-4.9-20.5-4.9-29.9 0-10.4 5.5-22.9 5.5-33.3 0-9.3-4.9-20.5-4.9-29.9 0-10.4 5.5-22.9 5.5-33.3 0-9.3-4.9-20.5-4.9-29.9 0-5.1 2.8-10.8 4.3-16.6 4.1-4.4.1-8.7-.7-12.7-2.3-1.4-.6-2.7-1.2-4-1.8-4-2.2-8.6-3.5-13.2-3.6h-1.8c-5.2-.1-10.4 1.1-14.9 3.7-10.4 5.5-22.9 5.5-33.3 0-9.3-4.9-20.5-4.9-29.9 0-10.4 5.5-22.9 5.5-33.3 0-4.6-2.6-9.7-3.8-14.9-3.7-3.2-.1-6.5.4-9.6 1.4-.6.2-1.3.5-1.8.7-.6.2-1.2.5-1.8.8l-1.7.8c-5.1 2.8-10.8 4.3-16.6 4.1-5.8.1-11.6-1.3-16.6-4.1-4.6-2.6-9.7-3.8-14.9-3.7-5.2-.1-10.4 1.1-14.9 3.7-5.1 2.8-10.8 4.3-16.6 4.1-5.8.1-11.6-1.3-16.6-4.1-2.8-1.6-5.9-2.7-9.1-3.3l53.9 46.3c3.6 3.1 6.4 6.9 8.3 11.2 2.2.3 4.5.8 6.7 1.6zm538.8-42.8h148.4c1.1 0 2 .9 2 2s-.9 2-2 2H615.9c-1.1 0-2-.9-2-2s.9-2 2-2zm-19.6 0h9.8c1.1 0 2 .9 2 2s-.9 2-2 2h-9.8c-1.1 0-2-.9-2-2s.9-2 2-2z"/><path fill="#D3E8DF" d="M128.5 641c4.1-.1 8.1.6 11.9 2h.1c1.7.7 3.2 1.4 4.7 2.1 9.3 4.9 20.5 4.9 29.9 0 1.5-.7 2.9-1.5 4.7-2.1h.1c7.7-2.6 16.1-2.6 23.8 0h.1c1.6.6 3.1 1.3 4.6 2.1 9.3 4.9 20.5 4.9 29.9 0 1.5-.7 2.9-1.5 4.6-2.1l.1-.1c2.6-1 5.2-1.6 8-1.8-15.4-10.4-29.7-22.2-42.8-35.3C95 492.7 95 309.3 208.2 196.1s296.6-113.1 409.7 0c113.1 113.1 113.1 296.6 0 409.7-13.1 13.1-27.5 25-42.8 35.4 2.7.2 5.4.8 7.9 1.8l.4.1c1.6.6 3 1.3 4.4 2 9.3 4.9 20.5 4.9 29.9 0 1.4-.7 2.8-1.4 4.4-2l.4-.2c7.7-2.6 16.1-2.6 23.8 0l.4.2c1.6.6 2.9 1.3 4.4 2 9.3 4.9 20.5 4.9 29.9 0 1.4-.7 2.8-1.4 4.4-2l.4-.2c3.8-1.4 7.8-2.1 11.9-2 3.6-.1 7.2.4 10.6 1.5.7-2.7 1.9-5.3 3.5-7.6 2.6-3.3 6.6-5.3 10.5-7.3 3.9-2 7.5-3.8 9.5-6.7 2-2.9 2.4-7 2.9-11.3.5-4.3 1-8.8 3.1-12.4 2.1-3.6 5.9-6.1 9.5-8.5s7-4.7 8.7-7.8c1.6-3.1 1.6-7.2 1.5-11.5s-.1-8.9 1.6-12.7c1.7-3.8 5.1-6.7 8.4-9.6s6.4-5.5 7.7-8.8c1.2-3.3.7-7.3.1-11.6s-1.2-8.8.1-12.8 4.3-7.3 7.2-10.5 5.7-6.3 6.5-9.7-.2-7.3-1.3-11.5-2.3-8.6-1.5-12.7c.8-4.1 3.3-7.8 5.9-11.3s4.9-6.9 5.3-10.4-1.1-7.2-2.7-11.3-3.3-8.3-3-12.5c.2-4.2 2.4-8.1 4.5-11.9 2.1-3.8 4.1-7.5 4.1-11s-2-7.2-4.1-11c-2.1-3.8-4.2-7.8-4.5-11.9s1.4-8.4 3-12.5 3.1-7.8 2.7-11.3-2.8-6.9-5.3-10.4-5.1-7.2-5.9-11.3c-.8-4.1.4-8.5 1.5-12.7 1.1-4.2 2.1-8.2 1.3-11.5-.8-3.4-3.6-6.5-6.5-9.7s-5.9-6.5-7.2-10.5c-1.2-4-.6-8.5-.1-12.8.6-4.3 1.1-8.4-.1-11.6-1.2-3.2-4.4-6-7.7-8.8s-6.7-5.8-8.4-9.6c-1.7-3.8-1.7-8.3-1.6-12.7s.1-8.4-1.5-11.5c-1.6-3.1-5.1-5.4-8.7-7.8-3.6-2.4-7.4-4.9-9.5-8.5-2.2-3.6-2.7-8.1-3.1-12.4s-.9-8.4-2.9-11.3c-2-2.9-5.7-4.7-9.5-6.7-3.9-2-7.9-4-10.5-7.3-2.6-3.3-3.6-7.7-4.6-11.9-1-4.2-2-8.2-4.2-10.8-2.3-2.6-6.2-4-10.3-5.5s-8.3-3-11.3-6-4.5-7.2-6-11.3c-1.5-4.1-2.9-7.9-5.5-10.3-2.6-2.3-6.6-3.2-10.9-4.2-4.2-1-8.6-2-11.9-4.6-3.3-2.6-5.3-6.6-7.3-10.5-2-3.9-3.8-7.7-6.7-9.6-2.9-2-6.9-2.4-11.3-2.9-4.3-.5-8.8-1-12.4-3.1s-6.1-5.9-8.5-9.5c-2.4-3.7-4.7-7-7.8-8.7s-7.2-1.6-11.5-1.5c-4.3.1-8.9.1-12.7-1.6-3.8-1.7-6.7-5.1-9.6-8.4-2.8-3.3-5.5-6.4-8.8-7.7-3.3-1.2-7.3-.7-11.6-.1s-8.8 1.2-12.8-.1-7.3-4.3-10.5-7.2-6.3-5.7-9.7-6.5c-3.4-.8-7.3.2-11.5 1.3s-8.6 2.3-12.7 1.5c-4.1-.8-7.8-3.3-11.3-5.9-3.5-2.5-6.9-4.9-10.4-5.3-3.5-.4-7.2 1.2-11.3 2.7s-8.3 3.3-12.5 3c-4.2-.3-8.1-2.4-11.9-4.5-3.8-2.1-7.5-4.1-11-4.1s-7.2 2-11 4.1c-3.8 2.1-7.8 4.2-11.9 4.5-4.1.3-8.4-1.4-12.5-3s-7.8-3.1-11.3-2.7c-3.4.4-6.9 2.8-10.4 5.3s-7.2 5.1-11.3 5.9-8.5-.4-12.7-1.5c-4.2-1.1-8.1-2.1-11.5-1.3-3.4.8-6.5 3.6-9.7 6.5-3.2 2.9-6.5 5.9-10.5 7.2-4 1.2-8.5.6-12.8.1-4.3-.6-8.4-1.1-11.6.1-3.2 1.2-6 4.4-8.8 7.7-2.8 3.3-5.8 6.7-9.6 8.4-3.8 1.7-8.3 1.7-12.7 1.6s-8.4-.1-11.5 1.5-5.4 5-7.8 8.7c-2.4 3.6-4.9 7.4-8.5 9.5-3.6 2.2-8.1 2.7-12.4 3.1s-8.4.9-11.3 2.9-4.7 5.7-6.7 9.5c-2 3.9-4 7.9-7.3 10.5s-7.7 3.6-11.9 4.6c-4.2 1-8.2 2-10.8 4.2s-4 6.1-5.5 10.2-3 8.3-6 11.3-7.2 4.5-11.3 6c-4.1 1.5-7.9 2.9-10.3 5.5-2.3 2.6-3.2 6.6-4.2 10.8-1 4.2-2 8.6-4.6 11.9-2.6 3.3-6.6 5.3-10.5 7.3-3.9 2-7.5 3.8-9.5 6.7-2 2.9-2.4 7-2.9 11.3-.5 4.3-1 8.8-3.1 12.4-2.1 3.6-5.9 6.1-9.5 8.5-3.7 2.4-7 4.7-8.7 7.8-1.6 3.1-1.6 7.2-1.5 11.5.1 4.3.1 8.9-1.6 12.7-1.7 3.8-5.1 6.7-8.4 9.6-3.3 2.8-6.4 5.5-7.7 8.8-1.2 3.3-.7 7.3-.1 11.6s1.2 8.8-.1 12.8-4.3 7.3-7.2 10.5-5.7 6.3-6.5 9.7.2 7.3 1.3 11.5 2.3 8.6 1.5 12.7-3.3 7.8-5.9 11.3c-2.5 3.5-4.9 6.9-5.3 10.4s1.1 7.2 2.7 11.3c1.6 4 3.3 8.3 3 12.5-.2 4.2-2.4 8.1-4.5 11.9-2.1 3.8-4.1 7.5-4.1 11s2 7.2 4.1 11c2.1 3.8 4.2 7.8 4.5 11.9s-1.4 8.4-3 12.5-3.1 7.8-2.7 11.3c.4 3.4 2.8 6.9 5.3 10.4 2.5 3.6 5.1 7.2 5.9 11.3s-.4 8.5-1.5 12.7c-1.1 4.2-2.1 8.2-1.3 11.5.8 3.4 3.6 6.5 6.5 9.7 2.9 3.2 5.9 6.5 7.2 10.5 1.2 4 .6 8.5.1 12.8s-1.1 8.4.1 11.6c1.2 3.2 4.4 6 7.7 8.8 3.3 2.8 6.7 5.8 8.4 9.6 1.7 3.8 1.7 8.3 1.6 12.7-.1 4.4-.1 8.4 1.5 11.5 1.6 3.1 5.1 5.4 8.7 7.8 3.6 2.4 7.4 4.9 9.5 8.5s2.7 8.1 3.1 12.4c.5 4.3.9 8.4 2.9 11.3s5.7 4.7 9.5 6.7c3.9 2 7.9 4 10.5 7.3 1.7 2.3 2.8 4.9 3.5 7.6 2.9-.8 6.5-1.3 10.1-1.2z"/><path d="M207.7 235c-21.9 25.6-38.4 55.3-48.7 87.3-.3 1 .2 2.1 1.3 2.5.2.1.4.1.6.1.9 0 1.6-.5 1.9-1.4 1.1-3.5 2.4-7 3.6-10.5 8.9-24.1 21.5-46.6 37.3-66.9 2.3-2.9 4.6-5.8 7-8.6.7-.8.6-2.1-.2-2.8-.8-.7-2.1-.6-2.8.3zm-49.5 96.1c-1-.3-2.1.3-2.4 1.3-1.7 5.8-2.4 9.3-3.4 14.6l-.5 2.7c-.2 1.1.5 2.1 1.5 2.3h.4c.9 0 1.8-.6 2-1.6l.5-2.7c1-5.2 1.7-8.6 3.4-14.2.2-1.1-.4-2.1-1.5-2.4zm457.7 334.7h148.4c1.1 0 2-.9 2-2s-.9-2-2-2H615.9c-1.1 0-2 .9-2 2s.9 2 2 2zm-19.6 0h9.8c1.1 0 2-.9 2-2s-.9-2-2-2h-9.8c-1.1 0-2 .9-2 2s.9 2 2 2zM111.8 793.5h148.4c1.1 0 2-.9 2-2s-.9-2-2-2H111.8c-1.1 0-2 .9-2 2 .1 1.1 1 2 2 2zm158.2 0h9.8c1.1 0 2-.9 2-2s-.9-2-2-2H270c-1.1 0-2 .9-2 2 .1 1.1 1 2 2 2z"/><path d="M53.4 704.6c-.4.1-.8.3-1.2.5-1.3.5-2.5 1.1-3.6 1.7-4.6 2.6-9.7 3.8-14.9 3.7-5.2.1-10.4-1.1-15-3.7-1.2-.6-2.3-1.2-3.6-1.7-.4-.2-.8-.3-1.1-.5-3.8-1.4-7.8-2.1-11.9-2-1.1 0-2 .9-2 2 0 .4.2.9.4 1.2.1.3.3.5.5.8l58.2 50c4.1 3.5 7 8.1 8.5 13.2l11.4 38.6c1.4 4.6 5.6 7.8 10.4 7.8h647c4.8 0 9-3.2 10.4-7.8l11.4-38.6c1.5-5.1 4.5-9.7 8.5-13.2l58.2-50c.5-.5.8-1.2 1-2 0-1.1-.9-2-2-2-4.1-.1-8.1.6-11.9 2-.4.1-.8.3-1.2.5-1.3.5-2.5 1.1-3.6 1.7-9.3 4.9-20.5 4.9-29.9 0-1.2-.6-2.3-1.2-3.6-1.7-.4-.2-.8-.3-1.2-.5-3.8-1.4-7.8-2.1-11.9-2h-.4c1.6-3 3.8-5.7 6.4-8l58.2-50c.6-.4.9-1 .9-1.6 0-1.1-.9-2-2-2-4.1-.1-8.1.6-11.9 2l-.5.2c-1.5.6-2.9 1.3-4.3 2-9.3 4.9-20.5 4.9-29.9 0-1.4-.7-2.7-1.4-4.3-2l-.5-.2c-7.7-2.6-16.1-2.6-23.8 0l-.5.2c-1.6.6-2.9 1.3-4.3 2-9.3 4.9-20.5 4.9-29.9 0l-2.4-1.2c-.6-.3-1.2-.5-1.8-.8h-.1l-.5-.2h2.6c.5-2 1.4-4 2.7-5.7 2.1-2.6 5.5-4.4 9.2-6.2 4.1-2.1 8.4-4.3 11-8 2.6-3.7 3.1-8.5 3.6-13.1.4-4.1.9-8 2.6-10.8 1.7-2.8 4.9-5 8.4-7.3 3.9-2.6 7.8-5.3 10-9.2 2.1-4 2-8.8 2-13.4-.1-4.1-.1-8 1.3-11.1 1.4-3 4.3-5.5 7.4-8.2 3.5-3 7.2-6.2 8.8-10.4 1.6-4.2 1-8.9.3-13.5-.5-4.1-1.1-7.9-.1-11.1 1-3.2 3.6-6 6.3-9 3.1-3.4 6.4-7 7.5-11.4s-.2-9-1.3-13.5c-1-4-2-7.8-1.4-11.1.6-3.3 2.8-6.4 5.2-9.8 2.7-3.8 5.5-7.7 6-12.2.5-4.5-1.2-8.9-2.9-13.2-1.5-3.8-2.9-7.5-2.8-10.8.2-3.4 2-6.7 4-10.3 2.2-4.1 4.5-8.3 4.5-12.9 0-4.5-2.3-8.8-4.5-12.9-2-3.6-3.8-7-4-10.3-.2-3.3 1.2-7 2.8-10.8 1.7-4.3 3.5-8.7 2.9-13.2-.5-4.4-3.3-8.4-6-12.2-2.4-3.3-4.6-6.5-5.2-9.7-.6-3.2.4-7.1 1.4-11.1 1.2-4.5 2.4-9.1 1.3-13.5-1.1-4.3-4.3-7.9-7.5-11.4-2.8-3-5.4-5.9-6.4-9s-.5-7.1.1-11.1c.6-4.6 1.3-9.3-.3-13.5-1.6-4.2-5.2-7.4-8.8-10.4-3.1-2.7-6-5.2-7.4-8.2-1.4-3-1.3-6.9-1.3-11 .1-4.6.1-9.4-2-13.4s-6.1-6.7-10-9.2c-3.4-2.3-6.6-4.4-8.4-7.3-1.7-2.8-2.2-6.7-2.6-10.8-.5-4.6-1-9.4-3.6-13.1-2.6-3.7-6.9-5.9-11-8-3.7-1.8-7.1-3.6-9.2-6.2-2.1-2.6-2.9-6.4-3.9-10.4-1-4.5-2.1-9.2-5.1-12.6-3-3.4-7.5-5-11.9-6.6-3.9-1.4-7.5-2.7-9.9-5.1-2.3-2.4-3.7-6-5.1-9.9-1.6-4.4-3.2-8.9-6.6-11.9-3.4-3-8-4.1-12.6-5.1-4-1-7.8-1.8-10.4-3.9-2.6-2.1-4.4-5.5-6.2-9.2-2.1-4.1-4.3-8.4-8-11-3.7-2.6-8.5-3.1-13.1-3.6-4.1-.4-8-.9-10.8-2.6-2.8-1.7-5-4.9-7.3-8.4-2.6-3.9-5.3-7.8-9.2-10-4-2.1-8.8-2-13.4-2-4.1.1-8 .1-11.1-1.3-3-1.4-5.5-4.3-8.2-7.4-3-3.5-6.2-7.2-10.4-8.8-4.2-1.6-8.9-1-13.5-.3-4.1.5-7.9 1.1-11.1.1-3.2-1-6-3.6-9-6.4-3.4-3.1-7-6.4-11.4-7.5s-9 .2-13.5 1.3c-4 1.1-7.7 2.1-11 1.4-3.3-.6-6.4-2.8-9.7-5.2-3.8-2.7-7.7-5.5-12.2-6-4.5-.5-8.9 1.2-13.2 2.9-3.8 1.5-7.5 2.9-10.8 2.8-3.4-.2-6.7-2-10.3-4-4.1-2.2-8.3-4.5-12.9-4.5s-8.8 2.3-12.9 4.5c-3.6 2-7 3.8-10.3 4-3.3.2-7-1.2-10.8-2.8-4.3-1.7-8.8-3.5-13.2-2.9-4.4.5-8.4 3.3-12.2 6-3.3 2.4-6.5 4.6-9.7 5.2-3.2.6-7.1-.4-11.1-1.4-4.5-1.2-9.1-2.4-13.5-1.3-4.3 1.1-7.9 4.3-11.4 7.5-3 2.8-5.9 5.4-9 6.4-3.2 1-7.1.5-11.1-.1-4.6-.6-9.3-1.3-13.5.3s-7.4 5.2-10.4 8.8c-2.7 3.1-5.2 6-8.2 7.4-3 1.4-6.9 1.3-11 1.3-4.6-.1-9.4-.1-13.4 2s-6.7 6.1-9.2 10c-2.3 3.4-4.4 6.6-7.3 8.4s-6.7 2.2-10.8 2.6c-4.6.5-9.4 1-13.1 3.6-3.7 2.6-5.9 6.9-8 11-1.8 3.7-3.6 7.1-6.2 9.2s-6.4 2.9-10.4 3.9c-4.5 1-9.2 2.1-12.6 5.1-3.4 3-5 7.5-6.6 11.9-1.4 3.9-2.7 7.5-5.1 9.9-2.4 2.3-6 3.6-10 5-4.4 1.6-8.9 3.2-11.9 6.6s-4.1 8-5.1 12.6c-.9 4-1.8 7.8-3.9 10.4-2.1 2.6-5.5 4.4-9.2 6.2-4.1 2.1-8.4 4.3-11 8-2.6 3.7-3 8.5-3.6 13.1-.4 4.1-.9 8-2.6 10.8-1.7 2.9-4.9 5-8.4 7.3-3.9 2.6-7.8 5.3-10 9.2s-2 8.8-2 13.4c.1 4.1.1 8-1.3 11.1s-4.3 5.5-7.4 8.2c-3.5 3-7.2 6.2-8.8 10.4-1.6 4.2-1 8.9-.3 13.5.5 4.1 1.1 7.9.1 11.1-1 3.2-3.6 6-6.3 9-3.1 3.4-6.4 7-7.4 11.4s.2 9 1.3 13.5c1 4 2 7.8 1.4 11.1-.6 3.3-2.8 6.4-5.2 9.7-2.7 3.8-5.5 7.7-6 12.2s1.2 8.9 2.9 13.2c1.5 3.8 2.9 7.5 2.8 10.8-.2 3.4-2 6.6-4 10.2-2.2 4.1-4.5 8.3-4.5 12.9 0 4.5 2.3 8.8 4.5 12.9 2 3.6 3.8 7 4 10.3.2 3.3-1.2 7-2.8 10.8-1.7 4.3-3.5 8.7-2.9 13.2.5 4.4 3.3 8.4 6 12.2 2.4 3.3 4.6 6.5 5.2 9.8.6 3.3-.4 7.1-1.4 11.1-1.2 4.5-2.4 9.1-1.3 13.5 1.1 4.3 4.3 7.9 7.5 11.4 2.8 3 5.4 5.9 6.4 9 1 3.2.5 7.1-.1 11.1-.6 4.6-1.3 9.3.3 13.5 1.6 4.2 5.2 7.4 8.8 10.4 3.1 2.7 6 5.2 7.4 8.2 1.4 3 1.3 6.9 1.3 11-.1 4.6-.1 9.4 2 13.4s6.1 6.7 10 9.2c3.4 2.3 6.6 4.4 8.4 7.3 1.7 2.8 2.2 6.7 2.6 10.8.5 4.6 1 9.4 3.6 13.1s6.9 5.9 11 8c3.7 1.8 7.1 3.6 9.2 6.2 1.2 1.7 2.1 3.6 2.7 5.7h2.6-.1l-.4.2c-.6.2-1.2.5-1.8.8-.9.4-1.7.8-2.5 1.2-4.6 2.6-9.7 3.8-14.9 3.7-5.2.1-10.4-1.1-14.9-3.7-1.6-.8-3.2-1.5-4.8-2.1-3.8-1.4-7.8-2.1-11.9-2-4.1-.1-8.1.6-11.9 2-1.6.6-3.2 1.4-4.7 2.2-4.6 2.6-9.7 3.8-14.9 3.7-5.3.1-10.5-1.2-15.1-3.8-1.6-.8-3.1-1.5-4.8-2.2-3.8-1.4-7.8-2.1-11.9-2h.2-.2l-.2.1-.2.1c-.1 0-.1.1-.2.1l-.2.1-.1.1c-.1 0-.1.1-.1.1l-.1.1-.1.2v.3c0 .1-.1.1-.1.2l-.1.2v1l.1.2c0 .1 0 .1.1.2 0 .1.1.1.1.2l.1.2.1.1.1.1v.1l58.5 50.2c2.7 2.2 4.9 4.9 6.5 8h-.4c-4.1-.1-8.1.5-11.9 1.9zm61-69.7c-2.6-3.3-6.6-5.3-10.5-7.3-3.9-2-7.6-3.8-9.5-6.7-2-2.9-2.4-6.9-2.9-11.3-.5-4.3-1-8.8-3.1-12.4-2.1-3.6-5.9-6.1-9.5-8.5-3.7-2.4-7-4.7-8.7-7.8-1.6-3.1-1.6-7.2-1.5-11.5.1-4.3.1-8.9-1.6-12.7-1.7-3.8-5.1-6.8-8.4-9.6-3.3-2.8-6.4-5.5-7.7-8.8-1.2-3.3-.7-7.3-.1-11.6s1.2-8.8-.1-12.8-4.3-7.3-7.2-10.5-5.7-6.3-6.5-9.7.2-7.3 1.3-11.5 2.3-8.6 1.5-12.7-3.3-7.8-5.9-11.3c-2.5-3.5-4.9-6.9-5.3-10.4s1.1-7.2 2.7-11.3c1.6-4 3.3-8.3 3-12.5-.2-4.2-2.4-8.1-4.5-11.9-2.1-3.8-4.1-7.5-4.1-11s2-7.2 4.1-11c2.1-3.8 4.2-7.8 4.5-11.9.3-4.1-1.4-8.4-3-12.5s-3.1-7.8-2.7-11.3 2.8-6.9 5.3-10.4c2.5-3.6 5.1-7.2 5.9-11.3.8-4.1-.4-8.5-1.5-12.7-1.1-4.2-2.1-8.2-1.3-11.5s3.6-6.5 6.5-9.7 5.9-6.5 7.2-10.5c1.2-4 .6-8.5.1-12.8-.6-4.3-1.1-8.4.1-11.6 1.2-3.3 4.4-6 7.7-8.8 3.3-2.8 6.7-5.8 8.4-9.6 1.7-3.8 1.7-8.3 1.6-12.7-.1-4.4-.1-8.4 1.5-11.5 1.6-3.1 5.1-5.4 8.7-7.8 3.6-2.4 7.4-4.9 9.5-8.5s2.7-8.1 3.1-12.4c.5-4.3.9-8.4 2.9-11.3 2-2.9 5.7-4.7 9.5-6.7 3.9-2 7.9-4 10.5-7.3 2.6-3.3 3.6-7.7 4.6-11.9 1-4.3 2-8.2 4.2-10.8 2.3-2.6 6.2-4 10.3-5.5s8.3-3 11.3-6 4.5-7.2 6-11.3c1.5-4.1 2.9-7.9 5.5-10.3s6.6-3.2 10.8-4.2c4.2-1 8.6-2 11.9-4.6 3.3-2.6 5.3-6.6 7.3-10.5 2-3.9 3.8-7.6 6.7-9.6 2.9-2 6.9-2.4 11.3-2.9s8.8-1 12.4-3.1 6.1-5.9 8.5-9.5c2.4-3.7 4.7-7 7.8-8.7 3.1-1.6 7.2-1.6 11.5-1.5 4.3.1 8.9.1 12.7-1.6 3.8-1.7 6.8-5.1 9.6-8.4 2.8-3.3 5.5-6.4 8.8-7.7 3.3-1.2 7.3-.7 11.6-.1s8.8 1.2 12.8-.1 7.3-4.3 10.5-7.2c3.2-2.9 6.3-5.7 9.7-6.5 3.4-.8 7.3.2 11.5 1.3s8.6 2.3 12.7 1.5 7.8-3.3 11.3-5.9 6.9-4.9 10.4-5.3c3.5-.4 7.3 1.2 11.3 2.7s8.3 3.3 12.5 3c4.2-.3 8.1-2.4 11.9-4.5 3.8-2.1 7.5-4.1 11-4.1s7.2 2 11 4.1c3.8 2.1 7.8 4.2 11.9 4.5 4.1.3 8.4-1.4 12.5-3s7.8-3.1 11.3-2.7c3.4.4 6.9 2.8 10.4 5.3 3.6 2.5 7.2 5.1 11.3 5.9s8.5-.4 12.7-1.5c4.2-1.1 8.2-2.1 11.5-1.3s6.5 3.6 9.7 6.5 6.5 5.9 10.5 7.2c4 1.2 8.5.6 12.8.1 4.3-.6 8.4-1.1 11.6.1 3.3 1.2 6 4.4 8.8 7.7 2.8 3.3 5.8 6.7 9.6 8.4 3.8 1.7 8.3 1.7 12.7 1.6 4.4-.1 8.4-.1 11.5 1.5s5.4 5.1 7.8 8.7c2.4 3.6 4.9 7.4 8.5 9.5s8.1 2.7 12.4 3.1c4.3.5 8.4.9 11.3 2.9s4.7 5.7 6.7 9.5c2 3.9 4 7.9 7.3 10.5 3.3 2.6 7.7 3.6 11.9 4.6s8.2 2 10.9 4.2c2.6 2.3 4 6.2 5.5 10.3 1.5 4.1 3 8.3 6 11.3s7.2 4.5 11.3 6c4.1 1.5 7.9 2.9 10.3 5.5 2.3 2.6 3.2 6.6 4.2 10.8s2 8.6 4.6 11.9c2.6 3.3 6.6 5.3 10.5 7.2 3.9 2 7.6 3.8 9.5 6.7 2 2.9 2.4 6.9 2.9 11.3.5 4.3 1 8.8 3.1 12.4 2.1 3.6 5.9 6.1 9.5 8.5 3.6 2.4 7 4.7 8.7 7.8s1.6 7.2 1.5 11.5-.1 8.9 1.6 12.7 5.1 6.8 8.4 9.6c3.3 2.8 6.4 5.5 7.7 8.8 1.2 3.3.7 7.3.1 11.6s-1.2 8.8.1 12.8 4.3 7.3 7.2 10.5 5.7 6.3 6.5 9.7-.2 7.3-1.3 11.5-2.3 8.6-1.5 12.7c.8 4.1 3.3 7.8 5.9 11.3 2.5 3.5 4.9 6.9 5.3 10.4s-1.1 7.2-2.7 11.3-3.3 8.3-3 12.5c.2 4.2 2.4 8.1 4.5 11.9 2.1 3.8 4.1 7.5 4.1 11s-2 7.2-4.1 11c-2.1 3.8-4.2 7.8-4.5 11.9s1.4 8.4 3 12.5 3.1 7.8 2.7 11.3c-.4 3.4-2.8 6.9-5.3 10.4s-5.1 7.2-5.9 11.3c-.8 4.1.4 8.5 1.5 12.7 1.1 4.2 2.1 8.2 1.3 11.5-.8 3.4-3.6 6.5-6.5 9.7-2.9 3.2-5.9 6.5-7.2 10.5-1.2 4-.6 8.5-.1 12.8.6 4.3 1.1 8.4-.1 11.6-1.2 3.3-4.4 6-7.7 8.8s-6.7 5.8-8.4 9.6-1.7 8.3-1.6 12.7c.1 4.4.1 8.4-1.5 11.5s-5.1 5.4-8.7 7.8c-3.6 2.4-7.4 4.9-9.5 8.5s-2.7 8.1-3.1 12.4-.9 8.4-2.9 11.3c-2 2.9-5.7 4.7-9.5 6.7-3.9 2-7.9 4-10.5 7.3-1.7 2.3-2.9 4.9-3.5 7.6-3.4-1.1-7-1.6-10.6-1.5-4.1-.1-8.1.6-11.9 2l-.4.2c-1.6.6-2.9 1.3-4.4 2-9.3 4.9-20.5 4.9-29.9 0-1.4-.7-2.8-1.4-4.4-2l-.4-.2c-7.7-2.6-16.1-2.6-23.8 0l-.4.2c-1.6.6-3 1.3-4.4 2-9.3 4.9-20.5 4.9-29.9 0-1.4-.7-2.8-1.4-4.4-2l-.4-.1c-2.5-.9-5.2-1.5-7.9-1.8 15.4-10.4 29.7-22.2 42.8-35.3 113.1-113.1 113.1-296.6 0-409.7s-296.6-113.1-409.7 0C95 309.3 95 492.7 208.2 605.8c13.1 13.1 27.5 25 42.8 35.4-2.7.2-5.4.8-8 1.8l-.1.1c-1.7.6-3.2 1.4-4.6 2.1-9.3 4.9-20.5 4.9-29.9 0-1.5-.8-3.1-1.5-4.6-2.1h-.1c-7.7-2.6-16.1-2.6-23.8 0h-.1c-1.7.7-3.2 1.4-4.7 2.1-9.3 4.9-20.5 4.9-29.9 0-1.5-.7-3-1.5-4.7-2.1h-.1c-3.8-1.4-7.8-2.1-11.9-2-3.6-.1-7.1.4-10.5 1.5-.7-2.8-1.9-5.4-3.6-7.7zm453.3 6.2c-2.9.2-5.8.8-8.6 1.8l-.4.1c-1.6.6-3 1.3-4.4 2-9.3 4.9-20.5 4.9-29.9 0-1.4-.7-2.8-1.4-4.5-2l-.3-.1c-7.7-2.6-16.1-2.6-23.8 0l-.3.1c-1.6.6-3.1 1.3-4.5 2-9.3 4.9-20.5 4.9-29.9 0-1.4-.7-2.9-1.4-4.5-2.1l-.3-.1c-7.7-2.6-16.1-2.6-23.8 0l-.3.1c-1.5.6-3 1.3-4.5 2.1-9.3 4.9-20.5 4.9-29.9 0-1.4-.7-2.9-1.4-4.5-2.1l-.3-.1c-7.7-2.6-16.1-2.6-23.8 0l-.2.1c-1.7.6-3.1 1.4-4.6 2.1-9.3 4.9-20.5 4.9-29.9 0-1.5-.8-3-1.5-4.6-2.1l.1.1c-7.7-2.6-16.1-2.6-23.8 0l-.2.1c-1.7.6-3.1 1.4-4.6 2.1-9.3 4.9-20.5 4.9-29.9 0-1.5-.8-3-1.5-4.6-2.1l-.2-.1c-2.7-1-5.6-1.6-8.5-1.8-78.8-50.9-131-139.6-131-240.2 0-157.6 128.2-285.7 285.8-285.7S698.8 243.4 698.8 401c0 100.6-52.3 189.2-131.1 240.1zM61.8 691.7l-54-46.3c3.2.6 6.3 1.7 9.1 3.3 5.1 2.8 10.8 4.3 16.6 4.1 5.8.1 11.6-1.3 16.6-4.1 4.6-2.6 9.7-3.8 14.9-3.7 5.2-.1 10.4 1.1 14.9 3.7 5.1 2.8 10.8 4.3 16.6 4.1 5.8.1 11.6-1.3 16.6-4.1l1.7-.8c.6-.3 1.2-.6 1.8-.8.6-.3 1.2-.5 1.8-.7 3.1-1 6.3-1.5 9.6-1.4 5.2-.1 10.4 1.1 14.9 3.7 10.4 5.5 22.9 5.5 33.3 0 9.3-4.9 20.5-4.9 29.9 0 10.4 5.5 22.9 5.5 33.3 0 4.6-2.6 9.7-3.8 14.9-3.7h1.8c4.6.1 9.1 1.4 13.2 3.7 1.3.6 2.6 1.3 4 1.8 4 1.6 8.4 2.4 12.7 2.3 5.8.1 11.6-1.3 16.6-4.1 9.3-4.9 20.5-4.9 29.9 0 10.4 5.5 22.9 5.5 33.4 0 9.3-4.9 20.5-4.9 29.9 0 10.4 5.5 22.9 5.5 33.3 0 9.3-4.9 20.5-4.9 29.9 0 10.4 5.5 22.9 5.5 33.3 0 9.3-4.9 20.5-4.9 29.9 0 5.1 2.8 10.8 4.3 16.6 4.1 4.4.1 8.8-.7 12.9-2.4 1.3-.5 2.5-1.1 3.7-1.7 4.1-2.3 8.7-3.5 13.4-3.6h1.7c5.2-.1 10.4 1.1 14.9 3.7 10.4 5.5 22.9 5.5 33.4 0 9.3-4.9 20.5-4.9 29.9 0 10.4 5.5 22.9 5.5 33.4 0 4.6-2.6 9.7-3.8 14.9-3.7 3.3-.1 6.5.4 9.6 1.4.6.2 1.3.5 1.8.7.6.2 1.2.5 1.8.8l1.7.8c10.4 5.5 22.9 5.5 33.4 0 9.3-4.9 20.5-4.9 29.9 0 10.4 5.5 22.9 5.5 33.4 0 2.8-1.6 5.9-2.7 9.1-3.3l-53.9 46.3c-3.6 3.1-6.4 6.9-8.3 11.2-2.4.3-4.8.8-7.1 1.7-.4.1-.8.3-1.2.5-1.3.5-2.5 1.1-3.6 1.7-9.3 4.9-20.5 4.9-29.9 0-1.2-.6-2.4-1.2-3.6-1.7-.4-.2-.8-.3-1.1-.5-7.7-2.6-16.1-2.6-23.8 0-.4.1-.8.3-1.1.5-1.3.5-2.5 1.1-3.6 1.7-9.3 4.9-20.5 4.9-29.9 0-1.2-.6-2.4-1.2-3.6-1.7l-.2-.1-1-.4-1-.4c-.6-.2-1.3-.4-2-.6-2.9-.7-5.9-1-8.9-1-4.1-.1-8.1.6-11.9 2-.4.1-.8.3-1.1.5-1.3.5-2.5 1.1-3.6 1.7-9.3 4.9-20.5 4.9-29.9 0-1.2-.6-2.3-1.2-3.6-1.7l-1.2-.5c-7.7-2.6-16.1-2.6-23.8 0l-1.2.5c-1.3.5-2.5 1.1-3.6 1.7-9.3 4.9-20.5 4.9-29.9 0-1.2-.6-2.3-1.2-3.6-1.7-.4-.2-.8-.3-1.2-.5-7.7-2.6-16.1-2.6-23.8 0l-1.2.5c-1.3.5-2.5 1.1-3.6 1.7-9.3 4.9-20.5 4.9-29.9 0-1.2-.6-2.4-1.2-3.6-1.7-.4-.2-.8-.3-1.1-.5-7.7-2.6-16.1-2.6-23.8 0-.4.1-.8.3-1.1.5-1.3.5-2.5 1.1-3.6 1.7-9.3 4.9-20.5 4.9-29.9 0-1.2-.6-2.3-1.2-3.6-1.7l-1.2-.5c-7.7-2.6-16.1-2.6-23.8 0-.4.1-.8.3-1.2.5-1.3.5-2.5 1.1-3.6 1.7-9.3 4.9-20.5 4.9-29.9 0-1.2-.6-2.4-1.2-3.6-1.7-.4-.2-.8-.3-1.1-.5-7.7-2.6-16.1-2.6-23.8 0-.4.1-.8.3-1.1.5-1.3.5-2.5 1.1-3.6 1.7-9.3 4.9-20.5 4.9-29.9 0-1.2-.6-2.3-1.2-3.6-1.7-.4-.2-.8-.3-1.2-.5-7.7-2.6-16.1-2.6-23.8 0-.4.1-.8.3-1.1.5-1.3.5-2.5 1.1-3.6 1.7-9.3 4.9-20.5 4.9-29.9 0-1.2-.6-2.3-1.2-3.6-1.7-.4-.2-.8-.3-1.2-.5-3.8-1.4-7.8-2.1-11.9-2-3-.1-6 .3-8.9 1-.7.2-1.4.4-2 .6l-1 .4-.9.4-.3.1c-1.3.5-2.5 1.1-3.6 1.7-9.3 4.9-20.5 4.9-29.9 0-1.2-.6-2.3-1.2-3.6-1.7-.4-.2-.8-.3-1.2-.5-3.8-1.4-7.8-2.1-11.9-2-4.1-.1-8.1.6-11.9 2-.4.1-.8.3-1.1.5-1.3.5-2.5 1.1-3.6 1.7-4.6 2.6-9.7 3.8-14.9 3.7-5.2.1-10.4-1.1-14.9-3.7-1.2-.6-2.4-1.2-3.6-1.7-.4-.2-.8-.3-1.1-.5-2.3-.8-4.6-1.4-7-1.7-1.8-4.3-4.6-8.2-8.2-11.3zm5.5 14.9c.7 0 1.4.1 2.1.2.7.1 1.5.2 2.2.3 3 .6 5.9 1.7 8.6 3.2 5.1 2.8 10.8 4.3 16.6 4.1 5.8.1 11.6-1.3 16.6-4.1 4.6-2.6 9.7-3.8 14.9-3.7 5.2-.1 10.4 1.1 14.9 3.7 10.4 5.5 22.9 5.5 33.3 0 1.4-.7 2.8-1.4 4.3-2 .6-.2 1.2-.4 1.9-.6.7-.2 1.3-.3 2-.5 2.2-.4 4.5-.7 6.8-.6 5.2-.1 10.4 1.1 14.9 3.7 10.4 5.5 22.9 5.5 33.3 0 9.3-4.9 20.5-4.9 29.9 0 10.4 5.5 22.9 5.5 33.4 0 9.3-4.9 20.5-4.9 29.9 0 10.4 5.5 22.9 5.5 33.3 0 9.3-4.9 20.5-4.9 29.9 0 10.4 5.5 22.9 5.5 33.3 0 9.3-4.9 20.5-4.9 29.9 0 10.4 5.5 22.9 5.5 33.3 0 9.3-4.9 20.5-4.9 29.9 0 10.4 5.5 22.9 5.5 33.4 0 9.3-4.9 20.5-4.9 29.9 0 10.4 5.5 22.9 5.5 33.4 0 4.6-2.6 9.7-3.8 14.9-3.7 2.3 0 4.6.2 6.9.6.7.1 1.3.3 2 .5.6.2 1.3.4 1.9.6 1.5.6 2.9 1.3 4.3 2 10.4 5.5 22.9 5.5 33.4 0 9.3-4.9 20.5-4.9 29.9 0 10.4 5.5 22.9 5.5 33.4 0 2.7-1.5 5.6-2.5 8.6-3.2.7-.1 1.4-.2 2.2-.3s1.4-.1 2.1-.2h2.1c5.2-.1 10.4 1.1 14.9 3.7 10.4 5.5 22.9 5.5 33.4 0 3-1.6 6.2-2.7 9.5-3.3l-54.2 46.6c-4.6 4-8 9.2-9.7 15l-11.4 38.6c-.9 2.9-3.6 5-6.6 5h-647c-3.1 0-5.8-2-6.6-5l-11.4-38.6c-1.7-5.8-5.1-11.1-9.7-15L7.5 707c3.3.6 6.5 1.7 9.5 3.3 5.1 2.8 10.8 4.3 16.6 4.1 5.8.1 11.6-1.3 16.6-4.1 4.6-2.6 9.7-3.8 14.9-3.7h2.2z"/></svg>