<svg xmlns="http://www.w3.org/2000/svg" id="Слой_1" x="0" y="0" version="1.1" viewBox="0 0 826 826" xml:space="preserve"><style>.st0{fill:#F9E5A1}.st1{fill:#E6F1F7}.st2{fill:#F7F4C7}</style><path d="M348.4 347.5h129.3c9.8 0 17.8-7.9 17.8-17.7V299H330.6v30.8c0 9.8 8 17.7 17.8 17.7zM337.2 307c0-1.1.9-1.9 1.9-1.9 1.1 0 1.9.9 1.9 1.9v5.2c0 1.1-.9 1.9-1.9 1.9-1.1 0-1.9-.9-1.9-1.9V307zm0 12.8c0-1.1.9-1.9 1.9-1.9 1.1 0 1.9.9 1.9 1.9v8.9c0 1.1-.9 1.9-1.9 1.9-1.1 0-1.9-.9-1.9-1.9v-8.9z" class="st0"/><path d="M499.3 299.1v30.8c0 11.9-9.7 21.6-21.6 21.6H348.4c-11.9 0-21.6-9.7-21.6-21.6v-30.8h-264c17.7 77.7 73.4 176 159 222.9H604c85.6-46.9 141.3-145.2 159-222.9H499.3z" class="st1"/><path d="M497.4 295.2h275c9.8 0 17.8-8 17.8-17.8v-11.6c0-9.8-8-17.8-17.8-17.8H53.6c-9.8 0-17.8 8-17.8 17.8v11.6c0 9.8 8 17.8 17.8 17.8h443.8z" class="st2"/><path d="M359.1 90.3h107.8c9.8 0 17.8-8 17.7-17.8v-24H341.3v24c0 9.8 8 17.8 17.8 17.8zm-12.5-35.1c0-1.1.9-1.9 1.9-1.9 1.1 0 1.9.9 1.9 1.9v4.6c0 1.1-.9 1.9-1.9 1.9-1.1 0-1.9-.9-1.9-1.9v-4.6zm0 11.2c0-1.1.9-1.9 1.9-1.9 1.1 0 1.9.9 1.9 1.9v7.7c0 1.1-.9 1.9-1.9 1.9-1.1 0-1.9-.9-1.9-1.9v-7.7z" class="st0"/><path d="M488.5 48.5v24c0 12-9.7 21.6-21.6 21.7H359.1c-11.9 0-21.6-9.7-21.6-21.7v-24H107.7c15.5 67.7 64 153.2 138.6 194.1h333.4c74.5-40.8 123-126.3 138.6-194.1H488.5zM505.6 582v34.7c0 11.9-9.7 21.6-21.6 21.6H342c-11.9 0-21.6-9.7-21.6-21.6V582H36.1c21.1 93.1 81.9 183.5 155.5 230.8 9.5 6.1 20.6 9.4 31.9 9.4h379c11.3 0 22.4-3.3 31.9-9.4 73.5-47.2 134.4-137.6 155.5-230.8H505.6z" class="st1"/><path d="M342 634.4h142c9.8 0 17.7-8 17.7-17.8V582H324.2v34.7c0 9.8 8 17.7 17.8 17.7zm-10.4-43.7c0-1.1.9-1.9 1.9-1.9s1.9.9 1.9 1.9v5.6c0 1.1-.9 1.9-1.9 1.9s-1.9-.9-1.9-1.9v-5.6zm0 13.7c0-1.1.9-1.9 1.9-1.9s1.9.9 1.9 1.9v9.6c0 1.1-.9 1.9-1.9 1.9s-1.9-.9-1.9-1.9v-9.6z" class="st0"/><path d="M799.6 526.9H26.3c-10.7 0-19.3 8.7-19.3 19.3v12.5c0 10.7 8.7 19.3 19.3 19.3h773.3c10.7 0 19.3-8.7 19.3-19.3v-12.5c.1-10.6-8.6-19.3-19.3-19.3zm-313-482.2h240c8.5 0 15.3-6.9 15.3-15.3V19.2c0-8.5-6.9-15.3-15.3-15.3H99.4C90.9 3.9 84 10.7 84 19.2v10.1c0 8.5 6.9 15.3 15.3 15.3h387.3z" class="st2"/><path d="M90.7 674.7c-.6-.9-1.8-1.2-2.7-.6-.9.6-1.2 1.8-.6 2.7 1.4 2.3 2.9 4.7 4.4 6.9.3.5.9.8 1.5.9.4 0 .8-.1 1.1-.3.9-.6 1.1-1.8.6-2.7-1.4-2.3-2.8-4.6-4.3-6.9zm-8.2-14.1c-8.2-15-15.1-30.6-20.7-46.7-.4-1-1.5-1.5-2.5-1.1-.9.4-1.4 1.4-1.1 2.3 5.7 16.3 12.7 32.1 21 47.3l4.2 7.5c.3.6.9.9 1.6 1 .4 0 .7-.1 1.1-.3.9-.5 1.2-1.7.7-2.6-1.6-2.5-3-5-4.3-7.4z"/><path d="M799.6 523.1H610.1c37.4-21.5 72.1-54.6 100.5-96.2 26.8-39.2 46.8-84.5 56.5-127.8h5.3c12 0 21.7-9.7 21.7-21.7v-11.6c0-12-9.7-21.7-21.7-21.7H585.1C659 201.7 706.9 116.2 722.2 48.5h4.4c10.6 0 19.2-8.6 19.2-19.2V19.2c0-10.6-8.6-19.2-19.2-19.2H99.4C88.8 0 80.2 8.6 80.2 19.2v10.1c0 10.6 8.6 19.2 19.2 19.2h4.4C119 116.2 167 201.7 240.9 244H53.6c-12 0-21.7 9.7-21.7 21.7v11.6c0 12 9.7 21.7 21.7 21.7h5.3c9.7 43.3 29.8 88.6 56.5 127.8 28.4 41.6 63.1 74.8 100.5 96.2H26.3c-12.8 0-23.2 10.4-23.2 23.2v12.5c0 12.8 10.4 23.2 23.2 23.2h5.8c9.8 43.9 29 88.6 55.3 129.3 28.5 44 63.8 80.2 102 104.7 10.2 6.5 22 10 34 10h378.9c12.1 0 23.9-3.5 34-10 38.2-24.6 73.5-60.8 102-104.7 26.4-40.7 45.5-85.4 55.3-129.3h5.8c12.8 0 23.2-10.4 23.2-23.2v-12.5c.3-12.7-10.1-23.1-23-23.1.1 0 .1 0 0 0zM99.4 44.7c-8.5 0-15.3-6.9-15.3-15.3V19.2c0-8.5 6.9-15.3 15.3-15.3h627.2c8.5 0 15.3 6.9 15.3 15.3v10.1c0 8.5-6.9 15.3-15.3 15.3H99.4zm385.2 3.8v24c0 9.8-7.9 17.8-17.7 17.8H359.1c-9.8 0-17.7-8-17.7-17.8v-24h143.2zm-376.9 0h229.7v24c0 11.9 9.6 21.6 21.6 21.7h107.8c12 0 21.6-9.7 21.6-21.7v-24h229.7c-15.5 67.7-64 153.2-138.6 194.1H246.3c-74.5-40.8-123.1-126.4-138.6-194.1zM53.6 295.2c-9.8 0-17.8-8-17.8-17.8v-11.6c0-9.8 8-17.8 17.8-17.8h718.8c9.8 0 17.8 8 17.8 17.8v11.6c0 9.8-8 17.8-17.8 17.8H53.6zm441.8 3.8v30.8c0 9.8-8 17.7-17.8 17.7H348.4c-9.8 0-17.7-8-17.7-17.7V299h164.7zm-432.6 0h263.9v30.8c0 11.9 9.7 21.6 21.6 21.6h129.3c12 0 21.7-9.7 21.7-21.6V299h263.8c-17.7 77.7-73.4 176-159 222.9H221.9C136.3 475.1 80.6 376.8 62.8 299zm571.6 513.8c-9.5 6.1-20.6 9.4-31.9 9.4h-379c-11.3 0-22.4-3.3-31.9-9.4C118 765.5 57.2 675.1 36.1 582h284.3v34.7c0 11.9 9.7 21.6 21.6 21.6h142c11.9 0 21.6-9.7 21.6-21.6V582h284.3c-21.1 93.1-81.9 183.5-155.5 230.8zM324.2 616.7V582h177.5v34.7c0 9.8-7.9 17.7-17.7 17.8H342c-9.8-.1-17.8-8-17.8-17.8zM819 558.8c0 10.7-8.7 19.3-19.3 19.3H26.3c-10.7 0-19.3-8.7-19.3-19.3v-12.5c0-10.7 8.7-19.3 19.3-19.3h773.3c10.7 0 19.3 8.7 19.3 19.3l.1 12.5z"/><path d="M333.5 598.3c1.1 0 1.9-.9 1.9-1.9v-5.6c0-1.1-.9-1.9-1.9-1.9s-1.9.9-1.9 1.9v5.6c0 1 .9 1.9 1.9 1.9zm0 17.7c1.1 0 1.9-.9 1.9-1.9v-9.6c0-1.1-.9-1.9-1.9-1.9s-1.9.9-1.9 1.9v9.6c0 1 .9 1.9 1.9 1.9zM112.9 385.4c-.5-.9-1.7-1.3-2.6-.8s-1.3 1.7-.8 2.6l.1.1c1.3 2.2 2.6 4.4 3.9 6.5.3.5.9.9 1.5 1 .4 0 .8-.1 1.2-.3.9-.6 1.2-1.7.6-2.7-1.3-2.1-2.6-4.2-3.9-6.4zm-7.3-13.4c-7.2-14.1-13.3-28.8-18.1-43.9-.3-1-1.4-1.6-2.4-1.3-1 .3-1.6 1.4-1.3 2.4v.1c4.9 15.3 11 30.2 18.4 44.5 1.2 2.4 2.5 4.8 3.7 7.1.5.9 1.7 1.3 2.6.8.9-.5 1.3-1.7.8-2.6-1.2-2.4-2.5-4.7-3.7-7.1zm233.5-57.8c1.1 0 1.9-.9 1.9-1.9V307c0-1.1-.9-1.9-1.9-1.9-1.1 0-1.9.9-1.9 1.9v5.2c0 1.1.9 2 1.9 2zm0 16.4c1.1 0 1.9-.9 1.9-1.9v-8.9c0-1.1-.9-1.9-1.9-1.9-1.1 0-1.9.9-1.9 1.9v8.9c0 1.1.9 1.9 1.9 1.9zM152.3 123c-.6-.9-1.8-1.1-2.7-.5-.8.6-1.1 1.7-.6 2.6 1.2 1.9 2.4 3.7 3.6 5.6.6.9 1.8 1.1 2.7.5.9-.6 1.1-1.8.5-2.7-1.2-1.8-2.4-3.7-3.5-5.5zm-3.4-5.4c-1.2-1.9-2.4-4-3.5-5.9-6.8-12-12.7-24.6-17.4-37.5-.4-1-1.5-1.5-2.5-1.2-1 .4-1.5 1.5-1.2 2.5 4.8 13.2 10.8 25.9 17.7 38.1 1.1 2 2.3 4 3.5 6 .6.9 1.7 1.2 2.7.7.9-.6 1.2-1.8.7-2.7zm199.6-55.9c1.1 0 1.9-.9 1.9-1.9v-4.6c0-1.1-.9-1.9-1.9-1.9-1.1 0-1.9.9-1.9 1.9v4.6c0 1.1.9 1.9 1.9 1.9zm0 14.4c1.1 0 1.9-.9 1.9-1.9v-7.7c0-1.1-.9-1.9-1.9-1.9-1.1 0-1.9.9-1.9 1.9v7.7c0 1 .9 1.9 1.9 1.9z"/></svg>