<svg xmlns="http://www.w3.org/2000/svg" viewBox="0 0 826 826"><path fill="#F5F5FA" d="M413 112.9c-157.7 0-286 128.3-286 286 0 100.7 52.4 189.5 131.3 240.4h309.5c78.9-50.9 131.3-139.7 131.3-240.4-.1-157.7-128.4-286-286.1-286zM159.4 331.4c-1.6 5.6-2.3 9-3.4 14.2l-.5 2.7c-.2.9-1 1.6-2 1.6h-.4c-1.1-.2-1.7-1.3-1.5-2.3l.5-2.7c1.1-5.3 1.8-8.8 3.4-14.6.3-1 1.4-1.6 2.4-1.3s1.7 1.4 1.5 2.4c-.1 0-.1 0 0 0zm51.2-96.1c-2.4 2.8-4.7 5.7-7 8.6-15.8 20.3-28.4 42.8-37.4 66.9-1.3 3.5-2.5 6.9-3.6 10.5-.3.8-1 1.4-1.9 1.4-.2 0-.4 0-.6-.1-1-.3-1.6-1.4-1.3-2.5 10.3-32.1 26.9-61.7 48.8-87.3.6-.9 1.8-1.2 2.7-.6.9.6 1.2 1.8.6 2.7-.1.1-.2.3-.3.4zm454 280.3c-4.6 9.7-9.8 19.2-15.6 28.3-.4.6-1 .9-1.7.9-1.1 0-2-.9-2-2 0-.4.1-.7.3-1 5.6-9 10.8-18.3 15.3-27.9.4-1 1.6-1.4 2.6-1 1.1.5 1.5 1.7 1.1 2.7zm3.7-6.8c-.3.7-1 1.2-1.8 1.2-.3 0-.5-.1-.8-.2-1-.4-1.4-1.6-1-2.6 1.3-2.9 2.5-5.8 3.7-8.7.4-1 1.5-1.5 2.5-1.2s1.5 1.5 1.2 2.5c0 .1 0 .1-.1.2-1.2 2.9-2.4 5.9-3.7 8.8z"/><path fill="#E0E2F1" d="M250.9 639.3c-15.4-10.4-29.7-22.3-42.9-35.4-113.2-113.2-113.2-296.8 0-410s296.8-113.2 410 0c113.2 113.2 113.2 296.8 0 410-13.1 13.1-27.5 25-42.9 35.4h136.5c55-68 85-152.9 84.9-240.4 0-211.5-172-383.5-383.5-383.5S29.5 187.4 29.5 398.9c-.1 87.5 29.9 172.4 84.9 240.4h136.5zm-80.1 61.9h585.3c1.9-4.4 4.8-8.3 8.4-11.4l54.2-46.6H7.3l54.2 46.6c3.6 3.1 6.5 7 8.4 11.4h100.9zM616.1 660h148.5c1.1 0 2 .9 2 2s-.9 2-2 2H616.1c-1.1 0-2-.9-2-2s.9-2 2-2zm-19.7 0h9.8c1.1 0 2 .9 2 2s-.9 2-2 2h-9.8c-1.1 0-2-.9-2-2s.9-2 2-2z"/><path fill="#CCCFE7" d="M71.2 766.8l11.4 38.6c.9 2.9 3.6 5 6.6 5h647.5c3.1 0 5.8-2 6.6-5l11.4-38.6c1.7-5.8 5.1-11.1 9.7-15l54.2-46.6H7.3l54.2 46.6c4.6 3.9 8 9.2 9.7 15zm198.7 21h9.8c1.1 0 2 .9 2 2s-.9 2-2 2h-9.8c-1.1 0-2-.9-2-2 .1-1.1.9-2 2-2zm-158.3 0h148.5c1.1 0 2 .9 2 2s-.9 2-2 2H111.6c-1.1 0-2-.9-2-2 .1-1.1 1-2 2-2z"/><path d="M207.6 232.8c-21.9 25.6-38.5 55.3-48.8 87.4-.3 1 .2 2.1 1.3 2.5.2.1.4.1.6.1.8 0 1.6-.6 1.9-1.4 1.1-3.5 2.4-7 3.6-10.5 8.9-24.1 21.6-46.7 37.4-66.9 2.3-2.9 4.6-5.8 7-8.6.8-.7.9-2 .2-2.8-.7-.8-2-.9-2.8-.2l-.4.4zM158 328.9c-1-.3-2.1.3-2.4 1.3-1.7 5.8-2.4 9.3-3.4 14.6l-.5 2.7c-.2 1.1.5 2.1 1.5 2.3h.4c.9 0 1.8-.6 2-1.6l.5-2.7c1-5.2 1.7-8.6 3.4-14.2.2-1-.4-2.1-1.5-2.4zM663.6 513c-1-.5-2.1-.1-2.6.9-4.6 9.6-9.7 18.9-15.3 27.9-.6.9-.3 2.1.6 2.7.3.2.7.3 1 .3.7 0 1.3-.3 1.7-.9 5.7-9.1 10.9-18.6 15.6-28.3.4-.9 0-2.1-1-2.6zm7.4-15.6c-1-.4-2.1.1-2.6 1.1-1.2 2.9-2.4 5.8-3.7 8.7-.4 1 0 2.1 1 2.6.2.1.5.2.8.2.8 0 1.5-.5 1.8-1.2 1.3-2.9 2.6-5.9 3.8-8.8.3-1-.2-2.2-1.1-2.6zm-54.9 166.5h148.5c1.1 0 2-.9 2-2s-.9-2-2-2H616.1c-1.1 0-2 .9-2 2s.9 2 2 2zm-19.7 0h9.8c1.1 0 2-.9 2-2s-.9-2-2-2h-9.8c-1.1 0-2 .9-2 2s.9 2 2 2z"/><path d="M.1 702.5c-.3.8-.1 1.6.6 2.2l58.2 50c4.1 3.5 7 8.1 8.5 13.2l11.4 38.6c1.4 4.6 5.6 7.8 10.4 7.8h647.5c4.8 0 9-3.2 10.4-7.8l11.4-38.6c1.5-5.1 4.5-9.7 8.5-13.2l58.3-50.1c.8-.7.9-1.9.2-2.8-.4-.4-.9-.7-1.5-.7h-63.6c1.6-3.2 3.9-6.1 6.6-8.5l58.3-50.1c.8-.7.9-1.9.2-2.8-.4-.4-.9-.7-1.5-.7H716.8C849.5 471.4 820.9 227.7 653 95.1S241.5-9 108.8 158.9c-21.5 27.2-39.3 57.2-52.8 89.2C.9 378.4 21.3 528.4 109.2 639.3H2c-1.1 0-2 .9-2 2 0 .6.3 1.1.7 1.5l58.2 50.1c2.7 2.4 5 5.2 6.6 8.5H2c-.9-.2-1.6.4-1.9 1.1zm29.4-303.6c0-211.5 172-383.5 383.5-383.5s383.5 172 383.5 383.5c.1 87.5-29.9 172.4-84.9 240.4H575.1c15.4-10.4 29.7-22.3 42.9-35.4 113.2-113.2 113.2-296.8 0-410s-296.8-113.2-410 0c-113.2 113.2-113.2 296.8 0 410 13.1 13.1 27.5 25 42.9 35.4H114.4c-55-68-85-152.9-84.9-240.4zm538.2 240.4H258.3C179.3 588.4 127 499.6 127 398.9c0-157.7 128.3-286 286-286s286 128.3 286 286c0 100.7-52.4 189.4-131.3 240.4zM61.5 689.8L7.3 643.2h811.5l-54.2 46.6c-3.6 3.1-6.5 7-8.4 11.4H69.9c-1.9-4.4-4.8-8.3-8.4-11.4zm5.7 15.4h751.6l-54.2 46.6c-4.6 4-8 9.2-9.7 15.1l-11.4 38.6c-.9 2.9-3.6 5-6.6 5H89.2c-3.1 0-5.8-2-6.6-5l-11.4-38.6c-1.7-5.8-5.1-11.1-9.7-15L7.3 705.2h59.9z"/><path d="M111.6 791.7H260c1.1 0 2-.9 2-2s-.9-2-2-2H111.6c-1.1 0-2 .9-2 2 .1 1.1 1 2 2 2zm158.3 0h9.8c1.1 0 2-.9 2-2s-.9-2-2-2h-9.8c-1.1 0-2 .9-2 2 .1 1.1.9 2 2 2z"/></svg>