<svg xmlns="http://www.w3.org/2000/svg" viewBox="0 0 826 826"><path fill="#EEF5FA" d="M413 108.3C245 108.3 108.3 245 108.3 413S245 717.7 413.1 717.7 717.7 581 717.7 413 581 108.3 413 108.3zm-30.9 417H280.5c-9.6 0-17.4-7.8-17.4-17.4 0-3 .8-6 2.3-8.7l41.3-71.5c0-.1.1-.1.1-.2l-5.7-3.1 14.2-8.8.6 16.7-5.4-2.9c0 .1-.1.2-.2.3L269 501.2c-3.6 6.3-1.5 14.4 4.9 18.1 2 1.2 4.3 1.8 6.6 1.8h101.6c1.2 0 2.1.9 2.1 2.1s-1 2.1-2.1 2.1zm19.5-253.5l-68 117.9c-.5 1-1.8 1.4-2.8.9-1-.5-1.4-1.8-.9-2.8 0-.1.1-.1.1-.2l68-117.9c3.1-5.4 8.8-8.7 15-8.6 6.2 0 12 3.3 15.1 8.7l43.9 76.1 5.3-3.1v16.7l-14.5-8.3 5.6-3.2-43.9-76.1c-3.6-6.3-11.7-8.5-18-4.9-2.1 1.2-3.8 2.8-4.9 4.8zm159 244.9c-3.1 5.4-8.8 8.7-15.1 8.7H432.9c-.2 0-.3 0-.5-.1v6.3l-14.5-8.3 14.5-8.3v6.3h113.1c7.3 0 13.2-5.9 13.2-13.2 0-2.3-.6-4.6-1.8-6.6l-58.8-101.8c-.6-1-.2-2.3.8-2.9 1-.6 2.3-.2 2.9.8l58.7 101.7c3.2 5.3 3.2 12 .1 17.4z"/><path fill="#DDE1E5" d="M413 4.4C187.7 4.4 4.4 187.7 4.4 413S187.7 821.6 413 821.6 821.6 638.3 821.6 413 638.3 4.4 413 4.4zm218.5 627.1c-120.6 120.6-316.2 120.6-436.9 0s-120.6-316.2 0-436.9 316.2-120.6 436.9 0C689.4 252.5 722 331.1 722 413c.2 82-32.4 160.7-90.5 218.5z"/><path d="M573.7 32.7C363.6-56 121.4 42.3 32.7 252.4s9.6 452.3 219.7 541 452.3-9.6 541-219.7-9.7-452.3-219.7-541zM821.6 413c0 225.3-183.3 408.6-408.6 408.6S4.4 638.3 4.4 413 187.7 4.4 413 4.4 821.6 187.7 821.6 413z"/><path d="M413 104.1c-170.6 0-308.8 138.3-308.8 308.9 0 170.6 138.3 308.8 308.9 308.8s308.8-138.3 308.8-308.9c0-81.9-32.5-160.4-90.4-218.3-57.9-58.1-136.5-90.7-218.5-90.5zm0 613.6C245 717.7 108.3 581 108.3 413S245 108.4 413.1 108.4s304.7 136.7 304.7 304.7S581 717.7 413 717.7z"/><path d="M501.9 397.5c-.6-1-1.9-1.3-2.9-.8-1 .6-1.3 1.9-.8 2.9L557 501.3c3.6 6.3 1.5 14.4-4.9 18.1-2 1.2-4.3 1.8-6.6 1.8H432.4v-6.3l-14.5 8.3 14.5 8.3v-6.3c.2 0 .3.1.5.1h112.6c9.6 0 17.4-7.8 17.4-17.4 0-3-.8-6-2.3-8.7l-58.7-101.7zM382.1 521.2H280.5c-7.3 0-13.2-5.9-13.2-13.2 0-2.3.6-4.6 1.8-6.6l41.3-71.5c.1-.1.1-.2.2-.3l5.4 2.9-.6-16.7-14.2 8.8 5.7 3.1c0 .1-.1.1-.1.2l-41.3 71.5c-4.8 8.3-1.9 19 6.4 23.8 2.6 1.5 5.6 2.3 8.7 2.3h101.6c1.2 0 2.1-.9 2.1-2.1-.1-1.3-1.1-2.2-2.2-2.2zm42.3-249.4l43.9 76.1-5.6 3.2 14.5 8.3v-16.7l-5.3 3.1-43.9-76.1c-3.1-5.4-8.9-8.7-15.1-8.6-6.2 0-12 3.3-15.1 8.7l-68 117.8c-.6 1-.3 2.3.6 2.9 1 .6 2.3.3 2.9-.6 0 0 .1-.1.1-.2l68-117.9c3.6-6.3 11.7-8.5 18-4.9 2.2 1.2 3.9 2.8 5 4.9z"/></svg>