<svg xmlns="http://www.w3.org/2000/svg" viewBox="0 0 826 826"><path fill="#F8DFDB" d="M145.8 322.6c.9 6.6-.8 13.6-2.5 20.3-1.9 7.6-3.8 14.8-1.9 21 1.9 6.4 7.4 11.5 13.1 16.9 5 4.7 10.2 9.6 12.9 15.4 2.7 5.9 3 13.1 3.3 20.1.3 7.9.6 15.3 4.2 20.8 3.5 5.5 10.3 8.9 17.3 12.5 6.2 3.1 12.6 6.3 16.8 11.3 4.3 4.9 6.6 11.7 8.8 18.3 2.5 7.5 4.9 14.5 9.9 18.9s12.3 5.6 20 7.1c6.8 1.3 13.9 2.6 19.4 6.1 2.1 1.4 4 3.1 5.7 4.9.5.5.9 1.1 1.4 1.6.5.5.9 1.1 1.4 1.7 1.7 2.2 3.3 4.5 4.9 6.8 4.5 6.5 8.8 12.6 14.8 15.4 6 2.8 13.3 1.9 21.1 1.1 6.9-.7 14.1-1.5 20.4.4 6.2 1.8 11.7 6.3 17.1 10.5 5.9 4.7 12.1 9.7 18.7 10.6 6.4.9 13.2-1.9 20.4-4.9 3.9-1.7 7.9-3.1 12-4.3.6-.2 1.2-.3 1.8-.4.6-.1 1.2-.2 1.9-.3 1.4-.2 2.8-.3 4.2-.3 6.7 0 13.4 2.8 19.8 5.4l2.5 1 1.7.7c.6.2 1.2.5 1.8.7 5 1.9 9.8 3.1 14.4 2.5 6.6-.9 12.8-5.9 18.7-10.6 5.4-4.3 10.9-8.7 17.1-10.5 6.3-1.9 13.5-1.1 20.4-.4 7.8.8 15.2 1.6 21.1-1.1 5.9-2.7 10.3-8.9 14.8-15.4 4-5.6 8-11.5 13.5-15 2.4-1.5 5-2.6 7.7-3.4.6-.2 1.2-.4 1.8-.5.6-.2 1.2-.3 1.8-.5 2.6-.6 5.4-1.2 8.1-1.7 7.8-1.4 15.1-2.8 20-7.1 5-4.3 7.4-11.4 9.9-18.9 2.2-6.6 4.5-13.4 8.8-18.3 4.3-4.9 10.7-8.1 16.8-11.3 7.1-3.5 13.7-6.9 17.3-12.5s3.8-12.9 4.2-20.8c.3-6.9.6-14.1 3.3-20.1 2.7-6 7.9-10.7 12.9-15.4 5.8-5.4 11.3-10.5 13.1-16.9 1.8-6.2 0-13.4-1.9-21-1.7-6.8-3.5-13.8-2.5-20.3.9-6.3 4.5-12.4 8-18.3 3.9-6.6 7.9-13.4 7.9-20.1 0-6.7-4-13.5-7.9-20.1-3.5-5.9-7.1-12-8-18.3-.9-6.6.8-13.6 2.5-20.3 1.9-7.6 3.8-14.8 1.9-21-1.9-6.4-7.4-11.5-13.1-16.9-5-4.7-10.2-9.6-12.9-15.4s-3-13.1-3.3-20.1c-.3-7.9-.6-15.3-4.2-20.8-3.5-5.5-10.2-8.9-17.3-12.5-6.2-3.1-12.6-6.3-16.8-11.3-4.3-4.9-6.6-11.7-8.8-18.3-2.5-7.5-4.9-14.6-9.9-18.9s-12.3-5.6-20-7.1c-6.8-1.3-13.9-2.6-19.4-6.1s-9.5-9.4-13.5-15c-4.5-6.5-8.8-12.7-14.8-15.4-6-2.8-13.3-1.9-21.1-1.1-6.9.7-14.1 1.5-20.4-.4-6.2-1.8-11.7-6.3-17.1-10.5-5.9-4.8-12.1-9.7-18.7-10.6-6.4-.9-13.2 1.9-20.4 4.9-6.5 2.7-13.1 5.4-19.8 5.4s-13.4-2.8-19.9-5.4c-7.2-3-14.1-5.8-20.4-4.9-6.5.7-12.6 5.6-18.6 10.3-5.4 4.3-10.9 8.7-17.1 10.5-6.3 1.9-13.5 1.1-20.4.4-7.8-.8-15.2-1.6-21.1 1.1s-10.3 8.9-14.8 15.4c-4 5.6-8 11.5-13.5 15-5.4 3.5-12.6 4.8-19.4 6.1-7.8 1.4-15.1 2.8-20 7.1-5 4.3-7.4 11.4-9.9 18.9-2.2 6.6-4.5 13.4-8.8 18.3-4.3 4.9-10.7 8.1-16.9 11.3-7.1 3.5-13.7 6.9-17.3 12.5-3.6 5.6-3.8 12.9-4.1 20.8-.3 6.9-.6 14.1-3.3 20.1s-7.9 10.7-12.9 15.4c-5.8 5.4-11.3 10.5-13.1 16.9-1.8 6.2 0 13.4 1.9 21 1.7 6.8 3.5 13.8 2.5 20.3-.9 6.3-4.5 12.4-8 18.3-3.8 6.5-7.8 13.3-7.8 20.1 0 6.7 4 13.5 7.9 20.1 3.4 6 7 12.2 7.9 18.5zm105.6-200c89.7-88.8 234.3-88 323.1 1.6 88.1 89 88.1 232.4 0 321.5-6.2 6.2-12.7 12-19.5 17.4l-1.5 1.2-1.6 1.2c-27.7 21.4-60 36-94.4 42.8-.7.1-1.4.3-2.1.4-.7.1-1.4.3-2.1.4-13.3 2.4-26.8 3.5-40.4 3.5-6.4 0-12.7-.3-19-.8l-2-.2-2-.2c-35.4-3.5-69.5-15.3-99.5-34.4-.5-.3-1.1-.7-1.6-1.1s-1.1-.7-1.6-1.1c-12.9-8.5-24.8-18.3-35.7-29.2-89.3-89.1-89.3-233.8-.1-323 0 0 .1 0 0 0z"/><path fill="#FEF9F8" d="M288.5 471.1c.5.4 1.1.7 1.6 1.1l1.6 1.1c29.2 18.8 62.3 30.5 96.8 34.3l2.1.2 2 .2c6.7.6 13.5.9 20.3.9 14 0 28-1.3 41.8-3.9l2.1-.4 2.1-.4c33.4-7 64.7-21.5 91.6-42.4l1.6-1.2 1.6-1.2c53.1-42.6 84-107 84-175.1 0-123.9-100.8-224.7-224.7-224.7S188.3 160.2 188.3 284.2c0 77.9 39.8 146.6 100.2 186.9zm15.5-82.6c11.3 0 18.9-3 22.8-8.9s5.9-16.4 5.9-31.4V189.1c0-15-1.9-25.4-5.8-31.1-3.9-5.7-11.5-8.6-22.9-8.6V142h104.1c25.7 0 46.2 6.2 61.6 18.7 15.4 12.5 23.1 28.4 23 47.7 0 31.2-17.5 51.9-52.4 62.3 7.7 4.9 15.2 11.6 22.5 20.2 7.3 8.6 16.9 22.8 28.7 42.8 13.3 22.1 23.7 36.6 31.1 43.5.8.8 1.7 1.5 2.5 2.2.4.3.8.7 1.3 1 6.3 4.9 12.8 7.5 19.5 8v7.4H494c-.4-.5-.8-.9-1.2-1.5s-.8-1-1.3-1.5-.8-1-1.2-1.6c-9.9-12.6-21.6-29.9-35-52-16.1-26.2-28.8-42.9-38-50.1-9.2-7.2-19.3-10.8-30.4-10.8h-20.6v69.8c0 15 2.1 25.5 6.4 31.4 4.3 5.9 11.8 8.9 22.6 8.8v7.4H304v-7.2zm-58.2 10.4c-.8.6-2 .4-2.6-.4-19.8-27.8-30.3-61-30.2-95.1 0-1 .8-1.9 1.9-1.9 1 0 1.9.8 1.9 1.9 0 2.1 0 4.2.1 6.3 1 29.1 10 57.3 25.9 81.6 1.1 1.7 2.3 3.4 3.5 5.1.6.8.4 1.9-.5 2.5zm6.8 8.7c.8-.7 2-.6 2.6.2 3.9 4.6 8.1 8.9 12.5 13 .8.7.8 1.9.1 2.7-.4.4-.9.6-1.4.6-.5 0-.9-.2-1.3-.5-4.5-4.2-8.8-8.6-12.8-13.3-.5-.9-.4-2 .3-2.7z"/><path fill="#F1F6F7" d="M441.3 251.8c10.6-10.7 15.9-24.8 15.9-42.4 0-17.2-5.9-31-17.6-41.7s-27.3-15.9-46.6-16h-26.6v116h31.2c18.5.1 33.1-5.2 43.7-15.9z"/><path fill="#F8CBC4" d="M561 514.4c-4.8 3.1-8.5 8.4-12.4 14.1-4.6 6.6-9.4 13.5-16.4 16.7-7 3.2-15.1 2.3-23.1 1.4-6.6-.7-13.3-1.4-19 .3-5.5 1.6-10.5 5.6-15.8 9.9-6.3 5.1-12.9 10.3-20.5 11.4-1 .1-2 .2-3 .2-4.4 0-8.8-1.2-13.1-2.8l-12.5 35.8 56.1 161.4 57.3-82.1c.5-.7 1.3-1 2.1-.7l95.9 28.9L568 511.4c-2.5.7-4.9 1.7-7 3zm46.4 141.7c1-.3 2 .2 2.4 1.2l4.3 12.2c.3 1-.2 2-1.2 2.4-.2.1-.4.1-.6.1-.8 0-1.5-.5-1.8-1.3l-4.3-12.2c-.3-1 .2-2 1.2-2.4zm-20.3-62.7c1-.3 2 .2 2.4 1.2l16.2 50c.3 1-.2 2-1.2 2.4-.2.1-.4.1-.6.1-.8 0-1.5-.5-1.8-1.3l-16.2-50c-.3-1 .2-2.1 1.2-2.4zM431.4 563c-6.1-2.5-12.5-5.1-18.4-5.1-1 0-2 .1-2.9.2-.6.1-1.2.2-1.9.3s-1.2.3-1.9.4c-4 1.1-8 2.5-11.8 4.2-7.4 3-15 6.2-22.4 5.1-7.7-1.1-14.2-6.3-20.5-11.4-5.3-4.3-10.3-8.3-15.8-9.9-5.6-1.6-12.4-.9-19-.3-8 .8-16.2 1.7-23.1-1.4-6.9-3.1-11.7-10-16.4-16.7-1.1-1.6-2.2-3.2-3.3-4.7l-84.5 242 95.9-28.7c.2-.1.4-.1.5-.1.6 0 1.2.3 1.5.8l57.2 82.2L421 601.2l1-2.8 1-2.8 11-31.5-2.6-1.1zm-181.1 74.1l-7.2 20.4c-.3.7-1 1.2-1.8 1.2-.2 0-.4 0-.6-.1-1-.3-1.5-1.4-1.1-2.4l7.2-20.4c.3-1 1.4-1.5 2.4-1.1.9.3 1.4 1.4 1.1 2.4zm22.1-62.2l-17.6 49.6c-.3.8-1 1.3-1.8 1.3-1 0-1.9-.8-1.9-1.9 0-.2 0-.4.1-.6l17.6-49.6c.3-1 1.4-1.5 2.4-1.2 1 .3 1.5 1.4 1.2 2.4 0-.1 0 0 0 0z"/><path d="M142.1 323.1c.8 5.8-.8 12.5-2.5 18.9-2 7.8-4 15.8-1.9 23 2.2 7.4 8.3 13.1 14.2 18.6 5 4.7 9.7 9.1 12.1 14.3 2.4 5.2 2.7 12.1 2.9 18.7.3 8 .6 16.3 4.7 22.7s11.6 10.2 18.8 13.8c6.1 3.1 11.9 6 15.7 10.3 3.8 4.3 5.9 10.6 8.1 17.1 2.6 7.6 5.2 15.5 11 20.5s13.9 6.5 21.8 7.9c6.5 1.2 13.1 2.4 18 5.6 2.4 1.6 4.5 3.6 6.3 5.8l-86.6 247.8c-.3 1 .2 2.1 1.1 2.4.4.1.8.1 1.2 0l98.1-29.4 58.5 84.1c.4.5.9.8 1.5.8h.3c.7-.1 1.3-.6 1.5-1.2L423.1 607l55.7 160.5c.2.7.8 1.1 1.5 1.2h.3c.6 0 1.2-.3 1.5-.8l58.6-84 98.1 29.6c1 .3 2-.3 2.3-1.3.1-.4.1-.8 0-1.2l-69.7-200.7c2.5-.6 5-1.1 7.5-1.5 7.9-1.5 16.1-3 21.8-7.9s8.4-12.9 11-20.5c2.2-6.5 4.3-12.7 8-17 3.8-4.4 9.6-7.3 15.7-10.3 7.2-3.6 14.6-7.4 18.8-13.8 4.1-6.4 4.4-14.7 4.7-22.7.3-6.6.5-13.4 3-18.7 2.4-5.3 7.1-9.6 12.1-14.3 5.9-5.5 12-11.3 14.2-18.6 2.1-7.2.1-15.2-1.9-23-1.6-6.4-3.3-13.1-2.5-18.9.8-5.6 4.1-11.1 7.5-17 4.1-7 8.4-14.2 8.4-22s-4.3-15-8.4-22c-3.4-5.9-6.7-11.4-7.5-17-.8-5.8.8-12.5 2.5-18.9 2-7.8 4-15.8 1.9-23-2.2-7.4-8.3-13.1-14.2-18.6-5-4.7-9.7-9.1-12.1-14.3-2.4-5.2-2.7-12.1-2.9-18.7-.3-8-.6-16.3-4.7-22.7-4.1-6.4-11.6-10.2-18.8-13.8-6.1-3.1-11.9-6-15.7-10.3-3.8-4.3-5.9-10.5-8-17-2.6-7.6-5.2-15.5-11-20.5s-13.9-6.5-21.8-7.9c-6.5-1.2-13.1-2.4-18-5.6-4.9-3.1-8.5-8.4-12.4-14-4.6-6.6-9.4-13.5-16.4-16.7s-15.1-2.3-23.1-1.4c-6.6.7-13.4 1.4-19-.3-5.5-1.6-10.5-5.6-15.8-9.9C468 6.6 461.5 1.3 453.8.2c-7.4-1.1-15 2.1-22.4 5.1-6.1 2.5-12.5 5.1-18.4 5.1-5.9 0-12.3-2.6-18.4-5.1-7.4-3-15-6.2-22.4-5.1-7.6 1.1-14.2 6.4-20.5 11.4-5.3 4.3-10.3 8.3-15.8 9.9-5.6 1.6-12.4.9-19 .3-8-.8-16.2-1.7-23.1 1.4-6.9 3.1-11.7 10-16.4 16.7-3.9 5.6-7.6 10.9-12.4 14-4.8 3.1-11.6 4.4-18 5.6-7.9 1.5-16.1 3-21.8 7.9-5.7 5-8.4 12.9-11 20.5-2.2 6.5-4.3 12.7-8 17-3.8 4.4-9.6 7.3-15.7 10.3-7.2 3.6-14.6 7.4-18.8 13.8-4.1 6.4-4.4 14.7-4.7 22.7-.3 6.6-.5 13.4-2.9 18.7-2.4 5.3-7.1 9.6-12.1 14.3-5.9 5.5-12 11.3-14.2 18.6-2.1 7.2-.1 15.2 1.9 23 1.6 6.4 3.3 13.1 2.5 18.9-.8 5.6-4.1 11.1-7.5 17-4.1 7-8.4 14.3-8.4 22s4.3 15 8.4 22c3.3 5.8 6.6 11.3 7.4 16.9zm280 275.3l-1 2.8L344.7 820l-57.1-82.2c-.4-.5-.9-.8-1.5-.8-.2 0-.4 0-.5.1l-96 28.7 84.6-242.1c1.1 1.5 2.2 3.1 3.3 4.7 4.6 6.6 9.4 13.5 16.4 16.7 7 3.2 15.1 2.3 23.1 1.4 6.6-.7 13.4-1.4 19 .3 5.5 1.6 10.5 5.6 15.8 9.9 6.3 5.1 12.9 10.3 20.5 11.4 7.4 1.1 15-2.1 22.4-5.1 3.8-1.7 7.8-3.1 11.8-4.2.6-.2 1.2-.3 1.9-.4.6-.1 1.3-.2 1.9-.3 1-.1 1.9-.2 2.9-.2 5.9 0 12.3 2.6 18.4 5.1l2.7 1.1-11 31.5-1.2 2.8zm214.4 110.4l-95.9-28.9c-.8-.2-1.6.1-2.1.7l-57.3 82.1-56.1-161.4 12.5-35.8c4.4 1.6 8.8 2.8 13.1 2.8 1 0 2-.1 3-.2 7.7-1.1 14.2-6.3 20.5-11.4 5.3-4.3 10.3-8.3 15.8-9.9 5.6-1.6 12.4-.9 19-.3 8 .8 16.2 1.7 23.1-1.4 6.9-3.1 11.7-10 16.4-16.7 3.9-5.6 7.6-10.9 12.4-14.1 2.2-1.3 4.5-2.3 6.9-3.1l68.7 197.6zM137.8 264.1c3.5-5.9 7.1-12 8-18.3.9-6.6-.8-13.6-2.5-20.3-1.9-7.6-3.8-14.8-1.9-21 1.9-6.4 7.4-11.5 13.1-16.9 5-4.7 10.2-9.6 12.9-15.4s3-13.1 3.3-20.1c.3-7.9.6-15.3 4.1-20.8 3.5-5.5 10.3-8.9 17.3-12.5 6.2-3.1 12.6-6.3 16.9-11.3 4.3-4.9 6.6-11.7 8.8-18.3 2.5-7.5 4.9-14.6 9.9-18.9 5-4.3 12.3-5.6 20-7.1 6.8-1.3 13.9-2.6 19.4-6.1 5.5-3.5 9.5-9.4 13.5-15 4.5-6.5 8.8-12.6 14.8-15.4s13.3-1.9 21.1-1.1c6.9.7 14.1 1.5 20.4-.4 6.2-1.8 11.7-6.3 17.1-10.5 5.9-4.8 12.1-9.7 18.7-10.6 6.4-.9 13.2 1.9 20.4 4.9 6.5 2.7 13.2 5.4 19.9 5.4s13.4-2.8 19.8-5.4c7.2-3 14.1-5.8 20.4-4.9 6.6.9 12.8 5.9 18.7 10.6 5.4 4.3 10.9 8.7 17.1 10.5 6.3 1.9 13.5 1.1 20.4.4 7.8-.8 15.2-1.6 21.1 1.1 5.9 2.7 10.3 8.9 14.8 15.4 4 5.6 8 11.5 13.5 15s12.6 4.8 19.4 6.1c7.8 1.4 15.1 2.8 20 7.1 5 4.3 7.3 11.4 9.8 18.9 2.2 6.6 4.5 13.4 8.8 18.3 4.3 4.9 10.7 8.1 16.8 11.3 7.1 3.6 13.7 6.9 17.3 12.5 3.6 5.6 3.8 12.9 4.2 20.8.3 6.9.6 14.1 3.3 20.1 2.7 6 7.9 10.7 12.9 15.4 5.8 5.4 11.3 10.5 13.1 16.9 1.8 6.2 0 13.4-1.9 21-1.7 6.8-3.5 13.8-2.5 20.3.9 6.3 4.5 12.4 8 18.3 3.9 6.6 7.9 13.3 7.9 20.1 0 6.7-4 13.5-7.9 20.1-3.5 5.9-7.1 12-8 18.3-.9 6.6.8 13.6 2.5 20.3 1.9 7.6 3.8 14.8 1.9 21-1.9 6.4-7.4 11.5-13.1 16.9-5 4.7-10.2 9.6-12.9 15.4-2.7 5.9-3 13.1-3.3 20.1-.3 7.9-.6 15.3-4.2 20.8-3.5 5.5-10.2 8.9-17.3 12.5-6.2 3.1-12.6 6.3-16.8 11.3-4.3 4.9-6.6 11.7-8.8 18.3-2.5 7.5-4.9 14.5-9.9 18.9s-12.3 5.6-20 7.1c-2.7.5-5.4 1-8.1 1.7-.6.1-1.2.3-1.8.5-.6.2-1.2.3-1.8.5-2.7.8-5.3 2-7.7 3.4-5.5 3.5-9.5 9.4-13.5 15-4.5 6.5-8.8 12.6-14.8 15.4-6 2.8-13.3 2-21.1 1.1-6.9-.7-14.1-1.5-20.4.4-6.2 1.8-11.7 6.3-17.1 10.5-5.9 4.7-12.1 9.7-18.7 10.6-4.6.7-9.4-.6-14.4-2.5-.6-.2-1.2-.4-1.8-.7l-1.7-.7-2.5-1c-6.5-2.7-13.1-5.4-19.8-5.4-1.4 0-2.8.1-4.2.3-.6.1-1.2.2-1.9.3s-1.2.3-1.8.4c-4.1 1.2-8.1 2.6-12 4.3-7.2 3-14.1 5.8-20.4 4.9-6.6-.9-12.8-5.9-18.7-10.6-5.4-4.3-10.9-8.7-17.1-10.5-6.3-1.9-13.5-1.1-20.4-.4-7.8.8-15.2 1.6-21.1-1.1-5.9-2.7-10.3-8.9-14.8-15.4-1.6-2.3-3.2-4.6-4.9-6.8-.5-.6-.9-1.1-1.4-1.7-.5-.6-.9-1.1-1.4-1.6-1.7-1.9-3.6-3.5-5.7-4.9-5.5-3.5-12.6-4.8-19.4-6.1-7.8-1.4-15.1-2.8-20-7.1-5-4.3-7.4-11.4-9.9-18.9-2.2-6.6-4.5-13.4-8.8-18.3-4.3-4.9-10.7-8.1-16.8-11.3-7.1-3.5-13.7-6.9-17.3-12.5-3.6-5.6-3.8-12.9-4.2-20.8-.3-6.9-.6-14.1-3.3-20.1-2.7-6-7.9-10.7-12.9-15.4-5.8-5.4-11.3-10.5-13.1-16.9-1.8-6.2 0-13.4 1.9-21 1.7-6.8 3.5-13.8 2.5-20.3-.9-6.3-4.5-12.4-8-18.3-3.9-6.6-7.9-13.3-7.9-20.1s4-13.5 7.9-20z"/><path d="M287.2 474.9c.5.4 1.1.7 1.6 1.1s1.1.7 1.6 1.1c30 19.1 64.1 30.9 99.5 34.4l2 .2 2 .2c6.3.5 12.6.8 19 .8 13.5 0 27-1.2 40.4-3.5.7-.1 1.4-.3 2.1-.4.7-.1 1.4-.3 2.1-.4 34.4-6.7 66.7-21.4 94.4-42.8l1.6-1.2 1.5-1.2c6.8-5.4 13.3-11.2 19.5-17.4 89.7-88.8 90.4-233.4 1.6-323.1s-233.3-90.5-323-1.7c-.6.5-1.1 1.1-1.6 1.6-89.2 89.2-89.2 233.9 0 323.1 10.9 10.9 22.8 20.7 35.7 29.2zM413 59.4c123.9 0 224.7 100.8 224.7 224.7 0 68.1-30.9 132.5-84 175.1l-1.6 1.2-1.6 1.2a224.2 224.2 0 0 1-91.6 42.4l-2.1.4-2.1.4c-13.8 2.6-27.8 3.9-41.8 3.9-6.9 0-13.6-.3-20.3-.9l-2-.2-2.1-.2c-34.5-3.7-67.7-15.5-96.8-34.3l-1.6-1.1c-.5-.4-1.1-.7-1.6-1.1-60.4-40.4-100.2-109.1-100.2-187 0-123.7 100.8-224.5 224.7-224.5z"/><path d="M242.8 391.1c-15.9-24.3-24.9-52.6-25.9-81.6-.1-2.1-.1-4.2-.1-6.3 0-1-.8-1.9-1.9-1.9-1 0-1.9.8-1.9 1.9-.1 34.1 10.4 67.4 30.2 95.2.6.9 1.7 1.1 2.6.6s1.1-1.7.6-2.6c0-.1-.1-.1-.1-.1-1.2-1.7-2.4-3.4-3.5-5.2zm22.5 32.5c.8.7 1.9.7 2.7-.1.7-.8.7-1.9-.1-2.7-4.4-4.1-8.6-8.4-12.5-13-.6-.9-1.8-1.1-2.6-.5-.9.6-1.1 1.8-.5 2.6l.3.3c3.9 4.7 8.2 9.2 12.7 13.4zm130-35.1c-10.8 0-18.3-3-22.6-8.9-4.3-5.9-6.4-16.4-6.4-31.4v-69.8h20.6c11.1 0 21.2 3.6 30.4 10.8 9.2 7.2 21.8 23.9 38 50.1 13.5 22.1 25.1 39.4 35.1 52 .4.5.8 1.1 1.2 1.6.4.5.8 1 1.3 1.5s.8 1 1.2 1.5H546v-7.4c-6.7-.5-13.2-3.2-19.5-8-.4-.3-.8-.6-1.3-1-.8-.7-1.7-1.4-2.5-2.2-7.5-6.9-17.8-21.4-31.1-43.5-11.8-19.9-21.4-34.2-28.7-42.8-7.3-8.6-14.8-15.3-22.5-20.2 34.9-10.4 52.4-31.2 52.4-62.3 0-19.3-7.7-35.2-23-47.7-15.4-12.5-35.9-18.7-61.6-18.7H304v7.4c11.4 0 19 2.9 22.9 8.6 3.9 5.7 5.8 16.1 5.8 31.1v159.2c0 15-2 25.5-5.9 31.4-4 5.9-11.6 8.9-22.8 8.8v7.4h91.3v-7.5zm-29-236.7h26.6c19.3 0 34.9 5.3 46.6 16 11.8 10.6 17.6 24.5 17.6 41.7 0 17.6-5.3 31.7-15.9 42.4-10.6 10.7-25.2 16-43.8 16h-31.2l.1-116.1zM249.1 634.7c-1-.3-2.1.2-2.4 1.1l-7.2 20.4c-.4 1 .2 2.1 1.1 2.4.2.1.4.1.6.1.8 0 1.5-.5 1.8-1.2l7.2-20.4c.4-1-.1-2.1-1.1-2.4zm22.1-62.2c-1-.3-2 .2-2.4 1.1l-17.6 49.6c-.3 1 .2 2 1.1 2.4.2.1.4.1.6.1.8 0 1.5-.5 1.8-1.3l17.6-49.6c.4-.9-.2-2-1.1-2.3zm339.3 98.2c.3.8 1 1.3 1.8 1.3.2 0 .4 0 .6-.1 1-.3 1.5-1.4 1.2-2.4l-4.3-12.2c-.3-1-1.3-1.6-2.3-1.3s-1.6 1.3-1.3 2.3c0 .1 0 .1.1.2l4.2 12.2zm-8.4-24.9c.2.8 1 1.3 1.8 1.3.2 0 .4 0 .6-.1 1-.3 1.5-1.4 1.2-2.4l-16.2-50c-.4-1-1.4-1.5-2.4-1.1-.9.3-1.4 1.3-1.2 2.3l16.2 50z"/></svg>