<svg xmlns="http://www.w3.org/2000/svg" viewBox="0 0 1223.9 626.5"><path fill="#005984" d="M626.4 0L392.2 101.1v250.8S406 526.5 626.4 623.5c220.3-97 234.2-271.6 234.2-271.6V101.1L626.4 0z"/><path fill="#FFDF42" d="M626.4 63.7l-186.3 80.5v199.5s11 139 186.3 216.1c175.3-77.2 186.3-216.1 186.3-216.1V144.2L626.4 63.7z"/><path fill="#231F20" d="M860.6 351.9V101.1L626.4 0v623.5c220.3-96.9 234.2-271.6 234.2-271.6z" opacity=".1"/><path fill="#09C6A2" d="M625.5 368.7l147-125.7-22.1-25.8-121.8 104.2-50.6-57-25.4 22.6 72.5 81.7.2.2z"/><path fill="#EEE" d="M449.7 406.9h-7.5c1.3-5 2-10.2 2-15.6 0-34-27.6-61.6-61.6-61.6-11.2 0-21.7 3-30.7 8.2-10.6-54.8-58.9-96.2-116.8-96.2S129 283.1 118.3 337.8c-6-1.8-12.3-2.8-18.8-2.8-36 0-65.3 29.2-65.3 65.3 0 3.1.2 6.1.6 9C14.6 416.1 0 435.1 0 457.6c0 28 22.7 50.7 50.7 50.7h399c28 0 50.7-22.7 50.7-50.7 0-28-22.7-50.7-50.7-50.7z"/><path d="M449.7 406.9h-7.5c1.3-5 2-10.2 2-15.6 0-34-27.6-61.6-61.6-61.6-11.2 0-21.7 3-30.7 8.2-10.6-54.8-58.9-96.2-116.8-96.2-1.5 0-2.9 0-4.4.1v266.4h219c28 0 50.7-22.7 50.7-50.7 0-27.9-22.7-50.6-50.7-50.6z" opacity=".1"/><path fill="#EEE" d="M1173.2 191.7h-7.5c1.3-5 2-10.2 2-15.6 0-34-27.6-61.6-61.6-61.6-11.2 0-21.7 3-30.7 8.2-10.6-54.8-58.9-96.2-116.8-96.2s-106.1 41.4-116.8 96.1c-6-1.8-12.3-2.8-18.8-2.8-36 0-65.3 29.2-65.3 65.3 0 3.1.2 6.1.6 9-20.3 6.6-34.9 25.7-34.9 48.2 0 28 22.7 50.7 50.7 50.7h399c28 0 50.7-22.7 50.7-50.7.1-27.9-22.6-50.6-50.6-50.6z"/><path d="M1173.2 191.7h-7.5c1.3-5 2-10.2 2-15.6 0-34-27.6-61.6-61.6-61.6-11.2 0-21.7 3-30.7 8.2-10.6-54.8-58.9-96.2-116.8-96.2-1.5 0-2.9 0-4.4.1V293h219c28 0 50.7-22.7 50.7-50.7 0-27.9-22.7-50.6-50.7-50.6z" opacity=".1"/><path fill="#EEE" d="M1002.6 554.3h-5.4c.9-3.5 1.4-7.3 1.4-11.1 0-24.2-19.6-43.8-43.8-43.8-8 0-15.4 2.1-21.9 5.8-7.6-39-41.9-68.5-83.1-68.5-41.2 0-75.5 29.4-83.1 68.4-4.2-1.3-8.7-2-13.4-2-25.6 0-46.4 20.8-46.4 46.4 0 2.2.2 4.3.5 6.4-14.4 4.7-24.8 18.3-24.8 34.3 0 19.9 16.1 36.1 36.1 36.1h284c19.9 0 36.1-16.1 36.1-36.1-.2-19.7-16.3-35.9-36.2-35.9z"/><path d="M1002.6 554.3h-5.4c.9-3.5 1.4-7.3 1.4-11.1 0-24.2-19.6-43.8-43.8-43.8-8 0-15.4 2.1-21.9 5.8-7.6-39-41.9-68.5-83.1-68.5-1 0-2.1 0-3.1.1v189.6h155.9c19.9 0 36.1-16.1 36.1-36.1-.1-19.8-16.2-36-36.1-36z" opacity=".1"/></svg>