<svg xmlns="http://www.w3.org/2000/svg" viewBox="0 0 826 826"><path fill="#e1f0e9" d="M785.7 365.8H361.6c1.1 35.5 9.5 70.5 24.8 102.5h410.9c15.3-32.1 23.7-67 24.8-102.5h-36.4z"/><path d="M386.8 690.5c-7-13.4-12.7-27.4-17.2-41.8-3.2 13.1-6.6 25.7-10.4 37.8 9.1 1.8 18.3 3.1 27.6 4z" class="st1"/><path fill="#fbece9" d="M245.3 751.3h83.8c10.1-19.9 18.5-40.6 25.2-61.9l.6-1.9c.2-.6.4-1.2.6-1.9 4.4-14.1 8.4-28.9 12-44.4l.9-3.9c.3-1.5.7-2.9 1-4.4 3.8-17.5 7-35.7 9.7-54.5.1-.6.2-1.3.3-1.9.1-.6.2-1.3.3-1.9.2-1.5.4-3.1.6-4.6l.5-3.6c.2-1.3.3-2.6.5-3.9 2.5-20.6 4.3-41.9 5.4-63.6H88.1c.5 10.2 1.2 20.2 2 30.1l.2 2.1c.1.7.1 1.4.2 2 .8 9.1 1.7 18.1 2.8 27 .1.7.2 1.3.2 2s.2 1.4.2 2c2.4 19.7 5.5 38.8 9.1 57.1.4 1.8.7 3.5 1.1 5.2.4 1.7.7 3.2 1 4.9 4.3 20.4 9.7 40.5 16.1 60.4.2.7.5 1.4.7 2.1.2.7.5 1.4.7 2 2.8 8.3 5.7 16.2 8.8 24l.8 1.9c.3.6.5 1.3.8 1.9 4 9.8 8.3 19.1 12.8 27.8l99.7-.1zm-113.7-86.6l-.2.1c-.1 0-.3.1-.5.1-.9 0-1.7-.6-1.9-1.5-.2-.7-.3-1.4-.5-2-.3-1.3-.6-2.7-1-4-.3-1.4-.7-2.9-1-4.4-.2-1.1-.5-2.2-.7-3.3-.2-1 .4-2.1 1.5-2.3 1-.2 2.1.4 2.3 1.5.8 3.5 1.6 6.9 2.4 10.4.3 1.1.5 2.2.8 3.3.1.3.1.5 0 .8-.2.4-.6 1-1.2 1.3zm5.6 28.5c-1.7-5.1-3.3-10.3-4.9-15.7-.3-1 .3-2.1 1.3-2.4 1-.3 2.1.3 2.4 1.3 5.5 19 12.2 37.6 20 55.7.4 1 0 2.1-1 2.5-.2.1-.5.2-.8.2-.8 0-1.5-.5-1.8-1.2-1.6-3.7-3.2-7.6-4.8-11.5l-.7-1.8c-3.2-8.1-6.2-16.5-9.1-25.2l-.6-1.9z"/><path fill="#d5e7f2" d="M392.2 700.4c-1.1-1.9-2.2-3.9-3.3-5.9-10.4-.9-20.7-2.3-31-4.3-6.6 21-14.8 41.4-24.6 61.1h93c1.1 0 1.9.9 1.9 1.9 0 .5-.2.9-.5 1.3l-17.9 19.3v9.1c0 1.3-.3 2.7-1 3.8h4.2c19 0 38-1.4 56.8-4.3-31.9-20.9-58.5-49-77.6-82z"/><path fill="#c4e1d4" d="M797.7 578.5h-415c-3 21.7-6.9 42.6-11.4 62.5 4.9 17.3 11.7 34 20.2 49.9.4.7.7 1.3 1.1 2 .4.7.7 1.3 1.1 2 19.7 35.3 47.6 65.4 81.8 86.6.8.5 1.7 1 2.5 1.5l1.7 1 .9.5c2.8 1.4 5.8 2.2 8.9 2.2h204.6c3.5 0 6.9-.9 9.8-2.7 70.4-41.7 115.5-120.3 118.1-205.6l-24.3.1zm-383.2 117l-.4.4c-.3.2-.7.3-1 .3-.5 0-1.1-.2-1.4-.7-.1-.1-.1-.2-.2-.2-.4-.6-.7-1.1-1.1-1.7-.4-.6-.8-1.3-1.2-1.9-1.3-2.1-2.5-4.2-3.8-6.3-.5-.9-.2-2.1.7-2.6.9-.5 2.1-.2 2.6.7 1.6 2.8 3.3 5.5 5 8.3.3.5.6 1 1 1.5.1.1.1.2.2.4.2.5 0 1.3-.4 1.8zm30.4 38.9c-.4.3-.8.5-1.3.5s-1-.2-1.4-.6c-8.9-9.2-17.1-19.1-24.4-29.5-.6-.8-.5-2 .4-2.7.8-.6 2-.5 2.7.4 0 0 0 .1.1.1 7.2 10.3 15.3 20 24 29.1.7.7.7 2-.1 2.7z"/><path fill="#f1f6f7" d="M53.9 568.6c-8.1 5.6-13.1 14.4-14.5 25.3-2.3 18.5 5.6 40.4 21.2 58.4 13.1 15.1 30.7 32 56 38.3-7-22.2-12.8-44.7-17.3-67.5-12.7-18.9-23.7-39-32.7-59.9-4.6 1-8.9 2.9-12.7 5.4z"/><path fill="#fbe0dc" d="M331.4 755.2H52.6L68 771.8c.3.4.5.8.5 1.3v9.8c0 2.1 1.7 3.8 3.8 3.8H402c2.1 0 3.8-1.7 3.8-3.8v-9.8c0-.5.2-1 .5-1.3l15.4-16.6h-90.3zm50.7 19.8H92.3c-1.1 0-1.9-.9-1.9-1.9 0-1.1.9-1.9 1.9-1.9h289.8c1.1 0 1.9.9 1.9 1.9 0 1.1-.8 1.9-1.9 1.9z"/><path fill="#d5e7f2" d="M86.1 527.9c-.8-10.2-1.5-20.4-2-30.9 0-.5.2-1 .5-1.4.4-.4.9-.6 1.4-.6h56.4c-45.2-149.4 39.3-307.2 188.7-352.4 26.5-8 54.1-12.1 81.8-12.1 136.3.1 253.2 97.4 277.9 231.5h92.3C758.3 180 601.8 39.3 413 39.3 206.9 39.3 39.3 207 39.3 413c0 38.3 5.9 76.4 17.4 112.9 9.9-1.1 19.8-.5 29.4 2z"/><path fill="#fbe0dc" d="M57.8 654.9C41.5 636 33.2 613 35.7 593.5c1.5-12.1 7.1-21.8 16.1-28 4-2.8 8.5-4.7 13.2-5.9.6-.2 1.3-.3 1.9-.4.7-.1 1.4-.2 2-.4 2.8-.4 5.7-.7 8.5-.7 3.9 0 7.9.4 11.8 1.1-1.1-9-2-18.1-2.8-27.4-9.3-2.5-19-3.3-28.5-2.3-.7.1-1.3.2-2 .3s-1.3.2-1.9.3c-9.5 1.6-18.4 5.5-26 11.4C12.3 553.6 3.8 573 3.9 596.1c.1 23.3 9 47.6 25.1 68.4 23.4 30.3 64.3 52.3 98 54.8-3.1-7.9-6.1-16.1-8.9-24.5-27.5-5.8-46.4-23.8-60.3-39.9z"/><path fill="#f1f6f7" d="M359.6 362H687c-24-129.4-137.8-227.7-274-227.7-153.7 0-278.7 125-278.7 278.7 0 27.8 4.1 55.4 12.3 82h212.8c-1-8.2-1.5-16.4-1.7-24.8 0-.5.2-1 .5-1.4.4-.4.9-.6 1.4-.6h22.5c-15.3-32.7-23.6-68.3-24.4-104.4 0-.5.2-1 .5-1.4.4-.2.9-.4 1.4-.4zm-193.8-14.8c-1.6 5.5-2.3 8.8-3.3 13.9l-.5 2.6c-.2.9-1 1.6-1.9 1.5h-.4c-1-.2-1.7-1.2-1.5-2.3l.5-2.6c1-5.2 1.7-8.6 3.4-14.2.3-1 1.4-1.6 2.4-1.3 1 .4 1.6 1.4 1.3 2.4zm49.9-93.6c-2.4 2.8-4.6 5.6-6.9 8.5-15.4 19.7-27.7 41.7-36.4 65.2-1.3 3.4-2.5 6.8-3.6 10.2-.3.8-1 1.3-1.8 1.3-.2 0-.4 0-.6-.1-1-.3-1.6-1.4-1.2-2.4 10.1-31.3 26.2-60.2 47.5-85.2.7-.8 1.9-.9 2.7-.2.9.6 1 1.8.3 2.7z"/><path fill="#d5e7f2" d="M77.5 562c-2.3 0-4.7.2-7 .5 7.6 17.4 16.6 34.2 26.8 50.2-3-16-5.5-32.5-7.6-49.5-4-.7-8.1-1.1-12.2-1.2z"/><path d="M212.8 251.1c-21.3 25-37.5 53.9-47.5 85.2-.3 1 .2 2.1 1.2 2.4.2.1.4.1.6.1.8 0 1.6-.5 1.8-1.3 1.1-3.4 2.3-6.9 3.6-10.2 8.7-23.5 21-45.4 36.4-65.2 2.2-2.9 4.5-5.7 6.9-8.5.7-.8.6-2-.2-2.7-.9-.8-2.1-.7-2.8.2zm-48.3 93.8c-1-.3-2.1.3-2.4 1.3-1.6 5.6-2.3 9-3.4 14.2l-.5 2.6c-.2 1 .5 2 1.5 2.3h.4c.9 0 1.7-.6 1.9-1.5l.5-2.6c1-5.1 1.7-8.4 3.3-13.9.3-1.1-.3-2.2-1.3-2.4z"/><path d="M825.4 362.5c-.4-.4-.9-.6-1.4-.6h-36.9C761.7 174.8 601.9 35.3 413 35.4c-208.7.2-377.7 169.5-377.6 378.2 0 38.3 5.9 76.4 17.4 113-9.9 1.8-19.2 5.9-27.2 12C9 551.5-.1 572 0 596.3c.1 24.2 9.3 49.3 25.9 70.7 24.4 31.5 67.5 54.4 102.5 56.3 4 9.8 8.2 19.1 12.6 27.9H48c-1.1 0-1.9.9-1.9 1.9 0 .5.2.9.5 1.3l17.9 19.3v9.1c0 4.2 3.4 7.7 7.7 7.7h329.9c.4 0 .9 0 1.3-.1 3.2.1 6.4.1 9.6.1 20.7 0 41.4-1.7 61.8-5l3 1.8c3.6 2.1 7.6 3.2 11.8 3.2h204.6c4.1 0 8.2-1.1 11.8-3.2 35-20.7 64.5-50.8 85.6-87 21.7-37.7 33.6-80.3 34.5-123.8 0-1.1-.9-1.9-1.9-1.9h-22.5c15.3-32.7 23.6-68.3 24.4-104.4 0-1.1-.8-1.9-1.9-2h-22.5c15.3-32.7 23.6-68.3 24.4-104.4-.1-.4-.3-.9-.7-1.3zM39.3 413C39.3 207 206.9 39.3 413 39.3 601.8 39.3 758.3 180 783.2 362h-92.3c-28.3-153.5-175.7-255-329.1-226.7C227.8 160 130.6 276.8 130.5 413c0 27.8 4 55.4 12 82H86.1c-.5 0-1 .2-1.4.6-.4.4-.6.9-.5 1.4.5 10.4 1.1 20.7 2 30.9-9.6-2.5-19.6-3.1-29.4-1.9-11.7-36.6-17.6-74.7-17.5-113zm342.8 55.3h-22.5c-.5 0-1 .2-1.4.6-.4.4-.6.9-.5 1.4.2 8.3.8 16.6 1.7 24.8H146.6c-8.2-26.6-12.3-54.2-12.3-82 0-153.7 125-278.7 278.7-278.7 136.2 0 250 98.3 274 227.7H359.6c-.5 0-1 .2-1.4.6-.4.4-.6.9-.5 1.4.8 35.9 9.1 71.5 24.4 104.2zM28.9 664.7c-16.1-20.8-25-45.1-25.1-68.4-.1-23.1 8.5-42.6 24.1-54.6 7.6-5.9 16.6-9.8 26-11.4.6-.1 1.3-.2 1.9-.3.6-.1 1.3-.2 2-.3 9.6-1 19.3-.3 28.5 2.3.8 9.2 1.7 18.4 2.8 27.4-3.9-.7-7.8-1-11.8-1.1-2.9 0-5.7.2-8.5.7-.7.1-1.4.2-2 .4-.7.1-1.3.3-1.9.4-4.7 1.1-9.2 3.1-13.2 5.8-9 6.2-14.5 15.9-16.1 28-2.5 19.5 5.7 42.5 22.1 61.4 13.9 16.1 32.8 34.1 60.2 40 2.8 8.5 5.8 16.7 8.9 24.5-33.6-2.5-74.5-24.5-97.9-54.8zm41.6-102.2c2.3-.3 4.6-.5 7-.5 4.1 0 8.2.4 12.2 1.2 2.1 17 4.6 33.5 7.6 49.5-10.2-16-19.2-32.8-26.8-50.2zm28.7 60.7c4.5 22.8 10.3 45.3 17.3 67.5-25.2-6.2-42.8-23.1-55.9-38.2-15.6-18-23.6-39.9-21.2-58.4 1.4-11 6.4-19.8 14.5-25.3 3.8-2.6 8.1-4.4 12.6-5.4 9.1 20.8 20.1 40.8 32.7 59.8zm33.4 100.3c-.3-.6-.5-1.3-.8-1.9l-.8-1.9c-3.1-7.7-6-15.7-8.8-24-.2-.7-.5-1.4-.7-2-.2-.7-.5-1.4-.7-2.1-6.4-19.8-11.8-40-16.1-60.4-.3-1.6-.7-3.2-1-4.9-.4-1.7-.7-3.5-1.1-5.2-3.6-18.3-6.7-37.4-9.1-57.1-.1-.7-.2-1.4-.2-2-.1-.7-.2-1.3-.2-2-1.1-8.9-2-17.9-2.8-27-.1-.7-.1-1.4-.2-2l-.1-2c-.8-9.9-1.5-20-2-30.1h298.2c-1.1 21.8-2.9 43-5.4 63.6-.2 1.3-.3 2.6-.5 3.9l-.3 3.6c-.2 1.5-.4 3.1-.6 4.6-.1.6-.2 1.3-.3 1.9-.1.6-.2 1.3-.3 1.9-2.7 18.8-5.9 37.1-9.7 54.5-.3 1.5-.6 2.9-1 4.4l-.9 3.9c-3.6 15.5-7.6 30.3-12 44.4-.2.6-.4 1.2-.6 1.9l-.6 1.9c-6.7 21.3-15.1 42-25.2 61.9H145.4c-4.5-8.7-8.8-18-12.8-27.8zm236.9-74.8c4.5 14.4 10.3 28.4 17.2 41.8-9.3-.9-18.5-2.2-27.6-4 3.8-12.1 7.3-24.7 10.4-37.8zM405.9 773v9.8c0 2.1-1.7 3.8-3.8 3.8H72.3c-2.1 0-3.8-1.7-3.8-3.8V773c0-.5-.2-1-.5-1.3l-15.4-16.6h369.3l-15.4 16.6c-.4.4-.6.9-.6 1.3zm7.1 13.7h-4.2c.7-1.2 1-2.5 1-3.8v-9.1l17.9-19.3c.7-.8.7-2-.1-2.7-.4-.3-.8-.5-1.3-.5h-93c9.8-19.7 18-40.1 24.6-61.1 10.2 2 20.6 3.4 31 4.3 1.1 2 2.2 3.9 3.3 5.9 19.1 33.1 45.7 61.2 77.6 82-18.8 2.9-37.8 4.3-56.8 4.3zm409.1-208.2C819.5 663.8 774.3 742.3 704 784c-3 1.8-6.4 2.7-9.8 2.7H489.5c-3.1 0-6.2-.7-8.9-2.2l-.9-.5-1.7-1c-.8-.5-1.7-1-2.5-1.5-34.2-21.3-62.1-51.3-81.8-86.6-.4-.7-.7-1.3-1.1-2s-.7-1.3-1.1-2c-8.5-15.9-15.2-32.6-20.2-49.9 4.5-19.9 8.3-40.8 11.4-62.5h439.4zm0-106.4c-1.1 35.5-9.5 70.4-24.8 102.5H383.5c.7-2.6 5.6-52.8 6.7-77.6 0-.5-.2-1-.5-1.4-.4-.4-.9-.6-1.4-.6h-25c-.9-7.6-1.5-15.2-1.7-22.9h460.5zm-24.8-3.8H386.4c-15.3-32.1-23.7-67-24.8-102.5h460.5c-1 35.5-9.5 70.4-24.8 102.5z"/><path fill="#d3e8df" d="M799.4 472.1H361.6c.2 7.7.8 15.3 1.7 22.9h25c.5 0 1 .2 1.4.6.4.4.6.9.5 1.4-1.2 24.8-6 75.1-6.7 77.6H797c15.5-32 24-67 25.1-102.5h-22.7z"/><path d="M420.9 702.6c-.6-.9-1.8-1.1-2.7-.6s-1.1 1.8-.6 2.7c0 0 0 .1.1.1 7.4 10.5 15.5 20.3 24.4 29.5.4.4.9.6 1.4.6 1.1 0 1.9-.9 1.9-1.9 0-.5-.2-1-.5-1.3a257.6 257.6 0 0 1-24-29.1zm-6.2-9.4c-.3-.5-.6-1-1-1.5-1.7-2.7-3.4-5.5-5-8.3-.5-.9-1.7-1.2-2.6-.7s-1.2 1.7-.7 2.6c1.2 2.1 2.5 4.2 3.8 6.3.4.6.8 1.3 1.2 1.9.4.6.7 1.1 1.1 1.7.1.1.1.2.2.2.4.4.9.6 1.4.7.4 0 .7-.1 1-.3.1-.1.3-.2.4-.4.5-.5.6-1.3.4-1.9-.1 0-.2-.2-.2-.3zm-267 28.9c1.6 3.9 3.2 7.8 4.8 11.5.3.7 1 1.2 1.8 1.2.3 0 .5-.1.8-.2 1-.4 1.4-1.6 1-2.5-7.8-18.1-14.4-36.7-19.9-55.7-.3-1-1.4-1.6-2.4-1.3-1 .3-1.6 1.4-1.3 2.4 1.6 5.3 3.2 10.6 4.9 15.7l.6 1.9c2.9 8.7 5.9 17.2 9.1 25.2l.6 1.8zm-14.9-58.9c.1-.3.1-.5 0-.8-.3-1.1-.5-2.2-.8-3.3-.8-3.4-1.6-6.9-2.4-10.4-.2-1-1.3-1.7-2.3-1.5-1 .2-1.7 1.3-1.5 2.3.2 1.1.5 2.2.7 3.3.3 1.5.7 2.9 1 4.4.3 1.5.6 2.7 1 4 .2.7.3 1.4.5 2 .2.9 1 1.5 1.9 1.5.2 0 .3 0 .5-.1l.2-.1c.6-.1 1.1-.7 1.2-1.3zm249.3 108H92.3c-1.1 0-1.9.9-1.9 1.9 0 1.1.9 1.9 1.9 1.9h289.8c1.1 0 1.9-.9 1.9-1.9 0-1-.8-1.9-1.9-1.9z"/></svg>