<svg xmlns="http://www.w3.org/2000/svg" id="Слой_1" x="0" y="0" version="1.1" viewBox="0 0 826 826" xml:space="preserve"><style>.st0{fill:#E0E2F1}.st1{fill:#F5F5FA}.st2{fill:#FBE0DC}</style><path d="M462.4 108.8c0-15.4-12.5-27.8-27.8-27.8-15.4 0-27.8 12.5-27.8 27.8 0 15.4 12.5 27.8 27.8 27.8s27.7-12.5 27.8-27.8z" class="st0"/><path d="M285.3 217.9c1.6.7 3.3 1.3 4.9 2l2.2.9h.1c29 10.9 63.1 16.6 109.8 18.2l5.8.2h.4c1.8.1 3.7.1 5.5.1h.8c1.7 0 3.5.1 5.3.1h29l5.2-.1h.9l5.4-.1h.5c1.9 0 3.8-.1 5.7-.2h.1c44.5-1.6 77.5-6.9 105.7-17 1-.4 2-.7 3-1.1l.9-.3 1.2-.5c1.8-.7 3.6-1.4 5.4-2.2l1.5-.6 2.7-1.2c-45-53.6-89.5-75.6-152.8-75.6s-108 22-153 75.8c.8.4 1.7.7 2.5 1.1l1.3.5z" class="st1"/><path d="M194.4 452.7c-.4-4.4-.8-8.6-1.1-12.7v-.1c-.1-1.1-.2-2.2-.2-3.3v-.7c-.2-2.8-.3-5.5-.4-8.1 0-.7-.1-1.5-.1-2.2v-9c0-1.9 0-3.8.1-5.7v-.8c.1-1.8.2-3.7.3-5.5 0-.3 0-.7.1-1 .1-1.8.3-3.7.4-5.5l.1-.9.6-5.7c0-.2.1-.4.1-.6.2-1.9.5-3.7.8-5.6l.1-.6c.3-1.9.6-3.7 1-5.6.1-.4.1-.7.2-1.1.3-1.8.7-3.5 1.1-5.3l.3-1.5c.4-1.7.7-3.3 1.1-5l.4-1.8c.4-1.6.8-3.1 1.2-4.7.2-.7.4-1.5.6-2.2.4-1.5.8-2.9 1.2-4.4.2-.8.5-1.7.7-2.5.4-1.3.8-2.7 1.2-4 .3-1.1.7-2.2 1.1-3.3.4-1.1.7-2.2 1.1-3.2l1.8-5.1c.2-.4.3-.9.5-1.3.7-1.9 1.5-4 2.3-6 0-.1.1-.2.1-.3 2.2-5.6 4.6-11.2 7.1-16.9-70.1-29.2-113.6-66.3-137.7-92.4-18.1-19.5-28.2-35.7-33-44.3L45.9 205c0 .5-.3 1-.6 1.4-.4.3-.9.5-1.4.5l-27-1.5c30.5 29.6 43 96.1 57.5 172.6 4.6 24.2 9.3 49.5 15 74.8l105-.1zm74.2-222c.2.1.3.2.5.3.2.1.3.2.5.3 30.5 15.4 65.4 23.5 117.3 26.2l6.3.3c4.3.2 8.6.3 13.1.5 9 .3 18.4.4 28.4.4h7.4c4.8 0 9.6-.1 14.1-.2 66.6-1.4 107.9-9.4 143.4-27.5l.9-.6.1-.1c.3-.2.6-.5.9-.7 2.5-2.6 2.7-6.7.4-9.5l-.2-.2a7.21 7.21 0 0 0-8.6-1.9l-1.5.7h-.1c-1.1.5-2.2 1-3.4 1.5l-.6.2-2.9 1.2-1.1.4c-.8.3-1.6.7-2.5 1-.5.2-1.1.4-1.6.6l-1.9.7-2.2.8-1.4.5-2.9 1-.8.3c-1.2.4-2.4.8-3.5 1.2l-.3.1c-32.1 10.2-70.6 14.7-124.2 15.1h-14.6c-53.8-.4-92.4-4.9-124.5-15h-.1c-1.2-.4-2.5-.8-3.7-1.2l-.7-.2-3-1-1.3-.5-2.4-.9-1.8-.7-1.8-.7-2.3-1-1.2-.5-2.8-1.2-.7-.3c-1.1-.5-2.1-.9-3.2-1.4l-.2-.1c-.5-.2-1-.5-1.5-.7-1-.4-2-.7-3-.7-2.1 0-4.1.9-5.5 2.6l-.3.3c-2.5 3-2.1 7.5.9 10-.3.3-.1.4.1.6z" class="st0"/><path d="M342.6 489.7c-.8 9.2-1.7 18.4-2.8 27.4 3.9-.7 7.8-1 11.8-1.1 10.1 0 18.8 2.5 25.8 7.3 9 6.2 14.6 15.9 16.1 28.1 2.5 19.6-5.8 42.6-22.2 61.6-13.9 16.1-32.9 34.2-60.4 40.1-2.8 8.4-5.8 16.6-8.9 24.6 33.7-2.5 74.7-24.6 98.2-54.9 16.1-20.9 25-45.2 25.1-68.6.1-23.2-8.5-42.6-24.2-54.8-15.7-12.1-36.7-15.4-58.5-9.7z" class="st2"/><path fill="#FBECE9" d="M273.3 709.6h10.2c4.5-8.7 8.7-18 12.8-27.8.3-.6.5-1.3.8-1.9.3-.7.5-1.3.8-1.9 3.1-7.7 6-15.7 8.8-23.9.2-.7.5-1.4.7-2.1.2-.7.5-1.4.7-2.1 12.3-37.7 21.6-81 27.3-127.8l.3-2.1c.1-.7.2-1.4.2-2 1-8.9 2-17.9 2.8-27l.2-2.1.2-2.1c.8-9.9 1.5-20 1.9-30.1H42c5 100.8 25.7 191.2 57.5 253l173.8-.1zm22.8-89.1c1.1-4.5 2.1-9.1 3.2-13.7.2-1.1 1.3-1.7 2.3-1.5 1.1.2 1.7 1.3 1.5 2.3-1 4.7-2.1 9.3-3.2 13.8-.2.9-1 1.5-1.9 1.5-.2 0-.3 0-.5-.1-1-.2-1.6-1.2-1.4-2.3zm-23.3 69.9c7.8-18.2 14.5-36.8 20.1-55.8.3-1 1.4-1.6 2.4-1.3 1 .3 1.6 1.4 1.3 2.4-1.6 5.3-3.2 10.6-4.9 15.7-.2.7-.4 1.3-.7 1.9-2.9 8.8-5.9 17.2-9.1 25.3-.2.6-.5 1.2-.7 1.9-1.6 3.9-3.2 7.8-4.8 11.5-.3.7-1 1.2-1.8 1.2-.3 0-.5-.1-.8-.2-1-.5-1.4-1.6-1-2.6z"/><path d="M755.8 223.8c-34.1-2.5-77 18.1-117.9 56.6 3.2 5.6 6.1 11.2 8.9 16.7l2.1 4.2c.4.8.8 1.6 1.1 2.4 1 1.9 1.9 4 2.8 6l.8 1.8c.3.7.7 1.4 1 2.2.6 1.3 1.2 2.7 1.8 4 .2.4.3.7.5 1.1.7 1.6 1.3 3.2 1.9 4.8 37-34.8 75.2-51.6 100-44 5.6 1.6 10.6 5 14.2 9.6 10.2 13.1 12.2 40.2 5.4 74.4-8.9 44.4-31.6 94.3-62.3 137-22.1 30.7-45 56.5-64.4 72.6-.7 2.5-1.5 5.1-2.2 7.6-.2.6-.4 1.2-.5 1.8l-.5 1.8c-.5 1.7-1 3.4-1.6 5.1l-.3 1c-.8 2.5-1.6 5-2.4 7.4l-.7 2.1c-.6 1.9-1.3 3.9-1.9 5.8l-.6 1.8c-.8 2.5-1.7 5-2.6 7.5-.9 2.5-1.7 4.9-2.6 7.3l-.5 1.4c-.8 2.3-1.6 4.5-2.5 6.7l-.2.6c-.9 2.4-1.8 4.8-2.7 7.1l-.2.5C668.5 621 708.6 585 743.2 537c75.1-104.2 101.2-233.8 58.1-288.9-11.4-14.7-26.8-22.9-45.5-24.3z" class="st0"/><path d="M634.1 616c1.9-5.4 3.7-10.8 5.5-16.4l.6-1.8c.8-2.4 1.6-4.9 2.3-7.3l.3-.9c.6-2.1 1.3-4.3 1.9-6.4l.5-1.8c.2-.5.3-1 .5-1.6.8-2.8 1.7-5.6 2.5-8.4 16.8-58.2 26.7-115.4 26.7-154.9 0-31-7.6-61.3-18.6-88.8-2.3-5.8-4.8-11.6-7.4-17.2-.2-.4-.3-.7-.5-1-.6-1.3-1.2-2.6-1.9-3.9-.5-1-1-1.9-1.4-2.9-.3-.6-.6-1.1-.9-1.7-11.9-23.7-25.9-46.2-41.9-67.3-.4.3-.8.5-1.2.7l-.9.4c-1 .5-1.9 1-2.9 1.4l-1.4.6-2.4 1.1c-.4.2-.9.4-1.4.6-.8.4-1.7.8-2.5 1.1-4.5 2-9.2 3.8-14.1 5.5-2.8 1-5.6 1.9-8.4 2.8-14.5 4.4-29.3 7.6-44.3 9.5h-.2c-6.3.9-12.9 1.6-19.7 2.2-14.2 1.3-29.7 2.1-46.8 2.5-7 .1-14.2.2-21.7.2-3.8 0-7.5 0-11.1-.1h-5.6c-1.6 0-3.2 0-4.8-.1-1.3 0-2.6-.1-4-.1l-2.9-.1-3.6-.1-3.1-.1-3-.1-3.6-.1-2.6-.1-3.8-.2-2.6-.1-3.6-.2-2.8-.2-3.3-.2-2.5-.2-3.4-.3-2.3-.2-3.4-.3-2.3-.2-3.3-.3-2.2-.3-3.3-.4-2.1-.3-3.2-.4-1.9-.3c-1.1-.2-2.2-.3-3.2-.5l-1.9-.3-3.1-.5-1.9-.4-2.9-.5-1.9-.4c-1-.2-1.9-.4-2.9-.6-.6-.1-1.2-.3-1.8-.4-1-.2-1.9-.4-2.9-.6l-1.8-.4-2.9-.7-1.6-.4c-1-.2-1.9-.5-2.9-.7l-1.6-.4-2.8-.7-1.6-.4c-.9-.3-1.9-.5-2.8-.8-.5-.1-1-.3-1.5-.4l-2.8-.9-1.3-.4-2.8-.9-1.3-.4-2.8-1-1.3-.5c-.9-.3-1.9-.7-2.8-1l-1.2-.5c-.9-.4-1.8-.7-2.7-1.1l-1.1-.5-2.8-1.2-1-.5-2.8-1.2c-.3-.1-.6-.3-1-.4l-2.9-1.3-.9-.4-2.7-1.5c-14 18.8-32.6 46.7-47.3 79.5 0 .1-.1.1-.1.2-.8 1.7-1.5 3.5-2.3 5.2-.3.7-.6 1.3-.8 1.9l-1.8 4.2-1.5 3.9c-.3.8-.7 1.7-1 2.5-.6 1.4-1.1 2.9-1.6 4.4-.3.7-.5 1.4-.8 2.1-.6 1.6-1.1 3.2-1.7 4.9-.2.6-.4 1.1-.6 1.7-.6 1.8-1.1 3.5-1.7 5.3-.1.4-.3.8-.4 1.3-.6 1.9-1.1 3.8-1.7 5.7l-.3.9c-.5 2-1.1 4-1.6 6 0 .2-.1.4-.1.6-.5 2.1-1 4.1-1.4 6.2 0 .1-.1.3-.1.4-.4 2-.9 4.1-1.2 6.2 0 .1-.1.3-.1.4-.4 2-.7 4-1 6 0 .2-.1.4-.1.6-.3 1.9-.6 3.9-.8 5.8l-.1.7-.6 5.7c0 .3 0 .6-.1.8-.2 1.9-.3 3.7-.4 5.6l-.1.9c-.1 1.9-.2 3.7-.3 5.6v.7c-.1 1.9-.1 3.9-.1 5.8v9c0 .6 0 1.2.1 1.8.3 7.9.9 16.4 1.8 25.3h144.7c.5 0 1 .2 1.4.6.4.4.6.9.5 1.4-.5 10.4-1.1 20.7-1.9 30.9 22.6-5.6 44.2-1.9 60.6 10.7 16.7 12.9 25.8 33.5 25.7 57.9-.1 24.2-9.3 49.4-25.9 70.9-24.4 31.6-67.7 54.5-102.8 56.5-4 9.8-8.2 19.2-12.7 28H381c1.1 0 1.9.9 2 1.9 0 .5-.2 1-.5 1.3l-17 18.3h210.9c16.2-19.6 32.9-50.9 48.2-89.6 1.1-2.7 2.1-5.4 3.2-8.2v-.1c2.1-5.4 4.1-10.9 6.1-16.6 0 .3.1 0 .2-.2zM244.3 294c-6.2 9.7-11.9 19.4-16.8 28.7-.3.6-1 1-1.7 1-.3 0-.6-.1-.9-.2-.9-.5-1.3-1.7-.8-2.6 5-9.3 10.7-19 16.9-28.9.6-.9 1.8-1.2 2.7-.6.9.5 1.2 1.7.6 2.6zm12.1-18.3c-2.6 3.8-5.1 7.5-7.6 11.2-.4.6-1 .9-1.6.9-.4 0-.8-.1-1.1-.3-.9-.6-1.1-1.8-.6-2.7 2.4-3.7 5-7.5 7.6-11.3.6-.9 1.8-1.1 2.7-.5 1 .6 1.2 1.8.6 2.7z" class="st1"/><path d="M577 735.1H364.4v6.7c0 1.1-.3 2.3-.8 3.3H577c2.7 0 4.9-2.2 4.9-4.9v-.2c0-2.7-2.2-4.9-4.9-4.9z" class="st0"/><path d="M285.8 713.5H6.4l15.4 16.6c.4.4.6.8.6 1.4v10.4c0 1.8 1.5 3.2 3.3 3.3h331.6c1.8 0 3.3-1.5 3.3-3.3v-10.5c0-.4.2-.8.5-1.1l15.4-16.6-90.7-.2zm51.9 19.7c-.3.2-.6.3-1 .3H46.2c-1.1 0-1.9-.9-1.9-1.9s.9-1.9 1.9-1.9h290.5c1 0 1.8.7 1.9 1.7v.3c0 .5-.3 1.1-.9 1.5z" class="st2"/><path d="M389.7 552c-1.4-11-6.4-19.8-14.5-25.4-6.3-4.4-14.3-6.6-23.6-6.6-4.1 0-8.2.4-12.2 1.2-5.7 46.6-14.8 89.9-27 127.7 25.3-6.3 42.9-23.2 56-38.3 15.7-18.2 23.6-40.1 21.3-58.6z" class="st1"/><path d="M756 220c-35.1-2.6-78.7 18.2-120.2 57-9.3-15.9-19.5-31.3-30.6-46 .9-1.3 1.5-2.7 1.8-4.2.7-3.3-.2-6.7-2.3-9.3l-.2-.3c-3.2-3.9-8.6-5.1-13.2-2.9l-.2.1c-22.6-27-44.3-45.5-68.2-58-22-11.4-46.3-17.8-74-19.4 15.6-7.9 21.8-27.1 13.9-42.7s-27.1-21.8-42.7-13.9c-15.6 7.9-21.8 27.1-13.9 42.7 3 6 7.9 10.9 13.9 13.9-27.7 1.6-52 8-73.9 19.5-24 12.5-45.8 31-68.4 58.2l-.2-.1c-4.5-2.1-9.9-.9-13.2 2.9l-.3.3c-3.6 4.3-3.4 10.6.5 14.7-13.3 17.8-30.7 43.8-45.1 74.4C150 278 107 241.3 83.2 215.5c-26.2-28.2-35.7-49.7-35.8-49.9-.4-1-1.6-1.4-2.6-1-.7.3-1.1.9-1.2 1.7L42 202.8 11.4 201c-1.1-.1-2 .8-2.1 1.8 0 .6.2 1.2.7 1.6 32.6 26.6 45.4 95 60.4 174.2 4.5 23.9 9.2 49 14.8 74.1H39.9c-.5 0-1 .2-1.4.6-.4.4-.6.9-.5 1.4C42.8 556 63.3 646.9 95.1 709.6H2c-1.1 0-1.9.9-2 1.9 0 .5.2 1 .5 1.3l18 19.3v9.6c0 4 3.2 7.2 7.1 7.2H577c4.8 0 8.8-3.9 8.8-8.8v-.1c0-3.4-2-6.6-5.2-8 15.9-19.8 32.2-50.5 47.2-88.2 40.4-17.4 82.5-54.5 118.5-104.6 36.8-51 63.1-109.6 74.1-164.8 11.1-55.6 5.4-101.3-16-128.7-12.2-15.6-28.4-24.3-48.4-25.7zM406.7 108.8c0-15.4 12.5-27.8 27.8-27.8s27.8 12.5 27.8 27.8-12.5 27.8-27.8 27.8-27.8-12.5-27.8-27.8zm28 31.7c63.4 0 107.8 21.9 152.8 75.6l-2.7 1.2-1.5.6c-1.8.7-3.6 1.5-5.4 2.2l-1.2.5-.9.3c-1 .4-1.9.7-3 1.1-28.2 10.1-61.3 15.4-105.7 17h-.1c-1.9.1-3.8.1-5.7.2h-.5l-5.4.1h-.9l-5.2.1h-29.2c-1.8 0-3.5 0-5.3-.1h-.8c-1.9 0-3.7-.1-5.5-.1h-.4l-5.8-.2c-46.7-1.7-80.7-7.4-109.8-18.2h-.1l-2.2-.9c-1.7-.6-3.3-1.3-4.9-2l-1.2-.5c-.8-.4-1.7-.7-2.5-1.1 45.1-53.8 89.6-75.8 153.1-75.8zm-167.4 79.9l.3-.3c1.4-1.6 3.4-2.6 5.5-2.6 1.1 0 2.1.2 3 .7.5.2 1 .5 1.5.7l.2.1c1.1.5 2.1.9 3.2 1.4l.7.3 2.8 1.2 1.2.5 2.3 1 1.8.7 1.8.7 2.4.9 1.3.5 3 1 .7.2c1.2.4 2.5.8 3.7 1.2h.1c32.1 10.1 70.7 14.6 124.5 15h14.6c53.6-.4 92.1-4.9 124.2-15.1l.3-.1c1.2-.4 2.4-.8 3.5-1.2l.8-.3 2.9-1 1.4-.5 2.2-.8 1.9-.7c.5-.2 1.1-.4 1.6-.6.8-.3 1.7-.7 2.5-1l1.1-.4 2.9-1.2.6-.2c1.1-.5 2.2-1 3.4-1.5h.1l1.5-.7c3-1.4 6.5-.6 8.6 1.9l.2.2c2.3 2.8 2.2 6.9-.4 9.5-.3.3-.6.5-.9.7l-.1.1-.9.6c-35.5 18.1-76.8 26.1-143.4 27.5-4.6.1-9.3.2-14.1.2h-7.4c-10 0-19.4-.1-28.4-.4-4.5-.1-8.9-.3-13.1-.5l-6.3-.3c-51.8-2.8-86.8-10.8-117.3-26.2-.2-.1-.3-.2-.5-.3-.2-.1-.3-.2-.5-.3-3.2-2.3-3.9-6.7-1.6-9.9.4-.4.5-.5.6-.7zM74.2 377.9c-14.4-76.5-27-143-57.5-172.7l27 1.5c.5 0 1-.2 1.4-.5.4-.3.6-.8.6-1.4l1.6-31.2c4.7 8.6 14.9 24.7 33 44.3 24.2 26.1 67.6 63.2 137.7 92.4-2.6 5.7-5 11.3-7.1 16.9 0 .1-.1.2-.1.3-.8 2-1.5 4-2.3 6-.2.4-.3.9-.5 1.3-.6 1.7-1.3 3.4-1.8 5.1-.4 1.1-.7 2.2-1.1 3.2-.4 1.1-.7 2.2-1.1 3.3-.4 1.3-.8 2.7-1.2 4-.3.8-.5 1.7-.7 2.5-.4 1.5-.8 2.9-1.2 4.4-.2.7-.4 1.5-.6 2.2-.4 1.6-.8 3.1-1.2 4.7l-.4 1.8c-.4 1.7-.8 3.3-1.1 5l-.3 1.5c-.4 1.8-.7 3.5-1.1 5.3-.1.4-.1.7-.2 1.1-.3 1.9-.7 3.7-1 5.6l-.1.6c-.3 1.9-.5 3.7-.8 5.6 0 .2 0 .4-.1.6l-.6 5.7-.1.9c-.2 1.8-.3 3.7-.4 5.5 0 .3 0 .7-.1 1-.1 1.8-.2 3.7-.3 5.5v.8c-.1 1.9-.1 3.8-.1 5.7v9c0 .7 0 1.5.1 2.2.1 2.6.2 5.3.4 8.1v.7c.1 1.1.1 2.2.2 3.3v.1c.3 4.1.7 8.3 1.1 12.7H89.1c-5.5-25.1-10.3-50.4-14.9-74.6zM42 456.6h298.9c-.5 10.1-1.2 20.2-1.9 30.1l-.2 2.1-.2 2.1c-.8 9.1-1.7 18.1-2.8 27-.1.7-.2 1.4-.2 2l-.3 2.1c-5.8 46.8-15 90.1-27.3 127.8-.2.7-.5 1.4-.7 2.1-.2.7-.5 1.4-.7 2.1-2.8 8.3-5.7 16.2-8.8 23.9-.3.6-.5 1.3-.8 1.9s-.5 1.3-.8 1.9c-4 9.8-8.3 19.1-12.8 27.8h-184C67.6 647.8 47 557.4 42 456.6zm383.4 97.6c-.1 23.4-9 47.7-25.1 68.5-23.4 30.3-64.4 52.4-98.2 54.9 3.1-7.9 6.1-16.1 8.9-24.6 27.5-6 46.5-24 60.4-40.1 16.4-19 24.7-42 22.2-61.6-1.5-12.2-7.1-21.9-16.1-28.1-7-4.9-15.7-7.3-25.8-7.3-3.9 0-7.9.4-11.8 1.1 1.1-9 2-18.1 2.8-27.4 21.9-5.7 42.8-2.4 58.6 9.7 15.6 12.3 24.2 31.8 24.1 54.9zm-113 94.6c12.1-37.8 21.3-81 27-127.7 4-.8 8.1-1.2 12.2-1.2 9.3 0 17.3 2.2 23.6 6.6 8.1 5.6 13.1 14.4 14.5 25.4 2.4 18.5-5.6 40.4-21.3 58.5-13.1 15.2-30.8 32.2-56 38.4zm48.2 82.4v10.6c0 1.8-1.5 3.3-3.3 3.3H25.7c-1.8 0-3.2-1.5-3.3-3.3v-10.3c0-.5-.2-1-.5-1.3L6.4 713.5h370.1l-15.4 16.6c-.3.3-.5.7-.5 1.1zm221.3 8.8v.3c0 2.7-2.2 4.9-4.9 4.9H363.6c.5-1 .8-2.2.8-3.3v-6.7H577c2.7-.1 4.9 2.1 4.9 4.8zm45.8-106.7v.1c-1.1 2.8-2.1 5.5-3.2 8.2-15.3 38.7-32.1 70-48.2 89.6h-211l17-18.3c.7-.8.7-2-.1-2.8-.4-.3-.8-.5-1.3-.5h-93.1c4.4-8.8 8.7-18.1 12.7-28 35.2-1.9 78.4-24.9 102.8-56.5 16.6-21.5 25.8-46.7 25.9-70.9.1-24.4-9-45-25.7-57.9-16.4-12.7-38.1-16.3-60.6-10.7.8-10.2 1.5-20.5 1.9-30.9 0-.5-.2-1-.5-1.4-.4-.4-.9-.6-1.4-.6H198.3c-.9-9-1.5-17.4-1.8-25.3 0-.6 0-1.2-.1-1.8s0-1.2 0-1.8v-7.2c0-1.9 0-3.9.1-5.8v-.7c.1-1.9.2-3.7.3-5.6l.1-.9c.1-1.9.3-3.7.4-5.6 0-.3.1-.5.1-.8l.6-5.7.1-.7c.3-1.9.5-3.9.8-5.8 0-.2.1-.4.1-.6.3-2 .7-4 1-6 0-.1 0-.3.1-.4.4-2.1.8-4.1 1.2-6.2 0-.1.1-.3.1-.4.4-2.1.9-4.1 1.4-6.2 0-.2.1-.4.1-.6.5-2 1-4 1.6-6l.3-.9c.5-1.9 1.1-3.8 1.7-5.7.1-.4.3-.8.4-1.3.5-1.8 1.1-3.5 1.7-5.3.2-.6.4-1.1.6-1.7.5-1.6 1.1-3.2 1.7-4.9.3-.7.5-1.4.8-2.1.5-1.5 1.1-2.9 1.6-4.4.3-.8.6-1.7 1-2.5l1.5-3.9c.6-1.3 1.2-2.8 1.8-4.2.3-.7.6-1.3.8-1.9.7-1.8 1.5-3.5 2.3-5.2 0-.1.1-.2.1-.2 14.7-32.8 33.3-60.7 47.3-79.5l2.7 1.3.9.4 2.9 1.3c.3.1.6.3 1 .4l2.8 1.2 1 .5 2.8 1.2 1.1.5c.9.4 1.8.7 2.7 1.1l1.2.5c.9.4 1.8.7 2.8 1l1.3.5 2.8 1 1.3.4 2.8.9 1.3.4 2.8.9c.5.1 1 .3 1.5.4.9.3 1.8.5 2.8.8l1.6.4 2.8.7 1.6.4c1 .2 1.9.5 2.9.7l1.6.4 2.9.7 1.8.4c1 .2 1.9.4 2.9.6.6.1 1.2.3 1.8.4 1 .2 1.9.4 2.9.6l1.9.4 2.9.5 1.9.4 3.1.5 1.9.3c1.1.2 2.1.3 3.2.5l1.9.3 3.2.4 2.1.3 3.3.4 2.2.3 3.3.3 2.3.2 3.4.3 2.3.2 3.4.3 2.5.2 3.3.2 2.8.2 3.6.2 2.6.1 3.8.2 2.6.1 3.6.1 3 .1 3.1.1 3.6.1 2.9.1c1.3 0 2.6.1 4 .1 1.6 0 3.2.1 4.8.1h5.9c3.6 0 7.3.1 11.1.1 7.5 0 14.7-.1 21.7-.2 17.1-.4 32.6-1.1 46.8-2.5 6.9-.6 13.4-1.4 19.7-2.2h.2c15-2 29.8-5.2 44.3-9.5 2.9-.9 5.7-1.8 8.4-2.8 4.8-1.7 9.5-3.5 14.1-5.5.8-.4 1.7-.7 2.5-1.1.4-.2.9-.4 1.4-.6l2.4-1.1 1.4-.6c1-.5 1.9-1 2.9-1.4l.9-.4c.4-.2.8-.4 1.2-.7 16 21.1 30 43.7 41.9 67.3.3.6.6 1.1.9 1.7.5 1 1 1.9 1.4 2.9.6 1.3 1.3 2.6 1.9 3.9.2.4.3.7.5 1 2.6 5.6 5.1 11.3 7.4 17.2 10.9 27.5 18.6 57.8 18.6 88.8 0 39.5-9.9 96.7-26.7 154.9-.8 2.8-1.6 5.6-2.5 8.4-.1.5-.3 1-.5 1.6l-.5 1.8c-.6 2.2-1.3 4.3-1.9 6.4l-.3.9c-.8 2.5-1.5 4.9-2.3 7.3l-.6 1.8c-1.8 5.6-3.7 11-5.5 16.4-.1.2-.2.5-.3.7-2.5 5.4-4.5 11-6.6 16.4zm32.7-305.7c35.9-34 74-51.3 97.3-44.2 4.9 1.4 9.1 4.3 12.3 8.3 9.6 12.2 11.2 38.2 4.7 71.2-8.8 43.9-31.2 93.3-61.6 135.5-20.3 28.2-41.1 52.1-59.3 68.1 15.8-56.4 25.1-111.4 25.1-149.8-.1-31.1-7.6-61.5-18.5-89.1zM743.2 537c-34.6 48-74.7 83.9-113.4 101.7l.2-.5c.9-2.4 1.8-4.7 2.7-7.1l.2-.6c.8-2.2 1.6-4.4 2.5-6.7l.5-1.3c.9-2.4 1.7-4.9 2.6-7.3.9-2.5 1.7-5 2.6-7.5l.6-1.8c.6-1.9 1.3-3.8 1.9-5.8l.7-2.1c.8-2.5 1.6-4.9 2.4-7.4l.3-1c.5-1.7 1-3.4 1.6-5.1l.5-1.7c.2-.6.4-1.2.5-1.8.8-2.5 1.5-5.1 2.2-7.6 19.4-16.1 42.3-41.9 64.4-72.6 30.7-42.6 53.4-92.5 62.3-137 6.8-34.2 4.9-61.3-5.4-74.4-3.6-4.6-8.6-8-14.2-9.6-24.8-7.6-62.9 9.3-100 44-.7-1.6-1.3-3.2-1.9-4.8-.2-.4-.3-.7-.5-1.1-.6-1.4-1.2-2.7-1.8-4-.3-.7-.6-1.5-1-2.2l-.9-1.9c-1-2-1.9-4-2.8-6-.4-.8-.8-1.6-1.1-2.4l-2.1-4.2c-2.8-5.6-5.8-11.2-8.9-16.7 40.9-38.5 83.8-59.1 117.9-56.6 18.8 1.4 34.1 9.6 45.6 24.2 42.9 55.1 16.9 184.7-58.2 288.9z"/><path d="M243.7 291.3c-.9-.6-2.1-.3-2.7.6-6.3 9.9-11.9 19.6-16.9 28.9-.5.9-.2 2.1.8 2.6.3.1.6.2.9.2.7 0 1.4-.4 1.7-1 4.9-9.2 10.6-18.9 16.8-28.7.6-.8.3-2-.6-2.6zm12.2-18.3c-.9-.6-2.1-.4-2.7.5-2.6 3.8-5.2 7.6-7.6 11.3-.6.9-.3 2.1.6 2.7.3.2.7.3 1.1.3.7 0 1.3-.3 1.6-.9 2.4-3.7 5-7.5 7.6-11.2.5-.9.3-2.1-.6-2.7zm17.9 419.9c.2.1.5.2.8.2.8 0 1.5-.5 1.8-1.2 1.6-3.7 3.2-7.6 4.8-11.5.3-.6.5-1.2.7-1.9 3.2-8.1 6.2-16.6 9.1-25.3.2-.7.4-1.3.7-1.9 1.7-5.1 3.3-10.4 4.9-15.7.3-1-.3-2.1-1.3-2.4-1-.3-2.1.3-2.4 1.3-5.5 19-12.2 37.7-20.1 55.8-.5 1 0 2.2 1 2.6zm23.8-70c.1 0 .3.1.5.1.9 0 1.7-.6 1.9-1.5 1.1-4.5 2.2-9.1 3.2-13.8.2-1.1-.4-2.1-1.5-2.3-1.1-.2-2.1.4-2.3 1.5-1 4.6-2.1 9.2-3.2 13.7-.3.9.3 2 1.4 2.3zm39.1 106.6H46.2c-1.1 0-1.9.9-1.9 1.9 0 1.1.9 1.9 1.9 1.9h290.5c.3 0 .7-.1 1-.3.6-.3 1-1 1-1.7v-.3c-.2-.8-1-1.5-2-1.5z"/></svg>