<svg xmlns="http://www.w3.org/2000/svg" id="Слой_1" x="0" y="0" version="1.1" viewBox="0 0 826 826" xml:space="preserve"><style>.st0{fill:#EEF5FA}.st1{fill:#DDE1E5}.st3{fill:#F1F6F7}</style><path d="M79.8 99.2c-.8 5-1.6 10.2-2.3 15.8-1.8 14.3-3.2 29.4-4.1 45-.8 15.2-1.2 31.1-1.1 46.9.1 15.7.7 31.6 1.8 47.3s2.6 31.1 4.6 46c1.6 11.1 3.2 22 5.1 32.6 2.9 16.2 7.2 32 12.1 49.4 2.3 8.2 5.1 18.1 8 27.9h2.9l.1-368c-4.5.8-9 4.4-12.8 10.4-6.1 9.8-10.8 25.1-14.3 46.7z" class="st0"/><path d="M93 410.2c-5.7-9.4-11.2-18.9-16.2-27.4-7.5-12.8-16-27.4-22.2-42.4-5.4-13.4-10-27-13.7-41-3.8-14.3-6.7-28.9-8.7-43.6C30 241 28.8 226 28.4 211c-.3-15 .2-29.9 1.7-44.8 1.4-14.6 3.8-29.1 7.2-43.4 1.9-8 4.1-15.9 6.5-23.4 7.3-22.6 17.4-38.6 30.8-49.1 1.3-1 2.6-1.9 4-2.8-4.7 1.7-9.3 3.8-13.6 6.3-17.5 10.2-30.7 25.9-40.4 48-16.2 37-23.1 79.2-20.1 122 .3 4.6.8 9.2 1.3 13.8 3.7 29.9 11.4 57.1 22.9 80.8 11.6 24.1 25.9 46.7 42.6 67.6 5.1 6.4 13 15.8 20.2 24.1H93z" class="st0"/><path d="M208.5 253.6c7-39.5 5.4-80.3-4.7-121.3-5.4-22.5-21.7-70.1-65.1-85.3 28.3 18.5 39.2 61.7 42.9 83 7.5 40.4 8.7 81.7 3.5 122.4-6.6 51.4-23.4 99.3-49.7 142.4-3 4.9-6.2 10.1-9.7 15.4h.6c5.3-5.8 10.3-11.7 15.2-17.4 5.2-6.2 10.1-12.4 14.6-18.6 26.8-36.6 44.9-78.3 52.4-120.6z" class="st1"/><path d="M118.8 393c12.6-43.1 20.7-91.1 23.9-142.6 2.5-40.4 1.9-81-1.7-121.3-4.5-52-15.7-84-30.2-86.9l-.1 367.9h2.9c1.9-5.8 3.6-11.7 5.2-17.1z" class="st1"/><path fill="#D5E7F2" d="M123.2 414H78.7v360.7c0 5 4.1 9.1 9.1 9.2h44.7c5.1 0 9.2-4.1 9.2-9.2V414h-18.5zM88.1 570.1c0 1.1-.9 1.9-1.9 1.9-1.1 0-1.9-.9-1.9-1.9v-8.5c0-1.1.9-1.9 1.9-1.9 1.1 0 1.9.9 1.9 1.9v8.5zm0-18.5c0 1.1-.9 1.9-1.9 1.9-1.1 0-1.9-.9-1.9-1.9v-97.5c0-1.1.9-1.9 1.9-1.9 1.1 0 1.9.9 1.9 1.9v97.5z"/><path d="M357.5 314.1c-8.4-71-29.9-174.8-84.4-267.4l-.4 399.3h90.2c.6-11.2 2.8-63.1-5.4-131.9z" class="st0"/><path d="M711.4 309.4c-3 .7-5.5 2.8-6.5 5.8h6.5v-5.8z" class="st3"/><path d="M122.6 394.1c-1.5 5.1-3.1 10.6-4.9 16h3.4c3.9-5.9 7.6-11.9 11-17.4 26.1-42.6 42.6-90 49.2-140.9 5.1-40.4 4-81.3-3.5-121.2-4.3-24.3-18.1-78.2-57.1-87.3 15.6 14.8 21.8 57.8 24.2 85.5 3.6 40.5 4.2 81.2 1.7 121.8-3.2 51.9-11.3 100.1-24 143.5z" class="st0"/><path d="M47.5 100.5c-2.4 7.5-4.6 15.2-6.5 23.2-3.3 14.1-5.6 28.5-7 42.9-1.4 14.7-2 29.5-1.6 44.3.3 14.8 1.5 29.7 3.6 44.4 2.1 14.5 5 28.9 8.7 43.1 3.6 13.8 8.1 27.3 13.5 40.5 6.1 14.8 14.5 29.2 21.9 41.9 5.3 9.1 11.3 19.3 17.4 29.3h2.5c-2.8-9.4-5.4-18.9-7.7-26.8-4.9-17.5-9.2-33.3-12.2-49.7-1.9-10.7-3.5-21.6-5.1-32.8-1.9-15-3.5-30.6-4.6-46.3s-1.7-31.7-1.8-47.5c-.1-16 .2-31.9 1.1-47.2.9-15.7 2.2-30.9 4.1-45.3.7-5.7 1.5-10.9 2.3-16C79.7 76 84.4 60.7 91 50.4c1.6-2.5 3.4-4.8 5.5-6.8-7.1 1.9-13.7 5.1-19.4 9.6-12.9 10.1-22.5 25.5-29.6 47.3z" class="st1"/><path fill="#FAF8DD" d="M470.4 177.8h-21.5c-5.8 0-10.5 4.7-10.5 10.5v449.4c0 5.8 4.7 10.5 10.5 10.5h94.4c5.8 0 10.5-4.7 10.5-10.5V188.3c0-5.8-4.7-10.5-10.5-10.5h-72.9zm-21.1 171.5c0 1.1-.9 1.9-1.9 1.9s-1.9-.9-1.9-1.9v-8.7c0-1.1.9-1.9 1.9-1.9s1.9.9 1.9 1.9v8.7zm0-18.9c0 1.1-.9 1.9-1.9 1.9s-1.9-.9-1.9-1.9v-99c0-1.1.9-1.9 1.9-1.9s1.9.9 1.9 1.9v99zm92.8 178c0-1.1.9-1.9 1.9-1.9 1.1 0 1.9.9 1.9 1.9v99c0 1.1-.9 1.9-1.9 1.9-1.1 0-1.9-.9-1.9-1.9v-99zm0 109.2c0-1.1.9-1.9 1.9-1.9 1.1 0 1.9.9 1.9 1.9v8.7c0 1.1-.9 1.9-1.9 1.9-1.1 0-1.9-.9-1.9-1.9v-8.7z"/><path fill="#F7F4C7" d="M472.8 775.1c0 4.9 4 8.9 8.9 8.9h29.9c4.9 0 8.9-4 8.9-8.9v-123h-47.6l-.1 123zm47.1-724.2c0-4.9-4-8.9-8.9-8.9h-29.9c-4.9 0-8.9 4-8.9 8.9v123h47.6l.1-123z"/><path d="M722.2 319h-6.9v7.5c3.6-.7 6.4-3.8 6.9-7.5zm-6.9-9.6v5.8h6.5c-1.1-3-3.5-5.2-6.5-5.8zM299.9 502.8v-7.6H293c.5 3.7 3.3 6.7 6.9 7.6zm10.8-7.7h-6.9v7.6c3.7-.8 6.5-3.8 6.9-7.6zm-6.9-9.7v5.8h6.5c-1-2.9-3.5-5.1-6.5-5.8zm-3.9 0c-3 .7-5.5 2.9-6.5 5.8h6.5v-5.8z" class="st3"/><path d="M352.1 459.6h10.7v-9.2h-90.1v12.4h64.7c1.7-1.6 5.6-3.2 14.7-3.2z" class="st1"/><path fill="#FBE0DC" d="M326.5 784c5.1 0 9.2-4.1 9.2-9.2V467.1h-63v307.7c0 5.1 4.1 9.2 9.2 9.2h44.6zm-24.6-302.7c7.1 0 12.8 5.7 12.8 12.8 0 7.1-5.7 12.8-12.8 12.8-7.1 0-12.8-5.7-12.8-12.8 0-7.1 5.7-12.8 12.8-12.8zm-22.7 19.5c0-1.1.9-1.9 1.9-1.9 1.1 0 1.9.9 1.9 1.9v83.8c0 1.1-.9 1.9-1.9 1.9-1.1 0-1.9-.9-1.9-1.9v-83.8zm0 99.7v-7.4c0-1.1.9-1.9 1.9-1.9 1.1 0 1.9.9 1.9 1.9v7.4c0 1.1-.9 1.9-1.9 1.9-1.1 0-1.9-.9-1.9-1.9z"/><path d="M711.4 326.6V319h-6.9c.5 3.7 3.2 6.8 6.9 7.6z" class="st3"/><path d="M803.8 275.6l18.3-224.9c.2-2.2-.6-4.4-2.1-6-1.5-1.7-3.7-2.6-5.9-2.6H612.6c-2.3 0-4.4.9-5.9 2.6-1.5 1.6-2.3 3.8-2.1 6l18.3 224.9c.4 4.1 3.8 7.3 8 7.3h165c4.1 0 7.5-3.2 7.9-7.3zm-184.3-122l-6.1-71.2c-.1-1.1.7-2 1.8-2.1 1.1-.1 2 .7 2.1 1.8l6.1 71.2c.1 1.1-.7 2-1.8 2.1h-.2c-1 0-1.8-.8-1.9-1.8zm4.1 22.9h-.2c-1 0-1.9-.8-1.9-1.8l-1.1-13.1c-.1-1.1.7-2 1.8-2.1s2 .7 2.1 1.8l1.1 13.1c.1 1.1-.7 2-1.8 2.1zm40.8 73.8c0 1.1-.9 1.9-1.9 1.9h-16.9c-1.1 0-1.9-.9-1.9-1.9V74.6c0-1.1.9-1.9 1.9-1.9h17c1.1 0 1.9.9 1.9 1.9l-.1 175.7zm39.5 0c0 1.1-.9 1.9-1.9 1.9h-16.9c-1.1 0-1.9-.9-1.9-1.9V74.6c0-1.1.9-1.9 1.9-1.9h17c1.1 0 1.9.9 1.9 1.9l-.1 175.7zm39.6 0c0 1.1-.9 1.9-1.9 1.9h-16.9c-1.1 0-1.9-.9-1.9-1.9V74.6c0-1.1.9-1.9 1.9-1.9h17c1.1 0 1.9.9 1.9 1.9l-.1 175.7zm39.6 0c0 1.1-.9 1.9-1.9 1.9h-16.9c-1.1 0-1.9-.9-1.9-1.9V74.6c0-1.1.9-1.9 1.9-1.9h17c1.1 0 1.9.9 1.9 1.9l-.1 175.7z" class="st0"/><path fill="#D0E7DD" d="M681.8 774.8c0 5.1 4.1 9.2 9.2 9.2h44.7c5.1 0 9.2-4.1 9.2-9.2V287.2h-63v487.6zm31.5-469.5c7 0 12.7 5.8 12.6 12.8 0 7-5.8 12.7-12.8 12.6-7 0-12.6-5.7-12.6-12.7.1-7.1 5.8-12.7 12.8-12.7zm-25.9 36.2c0-1.1.9-1.9 1.9-1.9 1.1 0 1.9.9 1.9 1.9v130.6c0 1.1-.9 1.9-1.9 1.9-1.1 0-1.9-.9-1.9-1.9V341.5zm0 143.9c0-1.1.9-1.9 1.9-1.9 1.1 0 1.9.9 1.9 1.9v11.5c0 1.1-.9 1.9-1.9 1.9-1.1 0-1.9-.9-1.9-1.9v-11.5z"/><path d="M159.3 376.5c27.1-37.1 45.4-79.3 53-122.2 7.1-40.1 5.5-81.4-4.8-122.9-6.6-27.9-29.5-92.8-97.9-93.2h-1.3c-15.9.1-31.5 4.3-45.3 12.2-18.2 10.7-31.9 27-41.9 49.9C4.6 137.8-2.4 180.7.7 224.1c.3 4.6.8 9.3 1.4 14 3.7 30.3 11.5 57.9 23.3 82 11.8 24.3 26.2 47.3 43.1 68.4 1.7 2.2 9.8 12 18.1 21.7h-9.8c-1.1 0-1.9.9-1.9 1.9v362.7c0 7.2 5.8 13 13 13.1h44.7c7.2 0 13-5.8 13.1-13.1V412.1c0-1.1-.9-1.9-1.9-1.9h-11.9c4.5-5 8.7-10 12.9-14.9 5-6.3 10-12.6 14.5-18.8zm-14.4-247.7c-2.4-27.7-8.5-70.6-24.2-85.5 38.9 9.1 52.8 62.9 57.1 87.3 7.4 40 8.6 80.9 3.5 121.2-6.6 50.9-23.1 98.3-49.2 140.9-3.4 5.5-7.1 11.5-11 17.4h-3.4c1.7-5.5 3.4-10.9 4.9-16 12.7-43.4 20.8-91.6 24.1-143.5 2.4-40.5 1.9-81.3-1.8-121.8zm-34-86.5c14.5 2.8 25.7 34.8 30.2 86.9 3.6 40.3 4.2 80.9 1.7 121.3-3.2 51.5-11.3 99.5-23.9 142.6-1.6 5.4-3.4 11.3-5.2 17.1h-2.8V42.3zm-3.9-.1l-.1 368H104c-2.9-9.8-5.7-19.7-8-27.9-4.9-17.4-9.2-33.1-12.1-49.4-1.9-10.7-3.5-21.5-5.1-32.6-1.9-14.9-3.5-30.4-4.6-46s-1.7-31.6-1.8-47.3c-.1-15.9.2-31.7 1.1-46.9.9-15.5 2.2-30.7 4.1-45 .7-5.6 1.5-10.8 2.3-15.8 3.4-21.6 8.1-36.9 14.4-46.6 3.7-6.1 8.2-9.7 12.7-10.5zm-16.1 8.3C84.3 60.9 79.6 76.2 76 98.6c-.8 5-1.6 10.3-2.3 16-1.9 14.4-3.2 29.6-4.1 45.3-.8 15.3-1.2 31.2-1.1 47.2.1 15.8.7 31.8 1.8 47.5s2.6 31.3 4.6 46.3c1.6 11.2 3.2 22.1 5.1 32.8 3 16.4 7.3 32.2 12.2 49.7 2.2 7.9 4.9 17.4 7.7 26.8h-2.5c-6.1-10-12.1-20.2-17.4-29.3-7.4-12.7-15.9-27.1-21.9-41.9-5.4-13.2-9.9-26.7-13.5-40.5-3.8-14.2-6.7-28.6-8.7-43.1-2.1-14.7-3.3-29.5-3.6-44.4-.3-14.8.2-29.6 1.7-44.3 1.4-14.4 3.8-28.8 7.1-42.9 1.9-7.9 4-15.7 6.5-23.2 7.1-21.8 16.7-37.2 29.5-47.2 5.8-4.5 12.4-7.8 19.4-9.6-2.1 1.9-4 4.2-5.6 6.7zM71.4 386.1c-16.7-20.9-30.9-43.6-42.6-67.6-11.5-23.8-19.2-51-22.9-80.8-.6-4.6-1-9.2-1.3-13.8-3.1-42.8 3.9-85 20.1-122C34.4 79.7 47.5 64 65 53.8c4.3-2.5 8.9-4.6 13.6-6.3-1.3.9-2.7 1.8-4 2.8-13.4 10.4-23.5 26.5-30.8 49-2.5 7.6-4.7 15.5-6.6 23.5-3.3 14.3-5.7 28.8-7.1 43.4-1.5 14.9-2 29.8-1.7 44.8.4 15 1.6 30 3.7 44.8 2 14.7 5 29.2 8.7 43.6 3.7 13.9 8.3 27.6 13.7 41 6.2 15.1 14.7 29.6 22.2 42.4 5 8.5 10.5 18 16.2 27.4h-1.3c-7.2-8.4-15-17.8-20.2-24.1zm70.2 27.9v360.7c0 5.1-4.1 9.2-9.2 9.2H87.8c-5 0-9.1-4.1-9.1-9.2V414h62.9zm-15.2-3.8h-.6c3.4-5.3 6.7-10.5 9.7-15.4 26.3-43.1 43.1-91 49.7-142.4 5.2-40.7 4-82.1-3.6-122.4-3.8-21.4-14.7-64.5-43-83 43.4 15.3 59.7 62.8 65.1 85.3 10.1 41 11.8 81.8 4.7 121.4-7.4 42.3-25.5 84-52.3 120.5-4.5 6.1-9.4 12.4-14.6 18.6-4.8 5.7-9.8 11.6-15.1 17.4z"/><path d="M86.2 452.1c-1.1 0-1.9.9-1.9 1.9v97.5c0 1.1.9 1.9 1.9 1.9 1.1 0 1.9-.9 1.9-1.9V454c0-1-.9-1.9-1.9-1.9zm0 107.5c-1.1 0-1.9.9-1.9 1.9v8.6c0 1.1.9 1.9 1.9 1.9 1.1 0 1.9-.9 1.9-1.9v-8.6c0-1-.9-1.9-1.9-1.9zm240.3 228.2c7.2 0 13-5.8 13.1-13.1V466.4c.2-.2.3-.4.3-.6.2-.3 2.3-2.3 12.2-2.3h12.6c1.1 0 1.9-.9 1.9-1.9v-13.1c.2-2.3 3.9-58.3-5.2-134.8-8.5-71.9-30.4-177.2-86.1-270.9-.9-1.5-2.9-2.1-4.5-1.1-1 .6-1.6 1.6-1.6 2.8l-.4 403.5v326.8c0 7.2 5.8 13 13.1 13.1h44.6zM273.1 46.7c54.5 92.6 76 196.4 84.4 267.4 8.2 68.8 6 120.8 5.3 132h-90.2l.5-399.4zm-.4 403.7h90.1v9.2H352c-9.1 0-13 1.6-14.7 3.2h-64.7l.1-12.4zm0 324.3V467.1h63v307.7c0 5.1-4.1 9.2-9.2 9.2h-44.7c-5.1-.1-9.1-4.2-9.1-9.3z"/><path d="M281.1 586.5c1.1 0 1.9-.9 1.9-1.9v-83.8c0-1.1-.9-1.9-1.9-1.9-1.1 0-1.9.9-1.9 1.9v83.8c0 1.1.8 1.9 1.9 1.9zm1.9 14v-7.4c0-1.1-.9-1.9-1.9-1.9-1.1 0-1.9.9-1.9 1.9v7.4c0 1.1.9 1.9 1.9 1.9 1.1 0 1.9-.9 1.9-1.9zm18.9-93.6c7.1 0 12.8-5.7 12.8-12.8 0-7.1-5.7-12.8-12.8-12.8s-12.8 5.7-12.8 12.8c0 7 5.7 12.8 12.8 12.8zm1.9-21.5c3 .7 5.5 2.9 6.5 5.8h-6.5v-5.8zm0 9.7h6.9c-.5 3.7-3.2 6.8-6.9 7.6v-7.6zm-3.9-9.7v5.8h-6.5c1.1-2.9 3.5-5.1 6.5-5.8zm0 9.7v7.6c-3.7-.8-6.4-3.9-6.9-7.6h6.9zm147.4-265.6c-1.1 0-1.9.9-1.9 1.9v99c0 1.1.9 1.9 1.9 1.9s1.9-.9 1.9-1.9v-99c.1-1.1-.8-1.9-1.9-1.9zm0 109.1c-1.1 0-1.9.9-1.9 1.9v8.7c0 1.1.9 1.9 1.9 1.9s1.9-.9 1.9-1.9v-8.7c.1-1-.8-1.9-1.9-1.9zM544 609.4c1.1 0 1.9-.9 1.9-1.9v-99c0-1.1-.9-1.9-1.9-1.9-1.1 0-1.9.9-1.9 1.9v99c0 1.1.8 1.9 1.9 1.9zm0 18.8c1.1 0 1.9-.9 1.9-1.9v-8.7c0-1.1-.9-1.9-1.9-1.9-1.1 0-1.9.9-1.9 1.9v8.7c0 1.1.8 1.9 1.9 1.9z"/><path d="M511.1 38.2h-29.9c-7 0-12.7 5.7-12.8 12.8v123h-19.5c-7.9 0-14.4 6.4-14.4 14.4v449.4c0 7.9 6.4 14.4 14.4 14.4h20v123c0 7.1 5.7 12.8 12.8 12.8h29.9c7 0 12.8-5.7 12.8-12.8v-123h19.1c7.9 0 14.4-6.4 14.4-14.4V188.3c0-7.9-6.4-14.4-14.4-14.4H524v-123c-.2-7-5.9-12.7-12.9-12.7zm-38.8 12.7c0-4.9 4-8.9 8.9-8.9h29.9c4.9 0 8.9 4 8.9 8.9v123h-47.6l-.1-123zm48.1 724.2c0 4.9-4 8.9-8.9 8.9h-29.8c-4.9 0-8.9-4-8.9-8.9v-123h47.6v123zm22.9-597.2c5.8 0 10.5 4.7 10.5 10.5v449.3c0 5.8-4.7 10.5-10.5 10.5h-94.4c-5.8 0-10.5-4.7-10.5-10.5V188.3c0-5.8 4.7-10.5 10.5-10.5l94.4.1zM691 787.8h44.7c7.2 0 13-5.9 13-13.1v-488h47.1c6.2 0 11.3-4.7 11.9-10.9L826 51c.5-6.5-4.4-12.2-10.9-12.8H612.6c-3.3 0-6.5 1.4-8.7 3.9-2.2 2.4-3.3 5.7-3.1 8.9L619 275.9c.6 6.1 5.7 10.8 11.8 10.9H678v488c0 7.2 5.8 13 13 13zm53.8-13c0 5.1-4.1 9.2-9.2 9.2H691c-5.1 0-9.2-4.1-9.2-9.2V287.2h63v487.6zm-114-491.9c-4.2 0-7.6-3.2-8-7.3l-18.2-225c-.2-2.2.6-4.4 2.1-6 1.5-1.7 3.7-2.6 5.9-2.6h201.5c2.3 0 4.4.9 5.9 2.6 1.5 1.6 2.3 3.8 2.1 6l-18.3 224.9c-.4 4.1-3.8 7.3-8 7.3h-165z"/><path d="M689.4 474c1.1 0 1.9-.9 1.9-1.9V341.5c0-1.1-.9-1.9-1.9-1.9-1.1 0-1.9.9-1.9 1.9v130.6c-.1 1.1.8 1.9 1.9 1.9zm0 24.8c1.1 0 1.9-.9 1.9-1.9v-11.5c0-1.1-.9-1.9-1.9-1.9-1.1 0-1.9.9-1.9 1.9v11.5c-.1 1.1.8 1.9 1.9 1.9zm23.9-168.1c7 0 12.7-5.8 12.6-12.8 0-7-5.8-12.7-12.8-12.6-7 0-12.6 5.7-12.6 12.7.1 7 5.8 12.7 12.8 12.7zm2-21.3c3 .7 5.5 2.8 6.5 5.8h-6.5v-5.8zm0 9.6h6.9c-.5 3.7-3.2 6.7-6.9 7.5V319zm-3.9-9.6v5.8h-6.5c1-3 3.5-5.1 6.5-5.8zm0 9.6v7.5c-3.7-.8-6.4-3.8-6.9-7.5h6.9zM662.5 72.7h-17c-1.1 0-1.9.9-1.9 1.9v175.7c0 1.1.9 1.9 1.9 1.9h17c1.1 0 1.9-.9 1.9-1.9V74.6c0-1.1-.9-1.9-1.9-1.9zm-2 175.7h-13.1V76.6h13.1v171.8zM702 72.7h-17c-1.1 0-1.9.9-1.9 1.9v175.7c0 1.1.9 1.9 1.9 1.9h17c1.1 0 1.9-.9 1.9-1.9V74.6c.1-1.1-.8-1.9-1.9-1.9zm-1.9 175.7H687V76.6h13.1v171.8zm41.5-175.7h-17c-1.1 0-1.9.9-1.9 1.9v175.7c0 1.1.9 1.9 1.9 1.9h17c1.1 0 1.9-.9 1.9-1.9V74.6c0-1.1-.9-1.9-1.9-1.9zm-2 175.7h-13.1V76.6h13.1v171.8zm41.5-175.7h-17c-1.1 0-1.9.9-1.9 1.9v175.7c0 1.1.9 1.9 1.9 1.9h17c1.1 0 1.9-.9 1.9-1.9V74.6c.1-1.1-.8-1.9-1.9-1.9zm-1.9 175.7h-13.1V76.6h13.1v171.8zm-157.1-88.9c-1.1.1-1.9 1-1.8 2.1l1.1 13.1c.1 1 .9 1.8 1.9 1.8h.2c1.1-.1 1.9-1 1.8-2.1l-1.1-13.1c0-1-.9-1.8-2.1-1.8.1 0 .1 0 0 0zm-.5-4.1c1.1-.1 1.9-1 1.8-2.1l-6.1-71.2c-.1-1.1-1-1.9-2.1-1.8s-1.9 1-1.8 2.1l6.1 71.2c.1 1 .9 1.8 1.9 1.8h.2z"/></svg>