<svg xmlns="http://www.w3.org/2000/svg" id="Слой_1" x="0" y="0" version="1.1" viewBox="0 0 826 826" xml:space="preserve"><style>.st1{fill:#D5E7F2}</style><path fill="#F1F6F7" d="M204.9 78l-21.5 30.3h18.3z"/><path d="M784.9 89c-14.7 0-28 8.7-34 22.1-.3.7-1 1.1-1.7 1.1h-42.6l2.5 28.2h40.1c.8 0 1.4.4 1.8 1.1 8.4 18.8 30.4 27.2 49.2 18.8 18.8-8.4 27.2-30.4 18.8-49.2-6.1-13.5-19.4-22.1-34.1-22.1z" class="st1"/><path fill="#F8CBC4" d="M594.8 604.2c-.7-.3-1.5-.7-2.1-1l-1.7 1.1c-32.4 20.2-84.6 32.1-140.4 32.1-64.7 0-124.3-16.3-153.7-41.8-.8-.7-1.5-1.3-2.3-2l-1.6.4c-18.6 6.1-38.1 9.1-57.7 9-27.9 0-58.2-5.6-80.1-14.8l-3.5 33.1-2.3 21.5c21.1 10.7 55.4 17.8 85.9 17.8 20.3 0 40.2-3.2 57.7-9.3l1.4-.5c.2-.1.4-.1.6-.1.5 0 1 .2 1.3.5.2.2.3.3.5.4 27.7 26.2 87.9 43.1 153.7 43.1 56.4 0 108.8-12.3 140.4-32.8l.5-.3c.6-.4 1.3-.4 1.9-.1.4.2.9.5 1.4.7 17.5 8.8 42 13.8 67.6 13.8 38.9 0 73.8-11.2 87.3-27.9l-4.6-51.8c-17.5 13.7-48.7 22.1-82.8 22.1-25.2.1-49.6-4.7-67.4-13.2z"/><path fill="#FBECE9" d="M296.8 656v54.2c27.7 26.2 87.9 43.1 153.7 43.1 56.4 0 108.8-12.3 140.4-32.8v-54.7c-32.4 20.2-84.6 32.1-140.4 32.1-64.7-.1-124.3-16.4-153.7-41.9zM149 645.9l-5.5 52c20.2 12.5 57.7 21.1 91.8 21.1 20.3 0 40.2-3.2 57.7-9.3v-55.3c-18.6 6.1-38.1 9.1-57.6 9-31.1.1-64.5-6.7-86.4-17.5zm445.8 19.7v55.1c17.5 8.8 42 13.8 67.6 13.8 45.6 0 84.9-15.4 91.9-35.8l-4.1-46.2c-15.7 16-50 26.5-87.8 26.5-25.4 0-49.8-4.8-67.6-13.4zm110.6-523.3l-.2-1.9-2.5-28.2-.2-1.9-.2-1.9-3.2-35.5H209.4l-3.7 35.5-.2 1.9-.2 1.9-3 28.2-.2 1.9-.2 1.9-46.3 439.1c21.5 9.2 51.9 15 79.7 15 20.3 0 40.2-3.2 57.7-9.3v-20.3c0-1.1.9-1.9 1.9-1.9s1.9.9 1.9 1.9v20.7c27.7 26.2 87.9 43.1 153.7 43.1 56.4 0 108.8-12.3 140.4-32.8v-98.3c0-1.1.9-1.9 1.9-1.9 1.1 0 1.9.9 1.9 1.9V600c17.5 8.8 42 13.8 67.6 13.8 34.1 0 66.3-9 82.4-22.9l-39.2-446.6-.1-2zM296.8 559.8c0 1.1-.9 1.9-1.9 1.9s-1.9-.9-1.9-1.9v-15.4c0-1.1.9-1.9 1.9-1.9s1.9.9 1.9 1.9v15.4zm298-67.3c0 1.1-.9 1.9-1.9 1.9-1.1 0-1.9-.9-1.9-1.9v-12.2c0-1.1.9-1.9 1.9-1.9 1.1 0 1.9.9 1.9 1.9v12.2z"/><path fill="#F9D5D0" d="M197.9 144.2h-39.8L3.8 362.5c.8 11.8 12.6 27.3 27.1 35.6 10.6 6 30.4 12 39.2 8.1l29.6-42c.6-.9 1.8-1.2 2.7-.6s1.2 1.8.6 2.7c0 .1-.1.1-.1.1l-29.7 42c.8 2.1 3.6 7.8 4.1 8.7 2.4 4.1 5.2 7.9 8.5 11.3 15.4 15.9 36.2 25.5 58.3 26.8 7.3.4 14.6-.7 21.3-1.7l32.5-309.3zM111 355l-4.3 6.1c-.6.9-1.8 1.1-2.7.5-.9-.6-1.1-1.8-.5-2.7l4.3-6.1c.6-.9 1.8-1.1 2.7-.5.9.7 1.1 1.9.5 2.7z"/><path d="M160.8 140.4h37.6l3-28.2h-65c-.8 0-1.4-.4-1.7-1.1-8.4-18.8-30.4-27.2-49.2-18.8s-27.2 30.4-18.8 49.2c8.4 18.8 30.4 27.2 49.2 18.8 8.4-3.7 15.1-10.4 18.8-18.8.3-.7 1-1.1 1.7-1.1h24.4z" class="st1"/><path d="M110.5 352.4c-.9-.6-2.1-.4-2.7.5l-4.3 6.1c-.6.9-.4 2.1.5 2.7.9.6 2.1.4 2.7-.5l4.3-6.1c.6-.9.4-2.1-.5-2.7z"/><path d="M784.9 85.2c-15.7 0-30.1 9-37 23.2h-41.7l-3.3-37.6c-.1-1-.9-1.8-1.9-1.8H207.6c-.7 0-1.3.3-1.7.8l-27.2 38.6h-41.1c-9.9-20.4-34.5-29-54.9-19.1s-29 34.5-19.1 54.9c9.9 20.4 34.5 29 54.9 19.1 8.3-4 15-10.7 19.1-19.1h15.8L.4 360.8c-.3.4-.4.8-.4 1.2.5 13.3 13 30.3 29 39.4 8.9 5.1 29.2 12.5 40.8 9 1.2 3 2.6 5.9 4.2 8.7 2.5 4.3 5.6 8.4 9 12 16.1 16.6 37.8 26.7 60.9 28 1.1.1 2.2.1 3.2.1 6-.1 11.9-.7 17.8-1.7l-15.7 148.7-3.8 36.5-5.9 55.9c-.1.7.3 1.4.9 1.8 20.5 13.2 59.5 22.4 94.8 22.4 20.9 0 41.3-3.3 59.2-9.6C323 739.8 384 757 450.4 757c56.8 0 109.8-12.4 142.1-33.1h.1c18 9.1 43.3 14.4 69.7 14.4 47.4 0 88.6-16.7 95.6-38.9.1-.2.1-.5.1-.7l-4.5-51.1-5-56.1-39.3-447.3h38.5c9.9 20.4 34.5 29 54.9 19 20.4-9.9 29-34.5 19-54.9-6.6-14.1-21-23.1-36.7-23.1zm-580-7.2l-3.2 30.3h-18.2L204.9 78zm-68.5 62.4c-.8 0-1.4.4-1.7 1.1-8.4 18.8-30.4 27.2-49.2 18.8s-27.2-30.4-18.8-49.2c8.4-18.8 30.4-27.2 49.2-18.8 8.4 3.7 15.1 10.4 18.8 18.8.3.7 1 1.1 1.7 1.1h65l-3 28.2h-62zm7.7 315c-22.1-1.3-42.9-10.9-58.3-26.8-3.3-3.4-6.1-7.2-8.5-11.3-.6-1-3.4-6.6-4.1-8.7l29.7-42c.7-.8.5-2-.3-2.7s-2-.5-2.7.3l-.1.1-29.6 41.9c-8.7 3.8-28.6-2.1-39.2-8.1-14.5-8.3-26.2-23.8-27.1-35.6l154.3-218.3H198l-32.5 309.4c-6.8 1.1-14.1 2.2-21.4 1.8zm148.8 254.4c-17.4 6.1-37.3 9.3-57.7 9.3-34.1 0-71.5-8.6-91.8-21.1l5.5-52c21.9 10.7 55.4 17.6 86.3 17.6 19.6.1 39.1-3 57.7-9.1v55.3zm298 10.6c-31.7 20.6-84.1 32.8-140.4 32.8-65.8 0-126-16.9-153.7-43.1V656c29.4 25.5 89 41.8 153.7 41.8 55.9 0 108-12 140.4-32.1v54.7zm163.3-21.7c-6.9 20.4-46.3 35.8-91.9 35.8-25.7 0-50.2-5-67.6-13.8v-55.1c17.8 8.5 42.3 13.4 67.6 13.4 37.8 0 72.1-10.6 87.8-26.5l4.1 46.2zm-9.1-103.3l4.6 51.8c-13.5 16.7-48.5 27.9-87.3 27.9-25.7 0-50.2-5-67.6-13.8-.5-.2-1-.4-1.4-.7-.6-.3-1.3-.3-1.9.1l-.5.3c-31.7 20.5-84.1 32.8-140.4 32.8-65.8 0-126-16.9-153.7-43.1-.2-.1-.3-.3-.5-.4-.4-.3-.8-.5-1.3-.5-.2 0-.4 0-.6.1l-1.4.5c-17.4 6.1-37.3 9.3-57.7 9.3-30.5 0-64.8-7.1-85.9-17.8l2.3-21.5 3.5-33.1c21.9 9.2 52.3 14.8 80.1 14.8 19.6.1 39.1-3 57.7-9l1.6-.5c.7.7 1.5 1.4 2.3 2 29.4 25.5 89 41.8 153.7 41.8 55.9 0 108-12 140.4-32.1l1.7-1.1c.7.4 1.4.7 2.1 1 17.8 8.5 42.3 13.4 67.6 13.4 33.9-.1 65.2-8.5 82.6-22.2zm-.4-4.6c-16.1 13.9-48.3 22.9-82.4 22.9-25.7 0-50.2-5-67.6-13.8v-98.6c0-1.1-.9-1.9-1.9-1.9-1.1 0-1.9.9-1.9 1.9v98.3c-31.7 20.5-84.1 32.8-140.4 32.8-65.8 0-126-16.9-153.7-43.1v-20.7c0-1.1-.9-1.9-1.9-1.9s-1.9.9-1.9 1.9V589c-17.4 6.1-37.3 9.3-57.7 9.3-27.9 0-58.2-5.8-79.7-15l46.3-439.1.2-1.9.2-1.9 3-28.2.2-1.9.2-1.9 3.7-35.5h489.8l3.1 35.5.2 1.9.2 1.9 2.5 28.2.2 1.9.2 1.9 39.1 446.6zm40.2-427.3c-14.7 0-28-8.7-34-22.1-.3-.7-1-1.1-1.7-1.1h-40.1l-2.5-28.2h42.6c.8 0 1.4-.4 1.8-1.1 8.4-18.8 30.4-27.2 49.2-18.8 18.8 8.4 27.2 30.4 18.8 49.2-6.1 13.5-19.4 22.1-34.1 22.1z"/><path d="M294.9 542.5c-1.1 0-1.9.9-1.9 1.9v15.4c0 1.1.9 1.9 1.9 1.9s1.9-.9 1.9-1.9v-15.4c0-1.1-.9-1.9-1.9-1.9zm298-64.1c-1.1 0-1.9.9-1.9 1.9v12.2c0 1.1.9 1.9 1.9 1.9 1.1 0 1.9-.9 1.9-1.9v-12.2c0-1-.9-1.9-1.9-1.9z"/></svg>