<svg xmlns="http://www.w3.org/2000/svg" id="Слой_1" x="0" y="0" version="1.1" viewBox="0 0 826 826" xml:space="preserve"><style>.st0{fill:#E5D7C9}.st1{fill:#BE9C79}</style><path d="M544.7 37.4c-11.1 0-21.6 4.7-29 13 22 14.2 40.8 32.7 55.5 54.3 15.7-14.6 16.6-39.2 1.9-54.9-7.3-7.9-17.6-12.4-28.4-12.4zM248.4 683.3c-12.6-28-31.5-51.1-53.2-65.1-13.7-8.8-27.5-13.3-40.3-13.3-6.2 0-12.3 1.1-18.1 3.3-.8.3-1.6.6-2.4 1-37.1 16.7-46.2 77.1-20.3 134.6s77.1 90.8 114.1 74.1c3.1-1.4 6-3.1 8.7-5.1.1-.1.2-.3.4-.4l1.5-1.1c28-22.6 32.8-76.4 9.6-128zm378.2-65.1c-21.7 14-40.7 37.1-53.2 65.1-23.2 51.5-18.3 105.2 9.5 127.9.7.5 1.3 1.1 2 1.6 2.7 2 5.6 3.7 8.7 5.1 6.5 2.9 13.5 4.3 20.5 4.3 33.7 0 72.2-30.9 93.6-78.4 25.9-57.5 16.8-117.9-20.2-134.5-.8-.4-1.6-.7-2.4-1-5.8-2.2-11.9-3.3-18.1-3.3-12.9-.1-26.7 4.4-40.4 13.2z" class="st0"/><path d="M544.7 33.6c23.6 0 42.7 19.1 42.6 42.7 0 12-5.1 23.5-14 31.6 5.4 8.4 10.2 17.2 14.2 26.3 32-23.6 38.9-68.7 15.3-100.8-23.6-32-68.7-38.8-100.8-15.2-6.2 4.6-11.7 10.2-16.1 16.5 9.2 3.9 18.1 8.4 26.5 13.7 8.1-9.4 19.9-14.8 32.3-14.8z" class="st1"/><path d="M280.9 346.8l1.4 1.4 1.5 1.3c2 1.8 3.9 3.6 6 5.3 71 60.9 176.1 60.2 246.3-1.6 1.7-1.5 3.4-3 5-4.6.5-.4.9-.9 1.4-1.4l1.4-1.4c54.7-53.7 71.3-135.2 42-206l-.8-1.6c-.3-.6-.5-1.2-.8-1.8-4-9-8.6-17.8-14-26.1-.3-.5-.7-1.1-1-1.6s-.7-1.1-1.1-1.6c-14.4-21.5-33.1-39.8-54.9-53.8l-1.6-1-1.6-.9c-8.4-5.2-17.2-9.7-26.4-13.4l-1.8-.7-1.8-.7C459 28.4 436.5 24 413.8 23.8v66.9c0 1-.8 1.9-1.9 1.9-1 0-1.9-.8-1.9-1.9v-67c-22.7.2-45.2 4.5-66.3 12.8l-1.8.7-1.8.7c-9.1 3.8-17.9 8.3-26.3 13.4-.5.3-1.1.7-1.6.9l-1.6 1c-21.8 14-40.5 32.3-54.9 53.8-.4.5-.7 1.1-1.1 1.6-.4.5-.7 1-1 1.6-5.3 8.3-10 17-14 26.1-.3.6-.5 1.2-.8 1.8s-.5 1.2-.7 1.8c-29.6 71.2-12.6 153.2 42.8 206.9zm170-241.5c.8-2.8 3.7-4.4 6.4-3.6l17.9 5.1 2.4.7 2.5.7 20.1 5.8c2.8.8 4.3 3.8 3.4 6.5-.8 2.7-3.6 4.2-6.3 3.5l-8.8-2.5-3.2-.9-2.8-.8-28-8c-2.7-.9-4.4-3.8-3.6-6.5zm40.7 67.7c0 11-8.9 19.9-19.9 19.9s-19.9-8.9-19.9-19.9 8.9-19.9 19.9-19.9 19.9 8.9 19.9 19.9zm8.5 96.2c0 34.2-39.6 62.1-88.2 62.1s-88.2-27.9-88.2-62.1 39.6-62.1 88.2-62.1 88.2 27.9 88.2 62.1zM332.2 173c0-11 8.9-19.9 19.9-19.9S372 162 372 173s-8.9 19.9-19.9 19.9c-10.9 0-19.9-8.9-19.9-19.9zM410 97.9c0-1 .8-1.9 1.9-1.9 1 0 1.9.8 1.9 1.9v7.8c0 1-.8 1.9-1.9 1.9-1 0-1.9-.8-1.9-1.9v-7.8zm-86.4 16l20.2-5.8 2.5-.7 2.4-.7 17.9-5.1c2.8-.7 5.6 1 6.4 3.7.7 2.7-.8 5.5-3.5 6.3l-28 8-2.8.8-3.2.9-8.8 2.5c-2.8.7-5.6-1-6.4-3.7-.8-2.6.7-5.3 3.3-6.2z" class="st1"/><path d="M50.8 498.7c-6.2 23.1 7.5 47 30.6 53.2 11.1 3 23 1.4 33-4.3l140.8-81.4 11.4-38.7c.3-1 1.3-1.5 2.3-1.3h.1c1 .3 1.6 1.3 1.3 2.4L230 566.1l49.5-20.3c1-.4 2.1 0 2.5.9.4 1 0 2.1-.9 2.5 0 0-.1 0-.2.1l-126.8 51.8c13.8-.2 28.5 4.5 43.2 13.9 22.3 14.4 41.7 38.1 54.6 66.7 20.3 45 19.5 91.8.9 119.5l113.4-80.9c.9-.6 2-.4 2.6.4.6.9.4 2-.4 2.6l-10.8 7.7h107.5l-10.7-7.7c-.9-.6-1.2-1.7-.6-2.6.6-.9 1.7-1.2 2.6-.6.1 0 .1.1.2.2L568.8 801c-18.4-27.7-19.1-74.4 1.1-119.4 12.9-28.7 32.3-52.4 54.6-66.7 14.6-9.4 29.4-14.1 43.2-13.9l-126.8-51.9c-1-.4-1.5-1.4-1.1-2.4s1.4-1.5 2.4-1.1c.1 0 .1 0 .2.1L597 568l-29.2-99.7c-.1-.2-.2-.4-.2-.7l-4.9-16.8c-.3-1 .3-2 1.3-2.3 1-.3 2.1.3 2.4 1.3l4.8 16.4 140.7 81.2c20.8 12 47.3 4.9 59.3-15.9s4.9-47.3-15.9-59.3L544.5 350.7c-1.9 1.8-3.8 3.6-5.8 5.3.1.2.2.3.3.5l24.6 83.9c.3 1-.3 2.1-1.3 2.4-.2 0-.3.1-.5.1-.8 0-1.6-.6-1.8-1.4l-24.3-82.8c-34.1 28.8-77.1 44.8-121.8 45.2v22.3c0 1-.8 1.9-1.9 1.9-1 0-1.9-.8-1.9-1.9v-22.3c-43.8-.4-86-15.8-119.8-43.6l-17.1 58.4c-.2.8-1 1.4-1.8 1.4-.2 0-.4 0-.5-.1h-.1c-1-.3-1.5-1.4-1.2-2.3l17.6-60c-2.3-2-4.6-4-6.8-6.1L71 472.3c-10 5.8-17.2 15.3-20.2 26.4zM410 472.2c0-1 .8-1.9 1.9-1.9 1 0 1.9.8 1.9 1.9v46.1c0 1-.8 1.9-1.9 1.9-1 0-1.9-.8-1.9-1.9v-46.1zm0 92.2c0-1 .8-1.9 1.9-1.9 1 0 1.9.8 1.9 1.9v46.1c0 1-.8 1.9-1.9 1.9-1 0-1.9-.8-1.9-1.9v-46.1zm0 92.2c0-1 .8-1.9 1.9-1.9 1 0 1.9.8 1.9 1.9v23.7c0 1-.8 1.9-1.9 1.9-1 0-1.9-.8-1.9-1.9v-23.7zM250.6 107.9c-17.6-15.7-19.2-42.6-3.5-60.2s42.6-19.2 60.2-3.5c1.5 1.3 2.8 2.7 4.1 4.2 8.5-5.2 17.4-9.8 26.5-13.7C315 2.2 270.1-5.6 237.5 17.3s-40.3 67.9-17.3 100.5c4.5 6.3 9.9 11.9 16.2 16.5 4-9.2 8.8-18 14.2-26.4z" class="st1"/><path d="M496.3 269.2c0-24.4-21.8-45.3-52.6-54-2.8 10.5-16.9 32.8-25.4 36.2-1.4.6-3 .9-4.5 1.1v75c45.7-.7 82.5-26.5 82.5-58.3zm-256-192.9c0 10.8 4.5 21.1 12.4 28.4 14.6-21.7 33.5-40.2 55.5-54.3-14.3-16-38.9-17.4-54.9-3-8.3 7.3-13 17.9-13 28.9zm139.8 138.9c-30.8 8.7-52.6 29.6-52.6 54 0 31.7 36.8 57.6 82.5 58.3v-75c-1.6-.2-3.1-.5-4.5-1.1-8.4-3.4-22.5-25.6-25.4-36.2z" class="st0"/><path d="M47.2 497.7c-6.7 25.2 8.2 51.1 33.4 57.8 12.1 3.2 25 1.5 35.8-4.7l137.3-79.3-28.3 96.3-90.4 37-.9.4-.6.2s-.1 0-.1.1l-.5.2c-39 17.6-48.9 80.2-22.2 139.6 22 48.9 62 80.6 97.2 80.6 7.6 0 15-1.5 21.9-4.6 4-1.8 7.8-4.1 11.2-6.9L352.4 735h118.1l110.3 79.3c3.5 2.8 7.2 5.1 11.3 7 6.9 3.1 14.4 4.6 21.9 4.6 35.2 0 75.2-31.7 97.2-80.6 26.7-59.4 16.8-122-22.1-139.6l-.5-.2s-.1 0-.1-.1l-.6-.2-.9-.4-85.9-35c.1-.3.1-.7 0-1.1l-28.5-97.2 137.2 79.2c22.6 12.9 51.5 5 64.4-17.6C787 510.6 779.4 482 757 469L547.3 347.9c55.4-55 71.9-138.1 41.7-210.2 34.1-24.4 42-71.7 17.6-105.8s-71.7-42-105.8-17.6c-7.2 5.2-13.5 11.6-18.5 18.9-45.2-17.8-95.5-17.8-140.7 0-23.7-34.5-70.9-43.3-105.5-19.6s-43.4 70.9-19.7 105.5c5 7.3 11.2 13.6 18.4 18.8-30.3 72.4-13.4 156 42.7 211L69.1 469c-10.8 6.3-18.7 16.6-21.9 28.7zm191.6 313.6l-1.5 1.1c-.2.1-.3.2-.4.4-2.7 2-5.6 3.7-8.7 5.1-37 16.7-88.2-16.6-114.1-74.1s-16.8-117.9 20.2-134.6c.8-.4 1.6-.7 2.4-1 5.8-2.2 11.9-3.3 18.1-3.3 12.8 0 26.6 4.5 40.3 13.3 21.7 14 40.6 37.1 53.2 65.1 23.3 51.6 18.5 105.4-9.5 128zm446.3-203.1c.8.3 1.6.6 2.4 1 37 16.7 46.1 77 20.2 134.5-21.4 47.5-60 78.4-93.6 78.4-7.1 0-14.1-1.4-20.5-4.3-3.1-1.4-6-3.1-8.7-5.1-.7-.5-1.4-1-2-1.6-27.8-22.7-32.7-76.4-9.5-127.9 12.6-28 31.5-51.1 53.2-65.1 13.7-8.8 27.5-13.3 40.3-13.3 6.2.1 12.4 1.2 18.2 3.4zM544.7 4.2c39.8 0 72 32.3 72 72.1 0 22.8-10.8 44.3-29.2 57.9-4-9.1-8.8-17.9-14.2-26.3 17.6-15.7 19.2-42.6 3.5-60.2s-42.6-19.2-60.2-3.5c-1.5 1.3-2.8 2.7-4.1 4.2-8.5-5.2-17.4-9.8-26.5-13.7 13.4-19.1 35.3-30.4 58.7-30.5zm26.5 100.5c-14.6-21.7-33.5-40.1-55.5-54.3 14.1-16.2 38.7-17.8 54.8-3.7 16.2 14.1 17.8 38.7 3.7 54.8-.9 1.2-1.9 2.2-3 3.2zM207.1 76.3c0-39.8 32.3-72 72.1-72 23.3 0 45.2 11.3 58.7 30.4-9.2 3.9-18.1 8.4-26.5 13.7-15.3-17.9-42.2-20.1-60.1-4.8s-20.1 42.2-4.8 60.1c1.3 1.5 2.6 2.9 4.1 4.2-5.4 8.4-10.2 17.2-14.2 26.3-18.4-13.6-29.3-35.1-29.3-57.9zm101.1-25.9c-22 14.2-40.8 32.7-55.5 54.3-15.8-14.5-16.9-39.1-2.4-54.9 14.5-15.8 39.1-16.9 54.9-2.4l3 3zm-84.4 161.5c0-24.7 4.8-49.1 14.2-71.9.2-.6.5-1.2.7-1.8.3-.6.5-1.2.8-1.8 4-9 8.6-17.8 14-26.1.3-.5.7-1.1 1-1.6s.7-1.1 1.1-1.6c14.4-21.5 33.1-39.8 54.9-53.8l1.6-1c.5-.3 1.1-.7 1.6-.9 8.4-5.2 17.2-9.7 26.3-13.4l1.8-.7 1.8-.7c21.1-8.2 43.6-12.6 66.3-12.8v66.9c0 1 .8 1.9 1.9 1.9 1 0 1.9-.8 1.9-1.9v-67c22.7.2 45.2 4.5 66.3 12.8l1.8.7 1.8.7c9.1 3.8 18 8.3 26.4 13.4l1.6.9 1.6 1c21.8 14 40.5 32.3 54.9 53.8.4.5.7 1.1 1.1 1.6.4.5.7 1 1 1.6 5.3 8.3 10 17 14 26.1.3.6.5 1.2.8 1.8l.7 1.8c29.3 70.8 12.7 152.4-42 206l-1.4 1.4-1.4 1.4c-1.6 1.6-3.3 3.1-5 4.6-70.2 61.8-175.3 62.5-246.3 1.6-2-1.7-4-3.5-6-5.3l-1.5-1.3-1.4-1.4c-36.4-35.5-57-84.2-56.9-135zm56.5 139.6c2.2 2.1 4.5 4.1 6.8 6.1l-17.6 60c-.3 1 .2 2 1.2 2.3h.1c.2.1.4.1.5.1.8 0 1.6-.6 1.8-1.4l17.1-58.4C324 388 366.3 403.4 410 403.8v22.4c0 1 .8 1.9 1.9 1.9 1 0 1.9-.8 1.9-1.9v-22.3c44.6-.4 87.7-16.4 121.8-45.2l24.3 82.8c.2.8 1 1.4 1.8 1.4.2 0 .4 0 .5-.1 1-.3 1.6-1.3 1.3-2.4l-24.6-83.8c-.1-.2-.1-.4-.3-.5 2-1.7 3.9-3.5 5.8-5.3l210.7 121.7c20.8 12 27.9 38.5 15.9 59.3s-38.5 27.9-59.3 15.9l-140.6-81.4-4.8-16.4c-.3-1-1.3-1.6-2.4-1.3-1 .3-1.6 1.3-1.3 2.3l4.9 16.8c0 .2.1.5.2.7l29.2 99.7-54.6-22.3c-1-.4-2.1 0-2.5.9-.4 1 0 2.1.9 2.5 0 0 .1 0 .2.1l126.8 51.9c-13.8-.2-28.5 4.5-43.2 13.9-22.3 14.4-41.7 38.1-54.6 66.7-20.2 44.9-19.5 91.6-1.1 119.4l-112.2-80.7c-.8-.7-2-.6-2.7.3-.7.8-.6 2 .3 2.7l.2.2 10.7 7.7H357.6l10.8-7.7c.9-.6 1.1-1.8.4-2.6-.6-.9-1.8-1.1-2.6-.4l-113.4 80.9c18.5-27.7 19.3-74.5-.9-119.5-12.9-28.7-32.3-52.4-54.6-66.7-14.6-9.4-29.4-14.1-43.2-13.9l126.7-51.9c1-.4 1.5-1.4 1.1-2.4s-1.4-1.5-2.4-1.1c-.1 0-.1 0-.2.1l-49.5 20.3L270.1 429c.3-1-.3-2.1-1.3-2.4h-.1c-1-.2-2 .3-2.3 1.3l-11.2 38.3-140.8 81.3c-20.8 12-47.3 4.9-59.3-15.9s-4.9-47.3 15.9-59.3l209.3-120.8z"/><path d="M411.9 107.6c1 0 1.9-.8 1.9-1.9v-7.8c0-1-.8-1.9-1.9-1.9-1 0-1.9.8-1.9 1.9v7.8c0 1 .9 1.9 1.9 1.9zm0 362.7c1 0 1.9.8 1.9 1.9v46.1c0 1-.8 1.9-1.9 1.9-1 0-1.9-.8-1.9-1.9v-46.1c0-1 .9-1.9 1.9-1.9zm0 92.2c1 0 1.9.8 1.9 1.9v46.1c0 1-.8 1.9-1.9 1.9-1 0-1.9-.8-1.9-1.9v-46.1c0-1.1.9-1.9 1.9-1.9zm0 119.7c1 0 1.9-.8 1.9-1.9v-23.7c0-1-.8-1.9-1.9-1.9-1 0-1.9.8-1.9 1.9v23.7c0 1 .9 1.9 1.9 1.9z"/><circle cx="471.7" cy="173" r="19.9"/><circle cx="352.1" cy="173" r="19.9"/><path d="M454.5 111.7l28 8 2.8.8 3.2.9 8.8 2.5c2.8.7 5.6-1 6.4-3.7.7-2.7-.8-5.5-3.5-6.3l-20.1-5.8-2.5-.7-2.4-.7-17.9-5.1c-2.8-.7-5.6 1-6.4 3.7-.6 2.9.9 5.6 3.6 6.4zm-128 12.2l8.8-2.5 3.2-.9 2.8-.8 28-8c2.8-.8 4.3-3.8 3.4-6.5-.8-2.7-3.6-4.2-6.3-3.5l-17.9 5.1-2.4.7-2.5.7-20.2 5.8c-2.8.8-4.3 3.8-3.4 6.5 1 2.5 3.8 4.1 6.5 3.4zm-2.7 145.3c0 34.2 39.6 62.1 88.2 62.1s88.1-27.8 88.1-62.1-39.6-62.1-88.2-62.1-88.1 27.9-88.1 62.1zm86.2 58.3c-45.7-.7-82.5-26.5-82.5-58.3 0-24.4 21.8-45.3 52.6-54 2.8 10.5 16.9 32.8 25.4 36.2 1.5.6 3 .9 4.5 1.1v75zm3.8-75c1.6-.2 3.1-.5 4.5-1.1 8.4-3.5 22.6-25.7 25.4-36.2 30.8 8.7 52.6 29.6 52.6 54 0 31.7-36.8 57.6-82.5 58.3v-75z"/></svg>