<svg xmlns="http://www.w3.org/2000/svg" viewBox="0 0 150 104.7"><path fill="#DA4643" d="M132.1 48.2c-.2.9-1.2 1.5-2.3 1.3l-32.6-7.2c-1-.2-1.7-1.2-1.5-2.1l8.6-38.9c.2-.9 1.2-1.5 2.3-1.3l32.6 7.2c1 .2 1.7 1.2 1.5 2.1l-8.6 38.9z"/><path fill="#F39225" d="M108 51.6c0 1.1-1.2 1.9-2.7 1.9H59.2c-1.5 0-2.7-.9-2.7-1.9V7.3c0-1.1 1.2-1.9 2.7-1.9h46.2c1.5 0 2.7.9 2.7 1.9v44.3z"/><g fill="#E6E6E5"><path d="M148.1 12.1H46.6c-1.1 0-1.9 1-1.9 2.2 0 1.2.9 2.2 1.9 2.2h101.5c1.1 0 1.9-1 1.9-2.2 0-1.2-.9-2.2-1.9-2.2zm-6.4 17.7H51.6c-1.1 0-1.9 1-1.9 2.2 0 1.2.9 2.2 1.9 2.2h90.1c1.1 0 1.9-1 1.9-2.2 0-1.2-.9-2.2-1.9-2.2zm-6.8 17.7H55.5c-1.1 0-1.9 1-1.9 2.2 0 1.2.9 2.2 1.9 2.2h79.4c1.1 0 1.9-1 1.9-2.2 0-1.2-.8-2.2-1.9-2.2z"/><path d="M65.2 15.1l-3.8.5 5.2 46 4 1zm15.3.3l-3.8.3L79.5 63l4-.8zm11.5-.7v48.5l3.7-.2.2-48.3zm17.8-.1l-7.3 49.1 4.1-1.7 6.9-46.7zm16.4-.1L114.3 64l4.3-1 11.3-47.3zm16.2-.7l-15.8 47.8 3.8 1.8L146 15.3z"/></g><path fill="#DA4643" d="M138.5 58.3H61.1L45.5 8.1c-.2 2.7-2.6 3.2-5 3.6l15.9 51c.4 1.3 1.5 2.1 2.6 2.1h79.3c1.6 0 2.8-1.4 2.8-3.2.2-1.8-1.1-3.3-2.6-3.3z"/><path fill="#999" d="M44.8 5.6c-.9-.8-2.1-1.3-3.5-1.3H5c-2.8 0-5 2-5 4.5s2.2 4.5 5 4.5h36.3c.2 0 .4 0 .6-.1 2.3-.3 4.1-1.9 4.4-4v-.4c0-1.3-.6-2.4-1.5-3.2z"/><path fill="#DA4643" d="M116.7 95.5h-62l7.4-34.4 3.9 1.1-6.1 28.7h56.8z"/><ellipse cx="57.9" cy="93.6" fill="#E6E6E5" rx="11.1" ry="11.1" transform="matrix(.9993 -.03838 .03838 .9993 -3.548 2.293)"/><path fill="#F39225" d="M66.3 93.6c0 4.6-3.7 8.4-8.4 8.4-4.6 0-8.4-3.7-8.4-8.4 0-4.6 3.7-8.4 8.4-8.4s8.4 3.8 8.4 8.4z"/><path fill="#E6E6E5" d="M126.7 93.6c0 6.1-5 11.1-11.1 11.1s-11.1-5-11.1-11.1 5-11.1 11.1-11.1c6.1-.1 11.1 4.9 11.1 11.1z"/><path fill="#F39225" d="M123.9 93.6c0 4.6-3.7 8.4-8.4 8.4-4.6 0-8.4-3.7-8.4-8.4 0-4.6 3.7-8.4 8.4-8.4s8.4 3.8 8.4 8.4z"/></svg>